<svg xmlns="http://www.w3.org/2000/svg" viewBox="0 0 175 33.4">
  <style>
    .st0 {
      enable-background: new;
    }
    .st1 {
      fill: #cb3233;
    }
    .st2 {
      fill: #060606;
    }
  </style>
  <g class="st0">
    <path
      d="M4 16.8l-3.6-.7c.4-1.5 1.1-2.5 2.1-3.2s2.5-1 4.4-1c1.8 0 3.1.2 4 .6.9.4 1.5 1 1.8 1.6.4.6.5 1.8.5 3.6v4.7l.2 2.9c.1.6.4 1.3.7 2h-3.9l-.4-1.2-.1-.5c-.7.7-1.4 1.2-2.2 1.5s-1.6.5-2.5.5c-1.5 0-2.8-.4-3.7-1.3S0 24.5 0 23.2c0-.9.2-1.6.6-2.3.4-.7 1-1.2 1.7-1.5.7-.4 1.8-.7 3.2-1 1.9-.3 3.2-.7 3.9-1V17c0-.8-.2-1.3-.6-1.6-.4-.3-1.1-.5-2.1-.5-.7 0-1.3.1-1.7.4-.4.3-.7.8-1 1.5zm5.4 3.3l-2.4.6a8 8 0 00-2.2.7c-.6.3-.8.8-.8 1.4 0 .6.2 1 .6 1.4.4.4.9.6 1.6.6.7 0 1.4-.2 2.1-.7.5-.4.8-.8.9-1.3l.2-1.9v-.8zM17.1 12.2h3.7v2.2c.5-.8 1.1-1.4 2-1.8a5.6 5.6 0 017.1 1.4 8.5 8.5 0 011.8 5.7c0 2.5-.6 4.5-1.8 5.9a5.7 5.7 0 01-8.9-.1V33h-4V12.2zm3.9 7.3c0 1.7.3 2.9 1 3.7.7.8 1.5 1.2 2.5 1.2a3 3 0 002.3-1.1c.6-.7.9-2 .9-3.7 0-1.6-.3-2.8-.9-3.5-.6-.8-1.4-1.1-2.4-1.1a3 3 0 00-2.4 1.1c-.7.8-1 1.9-1 3.4zM43.6 22.5l4 .7a6 6 0 01-2.4 3.3 6.8 6.8 0 01-4.1 1.1c-2.6 0-4.6-.9-5.8-2.6a8.6 8.6 0 01-1.5-5.2c0-2.5.7-4.4 2-5.9 1.3-1.4 3-2.1 4.9-2.1 2.2 0 4 .7 5.3 2.2 1.3 1.5 1.9 3.7 1.9 6.8h-10c0 1.2.3 2.1 1 2.8s1.4 1 2.3 1a3 3 0 001.6-.5c.3-.3.6-.8.8-1.6zm.3-4c0-1.2-.3-2-.9-2.6-.6-.6-1.3-.9-2.1-.9-.9 0-1.6.3-2.2 1-.6.6-.8 1.5-.8 2.6h6zM49.1 27.3l5.4-7.8-5.2-7.3h4.9l2.7 4.1 2.8-4.1h4.7l-5.1 7.1 5.6 7.9H60l-3.1-4.7-3.1 4.7h-4.7z"
      class="st1"
    />
  </g>
  <g class="st0">
    <path
      d="M76.9 25.4c-.9.8-1.9 1.4-2.7 1.7-.9.3-1.8.5-2.8.5-1.7 0-2.9-.4-3.8-1.2a3.9 3.9 0 01-1.3-3.1c0-.7.2-1.4.5-2 .3-.6.8-1.1 1.3-1.5.5-.4 1.2-.6 1.8-.8l2.3-.4c2.1-.2 3.6-.5 4.5-.9V17c0-1-.2-1.8-.7-2.2-.7-.5-1.7-.8-3-.8a5 5 0 00-2.7.6c-.6.4-1 1.2-1.3 2.2l-2.5-.3c.2-1.1.6-1.9 1.1-2.6.5-.7 1.3-1.2 2.3-1.5a9 9 0 013.4-.5c1.3 0 2.3.2 3.1.5a5 5 0 011.8 1.1c.4.5.6 1 .8 1.7l.1 2.4V21c0 2.4.1 3.9.2 4.5l.6 1.8h-2.7c-.1-.5-.3-1.2-.3-1.9zm-.3-5.7c-.9.4-2.3.7-4.2 1-1 .2-1.8.3-2.2.5-.4.2-.8.5-1 .8-.2.4-.4.8-.4 1.2 0 .7.3 1.2.8 1.7s1.3.7 2.3.7c1 0 1.9-.2 2.6-.6.8-.4 1.3-1 1.7-1.8.3-.6.4-1.4.4-2.6v-.9zM83.2 27.3V12.2h2.3v2.1a5.3 5.3 0 014.8-2.5 7 7 0 012.5.5c.8.3 1.3.8 1.7 1.3s.6 1.2.8 1.9l.1 2.5v9.3h-2.6v-9.2c0-1-.1-1.8-.3-2.3-.2-.5-.6-.9-1.1-1.2a4 4 0 00-4.6.5c-.8.7-1.2 2-1.2 3.9v8.2h-2.4zM109.1 25.4c-.9.8-1.9 1.4-2.7 1.7-.9.3-1.8.5-2.8.5-1.7 0-2.9-.4-3.8-1.2a3.9 3.9 0 01-1.3-3.1c0-.7.2-1.4.5-2 .3-.6.8-1.1 1.3-1.5.5-.4 1.2-.6 1.8-.8l2.3-.4c2.1-.2 3.6-.5 4.5-.9V17c0-1-.2-1.8-.7-2.2-.7-.6-1.6-.9-2.9-.9a5 5 0 00-2.7.6c-.6.4-1 1.2-1.3 2.2l-2.5-.3c.2-1.1.6-1.9 1.1-2.6.5-.7 1.3-1.2 2.3-1.5a9 9 0 013.4-.5c1.3 0 2.3.2 3.1.5a5 5 0 011.8 1.1c.4.5.6 1 .8 1.7l.1 2.4V21c0 2.4.1 3.9.2 4.5l.6 1.8h-2.7l-.4-1.9zm-.2-5.7c-.9.4-2.3.7-4.2 1-1 .2-1.8.3-2.2.5-.4.2-.8.5-1 .8-.2.4-.4.8-.4 1.2 0 .7.3 1.2.8 1.7s1.3.7 2.3.7c1 0 1.9-.2 2.6-.6.8-.4 1.3-1 1.7-1.8.3-.6.4-1.4.4-2.6v-.9zM115.4 27.3V6.5h2.6v20.8h-2.6zM121.8 33.1l-.3-2.4c.6.2 1 .2 1.5.2.6 0 1-.1 1.4-.3s.6-.5.8-.8l.8-1.9.2-.6-5.7-15.1h2.7l3.1 8.7 1.1 3.5 1-3.4 3.2-8.8h2.6l-5.7 15.3-1.4 3.4c-.5.8-1 1.5-1.6 1.9-.6.4-1.3.6-2.1.6a5 5 0 01-1.6-.3zM142 25l.4 2.3c-.7.2-1.4.2-1.9.2-.9 0-1.6-.1-2.2-.4-.5-.3-.9-.7-1.1-1.2-.2-.5-.3-1.5-.3-3v-8.7H135v-2h1.9V8.5l2.5-1.5v5.3h2.6v2h-2.6V23l.1 1.4.4.5.9.2 1.2-.1zM144.5 9.4V6.5h2.6v2.9h-2.6zm0 17.9V12.2h2.6v15.1h-2.6zM149.2 27.3l5.5-7.8-5.1-7.2h3.2l2.3 3.5 1 1.7 1.1-1.7 2.5-3.6h3l-5.2 7.1 5.6 8H160l-3.1-4.7-.8-1.3-4 5.9h-2.9z"
      class="st2"
    />
  </g>
  <g class="st0">
    <path
      d="M169.3 0a5.5 5.5 0 014.9 2.8c.5.9.8 1.9.8 2.9s-.3 1.9-.8 2.8c-.5.9-1.2 1.6-2.1 2.1a6 6 0 01-2.9.8c-1 0-1.9-.3-2.9-.8a6 6 0 01-2.9-4.9c0-1 .3-2 .8-2.9.5-.9 1.2-1.6 2.1-2.1 1.1-.5 2-.7 3-.7zm0 .9c-.8 0-1.6.2-2.3.6a4 4 0 00-1.8 1.8c-.4.8-.6 1.6-.6 2.4 0 .8.2 1.6.6 2.4.4.8 1 1.3 1.8 1.8.8.4 1.6.6 2.4.6s1.6-.2 2.4-.6c.8-.4 1.3-1 1.8-1.8a5 5 0 000-4.8 4 4 0 00-1.8-1.8c-.9-.3-1.7-.6-2.5-.6zm-2.5 8V2.7h2.1l1.6.2c.4.1.6.3.8.6l.3.9c0 .5-.2.8-.5 1.2s-.7.5-1.3.6l.5.3.9 1.2.8 1.2h-1.2l-.5-1c-.4-.8-.8-1.2-1-1.4l-.8-.2h-.6v2.6h-1.1zm1-3.5h1.2c.6 0 1-.1 1.2-.3.2-.2.3-.4.3-.7l-.2-.5c-.1-.1-.2-.3-.4-.3l-1-.1h-1.1v1.9z"
      class="st2"
    />
  </g>
</svg>
