<svg xmlns="http://www.w3.org/2000/svg" viewBox="0 0 176 155.7">
  <style>
    .st2 {
      fill-rule: evenodd;
      clip-rule: evenodd;
    }
  </style>
  <path
    fill="#009dc1"
    fill-rule="evenodd"
    stroke="#fff"
    stroke-linecap="round"
    stroke-linejoin="round"
    stroke-miterlimit="10"
    d="M175.5 127.1v28.1H30.7v-28.1h144.8zm0-120.1v6H27.3V7.4L175.5 7z"
    clip-rule="evenodd"
  />
  <path
    fill="#fff"
    fill-rule="evenodd"
    d="M46.4 141.7c1.9.5 1.9 1.4 1.9 2.6 0 .3-.2 2.8-1.8 2.8h-1.4v-5.4h1.3zm1.9-4c0 1-.9 2.6-2.3 2.6h-.9c0-4 .2-4.3 0-4.9h.7c1.6 0 2.5 1.1 2.5 2.3zm80.4 3.3c0 2.4-.7 6.4-4.6 6.4-3.5 0-4.2-3.8-4.2-5.6 0-1.9.3-6.6 4.4-6.6 3.8 0 4.4 4 4.4 5.8zm-60.5 0c0 2.4-1.1 6.4-4.6 6.4-2.5 0-4.2-2.4-4.2-4.2v-3.1c0-3 2.1-4.9 4.4-4.9 3.4 0 4.4 3.5 4.4 5.8zm94.8-6.6v1.4h-4.9v4.3h4.7v1.4c-.4.2-4.2.2-4.6 0-.2.2-.2.5-.2 5.2h4.9v1.6h-8.1v-13.9h8.2zm-23.1 0l.2.4-.2 5.4c0 2.4-.3 7.1 3.9 7.1 2.1 0 3.7-1.2 3.9-4.3v-8.5h1.8v8.7c0 4.5-3.9 5.6-6.3 5.6-5.1 0-6.1-2.6-6.1-6.4v-7.8h2.8zm-28.4 0v13.9h-3.2v-13.9h3.2zm-7.5 0v1.4c-1.1.2-2.3 0-3.7 0v12.5H97v-12.5h-3.5v-1.4H104zm-55.2 0c1.9.4 2.6 1.6 2.6 3 0 1.6-1.4 3-3.5 3.5 2.1 0 3.8 1.4 3.8 3.5s-1.6 4-4 4H42v-13.9h6.8zm83.5 6.9a8 8 0 01-5.3 7.1l5.1 3.1c-.9.2-2.3 1-2.6 1-.5 0-3.5-3.1-5.6-4-1-.5-2.3-.3-3.3-.7-1.9-.7-4-3.1-4-4.5v-4c1.2-4.3 4.7-5.4 7.9-5.4 4.3.1 7.8 2.2 7.8 7.4zm-60.6-.2c0 5.4-4.4 7.5-8.2 7.5-.4 0-1.4 0-1.8-.2-1-.2-1.9-.7-2.8-1-.9-.3-3-3.1-3-4.2v-3.5c1.6-5 4.7-5.7 8.1-5.7 4.6 0 7.7 2.6 7.7 7.1zm7.9-7.1c-.2 1.2-.2 5.6-.2 5.9 0 2.6-.5 7.3 3.7 7.3 1.8 0 3.5-.9 3.9-3.5v-9.4l1.8-.2.2.2c.2.7 0 1.4-.2 6.4v3c-.5 3.8-3.7 4.9-6.1 4.9-2.6 0-5.8-.9-6.1-4.7l-.2-9.4c.2-.7 4.1.4 3.2-.5z"
    clip-rule="evenodd"
  />
  <path
    d="M83.8 108.3c0 2.3-1.5 7.3-4.4 8.6-1.5.6-2.9.8-4.4 1-3.4 0-4 .2-9 0l.6-10.9.2-8.2 4.6-.2c5.2.1 12.4 1.3 12.4 9.7zM51.2 98.2v16.2c-1.9 2.7-4.2 3.8-6.1 3.8-7.6 0-8.6-8.8-8.6-12.8 0-3.8 1.3-12.4 8-12.4 2.1 0 6.7 2.1 6.7 5.2zM142 94c0 4.2.2 5.2.2 5.7 0 8.4-3.6 18.9-14.7 18.9-.4 0-1.1 0-1.7-.2l-1.1-39.2c-1.3-2.1 1.7-1.7 3.2-1.7 8.5 0 13.9 5.9 14.1 16.5zm-60.9-8.8c0 5-2.5 9.2-8.4 9.2h-6.1V76.8l.2.2 4.6-.2c5.5 0 9.7 1.7 9.7 8.4zm88.7 4.9c0 .6 0 1.7-.2 2.3H153v-2.3c1.5-6.3 1.7-13.4 9.5-13.4 6.7-.1 7.3 10.4 7.3 13.4zm-56.4 7.5c0 3.6-.6 21.6-9.5 21.6-7.6 0-9.3-14.5-9.3-17.4v-8c0-3.6.8-17.6 9.3-17.6 9.3 0 9.5 18.5 9.5 21.4zm17.1-23.9c1.7.4 4.2 1 6.1 1.9a17 17 0 016.5 8 45.2 45.2 0 012.5 15.7c0 6.7-1.9 18.5-11.4 21.6-1.5.4-4 1-4.6 1h-8.4V73.7h9.3zM85.1 85.4c0 4.2-2.3 8.4-8 10.9 7.8 1.3 10.5 6.5 10.5 12.4 0 8.8-6.3 13-13.2 13H61.1c1.1-5.2.8-8.4 1.5-12.6l.4-28.3-.8-7.3h12.2c7.3 0 10.7 6.5 10.7 11.9zm88.1-.6c0 1.7.6 4.6.6 5.2v6.3h-21.2v5.9c.2.8.2 1.7.2 2.3 0 3.8 4.4 13.8 10.7 13.8 3.6 0 6.5-3.6 7.4-7.6 0-5.2-.2-6.1-.4-6.9l.2-.4c2.3.2 3.4.2 4.4 0v2.1c-1.1 10.1-3.4 16.4-11.8 16.4-9.5 0-14.3-12-14.3-17.8V90.9c0-9.7 4.2-17.8 13.5-17.8 6 0 10.5 4.2 10.7 11.7zm-118-1.9l.2 33.8c0 1.7.8 3.4 2.3 5h-5.9l-.6-2.7c-1.5 2.5-4.8 3.4-6.7 3.4-5.3 0-9.9-3.8-11.6-10.5l-.4-2.5v-6.7c.4-8.6 5.9-13.4 12.2-13.4 1.9 0 5.9.4 7.2 3.6l.2-7.1c-.2-5.2-1.7-9.4-6.9-9.4-3.2 0-6.9 1.3-6.9 5.7v4h-4.6c-.2-.2-.2 0-.2-.6l.6-3.6c1.9-7.3 6.3-8.8 10.9-8.8 5.8-.2 9.8 1.4 10.2 9.8zm62.5 14.7c0 9.9-1.3 25.6-13.5 25.6-7.6 0-11.4-5.5-13-13.8l-.6-5V93.8c1-8.4 1-21.6 13.5-21.6 13.3 0 13.6 19.3 13.6 25.4zM73.4 44.3v15.9c-2.8 2.8-4.1 3.6-6.4 3.6-4.1 0-7.1-3-8.4-8.1l-.2-1.5v-6c.9-4.9 2.4-9.9 7.9-9.9 3 0 7.1 2.2 7.1 6zm51.3-26.1v4.3l-4.7-.6h-3.2v39l.6 6.6c-.2.2-.6.2-4.9.2l.6-6.2.2-34.7c-.9-3.6 1.1-4.7-2.4-4.7l-4.5.2-1.1-.2v-3.9h19.4zm22.1 10.7l-.2 4.3h-4.7c.4-1.7 1.1-4.7 1.1-5.4 0-4.1-1.7-6.4-6-6.4-5.4 0-6 4.3-6 7.3 0 13.5 16.5 12.2 16.5 27.6 0 8.4-3.6 12.4-11.8 12.4-6.4 0-9.2-5.8-9.2-10.3v-5.6h4.9l-.9 5.6c0 3.9 2.4 6.4 6.2 6.4 3.2 0 5.8-2.6 6.9-6.4v-4.1c-.4-1.1-.9-2.8-1.7-4.1-1.5-2.8-5.8-6.2-7.9-7.9-3.9-2.8-6.9-8.1-6.9-11.8v-5.1c1.3-7.1 5.1-7.9 9.4-7.9 8.6.1 10.3 4.8 10.3 11.4zm-46-11.3v3.9h-4.9c-5.1 1.1-7.1 5.8-7.1 9.2l.2 29.7.6 7.3h-4.9V18.4h4.1v4.9c1.5-3.9 5.8-5.8 8.8-5.8h3.2zM77.4 30.2v32.1c.4 1.5.6 3.4 2.4 5.1-.2.2-.6.2-5.8.2-.4-.9-.4-1.9-.6-3-1.7 3-5.1 3.4-7.1 3.4-6 0-10.5-4.7-12-12l-.2-1.7v-5.6c.2-8.1 4.7-14.6 12.6-14.6 1.7 0 6 .4 7.1 3.6l.4-.6v-4.9c-.6-4.6-.6-11.2-7.1-11.2-5.8 0-7.9 3.2-7.1 10.1 0 0 0 .2-.4.2a59 59 0 01-4.7-.4c.6-9.9 5.4-13.3 12-13.3 9.2 0 10.5 6 10.5 12.6zm84.4 10.1c2.1-7.5 5.8-15.4 9.2-22.9h.4c1.5.6 2.8 1.5 4.1 2.1a74 74 0 00-11.1 23.1c0 .2-.4 1.1-.4 1.7v23.4h-4.3l.9-19.9c-.2-1.1 0-2.4-.4-3.2-3.2-8.4-7.9-17.1-11.8-25.3 1.3-.4 2.8-1.3 4.1-1.9l9.3 22.9z"
    class="st2"
  />
  <path
    fill="#fff"
    fill-rule="evenodd"
    stroke="#fff"
    stroke-linecap="round"
    stroke-linejoin="round"
    stroke-miterlimit="10"
    d="M30.1 8.4c2.6 3.2 4.9 6.9 8.1 9.9.4.6 1.7.8 2.1.8 3.4 0 14.6-12 17.8-12 1.7 0 2.4 1.1 2.4 2.3 0 3.2-10.7 17.6-10.7 21.6 0 .6 0 2.4.7 3.4C55.2 40 61 45.3 66.1 50.9a3.8 3.8 0 011.3 2.8c0 1.9-1.3 2.3-3 2.6L42 50c-1.9 0-3.8.4-5.1 2.6-3.8 5.8-6.6 12.4-10.7 17.8-.9 1.1-1.3.9-2.1.9-1.1 0-1.1-.2-2.1-1.1-.2 1.3-.2-1.1-.4-3.2v-.9L23 49.4c0-1.9-.4-3.4-2.3-5.2-2.1-1.9-4.9-2.4-6.9-3.4-2.3-1.1-4.9-1.7-7.1-3-1.5-.9-6.2-1.5-6.2-4.5 0-1.5.9-2.6 2.8-2.8 4.7-.6 9.8-.8 14.6-1.3.7 0 2.6-2.1 2.8-2.8v-3.2L19.4 4.6c-.2-2.2.6-4.1 2.8-4.1 3.3 0 6.3 5.6 7.9 7.9z"
    clip-rule="evenodd"
  />
  <path
    fill="#f37836"
    fill-rule="evenodd"
    d="M26 65.7c0 .7-.8.7-.9.7-.6 0-.8-.4-.8-.7 0-.6.2-.8.8-.8.7.1.9.6.9.8zm36.6-14.8c0 .2.2.2.2.7 0 .8-.8.8-.9.8-.6 0-.7-.4-.7-.8s.2-.6.4-.7h1zm-22.7-5.6c0 .9-.6 1.3-1.5 1.3s-1.3-.6-1.3-1.3c0-.9.6-1.5 1.3-1.5 1.1 0 1.5.9 1.5 1.5zm-1.7-3.6c0 .8-.4 1.1-1.1 1.1-.9 0-1.1-.8-1.1-1.1 0-.9.6-1.1 1.1-1.1.9 0 1.1.6 1.1 1.1zM25.6 41c0 1.3-1.1 1.5-1.5 1.5-1.3 0-1.3-.6-1.3-1.5s.6-1.3 1.3-1.3c.8 0 1.5.5 1.5 1.3zm11.3-2.8v1.1l-.8.2c-.9 0-.7-.8-.7-.9 0-.6.2-.8.7-.8.4 0 .6.2.8.4zm-8.6.5c0 .9-.8 1.1-1.1 1.1-.9 0-1.1-.8-1.1-1.1 0-.9.6-1.1 1.1-1.1.9 0 1.1.6 1.1 1.1zm2.2-1.8c0 .6-.4.9-.8.9-.9 0-.8-.7-.8-.9 0-.6.2-.8.8-.8.8 0 .8.6.8.8zm-22.3-3c0 .8-.8.9-.9.9-.8 0-.6-.7-.6-.9 0-.6.2-.7.6-.7.9-.1.9.5.9.7zm32.4-1.3v1.3h-1.1c-.2-.2-.4-.4-.4-.7 0-.6.2-.8.8-.8.4 0 .6.2.7.2zm3.8-.2c0 .9-.8 1.3-1.1 1.3-.9 0-1.1-.7-1.1-1.3 0-.9.6-.9 1.1-.9.7-.1 1.1.1 1.1.9zm-14.8-2.5v1.5h-1.1c-.2-.2-.4-.4-.4-.8 0-.6.2-.6.4-.7h1.1zm-2.5-.9c0 1.3-.7 1.1-1.1 1.1-.9 0-1.1-.8-1.1-1.1 0-.6.6-1.1 1.1-1.1 1 0 1.1.5 1.1 1.1zm9.2-2.8c0 .2.2.2.2.7 0 .8-.8.8-.9.8-.6 0-.8-.4-.8-.8 0-.6.2-.6.4-.7h1.1zm1.2-2.6c0 .9-.7 1.1-1.1 1.1-.9 0-1.1-.8-1.1-1.1 0-.9.6-1.1 1.1-1.1 1.2-.1 1.1.9 1.1 1.1zm18.9-12c0 .2.2.2.2.8 0 .4-.4.7-.8.7-.8 0-.9-.6-.9-.9 0-.4.2-.6.4-.6h1.1zm-24.8 9c1.5 3.4 2.6 7.9 2.3 11.4 0 .2.2.4.4.6A47.6 47.6 0 0154 15.2a59.2 59.2 0 01-19.7 18.1c7.1 2.8 16.5 5.4 22.3 14.8-7.1-.6-15.9-6.6-22.1-14.4 0 0-.4 0-.4.4v3.4a50.4 50.4 0 01-6 22.3l-.4-3.9A52 52 0 0134.1 34c-.2-.2 0-.4-.6-.4a56.8 56.8 0 01-15.4 2.5c-1.5 0-7.1-.9-7.5-.9 2.1-.9 6.8-2.3 9.6-2.3h8.1c.6 0 3 .4 5.2.4-.4-.6-.9-1.3-1.5-1.7-3.8-3.4-7.5-16.3-7.5-21.4v-2c3.2 4.1 5.5 8.2 7.1 12.4zM23.8 4.8c0 .7-.8.9-.9.9-.8 0-.8-.8-.8-.9 0-.6.2-.8.8-.8.7.1.9.6.9.8zm13.7 14.3c.2.2 2.6 1.1 2.8 1.1 3.9 0 15.2-12 17.8-12 .9 0 1.3.6 1.3 1.1 0 2.8-10.7 17.2-10.7 21.6 0 .6 0 2.6.9 3.9 2.3 3.2 16.9 16.9 16.9 18.7 0 .8-.9 1.5-2.1 1.5l-22.3-6.2c-1.5 0-3.4.2-4.5 1.5-3.9 3.9-11.3 20.1-13.5 20.1-1.5 0-1.5-2.6-1.5-2.8l1.5-18.4c-.2-2.3-.6-4.7-3-6.2-4.3-2.8-19.5-7.3-19.5-9.7 0-.2 0-.9.7-1.3 2.1-1.1 4.5-.8 6.8-.9 1.7 0 3.6-.6 5.3-.4 4.7.2 7.5-2.1 7.5-5.8L20.6 6.5V3.3c.9-1.7 1.3-1.7 1.7-1.7 2.4 0 10.5 12.8 15.2 17.5z"
    clip-rule="evenodd"
  />
</svg>
