<svg xmlns="http://www.w3.org/2000/svg" viewBox="0 0 75 75">
  <title>AWS Budgets</title>
  <g id="Working">
    <path
      id="Green_Light_BG"
      fill="#3f8624"
      d="M0 0h75v75H0z"
      data-name="Green Light BG"
    />
    <g id="Product_Icon" data-name="Product Icon">
      <path
        d="M61.2 36.8l-6.7-6v2.7l4.4 3.9-21.4 14.9-21.4-14.9 4.4-4v-2.6l-6.7 6a1 1 0 00-.3.7v23.9a1.1 1.1 0 001.1 1.1h45.8a1.1 1.1 0 001.1-1.1V37.5a1 1 0 00-.3-.8zm-45.7 2.6l11 7.7-11 11.9zm1.3 21.1l11.4-12.2 8.7 6a1.1 1.1 0 00.6.2 1 1 0 00.6-.2l8.7-6 11.4 12.2zM59.5 59l-11-11.9 11-7.7z"
        fill="#fff"
      />
      <path
        d="M52.5 13.5v26l-2 1.3V14.5h-26v26.3l-2-1.4V13.5a1 1 0 011-1h28a1 1 0 011 1z"
        fill="#fff"
      />
      <path
        d="M46.8 28.1a1.2 1.2 0 01-1-.3 1.3 1.3 0 01-.3-1 1.2 1.2 0 01.4-.9 1.4 1.4 0 011.8 0 1.2 1.2 0 01.3 1 1.3 1.3 0 01-.3.9 1.2 1.2 0 01-1 .3zm-.8-3.4l-.3-6.4a2.5 2.5 0 012.2 0l-.3 6.4zM44.5 28.5v4h-2v-1.2l-6.3 7.8a1 1 0 01-1.4.2L31.7 37l-3.4 4.2-1.6-1.2 4-5a1 1 0 011.4-.2l3.1 2.4 6.2-7.6h-1.8v-2h4a1 1 0 011 1z"
        fill="#fff"
      />
    </g>
  </g>
</svg>
