<svg xmlns="http://www.w3.org/2000/svg" viewBox="0 0 175 130.5">
  <style>
    .st0,
    .st5,
    .st6 {
      fill: #231f20;
    }
    .st5,
    .st6 {
      fill-rule: evenodd;
      clip-rule: evenodd;
    }
    .st6 {
      fill: #00aeef;
    }
    .st7,
    .st8 {
      fill: none;
      stroke: #231f20;
      stroke-width: 0.26;
    }
    .st8 {
      stroke-width: 0.264;
    }
  </style>
  <path
    d="M22.3 86.1H27.2l.9.1c.7.1 1.4.2 2 .5.6.2 1 .7 1.1 1.3v.5c0 .5-.2.9-.7 1.2-.4.3-1 .5-1.7.7h.2l1.2.3c.4.2.7.4.9.7l.2.4.1.4V92.8l-.1.3c-.2.6-.6 1-1.2 1.3-.6.2-1.3.4-2 .4h-5.9v-8.7zm3.1 3.5h1a5 5 0 001.2-.2c.3-.1.5-.3.6-.7 0-.4-.2-.7-.6-.8l-1.3-.2H25.2v2l.2-.1m0 3.6h1.2l1.3-.2c.4-.1.6-.4.6-.7 0-.4-.2-.7-.6-.8l-1.3-.2h-1.2v2.1zM36 86.1h3.7l4.3 8.7h-3.3l-.8-1.7h-4.3l-.7 1.7h-3l4.1-8.7zm1.7 1.7l-1.5 3.6h2.9l-1.4-3.6zM47.8 93c.4.2.7.3 1.2.3l.9-.2c.3-.1.5-.2.6-.4l.1-.2v-.2c0-.2-.1-.4-.3-.5-.2-.1-.4-.3-.7-.3l-.6-.1-.6-.1h-.1-.1L47 91l-1.2-.4a2 2 0 01-1.1-.9c-.2-.3-.4-.7-.4-1.1v-.1-.1c.1-.6.4-1.1 1.1-1.6.6-.5 1.5-.8 2.7-.9h.9c1.1 0 2.1.2 2.9.5.9.4 1.3 1 1.3 2.1h-3c0-.4-.2-.7-.4-.9l-.9-.3-1 .2c-.3.2-.5.3-.5.6 0 .2.1.4.3.5l.7.3h.4l.3.1.3.1.3.1.3.1 1.3.3 1.2.5.7.7.3.9v.5l-.1.3c-.2.6-.5 1-1.1 1.4a6 6 0 01-1.9.6l-.6.1h-1.2c-1.1 0-2.2-.2-3.1-.6-1-.4-1.4-1.1-1.4-2.2h3c.1.7.3 1 .7 1.2M55.4 86.1h3v8.7h-3zM60.5 86.1h4.3l3.4 6.2v-6.2h2.6v8.7h-4.1l-3.6-6.4v6.4h-2.6zM77.4 86.1h8v1.7h-5.1v1.7h4.8v1.7h-4.8V93h5.2v1.8h-8.1zM87.2 86.1h3v7H95v1.7h-7.8zM96.4 86.1h8v1.7h-5.1v1.7h4.8v1.7h-4.8V93h5.2v1.8h-8.1zM114.5 94c-.8.5-1.7.7-2.8.8h-1.1c-1.2 0-2.3-.2-3.3-.7-1-.4-1.6-1.2-1.9-2.2l-.1-.7v-.7l.2-1.4c.1-.5.4-.9.7-1.3.4-.6 1-1 1.7-1.3a6 6 0 012.3-.5h1.6c.6 0 1.1.1 1.6.3.5.1 1 .4 1.4.7.3.3.6.6.7.9l.2 1h-3.1c-.1-.4-.3-.7-.6-.9-.3-.2-.7-.3-1.2-.3-.7 0-1.3.2-1.6.6-.3.4-.5.9-.6 1.4l-.1.4v1c.1.5.2.9.5 1.3s.7.6 1.4.7h.4c.5 0 .9-.1 1.2-.3.3-.2.5-.5.6-.9h3.1c0 1-.4 1.7-1.2 2.1M119.5 87.8h-3.3v-1.7h9.6v1.7h-3.3v7h-3zM126.9 86.1h5.5l.6.1a6 6 0 011.8.5c.5.2.9.6 1 1.2v.6c0 .6-.2 1.1-.7 1.4-.5.3-1.1.6-1.9.7.7 0 1.2.1 1.5.4.4.2.6.6.7 1.1l.1.5.1.5.2.9.3.9h-3.2l-.1-.7-.1-.7v-.1-.1-.2-.2l-.1-.4-.2-.4-.5-.4-.8-.1h-.7-.4v3.3h-3v-8.8zm3.2 3.7H131.7l.6-.1c.3-.1.4-.2.5-.4l.2-.6c0-.4-.2-.7-.6-.8l-1.3-.2H130v2.1h.1zM137.7 86.1h3v8.7h-3zM151.6 94c-.8.5-1.7.7-2.8.8h-1.1c-1.2 0-2.3-.2-3.3-.7-1-.4-1.6-1.2-1.9-2.2l-.1-.7v-.7l.2-1.4c.1-.5.4-.9.7-1.3.4-.6 1-1 1.7-1.3a6 6 0 012.3-.5h1.6c.6 0 1.1.1 1.6.3.5.1 1 .4 1.4.7.3.3.6.6.7.9l.2 1h-3.1c-.1-.4-.3-.7-.6-.9-.3-.2-.7-.3-1.2-.3-.7 0-1.3.2-1.6.6-.3.4-.5.9-.6 1.4l-.1.4v1c.1.5.2.9.5 1.3s.7.6 1.4.7h.4c.5 0 .9-.1 1.2-.3.3-.2.5-.5.6-.9h3.1c0 1-.4 1.7-1.2 2.1"
    class="st0"
  />
  <g>
    <path
      d="M0 98h5c1.2 0 2.2.2 3 .6.9.4 1.3 1.1 1.3 2.2 0 1-.4 1.7-1.2 2.2-.8.5-1.8.7-2.9.7H3v3.1H0V98zm3.3 3.9H4.2l1.4-.2c.4-.1.7-.5.7-1s-.2-.8-.6-.9l-1.4-.2H3v2.3h.3zM11.9 99c1-.8 2.4-1.2 4.1-1.2h.6c1.7.1 2.9.5 3.7 1.4.8.9 1.2 1.9 1.2 3.1v.6l-.1.6c-.3 1.1-.9 2-1.9 2.5a8 8 0 01-3.6.8c-1.7 0-3.1-.4-4.1-1.2a4 4 0 01-1.5-3.3c.1-1.4.6-2.5 1.6-3.3m1.6 3.4c0 .7.2 1.3.5 1.8s1 .8 1.9.8c.9 0 1.6-.3 1.9-.8.3-.5.5-1.1.5-1.7v-.2-.4-.4c-.1-.4-.2-.8-.5-1.2-.3-.4-.7-.6-1.3-.7h-.7c-.9 0-1.5.3-1.8.8-.3.6-.5 1.2-.5 2zM21.9 98h3l1 6.3h.1l1.7-6.3h3.7l1.6 6.3 1-6.3h2.7l-1.8 8.7h-3.6l-1.8-6.5h-.1l-2 6.5h-3.6zM37.8 98h8v1.6h-5.1v1.8h4.9v1.7h-4.9v1.8H46v1.8h-8.2zM47.6 98h5.5l.6.1a6 6 0 011.8.5c.5.2.9.6 1 1.2v.6c0 .6-.2 1.1-.7 1.4-.5.3-1.1.6-1.9.7.7 0 1.2.1 1.5.4.4.2.6.6.7 1.2l.1.5.1.5.2.9.3.9h-3.3l-.1-.8-.1-.8v-.1-.1-.2-.2l-.1-.4-.2-.4c-.1-.2-.3-.3-.6-.4l-.8-.1H50.5v3.4h-3V98zm3.3 3.7H52.5l.6-.1c.3-.1.5-.2.5-.4l.2-.6c0-.4-.2-.7-.6-.9l-1.3-.2h-1.1v2.1h.1zM71.8 105.9c-.8.5-1.7.7-2.8.8h-1.1c-1.2 0-2.3-.2-3.3-.7-1-.4-1.6-1.2-1.9-2.2l-.1-.7v-.7l.2-1.5c.1-.5.4-.9.7-1.3.4-.6 1-1 1.7-1.3a6 6 0 012.3-.5h1.6c.6 0 1.1.1 1.6.3.5.1 1 .4 1.4.7.3.3.6.6.7.9l.2 1h-3.1c-.1-.4-.3-.7-.6-.9-.3-.2-.7-.3-1.2-.3-.7 0-1.3.2-1.6.6-.3.4-.5.9-.6 1.4l-.1.4v1c.1.5.2.9.5 1.3s.7.6 1.4.7h.4c.5 0 .9-.1 1.2-.3.3-.2.5-.5.6-.9H73c0 1.1-.4 1.8-1.2 2.2M75.2 99c1-.8 2.4-1.2 4.1-1.2h.6c1.7.1 2.9.5 3.7 1.4.8.9 1.2 1.9 1.2 3.1v.6l-.1.6c-.2 1.1-.9 2-1.9 2.5a8 8 0 01-3.6.8c-1.7 0-3.1-.4-4.1-1.2a4 4 0 01-1.5-3.3c.1-1.4.6-2.5 1.6-3.3m1.6 3.4c0 .7.2 1.3.5 1.8s1 .8 1.9.8c.9 0 1.6-.3 1.9-.8.3-.5.5-1.1.5-1.7v-.2-.4-.4c-.1-.4-.2-.8-.5-1.2-.3-.4-.7-.6-1.3-.7h-.7c-.9 0-1.5.3-1.8.8-.3.6-.5 1.2-.5 2zM87.3 99c1-.8 2.4-1.2 4.1-1.2h.6c1.7.1 2.9.5 3.7 1.4.8.9 1.2 1.9 1.2 3.1v.6l-.1.6c-.2 1.1-.9 2-1.9 2.5a8 8 0 01-3.6.8c-1.7 0-3.1-.4-4.1-1.2a4 4 0 01-1.5-3.3c0-1.4.5-2.5 1.6-3.3m1.6 3.4c0 .7.2 1.3.5 1.8s1 .8 1.9.8c.9 0 1.6-.3 1.9-.8.3-.5.5-1.1.5-1.7v-.2-.4-.4c-.1-.4-.2-.8-.5-1.2-.3-.4-.7-.6-1.3-.7h-.7c-.9 0-1.5.3-1.8.8-.4.6-.5 1.2-.5 2zM98.5 98h5c1.2 0 2.2.2 3 .6.9.4 1.3 1.1 1.3 2.2 0 1-.4 1.7-1.2 2.2-.8.5-1.8.7-2.9.7h-2.2v3.1h-3V98zm3.3 3.9H102.7l1.4-.2c.4-.1.7-.5.7-1s-.2-.8-.6-.9l-1.4-.2h-1.3v2.3h.3zM108.7 98h8.1v1.6h-5.1v1.8h4.8v1.7h-4.8v1.8h5.2v1.8h-8.2zM118.6 98h5.5l.6.1a6 6 0 011.8.5c.5.2.9.6 1 1.2v.6c0 .6-.2 1.1-.7 1.4-.5.3-1.1.6-1.9.7.7 0 1.2.1 1.5.4.4.2.6.6.7 1.2l.1.5.1.5.2.9.3.9h-3.3l-.1-.8-.1-.8v-.1-.1-.2-.2l-.1-.4-.2-.4c-.1-.2-.3-.3-.6-.4l-.8-.1H121.5v3.4h-3V98zm3.3 3.7H123.5l.6-.1c.3-.1.5-.2.6-.4l.2-.6c0-.4-.2-.7-.6-.9l-1.3-.2h-1.1v2.1zM132.7 98h3.7l4.3 8.7h-3.4l-.8-1.7h-4.3l-.8 1.7h-3l4.3-8.7zm1.7 1.7l-1.5 3.6h2.9l-1.4-3.6zM142.6 99.7h-3.3V98h9.6v1.7h-3.3v7h-3zM150 98h3v8.7h-3zM154.3 98h3.2l2.6 6.3 2.6-6.3h3l-3.9 8.7h-3.7zM166.8 98h8.1v1.6h-5.1v1.8h4.8v1.7h-4.8v1.8h5.2v1.8h-8.2z"
      class="st0"
    />
  </g>
  <g>
    <path
      fill="#005a9c"
      fill-rule="evenodd"
      d="M163.6 115.8c-.8 0-2.8-.9-3.4-.5l-.6 1 .2 1.4c-.7 1.8.8 2.3-.4 4 .2.2 0 1.5 0 1.8-.1 0-.4.5-.5.4-.4-1.4-.4-3.4-.6-5.2l-.3-.1-.3 2.1c.7 1.1-.2 2.3-.5 2.6h-.2c-.4-1.4-.1-3-.5-4.5-.1-.7.3-1.6.3-2.3 0-.5-.2-.8-.4-1.2 0-1.2-.8-.6-1.3-.3-.8.3-1.1-.4-2.1.7l-.9-.4c.8-.5 1.8-1.4 2.7-1.5.9-.8 2.1-.8 3.2-.9.1-.1-.2-.3-.2-.4h-.3l-.1-1.2c.3-.9 1-.4 1.2-.8l.4.1c.3.5.2 1.3-.5 1.9l-.5.5c.8.4 1.3-.4 2.3.4.6.3.9.4 1.3 1 1.1-.4 2 .8 2.6.8l-.6.6z"
      clip-rule="evenodd"
    />
    <path
      fill="#f8991d"
      fill-rule="evenodd"
      d="M172.1 118.7c-.1 0-.1.3-.2.1v.7c-.4-.1-1.2.3-1.6.1-.1.2-.1.4.2.7.6.4.4 1.3.5 2.2.3.7 1.1 3.6.5 3.6-.4-.4-1-1.5-.9-2.2-2-.9-.2-3.4-2.8-1.3l-.4.6c-.8 1.2-1.6 1.5-2.7 2-.4-.1-.6.4-.9.6-.9.3-.9-.1-1.7.4-.2-1.2 1.1-1.5 1.7-2 1.5-.3.9-.7 1.7-.9.9-1.2 0-.8-.1-.7l-1.9.8c-1.5.4-2.2 1-2.2 1h-.6c.9-2.3 1.5-1.2 2.3-2.3 1.6-.1.8-.8 2.6-1.5.7 0 1.4-1.5 1.4-1.5s-.1-.4-.5-.7c-1-.8-.4-.3-1-1.2-.1-.6-1.4-1.3-1.6-1.4 1.1-.9 1.1.5 2 .4.8.8 2 1.1 2.5 1.5 1.4.6 1.1 1.2 1.7 1.3.1-.6.6-.9 1.1-1.2.4.4 1 .4.9.9"
      clip-rule="evenodd"
    />
    <path
      fill="#d73648"
      fill-rule="evenodd"
      d="M151.6 115.7c-.1-.2-.7.3-1.3.9 0 .6-1.1 1.4-1.5 1.7-.3 1.5 2 1.8 2.1 2.1l2.2 1.3c1.5 1.7.7.8 2 2.6.1.3 0 .4-.3.5h-.5c0-.4-.5-.7-.8-.8v-.2c-.3 0 .2.2-1.4-.4.4-.9-1.4-1.1-1.7-1.1.5 1.5 2.1 2.6 3.4 3.8l-.3.5c-2.5-.3-2.2-1.4-4-1.9-.3-.4-.7-1.2-1.2-1.5.3-1.2-1.4-.7-1.6-1.1-.8-.8-.7 1.3-1.2 1.5-.5.7-.7 1.2-.7 2.1-.2.3-.3.7-.8.6.1-1.2-.1-1.4.2-2.3v-.4c0-.8.2-.9.1-1 .6-.4.5-1.3.4-1.7.4-.3 1-1.3.9-1.8h-.5c-.3-.2-.8.1-1.1-.3-.1-.2-.3-.4-.3-.8.2-.2.2-.9 1.1-.8l.3.2c.3-.4.2.4.6.4.2.3.3.8.2 1.2 1.2-.3 1.6-2.1 3-2.4.9-.8 1.6-1.6 2.7-1.6v.7z"
      clip-rule="evenodd"
    />
    <path
      fill="#008457"
      fill-rule="evenodd"
      d="M162 128.1c2.2 0 4.2.5 6.1 1.3v.3a31 31 0 00-15.3-.2c-2.5-.4-3.7 1.6-4.2.8 0-.2 0-.4-.2-.4h-.7c.6-1.2 2.2-.5 3.6-1.6.2.3.5 0 .7-.1a21 21 0 0110-.1"
      clip-rule="evenodd"
    />
    <path
      d="M7.9 121.9c-.1-.2-.2-.4-.4-.4H6.4v-.4h1c.2 0 .2 0 .1-.2l-.9-2.4c0-.1-.1-.1-.2 0v-.9l.4-.5.2.4 2.1 5.1.5 1.1c.3.4.8.3.8.5l-.1.1h-2l-.2-.1c0-.2.6-.1.6-.5l-.3-.9-.5-.9zm-1.5-.3h-1c-.2 0-.4 0-.5.2l-.6 1.4v.3c0 .7.7.4.7.7 0 .2-.1.1-.3.1H3.1l-.1-.1c0-.2.5 0 .7-.6l2.4-5 .4-.9v.9L5.4 121l.1.2h1v.4z"
      class="st0"
    />
    <path
      d="M7.9 121.9c-.1-.2-.2-.4-.4-.4H5.3c-.2 0-.4 0-.5.2l-.6 1.4v.3c0 .7.7.4.7.7 0 .2-.1.1-.3.1H3l-.1-.1c0-.2.5 0 .7-.6l2.4-5c.6-1.3.6-1.4.8-1.4l.2.4 2.1 5.1.5 1.1c.3.4.8.3.8.5l-.1.1h-2l-.2-.1c0-.2.6-.1.6-.5l-.3-.9-.5-.9zm-2.7-1l.1.2h2c.2 0 .2 0 .1-.2l-.9-2.4c0-.1-.1-.1-.2 0l-1.1 2.4zM15 118.3l-.1-.4h-1.6c-.6 0-.6.2-.8.7 0 .1 0 .2-.2.2l-.1-.1.1-.9.1-.4H18.1c.3 0 .3.1.3.3v.8l-.1.2c-.4 0 .1-.8-.8-.8h-1.4c-.4 0-.4 0-.4.5v5c0 .8.8.5.8.8l-.1.1h-2.2l-.1-.1c0-.2.8-.1.8-.7v-5.2zM19.5 120c.8 0 2.2.4 2.2 2.2a2 2 0 01-2.1 2.1v-.2h.1c.8 0 1.3-.6 1.3-1.8 0-1-.4-2.1-1.5-2.1v-.2zm-2.1 2.3c0-1.2.9-2.2 2.1-2.2v.2h-.1c-1 0-1.4.9-1.4 1.7 0 .9.4 2.1 1.5 2.2v.2c-1.3-.1-2.1-.8-2.1-2.1"
      class="st0"
    />
    <path
      d="M17.4 122.3c0-1.2.9-2.2 2.2-2.2.8 0 2.1.4 2.1 2.2a2 2 0 01-2.1 2.1c-1.3 0-2.2-.8-2.2-2.1m3.6.1c0-1-.4-2.1-1.6-2.1-1 0-1.4.8-1.4 1.7 0 1 .4 2.2 1.6 2.2.9 0 1.4-.6 1.4-1.8M25.2 120.8c0-.4-.5-.1-.5-.4l.2-.1h.9s.2 0 .2.2v3.4c0 .3.6.1.6.4l-.4.1h-.5l-.4.1-.1-.2v-.5c-.3.5-.8.7-1.3.7-.8 0-1.4-.5-1.4-1.3v-2.3c0-.4-.5-.1-.5-.4l.2-.1h.9s.2 0 .2.2v2.5c0 1 .8 1.1.9 1.1.6 0 1.1-.4 1.1-.7v-2.7zM26.7 122.3c0-1.3.9-2.2 2.2-2.2.5 0 1.2.1 1.2.4v.6l-.1.2-.2-.2c-.3-.4-.8-.6-1.2-.6-.9 0-1.2.8-1.2 1.6 0 1.1.6 2 1.7 2 .8 0 1.2-.6 1.3-.6h.1c0 .2-.6 1-2 1-1-.1-1.8-1.1-1.8-2.2M32.1 120.7c.4-.4.8-.7 1.4-.7 1.3 0 1.7 1.1 1.7 1.9v1.7c0 .5.8.3.8.5l-.2.1h-1.6l-.2-.1c0-.2.5-.2.5-.5v-1.8c0-1.2-.8-1.4-1.2-1.4-.4 0-1.2.4-1.2.9v2.1c0 .8.8.6.8.8l-.2.1h-1.9l-.1-.1c0-.2.6-.1.6-.6v-5.5c0-.6-.8-.4-.8-.5l.1-.1c.7-.1 1-.5 1.3-.5l.1.2v3.5zM36.4 121.2c0-.8.6-1.2 1.3-1.2l1 .2v.5l-.1.4c-.1 0-.2-.9-1.1-.9-.4 0-.7.2-.7.6 0 .3.3.5 1.3.9.5.3.8.5.8 1.2 0 .8-.6 1.4-1.3 1.4-.7 0-.8-.3-1.1-.3-.2 0-.2 0-.2-.8l.1-.5c.2 0 .1 1.3 1.2 1.3.4 0 .8-.3.8-.8s-.5-.7-.9-.9c-.5-.1-1.1-.4-1.1-1.1M39.8 120.6l-.5-.1.8-.8.4-.4.1.9h1.1l.4-.2.1.1-.1.1-.2.4h-1.3v2.9c0 .4.3.6.7.6.5 0 .7-.2.9-.2v.1c0 .1-.5.5-1.2.5-.4 0-1.1-.1-1.1-1.2v-2.7zM44.4 120c.8 0 2.2.4 2.2 2.2a2 2 0 01-2.1 2.1v-.2h.1c.8 0 1.3-.6 1.3-1.8 0-1-.4-2.1-1.5-2.1v-.2zm-2.1 2.3c0-1.2.9-2.2 2.1-2.2v.2h-.1c-1 0-1.4.9-1.4 1.7 0 .9.4 2.1 1.5 2.2v.2c-1.2-.1-2.1-.8-2.1-2.1"
      class="st0"
    />
    <path
      d="M42.3 122.3c0-1.2.9-2.2 2.2-2.2.8 0 2.1.4 2.1 2.2a2 2 0 01-2.1 2.1c-1.3 0-2.2-.8-2.2-2.1m3.6.1c0-1-.4-2.1-1.6-2.1-1 0-1.4.8-1.4 1.7 0 1 .4 2.2 1.6 2.2.9 0 1.4-.6 1.4-1.8M48.2 123.5c0 .7.8.4.8.7l-.2.1H47.1l-.2-.1c0-.2.6 0 .6-.6v-2.4c0-.6-.7-.4-.7-.6l.1-.1c.8-.2 1-.5 1.2-.5l.1.2v.6c0 .1.5-.7 1.4-.7 1.3 0 1.6 1.1 1.6 1.8v1.6c0 .7.8.4.8.7l-.2.1h-1.5l-.2-.1c0-.2.4 0 .4-.6v-1.8c0-.5-.4-1.3-1.2-1.3-.8 0-1.2.6-1.2.8v2.2zM54 123.8l.5.1c.8 0 1.2-.5 1.4-.5v.1c0 .2-.8.9-1.7.9H54v-.6zm0-3.8h.1c1.2 0 1.7 1.2 1.7 1.6 0 .2-.1.1-.4.1H54v-.2h.8l.2-.2c0-.5-.5-1-1.1-1v-.3zm-1.1 1.7c0 1.2.5 1.8 1.1 2v.6c-1.3-.1-1.8-1.4-1.8-2 0-1.2.6-2.2 1.8-2.3v.2c-.6 0-1 .7-1 1.3h1v.2h-1.1z"
      class="st0"
    />
    <path
      d="M52.9 121.7c0 1.7 1 2.1 1.6 2.1.8 0 1.2-.5 1.4-.5v.1c0 .2-.8.9-1.7.9-1.5 0-2-1.4-2-2.1 0-1.3.7-2.3 1.9-2.3s1.7 1.2 1.7 1.6c0 .2-.1.1-.4.1h-2.5zm2-.2l.2-.2c0-.5-.6-1-1.1-1-.6 0-1 .7-1 1.3h1.9zM60.4 120.2c0 .4 0 .4.4.4h1c1 0 .8-.8 1-.8l.1.2v1.8l-.1.1c-.3 0 0-.9-.8-.9h-1.5c-.2 0-.2.2-.2.3v1.8c0 .6-.1.8.8.8 2.3 0 2.6-1 2.7-1l.1.1c0 .4-.3.7-.5 1-.3.3-.5.3-1 .3H59l-.1-.1.4-.3c.2-.1.3-.4.3-.8v-4.5c0-.4 0-.9-.5-1l-.3-.1.4-.1H63.4l.1.2c0 1.1-.1 1.2-.2 1.2-.3 0-.1-.4-.3-.7-.2-.4-1.3-.3-1.7-.3-.9 0-.9 0-.9.6v1.8zM65.6 123.5c0 .7.8.4.8.7l-.2.1H64.5l-.2-.1c0-.2.6 0 .6-.6v-2.4c0-.6-.8-.4-.8-.6l.1-.1c.8-.2 1-.5 1.3-.5l.1.2v.6c0 .1.4-.7 1.4-.7 1.3 0 1.6 1.1 1.6 1.8v1.6c0 .7.8.4.8.7l-.2.1h-1.5l-.2-.1c0-.2.4 0 .4-.6v-1.8c0-.5-.4-1.3-1.1-1.3-.8 0-1.2.6-1.2.8v2.2zM71.1 123.8l.5.1c.8 0 1.2-.5 1.4-.5v.1c0 .2-.8.9-1.7.9h-.2v-.6zm0-3.8h.1c1.2 0 1.7 1.2 1.7 1.6 0 .2-.1.1-.4.1H71v-.2h1l.2-.2c0-.5-.5-1-1.1-1v-.3zm-1 1.7c0 1.2.5 1.8 1 2v.6c-1.3-.1-1.7-1.4-1.7-2 0-1.2.6-2.2 1.7-2.3v.2c-.6 0-1 .7-1 1.3h1v.2h-1z"
      class="st0"
    />
    <path
      d="M70.1 121.7c0 1.7.9 2.1 1.5 2.1.8 0 1.2-.5 1.4-.5v.1c0 .2-.8.9-1.7.9-1.4 0-1.9-1.4-1.9-2.1 0-1.3.7-2.3 1.9-2.3s1.7 1.2 1.7 1.6c0 .2-.1.1-.4.1h-2.5zm1.9-.2l.2-.2c0-.5-.6-1-1.1-1-.6 0-1 .7-1 1.3H72zM74.7 123.4c0 .9.9.4.9.8l-.1.1h-1.8l-.1-.1c0-.2.5-.2.5-.6v-2.5c0-.6-.7-.4-.7-.6l.1-.1c.8-.2 1-.5 1.2-.5l.1.2v.7c.2-.3.5-.8 1-.8.2 0 .6.2.6.4 0 .1-.2.4-.4.4s-.3-.3-.6-.3c-.4 0-.7.5-.7.6v2.3zM79.8 120.4c.5 0 .5-.7.7-.7l.1.2c0 .8-.2.8-.5 1l.1.5c0 .9-.8 1.5-1.7 1.5v-.2c.7 0 .9-.5.9-1.2s-.2-1.3-1-1.3v-.2c.8 0 1.1.4 1.4.4m-1.3 3.5c.8 0 2-.1 2 .9 0 .6-.5 1.3-2 1.4v-.2c1.2 0 1.5-.6 1.5-1s-.3-.4-1.3-.4h-.1v-.7zm0-.9l-.7-.1c-.2 0-.5.3-.5.6 0 0 0 .4 1.2.4v.7l-.9-.1c-.3 0-.5.5-.5.7 0 .7.7.8 1.3.8h.1v.2h-.2c-.6 0-1.7-.2-1.7-1.1 0-.4.4-.7.7-.8-.3-.1-.4-.4-.4-.8s.5-.8.5-.8c-.4-.2-.6-.7-.6-1.2 0-.9.7-1.5 1.6-1.5v.2c-.7 0-1 .5-1 1.2 0 .6.3 1.3 1 1.3v.3z"
      class="st0"
    />
    <path
      d="M79.8 120.4c.5 0 .5-.7.7-.7l.1.2c0 .8-.2.8-.5 1l.1.5c0 .9-.8 1.5-1.7 1.5l-.7-.1c-.2 0-.5.3-.5.6 0 0 0 .4 1.2.4.9 0 2-.1 2 .9 0 .6-.5 1.4-2.2 1.4-.6 0-1.7-.2-1.7-1.1 0-.4.4-.7.7-.8-.3-.1-.4-.4-.4-.8s.5-.8.5-.8c-.4-.2-.6-.7-.6-1.2 0-.9.7-1.5 1.6-1.5.8.1 1.1.5 1.4.5m-1.3-.1c-.7 0-1 .5-1 1.2 0 .6.3 1.3 1 1.3s.9-.5.9-1.2-.2-1.3-.9-1.3m-.2 5.7c1.3 0 1.6-.6 1.6-1s-.3-.4-1.3-.4l-1-.1c-.3 0-.5.5-.5.7 0 .7.7.8 1.2.8M82.7 126.2h-.3l-.4-.1c0-.2.9-.9.9-1.7l-.2-.7-1.3-3.2c-.1-.2-.5-.2-.5-.4l.2-.1h1.4l.2.1c0 .2-.6 0-.6.4l.1.2 1 2.7.8-2.2.1-.5c0-.5-.6-.4-.6-.6l.3-.1h1.1l.2.1c0 .2-.4 0-.5.6l-1.9 5.5zM94.3 117.2c1.8 0 2.3.8 2.6.8l.2-.1.1.8c0 .5.1.8 0 .8l-.2-.4c-.6-1-1.3-1.7-2.6-1.7-1.9 0-2.9 1.3-2.9 3.1 0 1.7 1 3.4 2.9 3.4 1.5 0 2.5-1 2.6-1.4l.1-.1.1.1-.2 1s-.7.8-2.9.8c-2 0-3.5-1.4-3.5-3.4.1-2 1.6-3.7 3.7-3.7M100 120c.8 0 2.1.4 2.1 2.2a2 2 0 01-2.1 2.1v-.2h.1c.8 0 1.4-.6 1.4-1.8 0-1-.4-2.1-1.5-2.1v-.2zm-2.2 2.3c0-1.2.9-2.2 2.2-2.2v.2h-.1c-1 0-1.3.9-1.3 1.7 0 .9.4 2.1 1.5 2.2v.2c-1.4-.1-2.3-.8-2.3-2.1"
      class="st0"
    />
    <path
      d="M97.8 122.3c0-1.2 1-2.2 2.2-2.2.8 0 2.1.4 2.1 2.2a2 2 0 01-2.1 2.1c-1.2 0-2.2-.8-2.2-2.1m3.7.1c0-1-.4-2.1-1.6-2.1-1 0-1.3.8-1.3 1.7 0 1 .4 2.2 1.6 2.2.8 0 1.3-.6 1.3-1.8M104.9 120c.8 0 2.1.4 2.1 2.2a2 2 0 01-2.1 2.1v-.2h.1c.8 0 1.4-.6 1.4-1.8 0-1-.4-2.1-1.5-2.1v-.2zm-2.2 2.3c0-1.2.9-2.2 2.2-2.2v.2h-.1c-1 0-1.3.9-1.3 1.7 0 .9.4 2.1 1.5 2.2v.2c-1.4-.1-2.3-.8-2.3-2.1"
      class="st0"
    />
    <path
      d="M102.7 122.3c0-1.2.9-2.2 2.2-2.2.8 0 2.1.4 2.1 2.2a2 2 0 01-2.1 2.1c-1.3 0-2.2-.8-2.2-2.1m3.7.1c0-1-.4-2.1-1.6-2.1-1 0-1.3.8-1.3 1.7 0 1 .4 2.2 1.6 2.2.7 0 1.3-.6 1.3-1.8M110 120c1.2 0 1.8.9 1.8 2 0 .8-.5 2.2-1.8 2.3v-.2c.9 0 1.3-.8 1.3-1.6s-.4-1.8-1.3-2v-.5zm-1.3 5.5c0 .6.9.4.9.6l-.2.1h-1.8l-.1-.1c0-.2.5-.1.5-.7V121c0-.6-.7-.4-.7-.6l.1-.1c.8-.2 1-.5 1.2-.5l.1.2v.5c.6-.5 1-.6 1.3-.6v.4h-.2c-1 0-1.1.8-1.1.8v2c0 .5.6.9 1.3.9v.2h-.3c-.4 0-.7-.1-1-.3v1.6z"
      class="st0"
    />
    <path
      d="M108.7 125.5c0 .6.9.4.9.6l-.2.1h-1.8l-.1-.1c0-.2.5-.1.5-.7V121c0-.6-.7-.4-.7-.6l.1-.1c.8-.2 1-.5 1.2-.5l.1.2v.5c.6-.5 1.1-.6 1.3-.6 1.2 0 1.8.9 1.8 2 0 .9-.6 2.4-2.1 2.4-.4 0-.7-.1-1-.3v1.5zm0-2.3c0 .5.6.9 1.3.9.9 0 1.3-.8 1.3-1.6 0-.9-.4-2-1.5-2-1 0-1.1.8-1.1.8v1.9zM114.3 123.8l.5.1c.8 0 1.2-.5 1.4-.5v.1c0 .2-.8.9-1.7.9h-.2v-.6zm0-3.8h.1c1.2 0 1.7 1.2 1.7 1.6 0 .2-.1.1-.4.1h-1.5v-.2h.9l.2-.2c0-.5-.5-1-1-1v-.3zm-1.1 1.7c0 1.2.5 1.8 1.1 2v.6c-1.3-.1-1.8-1.4-1.8-2 0-1.2.6-2.2 1.8-2.3v.2c-.6 0-1 .7-1 1.3h1.1v.2h-1.2z"
      class="st0"
    />
    <path
      d="M113.2 121.7c0 1.7 1 2.1 1.6 2.1.8 0 1.2-.5 1.4-.5v.1c0 .2-.8.9-1.7.9-1.5 0-2-1.4-2-2.1 0-1.3.7-2.3 1.9-2.3s1.7 1.2 1.7 1.6c0 .2-.1.1-.4.1h-2.5zm1.9-.2l.2-.2c0-.5-.5-1-1.1-1-.6 0-1 .7-1 1.3h1.9zM118.1 123.4c0 .9.8.4.8.8l-.1.1H117l-.1-.1c0-.2.5-.2.5-.6v-2.5c0-.6-.7-.4-.7-.6l.1-.1c.7-.2.9-.5 1.2-.5l.1.2v.7c.2-.3.6-.8 1-.8.2 0 .6.2.6.4 0 .1-.2.4-.4.4s-.3-.3-.6-.3c-.4 0-.6.5-.6.6v2.3zM122.5 121.2c0-.5-.4-.8-.9-.8v-.4h.1c.6 0 1.5.2 1.5 1v2.1c0 .3-.1.9.4.9h.2l.1.1c0 .2-.4.2-.5.2-.4 0-.7-.2-.8-.5l-1 .5v-.2c.4 0 .9-.3.9-.8v-1.1l-.9.2v-.3l.9-.2v-.7zm-.8-.9c-.1 0-.1 0 0 0-.6 0-1 0-1 .6l.1.4c0 .1 0 .2-.2.2s-.4-.1-.4-.3c0-.4.5-1.1 1.6-1.1v.2zm0 4l-.5.1c-.6 0-1.1-.3-1.1-.9 0-.4.1-1 1.6-1.3v.3c-.5.1-.9.4-.9.9s.3.8.8.8h.1v.1z"
      class="st0"
    />
    <path
      d="M122.5 121.2c0-.5-.4-.9-1-.9-.5 0-.9.1-.9.6l.1.4c0 .1 0 .2-.2.2s-.4-.1-.4-.3c0-.5.5-1.2 1.7-1.1.6 0 1.5.2 1.5 1v2.1c0 .3-.1.9.4.9h.2l.1.1c0 .2-.4.2-.5.2-.4 0-.7-.2-.8-.5a2 2 0 01-1.5.6c-.6 0-1.1-.3-1.1-.9 0-.5.2-1.2 2.5-1.5v-.9zm0 .9c-.6.1-1.8.3-1.8 1.2 0 .5.3.8.8.8.4 0 1-.3 1-.8v-1.2zM124.9 120.6l-.5-.1.7-.8.4-.4.1.9h1.1l.4-.2.1.1v.1l-.2.4h-1.3v2.9c0 .4.3.6.7.6.5 0 .7-.2.8-.2v.1c0 .1-.5.5-1.2.5-.4 0-1.1-.1-1.1-1.2v-2.7zM128.3 121.1c0-.6-.5-.4-.5-.6l.1-.1 1-.5.1.2v3.5c0 .5.8.3.8.5l-.2.1H128l-.2-.1c0-.3.4.1.4-.8v-2.2zm.7-2.6l-.4.5-.4-.5.4-.5c.2 0 .4.4.4.5"
      class="st0"
    />
    <path
      d="M128.3 121.1c0-.6-.5-.4-.5-.6l.1-.1 1-.5.1.2v3.5c0 .5.8.3.8.5l-.2.1H128l-.2-.1c0-.3.4.1.4-.8v-2.2zm.7-2.6l-.4.5-.4-.5.4-.5c.2 0 .4.4.4.5M132.6 123.4l.6-1.4c.2-.4.4-.8.4-1.3 0-.6-.6-.3-.6-.5l.3-.1h1.1l.3.1c0 .1-.4.1-.5.4l-1.5 3.2c-.2.4-.2.5-.4.5l-.2-.3-1.5-3.4c-.2-.4-.5-.3-.5-.4l.2-.1h1.4l.2.1c0 .2-.6 0-.6.4l.2.5 1.1 2.3zM136.9 123.8l.5.1c.8 0 1.2-.5 1.4-.5v.1c0 .2-.8.9-1.7.9h-.2v-.6zm0-3.8h.1c1.2 0 1.7 1.2 1.7 1.6 0 .2-.1.1-.3.1h-1.6v-.2h.8l.2-.2c0-.5-.5-1-1.1-1v-.3zm-1.1 1.7c0 1.2.5 1.8 1.1 2v.6c-1.3-.1-1.8-1.4-1.8-2 0-1.2.6-2.2 1.8-2.3v.2c-.6 0-1 .7-1 1.3h1.1v.2h-1.2z"
      class="st0"
    />
    <path
      d="M135.8 121.7c0 1.7 1 2.1 1.6 2.1.8 0 1.2-.5 1.4-.5v.1c0 .2-.8.9-1.7.9-1.5 0-2-1.4-2-2.1 0-1.3.7-2.3 1.9-2.3s1.7 1.2 1.7 1.6c0 .2-.1.1-.3.1h-2.6zm1.9-.2l.2-.2c0-.5-.6-1-1.1-1-.6 0-1 .7-1 1.3h1.9zM86.4 116.8c.4 0 .7.1 1 .4.3.3.4.6.4 1s-.1.7-.4 1c-.3.3-.6.4-1 .4s-.8-.2-1.1-.5l-.3-.9c0-.4.1-.7.3-.9.3-.3.7-.5 1.1-.5m0 .2c-.4 0-.6.1-.9.4-.2.2-.4.5-.4.9 0 .3.1.6.4.9.2.2.5.4.9.4.3 0 .6-.1.9-.4.2-.2.4-.5.4-.9 0-.3-.1-.6-.4-.9-.2-.3-.5-.4-.9-.4m-.3 1.6v.3l.2.1.1.1h-.1-.6-.1l.1-.1v-1.1-.2l-.2-.1-.1-.1h.8l.4.1.2.3-.1.2-.2.1v.1l.1.2.1.2.2.2h.1l-.1.1h-.2l-.2-.1-.3-.5-.1-.2h-.2v.4zm0-.9v.5h.5l.1-.2-.1-.3-.3-.1h-.1l-.1.1"
      class="st0"
    />
  </g>
  <g>
    <path
      d="M87.4 27.9c-6.4 0-11.7 5.3-11.7 11.8 0 6.4 5.3 11.7 11.7 11.7 6.5 0 11.8-5.3 11.8-11.7a12 12 0 00-11.8-11.8"
      class="st5"
    />
    <path
      d="M48.4 75V47.7l1.7-.9 28.4 17.6C88.1 61 97.9 53 100.3 42.6v26.5l4.8 5.9H48.4z"
      class="st5"
    />
    <path
      d="M113 33.2c-7.5-7.4-19.2-7.6-28.8-6.3v-.2l21.6-13.9V2h20.8v73h-12l-1.6-1.6V33.2z"
      class="st5"
    />
    <path
      d="M55.3 35.7L48.4 39V2h49.1v1.6L68.5 22c-.9 5.2.1 11.1 2.3 16 2.3 4.9 5.1 8.3 8.6 12.5L55.3 35.7z"
      class="st5"
    />
    <path
      d="M50.1 73.3V51.6l27.4 16.9a45.8 45.8 0 0019-11.8l.2-.1v13.7l2.6 3H50.1z"
      class="st6"
    />
    <path
      d="M50.1 73.3V51.6l27.4 16.9a45.8 45.8 0 0019-11.8l.2-.1v13.7l2.6 3H50.1z"
      class="st7"
    />
    <path
      d="M116.8 31.9a29.6 29.6 0 00-19.7-9.1l12.2-7.7V3.6h15.6v69.8h-8.1V31.9z"
      class="st6"
    />
    <path
      d="M116.8 31.9a29.6 29.6 0 00-19.7-9.1l12.2-7.7V3.6h15.6v69.8h-8.1V31.9z"
      class="st7"
    />
    <path
      d="M55.4 31.7L50 34.2V3.6h41L65.4 19.8A29.6 29.6 0 0067.6 39l-12.2-7.3z"
      class="st6"
    />
    <path
      d="M55.4 31.7L50 34.2V3.6h41L65.4 19.8A29.6 29.6 0 0067.6 39l-12.2-7.3z"
      class="st7"
    />
    <path
      d="M87.4 31.4a8.3 8.3 0 00-8.2 8.3c0 4.5 3.7 8.3 8.2 8.3 4.6 0 8.3-3.7 8.3-8.3 0-4.7-3.7-8.3-8.3-8.3"
      class="st6"
    />
    <path
      d="M87.4 31.4a8.3 8.3 0 00-8.2 8.3c0 4.5 3.7 8.3 8.2 8.3 4.6 0 8.3-3.7 8.3-8.3 0-4.7-3.7-8.3-8.3-8.3z"
      class="st8"
    />
    <path fill="#fff" d="M46.4 0h82.3v76.7H46.4z" />
    <path
      d="M87.4 27.9c-6.4 0-11.7 5.3-11.7 11.8 0 6.4 5.3 11.7 11.7 11.7 6.5 0 11.8-5.3 11.8-11.7a12 12 0 00-11.8-11.8"
      class="st5"
    />
    <path
      d="M48.4 75V47.7l1.7-.9 28.4 17.6C88.1 61 97.9 53 100.3 42.6v26.5l4.8 5.9H48.4z"
      class="st5"
    />
    <path
      d="M113 33.2c-7.5-7.4-19.2-7.6-28.8-6.3v-.2l21.6-13.9V2h20.8v73h-12l-1.6-1.6V33.2z"
      class="st5"
    />
    <path
      d="M55.3 35.7L48.4 39V2h49.1v1.6L68.5 22c-.9 5.2.1 11.1 2.3 16 2.3 4.9 5.1 8.3 8.6 12.5L55.3 35.7z"
      class="st5"
    />
    <path
      d="M50.1 73.3V51.6l27.4 16.9a45.8 45.8 0 0019-11.8l.2-.1v13.7l2.6 3H50.1z"
      class="st6"
    />
    <path
      d="M50.1 73.3V51.6l27.4 16.9a45.8 45.8 0 0019-11.8l.2-.1v13.7l2.6 3H50.1z"
      class="st7"
    />
    <path
      d="M116.8 31.9a29.6 29.6 0 00-19.7-9.1l12.2-7.7V3.6h15.6v69.8h-8.1V31.9z"
      class="st6"
    />
    <path
      d="M116.8 31.9a29.6 29.6 0 00-19.7-9.1l12.2-7.7V3.6h15.6v69.8h-8.1V31.9z"
      class="st7"
    />
    <path
      d="M55.4 31.7L50 34.2V3.6h41L65.4 19.8A29.6 29.6 0 0067.6 39l-12.2-7.3z"
      class="st6"
    />
    <path
      d="M55.4 31.7L50 34.2V3.6h41L65.4 19.8A29.6 29.6 0 0067.6 39l-12.2-7.3z"
      class="st7"
    />
    <path
      d="M87.4 31.4a8.3 8.3 0 00-8.2 8.3c0 4.5 3.7 8.3 8.2 8.3 4.6 0 8.3-3.7 8.3-8.3 0-4.7-3.7-8.3-8.3-8.3"
      class="st6"
    />
    <path
      d="M87.4 31.4a8.3 8.3 0 00-8.2 8.3c0 4.5 3.7 8.3 8.2 8.3 4.6 0 8.3-3.7 8.3-8.3 0-4.7-3.7-8.3-8.3-8.3z"
      class="st8"
    />
  </g>
</svg>
