<svg xmlns="http://www.w3.org/2000/svg" viewBox="0 0 175 45.6">
  <style>
    .st0 {
      fill: #333;
    }
  </style>
  <path
    d="M13.7 23.3h1.8c6.2 0 10.1 2 10.1 9 0 5.3-2.1 9.2-8.6 9.2-1.1 0-2.2 0-3.3-.2v-18zm0-17.2c1.2-.2 2.5-.3 3.7-.2 4.4 0 6.9 1.8 6.9 6.6 0 6-3.4 7.7-8.8 7.7h-1.8v-14zm-9 .2c.4 1.6.5 3.3.4 5V39c0 2-.2 3-1.2 3.5L2 43.5V45l7.3-.2 8.5.2c9.9.3 16.9-5.6 16.9-13 0-7.2-4.4-10-12.2-10.3 5.6-2 10.8-4 10.8-10.4 0-7-5.9-8.4-11.5-8.3H0v2.2s4.1-.5 4.7 1.2m40.5 22.2c-2.7.4-5.3 1.4-7.6 2.8-1.9 1.6-3 4-2.8 6.5 0 4.4 2.2 7.6 6.8 7.5a10 10 0 009-5.2v4.3l5.5-.2 5.3.2v-2.3l-.6-.2c-2-.2-2.7-1-2.8-2.5a192.8 192.8 0 010-15.2c.2-6.6-4.7-8.9-10-9a16 16 0 00-10.2 4.1v4.2l1.8.4 1-2.4c.5-1.5 2.7-1.5 3.8-1.5 4.6 0 6.3 3 6.3 7.3l-5.5 1.2zm5.3 8.8a8.4 8.4 0 01-5 2.8c-5.9.1-6.3-7 2.3-9.3l2.7-.7v7.2zm31.9-13l.5-7.5a18 18 0 00-7.6-1.4c-7.1 0-12.5 2.6-12.5 9.6 0 4 2.2 6.5 6.4 7.6l5.2 1.3c2.2.5 3.8 1.3 3.8 4 0 3-2.5 4.6-5.2 4.6-2.8 0-6.7-.7-7.2-3.2l-.7-4.2h-2.4v8.7c3 1.1 6.2 1.7 9.5 1.7 6.2 0 12.7-3.3 12.7-10.5 0-5-2.8-7-7.7-8l-5-1.2c-2.3-.5-3.3-1.5-3.3-3.5 0-2.7 2.1-4 5.6-4 1.9 0 4.7 1.1 5 2.4l.6 3.6h2.3zm53.5 5.8v-4c0-7.2-5.1-10.8-11.8-10.8-1.8 0-14.1 1-13.6 15.8.3 8.8 4.9 14.2 13.8 14.2 3.4 0 6.8-.9 9.7-2.7l1.3-2.9-.7-.9a14 14 0 01-6.5 2.2c-6.3 0-9.7-4.4-9.7-10.4 0 0 17.5-.3 17.5-.5m-12.7-11.3c4.5 0 5 5 5 8.6H118c0-5.9 1.7-8.6 5.2-8.6M168 9c0 2 1.6 3.5 3.5 3.5S175 11 175 9s-1.6-3.5-3.5-3.5A3.5 3.5 0 00168 9m.6 0a2.9 2.9 0 012.7-3 2.9 2.9 0 013 2.7V9a2.8 2.8 0 01-2.7 3 2.8 2.8 0 01-3-2.7V9m1.5 2h.6V9.2h.7l1.1 1.8h.7L172 9.2c.6 0 1.1-.4 1.1-1 0-.9-.5-1.3-1.4-1.3h-1.6V11zm.7-3.6h.8c.4 0 .9.1.9.6 0 .7-.5.7-1.1.7h-.7l.1-1.3zm-64.3 17l.5-7.6a18 18 0 00-7.6-1.4c-7.1 0-12.5 2.6-12.5 9.6 0 4 2.2 6.5 6.4 7.6l5.2 1.3c2.3.5 3.8 1.3 3.8 4 0 3-2.5 4.6-5.2 4.6-2.9 0-6.7-.7-7.2-3.2l-.7-4.2H87v8.7c3 1.1 6.2 1.7 9.5 1.7 6.2 0 12.7-3.3 12.7-10.5 0-5-2.8-7-7.7-8l-5-1.2c-2.3-.5-3.4-1.5-3.4-3.5 0-2.7 2.1-4 5.6-4 2 0 4.8 1.1 5 2.4l.6 3.6h2.2zm34.3 13.3c0 5.5 2.3 7.8 7.8 7.8 1.3.1 2.7-.3 3.7-1l3-3.7-.5-1.2c-.8.5-1.8.8-2.8.8-2.7 0-3.8-.9-3.8-4V21.8h6.4l.1-3.9h-6.5v-3.4l-.1-8.4-.8-.6c-1.8 1-6.4 3.1-6.4 3.1l.1 9.3-4 2.7V22l3.9-.2-.1 16zm15.6 0c0 5.5 2.2 7.8 7.8 7.8 1.3.1 2.7-.3 3.7-1l3-3.7-.5-1.2c-.8.5-1.8.8-2.8.8-2.8 0-3.8-.9-3.8-4V21.8h6.5l.1-3.9h-6.6v-3.4c0-2.8-.2-8-.1-8.4l-.9-.6c-1.8 1-6.4 3.1-6.4 3.1l.1 9.3h-4v4h3.9v15.8zM63.9 5.5c0-1-.5-1.4-2.3-2.2-1.7-.7-2.2-.9-2.2-1.6 0-.7.5-.9 1.8-.9l2.4.3.2-.8C63 .1 62.1 0 61.2 0c-1.8 0-2.8.5-2.8 1.7 0 1.1.6 1.6 2.5 2.3 1.7.6 2 1 2 1.5 0 .6-.7 1.1-1.9 1.1-.9 0-1.8-.2-2.7-.5l-.2.8c.9.4 1.9.6 3 .6 1.7.1 2.8-.7 2.8-1.9zm2.9 2V2h-1v5.3h1zm0-6.3V0h-1v1.2h1zm6.9 6.2V4c0-1.2-.6-2-1.8-2-.7 0-1.4.4-1.8 1V2h-1v5.3h1V4.5c-.1-.9.6-1.7 1.5-1.7.8 0 1.1.4 1.1 1.2v3.3l1 .1zm6.1 0l-.2-.8-1.1.1c-1 .1-1.9-.6-2-1.6v-.4c-.1-1 .6-1.9 1.6-2h.4l1.1.1.2-.7-1.4-.2a2.7 2.7 0 00-2.8 2.5v.2c0 1.5 1.1 2.7 2.6 2.8H79.8zM86.3 5v-.3c.2-1.4-.8-2.6-2.1-2.8h-.3a2.5 2.5 0 00-2.5 2.6v.2c-.1 1.5 1 2.7 2.5 2.8h.4c.6 0 1.2 0 1.8-.3l-.2-.7-1.6.2c-.9.1-1.8-.5-1.9-1.5V5h3.9zm-1-.7h-3c0-.8.7-1.5 1.5-1.6.9 0 1.4.6 1.5 1.6zm8.3 3.1V.2h-1l-2.1.4.1.8 1.9-.3v6.3h1.1zm7.7-4.2c0-2-1.1-3.2-2.7-3.2-1.3 0-2.4 1-2.5 2.3v.1c0 1.2.9 2.2 2.2 2.2h.2c.7 0 1.4-.3 1.9-.8-.2 1.7-1 2.8-2.8 2.8h-1l-.1.7 1.2.1c2.2.1 3.6-1.6 3.6-4.2zm-1-.8c-.1 1-.8 1.5-1.6 1.4-.8.1-1.4-.5-1.5-1.2v-.2c0-.8.6-1.5 1.4-1.5h.1c.8 0 1.6.5 1.6 1.4v.1zm8.3 1.4c0-2-.9-3.7-2.8-3.7-1.8 0-2.8 1.7-2.8 3.7s.9 3.7 2.8 3.7 2.8-1.7 2.8-3.7zm-1 0c0 1.6-.5 3-1.8 3s-1.8-1.4-1.8-3 .5-2.8 1.8-2.8 1.8 1.2 1.8 2.8zm8 3.6v-.9h-4c0-.8.6-1 2.2-2 1.2-.8 1.7-1.5 1.7-2.4 0-1.2-.9-2-2.6-2-.8 0-1.5.1-2.3.4l.2.8c.6-.2 1.3-.3 2-.3 1.3 0 1.8.4 1.8 1.1 0 .7-.3 1.1-1.5 1.8-1.9 1.1-2.5 1.6-2.5 3.1v.5h5z"
    class="st0"
  />
</svg>
