<svg xmlns="http://www.w3.org/2000/svg" viewBox="0 0 175 26.4">
  <style>
    .st0 {
      fill: #58595b;
    }
  </style>
  <path
    d="M3 2.2c.2.5.3 1.5.3 3.1v17c0 1.2-.2 1.8-.8 2.2l-1.2.7v.8l4.6-.1 5.4.1c6.2.2 10.6-3.5 10.6-8.1 0-4.4-2.8-6.1-7.6-6.3v-.1c3.5-1.2 6.8-2.5 6.8-6.3C21.1.9 17.4 0 13.9.1L0 0v1.4s2.6-.3 3 .8m5.6-.1l2.3-.2c2.8 0 4.3 1.1 4.3 4.1 0 3.7-2.1 4.7-5.5 4.7H8.6V2.1zm0 10.6h1.1c3.9 0 6.3 1.3 6.3 5.5 0 3.3-1.3 5.7-5.4 5.7-.7 0-1.3 0-2.1-.2v-11z"
    class="st0"
  />
  <path
    d="M31.6 21.3c-.5.7-2 1.7-3.2 1.7-3.7.1-4-4.4 1.4-5.7l1.7-.5v4.5zm-3.3-5.4c-1.6.3-3.3.8-4.8 1.7-1.3.9-1.7 2.5-1.7 4 0 2.7 1.4 4.7 4.2 4.6 4.2-.1 5.6-3.2 5.6-3.2v2.7l3.5-.1 3.3.1v-1.4l-.4-.1c-1.2-.1-1.7-.6-1.8-1.6l-.1-4.7.1-4.7c.1-4.1-2.9-5.5-6.3-5.5-3.6 0-6.4 2.5-6.4 2.5v2.6l1.1.3.6-1.5c.3-.9 1.7-1 2.4-1 2.9 0 4 1.8 4 4.5l-3.3.8zM51.6 13.3l.3-4.6c-1.4-.7-3-.9-4.8-.9-4.4 0-7.8 1.6-7.8 5.9 0 2.4 1.4 4 4 4.7l3.3.8c1.4.3 2.4.8 2.4 2.5 0 1.8-1.6 2.8-3.3 2.8-1.8 0-4.2-.4-4.5-2l-.4-2.6h-1.5v5.3c2 .7 4 1.1 5.9 1.1 3.9 0 8-2.1 8-6.5 0-3.1-1.7-4.3-4.8-5l-3.1-.7c-1.4-.3-2.1-.9-2.1-2.1 0-1.6 1.3-2.5 3.5-2.5 1.2 0 3 .7 3.1 1.5l.4 2.2h1.4zM77.2 9.9c2.8 0 3.1 3 3.1 5.3h-6.4c0-3.6 1-5.3 3.3-5.3m7.9 7v-2.4c0-4.4-3.2-6.7-7.4-6.7-1.1 0-8.8.6-8.5 9.8.2 5.4 3.1 8.8 8.6 8.8 2.2 0 3.8-.4 6.1-1.6l.8-1.8-.5-.6a9.4 9.4 0 01-4.1 1.3c-4 0-6-2.7-6-6.4 0-.2 11-.3 11-.4M106.4 2.9h.5c.3 0 .6.1.6.4 0 .4-.3.4-.7.4h-.4v-.8zm-.4 2.2h.4V4h.4l.7 1.1h.4l-.7-1.1c.4 0 .7-.2.7-.7 0-.5-.3-.7-.9-.7h-1v2.5zm-1-1.3c0-1 .8-1.8 1.8-1.8s1.8.8 1.8 1.8c0 1.1-.8 1.9-1.8 1.9s-1.8-.8-1.8-1.9m-.3 0c0 1.3 1 2.2 2.2 2.2 1.2 0 2.2-.9 2.2-2.2 0-1.2-1-2.2-2.2-2.2-1.2 0-2.2 1-2.2 2.2M66.7 13.3l.3-4.7c-1.4-.7-3-.9-4.8-.9-4.4 0-7.8 1.6-7.8 5.9 0 2.4 1.4 4 4 4.7l3.3.8c1.4.3 2.4.8 2.4 2.5 0 1.8-1.6 2.8-3.3 2.8-1.8 0-4.2-.4-4.5-2l-.4-2.6h-1.5v5.3c2 .7 4 1.1 5.9 1.1 3.9 0 8-2.1 8-6.5 0-3.1-1.7-4.3-4.8-5l-3.1-.7c-1.4-.3-2.1-.9-2.1-2.1 0-1.6 1.3-2.5 3.5-2.5 1.2 0 3 .7 3.1 1.5l.4 2.2h1.4zM88.2 21.5c0 3.4 1.4 4.8 4.9 4.8 1.2 0 2.1-.3 2.3-.7l1.9-2.2-.3-.7c-.5.3-.9.5-1.7.5-1.7 0-2.4-.5-2.4-2.5v-9h4l.1-2.4h-4.1V7.2L92.8 2l-.5-.4-4 1.9.1 5.8-2.7 1.7v.8l2.4-.1v9.8z"
    class="st0"
  />
  <path
    d="M97.9 21.5c0 3.4 1.4 4.8 4.9 4.8 1.2 0 2.1-.3 2.3-.7l1.9-2.2-.3-.7c-.5.3-.9.5-1.7.5-1.7 0-2.4-.5-2.4-2.5v-9h4l.1-2.4h-4.1V7.2l-.1-5.2-.5-.3-4 1.9.1 5.7h-2.5v2.4H98v9.8z"
    class="st0"
  />
  <path fill="none" stroke="#6d6e70" stroke-width="2" d="M117.2 0v26" />
  <path
    fill="#6d6e70"
    d="M142.2 21.2c0-1.5-.9-3.3-3.2-4 2-.7 2.6-2.4 2.6-3.6 0-2.6-2-4.4-5.2-4.4H128v16.9h9.2a5 5 0 005-4.9m-3.8-.2c0 1.2-.7 2.1-2.3 2.1h-4.3V19h4.3c1.5-.1 2.3.8 2.3 2m-.6-7c0 1.2-.7 2-2.3 2h-3.8v-3.9h3.8c1.5 0 2.3.7 2.3 1.9m16.7 12.1v-8c0-2.7-1.4-4.6-4.2-4.6a5 5 0 00-4.3 2.4v-2.2h-2.2v12.4h2.2v-6.6c0-2.5 1.8-4 3.6-4s2.6 1 2.6 2.8v7.8h2.3zm13.1-5.5v-.7c0-3.6-2-6.4-5.6-6.4-3.7 0-5.9 3-5.9 6.4 0 3.8 2.5 6.4 6.7 6.4 1.3 0 2.7-.2 4.1-.7l-.4-1.7a15 15 0 01-3.7.5c-2.7 0-4.3-1.4-4.4-3.9h9.2zm-2.2-1.7h-7c.2-2.3 1.6-3.6 3.6-3.6 2.1 0 3.2 1.4 3.4 3.6M175 26l-.2-1.7-1.2.1c-.9 0-1.4-.4-1.4-1.9v-7.2h2.4v-1.7h-2.4v-3.5H170v3.5h-1.7v1.7h1.7v7.3c0 2.6 1.3 3.6 3.4 3.6a3 3 0 001.6-.2"
  />
</svg>
