<svg xmlns="http://www.w3.org/2000/svg" viewBox="0 0 175 92.3">
  <path
    fill="#2c3943"
    fill-rule="evenodd"
    d="M162.8 60.6c.3.1 1 1.2 1 1.5v.3h-4.6v-.2a2.2 2.2 0 012.3-1.9l1.3.3zm-47.5-.2c.6.1 1.6 1.2 1.6 1.8v.3h-4.6v-.2a2.2 2.2 0 012.3-1.9h.7zm26.2-1.7v5c.2 1.8 1 2.3 2.2 2.3 1.8 0 2.2-1.4 2.2-2.6v-4.8h2v5.9c-.6 2.7-2.4 3.3-4.2 3.3-1.2 0-1.9-.1-3.1-1.2a4 4 0 01-1-2.2v-5.9h1.9zm33.3.7L174 61c-.8-.6-1.9-.7-2.8-.7-.5 0-1.7.1-1.7 1 0 1.8 5.5.1 5.5 3.7 0 2.4-2.7 2.9-4.1 2.9-1.2 0-2.4-.2-3.5-.9-.1-.1-.3-.1-.3-.3l.8-1.4c1.1.7 1.9.9 2.9.9.5 0 2.2 0 2.2-1.1 0-1.8-5.6-.1-5.6-3.8 0-2.4 2.3-2.8 3.7-2.8 1.3 0 2.4.2 3.7.9zm-9.4 1.7l.4 1.4v1.4h-6.7l-.1.1.2.7c.7 1.2 1.6 1.4 2.5 1.4 1 0 2.5-.9 2.6-.9l1 1.4a5.1 5.1 0 01-3.7 1.2l-1.3-.1c-1.8-.1-3.4-2.4-3.4-3.7v-1.6c.5-2.9 2.4-3.9 4.4-3.9 1.7 0 3.2.5 4.1 2.6zm-9-2.2l-.5 1.8a4 4 0 00-1.4-.3c-1.4 0-2.2 1-2.2 2.3v5h-1.9v-9h1.9l.1 1c.7-1.1 1.8-1.2 2.7-1.2 0 0 1.3-.1 1.3.4zm-27.3 1.7l.3.7v6.3h-2l.1-5c-.2-1.5-.8-2.4-2.2-2.4-1.2 0-2.4.9-2.4 2.2v5.1H121v-9h1.9l.1 1c1-1.2 1.8-1.2 2.7-1.2 1.3.2 2.5.6 3.4 2.3zm-13.4-2c1.8.1 3.2 2.7 3.2 3.9v1.4h-6.7l-.1.1.4 1.1c.6 1 1.6 1.1 2.3 1.1.8 0 1.5-.2 2.6-1 .3.5 1 1.2 1 1.4 0 .4-1.9 1.1-2.3 1.2l-1.3.1c-1.4 0-3.3-.3-4.3-2.4l-.4-1.4v-1.6c.5-2.9 2.4-3.9 4.4-3.9h1.2zm18.7-2.6v2.7h3.4v1.8h-3.5v3.6c.1 1.4.4 2 1.5 2 .7 0 1-.4 1.8-.5l.7 1.5c-.7.5-2 1-2.8 1-.9 0-2.7-.5-3-1.8l-.2-.9v-4.8h-1.8v-1.8h1.8V56h2.1zM104 65.5l4.2-10.9h2.2l-5 13.1h-2.7l-5-13.1h2.2l4.1 10.9zm43.4-21.3c0 1.6-1.2 2.9-2.7 2.9-1.7 0-2.7-1.3-2.7-2.8 0-1.6 1.1-2.8 2.7-2.8 1.7-.1 2.7 1.2 2.7 2.7zm-23.6 0c0 1.6-1.2 2.7-2.7 2.7-1.8 0-2.6-1.5-2.6-2.8 0-1.6 1.1-2.7 2.6-2.7 1.8 0 2.7 1.3 2.7 2.8zm6.4-4.5v9h-1.9v-9h1.9zm-15.6 0v9h-1.9v-9h1.9zm32.7 1.1v-1h2v9h-2v-1c-.7.9-2 1.3-2.8 1.3l-1.2-.2c-1.6-.1-3.4-2.6-3.4-3.8v-1.6c.7-2.9 2.4-3.9 4.5-3.9 1.1-.1 1.8 0 2.9 1.2zm-23.6 0v-1h2v8.6c-.3 3.4-2.6 4.4-4.9 4.4-1.2 0-2.7-.1-3.7-1.1l.7-1.6c1 .6 2 .9 3 .9 1.4 0 2.8-.5 3-2.6l-.1-.8c-.7.9-2.1 1.3-3 1.3-1.4 0-3.5-1.2-3.9-3l-.2-.9v-1.6c.5-2.9 2.2-3.9 4.2-3.9 1 0 1.9.1 2.9 1.3zm-19.6-3.2c3.2.1 4.2 2.5 4.2 4.6 0 2.3-1.5 4.5-4.3 4.5h-3.4v-9h3.5zm31.3-.6v2.7h3.5v1.8h-3.5v1.9c0 1-.3 3.7 1.5 3.7.7 0 1-.4 1.8-.5l.7 1.5c-.6.5-2 1-2.8 1a9 9 0 01-1.1-.2c-1.2-.1-2.1-1.7-2.1-2.5v-4.8h-1.8v-1.8h1.8V37h2zm-30.9-1.4c4.4.6 6 3.4 6 6.5 0 2.2-.9 5.1-4.2 6.2l-1.8.4h-6V35.6h6zm49.3-.4v13.5h-1.9V35.2h1.9zm-23.2 1.3c0 .8-.7 1.4-1.4 1.4-1 0-1.4-.6-1.4-1.4 0-.7.4-1.4 1.3-1.4 1.1.1 1.5.7 1.5 1.4zm-15.6 0c0 .8-.6 1.4-1.4 1.4-1 0-1.3-.8-1.3-1.4 0-.7.4-1.4 1.3-1.4.9.1 1.4.7 1.4 1.4zm-11.5-12.1c1.4.1 2.6.5 2.6 2 0 1.8-1.8 2.1-3 2.1h-3.3v-4.1h3.7zm-.6-5.2c1.5.1 2.9.3 2.9 1.9 0 1.6-1.7 2-2.7 2h-3.3v-3.9h3.1zm.9-1.3c2.3.1 3.5 1.4 3.5 3.1a3 3 0 01-1.7 2.7 3 3 0 012 2.9c0 2.2-1.9 3.3-3.6 3.3h-5.6v-12h5.4zm28.7 1.7l-1 1c-1.4-1.3-2.5-1.6-3.7-1.6-3.1 0-4.7 2.3-4.7 4.8 0 2.9 2 4.8 4.7 4.8 2.1 0 3.8-1 4.4-3.9h-3.8v-1.2h5.2l.1.5c0 3.4-2.4 6-5.9 6a6 6 0 01-5.9-3.9l-.3-1.2v-1.8c.6-3.9 3.5-5.2 6.1-5.2 1.7-.2 3.3.1 4.8 1.7zm-12.1.5c-.3.3-.7.5-1.2.7a4.2 4.2 0 00-3.7-1.9c-3 0-4.7 2.3-4.7 4.8 0 2.7 1.8 4.9 4.7 4.9 1.2 0 2.7-.4 3.7-1.9l1.2.8a6.1 6.1 0 01-4.9 2.4c-2.2 0-4.9-1-5.9-4l-.3-1.2v-1.8c.5-3.8 3.5-5.2 6.1-5.2 1.7 0 3.6.3 5 2.4zm-76.1-6.7l18.6 10.8.8.3.9-.3c.1-.1 3.3-3.2 4.2-3.2.5 0 1.5.5 1.5 1.3v40.8l-.1.4a3 3 0 01-.5.7 482.9 482.9 0 00-19.3 11.2l-10.1 5.8-.4.1c-.8 0-4.6-2.4-4.7-2.5L16.7 68l-.7-.1c-.2 0-.6 0-.8.2-.5.3-3.3 3.3-4.2 3.3-.5 0-1.4-.5-1.4-1.1V29.1c.1-.3.2-.7.5-.8L29.5 17c3.2-1.9 6.5-3.9 9.9-5.7l.6-.1c.6 0 4 2.1 4.3 2.2zm-.9-11.7c1 .7 2.2 1.3 3.3 1.9L56 9c4.9 2.9 9.9 5.9 15 8.6l.5.1.8-.3c1.8-1.5 3.5-3.3 5.4-4.8.2-.2.6-.2.7-.2 1.2 0 1.6 1 1.6 1.8l-.1 54.6c-.1.2-.1.5-.3.7l-1.2.8-5 2.9c-10.9 6.3-21.7 12.7-32.6 18.9l-.7.2c-.7 0-4.5-2.4-5.9-3.2L9 74.5l-.4-.1c-1 0-1.8 1.2-2.7 1.9l-3.5 3.1-.9.3c-.3 0-1.4-.3-1.4-1V23.4c.1-.2.2-.6.4-.7 2-1.4 4.1-2.4 6.1-3.6L39.3.1l.6-.1c.9 0 2.8 1.3 3.5 1.7z"
    clip-rule="evenodd"
  />
</svg>
