<svg xmlns="http://www.w3.org/2000/svg" viewBox="0 0 175 45.9">
  <style>
    .st0 {
      fill: #f89c3e;
    }
    .st1 {
      fill: #005c90;
    }
    .st2 {
      fill: #a1becf;
    }
    .st4 {
      display: inline;
      fill: #fcd7b2;
    }
  </style>
  <g id="logo_1_">
    <g id="icon_1_">
      <path
        d="M139.1 26.2c-.2-.4 0-1 .3-1.4 0 0 4.4-1.4 4.5-7.1.1-5.3-4.6-7.3-4.6-7.3-.3-.3-.4-1-.3-1.4l1.5-3.8c.2-.4.6-.5.9-.1 0 0 7.6 5.7 7.4 12.9-.2 6.5-7.5 12.3-7.5 12.3-.3.3-.7.2-.9-.2l-1.3-3.9z"
        class="st0"
      />
      <path
        d="M131.6 23.3a6.1 6.1 0 01-6.2-6 6 6 0 016.2-5.9c3.4 0 6.2 2.7 6.2 6a6 6 0 01-6.2 5.9z"
        class="st1"
      />
      <path
        d="M124 26.2c.2-.4 0-1-.3-1.4 0 0-4.4-1.4-4.5-7.1-.1-5.3 4.6-7.3 4.6-7.3.3-.3.4-1 .3-1.4l-1.5-3.8c-.2-.4-.6-.5-.9-.1 0 0-7.6 5.7-7.4 12.9.2 6.5 7.5 12.3 7.5 12.3.3.3.7.2.9-.2l1.3-3.9z"
        class="st0"
      />
    </g>
    <g id="technologies_1_">
      <path
        d="M83.2 33v2.2h2.2v1h-2.2v4.1c0 .9.3 1.5 1.1 1.5l.9-.1.1 1-1.3.2c-.7 0-1.3-.2-1.6-.6-.4-.4-.6-1.1-.6-2v-4.1h-1.3v-1h1.3v-1.8l1.4-.4zM88 39.2c0 1.8 1.3 2.6 2.8 2.6 1.1 0 1.7-.2 2.3-.4l.3 1c-.5.2-1.4.5-2.8.5-2.5 0-4.1-1.5-4.1-3.8S88 35 90.4 35c2.7 0 3.4 2.2 3.4 3.5l-.1.6H88zm4.4-1c0-.9-.4-2.2-2.1-2.2-1.5 0-2.2 1.3-2.3 2.2h4.4zM101.8 42.4c-.4.2-1.3.4-2.4.4-2.5 0-4.1-1.5-4.1-3.8s1.7-4 4.4-4c.9 0 1.7.2 2.1.4l-.3 1.1c-.4-.2-.9-.4-1.7-.4-1.9 0-2.9 1.3-2.9 2.8 0 1.7 1.2 2.8 2.9 2.8.9 0 1.4-.2 1.8-.4l.2 1.1zM103.7 31.6h1.5v4.7c.2-.4.6-.7 1.1-1 .4-.2 1-.4 1.5-.4 1.1 0 2.9.6 2.9 3.2v4.5h-1.5v-4.3c0-1.2-.5-2.2-1.9-2.2a2 2 0 00-2 1.4l-.1.7v4.5h-1.5V31.6zM113.3 37.2l-.1-2h1.3l.1 1.2c.4-.7 1.4-1.4 2.7-1.4 1.1 0 2.9.6 2.9 3.2v4.5h-1.5v-4.3c0-1.2-.5-2.2-1.9-2.2-1 0-1.8.6-2 1.4l-.1.6v4.5h-1.5v-5.5zM129.8 38.9c0 2.8-2.1 4-4.1 4-2.2 0-4-1.5-4-3.9 0-2.5 1.8-4 4.1-4 2.4 0 4 1.6 4 3.9zm-6.6 0c0 1.6 1 2.9 2.5 2.9 1.4 0 2.5-1.2 2.5-2.9 0-1.3-.7-2.9-2.5-2.9s-2.5 1.5-2.5 2.9zM131.2 31.6h1.5v11h-1.5v-11zM142.4 38.9c0 2.8-2.1 4-4.1 4-2.2 0-4-1.5-4-3.9 0-2.5 1.8-4 4.1-4 2.4 0 4 1.6 4 3.9zm-6.6 0c0 1.6 1 2.9 2.5 2.9 1.4 0 2.5-1.2 2.5-2.9 0-1.3-.7-2.9-2.5-2.9-1.7 0-2.5 1.5-2.5 2.9zM151 35.2l-.1 2.1v4.4c0 1.7-.4 2.8-1.2 3.4-.8.7-2 .9-3 .9a6 6 0 01-2.8-.6l.4-1a5 5 0 002.4.6c1.5 0 2.7-.7 2.7-2.6v-.8c-.5.7-1.4 1.3-2.6 1.3-2.1 0-3.5-1.6-3.5-3.7 0-2.5 1.8-4 3.7-4a3 3 0 012.6 1.3l.1-1.1h1.3zm-1.6 2.9l-.1-.6c-.3-.8-1-1.4-2.1-1.4-1.4 0-2.5 1.1-2.5 2.8 0 1.5.8 2.7 2.4 2.7.9 0 1.8-.5 2.1-1.4l.1-.7v-1.4zM155.2 33c0 .5-.4.8-1 .8-.5 0-.9-.4-.9-.8 0-.5.4-.9.9-.9.7.1 1 .5 1 .9zm-1.6 9.7v-7.5h1.5v7.5h-1.5zM159.7 39.2c0 1.8 1.3 2.6 2.8 2.6 1.1 0 1.7-.2 2.3-.4l.3 1c-.5.2-1.4.5-2.8.5-2.5 0-4.1-1.5-4.1-3.8s1.5-4.1 3.9-4.1c2.7 0 3.4 2.2 3.4 3.5l-.1.6h-5.7zm4.4-1c0-.9-.4-2.2-2.1-2.2-1.5 0-2.2 1.3-2.3 2.2h4.4z"
        class="st2"
      />
      <g>
        <path
          d="M167.7 41.3c.4.3 1.2.5 2 .5 1.1 0 1.6-.5 1.6-1.1 0-.7-.4-1-1.5-1.4-1.5-.5-2.2-1.2-2.2-2.1 0-1.2 1.1-2.2 2.9-2.2.8 0 1.6.2 2 .5l-.4 1c-.3-.2-.9-.4-1.7-.4-.9 0-1.4.5-1.4 1 0 .6.5.9 1.6 1.3 1.4.5 2.2 1.2 2.2 2.3 0 1.3-1.1 2.3-3.1 2.3-.9 0-1.7-.2-2.3-.5l.3-1.2z"
          class="st2"
        />
      </g>
    </g>
    <g id="beacon_1_">
      <path
        d="M0 27.2V0h3.9v10.6H4c.9-1.9 3.8-2.8 8.7-2.8 3.9 0 6.6.7 8 2.2 1.5 1.4 2.2 4.1 2.2 7.9 0 3.6-.8 6.1-2.3 7.5-1.6 1.4-4.4 2.1-8.5 2.1-4.2 0-6.9-.9-8.3-2.6h-.1l.2 2.3H0zm11.7-17.1c-3.1 0-5.1.5-6.1 1.4-1 .9-1.6 2.8-1.6 5.6 0 3.4.5 5.6 1.4 6.6.9.9 3.1 1.4 6.5 1.4 2.9 0 4.7-.5 5.6-1.4.9-1 1.4-2.9 1.4-5.9 0-3.1-.5-5.2-1.4-6.2-.9-1-2.8-1.5-5.8-1.5zM47.3 21.4h4l.1.7c0 2-.8 3.4-2.5 4.2-1.7.8-4.6 1.2-8.8 1.2-4.9 0-8.1-.6-9.6-1.9-1.5-1.3-2.3-4-2.3-8.1 0-3.8.8-6.4 2.3-7.7 1.5-1.3 4.5-2 9-2 4.9 0 8.1.6 9.6 1.7s2.3 3.5 2.3 7.1v1.5h-19c0 3 .4 4.9 1.3 5.8.9.8 3 1.2 6.3 1.2 3.1 0 5.1-.2 6.1-.6.9-.4 1.4-1.2 1.4-2.5v-.6zm0-5.4v-.9c0-2.1-.5-3.4-1.4-4-.9-.6-3-.9-6.1-.9-3.1 0-5.2.4-6.1 1.1-.9.7-1.4 2.3-1.4 4.7h15zM61.4 13.5h-3.8c0-2.2.7-3.7 2.1-4.5a19 19 0 018.2-1.1c4.4 0 7.4.5 8.9 1.4 1.6.9 2.3 2.7 2.3 5.4v12.6h-3.9l.3-2.1h-.1c-1.5 1.6-4.5 2.3-9 2.3-6.7 0-10-1.9-10-5.8 0-2.3.7-3.9 2.2-4.8 1.5-.9 4.2-1.3 8.1-1.3 4.6 0 7.4.7 8.3 2h.1v-2.3c0-2.2-.4-3.6-1.2-4.3-.8-.6-2.6-1-5.4-1-4.8 0-7.1 1-7.1 2.9v.6zm6.3 4.2c-3 0-4.9.2-5.8.7-.9.5-1.3 1.4-1.3 2.9s.4 2.6 1.3 3.1 2.7.7 5.4.7c5.5 0 8.2-1.2 8.2-3.6 0-1.5-.5-2.5-1.6-3a17 17 0 00-6.2-.8zM104.5 20.3h3.9v1c0 4.1-3.7 6.1-11.1 6.1-4.8 0-7.9-.6-9.4-1.9-1.5-1.3-2.3-3.9-2.3-8 0-3.8.8-6.3 2.3-7.7 1.6-1.3 4.5-2 8.9-2 4.3 0 7.2.5 8.8 1.4 1.6.9 2.4 2.6 2.4 5.1h-4v-.5c0-1.5-.5-2.5-1.5-3s-3-.7-6.1-.7c-2.9 0-4.8.5-5.6 1.4-.8.9-1.2 3-1.2 6.3 0 3.2.5 5.2 1.4 6 1 .9 3.2 1.3 6.7 1.3 3 0 4.8-.3 5.6-.8.8-.6 1.2-1.9 1.2-4z"
        class="st1"
      />
      <g>
        <path
          d="M155 8.1h3.4l-.1 2.6.1.1c1.1-2 3.7-2.9 7.9-2.9 3.4 0 5.7.5 6.9 1.4 1.2 1 1.8 2.8 1.8 5.5v12.4h-3.5V14.3c0-1.6-.4-2.7-1.2-3.3-.8-.6-2.3-.8-4.5-.8-4.9 0-7.3 1.9-7.3 5.6v11.4H155V8.1z"
          class="st1"
        />
      </g>
    </g>
  </g>
</svg>
