<svg xmlns="http://www.w3.org/2000/svg" viewBox="0 0 175 31.9">
  <style>
    .st0 {
      fill: #154271;
    }
    .st1 {
      fill: #01b9e4;
    }
  </style>
  <path
    d="M0 .6h7.3c2.3 0 4 .2 5.2.5 1.2.4 2.1 1.1 2.9 2.2a10 10 0 011.1 5.3c0 1.6-.3 2.8-.8 3.4-.5.6-1.5 1.1-3 1.5 1.7.4 2.8 1 3.4 1.9.6.9.9 2.2.9 4.1v2.6a11 11 0 01-.6 4.2c-.4.9-1.1 1.5-2.1 1.9-.9.3-2.9.5-5.8.5H0V.6zm7.3 4.8v6.2H8c.7 0 1.2-.2 1.4-.5.2-.4.3-1.4.3-3l-.2-1.8c-.2-.4-.4-.7-.7-.8l-1.5-.1zm0 10.6v7.9c1 0 1.7-.2 2-.5.3-.3.4-1 .4-2.1v-2.6c0-1.2-.1-1.9-.4-2.2-.2-.3-.9-.5-2-.5zM42.5.6v28.1h-6.4V9.8l-2.5 18.9H29l-2.7-18.5v18.5H20V.6h9.4l.9 6 1 7.1L33 .6h9.5zM53.6.6v28.1h-7.3V.6h7.3z"
    class="st0"
  />
  <path
    d="M78.3 9.1h-6.8V7c0-1-.1-1.6-.3-1.9-.2-.3-.5-.4-.9-.4s-.8.2-1 .5a4 4 0 00-.3 1.7c0 .9.1 1.6.4 2.1.2.5.9 1 2.1 1.7 3.3 1.9 5.3 3.5 6.1 4.7.8 1.2 1.3 3.2 1.3 6 0 2-.2 3.5-.7 4.4-.5.9-1.4 1.7-2.7 2.4-1.3.6-2.9 1-4.7 1-2 0-3.6-.4-5-1.1a5.2 5.2 0 01-2.7-2.8c-.4-1.1-.6-2.8-.6-4.9v-1.8h6.8V22c0 1.1.1 1.7.3 2 .2.3.5.5 1 .5s.8-.2 1.1-.6c.2-.4.4-.9.4-1.7 0-1.7-.2-2.7-.7-3.2-.5-.5-1.6-1.4-3.4-2.5a46 46 0 01-3.6-2.6 5.7 5.7 0 01-1.5-2.3c-.4-1-.6-2.2-.6-3.7 0-2.1.3-3.7.8-4.7s1.4-1.8 2.7-2.3c1.1-.6 2.6-.9 4.3-.9 1.9 0 3.5.3 4.9.9 1.3.6 2.2 1.4 2.7 2.3.3 1 .6 2.5.6 4.8v1.1zM97 5.7v23h-7.1l.1-1.9c-.5.8-1.1 1.4-1.8 1.7-.7.4-1.5.6-2.5.6a5 5 0 01-2.6-.6c-.7-.4-1.2-.9-1.5-1.5a7 7 0 01-.6-1.9l-.1-4V5.7h7v15.7c0 1.8.1 2.9.2 3.2.1.3.4.5.9.5s.8-.2.9-.5l.1-3.3V5.7h7zM107.4 5.7l-.3 3c1-2.2 2.5-3.3 4.4-3.4v8.1c-1.3 0-2.2.2-2.8.5a2 2 0 00-1.1 1.4c-.1.6-.2 2-.2 4.3v9.1h-7v-23h7zM120.6 5.7l-.1 2a6 6 0 012.1-1.8c.8-.4 1.6-.6 2.5-.6 1.1 0 2 .3 2.8.9a4 4 0 011.5 2c.2.8.3 2.1.3 3.9v9.7c0 2.1-.1 3.6-.4 4.5-.2.9-.8 1.6-1.5 2.1-.8.5-1.7.8-2.8.8-.9 0-1.7-.2-2.4-.6-.7-.4-1.4-1-2-1.8v5.3h-7V5.7h7zm2 6.6c0-1.4-.1-2.3-.2-2.6-.1-.3-.4-.5-.9-.5s-.8.2-.9.5c-.1.3-.2 1.2-.2 2.5v9.5c0 1.4.1 2.3.2 2.6.1.3.4.5.9.5s.7-.2.8-.5c.1-.3.2-1.1.2-2.3v-9.7zM139.1.6v28.1h-7.2V.6h7.2zM157.6 5.7v23h-7.1l.1-1.9c-.5.8-1.1 1.4-1.8 1.7-.7.4-1.5.6-2.5.6a5 5 0 01-2.6-.6c-.7-.4-1.2-.9-1.5-1.5a7 7 0 01-.6-1.9l-.1-4V5.7h7v15.7c0 1.8.1 2.9.2 3.2.1.3.4.5.9.5s.8-.2.9-.5l.1-3.3V5.7h7zM174.5 13h-6.2v-1.2a7 7 0 00-.2-2c-.1-.3-.4-.4-.9-.4-.4 0-.7.1-.9.4-.2.3-.3.6-.3 1.2l.1 1.6c.1.3.4.7.9 1.1.5.4 1.5 1 3 1.7 2 1 3.4 1.9 4 2.8.6.9 1 2.2 1 3.8a9 9 0 01-.7 4.2c-.5 1-1.3 1.7-2.4 2.2a12.6 12.6 0 01-8.7 0 5 5 0 01-2.6-2.3c-.5-.9-.7-2.4-.7-4.3v-1.1h6.2V22l.2 2.4c.2.4.5.6.9.6.5 0 .8-.1 1-.4.2-.2.3-.8.3-1.6 0-1.1-.1-1.8-.4-2.1-.3-.3-1.6-1.1-4.1-2.5-2.1-1.2-3.3-2.2-3.8-3.1-.5-.9-.7-2.1-.7-3.4 0-1.8.2-3.2.7-4.1.5-.9 1.3-1.5 2.5-2s2.5-.7 4-.7 2.8.2 3.9.6c1.1.4 1.9.9 2.5 1.5.6.6.9 1.2 1 1.8l.2 2.5V13z"
    class="st1"
  />
</svg>
