<svg xmlns="http://www.w3.org/2000/svg" viewBox="0 0 175 106">
  <style>
    .st0 {
      fill-rule: evenodd;
      clip-rule: evenodd;
      fill: #01a7e1;
    }
  </style>
  <path
    d="M78.5 104.4c0 .8-1.8 1-1.9 1-.5 0-2.1-.1-2.1-.9 0-.4.4-.9.8-.9.5 0 3.2 0 3.2.8zm-25.6-4c-.1 0-.4-.1-.5-.3l.5-.4v.7zm66.2-.8c0 1.1 0 2.9-1.8 2.9-1.5 0-1.8-2.1-1.8-2.9 0-1 .4-3 1.9-3 1.7 0 1.7 2.3 1.7 3zm49.7-1.6l-.1 1h-3.1c.3-1.3.1-2.5 1.6-2.5.8 0 1.2.3 1.6 1.5zm-23.3.5c0 .4-.3.4-.4.5h-2.8l-.1-.5c0-1.1.5-2 1.6-2 1.2 0 1.7 1.2 1.7 2zm-18.7-.5v1h-3.1v-1c.3-1.1.8-1.5 1.5-1.5.9 0 1.6.7 1.6 1.5zm-24.1 0v.9h-3.1l-.1-.4c0-1 .8-2 1.6-2s1.6.7 1.6 1.5zm-25 .5c0 1.1-.4 2.1-1.4 2.1-1.1 0-1.3-1.8-1.3-2.1 0-.8.3-2 1.3-2 1.2 0 1.4 1.6 1.4 2zm-59.1-.4l-.1.9h-3l-.1-.3c0-1 .5-2.3 1.6-2.3s1.1.7 1.6 1.7zm119.6-2v6.5h1.1v.6h-3l-.1-.6h.9v-6h-.9v-.5h2zm-29.9 0v.4c-.3.1-.6 0-.6.3 0 .4.8 1.3 1 1.9.5-.5 1-1.3 1.4-1.9-.1-.1-.5-.1-.6-.3v-.4h2.5c0 .6-.6.4-.9.5-.3.3-1.8 2-1.8 2.8 0 .3 1.3 2.1 2 3.1l.8.1v.6h-2.8l-.1-.5c.3-.1.5-.1.8-.4l-1.4-2-1.5 2.1.6.1v.6h-2.3v-.6c0-.4.4.1.6-.1.8-.9 2-2.6 2-2.9 0-.4-1.1-2-1.6-2.9-.3-.3-.5-.1-.9-.1V96h2.8zm-25.2 0v6.5l1.1.1v.4H81v-.5h1v-6h-1v-.5h2.1zm67.1-.1l.1 1.1c.9-1.4 1.3-1.1 2-1.1.4 0 1 0 1.5.3.4.3.8 1 .8 1.4v5l1.1.1v.4h-3l-.1-.4 1-.1v-4.4c-.4-1.3-.4-1.5-1.4-1.5-.8 0-1.8.5-1.8 1.4v4.5h1s.1-.1.1.3c0 .3-.1.3-.3.4h-2.8l-.1-.6h.9v-6h-.9V96h1.9zm-18.4 0l.1.8c.8-.8.6-.8 1.4-.8 1 0 1.5.8 1.5 1.6v1.1h-1.1c0-.1 0-2-.8-2s-1.1 1.1-1.1 1.5v4.4h1v.6h-3l-.1-.6h1v-6h-1l.1-.6h2zm38.4 3c0 .4 0 .5-.3.8h-4.5v.6c.1 1.9 1.1 2.5 2 2.5 1.1 0 1.8-1 1.9-2.1h.9l.1.4c0 1.5-1.8 2.4-2.9 2.4-1.6 0-3.1-1-3.1-2.6v-2.5c.8-2.3 1.3-2.5 3-2.5 1.9-.2 2.9 1.1 2.9 3zm-9.7-3.2c.3.1 1.5.9 1.5 1.4v1.3h-1.1c.3-1.4-.9-2.1-1.6-2.1-1.8 0-1.6 2.5-1.6 3.3 0 1 0 3.3 2 3.3 1 0 2.1-1 1.9-2.3.1-.3.1-.5.4-.6h.4l.1.6c0 1.8-1.4 2.9-2.9 2.9-1.4 0-3-1.1-3-2.5v-2.9c.9-2.4 1.5-2.3 2.9-2.3.2-.1.6-.2 1-.1zm-13.7 2.4v1.5h-4.7v1.1c.3 1 .9 2 1.9 2 1.3 0 1.6-1 2.1-2.1h.6l.1.4c0 2-2.1 2.4-3 2.4-1.3 0-2.9-.9-2.9-2.3V98c.9-2.1 1.5-2.1 2.9-2.1 1.8-.1 3 .8 3 2.3zm-20.5-2.4c.6.1 1.9 1.8 1.9 2.5v1.3a18 18 0 01-4.5 0c-.1.1-.3 0-.3.3 0 1.3.4 3 2.1 3 .9 0 1.6-.9 1.8-2.1h.9l.1.4c0 1.9-2 2.4-3 2.4-1.4 0-3-1.3-3-2.6v-2.3c.8-2.8 1.3-2.8 3-2.8.2-.1.6-.2 1-.1zm-5.8 3.7c0 1.8-.6 3.9-2.9 3.9-.5 0-1.6-.4-1.9-.9l-.1 2.9h1v.5h-3v-.5h.9v-8.8h-.9V96h2l.1.8c.8-1.1 1.3-.9 2-.9 2.4-.1 2.8 1.9 2.8 3.6zm-16.4-.5c0 .4 0 .5-.3.8h-4.4l-.1.4c0 1 .4 2.8 2 2.8 1.4 0 1.5-1.6 2.1-2.1h.6l.1.3c0 1.6-1.8 2.5-3 2.5-1.4 0-3-1.3-3-2.6v-2.6c.6-2.3 1.6-2.4 3-2.4 2.3-.3 3 1.2 3 2.9zm-24.2-3.2v.6l-1.4.1c.3.8.5 1.5.5 1.9 0 4.2-4 1.8-4 3.5 0 1.6 4.7-.9 4.7 2 0 1.9-2.6 2-3.4 2-1.1 0-2.8-.1-2.8-1.5 0-.8.1-.5 1-1.3-.4-.4-.5-.8-.5-1 0-.6.4-1 1-1.1-.1-.3-.5-.4-.6-.6-.5-.6-.4-1.4-.4-1.9 0-1.8.5-2.8 2.6-2.8.2.1 2.1.3 3.3.1zM20 99c0 .8-.4.8-1.3.8l-3.4-.1-.1.6c0 1.1.5 2.6 2 2.6 1 0 1.6-.6 1.9-2.1h.9v.8a3 3 0 01-2.9 2c-1.4 0-3-1-3-2.5v-2.8c.8-2.3 1.3-2.4 2.9-2.4 2-.1 3 1.2 3 3.1zm152.5-3.3l1.5.1c-.1 0-.3.2-1.5-.1zm-.5-.2c-.1.1-.3 0-.3-.1.1-.1.2-.1.3.1zM56.5 97.1l-1.8.5.6-3 1.2 2.5zm-17.9.6c0 2.1-1.8 4.2-3.8 4.2l-.8-.1c-.4-.1-1.5-1.3-1.5-1.9v-2.8c0-.1 1-2.5 1.9-2.5 2.2 0 4.2.7 4.2 3.1zM92.3 96h1.5v.5l-1.5.1v5.5c.3.3.4.4.8.4.3 0 .6-.3.9-.1l-.5.8c-.2.2-.5.3-.9.3-.6 0-1.4-.6-1.4-1.1v-5.5l-.9-.1v-.5l.9-.1v-1.8h1.1V96zM2 94.2V96h1.6v.6H2.1L2 99.1c0 .5-.3 3.4.8 3.4.3 0 .6-.3.9-.4v.8c-.4.3-.9.5-1.3.5-1.1 0-1.5-.9-1.5-1.5v-5.2H.1V96h.8v-1.8H2zm62.3-1c.4 2.8 0 6.3 1.3 9.2 1.3-.5 3.4-1.9 4.9-1.9h.4l.1.4c0 .6-4 2.4-4.7 2.6l-1 .3c-1.5 0-1.6-5-1.6-5.2v-5.4h.6zm-14.1-.1v.8l-4.7 1c.3.1.6.4.6.8v4.8c.3 1.8.1 3.1.9 5.7h-.6a4 4 0 01-.6-1.1 19 19 0 01-.8-3.4v-4.9c.1-.5.3-1.1.3-1.9l-1.8.4H42l-.1-.4c0-.4 0-.5.4-.6.8-.4 1.9-.4 2.9-.6l3.4-.4h1.6zm-9.7 4.2c0 2.8-1.9 6.4-5.5 6.4-.4 0-1.5-.3-2-.6-.4-.1-1.9-2-1.9-2.6v-3.3A5.2 5.2 0 0136 93c2.6.1 4.5 2 4.5 4.3zm-9.8-3.9l-.4.4-4.3 1c0 .1.6 1.3.6 1.8v5.8c.1.9.1 1.6.4 2.4 0 .3.5.5.5.9 0 .3-.1.4-.5.4-.8 0-1.5-3.5-1.5-3.5v-6.9l.3-.6-.5-.1-2.6.4-.3-.1v-.8c1.9-.8 4.5-1.3 6.4-1.3.5-.1 1.3-.3 1.9.2zm107.8.2c0 .4-.4.8-.8.8-.6 0-.6-.5-.6-.8 0-.5.1-.6.5-.6.6-.1.9.3.9.6zm-55.2 0c0 .4-.5.8-.9.8-.6 0-.5-.8-.5-.8 0-.6.4-.6.6-.6.5-.1.8.3.8.6zm-75.9-.7l.1 3.8c.7-.9 1.3-.7 1.9-.7 1.5 0 2.3.9 2.3 2.5v4.2h.9s.1-.1.1.3c0 .3-.1.3-.3.4H9.6v-.6h1v-4.5c-.3-1.4-.9-1.4-1.5-1.4-.9 0-1.6.8-1.6 1.5v4.4l1 .1v.4h-3v-.5h.9v-9.2h-1v-.5h2zm81.6.2c-.5 1.8-1.9 0-1.9 1.6 0 .9.8 1.1 1.8 1.4v.4l-1.3.1v6l1.3.1v.4h-3.4v-.5h1v-6h-.9V96h.8c-.1-1.5-.3-3.1 1.5-3.1.4-.1.8-.1 1.1.2zm-33.8-1.5l2.8 5.3 1.6-.5h.6l.1.6-1.8.5s-.1-.1-.1.3c0 0 1.6 3.8 1.6 4.3l-.1 2.3h-.4c.1-1.9-1.6-4.4-2.6-6.2-.9.3-1.9.6-2.8 1.1-.3 1.8-.4 3.5-.8 5.3h-.4c-.3-.3-.4-.5-.4-.9l.3-2.5c0-.9-1.3-.1-1.3-1.1 0-.9 1-.8 1.5-1.8.9-1.5 1-3.4 1.5-5.2l.1-1.5h.6zm115-8.8v3.9H0v-3.9h170.2zm-135.7-20c3.9.5 4.5 2.5 4.5 5 0 2.6-.9 5-4.2 5h-4.7v-10h4.4zm-21.9-9.5V60h7.3v3.9h-7.3v6.8l-2.3.1c-.5 0-1.5 0-2-.4l.1-6.2s0-.3-.4-.3H1.3v-4h7v-6.7h4.3zm71-1c2.6-.1 3.1 2.3 3.1 3.8 0 2.4-1.1 4.7-3.5 4.7H80v-8.4h3.6zm-49.6 0c2.9.4 3.5 1.9 3.5 4 0 3.9-2.5 4.3-5.7 4.3l-1.6-.1v-8.2H34zm99.9-.2c3.4 1.6 3.8 7.7 3.8 10.4 0 3.6-.1 11.1-6.5 11.1-4.8 0-6-3.6-6.3-8.6v-5.4c.4-5.3 2.5-8 6.9-8 .3 0 1.4.1 2.1.5zm-48.4-1.7c3 .4 4.8 3.1 4.8 5.4 0 2.3-1 4.5-4.2 5.8.4.1.8.1 1.1.3 5 1.8 3.3 6.4 4 9.7.3 1.3 1.8 1.4 2.6 1.4.1 0 .4.1.4.5v1.4h-3.4c-3.4 0-3.3-4.7-3.4-6.2-.1-1.4-.1-2.9-.9-4.4-.4-.9-2.5-1.5-3.4-1.5h-3.5v10.1h2.6v2H74V73h2.4V52.2H74v-1.8h11.5zm-29.5 0v1.8h-2.4l-.1 16.1c.4 4 2.6 5.2 5.3 5.2 2.5 0 4.5-1.1 5.2-4.8V52.3h-2.6v-1.9h7.3v1.8h-2.1l-.1 15.2c-.3 6.2-3.5 7.9-7.9 7.9-2.3 0-4.9-.3-6.7-2.8-.5-.8-1.3-3.3-1.3-4.3v-16h-2.4v-1.9H56zm98.7-.1c3.5 6.7 7.7 13.7 10.9 20.6V52.2h-2.9v-1.9h7.2v1.9h-2.1v22.6h-3.3L152 52.2V73h2.8v1.9h-7.5V73h2.6V52.2h-2.6v-1.9h7.4zm-38.9 0v7.9h-2.6V52h-4.9c.5 20.6.1 20.8.3 20.9h3.4v1.9h-10.2v-1.9h3.4V52.1h-5c.3.1.1.4 0 6.2h-2.5v-7.9h18.1zm-81.1 0c4.4.8 6.2 2 6.2 5.7 0 2.1-.5 4.3-4 5.4 4.4.6 5.7 3.6 5.7 6.7 0 5-3.6 6.8-7.5 6.8H24.4V73h2.5V52.2h-2.5v-1.9h10.3zm106.5 12.5c0 6.2-2.3 12.7-10.2 12.7-3.4 0-7.3-1.1-8.9-5.9-.4-1.1-.8-3.3-.8-3.5v-6c1-7.4 4.2-10.2 9.8-10.2 8.9-.1 10.1 6.9 10.1 12.9zm-11.3-35.5c0 3.9.1 12.8-7.3 12.8-4 0-5.8-4.3-6.3-7.8L116 30v-5.3c.6-5.3 1.9-9.8 7.2-9.8 6.7.1 6.7 9.6 6.7 12.4zm-105.8.2c0 3.6-.4 12.6-7.2 12.6-3.9 0-6-3-6.9-7.4l-.4-2.6v-5.3c.6-5.7 2.4-9.8 7.7-9.8 6.7 0 6.8 9.8 6.8 12.5zm17.5-14.7V33c.5 3.8 1.9 6.4 5.5 6.4 6.5 0 6.7-8.7 7-12.5V15.8h-4.2v-3h9.3v26.3h3.9v3.3h-8.6l-.4-4.3c-2.8 4-5.7 4.9-8.7 4.9-2.4 0-5.7-.5-7.4-3.5-.4-.6-.8-1.4-1-2.1a38 38 0 01-.9-5.3V16h-4.2v-3.1h9.7zm124.8 8.6l.1 17.9h3.8c.1.3-.1 2.9-.1 3.1h-12.7v-3.1h4V22c-.5-4-1.6-6.3-5.4-6.3-1.3 0-2.3.3-3.4 1-2.4 1.4-3.8 7.8-3.8 10.4V39h4v3.3h-13.2V39h4.2V15.7h-4.2v-3.1h9.2l.1 5c2.4-4.7 5.9-5.3 9.2-5.3 5.2 0 7.4 2.3 8.2 9.1zm-77-.9l-.1 2.9h-4.8v-4c-.3-2-1.4-3.3-3-3.3-4.9 0-5.2 9.1-5.2 10.9v12.1h4.5v3.3H67.2v-3.3h4.2V15.7h-4.2v-3.1h9.1l.1 3.6c2.4-3.3 3.5-3.9 6.3-3.9 5.5 0 6.7 4.3 6.7 8.2zm36.2-8.6c8.3 1.1 9.9 9.4 9.9 15.1 0 7.8-2.3 16.2-13 16.2-2.8 0-6.7-1.1-9.1-3.9l-1.9-3a17 17 0 01-1.1-4.8V25c1-10.4 6-13.1 12.6-13.1h2.6zm46.9-.3c0 .4-.5.8-.8.8h-1.1v-1.3l.5-.1c.6-.1 1.4-.1 1.4.6zm-.5-1.2c1 .3 1.3.4 1.1 1.1-.4 1.8-.3.5-.9 1.3l1 1.9h-.8l-1-1.9h-1a6 6 0 010 1.9h-.6v-4.3h2.2zm2.6 2.2c0 1.9-1.6 3.3-3.1 3.3-2.1 0-3.1-1.6-3.1-3.3a3 3 0 013.1-3.1c2.1-.1 3.1 1.8 3.1 3.1zm.3.2a3.6 3.6 0 01-3.5 3.5c-2.3 0-3.6-1.9-3.6-3.8 0-2.3 1.8-3.6 3.6-3.6 2 0 3.7 1.5 3.5 3.9zm-74.5-8.3v8h6.2l.4 2.9-.3.3-6.2-.1-.3.5-.2 17.7c0 1.8-.1 5.4 2.9 5.4 1 0 2.8-1.3 3.8-2.3l.3.1-.1 3.5a8.2 8.2 0 01-6 2.1c-2.6 0-4.8-.6-5.5-4.5l-.3-1.9V15.7H92v-3.1h3.3v-8h5.1zM9.6 0l.1 16c1.8-3.1 5.7-4.2 8.3-4.2 9.8 0 11.7 8.9 11.7 15.3 0 7.3-1.9 16.1-12.5 16.1-2.9 0-5-1-7.8-4.2l-.1 3.3H4.4V3H.5V0h9.1z"
    class="st0"
  />
  <path
    d="M173.7 93.6c0 .2-.3.4-.4.4h-.6v-.7l.3-.1c.3.1.7.1.7.4zm-.2-.6c.5.1.7.2.6.6-.2.9-.1.3-.5.7l.5 1h-.4l-.5-1h-.5v1h-.3V93h1.1zm1.3 1.2c0 1-.9 1.7-1.7 1.7-1.1 0-1.7-.9-1.7-1.7 0-1 .8-1.7 1.7-1.7 1.2 0 1.7 1 1.7 1.7zm.2.1c-.1 1.1-.9 1.8-1.9 1.8-1.2 0-1.9-1-1.9-2 0-1.2.9-1.9 1.9-1.9 1.1 0 2 .8 1.9 2.1z"
    class="st0"
  />
</svg>
