<svg xmlns="http://www.w3.org/2000/svg" viewBox="0 0 175 44.1">
  <style>
    .st0 {
      fill: #3d4d5b;
    }
    .st1 {
      fill: #b0afaf;
    }
  </style>
  <path
    d="M23.3 17.7c-.3 3-1.5 5.4-3.5 7.2-2 1.8-4.6 2.7-7.7 2.7-3.7 0-6.6-1.2-8.8-3.7S0 18.1 0 13.9C0 9.6 1.1 6.3 3.2 3.8 5.4 1.3 8.3 0 12 0c3.1 0 5.7.8 7.7 2.5s3.2 3.9 3.6 6.8h-5.5A5 5 0 0016 6c-1-.8-2.4-1.2-4-1.2-2 0-3.6.8-4.8 2.4S5.6 11 5.6 13.9c0 2.8.6 5 1.7 6.6a5.6 5.6 0 004.7 2.3 6 6 0 004-1.4 6 6 0 001.8-3.7h5.5zM29.3 27.3a6 6 0 01-4.3-1.5 5.2 5.2 0 01-1.6-4c0-1.8.5-3.2 1.5-4.2a7 7 0 014.3-2l3.4-.5c.9-.1 1.6-.3 2.2-.6l.6-.6c.1-.3.2-.6.1-.9-.1-.5-.3-1-.8-1.3-.7-.5-1.5-.7-2.6-.7-1 0-1.7.2-2.3.7-.5.5-.8 1.1-.9 2H24c.1-2.3.9-4 2.3-5.1C27.8 7.5 29.9 7 32.7 7c2.4 0 4.3.5 5.7 1.5 1.4 1 2.1 2.4 2.1 4.2v10.8l.2 1.8c.1.4.4.6.9.8v.7H36c-.2-.8-.4-1.5-.4-2.3a8 8 0 01-6.3 2.8zm6.2-7.6v-2.2c-.6.3-1.4.6-2.3.8l-1.9.3c-.9.2-1.6.5-2 .9-.5.4-.7 1-.7 1.7 0 .8.2 1.4.6 1.8.4.4 1 .7 1.7.7a5 5 0 003.9-1.7l.5-1 .2-1.3zM42.5 26.8V7.5h4.9V11l.6-1.1c1.2-2 2.7-2.9 4.6-2.9h1.2v5.2l-1.5-.1c-1.6 0-2.7.4-3.5 1.2-.8.8-1.1 1.9-1.1 3.5v10h-5.2zM63.1 27.3c-3 0-5.4-.9-7.2-2.7a10 10 0 01-2.7-7.3c0-3.1.9-5.6 2.7-7.5A9.4 9.4 0 0163.1 7c3 0 5.4.9 7.2 2.8s2.7 4.4 2.7 7.5c0 3.1-.9 5.5-2.7 7.3a9.4 9.4 0 01-7.2 2.7zm0-4.2c1.5 0 2.7-.5 3.5-1.5a7 7 0 001.2-4.4 7 7 0 00-1.2-4.4c-.8-1-1.9-1.5-3.5-1.5-1.5 0-2.7.5-3.5 1.5a7 7 0 00-1.2 4.4 7 7 0 001.2 4.4c.9 1 2 1.5 3.5 1.5zM74.4 26.8V.7h5.1v26.1h-5.1zM82.2.5h5.2v4.7h-5.2V.5zm0 26.3V7.5h5.2v19.3h-5.2zM89.8 26.8V7.5h4.8v2.9l.7-1a6.6 6.6 0 015.5-2.4c2 0 3.6.6 4.8 1.8 1.2 1.2 1.7 2.9 1.7 5v13h-5.2V14.7c0-1.2-.3-2.1-.8-2.6-.5-.6-1.3-.9-2.4-.9-1.3 0-2.4.4-3.1 1.2-.7.8-1.1 2-1.1 3.5v10.9h-4.9zM114.3 27.3a6 6 0 01-4.3-1.5 5.2 5.2 0 01-1.6-4c0-1.8.5-3.2 1.5-4.2a7 7 0 014.3-2l3.4-.5c.9-.1 1.6-.3 2.2-.6l.6-.6c.1-.3.2-.6.1-.9-.1-.5-.3-1-.8-1.3-.6-.4-1.4-.6-2.5-.6-1 0-1.7.2-2.3.7-.5.5-.8 1.1-.9 2h-5c.1-2.3.9-4 2.3-5.1a10 10 0 016.3-1.7c2.4 0 4.3.5 5.7 1.5 1.4 1 2.1 2.4 2.1 4.2v10.8l.2 1.8c.1.4.4.6.9.8v.7h-5.6c-.2-.8-.4-1.5-.4-2.3a7.7 7.7 0 01-6.2 2.8zm6.1-7.6v-2.2c-.6.3-1.4.6-2.3.8l-1.9.3c-.9.2-1.6.5-2 .9-.5.4-.7 1-.7 1.7 0 .8.2 1.4.6 1.8.4.4 1 .7 1.7.7a5 5 0 003.9-1.7l.5-1 .2-1.3z"
    class="st0"
  />
  <path
    d="M130.1 26.9V8.3h4.6v2.8l.6-.9c1.2-1.5 3-2.3 5.3-2.3 2 0 3.5.6 4.6 1.7a6.9 6.9 0 011.7 4.8v12.5H142V15.3c0-1.1-.2-2-.7-2.5-.5-.6-1.3-.8-2.3-.8-1.3 0-2.3.4-3 1.2-.7.8-1 1.9-1 3.4v10.5h-4.9zM156.6 27.4c-2.8 0-5-.9-6.5-2.6a11 11 0 01-2.3-7.4c0-3 .8-5.3 2.3-7a8.4 8.4 0 016.5-2.5c2.8 0 5 .9 6.5 2.6 1.5 1.7 2.3 4.2 2.3 7.3l-.1 1.1h-12.7c.1 1.5.4 2.6 1 3.3.7.9 1.8 1.4 3.4 1.4.7 0 1.4-.2 2.1-.6.6-.4 1-.9 1.1-1.5h5a6.8 6.8 0 01-2.9 4.4 10 10 0 01-5.7 1.5zm3.7-11.7c-.1-1.1-.4-2-.9-2.6-.6-.8-1.6-1.2-2.9-1.2-1.3 0-2.2.5-2.9 1.5-.4.6-.7 1.4-.9 2.4h7.6z"
    class="st1"
  />
  <path
    d="M175 27l-3 .1c-1.7 0-3-.3-3.7-.9-.8-.6-1.1-1.6-1.1-3V11.8h-2.6V8.3h2.6v-5h4.9v5h3v3.4h-3v10.6c0 .4.1.7.4.9l1.6.2h1V27z"
    class="st1"
  />
  <path
    fill="#777778"
    fill-rule="evenodd"
    d="M2 39.6s12.5-4.4 20.4-2.9c7.8 1.6 15.2 6.6 24.8 7.3 10.2.8 23.3-1.8 28.2-11.2.8-1.5-10.7 10.2-28.5 6.8-1.3-.2-14.1-6.4-22.7-7.1C9.6 31.5 2 39.6 2 39.6z"
    clip-rule="evenodd"
  />
</svg>
