<svg xmlns="http://www.w3.org/2000/svg" viewBox="0 0 175.6 86.8">
  <style>
    .st0 {
      fill: none;
      stroke: #000;
      stroke-width: 1.196;
    }
    .st1 {
      fill: #ea2127;
    }
  </style>
  <path
    d="M19.2 20.8l.1.2a6 6 0 00-2.6 1.6c-.6.6-.9 1.3-.9 2 0 .6.2 1 .6 1.4.4.4.9.6 1.5.6.9 0 1.7-.3 2.6-.9.9-.6 1.6-1.4 2.1-2.4s.8-1.9.8-2.9-.2-1.8-.7-2.6a4.8 4.8 0 00-2-1.7c-.9-.4-1.8-.6-2.9-.6a15.6 15.6 0 00-6.4 1.9 20.5 20.5 0 00-6.6 6c-.9 1.4-1.7 2.9-2.2 4.5-.4 1.6-.6 3.2-.6 4.8 0 3.3 1.1 5.8 3.3 7.5a7.9 7.9 0 008.3 1.1 9.8 9.8 0 003-2 11.4 11.4 0 003.6-6.4h.4a13.6 13.6 0 01-6.4 8.9c-1.6.9-3.3 1.3-5.1 1.3-2.4 0-4.4-.8-6-2.5a9 9 0 01-2.4-6.4 18.6 18.6 0 012.5-9.1 25 25 0 016.8-7.4 16.5 16.5 0 018.6-3c1.1 0 2.1.2 2.9.6.9.4 1.5 1 2 1.7s.7 1.6.7 2.5a7 7 0 01-1 3.6 7.9 7.9 0 01-2.5 2.9 5 5 0 01-3.2 1.1c-.7 0-1.3-.2-1.8-.7-.5-.5-.8-1-.8-1.6 0-.6.2-1.2.6-1.8a6 6 0 011.6-1.6l2.1-.6"
  />
  <path
    d="M19.2 20.8l.1.2a6 6 0 00-2.6 1.6c-.6.6-.9 1.3-.9 2 0 .6.2 1 .6 1.4.4.4.9.6 1.5.6.9 0 1.7-.3 2.6-.9.9-.6 1.6-1.4 2.1-2.4s.8-1.9.8-2.9-.2-1.8-.7-2.6a4.8 4.8 0 00-2-1.7c-.9-.4-1.8-.6-2.9-.6a15.6 15.6 0 00-6.4 1.9 20.5 20.5 0 00-6.6 6c-.9 1.4-1.7 2.9-2.2 4.5-.4 1.6-.6 3.2-.6 4.8 0 3.3 1.1 5.8 3.3 7.5a7.9 7.9 0 008.3 1.1 9.8 9.8 0 003-2 11.4 11.4 0 003.6-6.4h.4a13.6 13.6 0 01-6.4 8.9c-1.6.9-3.3 1.3-5.1 1.3-2.4 0-4.4-.8-6-2.5a9 9 0 01-2.4-6.4 18.6 18.6 0 012.5-9.1 25 25 0 016.8-7.4 16.5 16.5 0 018.6-3c1.1 0 2.1.2 2.9.6.9.4 1.5 1 2 1.7s.7 1.6.7 2.5a7 7 0 01-1 3.6 7.9 7.9 0 01-2.5 2.9 5 5 0 01-3.2 1.1c-.7 0-1.3-.2-1.8-.7-.5-.5-.8-1-.8-1.6 0-.6.2-1.2.6-1.8a6 6 0 011.6-1.6l2.1-.6z"
    class="st0"
  />
  <path
    d="M30.8 34.2l-.1-.2c1-.6 1.5-1.2 1.5-2 0-.5-.2-.9-.6-1.1-.4-.3-.9-.4-1.6-.4-1 0-2.1.3-3.3 1a9.2 9.2 0 00-3.1 2.4c-.6.7-1.1 1.3-1.4 2-.4.7-.5 1.2-.5 1.7 0 .4.1.8.4 1.1.3.3.6.4 1.1.4.8 0 1.7-.5 2.9-1.5 1.1-1 2.1-2.3 3-3.8l.5-.2.5.3a8 8 0 00-1.4 4.1c0 .4.1.7.3.9.2.2.4.3.8.3.7 0 1.9-.7 3.4-2.1 1.1-1 2.1-1.9 2.9-2.9l.5-.5.6-.6.2.2-1.1 1.3a42.4 42.4 0 01-5.5 4.9c-.7.4-1.3.6-1.8.6s-.9-.2-1.1-.5c-.3-.4-.4-.8-.4-1.4l.2-1.7-.3.3c-2.1 2.2-3.9 3.4-5.3 3.4-.5 0-.9-.2-1.2-.5-.3-.3-.5-.8-.5-1.3 0-.6.2-1.2.5-2l1.5-2.2a13.4 13.4 0 015.2-3.6c1.1-.4 2.1-.6 2.9-.6a4 4 0 012 .4c.5.3.7.7.7 1.3-.1 1-.9 1.8-2.4 2.5"
  />
  <path
    d="M30.8 34.2l-.1-.2c1-.6 1.5-1.2 1.5-2 0-.5-.2-.9-.6-1.1-.4-.3-.9-.4-1.6-.4-1 0-2.1.3-3.3 1a9.2 9.2 0 00-3.1 2.4c-.6.7-1.1 1.3-1.4 2-.4.7-.5 1.2-.5 1.7 0 .4.1.8.4 1.1.3.3.6.4 1.1.4.8 0 1.7-.5 2.9-1.5 1.1-1 2.1-2.3 3-3.8l.5-.2.5.3a8 8 0 00-1.4 4.1c0 .4.1.7.3.9.2.2.4.3.8.3.7 0 1.9-.7 3.4-2.1 1.1-1 2.1-1.9 2.9-2.9l.5-.5.6-.6.2.2-1.1 1.3a42.4 42.4 0 01-5.5 4.9c-.7.4-1.3.6-1.8.6s-.9-.2-1.1-.5c-.3-.4-.4-.8-.4-1.4l.2-1.7-.3.3c-2.1 2.2-3.9 3.4-5.3 3.4-.5 0-.9-.2-1.2-.5-.3-.3-.5-.8-.5-1.3 0-.6.2-1.2.5-2l1.5-2.2a13.4 13.4 0 015.2-3.6c1.1-.4 2.1-.6 2.9-.6a4 4 0 012 .4c.5.3.7.7.7 1.3-.1 1-.9 1.8-2.4 2.5z"
    class="st0"
  />
  <path
    d="M37.9 32.6l.5.1c.6 0 1.4-.2 2.1-.6l1.1-.4.3.1.1.3-.2.4-.7.9c-1.3 1.7-2 3.1-2 4.2 0 .5.2.9.5 1.3.3.3.7.5 1.2.5.6 0 1.3-.2 2-.7.7-.4 1.6-1.2 2.7-2.2.8-.8 1.7-1.6 2.4-2.5l.6-.6.2-.2.2-.1.2.2-.4.5c-2.1 2.3-3.7 4-5 4.9a5.6 5.6 0 01-3.4 1.4c-.7 0-1.2-.2-1.6-.6-.4-.4-.6-1-.6-1.6 0-1.3.7-2.9 2.2-4.7l.2-.3-.2-.1a1 1 0 00-.5.1l-1.2.1-.9-.2v.1l-.3.4-.5.5-.2-.1.1-.2.1-.1.1-.1.3-.4.2-.3-.2-.7c0-.5.2-.9.5-1.4.3-.4.7-.6 1-.6.3 0 .5.2.5.5 0 .4-.3 1-1 1.8l-.4.4"
  />
  <path
    d="M37.9 32.6l.5.1c.6 0 1.4-.2 2.1-.6l1.1-.4.3.1.1.3-.2.4-.7.9c-1.3 1.7-2 3.1-2 4.2 0 .5.2.9.5 1.3.3.3.7.5 1.2.5.6 0 1.3-.2 2-.7.7-.4 1.6-1.2 2.7-2.2.8-.8 1.7-1.6 2.4-2.5l.6-.6.2-.2.2-.1.2.2-.4.5c-2.1 2.3-3.7 4-5 4.9a5.6 5.6 0 01-3.4 1.4c-.7 0-1.2-.2-1.6-.6-.4-.4-.6-1-.6-1.6 0-1.3.7-2.9 2.2-4.7l.2-.3-.2-.1a1 1 0 00-.5.1l-1.2.1-.9-.2v.1l-.3.4-.5.5-.2-.1.1-.2.1-.1.1-.1.3-.4.2-.3-.2-.7c0-.5.2-.9.5-1.4.3-.4.7-.6 1-.6.3 0 .5.2.5.5 0 .4-.3 1-1 1.8l-.4.4z"
    class="st0"
  />
  <path
    d="M53.4 34.6l-.1-.1-.2-.1c-.6-.3-1-.5-1-.8 0-.2.1-.3.4-.3.4 0 .8.3 1.2 1a4.5 4.5 0 004.9-1.1l.3-.2.2.2-.5.6c-.9.8-1.9 1.2-3.1 1.2l-1.5-.2.1.9c0 .8-.2 1.6-.7 2.4-.5.8-1 1.4-1.7 1.9s-1.4.7-2.1.7c-.8 0-1.5-.3-2-.9-.5-.6-.8-1.3-.8-2.2 0-1 .3-2 .9-3 .6-1 1.4-1.8 2.3-2.5.9-.6 1.9-1 2.8-1l1 .1.4.3-.3.4-.3.2-.2-.1c-.4-.2-.8-.4-1.1-.4a4 4 0 00-3 1.5c-.9 1-1.3 2.1-1.3 3.4 0 .8.2 1.5.7 2 .5.5 1 .8 1.7.8.9 0 1.7-.4 2.4-1.2a4 4 0 001-2.7c-.3-.1-.3-.4-.4-.8"
  />
  <path
    d="M53.4 34.6l-.1-.1-.2-.1c-.6-.3-1-.5-1-.8 0-.2.1-.3.4-.3.4 0 .8.3 1.2 1a4.5 4.5 0 004.9-1.1l.3-.2.2.2-.5.6c-.9.8-1.9 1.2-3.1 1.2l-1.5-.2.1.9c0 .8-.2 1.6-.7 2.4-.5.8-1 1.4-1.7 1.9s-1.4.7-2.1.7c-.8 0-1.5-.3-2-.9-.5-.6-.8-1.3-.8-2.2 0-1 .3-2 .9-3 .6-1 1.4-1.8 2.3-2.5.9-.6 1.9-1 2.8-1l1 .1.4.3-.3.4-.3.2-.2-.1c-.4-.2-.8-.4-1.1-.4a4 4 0 00-3 1.5c-.9 1-1.3 2.1-1.3 3.4 0 .8.2 1.5.7 2 .5.5 1 .8 1.7.8.9 0 1.7-.4 2.4-1.2a4 4 0 001-2.7c-.3-.1-.3-.4-.4-.8z"
    class="st0"
  />
  <path
    d="M59.1 32.6l-.1 1.8c0 1.6.2 2.8.6 3.7.4.9 1 1.3 1.7 1.3 1.4 0 3.2-1.2 5.5-3.6l2.2-2.3.4-.3.2.2-.7.9c-2 2.2-3.6 3.8-4.9 4.7-1.3.9-2.4 1.4-3.4 1.4-.9 0-1.6-.4-2.1-1.2-.5-.8-.7-2-.7-3.5a31.7 31.7 0 016.1-16.1c.7-.8 1.3-1.2 1.8-1.2.2 0 .5.1.6.3.2.2.2.5.2.8 0 1.5-1.1 4-3.4 7.6l-1.9 2.7-1 1.3-.8 1c.1.1-.1.3-.3.5m.2-.8l1.6-2.1 1.7-2.4a72.2 72.2 0 002.3-4.2 9.5 9.5 0 001.1-3.3l-.2-.5-.4-.2c-.5 0-1.1.6-1.8 1.7a25.2 25.2 0 00-3.2 6.8l-.7 2.2-.4 2z"
  />
  <path
    d="M59.1 32.6l-.1 1.8c0 1.6.2 2.8.6 3.7.4.9 1 1.3 1.7 1.3 1.4 0 3.2-1.2 5.5-3.6l2.2-2.3.4-.3.2.2-.7.9c-2 2.2-3.6 3.8-4.9 4.7-1.3.9-2.4 1.4-3.4 1.4-.9 0-1.6-.4-2.1-1.2-.5-.8-.7-2-.7-3.5a31.7 31.7 0 016.1-16.1c.7-.8 1.3-1.2 1.8-1.2.2 0 .5.1.6.3.2.2.2.5.2.8 0 1.5-1.1 4-3.4 7.6l-1.9 2.7-1 1.3-.8 1c.1.1-.1.3-.3.5zm.2-.8l1.6-2.1 1.7-2.4a72.2 72.2 0 002.3-4.2 9.5 9.5 0 001.1-3.3l-.2-.5-.4-.2c-.5 0-1.1.6-1.8 1.7a25.2 25.2 0 00-3.2 6.8l-.7 2.2-.4 2z"
    class="st0"
  />
  <path
    d="M71.3 31.9l-.2.3-2 3.5a6 6 0 00-.6 2.4c0 .7.3 1 .8 1s1.1-.2 1.9-.7a34.4 34.4 0 005.9-5.3l.2.2-1 1.2a21 21 0 01-3.1 2.9 17 17 0 01-2.7 1.9c-.8.4-1.5.7-2 .7-.4 0-.8-.1-1-.4-.3-.3-.4-.7-.4-1.1 0-1.2.5-2.7 1.6-4.6l1.1-1.7 1.5-.3m3.3-4.7l-.2.1-.6.5c-.7.6-1.4 1.1-1.9 1.7l-.1.1-.3-.3c0-.2.3-.6.8-1.2.7-.7 1.2-1 1.7-1l.6.1z"
  />
  <path
    d="M71.3 31.9l-.2.3-2 3.5a6 6 0 00-.6 2.4c0 .7.3 1 .8 1s1.1-.2 1.9-.7a34.4 34.4 0 005.9-5.3l.2.2-1 1.2a21 21 0 01-3.1 2.9 17 17 0 01-2.7 1.9c-.8.4-1.5.7-2 .7-.4 0-.8-.1-1-.4-.3-.3-.4-.7-.4-1.1 0-1.2.5-2.7 1.6-4.6l1.1-1.7 1.5-.3zm3.3-4.7l-.2.1-.6.5c-.7.6-1.4 1.1-1.9 1.7l-.1.1-.3-.3c0-.2.3-.6.8-1.2.7-.7 1.2-1 1.7-1l.6.1z"
    class="st0"
  />
  <path
    d="M79.4 31.6a52 52 0 00-3 5.9l.2.2.8-.5a54.6 54.6 0 015-3.4l1.7-.9 1.1-.3c.5 0 .7.3.7.8l-.3 1.7-.4 2.6c0 .4.1.6.3.9.2.2.4.3.7.3 1 0 2.6-1.2 4.9-3.5l1.8-1.9.4-.3.2.2-.6.8-1.2 1.3a19.1 19.1 0 01-3.5 3.2c-1 .7-1.9 1-2.6 1-.4 0-.8-.2-1-.5-.3-.3-.4-.7-.4-1.2l.1-1 .5-2.3.1-.7c0-.4-.2-.6-.5-.6a29.1 29.1 0 00-8.1 5.6l-.9.7c-.2 0-.3-.2-.3-.6a23.5 23.5 0 013.1-7c.1-.2.6-.4 1.2-.5"
  />
  <path
    d="M79.4 31.6a52 52 0 00-3 5.9l.2.2.8-.5a54.6 54.6 0 015-3.4l1.7-.9 1.1-.3c.5 0 .7.3.7.8l-.3 1.7-.4 2.6c0 .4.1.6.3.9.2.2.4.3.7.3 1 0 2.6-1.2 4.9-3.5l1.8-1.9.4-.3.2.2-.6.8-1.2 1.3a19.1 19.1 0 01-3.5 3.2c-1 .7-1.9 1-2.6 1-.4 0-.8-.2-1-.5-.3-.3-.4-.7-.4-1.2l.1-1 .5-2.3.1-.7c0-.4-.2-.6-.5-.6a29.1 29.1 0 00-8.1 5.6l-.9.7c-.2 0-.3-.2-.3-.6a23.5 23.5 0 013.1-7c.1-.2.6-.4 1.2-.5z"
    class="st0"
  />
  <path
    d="M100.4 34.2l-.1-.2c1-.6 1.5-1.2 1.5-2 0-.5-.2-.9-.6-1.1-.4-.3-.9-.4-1.6-.4-1 0-2.1.3-3.3 1a9.2 9.2 0 00-3.1 2.4c-.6.7-1.1 1.3-1.4 2-.4.7-.5 1.2-.5 1.7 0 .4.1.8.4 1.1.3.3.6.4 1.1.4.8 0 1.7-.5 2.9-1.5 1.1-1 2.1-2.3 3-3.8l.5-.2.5.3a8 8 0 00-1.4 4.1c0 .4.1.7.3.9.2.2.4.3.8.3.7 0 1.9-.7 3.4-2.1 1.1-1 2.1-1.9 2.9-2.9l.5-.5.6-.6.2.2-1.1 1.3a42.4 42.4 0 01-5.5 4.9c-.7.4-1.3.6-1.8.6s-.9-.2-1.1-.5c-.3-.4-.4-.8-.4-1.4l.2-1.7-.3.3c-2.1 2.2-3.9 3.4-5.3 3.4-.5 0-.9-.2-1.2-.5-.3-.3-.5-.8-.5-1.3 0-.6.2-1.2.5-2l1.5-2.2a13.4 13.4 0 015.2-3.6c1.1-.4 2.1-.6 2.9-.6.9 0 1.5.1 2 .4.5.3.7.7.7 1.3-.1 1-.9 1.8-2.4 2.5"
  />
  <path
    d="M100.4 34.2l-.1-.2c1-.6 1.5-1.2 1.5-2 0-.5-.2-.9-.6-1.1-.4-.3-.9-.4-1.6-.4-1 0-2.1.3-3.3 1a9.2 9.2 0 00-3.1 2.4c-.6.7-1.1 1.3-1.4 2-.4.7-.5 1.2-.5 1.7 0 .4.1.8.4 1.1.3.3.6.4 1.1.4.8 0 1.7-.5 2.9-1.5 1.1-1 2.1-2.3 3-3.8l.5-.2.5.3a8 8 0 00-1.4 4.1c0 .4.1.7.3.9.2.2.4.3.8.3.7 0 1.9-.7 3.4-2.1 1.1-1 2.1-1.9 2.9-2.9l.5-.5.6-.6.2.2-1.1 1.3a42.4 42.4 0 01-5.5 4.9c-.7.4-1.3.6-1.8.6s-.9-.2-1.1-.5c-.3-.4-.4-.8-.4-1.4l.2-1.7-.3.3c-2.1 2.2-3.9 3.4-5.3 3.4-.5 0-.9-.2-1.2-.5-.3-.3-.5-.8-.5-1.3 0-.6.2-1.2.5-2l1.5-2.2a13.4 13.4 0 015.2-3.6c1.1-.4 2.1-.6 2.9-.6.9 0 1.5.1 2 .4.5.3.7.7.7 1.3-.1 1-.9 1.8-2.4 2.5z"
    class="st0"
  />
  <g>
    <path
      d="M116.8 17.5a9 9 0 015.4 1.7 28.7 28.7 0 016.5-.3 9.4 9.4 0 01-.8 3.2 9.5 9.5 0 00-4.2-.8 10 10 0 011.6 5.3c0 5.9-4.4 8-8.7 10-2.2 1-5.2 2.3-5.2 3.3 0 1.7 2.8 1.8 4.3 1.8 7.5 0 12.3 0 12.3 5.7 0 5.9-8 9.6-14.7 9.6-6.8 0-7.9-4.1-7.9-6.1 0-3.7 3.4-5.7 5.3-6.8-1-.5-3.1-1.8-3.1-4.5 1.3-1 2.6-1.5 4.6-2.3l1.9-.7v-.1c-2.2-.5-7.9-2-7.9-8.8a11 11 0 0110.6-10.2m-1 37.2c3.6 0 10.1-1.6 10.1-5.8a4 4 0 00-3.7-3.8h-6.1c-1.2 0-2.6 0-3.7-.4-2.1.7-4.7 2.4-4.7 4.9 0 2.4 3 5.1 8.1 5.1zm1.6-19.7c1.9-1 4.5-2.2 4.5-6.8 0-4.4-2.6-8.9-6.9-8.9-3.1 0-5.6 2.6-5.6 6.5 0 6 5.7 8.3 8 9.2zM131.4 39.6c1.2-.1 2.5-.3 2.8-.9a64.6 64.6 0 00-.2-16.2c-.3-.3-2.8-.2-2.8-.7 0-.4.3-.5.5-.6 2.3-.7 4.9-2.2 6.8-3.8l.5.1a87.7 87.7 0 00-.5 20.8c.2.7.6.8 2 .9l2 .2.4.8-11.8.3.3-.9m6.5-36.4c1.2 0 2.2 1 2.2 2.3 0 1.2-1 2.3-2.2 2.3-1.3 0-2.3-1-2.3-2.3.1-1.4 1.1-2.3 2.3-2.3zM152.4 16.8l.1 5 3.5-2 3.7-2.3.7.4c.8.4 1.9.9 1.9 2.5 0 1.7-1.6 2.6-3.2 2.8 0-1.4-.7-2-1.8-2-1.4 0-3.1 1.1-3.9 1.8-1 .8-1 .8-1 3.2l-.2 5.2c0 1.5.1 6 .6 7.1.3.7.8.7 1.7.7h.8l3.5-.1-.1 1.3-13.6.4.1-.9c3-.5 3.7-.7 3.7-11.9 0-4.3-.2-5.9-2.3-5.9l-1.9.2.1-1 7.6-4.5M170.7 26.6a75 75 0 00.4 11.2c.4 1.3 3.8 1.6 4.4 1.7v1l-7.7-.3-5.5.2v-.9c3-.5 4-1.6 4.3-4.2.3-1.9.8-13.2.8-21.1 0-3.1 0-7.7-.8-8.8-.4-.5-1-.7-2-.7l-1.3.1V4c3-1.3 5.8-2.5 7.9-4h.9c-.8 3.1-1.1 9.1-1.1 12.5l-.3 14.1"
      class="st1"
    />
  </g>
  <g>
    <path
      d="M31.4 64.5v-1.2h2.7V51.2c0-4.4 2.1-6.6 6.2-6.6 1.1 0 2.3.4 2.8.6l-.5 1.3s-1.2-.5-2.2-.5c-2.9 0-4.5 1.7-4.5 5.3v12.1H39v1.2h-3.2v22.3h-1.7V64.5h-2.7M45.7 71.6c-2.8 0-3.6-1.8-3.6-4.4v-7.7h1.7v7.7c0 2.6 1 2.8 2.2 2.8 1.4 0 3.1-.6 4.2-1.6v-8.9h1.7v11.8h-1.7v-1.4c-1.3 1-3 1.7-4.5 1.7M64.7 59.1l.7.1V61l-.9-.1c-1.9 0-3.3.9-4.9 3v7.3h-1.7V59.5h1.7V62c1.6-1.8 2.9-2.9 5.1-2.9M75 59.1c2.8 0 3.5 1.8 3.5 4.4v7.7h-1.7v-7.7c0-2.6-.9-2.8-2.2-2.8-1.4 0-3.1.6-4.2 1.6v8.9h-1.7V59.5h1.7v1.4c1.4-1 3.1-1.8 4.6-1.8M85.2 49.6c.7 0 1.3.5 1.3 1.2s-.6 1.2-1.3 1.2c-.7 0-1.2-.5-1.2-1.2s.5-1.2 1.2-1.2m-.8 9.9h1.7v11.8h-1.7V59.5zM89.9 60.8v-1.3h2.3V47.9l1.7-.3v11.9h2.7v1.3h-2.7v8.4c0 .5.2.8.9.8l2.1-.2v1.4c-1.6.3-2.4.3-2.8.3-1.4 0-1.9-.6-1.9-2.2v-8.5h-2.3M104.3 71.6c-2.8 0-3.5-1.8-3.5-4.4v-7.7h1.7v7.7c0 2.6.9 2.8 2.2 2.8 1.4 0 3.1-.6 4.2-1.6v-8.9h1.7v11.8h-1.7v-1.4c-1.4 1-3 1.7-4.6 1.7M123.4 59.1l.7.1V61l-.9-.1c-1.8 0-3.3.9-4.9 3v7.3h-1.7V59.5h1.7V62c1.5-1.8 2.8-2.9 5.1-2.9M137.2 69.6a7.5 7.5 0 01-5 2c-3.6 0-6.5-2.7-6.5-6 0-3.6 2.9-6.4 6.8-6.4 2.5 0 4 1.2 4 3 0 2.5-3.3 4.3-8.8 4.8h-.1a5 5 0 004.7 3.2c1.3 0 3-.7 4-1.5l.9.9m-9.7-3.9c4.6-.7 7.4-2 7.4-3.5 0-1-.9-1.6-2.3-1.6a5 5 0 00-5.1 5.1z"
    />
  </g>
</svg>
