<svg xmlns="http://www.w3.org/2000/svg" viewBox="0 0 75 75">
  <title>AWS CloudFormation</title>
  <path fill="#cc2264" d="M0 0h75v75H0z" data-name="Pink Light BG" />
  <path
    fill="#fff"
    d="M62.5 35a8 8 0 01-7.5 8.1H40.5v-2H55c.1 0 5.5-.6 5.5-6.1 0-4.7-3.8-5.8-5.5-6.1a1 1 0 01-.8-1.1c0-2-.9-3.5-2.3-4a3.2 3.2 0 00-3.7 1.2 1 1 0 01-1 .4 1 1 0 01-.8-.7 10.8 10.8 0 00-2.4-4 9 9 0 00-10.1-2 9 9 0 00-4.4 4.4h-2.2a11.2 11.2 0 015.8-6.3 11 11 0 0112.3 2.4 12.3 12.3 0 012.4 3.5 5.2 5.2 0 014.7-.7 5.6 5.6 0 013.6 5.2c3.2.7 6.4 3.2 6.4 7.8zm-28-.9v-7h-20v30h20v-17h2v18a1 1 0 01-1 1h-22a1 1 0 01-1-1v-32a1 1 0 011-1h22a1 1 0 011 1v8zm13 2h-30v2h30zm-22-5h-8v2h8zm3 10h-11v2h11zm-4 5h-7v2h7zm7 0h-5v2h5zm22-10h-4v2h4z"
    data-name="Product Icon"
  />
</svg>
