<svg xmlns="http://www.w3.org/2000/svg" viewBox="0 0 75 75">
  <style>
    .st0 {
      fill: #444;
    }
    .st1 {
      fill: #777;
    }
  </style>
  <title>
    CouchDB
  </title>
  <path id="canvas_background" fill="none" d="M-1-1h77v77H-1z" />
  <g>
    <g id="Couchdb_copy">
      <path
        id="path11_1_"
        d="M15.7 56c-3 0-4.2 2-4.2 5 0 2.9 1.2 4.9 4.1 4.9 3 0 4.2-2 4.2-5s-1.4-5-4.2-5m0 8.7c-1.9 0-2.5-1.5-2.5-3.6 0-2.3.6-3.6 2.5-3.6 1.8 0 2.5 1.3 2.5 3.6 0 2-.7 3.6-2.5 3.6"
        class="st0"
      />
      <path
        id="path13_1_"
        d="M30 56h-1.6v7.7l-.7.4c-.5.2-1.1.4-2 .4-1.3 0-1.7-.8-1.7-3V56h-1.7v5.5c0 2.9 1 4.2 3 4.2a5 5 0 002.5-.6l.9-.6.2 1.2 1.2-.1V56z"
        class="st0"
      />
      <path
        id="path17_1_"
        d="M41.6 65.9h1.7v-7.4c.5-.1 1.7-1 2.9-1 1 0 1.6.6 1.6 3.2v5.2h1.8v-5.3c0-3.1-.8-4.3-3-4.3-1.3 0-2.2.3-3.2 1v-4.7l-1.7.2v13z"
        class="st0"
      />
      <path
        id="path15_1_"
        d="M32.5 61c0 3.6 2.1 4.9 4.1 4.9.8 0 1.5-.1 2-.3l.7-.3.1-1.2-.8.2a9 9 0 01-1.8.2c-1.6 0-2.4-1.1-2.5-3.6 0-2.6.9-3.6 2.6-3.6.7 0 1.4 0 1.8.2.2 0 .4 0 .7.2v-1.3l-.9-.3c-.5-.1-1.2-.3-2-.3-2 .2-4 1.4-4 5.2"
        class="st0"
      />
      <path
        id="path19_1_"
        d="M60.8 53.6a6.8 6.8 0 00-4.2-1.1h-3.9v13.3H57c4.7 0 5.8-2.7 5.8-7 0-2.8-.7-4.3-2-5.2m-4.3 10.9h-2V53.9H57c3 0 3.9 1.7 3.9 5 0 4.4-1 5.6-4.5 5.6"
        class="st0"
      />
      <path
        id="path25_1_"
        d="M55 69.3a2 2 0 00-1.5.7l-.2-.7h-.7V75h1v-4.2l.4-.2 1-.2h.4l.1-.8-.2-.1-.3-.1"
        class="st1"
      />
      <path
        id="path21_1_"
        d="M73 59c-.4-.1-.9-.3-1.5-.3.7-.1 2.4-.7 2.4-2.7 0-2.5-1.3-3.5-4.7-3.5h-3.7v13.3H70c3.1 0 4.6-1.2 4.6-4 0-1.4-.8-2.2-1.5-2.7m-5.8-5.2H69c2.3 0 3.3.4 3.3 2s-.7 2.4-2.9 2.4h-2.2v-4.4zm2.2 10.6h-2.2v-5.1h2.2c2.4 0 3.5.6 3.5 2.6s-1.2 2.5-3.5 2.5"
        class="st0"
      />
      <path
        id="path23_1_"
        d="M5.8 65.9c1 0 2-.1 2.7-.3l1-.3.1-1.4-1 .3c-.8.2-1.7.3-2.7.3-2.5 0-3.7-1.6-3.7-5.6 0-4.1 1.5-5.4 4-5.4a9 9 0 013.4.6l-.2-1.5-1-.3C7.8 52.2 7 52 6 52 2.7 52 .4 53.7.4 58.8c0 2.7.6 4.4 1.6 5.5 1 1.2 2.2 1.6 3.7 1.6"
        class="st0"
      />
      <path
        id="path27_1_"
        d="M60.6 71.2c0-1-.7-2-2-2s-2.4 1-2.4 3c0 1.8 1 2.7 2.6 2.7l1.2-.1.4-.1V74H60c-.3.2-.7.2-1.1.2-1 0-1.6-.5-1.6-1.8v-.2h3.3v-.4-.6m-.8.3h-2.4c0-.5.2-1 .5-1.1l.9-.3c.6 0 1 .4 1.2 1.3h-.1"
        class="st1"
      />
      <path id="polygon29_1_" d="M62 67.4v7.5h1v-7.6z" class="st1" />
      <path
        id="path31_1_"
        d="M68.8 74.2l-.1-.4v-2.1c0-1.7-.4-2.3-2.1-2.3-.5 0-1 0-1.2.2-.2 0-.3 0-.5.2l-.1.7.5-.2 1.2-.2c.9 0 1.2.2 1.2 1.3v.6h-1c-1.2 0-2.4.3-2.4 1.5 0 1 .6 1.6 1.6 1.5.7 0 1.2-.2 1.4-.4l.4-.4s0 .3.2.5c0 0 .3.3.6.3H69v-.6l-.3-.2m-1.1-.4l-.4.2-1.1.2c-.6 0-1-.3-1-.8 0-1 1-1 1.7-1h.8v1.4z"
        class="st1"
      />
      <path
        id="polygon33_1_"
        d="M73.5 74.9h1l-1.7-2.7 1.7-2.7h-1l-1.4 2.1-1.2-2.1h-1l1.7 2.7-1.7 2.7H71l1.1-2.1z"
        class="st1"
      />
      <path
        id="path35_1_"
        fill="#e42528"
        d="M60.6 32.4c0 3-1.6 4.6-4.6 4.6H19c-3-.1-4.6-1.6-4.6-4.6s1.6-4.6 4.6-4.6h37c3 0 4.6 1.5 4.6 4.6m-4.6 7H19c-3 0-4.6 1.6-4.6 4.6s1.6 4.6 4.6 4.6h37c3-.1 4.6-1.6 4.6-4.6 0-3.1-1.6-4.6-4.6-4.6m11.5-25.5c-3 0-4.6 1.6-4.6 4.6V44c0 3 1.6 4.6 4.6 4.6 4.5-.2 7-4.7 7-14V23.2c0-6.1-2.3-9.1-7-9.2m-60.2 0c-4.5 0-6.9 3-6.9 9.2v11.6c0 9.2 2.4 13.7 7 13.9 3-.1 4.5-1.6 4.5-4.6V18.5c.1-3.1-1.5-4.6-4.6-4.6m60.3-2.3C67.5 3.9 63.5.2 56 0H19C11.3 0 7.2 3.9 7.2 11.6c4.5 0 7 2.3 7 6.9 0 4.6 2.3 6.9 6.8 6.9h32.4c4.5-.1 7-2.3 7-7 .1-4.5 2.5-6.7 7-6.8z"
      />
    </g>
  </g>
</svg>
