<svg xmlns="http://www.w3.org/2000/svg" viewBox="0 0 175 134.2">
  <style>
    .st0 {
      fill: #142c61;
    }
  </style>
  <g id="g3074_1_" transform="matrix(1.25 0 0 -1.25 -539.7 182)">
    <g id="g4083_1_">
      <path
        id="path3240_1_"
        d="M440.3 64.6h-.8v-1.1c-.7-.4-1.2-.6-2-.6-2 0-3.6 1.9-3.6 4.3 0 2.5 1.4 4.2 3.5 4.2.8 0 1.3-.2 2.1-.8v-.9h.8v2.7h-.8v-.6c-.9.4-1.5.5-2.5.5a5 5 0 01-5.2-5.1c0-2.9 2.2-5.1 5.3-5.1 1.1 0 1.9.2 3.2.6v1.9"
        class="st0"
      />
      <path
        id="path3242_1_"
        d="M460.3 71.9h-3.4v-.6h1.2v-5.5c0-1.8-1-2.9-2.8-2.9-.4 0-.9.1-1.2.3-.8.4-1 1.1-1 2.6v5.5h1.1v.6h-4.1v-.6h1.1v-6c0-2 1.6-3.4 4-3.4.8 0 1.5.2 2.1.5 1.3.6 1.8 1.6 1.8 3.3v5.6h1.2v.6"
        class="st0"
      />
      <path
        id="path3244_1_"
        d="M475.7 62.8h-1.1v4.5l2.5 4.1h1.1v.6h-3.5v-.6h1.3l-2-3.2-2.1 3.2h1.1v.6h-4.1v-.6h.9l2.9-4.4v-4.1h-1.1v-.6h4.1v.5"
        class="st0"
      />
      <path
        id="path3246_1_"
        d="M496.1 62.8h-.6l-3.7 9.5h-.9l-3.8-9.5h-.9v-.6h3.1v.6H488l1 2.4h3.6l.9-2.4h-1v-.6h3.6v.6zm-6.8 3.3l1.5 3.7 1.4-3.7h-2.9"
        class="st0"
      />
      <path
        id="path3248_1_"
        d="M516.9 62.8h-1.2v8.5h1.2v.6H514l-3.1-6.9-3.5 6.9h-2.6v-.6h1.2v-8.5h-1.2v-.6h3.4v.6H507V69l3.6-7 3.3 7.2v-6.4h-1.2v-.6h4.4l-.2.6"
        class="st0"
      />
      <path
        id="path3250_1_"
        d="M535.7 62.8h-.7l-3.7 9.5h-.9l-3.8-9.5h-.9v-.6h3.1v.6h-1.2l1 2.4h3.6l.9-2.4h-1v-.6h3.6v.6zm-6.8 3.3l1.5 3.7 1.4-3.7h-2.9"
        class="st0"
      />
      <path
        id="path3252_1_"
        d="M553 64.6h-.8v-1.1c-.7-.4-1.2-.6-2-.6-2 0-3.6 1.9-3.6 4.3 0 2.5 1.4 4.2 3.5 4.2.8 0 1.3-.2 2.1-.8v-.9h.8v2.7h-.8v-.6c-.9.4-1.5.5-2.5.5a5 5 0 01-5.2-5.1c0-2.9 2.2-5.1 5.3-5.1 1.1 0 1.9.2 3.2.6v1.9"
        class="st0"
      />
      <path
        id="path3254_1_"
        d="M571.8 62.8h-.6l-3.7 9.5h-.9l-3.8-9.5h-.9v-.6h3.1v.6h-1.2l1 2.4h3.6l.9-2.4h-1v-.6h3.6l-.1.6zm-6.8 3.3l1.5 3.7 1.4-3.7H565"
        class="st0"
      />
      <path
        id="path3256_1_"
        d="M453.9 40.8h-.8v-1.1c-.7-.4-1.2-.6-2-.6-2 0-3.6 1.9-3.6 4.3 0 2.5 1.4 4.2 3.5 4.2.8 0 1.3-.2 2.1-.8v-.9h.8v2.7h-.8V48c-.9.4-1.5.5-2.5.5a5 5 0 01-5.2-5.1c0-2.9 2.2-5.1 5.3-5.1 1.1 0 1.9.2 3.2.6v1.9"
        class="st0"
      />
      <path
        id="path3258_1_"
        d="M473.2 43.3a5 5 0 01-4.9 5.1c-2.7 0-4.9-2.2-4.9-5.1s2.2-5.1 4.9-5.1a5 5 0 014.9 5.1zm-7.7 0c0 2.2 1.3 4.2 2.8 4.2 1.5 0 2.8-2 2.8-4.2 0-2.3-1.3-4.2-2.8-4.2-1.5 0-2.8 2-2.8 4.2"
        class="st0"
      />
      <path
        id="path3260_1_"
        d="M489.7 40.4h-.8v-1.1h-3.2v8.3h1.1v.6h-4.1v-.6h1.1V39h-1.1v-.6h7v2"
        class="st0"
      />
      <path
        id="path3262_1_"
        d="M505.7 40.4h-.8v-1.1h-3.2v8.3h1.1v.6h-4.1v-.6h1.1V39h-1.1v-.6h7v2"
        class="st0"
      />
      <path
        id="path3264_1_"
        d="M521.8 40.4h-.8v-1.1h-3.2V43h2.4v-1h.8v2.9h-.8v-1h-2.4v3.5h3.1v-1.1h.8v2.4h-.8v-.4h-6.1v-.6h1.1V39h-1.1v-.6h7.1l-.1 2"
        class="st0"
      />
      <path
        id="path3266_1_"
        d="M540.3 41.8h1.1v.6h-4.3v-.6h1.3v-2.5c-.5-.2-.7-.2-1.1-.2-2.1 0-3.8 1.9-3.8 4.2 0 2.4 1.6 4.2 3.6 4.2a4 4 0 002.2-.6v-1.1h.8v2.6h-.8v-.5a7.8 7.8 0 01-4.6.1 5 5 0 01-3.3-4.7c0-3 2.3-5.1 5.5-5.1 1 0 1.9.2 3.4.6v3"
        class="st0"
      />
      <path
        id="path3268_1_"
        d="M557.7 40.4h-.8v-1.1h-3.2V43h2.4v-1h.8v2.9h-.8v-1h-2.4v3.5h3.1v-1.1h.8v2.4h-.8v-.4h-6.1v-.6h1.1V39h-1.1v-.6h7.1l-.1 2"
        class="st0"
      />
      <path
        id="path3270_1_"
        d="M434.1 44.5l1.4-1.4-1.4-1.4-1.4 1.4 1.4 1.4"
        class="st0"
      />
      <path
        id="path3272_1_"
        d="M569.5 44.5l1.4-1.4-1.4-1.4-1.4 1.4 1.4 1.4"
        class="st0"
      />
      <path
        id="path3274_1_"
        d="M495.2 130.8c-3.3 0-9.3-5.4-9.3-12 0-6.3 6-11.8 9.4-11.8-7.7 0-13.2 5.8-13.2 11.8 0 6 5.2 12 13.1 12"
        class="st0"
      />
      <path
        id="path3276_1_"
        d="M495 124.2c-1.6 0-3.8-2.7-3.8-5.3 0-3 2.2-5.8 3.8-5.8-3.6 0-6.2 2.7-6.2 5.5a6 6 0 006.2 5.6"
        class="st0"
      />
      <path
        id="path3278_1_"
        d="M529.1 118.3a27.3 27.3 0 11-54.6 0V86.8h54.7c-.1-.1-.1 30.6-.1 31.5zm-13.7-17.8c-1.5 1.5-3.1 1.5-4.6 0l-10.4-10.3h-2.8l8.3 8.3-2.7 2.8c-1.4 1.4-3.2 1.4-4.6 0l-11.1-11.1h-9.3v28.1a23.7 23.7 0 1047.4 0V90.2l-10.2 10.3"
        class="st0"
      />
    </g>
  </g>
</svg>
