<svg xmlns="http://www.w3.org/2000/svg" viewBox="0 0 175 38.8">
  <style>
    .st0 {
      fill: #212222;
    }
  </style>
  <path
    d="M74.2 30.3h-2a.6.6 0 01-.6-.6V14.9c0-.3.3-.6.6-.6h1.9c.3 0 .6.3.6.6v1.3c.9-1.7 2.6-2.4 4.5-2.4 3.8 0 6.2 2.8 6.2 6.3v9.6c0 .3-.3.6-.6.6h-2a.6.6 0 01-.6-.6v-9c0-2.2-.9-4-3.7-4-2.5 0-3.7 2-3.7 4.4v8.7c0 .3-.3.5-.6.5zM100 27.9a5.5 5.5 0 01-5 2.9c-5.3 0-8.3-4.8-7.4-10.5a7.6 7.6 0 018.2-6.3c2 .2 3.3.8 3.9 1.9.1.1.2.1.2-.1V7.1c0-.4.4-.8.8-.8h1.5c.4 0 .8.4.8.8v22.5c0 .4-.3.8-.8.8h-1.5c-.4 0-.8-.3-.8-.7v-1.8zm-4.6.1c2.9 0 4.6-2.5 4.6-5.8s-1.7-5.5-4.6-5.5c-2.9 0-4.7 2.3-4.7 5.6s1.7 5.7 4.7 5.7zM109.6 16.7a5.5 5.5 0 015-2.9c5.2 0 8.2 4.6 7.5 10a7.7 7.7 0 01-8.7 6.7c-1.8-.2-2.9-.8-3.5-1.8-.1-.1-.2-.1-.2.1v8.7c0 .4-.4.8-.8.8h-1.5a.9.9 0 01-.8-.8V17.3v-2.1c0-.5.2-.8.7-.8h1.6c.4 0 .7.4.7.8v1.5zm4.7-.1c-2.9 0-4.6 2.5-4.6 5.8s1.7 5.5 4.6 5.5c2.9 0 4.7-2.3 4.7-5.6s-1.7-5.7-4.7-5.7zM140.5 22.3c0 4.9-3.4 8.5-8.2 8.5-4.8 0-8.2-3.6-8.2-8.5s3.4-8.5 8.2-8.5c4.8.1 8.2 3.7 8.2 8.5zm-3.2 0c0-3.7-2.3-5.7-5-5.7s-5 2-5 5.7 2.3 5.7 5 5.7 5-1.9 5-5.7zM145.2 6.1c.8.2 1.5.8 1.7 1.7.3 1.5-.8 2.8-2.2 2.8-1.2 0-2.2-1-2.2-2.2a2.2 2.2 0 012.7-2.3zm-2 23.5V15.1c0-.4.3-.8.8-.8h1.5c.4 0 .8.3.8.8v14.4c0 .4-.3.8-.8.8H144c-.5 0-.8-.3-.8-.7zM171.5 14.4h2.9c.3 0 .6.3.6.6v1.7c0 .3-.3.6-.6.6h-2.9v8.3c0 1.5.6 2.2 2.2 2.2h.6c.3 0 .6.2.6.6v1.5c0 .3-.2.5-.5.6l-1.7.2c-2.7 0-4.5-1.7-4.5-4.6v-8.8h-2.5a.6.6 0 01-.6-.6V15c0-.3.3-.6.6-.6h.3c1.7 0 2.5-1.1 2.5-2.5v-2c0-.3.3-.6.6-.6h1.7c.3 0 .6.3.6.6v4.5zM152.9 30.3h-2a.6.6 0 01-.6-.6V14.9c0-.3.3-.6.6-.6h1.9c.3 0 .6.3.6.6v1.3c.9-1.7 2.6-2.4 4.5-2.4 3.8 0 6.2 2.8 6.2 6.3v9.6c0 .3-.3.6-.6.6h-2a.6.6 0 01-.6-.6v-9c0-2.2-.9-4-3.7-4-2.5 0-3.7 2-3.7 4.4v8.7c-.1.3-.3.5-.6.5zM57.4 23.1l.1 1c.1.7.3 1 .5 1.4a5 5 0 002.2 1.9c.5.3 1.2.4 1.9.4a4 4 0 002.5-.7c.5-.4 1-.9 1.3-1.6.1-.2.3-.3.5-.3h2c.4 0 .6.4.5.7-.1.5-.4 1.1-.7 1.6-.5.7-.9 1.2-1.5 1.7s-1.3.8-2.1 1c-.8.2-1.6.4-2.5.4-1.2 0-2.4-.2-3.3-.6-1-.4-1.8-1-2.4-1.7a6.1 6.1 0 01-1.5-2.6 11.6 11.6 0 010-6.6c.4-1 .9-1.9 1.5-2.7.7-.8 1.5-1.4 2.4-1.8a7.7 7.7 0 016.6.1c1 .5 1.8 1.2 2.5 2.1.7.9.9 1.7 1.2 2.8.2 1 .3 2.1.2 3.1 0 .3-.3.5-.6.5H57.4zm9-2.3c0-.6-.2-1.1-.4-1.6s-.5-.9-.8-1.2c-.3-.4-.8-.7-1.5-1.1-.5-.2-1.2-.4-1.7-.4-.6 0-1.3.1-1.8.3-.5.2-1.1.5-1.4.9l-1 1.4c-.2.5-.4 1.1-.4 1.7h9z"
    class="st0"
  />
  <path
    fill="#0783b3"
    d="M34.8 38.8H13.5a4.7 4.7 0 01-4.7-4.7v-4H4.7A4.7 4.7 0 010 25.5v-9.9a6 6 0 012.6-4.9L16.7 1c2-1.4 4.6-1.4 6.6-.1L38 10.7a5.7 5.7 0 012.6 4.9v17.3c0 3.3-2.6 5.9-5.8 5.9zM11 30.1v4c0 1.3 1.1 2.4 2.4 2.4h21.3c2 0 3.6-1.6 3.6-3.6V15.6c0-1.2-.6-2.4-1.6-3L22 2.9a3.3 3.3 0 00-4 0L3.8 12.6c-1 .7-1.6 1.8-1.6 3v9.9c0 1.3 1.1 2.4 2.4 2.4h4.1v-8.8c0-2.6 2.1-4.7 4.7-4.7h13.7c2.6 0 4.7 2.1 4.7 4.7v6.4c0 2.6-2.1 4.7-4.7 4.7H11zm0-2.2h16.1c1.3 0 2.4-1.1 2.4-2.4v-6.4c0-1.3-1.1-2.4-2.4-2.4H13.5a2.4 2.4 0 00-2.4 2.4v8.8z"
  />
</svg>
