<svg xmlns="http://www.w3.org/2000/svg" viewBox="0 0 187.9 182.7">
  <style>
    .st1 {
      fill: none;
      stroke: #fff;
      stroke-width: 0.24;
      stroke-linecap: round;
      stroke-linejoin: round;
      stroke-miterlimit: 10;
    }
    .st7 {
      fill-rule: evenodd;
      clip-rule: evenodd;
      fill: #2b292a;
    }
  </style>
  <linearGradient
    id="SVGID_1_"
    x1="133.2"
    x2="167.9"
    y1="78.4"
    y2=".5"
    gradientUnits="userSpaceOnUse"
  >
    <stop offset="0" stop-color="#fff" />
    <stop offset="0" stop-color="#f4ebf5" />
    <stop offset=".1" stop-color="#e1c7e3" />
    <stop offset=".1" stop-color="#cfa7d3" />
    <stop offset=".2" stop-color="#c08bc5" />
    <stop offset=".3" stop-color="#b475ba" />
    <stop offset=".3" stop-color="#ab64b1" />
    <stop offset=".4" stop-color="#a559ab" />
    <stop offset=".6" stop-color="#a152a8" />
    <stop offset=".9" stop-color="#a050a7" />
  </linearGradient>
  <path
    fill="url(#SVGID_1_)"
    fill-rule="evenodd"
    d="M117.5 57s4.1-17.7 10.9-21.9c1.6-1 23.1-10.4 39.2 11.4 5.8 7.9-4.8 23.8-5.2 23.8 0 0-13.8-20.2-44.9-13.3z"
    clip-rule="evenodd"
  />
  <path
    d="M117.5 57s4.1-17.7 10.9-21.9c1.6-1 23.1-10.4 39.2 11.4 5.8 7.9-4.8 23.8-5.2 23.8 0 0-13.8-20.2-44.9-13.3z"
    class="st1"
  />
  <linearGradient
    id="SVGID_2_"
    x1="177.4"
    x2="111.2"
    y1="100.4"
    y2="103.2"
    gradientUnits="userSpaceOnUse"
  >
    <stop offset="0" stop-color="#fff" />
    <stop offset="0" stop-color="#f4ebf5" />
    <stop offset=".1" stop-color="#e1c7e3" />
    <stop offset=".1" stop-color="#cfa7d3" />
    <stop offset=".2" stop-color="#c08bc5" />
    <stop offset=".3" stop-color="#b475ba" />
    <stop offset=".4" stop-color="#ab64b1" />
    <stop offset=".5" stop-color="#a559ab" />
    <stop offset=".6" stop-color="#a152a8" />
    <stop offset="1" stop-color="#a050a7" />
  </linearGradient>
  <path
    fill="url(#SVGID_2_)"
    fill-rule="evenodd"
    d="M93.1 158.5L88 132.4s67.8-46 74.7-62.3c6.9-16.3 4.8-23.7 4.8-23.7s14.3 17.2 3.5 44.3-77.9 67.8-77.9 67.8z"
    clip-rule="evenodd"
  />
  <path
    d="M93.1 158.5L88 132.4s67.8-46 74.7-62.3c6.9-16.3 4.8-23.7 4.8-23.7s14.3 17.2 3.5 44.3-77.9 67.8-77.9 67.8z"
    class="st1"
  />
  <linearGradient
    id="SVGID_3_"
    x1="106.4"
    x2="179.4"
    y1="90"
    y2="130.1"
    gradientUnits="userSpaceOnUse"
  >
    <stop offset="0" stop-color="#a050a7" />
    <stop offset="1" stop-color="#fff" />
  </linearGradient>
  <path
    fill="url(#SVGID_3_)"
    fill-rule="evenodd"
    d="M129.1 170.2S94.3 92.1 99.9 68c5.9-25.3 21.6-28.7 27.4-32.4l1.4-.9c.1.1-20.2 16.1-5.2 53.7 17.1 43 23.7 63 23.7 63l-18.1 18.8z"
    clip-rule="evenodd"
  />
  <linearGradient
    id="SVGID_4_"
    x1="133.8"
    x2="168.6"
    y1="78.7"
    y2=".8"
    gradientUnits="userSpaceOnUse"
  >
    <stop offset="0" stop-color="#fff" />
    <stop offset="0" stop-color="#f4ebf5" />
    <stop offset=".1" stop-color="#e1c7e3" />
    <stop offset=".1" stop-color="#cfa7d3" />
    <stop offset=".2" stop-color="#c08bc5" />
    <stop offset=".3" stop-color="#b475ba" />
    <stop offset=".3" stop-color="#ab64b1" />
    <stop offset=".4" stop-color="#a559ab" />
    <stop offset=".6" stop-color="#a152a8" />
    <stop offset=".9" stop-color="#a050a7" />
  </linearGradient>
  <path
    fill="url(#SVGID_4_)"
    fill-rule="evenodd"
    stroke="#fff"
    stroke-linecap="round"
    stroke-linejoin="round"
    stroke-miterlimit="10"
    stroke-width=".2"
    d="M118.2 57.3s4.1-17.7 10.9-21.9c1.6-1 23.1-10.4 39.2 11.4 5.8 7.9-4.8 23.8-5.2 23.8-.1.1-13.9-20.2-44.9-13.3z"
    clip-rule="evenodd"
  />
  <g>
    <path
      fill="#a050a7"
      fill-rule="evenodd"
      d="M62.7 56.5c2 .3 2.8 1.9 2.8 3.2 0 1.7-1.2 3.2-3 3.2H59v-6.5h3.7zm-23.1 1.6h-8.1l3.9-8.5 4.2 8.5zm21.9-12.9c2.3.4 3.2 1.5 3.2 3.2 0 1.6-1.2 3.1-2.8 3.1h-2.8v-6.3h2.4zm79.8-5l1.1 5.2h-10.2v5.9h7.3v5.2h-7.3v6.2h10.6s.1-.1.1.3l-1.3 5.1h-15.9v-28h15.6zm-78.2 0c4.8.1 8.2 2.7 8.2 7 0 2.4-1.1 4.8-4.6 6.3l.1.1c3.8 1.2 5.2 4 5.2 6.9 0 5.5-4.7 7.7-8.7 7.7H52.7v-28h10.4zm19.1 17c.3 4.3 2.2 5.5 5 5.5 2.6 0 4.7-1.2 5-5V40.6l6.3-.5v19c-.1 1.1-.5 2-.7 3.2-1.1 5.2-7.3 6.6-10.6 6.6-3.6 0-9.8-1.5-10.9-7.1l-.4-2.8V40.6l6.3-.5v17.1zm38.9-14.3l-3.2 4c-3-2-3.1-1.7-5-1.7-1.2 0-3.8.3-3.8 2.6 0 4.7 12.9 1.7 12.9 11.8 0 6.9-6.2 9.3-10.8 9.3-3 0-6.6-1.2-9.3-3.4.9-1.5 3.2-4.6 3.6-4.6.3 0 1.3.9 2.3 1.3.8.4 2.4.8 3.4.8 1.2 0 4.2-.5 4.2-2.8 0-4.8-12.9-2-12.9-11.7 0-5.9 5.2-8.7 10.1-8.7 2.6 0 6.1 1.1 8.5 3.1zm-85.4-3.2L50.2 67v.4L44 68.8 41 63H29.9c-1.1 1.7-1.7 4-3 5.8l-5.8-1.3-.1-.3 14.5-27.5h.2z"
      clip-rule="evenodd"
    />
    <path
      fill="none"
      stroke="#fff"
      stroke-linecap="square"
      stroke-linejoin="round"
      stroke-miterlimit="10"
      d="M62.7 56.5c2 .3 2.8 1.9 2.8 3.2 0 1.7-1.2 3.2-3 3.2H59v-6.5h3.7zm-23.1 1.6h-8.1l3.9-8.5 4.2 8.5zm21.9-12.9c2.3.4 3.2 1.5 3.2 3.2 0 1.6-1.2 3.1-2.8 3.1h-2.8v-6.3h2.4zm79.8-5l1.1 5.2h-10.2v5.9h7.3v5.2h-7.3v6.2h10.6s.1-.1.1.3l-1.3 5.1h-15.9v-28h15.6zm-78.2 0c4.8.1 8.2 2.7 8.2 7 0 2.4-1.1 4.8-4.6 6.3l.1.1c3.8 1.2 5.2 4 5.2 6.9 0 5.5-4.7 7.7-8.7 7.7H52.7v-28h10.4zm19.1 17c.3 4.3 2.2 5.5 5 5.5 2.6 0 4.7-1.2 5-5V40.6l6.3-.5v19c-.1 1.1-.5 2-.7 3.2-1.1 5.2-7.3 6.6-10.6 6.6-3.6 0-9.8-1.5-10.9-7.1l-.4-2.8V40.6l6.3-.5v17.1zm38.9-14.3l-3.2 4c-3-2-3.1-1.7-5-1.7-1.2 0-3.8.3-3.8 2.6 0 4.7 12.9 1.7 12.9 11.8 0 6.9-6.2 9.3-10.8 9.3-3 0-6.6-1.2-9.3-3.4.9-1.5 3.2-4.6 3.6-4.6.3 0 1.3.9 2.3 1.3.8.4 2.4.8 3.4.8 1.2 0 4.2-.5 4.2-2.8 0-4.8-12.9-2-12.9-11.7 0-5.9 5.2-8.7 10.1-8.7 2.6 0 6.1 1.1 8.5 3.1zm-85.4-3.2L50.2 67v.4L44 68.8 41 63H29.9c-1.1 1.7-1.7 4-3 5.8l-5.8-1.3-.1-.3 14.5-27.5h.2z"
    />
  </g>
  <path
    d="M126.6 120.7l-1.9 4.2h-.8c.8-1.6.5-3.6 2.3-4.2h.4zm26 .7c0 .3-.5.7-.7.9-.3-.3-.8-.5-.8-.9 0-.3.5-.7.7-.9.3.1.8.5.8.9zm-102-2c0 1.2-1.1 1.9-1.9 1.9-1.2 0-1.9-.9-1.9-1.9 0-1.3 1.1-1.7 1.9-1.7 1.1-.1 1.9.7 1.9 1.7zm-18.6 0c0 1.2-.9 1.9-1.9 1.9-1.2 0-1.7-.9-1.7-1.9 0-1.2.8-1.7 1.7-1.7 1.3-.1 1.9.7 1.9 1.7zm64.3-1.3a3 3 0 11-6.1 0 3 3 0 013-3c1.9.1 3.1 1.6 3.1 3zM74 115.7c-1.5 1.1-3.1 2-4.7 3-.1-2.3 1.5-3.5 3.1-3.5.4 0 1.1 0 1.6.5zm75.6-.6c-.1.3-.4.7-.7.7-.4 0-1.7-.7-2.2-.7-1.9 0-3.2 1.3-3.2 3.1 0 2 1.7 3.2 3.2 3.2a8 8 0 002.3-.8l.5.7c-.1.4-2.3 1.1-2.8 1.1a4.2 4.2 0 01-4.2-4.2c0-.3.3-.9.3-1.5 1.5-2.3 2.3-2.4 4-2.4 1.2-.1 1.1-.2 2.8.8zm-50.2 4.1c.1 1.5.9 2.3 1.9 2.3.7 0 2.2-.5 2.4-1.7v-5.4l.9-.1v7.8l-.9.1-.1-.9c-.4.5-1.9 1.1-2.4 1.1-1.9 0-2.7-1.6-2.7-3v-5l.9-.1v4.9zm-2-1.1c0 2.4-1.9 4.2-4 4.2a4.2 4.2 0 01-4.2-4.2c0-2.4 1.9-3.9 4-3.9 2.5 0 4.2 1.7 4.2 3.9zM75.6 116l-6.1 3.6c.5 1.2 2 1.7 2.8 1.7s1.9-.8 3.1-1.3v1.2c-.9.3-2.2 1.1-3.1 1.1a4.2 4.2 0 01-4.2-4.2c0-2.7 2.2-3.9 4.3-3.9 1.3 0 1.9 0 3.2 1.8zm-8.2-.9c-.3.3-.4.7-.7.7-.4 0-1.9-.7-2.2-.7-1.9 0-3.2 1.3-3.2 3.1 0 2.2 1.7 3.2 3.2 3.2.5 0 1.5-.7 2.3-.8l.5.7c-.1.4-2.3 1.1-2.8 1.1-2.7 0-4.2-2-4.2-4.2 0-2.6 1.7-3.9 4.3-3.9 1.2-.1 1.1-.2 2.8.8zm74.2 1.8v5.1l-.9.1v-5.7c-.5-1.3-1.2-1.6-2-1.6-.9 0-2.3.8-2.3 2v5.1l-.9.1v-7.8l.9-.1.1 1.1c.4-.8 1.7-1.2 2.4-1.2 1.6.1 2.7 1.3 2.7 2.9zm-82.4-.5v5.7l-.8.1v-5.4c-.3-1.2-1.1-1.9-2-1.9a2.4 2.4 0 00-2.4 2.4v4.8h-.8v-7.8l.8-.1.1 1.2c.4-1.1 1.6-1.3 2.6-1.3 1.2 0 2.5 1 2.5 2.3zm-7.7-.8v6.6l-.8.1-.1-.8a5 5 0 01-2 .8 2.9 2.9 0 010-5.8c.4 0 1.7.4 2 .8l.1-.7c0-1.3-.9-1.7-1.7-1.7-.3 0-1.5.3-2.3.7l.3-1.1 2.3-.4c.5 0 2.2.3 2.2 1.5zm-11.5 0c.4-1.2 1.7-1.5 2.4-1.5.8 0 2.3.7 2.3 2v6.1h-.8v-5.5c-.4-1.1-.9-1.7-1.7-1.7-.9 0-2 1.1-2 2v5.1l-.8.1v-5c-.3-.4-.3-1.6-.8-2-.3-.1-.5-.3-.9-.3-.9 0-2 .9-2 1.7v5.4l-.9.1v-7.8l.9-.1.1.9c.3-.7 1.5-1.1 2-1.1a3 3 0 012.2 1.6zm-6.9.4v6.2l-.9.1-.1-.8a5 5 0 01-2 .8c-1.9 0-2.7-1.6-2.7-3 0-1.6 1.2-2.8 2.7-2.8.4 0 1.7.4 2 .8l.1-.8c0-1.1-.5-1.6-1.6-1.6-.4 0-1.6.3-2.4.7l.3-1.1 2.3-.4c1 0 2.3.5 2.3 1.9zm79.3.7v5.4l-.8.1v-5c-.4-1.7-.9-2.3-2.2-2.3-.9 0-2.3 1.1-2.3 2.2v5l-.8.1v-7.9h.8l.1 1.1c.7-.7 1.6-1.3 2-1.3 1.7-.1 3.2.7 3.2 2.6zm-91.5.1h-3.4l1.6-3.4 1.8 3.4zm94.3-2.6h2.3c.3 0 2.8 4.6 3.4 5.5.4-.8 2.4-5.5 3-5.5l.7.1-5.4 10.5-.7-.1 1.9-4-3.1-5.5h-2v5c.3 1.2.8 1.1 1.6 1.1h.4v.9h-1.5c-1.2-.1-1.5-1.9-1.5-2.7v-4.3h-1.1c0-.3.1-1.2 1.1-.8.1-.8-.8-2.3.9-2.4v2.2zm18.4 8h-.9v-10.8l.9-.1v10.9zM88 111.6l.3.8v.4c-.3-.1-1.9-.7-2.3-.7a4.6 4.6 0 00-4.6 4.6c0 3 2.3 4.7 4.6 4.7l2.3-.5v.3c0 .4-.1.5-.3.7a5.4 5.4 0 01-7.6-5c0-3 2-5.7 5.5-5.7l2.1.4zm-62-.4v11h-.8v-11h.8zm-1.4 10.6c-.1.1-.5.4-.8.4-.4 0-1.6-3-2.4-4.4h-4.6c-.8 1.5-2.2 4.4-2.4 4.4-.4 0-.7-.1-.8-.4l5.5-10.6 5.5 10.6zM51.9 83.8c2.4.1 4.6 1.2 4.6 3.8 0 2.3-1.9 3.9-4.2 3.9h-1.1v-7.7h.7zm89-6l1.2 5.9h-10.4v5.1h7.4v6.1h-7.4v5.5h11l-1.6 6.1h-16.4V77.8h16.2zm-86.8 0c5.9.1 9.4 3.6 9.4 8.5 0 2.7-1.1 5.4-4.4 7.5l7.4 10.8c-2.2 1.1-4.6 1.7-6.9 2.7L51.1 94v12.4l-7 .5V77.8h10zm-13.9 0l1.2 5.9H31.1v5.1h7.3v6.1h-7.3v5.5h11l-1.7 6.1H24.1V77.8h16.1zm58.2 28.4l-7.1.7V78.2l7.1-.7v28.7zm65-25.6l-3.9 4.8c-2-1.6-3.1-2-4.8-2-.8 0-3.5.4-3.5 2.2 0 2 4.6 3 5 3.1.8.1 1.6.5 2.4.8a8 8 0 015.5 7.9c0 6.7-5.7 9.7-11 9.7-3.4 0-6.3-.8-10-3.8 1.3-1.7 3.8-5.1 4.2-5.1.3 0 1.9 1.3 3 1.7.7.4 2.3.7 2.7.7.8 0 3.9-.7 3.9-2.4 0-4.2-12.9-2-12.9-11.7 0-6.3 5.1-9.2 10.4-9.2 2.8.1 5.5.9 9 3.3zm-143.1 0l-3.8 4.8-1.7-1.2c-1.6-.9-1.7-.8-3.1-.8-1.1 0-3.5.4-3.5 2.2 0 4.3 12.8 1.5 12.8 11.7 0 6.9-5.8 9.8-11 9.8-3.5 0-6.3-.8-10-3.8 1.3-1.7 3.8-5.1 4.2-5.1.3 0 1.9 1.3 3 1.7.7.4 2.3.7 2.7.7.8 0 3.9-.7 3.9-2.4 0-2.2-4.7-3.2-5-3.4-1.3-.4-2.8-1.1-4.2-1.7-1.2-.5-2.6-2-3.1-3.1L1 88.1V85c.7-5.9 6.3-7.7 10.2-7.7 2.8.1 6 .9 9.1 3.3zm100.3-2.7l1.1 6.9v.9c-1.5-1.2-4-2-5.7-2-5.2 0-7.4 4.7-7.4 8.3 0 4.6 3.1 8.3 7.9 8.3 1.7 0 3.4-.8 5.4-2.2-.3 2.6-.5 5.1-1.1 7.5a13 13 0 01-5.5 1.3 14 14 0 01-13.9-13.7l-.1-2.7c0-.3.3-.5.3-.8l.5-2.8a14 14 0 0113.9-10c1.1.2 3.5.6 4.6 1zm-49-1.2L77 92.3l5.5-15.7 7.3 1.2-13.1 29.6L64.3 78l7-1.5.3.2zM51.9 19.2H45l3.5-7.4 3.4 7.4zM33 1.3l1.7 6.5h-9.8v6.1h6.9v6.3h-6.9V30l-7 .7V1.3H33zm83.4 22.1h8.3l-1.9 6.6h-13.5V1.7l7-.7v22.4zm-11.6 6.3l-7 .7V1.7l7-.7v28.7zM137.3 12L141.9.8h.5l6.1 2.2-11.8 27.7-7.4-1.1 4.6-9.7-10.5-16.4 6.5-2.7 7.4 11.2zm-57.9 6l9.2-18 7.7 29.7-7.1.9-2.4-13.1-7.4 13.9-6.9-13.7-2.6 12.9c-2.7-.4-5.7-.7-7.7-1.2l-5.5 1.2c-.8-1.9-1.7-3.9-2.8-5.9H43.2l-2.7 5.9-7.1-1.6L48.7.1l14.4 27.2L70.5 0l8.9 18z"
    class="st7"
  />
</svg>
