<svg
  xmlns="http://www.w3.org/2000/svg"
  xmlns:xlink="http://www.w3.org/1999/xlink"
  viewBox="0 0 175 50.3"
>
  <style>
    .st1 {
      fill: #231f20;
    }
    .st3 {
      fill: #edb11e;
    }
  </style>
  <defs>
    <symbol id="Canadian_Highway" viewBox="-50.8 -60 101.6 120">
      <path
        fill="#da9031"
        stroke="#231f20"
        stroke-width="2"
        d="M50.4 44s-6.2-2.9-6.2-9.5v-66.3S41-58.9.2-58.9c-41.1 0-44.4 27.1-44.4 27.1v66.3c0 6.7-6.2 9.5-6.2 9.5H50.4z"
      />
      <path d="M-50.7 43.5H50.8V60H-50.7z" class="st1" />
    </symbol>
  </defs>
  <g id="new_logo_1_">
    <use
      id="XMLID_2_"
      width="101.6"
      height="120"
      x="-50.8"
      y="-60"
      overflow="visible"
      transform="matrix(.4013 0 0 -.4013 20.4 26.2)"
      xlink:href="#Canadian_Highway"
    />
    <path
      d="M30.1 28a6.6 6.6 0 001.6 3.5c.1.1.3 0 .1-.2a5.2 5.2 0 01-1.2-4c.1-1 .2-1.6.4-2.1-.1.9 0 2 .4 3 .9 2.1 2.5 1.7 2.5 1.9 0 .2-.8.7-1.4.6-.3 0-.4.3-.2.5s.9.9.9 1.5c0 .3-.2.6-.3.8-.2 0-.6-.2-1-.7-.4-.5-.4-.2-.4 0l.1.9c0 .2-1-.2-1.5-1-.5-.9-.8-2.4-.8-3.6 0-1.2.2-3.5 1.3-5.4.8-1.5 1.8-2.4 2.4-2.6h1c.5.2.6.7.6.7v.1c.2.5.2 1.2-.8 1.5-.9.3-1.4-.7-1.4-1 0-.3-.3-.3-.6.2l-.7 1.1c-.5.7-1.1 2.1-1 4.3"
      class="st1"
    />
    <path
      fill="none"
      stroke="#231f20"
      stroke-width=".7"
      d="M31.1 43.4l-.2.3.1-.2h0c.1-.2 0-.3-.1-.4-.1 0-.3-.1-.6.2 0 0 0 0 0 0 0 .1-.9 1.5-3.5 1.1-.2-.7-.5-1-.8-1h-1.2l-.9-1.2v-.5l-.2-.2-.4-2.4-.1-.6c.4-.7.8-1.4 1.4-2 .7-.7 1.4-1.6 1.5-2 .7-2.1-.7-3.4-.7-3.4l.2-.8s1.5-.3 1.9-2.5a5 5 0 00-.4-2.5l-.3-1c.2-.4.3-.6.2-1.1-.1-.5 0-.5-.4-.8 0-1.4.2-2.7.4-3.6l.3-1.1-.4-.1c0 .1-.9 2.1-1 4.5 0 0 0 0 0 0s0 0 0 0l-.7.1.3.4c.1.1-.2.2 0 .6l.1.1-.4 1.9-.4.6s-.1-.7-.5-1.3l-.8-1c-.1-.6-.2-1.2-.6-1.3l-.2-.1c-.7 3.6-3.4 7.5-4.6 8.1l-.3 3.6c-.1 1.2 0 2.2.1 2.4.3.6.9.4.9.4s-.2.9.3 1.5l.6 3.8-.2.3-.4.7c-.2.2-1 .3-1.3.4-.2 0-.2.2-.2.3h-2.7c-.3.1-.6.3-.8 1-2.6.4-3.5-1-3.5-1.1 0 0 0 0 0 0-.4-.6-.6-.5-.7-.5-.1.1-.2.3-.1.4h0l.1.2-.2-.3c-.7-.9-1.3-1.8-1.8-2.8 3-3.8 4.1-6.5 4.2-11.1.2-5-2.7-8.3-4-8.8-.4-.2-.8-.2-1.2 0l-.4.3c.6-1.7 1.3-3.2 2.2-4.6l.2.5c.7.8 1.6.9 2.1.7.6-.2 1.7-.8 2.2-1.3.6-.7 1.6-1.7 2.5-1.9.8-.3 1.7-.2 2.1.5.4.7-.1 1.3-.4 1.5-.3.2-1.1.2-1.2-.6l.1-.5c.1-.2-.1-.1-.1 0s-.4.5-.1 1.3c.2.6 1.3.9 2.1.1.5-.5.9-.7 1.3-.8l.9-.1h0s0 0 0 0h0s0 0 0 0h0l1 .1c.4.1.8.3 1.3.8.8.8 1.9.5 2.1-.1.3-.8-.1-1.2-.1-1.3 0-.1-.2-.2-.1 0l.1.5c-.1.8-.9.8-1.2.6-.3-.2-.8-.8-.4-1.5s1.2-.8 2.1-.5c.8.3 1.9 1.3 2.5 1.9.5.5 1.6 1.1 2.2 1.3.6.2 1.5.1 2.1-.7l.2-.5c.9 1.4 1.6 3 2.2 4.6l-.4-.3c-.3-.2-.7-.2-1.2 0-1.3.5-4.2 3.8-4 8.8C29 34 30 36.7 33 40.5c-.6 1.1-1.2 2-1.9 2.9"
    />
    <path
      d="M23.2 43.4l.4.5c.3.5.7.2.7.2.9-.3.4-.7.4-.7l-.9-1.2v-.5l-.2-.2-.4-2.4-.1-.6c.4-.7.8-1.4 1.4-2 .7-.7 1.4-1.6 1.5-2 .7-2.1-.7-3.4-.7-3.4l.2-.8s1.5-.3 1.9-2.5a5 5 0 00-.4-2.5l-.3-1c.2-.4.3-.6.2-1.1-.1-.5 0-.5-.4-.8 0-1.4.2-2.7.4-3.6l.3-1.1-.4-.1c0 .1-.9 2.1-1 4.5l-.7.1.3.4c.1.1-.2.2 0 .6l.1.1-.4 1.9-.4.6s-.1-.7-.5-1.3l-.8-1c-.1-.6-.2-1.2-.6-1.3l-.2-.1c-.7 3.6-3.4 7.5-4.6 8.1l-.3 3.6c-.1 1.2 0 2.2.1 2.4.3.6.9.4.9.4s-.2.9.3 1.5l.6 3.8-.2.3-.4.7c-.2.2-1 .3-1.3.4-.2 0-.2.2-.2.3"
      class="st1"
    />
    <path
      d="M14.7 31.4c.1.1.5.1.8-.1l.3-.3c.2-.4.2-.7.6-1.1.4-.4 1.7-1.7 1.8-2.1l.4-1-.1 1.4a3 3 0 00-.2 1c1.7-1.6 3.2-5 3.8-7.2h-.2c-.3 0-.4 0-.5-.2l-.1-.8s.5-.6.5-1.1V19s1.2.3 1.4.7l.1-.3.1.4c.2.2.6.2.6.2s0-.4-.3-.7c-.6-.8-1.9-.9-1.9-.9s1.5-.1 1.7-.8c-.5-.3-.7 0-1 .1v-.2s-.9.4-1.2.3c-.2-.4-2.4-.7-2.4 1.2v.1c-.2.6-.4.9-.2.9l.3.1v.4l.1.4h.7v.6l-1 .4c-.6.2-1 .1-1.2 1l-.4 2.1c0 1-.2 1.2-.4 1.6-.2.5-1.1 2.3-1.5 2.8-.3.6-.6.5-.8.6l-.2.2-.1.3c0 .1-.1.3 0 .4l.1.2.4.3zM30.5 43.7l-.2.3-.5.5c-.9.9-2.3 1.3-3.4 1.2-1-.1-1.7-.5-1.8-1.2 0-.2 0-.4.2-.6.2-.2.6-.4.9-.3.3.1.5.4.6.9l.1.1c1.9.3 3.2-.6 3.8-1.1.3-.1.5 0 .3.2"
      class="st1"
    />
    <path
      d="M21.2 43.4h-.8.3s.1-.5 0-.8c0-.3-.2-.3-.2-.5 0-.1-.2-.1-.2-.6l-.1-3.7-.2-.9v-.6l1-.1s.1 1 .3 1.4l.6 1.8c-.5 1.9-.6 3.6-.7 4M22.8 41.6v1.1l.4.7h-1.6l.2-1.1.5-2 .5 1.3"
      class="st3"
    />
    <path d="M25.6 24.6l.3-1.2h.1l.1.5-.5.7" class="st1" />
    <path
      d="M26.3 25.2v.1c1.3 3.7-1.4 4.2-1.4 4.2l-.4 1.9c.2 0 .6.4.9 1 .3.6.1 2-1.5 3.5l-.9 1.2v-.5l.2-.7c.2 0 .3-.1.4-.3v-1.8l1.4-6.3.3-.2c.3-.2.7-1.3 1-2.1M22.5 24.5c.4.9.6 1.5 1.1 2.1l.9.8.2.2-1.2 5.4c-.2-1.6-.5-3.5-.9-4.5l-.2-.6c0-.1-.1 0-.1 0v-.8c.2-.6.2-2 .2-2.6"
      class="st3"
    />
    <path
      d="M19.6 47c-.2-.7 0-1.7 0-1.7l-.1-.2-.2.1v.2l-.1.5c-.2.9-.6 1.2-.9 1.2-.2 0-.4-.3-.4-.6l.1-1.7-.1-.2-.2.1c-.2 1.2-1.5 1.7-2.3 1.7-.5 0-.9-.3-1.1-.5h.1c1.1-.1 1.8-.5 2.1-1.4.1-.3 0-.6-.3-.9l-.1-.1h7.3l.1.1c.3.4.4.5.6.5l.3-.1v.5c.3.9.9 1.3 2 1.4h.1c-.2.2-.6.5-1.1.5-.8 0-2.1-.5-2.3-1.7l-.2-.1-.1.2.1 1.7c0 .3-.2.6-.4.6-.3 0-.7-.3-.9-1.2l-.1-.5v-.2l-.2-.1c-.1 0-.2.1-.1.2V47c-.1.2-.4.7-.7.9a2 2 0 01-.9-.9"
      class="st1"
    />
    <path
      d="M10.9 44.5l-.5-.5-.2-.3c-.2-.2 0-.3.2-.1.6.5 1.9 1.4 3.8 1.1l.1-.1c.1-.5.3-.8.6-.9.3-.1.7.1.9.3.2.2.3.4.2.6-.1.7-.8 1.1-1.8 1.2-1 0-2.5-.4-3.3-1.3M8.4 30.7c-.6.1-1.4-.5-1.4-.6 0-.2 1.6.3 2.5-1.9.4-1 .5-2.1.4-3l.4 2.1c.1 2.4-1.1 3.8-1.2 4-.2.2 0 .3.1.2.2-.1 1.5-1.8 1.6-3.5.1-2.2-.6-3.6-.9-4.3-.3-.7-.6-1-.7-1.1-.3-.4-.5-.4-.6-.2 0 .3-.6 1.2-1.4 1-1-.3-.9-1.1-.8-1.6l.1-.2s.1-.4.6-.6h1c.6.2 1.6 1.1 2.4 2.6 1 1.9 1.3 4.2 1.3 5.4 0 1.2-.3 2.7-.8 3.6-.5.9-1.5 1.2-1.5 1l.1-.9c0-.1 0-.5-.4 0s-.8.7-1 .7l-.3-.8c0-.6.6-1.3.9-1.5 0-.1-.1-.4-.4-.4M9.8 15c.5-.4 1.4-.5 1.8.1.4.6-.2 1.4-.9 1.1-.2-.1-.2-.3-.3-.4-.1-.1-.3.1-.3.4 0 .3.1.7.6.8l.3.1c.1 0 .2.1 0 .2-.3 0-.9 0-1.2-.5-.4-.5-.5-1.3 0-1.8M16 13.4c.2-.6.6-1.1 1.4-1.1.8 0 1.1.5 1.2.8.2.3.3.6.4.4a1 1 0 000-.9c-.2-.4-.9-1-.7-1.7.2-.7.8-.8 1.1-.8l.6.2h.3l.4-.1.6-.2c.2 0 .9.1 1.1.8.2.7-.5 1.3-.7 1.7a1 1 0 000 .9c.1.2.3-.1.4-.4.2-.3.4-.9 1.2-.8.8 0 1.2.5 1.4 1.1.1.2.1.4-.2.2-.4-.2-1.1-.3-1.7.1-.6.5-.5 1-.6 1.3-.1.3-.6-.1-.9-.2l-.8-.1h-.2l-.8.1c-.3.1-.7.5-.9.2-.1-.3 0-.8-.6-1.3s-1.3-.3-1.7-.1c-.4.2-.4.1-.3-.1M29.1 15.1c.4-.6 1.3-.5 1.8-.1s.4 1.3.1 1.8c-.3.5-1 .6-1.2.5-.2 0-.1-.1 0-.2l.3-.1c.4-.2.6-.5.6-.8 0-.3-.3-.4-.3-.4l-.3.4c-.8.3-1.4-.5-1-1.1M14.4 20.1l-.5-1.2-.5 1.2-1.2.1 1 .8-.3 1.3 1.1-.7 1.1.7-.3-1.3 1-.8-1.4-.1M15.9 26.4l-.3-.1-1.6 9.1h.3z"
      class="st1"
    />
    <path
      d="M16.1 26.5l-.4.3-.3-.4.3-1.8.3.5.5-.3zM13.8 37l-.2-2.2.5.4.7-.2z"
      class="st1"
    />
    <path fill="none" d="M.1 3.5h40.7v5.3H.1z" />
    <path
      d="M14.2 7.2V7l.5-.1.1-.1v-.5-1.2-.8h-.1l-.7.3-.1-.3 1.5-.5h.1v3l.1.1.5.1v.1H15.2l-1 .1zM18.1 5.5l-.4-.3-.1-.5c0-.3.1-.5.3-.7.2-.2.5-.3.8-.3l.7.2c.2.1.2.3.2.6l-.1.4-.4.3.5.3.2.6c0 .3-.1.6-.3.8-.2.2-.5.3-.9.3a1 1 0 01-.7-.3 1 1 0 01-.3-.7l.1-.5.4-.2zm.2.1l-.3.3v.3l.2.5.4.2.4-.2.2-.4-.1-.3-.2-.2-.6-.2zm.5-.5l.3-.3.1-.3-.1-.4-.5-.1-.4.1-.1.3.1.3.6.4zM21 6.3h.2l.3.5.5.2.4-.2.2-.5-.2-.5a.8.8 0 00-.5-.2h-.3l.1-.4h.1l.4-.2.2-.4-.1-.3-.4-.1-.3.1-.2.1-.1.3h-.2l.2-.8.4-.2.4-.1.7.2c.2.2.2.4.2.6l-.1.4-.4.3.4.1c.1.1.2.1.2.3l.1.4c0 .4-.2.7-.5.9-.3.2-.6.3-1 .3h-.3l-.3-.1-.1-.7zM26.1 5.4l-.4.3-.4.1-.6-.3-.2-.7c0-.4.1-.7.3-.9.2-.2.5-.3.8-.3l.6.2.4.5.1.8-.2 1.1c-.1.3-.4.5-.6.7-.3.2-.6.3-1 .3l-.2-.2h.2l.5-.2.4-.5c.2-.1.2-.4.3-.9zm-.5 0l.3-.1.2-.5-.1-.7-.4-.1-.3.2-.1.5.1.6.3.1z"
      class="st3"
    />
    <g>
      <path
        d="M54.1 19.2v-.9c.9 0 1.4-.1 1.5-.2.1-.1.2-.3.2-.7l.1-4.6-.1-4.1c0-1.5-.1-2.3-.2-2.5l-.2-.2-1.4-.2v-.9l3.1.1H64.6l.1.2-.3 3h-.9l.1-1.2-.1-.6c-.1-.1-.3-.2-.8-.2l-1.8-.1-1.9.1-.1 2.4v2.7h1.5l1.9-.1.2-.2.2-1.3h.9v4.5h-.9l-.2-1.5-.3-.2-2-.1h-1.3v3.9l.1 1.6.2.2 1.7.2v.9l-3.1-.1-3.7.1zM65.2 19.2v-.8l1.2-.1.2-.2.1-1.1v-2.7l-.1-2.8-.2-.4-1.3-.1v-.8c1.4-.1 2.3-.3 2.9-.5l1-.4.1.2V11.4l1.2-1.3a2 2 0 011.7-.9l.7.1-.1 2.8-.5.2-.5-.6-.7-.2c-.4 0-.8.1-1 .3l-.6.7-.1 2.1.1 3 .2.4c.2.1.7.2 1.5.2v.8h-4.8l-1 .2zM83 18.3v.8h-2l-1.8.1-.1-.2.1-1.4-2.1 1.6-1 .1c-.7 0-1.3-.2-1.7-.6-.4-.4-.6-1.1-.6-1.9 0-1 .3-1.7.8-2.1.7-.5 2.2-1 4.6-1.5 0-.8-.2-1.4-.4-1.7-.4-.5-.9-.7-1.7-.7l-.6.1-.6.2-.5 1.1-.7-.2v-1.3l2.2-1.2 1.4-.2a4 4 0 012 .4c.5.2.9.6 1.1 1 .2.4.3 1 .3 1.8V16.4l.1 1.6.2.3h1zm-3.8-4.2c-1.2.3-2 .5-2.3.8-.4.3-.5.7-.5 1.2 0 .4.1.7.3 1 .2.2.5.4.9.4.5 0 1.1-.3 1.6-.9v-2.5zM84.1 19.2v-.8l1.2-.1.2-.4.1-2.4-.1-4.3c-.1-.2-.3-.3-.7-.3h-.7v-.8a52.8 52.8 0 003.7-.8l.2-.1.1.3v1.4l1.7-1.3c.4-.3.9-.4 1.6-.4.7 0 1.3.1 1.7.4.4.3.8.7 1 1.3l1.7-1.4c.3-.3.8-.4 1.4-.4 1.1 0 1.8.3 2.4.8.5.5.8 1.4.8 2.6v3.3l.1 1.9c0 .2.1.3.2.3l1.1.2v.8l-2.2-.1-1.9.1h-.2l.3-4.3c0-1.7-.1-2.7-.4-3.1-.3-.4-.7-.6-1.4-.6a2 2 0 00-1.1.3l-.6.7-.1 1.8.1 3.7.2.6c.1.1.5.2 1.3.2v.8l-2.6-.1-2.9.1v-.8c.7 0 1.1-.1 1.2-.3.1-.2.2-1 .2-2.6l-.1-3.2a2 2 0 00-.5-1L90 11l-.9.2-.7.7-.2.7v3.2l.1 2.1.2.3 1.1.2v.8l-2.7-.1-2.8.1zM102.7 19.2v-.8l1.3-.1.2-.6.1-2.8v-3l-.1-.7-.7-.2h-.8v-.8c1.6-.1 3-.4 4-.9l.3.2a74.5 74.5 0 00-.1 8.3l.2.4 1.3.2v.8l-2.8-.1-2.9.1zm2.8-14.8c.4 0 .8.2 1.1.5.3.3.5.7.5 1.1 0 .4-.2.8-.5 1.1-.3.3-.7.5-1.1.5-.4 0-.8-.2-1.1-.5-.3-.3-.5-.7-.5-1.1 0-.4.2-.8.5-1.1.3-.4.7-.5 1.1-.5zM109.6 19.2v-.8c.7 0 1.2-.1 1.3-.2l.2-.5.1-3.6v-2.2l-.1-.7-.2-.1-1.2-.1v-.8l1.7-.2 2-.5.3-.1.1.2v1.6l1.6-1.3.6-.3 1.1-.1c.7 0 1.3.1 1.8.4.5.2.8.6 1 1 .2.4.3 1.1.3 2v1.4l-.1 2.9.1.9.2.2 1.1.2v.8h-2.1l-2.1.1-.1-.1a26 26 0 000-7.2c-.3-.5-.8-.8-1.5-.8-.5 0-.9.1-1.2.4-.3.2-.6.5-.7.8l-.1 1v4.2c0 .4.1.6.2.7.1.1.6.2 1.4.2v.8l-3-.1c-.6-.2-1.5-.2-2.7-.1zM132.8 11.3h-1.7l.1.9c0 1.3-.4 2.2-1.3 2.8-.9.6-1.9.9-3.1.9h-.8l-.6.4-.1.4c0 .3.2.5.7.6l4.1.1a6 6 0 011.7.2c.3.1.6.4.8.8a4.1 4.1 0 01-1.3 4.8 6.6 6.6 0 01-4.4 1.4c-1.6 0-2.7-.3-3.5-.8-.8-.5-1.1-1.2-1.1-2.1 0-.5.1-.9.4-1.2l1.1-.8.7-.4-1.1-.4c-.2-.2-.3-.4-.3-.8s.1-.8.4-1.3l.3-.2 1.1-.8c-.8-.3-1.3-.7-1.7-1.1a3.5 3.5 0 01.7-4.4c.8-.7 1.9-1 3.4-1l1.9.2 1.2.6 2.9-.1.2.2-.7 1.1zm-7.2 8.1c-.6.4-.9.8-1.1 1.1a2 2 0 00.5 2.6c.5.4 1.3.6 2.2.6.7 0 1.3-.1 1.8-.3a2 2 0 001.1-.9c.3-.4.4-.8.4-1.3a2 2 0 00-.3-1.1c-.1-.2-.4-.3-.6-.4l-2.3-.1h-1.7zm-.2-7.2c0 1 .2 1.7.5 2.2.3.4.7.6 1.3.6.5 0 .9-.2 1.2-.5.3-.4.4-.9.4-1.7 0-.8-.1-1.5-.4-1.9-.3-.4-.7-.6-1.2-.6s-.9.2-1.2.5c-.5.3-.6.8-.6 1.4zM133.8 19.2v-.8c.7 0 1.2-.1 1.3-.2l.2-.2.1-1.9v-3.8l-.1-5.4c0-.6-.1-1-.2-1.1-.1-.1-.5-.2-1.3-.2v-.7l1.8-.2 1.9-.5.4-.1.2.2v.9l-.1 3.3v2.7l1.3-1.1.6-.4 1.3-.2c1.1 0 1.8.3 2.4.8.5.5.8 1.4.8 2.5v4l.1 1.3.2.2 1.1.1v.8l-2.2-.1-1.9.1-.1-.2a51 51 0 00-.1-7.1c-.3-.5-.8-.8-1.5-.8a2 2 0 00-1.1.3c-.3.2-.6.4-.7.7l-.2 1.5v3.1l.1 1.3.2.2 1.3.2v.8l-2.5-.1-3.3.1zM156 18.3v.8h-2l-1.8.1-.1-.1.1-1.4-2.1 1.6-1 .1c-.7 0-1.3-.2-1.7-.6-.4-.4-.6-1.1-.6-1.9 0-1 .3-1.7.8-2.1.7-.5 2.2-1 4.6-1.5 0-.8-.2-1.4-.4-1.7-.4-.5-.9-.7-1.7-.7l-.6.1-.6.2-.5 1.1-.7-.2v-1.3l2.2-1.2 1.4-.2a4 4 0 012 .4c.5.2.9.6 1.1 1 .2.4.3 1 .3 1.8V16.5l.1 1.6.2.3c0-.2.4-.1 1-.1zm-3.8-4.2c-1.2.3-2 .5-2.3.8-.4.3-.5.7-.5 1.2 0 .4.1.7.3 1 .2.2.5.4.9.4.5 0 1.1-.3 1.6-.9v-2.5zM157.1 19.2v-.8l1.2-.1.2-.4.1-2.4-.1-4.3c-.1-.2-.3-.3-.7-.3h-.7v-.8a52.8 52.8 0 003.7-.8l.2-.1.1.3v1.4l1.7-1.3c.4-.3.9-.4 1.6-.4.7 0 1.3.1 1.7.4.4.3.8.7 1 1.3l1.7-1.4c.3-.3.8-.4 1.4-.4 1.1 0 1.8.3 2.4.8.5.5.8 1.4.8 2.6v3.3l.1 1.9c0 .2.1.3.2.3l1.1.2v.8l-2.2-.1-1.9.1-.1-.2.3-4.3c0-1.7-.1-2.7-.4-3.1-.3-.4-.7-.6-1.4-.6a2 2 0 00-1.1.3l-.6.7-.1 1.8.1 3.7.2.6c.1.1.5.2 1.3.2v.8l-2.6-.1-2.9.1v-.8c.7 0 1.1-.1 1.2-.3.1-.2.2-1 .2-2.6l-.1-3.2a2 2 0 00-.5-1c-.3-.2-.6-.3-1.1-.3l-.9.2-.7.7-.2.7v3.2l.1 2.1.2.3 1.1.2v.8l-2.7-.1c-.5.3-1.4.3-2.9.4zM62.1 32.1c-.2.6-.2 1.3-.3 2.3h-.6v-.7a2 2 0 00-.2-.9c-.1-.2-.4-.3-.9-.5s-1-.3-1.6-.3c-.9 0-1.6.2-2.1.7-.5.5-.8 1-.8 1.7 0 .4.1.8.3 1.1.2.3.5.6.8.7l2.2.4 2.3.4c.4.2.7.5 1 .9.2.4.4.9.4 1.4 0 1.1-.5 2.1-1.4 2.9-.9.8-2.2 1.2-3.7 1.2a8.8 8.8 0 01-3.2-.7l.1-2.6h.6v.4l.1 1 .4.4 1.1.5 1.4.2c1.1 0 1.9-.2 2.4-.7.6-.5.9-1.1.9-1.9a2 2 0 00-.3-1.1l-.8-.7c-.4-.2-1-.3-1.9-.3a9 9 0 01-2.6-.5c-.5-.2-.8-.5-1.1-.9-.3-.4-.4-1-.4-1.6 0-1.1.4-2 1.2-2.7.8-.7 1.9-1 3.3-1l1.7.2 1.7.7zM66.2 36.9v3.3l.1 1.6.3.6.6.2.5-.1.5-.3.2.3-.8 1-.5.1h-.5l-1-.2a.9.9 0 01-.6-.6l-.2-1.1V37l-1.3.1v-.4l1.3-.6-.1-2.6 1.4-.7.2.2-.1 3.1h2.4l-.1.9H66.2zM69.9 37.6v-1.2l.9-.5 1.1-.5 1-.1c.8 0 1.4.2 1.9.5s.8.8.8 1.3l.1 3 .1 2.5c.1.2.2.2.4.2h.7v.6l-1.3-.1-1.3.1v-.7-.7l-1.7 1.3-.5.2-.6.1c-.7 0-1.3-.2-1.6-.5-.4-.4-.6-.8-.6-1.4 0-.6.1-1.1.4-1.5.3-.4.7-.7 1.2-.9.5-.2 1.7-.5 3.5-.8 0-.7-.2-1.2-.5-1.6-.4-.4-.9-.7-1.6-.7l-.8.1-.7.3-.4 1.1-.5-.1zm4.4 1.4c-1.5.3-2.5.6-2.9.9-.4.3-.6.7-.6 1.4 0 .4.1.7.4 1 .2.2.5.4.9.4l1.2-.3c.4-.2.7-.6 1.1-1v-1.8l-.1-.6zM80.3 36.9v3.3l.1 1.6.3.6.6.2.5-.1.5-.3.2.3-.8 1-.5.1h-.5l-1-.2a.9.9 0 01-.6-.6l-.2-1.1V37l-1.3.1v-.4l1.3-.6-.1-2.6 1.4-.7.2.2-.1 3.1h2.4l-.1.9H80.3zM84.9 39.4c0 1.1.3 1.9.8 2.5.5.6 1.2.9 2.1.9a5 5 0 001.2-.2c.4-.1.8-.3 1.1-.6l.1.1-.2.7c-.5.3-.9.5-1.4.6l-1.5.2c-1.1 0-2-.4-2.7-1.1-.7-.7-1-1.7-1-2.9 0-.9.2-1.7.6-2.4.3-.5.7-.9 1.4-1.3s1.4-.6 2-.6c1 0 1.8.3 2.3.9.6.6.9 1.4.9 2.4v.5l-1.1.2-2.5.1h-2.1zm0-.6l2.9.1 1.2-.1v-.5c0-.5-.1-1-.3-1.4-.1-.3-.3-.5-.6-.7L87 36c-.6 0-1.1.2-1.5.7-.4.4-.6 1.1-.6 2.1zM95.6 32.1v-.5l2.5.1 2.4-.1v.5h-.6c-.5 0-.8.1-.9.3-.1.2-.2 1.1-.2 2.7v3.3l.2 2.5c.1.5.5.9 1 1.2.5.3 1.3.5 2.2.5a6 6 0 002.4-.5c.4-.2.8-.6 1-1.1.2-.5.3-1.5.3-2.9V35c0-1.5-.1-2.3-.2-2.5-.1-.2-.5-.3-1.1-.3h-.4v-.5l2.2.1 1.9-.1v.5h-.6c-.4 0-.7.1-.9.4-.1.2-.2 1.1-.2 2.5v3.1l-.2 2.9c-.1.5-.4.9-.8 1.3s-.9.7-1.5 1a7.2 7.2 0 01-4.5.1c-.7-.2-1.2-.5-1.5-.8-.3-.3-.6-.7-.7-1.1l-.2-2.3V35l-.1-2.6c-.1-.2-.4-.3-.9-.3h-.6zM111.6 37l1.3-1.1.5-.3 1.1-.2c.6 0 1.1.1 1.5.4.4.2.7.6.9.9.2.4.3 1 .3 1.8v2.6l.1 1.6c.1.2.3.3.6.3h.6v.5l-1.5-.1a7 7 0 00-1.4.1 46.6 46.6 0 000-6c-.1-.3-.4-.6-.7-.8a2 2 0 00-1.1-.3c-.5 0-1 .1-1.4.4-.4.3-.6.6-.7.9l-.1 1.7v2.8l.1.5.7.2h.6v.5l-2.2-.1-2 .1V43h.6c.4 0 .7-.1.7-.3l.1-3.5V37l-.1-.4-.7-.1h-.6V36l1.3-.2 1.3-.4h.1l.1.2V37zM121.7 35.3l.2.1-.1 1.4-.1 3.6.1 1.9.2.4.6.2.6.1v.5l-2.2-.1-2 .1V43l.7-.1c.3 0 .4-.1.5-.2l.1-.8V39v-2l-.1-.4-.6-.1h-.6V36l1.5-.3 1.2-.4zm-.7-3.7c.3 0 .5.1.7.3.2.2.3.4.3.7 0 .3-.1.5-.3.7a1 1 0 01-.7.3 1 1 0 01-.7-.3 1 1 0 01-.3-.7c0-.3.1-.5.3-.7.2-.2.4-.3.7-.3zM129.5 36v-.5l1.5.1 1.7-.1v.5h-.3l-.4.1-.2.2-.6 1.2-1.4 3.1-1.3 3h-.9a84.6 84.6 0 00-2.8-6.5c-.1-.4-.3-.6-.4-.7l-.6-.2h-.3v-.5l2 .1 1.9-.1v.3h-.4l-.7.1-.1.3.2.6 2 5 1.5-3.6.6-1.7v-.2l-.1-.2-.6-.1-.3-.2zM135.2 39.4c0 1.1.3 1.9.8 2.5.5.6 1.2.9 2.1.9a5 5 0 001.2-.2c.4-.1.8-.3 1.1-.6l.1.1-.3.7c-.5.3-.9.5-1.4.6l-1.5.2c-1.1 0-2-.4-2.7-1.1-.7-.7-1-1.7-1-2.9 0-.9.2-1.7.6-2.4.3-.5.7-.9 1.4-1.3s1.4-.6 2-.6c1 0 1.8.3 2.3.9.6.6.9 1.4.9 2.4v.5l-1.1.2-2.5.1h-2zm0-.6l2.9.1 1.2-.1v-.5c0-.5-.1-1-.3-1.4-.1-.3-.3-.5-.6-.7a2 2 0 00-1.1-.3c-.6 0-1.1.2-1.5.7-.4.5-.6 1.2-.6 2.2zM144.5 37.3l.7-.8c.3-.4.6-.7.9-.8.3-.2.5-.2.8-.2l.7.1.1.2v.1l-.2 1.9h-.4a1 1 0 00-.5-.6l-.6-.2-.9.3c-.3.2-.5.5-.6.9l-.1 2.4.1 2 .2.4.9.2h.5v.5l-2.4-.1-2.2.1V43l.8-.1c.3 0 .5-.1.5-.2l.1-.8.1-2.9c0-1.3-.1-2.1-.2-2.4-.1-.2-.3-.2-.7-.2h-.7V36l1.4-.2 1.1-.4.2-.1.1.1v.2l.3 1.7zM149.3 40.9v.5l.1.8c.1.2.4.4.8.5.4.2.9.3 1.3.3.6 0 1-.2 1.4-.5.4-.3.5-.7.5-1.1 0-.3-.1-.6-.3-.8-.2-.2-.6-.4-1.2-.5a9 9 0 01-2.2-.6c-.4-.2-.6-.4-.8-.7-.2-.3-.3-.6-.3-1 0-.7.3-1.3.8-1.8s1.3-.7 2.3-.7a6 6 0 012.3.5l-.1 1.9h-.5l-.2-1-.7-.6c-.3-.2-.5-.1-.9-.1-.5 0-.9.1-1.2.4-.3.3-.5.6-.5 1s.1.7.4.8c.2.2.9.4 2 .6.8.2 1.3.3 1.6.5.3.1.5.3.6.6.2.3.2.6.2 1 0 .8-.3 1.4-1 1.9a4 4 0 01-2.6.8l-2.3-.3c-.2 0-.2-.1-.2-.2V43l.1-.4.1-1.3v-.4h.5zM158.5 35.3l.2.1-.1 1.4-.1 3.6.1 1.9.2.4.6.2.6.1v.5l-2.2-.1-2 .1V43l.7-.1c.3 0 .4-.1.5-.2l.1-.8V39v-2l-.1-.4-.6-.1h-.6V36l1.5-.3 1.2-.4zm-.7-3.7c.3 0 .5.1.7.3.2.2.3.4.3.7 0 .3-.1.5-.3.7a1 1 0 01-.7.3 1 1 0 01-.7-.3 1 1 0 01-.3-.7c0-.3.1-.5.3-.7.2-.2.4-.3.7-.3zM163.4 36.9v3.3l.1 1.6.3.6.6.2.5-.1.5-.3.2.3-.8 1-.5.1h-.5l-1-.2a.9.9 0 01-.6-.6l-.2-1.1V37l-1.3.1v-.4l1.3-.6-.1-2.6 1.4-.7.2.2-.1 3.1h2.4l-.1.9H163.4zM166.3 47.9l.4-1.3h.2l.5.4.5.1c.3 0 .7-.2.9-.5.3-.3.7-1.3 1.3-2.8l-1.5-3.7-.8-1.9-.6-1.5c-.2-.5-.5-.8-.9-.8h-.3v-.5l1.5.1 2.4-.1v.6h-.6l-.5.1-.1.3.2.6 2 5 1.9-4.7.2-.8c0-.2-.2-.3-.6-.4l-.6-.1v-.5l1.8.1 1.5-.1v.5h-.3l-.4.1-.3.3-1.5 3.2a237.3 237.3 0 01-3.2 7.4c-.2.4-.5.7-.8.8a2 2 0 01-1.1.3l-.5-.1c-.4.1-.5 0-.7-.1z"
        class="st1"
      />
      <path fill="#da9031" d="M54.2 27H175v.6H54.2z" />
    </g>
  </g>
</svg>
