<svg xmlns="http://www.w3.org/2000/svg" viewBox="0 0 175 23.5">
  <path
    fill="#6d6e71"
    fill-rule="evenodd"
    d="M167.7 3c7.9 1.7 4.2 12.3-3.1 10.5V3h3.1zm-42.3 5.2c.3 5-6.5 7.9-9 2.2-.2-.6-.4-2-.3-3.1 1.1-7.2 9.5-4.8 9.3.9zM168.2.5c7.9 1.2 9 11.5 2 14.9-1.3.8-6.7.5-8.1.5V.5h6.1zm-19.7 0l7.4 10.5V.5h2.5v15.4h-2.1L148.7 5v10.9h-2.4V.5h2.2zm-37.3 0v2.4h-8v4.3h7.1v2.5h-7.1V16h-2.4V.5h10.4zM40.3.5V3h-4.5v12.9h-2.5V3h-4.4V.5h11.4zM26.8.5v2.4h-8v4h7.1v2.5h-7.1v4.1h8.1v2.4H16.4V.5h10.4zM133.3.4v9.7c.5 4.6 6.9 4.7 7.1-.5V.4h2.4v9.8c-.7 7-9.4 8.2-11.7 1.7-.5-1.1-.2-10.3-.3-11.5h2.5zM128 8.2c.3 7.4-9.9 11.7-14 3.6-.4-1-.8-3-.7-4.5 1.6-10.7 15-8.1 14.7.9zM12.7 2.3l-1.5 2C.3-3.2-.2 19 10.7 12.6v-3H7.1V7.3h6v6.5C8.8 17.4 2.4 17.2.2 10.7L0 7.4C.9.6 7.5-2 12.7 2.3z"
    clip-rule="evenodd"
  />
  <path
    fill="#fcce0b"
    fill-rule="evenodd"
    d="M71.8 13.1c-1.6.9-3.6 1.5-6 0h6zm-1.1-7l3.7.4c.2.8.3 1.7-.1 3.4-1.3.4-8.2.2-9.5.3l-1.5-.3c-.2-.2-.3-.7-.3-.9l-.1-1.5.2-1.1 3.1-.3h4.5zm1.1-2.8h-5.9a5.2 5.2 0 015.9 0z"
    clip-rule="evenodd"
  />
  <path
    fill="#04a9f5"
    fill-rule="evenodd"
    d="M141.4 21.6h-1.1l.5-1.4.6 1.4zm-18.1 0h-1.1l.6-1.5.5 1.5zm23.1-1.8c.9.4.4 1.6-1.2 1.3v-1.3h1.2zm-44 0c1.3.2 1.6 3.3-.9 2.9v-2.9h.9zm64.4-.8l2.1 2.9V19h.7v4.3h-.6l-2.2-3v3h-.6V19h.6zm-2.5 0v4.3h-.7V19h.7zm-2.4 0v.7h-1.3v3.7h-.7v-3.7h-1.2V19h3.2zm-4.6 0v.7H155v1.1h2.1v.7H155v1.2h2.3v.7h-3V19h3zm-7.2 0v2.1L152 19h.9l-1.7 1.9 1.7 2.4-.9-.1a28 28 0 01-1.3-1.8c-1.1.5-.6 1.3-.7 1.9h-.7V19h.8zm-3.5 0c.7.2 1.8 1.4.1 2.7l1.1 1.7h-.8l-1.1-1.6h-.8v1.6h-.7V19h2.2zm-5.5 0l1.8 4.3h-.7l-.5-1.1h-1.8l-.5 1.1h-.7v-.2l1.7-4.1h.7zm-7 0l1.3 2.1 1.3-2.1h.7v4.3h-.8v-2.8a46 46 0 01-1.1 1.7h-.3l-1-1.7-.1 2.9h-.7V19h.7zm-7.1 0v3.7h2.1v.7h-2.8V19h.7zm-3.9 0l1.7 4.3h-.7l-.5-1.1h-1.8l-.5 1.1h-.7l1.7-4.3h.8zm-3.7 0v.7h-1.3v3.7h-.7v-3.7h-1.3V19h3.3zm-4.8 0v4.3h-.6V19h.6zm-7.9 0v4.3h-.7V19h.7zm-4.1 0c2.8.8 1.7 5.2-1.9 4.3V19h1.9zm72.3.6l-.4.6c-2.3-2.4-3.8 3.8-.2 2.3v-.8h-1.1V21h1.9v1.8c-1.2 1.4-4.2.5-3.7-2.1.5-1.4 1.5-2.5 3.5-1.1zm-62.9 0l-.4.5c-2.4-2.3-3.7 3.8-.1 2.3v-.8h-1.1v-.7h1.8v1.9c-4.3 3.2-5.2-6.1-.2-3.2zm-41.3-5.4c.9.1 2.2.1 3.1.4-3.1 2.1-6.5 2.6-10.1-.1l3.3-.3h3.7zm-4.9-4h5.5l2.9-.3c.6 0 1.3-.3 2.6-.3-.2 1-.7 2.4-1.5 3.5l-11.3.1c-.6 0-1.3.1-1.9-.1a7.7 7.7 0 01-1.5-3.4l5.2.5zm9.6-6.9c.1.3 1.5 2.4 1.5 3.5L71 6.2h-5.3c-1.6.1-3.4.3-4.9.7l-.1-.1c.1-1.1.6-2.4 1.5-3.5h13.2zm7-3.1v9c0 3.5 4.7 4.4 5.3.2V.2h4V10a6.7 6.7 0 01-12.8 2.4c-.8-1.6-.4-10.5-.5-12.1h4zM51.7.2l3 5.7 3-5.7h4.5l-5.5 10v5.9h-4.1v-5.9L47.1.2h4.6zm22.1 1.6l-3.3.4h-4.4l-2.5-.3c3-2.3 6.5-2.7 10.2-.1z"
    clip-rule="evenodd"
  />
  <path
    fill="#005ca7"
    fill-rule="evenodd"
    d="M65.7 13.2c1.2.5 2.8 1.2 4.9.5l3.1.9h-.6l-2.9-.3h-3.1l-4.6-1.1h3.2zm11.1-3.6l-2.5.4.3-1.1 2.2.7zM63.2 6.5L63 7.6c-.7-.3-1.7-.5-2.2-.9l1.8-.3h.6zm8-4.5l4 1.4h-3.4C69.7 1.9 67.5 3 64.4 2h6.8z"
    clip-rule="evenodd"
  />
</svg>
