<svg xmlns="http://www.w3.org/2000/svg" viewBox="0 0 175 54.9">
  <style>
    .st0 {
      fill: #3d2917;
    }
  </style>
  <path
    d="M22 10.3c-1.5.2-1.7.4-1.7 1.9v2.2c0 .9 0 1.8.2 2.5-1.6.4-3.8 1-5.9 1-5.9 0-9.7-3.6-9.7-8.8C4.9 3 9.8 0 15 0c2.2 0 4.2.6 5.1.8l.4 4.1-.8.2C19.1 1.9 17.1 1 14.6 1c-3.8 0-6.7 2.9-6.7 7.7 0 3.8 2.2 8.2 7.1 8.2a6 6 0 002.1-.4c.5-.3.8-.6.8-1.7v-2.3c0-1.9-.2-2-2.8-2.3v-.7H22v.8zM38.9 17.7H38c-2.2-.1-3.3-.7-4.5-2.4-.9-1.2-1.8-2.8-2.5-4.1-.5-.8-.9-1.1-2.2-1.1H28v4.1c0 2.2.2 2.4 2.3 2.5v.8h-7.1v-.8c2.1-.2 2.4-.3 2.4-2.5V3.7c0-2.2-.2-2.3-2.3-2.5V.4H30c2 0 3.3.2 4.3.9 1.1.7 1.8 1.8 1.8 3.4 0 2.3-1.4 3.6-3.3 4.5a48.3 48.3 0 004.4 6.6c.7.7 1.3 1.1 1.8 1.2l-.1.7zm-9.7-8.6c1.3 0 2.2-.2 2.8-.7 1-.8 1.4-1.8 1.4-3.2 0-2.8-1.8-3.9-3.7-3.9-.8 0-1.2.1-1.4.3-.2.2-.3.4-.3 1.1v6.5h1.2zM53.9 13.3l-.9 4.2H40.2v-.8c2.4-.2 2.6-.4 2.6-2.5V3.8c0-2.3-.2-2.4-2.2-2.6V.4h11.8l.2 3.8-.8.1a4.5 4.5 0 00-.9-2.2c-.4-.6-1.1-.8-2.9-.8h-1.9c-.8 0-.9.1-.9.9v5.9h2.4c2.3 0 2.5-.2 2.8-2h.8v5.1h-.8c-.3-1.9-.6-2-2.8-2h-2.4V14c0 1.2.2 1.8.6 2.2.5.3 1.4.3 2.7.3 1.9 0 2.7-.2 3.2-.9.5-.6.9-1.4 1.3-2.5l.9.2zM68.6 13.3l-.9 4.2H54.9v-.8c2.4-.2 2.6-.4 2.6-2.5V3.8c0-2.3-.2-2.4-2.2-2.6V.4h11.8l.2 3.8-.8.1a4.5 4.5 0 00-.9-2.2c-.4-.6-1.1-.8-2.9-.8h-1.9c-.8 0-.8.1-.8.9v5.9h2.4c2.3 0 2.5-.2 2.8-2h.8v5.1h-.8c-.3-1.9-.6-2-2.8-2H60V14c0 1.2.2 1.8.6 2.2.5.3 1.4.3 2.7.3 1.9 0 2.7-.2 3.2-.9.5-.6.9-1.4 1.3-2.5l.8.2zM88 1.2c-1.5.1-2.1.4-2.2 1.6-.1.8-.2 2-.2 4.4v10.6h-.9l-11-13.7h-.1v6.5c0 2.4.1 3.6.2 4.4.1 1.3.7 1.7 2.5 1.8v.8H70v-.8c1.5-.1 2.2-.4 2.3-1.7.1-.8.2-2.1.2-4.5V4.8c0-1.9-.1-2-.6-2.7-.5-.7-1.1-.9-2.3-1V.4h4.1l10.8 12.9h.1V7.1c0-2.4-.1-3.6-.2-4.4-.1-1.2-.7-1.5-2.6-1.6V.4H88v.8zM98.5 4.4C98 2.8 97.3.9 95 .9a2.8 2.8 0 00-2.9 2.8c0 1.8 1.2 2.7 3.3 3.8 2.2 1.1 4.5 2.4 4.5 5.3 0 2.8-2.4 5-5.9 5a8.9 8.9 0 01-4-1c-.2-.6-.6-2.8-.7-4.1l.8-.2c.4 1.6 1.7 4.3 4.3 4.3 1.9 0 3.1-1.2 3.1-3.1S96.3 11 94.3 10c-1.9-1-4.4-2.3-4.4-5.2C89.9 2.2 92 0 95.4 0c1.3 0 2.5.3 3.4.6l.5 3.6-.8.2zM110.7 8.3c2.7.4 4.7 1.5 4.7 4.2 0 1.7-1 3.1-2.5 3.9-1.3.8-3.2 1.1-5.2 1.1h-6v-.8c2.2-.2 2.4-.3 2.4-2.5V3.7c0-2.2-.1-2.3-2.2-2.5V.4h6.9c2 0 3.2.3 4 .9.9.6 1.5 1.8 1.5 3 0 2.5-2.1 3.5-3.6 4zm-3-.3c2.8 0 4-1.1 4-3.3 0-1.9-1.1-3.3-3.4-3.3-.6 0-1.2.1-1.4.3-.2.2-.3.5-.3 1.3v5h1.1zm-1.1 6.1c0 1.9.5 2.4 2.1 2.4 2 0 3.9-1.1 3.9-3.8 0-2.6-1.8-3.8-4.9-3.8h-1.1v5.2zM135.2 8.7c0 5.7-4 9.1-8.8 9.1s-8.6-3.7-8.6-8.8c0-4.7 3.3-9.1 8.9-9.1 4.5.1 8.5 3.6 8.5 8.8zm-14.5-.3c0 4.8 2.6 8.5 6.2 8.5 2.8 0 5.3-2.4 5.3-7.5 0-5.5-2.7-8.5-6.1-8.5-2.8.1-5.4 2.6-5.4 7.5zM152 17.7h-.9c-2.2-.1-3.3-.7-4.5-2.4-.9-1.2-1.8-2.8-2.5-4.1-.5-.8-.9-1.1-2.2-1.1h-.8v4.1c0 2.2.2 2.4 2.3 2.5v.8h-7.1v-.8c2.1-.2 2.4-.3 2.4-2.5V3.7c0-2.2-.2-2.3-2.3-2.5V.4h6.7c2 0 3.3.2 4.3.9 1.1.7 1.8 1.8 1.8 3.4 0 2.3-1.4 3.6-3.3 4.5a48.3 48.3 0 004.4 6.6c.7.7 1.3 1.1 1.8 1.2l-.1.7zm-9.7-8.6c1.3 0 2.2-.2 2.8-.7 1-.8 1.4-1.8 1.4-3.2 0-2.8-1.8-3.9-3.7-3.9-.8 0-1.2.1-1.4.3-.2.2-.3.4-.3 1.1v6.5h1.2zM170.4 8.7c0 5.7-4 9.1-8.8 9.1S153 14.1 153 9c0-4.7 3.3-9.1 8.9-9.1 4.5.1 8.5 3.6 8.5 8.8zm-14.5-.3c0 4.8 2.6 8.5 6.2 8.5 2.8 0 5.3-2.4 5.3-7.5 0-5.5-2.7-8.5-6.1-8.5-2.9.1-5.4 2.6-5.4 7.5z"
    class="st0"
  />
  <g>
    <path
      d="M23.7 38.7h-.9c-2.2-.1-3.2-.7-4.4-2.3-.9-1.2-1.8-2.7-2.5-3.9-.5-.7-.9-1-2.2-1H13v3.9c0 2.1.2 2.2 2.3 2.4v.7h-7v-.7c2.1-.1 2.3-.3 2.3-2.4v-9.8c0-2.1-.2-2.2-2.2-2.4v-.7H15c2 0 3.2.2 4.2.9 1.1.6 1.7 1.7 1.7 3.2 0 2.1-1.4 3.4-3.3 4.2l2.3 3.6c.9 1.3 1.5 2 2.1 2.6.7.7 1.2 1 1.8 1.1l-.1.6zm-9.6-8.1c1.3 0 2.1-.2 2.8-.7 1-.7 1.4-1.7 1.4-3 0-2.7-1.8-3.6-3.7-3.6-.8 0-1.2.1-1.4.2-.2.1-.3.4-.3 1.1v6.1h1.2zM36.3 38.5v-.7c1.6-.2 1.8-.4 1.5-1.4l-1.3-3.6H31l-1.1 3.1c-.5 1.5-.3 1.8 1.6 1.9v.7h-5.7v-.7c1.7-.2 2-.4 2.9-2.6L34 22.3l.9-.2 5 13.1c.8 2.1 1.2 2.4 2.9 2.5v.7h-6.5zm-2.5-13a77 77 0 00-2.4 6.1H36l-2.2-6.1zM52.8 22.4c3.3 0 5.7.6 7.4 2.1a7 7 0 012.2 5.3c0 3-1.2 5.2-3.2 6.6-1.9 1.4-4.6 2-7.8 2h-6.2v-.7c2.2-.1 2.4-.3 2.4-2.4v-9.8c0-2.1-.2-2.2-2.2-2.4v-.7h7.4zM50 35.2c0 1.8.8 2.3 2.6 2.3 4.6 0 6.9-3.3 6.9-7.3 0-2.5-1-4.7-2.9-5.8a7.4 7.4 0 00-4.4-1.1c-1.1 0-1.7.1-2 .3-.1.2-.2.5-.2 1.4v10.2zM65.5 38.5v-.7c2.1-.1 2.3-.3 2.3-2.4v-9.8c0-2.1-.2-2.2-2.3-2.4v-.7h7v.7c-2.1.2-2.3.3-2.3 2.4v9.8c0 2.1.2 2.2 2.3 2.4v.7h-7zM93.3 30.2c0 5.3-3.9 8.6-8.7 8.6a8.2 8.2 0 01-8.5-8.2c0-4.4 3.3-8.5 8.8-8.5 4.5 0 8.4 3.2 8.4 8.1zM79 30c0 4.5 2.5 8 6.2 8 2.8 0 5.3-2.3 5.3-7 0-5.2-2.7-7.9-6-7.9-3-.1-5.5 2.3-5.5 6.9zM108.6 34.5l-.9 3.9h-12v-.7c2.2-.1 2.4-.3 2.4-2.4v-9.8c0-2.1-.2-2.2-2.3-2.4v-.7h7v.7c-2 .1-2.3.3-2.3 2.4v9.7c0 1.3.1 1.8.6 2 .5.3 1.4.3 2.4.3 1.4 0 2.3-.1 2.9-.8.5-.5.9-1.3 1.3-2.4l.9.2zM127.7 30.2c0 5.3-3.9 8.6-8.7 8.6a8.2 8.2 0 01-8.5-8.2c0-4.4 3.3-8.5 8.8-8.5 4.5 0 8.4 3.2 8.4 8.1zm-14.3-.2c0 4.5 2.5 8 6.2 8 2.8 0 5.3-2.3 5.3-7 0-5.2-2.7-7.9-6-7.9-3-.1-5.5 2.3-5.5 6.9zM148 31.7c-1.5.2-1.6.3-1.6 1.8v2.1c0 .9 0 1.7.2 2.3-1.6.4-3.8.9-5.8.9-5.8 0-9.6-3.4-9.6-8.3 0-5.7 4.8-8.5 10-8.5 2.2 0 4.2.5 5 .7l.4 3.9-.8.1c-.6-3-2.6-3.8-5.1-3.8-3.8 0-6.7 2.8-6.7 7.3 0 3.6 2.2 7.7 7 7.7.8 0 1.6-.1 2.1-.4.5-.2.8-.6.8-1.6v-2.1c0-1.8-.2-1.9-2.7-2.1V31h6.8v.7zM166.1 23.1c-1.8.2-2.1.5-3.1 2-1.1 1.8-2 3.1-3.2 5.3a3 3 0 00-.4 1.6v3.3c0 2.1.2 2.3 2.6 2.4v.7h-7.5v-.7c2.3-.1 2.5-.3 2.5-2.4v-3.2c0-.5-.1-.8-.5-1.5l-3.2-5.5c-1-1.7-1.3-1.9-2.9-2.1v-.7h6.4v.7c-1.8.2-1.8.5-1.3 1.4l3.4 5.8c.9-1.6 2.3-4 3-5.5.6-1.2.5-1.4-1.5-1.6v-.7h5.8v.7z"
      class="st0"
    />
  </g>
  <g>
    <path
      d="M15.8 49.6H14V49h4.3v.6h-1.8v5.1h-.8v-5.1zM19.7 49v2.4h2.8V49h.8v5.8h-.8v-2.7h-2.8v2.7H19V49h.7zM27.6 52.1h-2.2v2.1h2.5v.6h-3.3V49h3.1v.6h-2.4v1.8h2.2v.7zM36.3 52.3l-.1-2.5-.7 2.2-1 2.8h-.6l-1-2.8-.7-2.2-.1 2.6-.2 2.5h-.7l.4-5.8h1l1 2.8.6 1.9.6-1.9 1-2.8h1l.4 5.8h-.7l-.2-2.6zM41.3 52.1H39v2.1h2.5v.6h-3.3V49h3.1v.6H39v1.8h2.2v.7zM42.5 49.1l1.6-.1c1.1 0 1.8.2 2.3.7.5.5.8 1.1.8 2.1 0 .9-.3 1.7-.8 2.2-.5.5-1.4.8-2.6.8l-1.4-.1v-5.6zm.7 5.1h.8c1.6 0 2.5-.9 2.5-2.5 0-1.4-.8-2.2-2.3-2.2l-.9.1v4.6zM49 49v5.8h-.7V49h.7zM54.3 54.6c-.3.1-.8.3-1.5.3-1.6 0-2.9-1-2.9-2.9 0-1.8 1.2-3 3-3 .7 0 1.2.2 1.4.3l-.2.6-1.2-.2c-1.4 0-2.3.9-2.3 2.4 0 1.4.8 2.3 2.2 2.3l1.2-.2.3.4zM56.2 53l-.6 1.8h-.8l2-5.8h.9l2 5.8h-.8l-.6-1.8h-2.1zm1.9-.6l-.6-1.7-.3-1.1-.3 1-.6 1.7h1.8zM60.5 49h.7v5.2h2.5v.6h-3.2V49zM67.9 49v5.8h-.7V49h.7zM74.1 52.3l-.1-2.5-.7 2.2-1 2.8h-.6l-1-2.8-.7-2.2-.1 2.6-.2 2.5H69l.4-5.8h1l1 2.8.6 1.9.6-1.9 1-2.8h1l.4 5.8h-.7l-.2-2.6zM77 53l-.6 1.8h-.8l2-5.8h.9l2 5.8h-.8L79 53h-2zm1.9-.6l-.6-1.7-.3-1.1-.3 1-.6 1.7h1.8zM85.5 54.5a6 6 0 01-1.8.3c-.9 0-1.6-.2-2.2-.8-.5-.5-.8-1.3-.8-2.2 0-1.7 1.2-3 3.1-3 .7 0 1.2.1 1.4.3l-.2.6a4 4 0 00-1.3-.2c-1.4 0-2.3.9-2.3 2.3 0 1.5.9 2.3 2.2 2.3l1-.2v-1.7h-1.2v-.6h1.9v2.9zM87.4 49v5.8h-.7V49h.7zM88.7 54.8V49h.8l1.9 2.9c.4.7.8 1.3 1 1.9l-.1-2.4V49h.7v5.8h-.8l-1.8-2.9-1.1-1.9.1 2.4v2.5h-.7zM98.8 54.5a6 6 0 01-1.8.3c-.9 0-1.6-.2-2.2-.8-.5-.5-.8-1.3-.8-2.2 0-1.7 1.2-3 3.1-3 .7 0 1.2.1 1.4.3l-.2.6a4 4 0 00-1.3-.2c-1.4 0-2.3.9-2.3 2.3 0 1.5.9 2.3 2.2 2.3l1-.2v-1.7h-1.2v-.6h1.9v2.9zM102.5 49.1l1.4-.1c.7 0 1.3.2 1.6.5.3.3.5.7.5 1.2s-.2.9-.4 1.2c-.4.4-1 .6-1.8.6l-.6-.1v2.3h-.7v-5.6zm.8 2.8l.6.1c.9 0 1.4-.4 1.4-1.2 0-.8-.5-1.1-1.4-1.1l-.7.1v2.1zM107.1 49.1l1.4-.1c.8 0 1.3.1 1.7.5.3.3.5.7.5 1.1 0 .8-.5 1.3-1.1 1.5.4.2.7.6.8 1.2l.4 1.6h-.8l-.4-1.4c-.2-.8-.5-1.1-1.2-1.1h-.7v2.5h-.7v-5.8zm.7 2.6h.8c.8 0 1.3-.4 1.3-1.1 0-.7-.5-1.1-1.3-1.1l-.7.1v2.1zM116.6 51.8c0 2-1.2 3-2.7 3-1.5 0-2.6-1.2-2.6-2.9 0-1.8 1.1-3 2.7-3s2.6 1.2 2.6 2.9zm-4.4.1c0 1.2.7 2.3 1.8 2.3 1.2 0 1.9-1.1 1.9-2.4 0-1.1-.6-2.4-1.8-2.4-1.3.1-1.9 1.3-1.9 2.5zM117.6 49h3.1v.6h-2.4v1.9h2.2v.6h-2.2v2.6h-.7V49zM124.8 52.1h-2.2v2.1h2.5v.6h-3.3V49h3.1v.6h-2.4v1.8h2.2v.7zM125.9 53.9c.3.2.8.4 1.3.4.8 0 1.2-.4 1.2-1 0-.5-.3-.9-1.1-1.2-.9-.3-1.5-.8-1.5-1.6 0-.9.7-1.6 1.9-1.6.6 0 1 .1 1.3.3l-.2.6c-.2-.1-.6-.3-1.1-.3-.8 0-1.1.5-1.1.9 0 .5.4.8 1.1 1.1 1 .4 1.5.8 1.5 1.7 0 .9-.7 1.7-2 1.7a3 3 0 01-1.5-.4l.2-.6zM130.1 53.9c.3.2.8.4 1.3.4.8 0 1.2-.4 1.2-1 0-.5-.3-.9-1.1-1.2-.9-.3-1.5-.8-1.5-1.6 0-.9.7-1.6 1.9-1.6.6 0 1 .1 1.3.3l-.2.6c-.2-.1-.6-.3-1.1-.3-.8 0-1.1.5-1.1.9 0 .5.4.8 1.1 1.1 1 .4 1.5.8 1.5 1.7 0 .9-.7 1.7-2 1.7a3 3 0 01-1.5-.4l.2-.6zM135.2 49v5.8h-.7V49h.7zM141.5 51.8c0 2-1.2 3-2.7 3-1.5 0-2.6-1.2-2.6-2.9 0-1.8 1.1-3 2.7-3 1.5 0 2.6 1.2 2.6 2.9zm-4.5.1c0 1.2.7 2.3 1.8 2.3 1.2 0 1.9-1.1 1.9-2.4 0-1.1-.6-2.4-1.8-2.4-1.3.1-1.9 1.3-1.9 2.5zM142.4 54.8V49h.8l1.9 2.9c.4.7.8 1.3 1 1.9l-.1-2.4V49h.7v5.8h-.7l-1.8-2.9-1.1-1.9.1 2.4v2.5h-.8zM149 53l-.6 1.8h-.8l2-5.8h.9l2 5.8h-.8L151 53h-2zm1.9-.6l-.6-1.7-.3-1.1-.3 1-.6 1.7h1.8zM153.3 49h.7v5.2h2.5v.6h-3.2V49zM157.3 53.9c.3.2.8.4 1.3.4.8 0 1.2-.4 1.2-1 0-.5-.3-.9-1.1-1.2-.9-.3-1.5-.8-1.5-1.6 0-.9.7-1.6 1.9-1.6.6 0 1 .1 1.3.3l-.2.6c-.2-.1-.6-.3-1.1-.3-.8 0-1.1.5-1.1.9 0 .5.4.8 1.1 1.1 1 .4 1.5.8 1.5 1.7 0 .9-.7 1.7-2 1.7a3 3 0 01-1.5-.4l.2-.6z"
      class="st0"
    />
  </g>
  <path fill="none" stroke="#5f5341" d="M0 43.4h175" />
</svg>
