<svg xmlns="http://www.w3.org/2000/svg" viewBox="0 0 175 82.3">
  <path
    fill="#173359"
    fill-rule="evenodd"
    d="M37.8 71.2c3.5-6.2 9.7-18.7 9.7-18.7h1.4c0 .1-1.9 14.6-11.1 18.7zm25.6-29v7.3H62v-7.3h1.4zm15.2 6.9h-3.5v-6.9l3.5.3v6.6zm92.6-21.4v35.2h-33.9V27.7h33.9zM98.7 38h-7.6V24.2L98.7 38zm-35.3 0h-7.6l7.6-13.8V38zM53 9.7c-1.4 2.1-4.8 5.5-6.9 7.6-1.4-3.5-11.1-4.9-13.8-4.8-16.6.3-20 20.7-20 29.7 0 22.1 11.4 27.6 11.1 27l11.7-17.3H23.3V38h19.4L61.3 2.8h13.8V38h3.5V2.8h13.8L111.8 38h15.9s-.5 2.2 4 2.2c3.5 0 3.6-1.6 3.6-1.6V24.2l2.2-1.9s-2.9.3-2.9-2.4c0-3.3 2.1-4 2.1-4h35.9s2.2.5 2.2 3.6-2.8 3-2.8 3l2 1.7v42.2l.3 1.6s-2.1.5-.3 1.9c1.7 1.4.7 4.8.7 4.8h-40.1v-4.8l2.8-2.1-2.1-1.4V52.6s.2-2.1-3.6-2.1c-4.1 0-3.5 1.4-3.5 1.4h-9.5l15.9 29.7h-12.4l-15.9-29.7H90.4v29.7H78.6V51.9h-3.5v29.7H62.7V51.9H62s1 30.4-30.4 30.4C6.6 82.3 0 59.5 0 40.6 0 12 19.6-.5 33 0c11.3.5 16.6 4.9 20 9.7z"
    clip-rule="evenodd"
  />
</svg>
