<svg xmlns="http://www.w3.org/2000/svg" viewBox="0 0 172 80.9">
  <path
    fill="#173359"
    fill-rule="evenodd"
    d="M37.2 70c3.4-6.1 9.5-18.3 9.5-18.3h1.4S46.2 65.9 37.2 70zm25.1-28.5v7.1H61v-7.1h1.3zm15 6.8h-3.4v-6.8l3.4.3v6.5zm91-21.1v34.6H135V27.2h33.3zM97 37.4h-7.5V23.8L97 37.4zm-34.7 0h-7.5l7.5-13.6v13.6zM52.1 9.5c-1.4 2-4.8 5.4-6.8 7.5-1.4-3.4-10.9-4.8-13.6-4.8C15.4 12.5 12 32.6 12 41.4c0 21.7 11.2 27.2 10.9 26.5l11.5-17H22.9V37.4h19L60.3 2.7h13.6v34.7h3.4V2.7h13.6l19 34.7h15.6s-.5 2.2 3.9 2.2c3.4 0 3.6-1.5 3.6-1.5V23.8l2.2-1.9s-2.9.3-2.9-2.4c0-3.2 2-3.9 2-3.9h35.3s2.2.5 2.2 3.6-2.8 2.9-2.8 2.9l1.9 1.7v41.4l.3 1.5s-2 .5-.3 1.9.7 4.8.7 4.8h-39.4v-4.8l2.7-2-2-1.4V51.7s.2-2-3.6-2c-4.1 0-3.4 1.4-3.4 1.4h-9.3l15.6 29.2H120L104.5 51H88.8v29.2H77.3V51h-3.4v29.2H61.6V51H61s1 29.9-29.9 29.9C6.5 80.9 0 58.5 0 39.9 0 11.8 19.2-.5 32.4 0c11.1.5 16.3 4.8 19.7 9.5z"
    clip-rule="evenodd"
  />
</svg>
