<svg xmlns="http://www.w3.org/2000/svg" viewBox="0 0 175 41.9">
  <style>
    .st0 {
      fill: #006269;
    }
    .st1 {
      fill: #fff;
    }
  </style>
  <g id="g2826_1_" transform="matrix(0 1.25 1.25 0 -704 -188.3)">
    <g id="g3080_1_" transform="matrix(.95133 0 0 .95133 8.7 29.3)">
      <path
        id="path2918_1_"
        d="M184.4 575.8l-11.9-14.7h-23.4v29.3h23.4l11.9-14.6"
        class="st0"
      />
      <path
        id="path2920_1_"
        d="M151.4 587.5v-24.1h19.4l-19.4 24.1"
        class="st1"
      />
      <g id="g2922_1_">
        <g id="g2924_1_">
          <path
            id="path2930_1_"
            d="M167.8 574.9l.2-1.2c-.1-.5-.7-1-.5-1.5.2-.5.8-.6 1.2-.3-.5 0-.7.3 0 1 .3 0 .6.4.5.7.2.1.3.1.4 0 0 .3-.3.6-.6.6 0 .6.4.7.4 1.1 0 .3-.2.4-.4.5-.1-.4-.7-.9-1.2-.9zm.7 7.1c-.4-.4 0-1.5.7-1.8.5-.3 1.1.1 1.2-.1.6-.5.1-1.3.5-1.7.3-.3 1-.4 1.3.3-.5-.1-.8-.1-.5.7.3.8-.2 1.1-.3 1.2h.7c-.1.3-.3.6-.7.6-.3 0-.4-.3-.6-.2-.5.1-.2 1.1-.6 1.2-.6.1-.7-.6-1-.6-.3 0-.6.2-.7.4zm-3.4 1c.3 0 .8.3 1.2 1.1-.2-.7-.2-1.4.2-1.6.1.4.6 1.2.9 1.4 0 .5-.2 1.1-.8 1-.9 0-1-1.4-1.5-1.5-.4 0-.6.4-.4.7.3-.3.6-.2.8 0-.5.2-.5.9.5 1.4-.8.1-1.8-.4-1.8-1.5s.6-1 .9-1zm4.8-4.8v-.6.6zm0 6.2c.1.5.4.9.6.9-.4-1.2 1.2-1.4 1.4-.7-.2 0-.4-.2-.6.1-.2.3.4 1.3-.2 1.8.1.2.3.1.5.1-.5.7-1.3.3-1.2-.2a2 2 0 01-.6-.4l-1-.4c.1-.4.2-1.1 0-1.4-.8-.3-1.4-.4-2-1.4-.6-1-.3-2.4.1-3.1-1 .2-.3 2.2-1.4 2.3.1-.4.1-1.2-.2-1.6-.3.7.6 1.9-1.2 2.3.1-.7.1-1.4-.2-1.7-.4.8.7 3-1.6 5.1 1.1-2.3.1-4.7.2-6.3 0-1.6 1.8-1.5 2.5-1.3.7.2 1.2.1 1.2-.2 0-.3-.2-.4-1.1-.2-.9.1-1.6 0-1.6-.9-.1-1.2 0-1.2.4-1.3 0-1.2.4-1.2 1.3-.9-.4-.2-.5.6-.3.8.2 0 .3-.4.1-.5.2 0 .3.1.5.3 1.1-.8 2.7-.6 3.2.3h-.7c.2.2.5.4 1.2.3l.7-.3c.4-.3.8-.7 1.4-.7-.3-.6-.2-1.3.3-1.5.5-.2.7.3.7.3s-.3-.1-.5.1.9 1.1-.2 1.9h.6c-.4.8-1.2.4-1.5.5-.3.1-.4.6-.9.8h-.1l.1.4v.6c-.3 1.3-2 2.3-1.8 3.7.2 1 1.1 1.1 1.8 1.2h.2l-.2.3.1.9zm-5.8-8.1v.7s.3-.2.2-.4c0-.2-.2-.3-.2-.3"
            class="st1"
          />
        </g>
      </g>
      <path
        id="path2932_1_"
        d="M161.2 573c.3-1.2.5-2 .5-2.9 0-2.7-1.8-4.7-4.3-4.7a4.1 4.1 0 00-4 2.8 5.8 5.8 0 00.1 3.9h-.5v.7h2.2v-.7h-1c-.3-.6-.5-1.1-.5-1.9 0-1.7 1.6-3 3.6-3 1.9 0 3.6 1.5 3.6 3.2l-.2 1h-2.1v-1.1h-.5v3.6h.5v-.9h2.6"
        class="st0"
      />
    </g>
    <g id="g3156_1_" transform="translate(-.6 -1.6)">
      <g id="g3136_1_">
        <path
          id="path2934_1_"
          d="M164.4 611.5c.5-1.8.7-3 .7-4.2 0-4.1-2.6-6.9-6.4-6.9a6.2 6.2 0 00-5.9 4.1c-.3.8-.4 1.7-.4 2.7 0 1.1.1 1.8.6 3h-.7v1h3.3v-1h-1.4c-.5-.9-.7-1.7-.7-2.8 0-2.5 2.3-4.5 5.3-4.5 2.9 0 5.3 2.1 5.3 4.7 0 .5-.1.8-.3 1.4h-3.1v-1.6h-.8v5.4h.8v-1.4h3.7"
          class="st0"
        />
        <path
          id="path2936_1_"
          d="M164.8 624.5v-1.8c0-.8-.1-1-.8-1.5l-3.4-2.2v-.4h3.6v1.1h.6v-4h-.6v1.1h-8.3v-1.1h-.6v4.2c0 1.2.2 1.9.7 2.4.5.5 1.1.7 1.9.7 1.3 0 2.1-.7 2.5-2l3.1 2c.5.3.6.5.6.8v.6l.7.1zm-4.9-5.9v.8c0 1-.8 1.7-1.9 1.7-1.2 0-1.8-.6-1.8-1.6v-.9h3.7"
          class="st0"
        />
        <path
          id="path2938_1_"
          d="M165 632c0-2.6-2.2-4.7-4.9-4.7a4.8 4.8 0 00-4.9 4.7c0 2.6 2.2 4.8 4.9 4.8s4.9-2.1 4.9-4.8zm-.8 0c0 1.5-1.9 2.7-4.1 2.7-2.2 0-4.1-1.3-4.1-2.7 0-1.4 1.9-2.7 4.1-2.7 2.2 0 4.1 1.3 4.1 2.7"
          class="st0"
        />
        <path
          id="path2940_1_"
          d="M164.9 640.5v-.8h-2.6v.8h1.1c.5.6.7 1.1.7 1.8 0 .9-.5 1.5-1.3 1.5-.6 0-1.1-.4-2-1.8-.9-1.4-1-1.6-1.5-2-.4-.4-1-.5-1.6-.5-1.6 0-2.6 1.2-2.6 2.9 0 .6.1 1 .3 1.6h-.4v.8h2.5v-.8h-1c-.4-.6-.5-1-.5-1.5 0-.7.5-1.3 1.2-1.3.6 0 .9.3 1.8 1.7a7.4 7.4 0 001.7 2.1c.4.3.9.4 1.5.4 1.6 0 2.8-1.2 2.8-2.9a4 4 0 00-.6-2.1h.5"
          class="st0"
        />
        <path
          id="path2942_1_"
          d="M164.9 649.2v-.8h-2.6v.8h1.1c.5.6.7 1.1.7 1.8 0 .9-.5 1.5-1.3 1.5-.6 0-1.1-.4-2-1.8-.9-1.4-1-1.6-1.5-2-.4-.4-1-.5-1.6-.5-1.6 0-2.6 1.2-2.6 2.9 0 .6.1 1 .3 1.6h-.4v.8h2.5v-.8h-1c-.4-.6-.5-1-.5-1.5 0-.7.5-1.3 1.2-1.3.6 0 .9.3 1.8 1.7a7.4 7.4 0 001.7 2.1c.4.3.9.4 1.5.4 1.6 0 2.8-1.2 2.8-2.9a4 4 0 00-.6-2.1l.5.1"
          class="st0"
        />
        <path
          id="path2944_1_"
          d="M164.8 668.8v-4.3h-.6v1.2H158l7-3.2-6.8-3.5h6.1v1.2h.6v-3.3h-.6v1.2H156v-1.2h-.6v2.5l6.7 3.4-6.7 3v2.8h.6v-1.2h8.3v1.2l.5.2"
          class="st0"
        />
        <path
          id="path2946_1_"
          d="M165 676.3c0-2.6-2.2-4.7-4.9-4.7a4.8 4.8 0 00-4.9 4.7c0 2.6 2.2 4.8 4.9 4.8s4.9-2.1 4.9-4.8zm-.8 0c0 1.5-1.9 2.7-4.1 2.7-2.2 0-4.1-1.3-4.1-2.7 0-1.4 1.9-2.7 4.1-2.7 2.2 0 4.1 1.3 4.1 2.7"
          class="st0"
        />
        <path
          id="path2948_1_"
          d="M165 692.3v-1l-7.1-5h6.3v1.1h.6v-3.3h-.6v1.2h-7.6l-.7-.5v-1h-.6v2.9l6.6 4.7h-6v-1.1h-.6v3.3h.6v-1.2h9.1"
          class="st0"
        />
        <path
          id="path2950_1_"
          d="M164.8 702.9v-4.6h-.6v1.4h-8v-2.5h1.2v-.8H155v.8h.4v6.8h-.4v.8h2.4v-.8h-1.2v-2.5h8v1.4h.6"
          class="st0"
        />
      </g>
      <g id="g3147_1_">
        <path
          id="path2952_1_"
          d="M182.9 625.8c.6-1.6.8-2.6.8-4 0-3.9-2.6-6.7-6.3-6.7a6.3 6.3 0 00-6.4 6.5c0 1.2.2 2 .6 3.1h-.8v1h3.3v-1H173c-.7-1.1-.9-1.6-.9-2.6 0-2.6 2.1-4.4 5.2-4.4 3 0 5.3 2 5.3 4.5 0 .9-.2 1.6-.7 2.5h-1.4v1h2.4"
          class="st0"
        />
        <path
          id="path2954_1_"
          d="M183.6 633.3c0-2.6-2.2-4.7-4.9-4.7a4.8 4.8 0 00-4.9 4.7c0 2.6 2.2 4.8 4.9 4.8s4.9-2.1 4.9-4.8zm-.8 0c0 1.5-1.9 2.7-4.1 2.7-2.2 0-4.1-1.3-4.1-2.7 0-1.4 1.9-2.7 4.1-2.7 2.2 0 4.1 1.3 4.1 2.7"
          class="st0"
        />
        <path
          id="path2956_1_"
          d="M183.4 647.6v-6.8h-.6v1.1h-8.3v-1.1h-.6v4h.6v-1.1h8v3.1h-1.1v.8h2"
          class="st0"
        />
        <path
          id="path2958_1_"
          d="M183.4 657.2v-6.8h-.6v1.1h-8.3v-1.1h-.6v4h.6v-1.1h8v3.1h-1.1v.8h2"
          class="st0"
        />
        <path
          id="path2960_1_"
          d="M183.4 666.8V660h-.6v1.1h-8.3V660h-.6v5.9h-.4v.8h2.3v-.8h-1v-3h3.4v2.3h-1v.8h2.8v-.8h-1v-2.3h3.6v3.1h-1.1v.8h1.9"
          class="st0"
        />
        <path
          id="path2962_1_"
          d="M183.1 678.3c.4-1.4.5-2.3.5-3.3 0-3.2-2.1-5.4-4.9-5.4-2.1 0-4 1.3-4.6 3.2a7.1 7.1 0 00.1 4.4h-.5v.8h2.6v-.8h-1.1a4 4 0 01-.5-2.2c0-2 1.8-3.5 4.1-3.5 2.2 0 4.1 1.7 4.1 3.7 0 .4 0 .6-.2 1.1h-2.4v-1.2h-.6v4.2h.6v-1.1l2.8.1"
          class="st0"
        />
        <path
          id="path2964_1_"
          d="M183.4 689v-6.8h-.6v1.1h-8.3v-1.1h-.6v5.9h-.4v.8h2.3v-.8h-1v-3h3.4v2.3h-1v.8h2.8v-.8h-1v-2.3h3.6v3.1h-1.1v.8h1.9"
          class="st0"
        />
      </g>
    </g>
  </g>
</svg>
