<svg xmlns="http://www.w3.org/2000/svg" viewBox="0 0 175 128">
  <style>
    .st0 {
      fill: #873e35;
    }
    .st1 {
      opacity: 0.5;
    }
    .st2 {
      fill: #a17372;
    }
    .st3 {
      fill: #7cb1fd;
    }
    .st4,
    .st5 {
      fill: #6a463a;
    }
    .st5 {
      fill-rule: evenodd;
      clip-rule: evenodd;
    }
  </style>
  <path
    d="M0 91.5h2.5v17.2h8.2v2.1H0V91.5zM15.4 91.5v19.3h-2.5V91.5h2.5zM24 110.8l-6.3-19.3h2.7l3 9.5 2.1 7.2h.1a64 64 0 012.2-7.2l3.3-9.5h2.7l-6.9 19.3H24zM38.8 91.5v19.3h-2.5V91.5h2.5zM42 110.8V91.5h2.7l6.2 9.8c1.4 2.3 2.5 4.3 3.5 6.3h.1c-.2-2.6-.3-4.9-.3-7.9v-8.1h2.3v19.3H54l-6.1-9.8a84.6 84.6 0 01-3.6-6.4h-.1l.2 8v8.2H42zM73.8 110c-1.1.4-3.3 1.1-5.9 1.1a10 10 0 01-7.2-2.5 9.8 9.8 0 01-2.7-7.2c0-5.8 4-10 10.4-10 2.2 0 4 .5 4.8.9l-.6 2c-1-.5-2.3-.8-4.3-.8-4.7 0-7.8 2.9-7.8 7.8s2.9 7.8 7.4 7.8a8 8 0 003.3-.5v-5.8h-3.9v-2h6.4v9.2zM81.4 91.8a27 27 0 014.6-.4c2.5 0 4.1.4 5.3 1.4a4 4 0 011.6 3.4c0 1.9-1.2 3.5-3.3 4.2v.1c1.8.5 4 2 4 4.8 0 1.7-.7 2.9-1.6 3.9-1.3 1.2-3.5 1.8-6.7 1.8l-3.9-.2v-19zm2.5 7.9h2.3c2.6 0 4.2-1.4 4.2-3.2 0-2.3-1.7-3.1-4.2-3.1l-2.2.2v6.1zm0 9.2l2.1.1c2.6 0 5-.9 5-3.8 0-2.6-2.3-3.7-5-3.7h-2.1v7.4zM105.8 101.8h-7.5v7h8.4v2.1H95.8V91.5h10.4v2.1h-7.9v6.1h7.5v2.1zM114.2 110.8v-8.2l-6.1-11.1h2.8l2.7 5.3 1.9 4h.1c.5-1.3 1.2-2.5 1.9-4l2.8-5.3h2.8l-6.5 11.1v8.2h-2.4zM140 101c0 6.6-4 10.2-9 10.2-5.1 0-8.7-4-8.7-9.8 0-6.1 3.8-10.1 9-10.1 5.2-.1 8.7 3.9 8.7 9.7zm-15 .3c0 4.1 2.2 7.8 6.2 7.8s6.2-3.6 6.2-8c0-3.8-2-7.8-6.2-7.8-4.2-.1-6.2 3.7-6.2 8zM141.5 110.8V91.5h2.7l6.2 9.8c1.4 2.3 2.5 4.3 3.5 6.3h.1c-.2-2.6-.3-4.9-.3-7.9v-8.1h2.3v19.3h-2.5l-6.1-9.8a84.6 84.6 0 01-3.6-6.4h-.1l.2 8v8.2h-2.4zM159.2 91.8c1.5-.2 3.3-.4 5.3-.4 3.6 0 6.1.8 7.8 2.4a9 9 0 012.7 6.9c0 3.1-1 5.7-2.8 7.5-1.8 1.8-4.8 2.8-8.5 2.8a53 53 0 01-4.5-.2v-19zm2.5 17l2.5.1c5.3 0 8.2-3 8.2-8.2 0-4.6-2.5-7.4-7.8-7.4-1.3 0-2.3.1-2.9.3v15.2z"
    class="st0"
  />
  <g class="st1">
    <path
      d="M36.6 125.3a11.6 11.6 0 01-7.7 2.6c-3.2 0-5.4-1.2-6.7-2.8a9 9 0 01-1.9-5.8c0-6 3.5-10.3 6.4-12 2.2-1.3 3.9-1.7 6.5-1.7 2.3 0 4.1.6 5.4 1.6a9 9 0 013.1 6.9c-.1 4.8-2.2 8.9-5.1 11.2zm-9.5-1.7c.6.9 1.7 1.5 2.8 1.5.9 0 1.9-.2 3.1-1.5 1.3-1.4 2.6-5.5 2.6-9.6 0-1.1-.2-2.9-.7-3.9a2.7 2.7 0 00-2.5-1.5c-1.4 0-2.2.4-3.3 1.6a16.5 16.5 0 00-2.8 9.8c-.1 1 0 2.4.8 3.6z"
      class="st2"
    />
  </g>
  <g class="st1">
    <path
      d="M42.6 116.5l-.1-2.7 6.2-1.1c.4 0 1.4.9 1.6 1.6l-1.2 4.3c-.3 1-1 3.8-1 4.7 0 .4.2.8.6.8 1.3 0 3.8-3.7 4.3-5.5l1.1-5.5H59a404.8 404.8 0 00-2 11.8l1.9-.3.4 2.6c-1.5.6-4 .9-5.7.9-.2 0-.9-.6-1.2-1l.3-2.8-.4-.1c-2.6 3-4.5 4-5.8 4a5 5 0 01-2.9-1.9c-.3-.4-.5-1-.5-1.6 0-1.4.7-4.9 1.6-8.2h-2.1z"
      class="st2"
    />
  </g>
  <g class="st1">
    <path
      d="M61.7 116.3v-2.7c3.3-.4 5.4-1 5.8-1 .2 0 1.3.8 1.5 1.3l-.7 3.6.4.1c2.3-3.5 3.7-5 4.9-5 1 0 1.8.4 2.1.6 0 1.7-1 4.6-1.6 5.1-.3-.1-1.5-.5-1.9-.5-1.4 0-3.8 2.9-4.4 5.1l-1.1 4.7h-4.9l2.3-11.4-2.4.1z"
      class="st2"
    />
  </g>
  <g class="st1">
    <path
      d="M85.3 116.1l-.2-.4c-.3-.2-.9-.4-1.4-.4s-1.1.1-1.5.3c-.4.3-.7.6-.7 1.1 0 .8 1.2 1.2 2.6 1.7 2.2.8 3.6 1.9 3.6 3.9 0 2.1-1.1 3.5-2.6 4.5-.9.5-2.5 1.1-5 1.1a13 13 0 01-4.4-.6l.3-4.8 2.5-.2.3 2 .2.4a3.7 3.7 0 003.3.2c.3-.2.5-.5.5-1.1 0-.8-.7-1.2-2.2-1.8-2.2-.8-4.1-1.8-4.1-4.2 0-2.3 1.9-3.8 3.2-4.4 1.4-.6 2.9-.8 4.7-.8 1.6 0 3.2.3 3.9.7l-.3 4.5-2.6.2-.1-1.9z"
      class="st2"
    />
  </g>
  <g class="st1">
    <path
      d="M93.1 115.1c2.2-2 4.3-2.5 6.2-2.5 3.2 0 4.7 2.3 4.8 4.1-.2 1.5-1 3-2 3.6-1.6.8-4 1.3-7.3 1.3l-.1 1c0 1.2.8 2 2.1 2 1.1 0 3.2-.3 5.3-1.2l.7 2.5c-2.2 1.1-5 2-8.3 2-2.5 0-5-1.8-5-4.9-.1-2.5 1.1-5.7 3.6-7.9zm3.3.8a7 7 0 00-1.3 3.3c1.2 0 2.3-.1 3.2-.6.5-.3.8-.6.8-1.4 0-.9-.5-2.1-1.3-2.1-.5 0-.9.2-1.4.8z"
      class="st2"
    />
  </g>
  <g class="st1">
    <path
      d="M105.3 107.9v-2.7c4-.3 6.5-.9 7-.9.2 0 1.3.8 1.5 1.4a1626.7 1626.7 0 01-3.9 19.3l2.5-.3.3 2.6a30 30 0 01-6.5.7c-.2 0-1.3-.8-1.7-1.4l3.8-18.7h-3z"
      class="st2"
    />
  </g>
  <g class="st1">
    <path
      d="M114.5 116.4l-.2-2.7 5.9-1.1c.2 0 1.6 1 2 1.8l-1.2 10.4c0 .2.1.3.3.1.4-.5 1-1.2 1.8-2.5 1-1.6 2.5-4.7 2.5-6.2 0-.1-.1-.2-.3-.2H124l-.1-2.7 4.8-.6c.3 0 1.7 1.4 1.7 1.7 0 2.6-2.8 7-4.2 8.9a15.8 15.8 0 01-4.8 4.6c-1 0-3.5 0-5.1-.4-.2-2.2.2-8.6.4-11.2l-2.2.1z"
      class="st2"
    />
  </g>
  <g class="st1">
    <path
      d="M134 115.1c2.2-2 4.3-2.5 6.2-2.5 3.2 0 4.7 2.3 4.8 4.1-.2 1.5-1 3-2 3.6-1.6.8-4 1.3-7.3 1.3l-.1 1c0 1.2.8 2 2.1 2 1.1 0 3.2-.3 5.3-1.2l.7 2.5c-2.2 1.1-5 2-8.3 2-2.5 0-5-1.8-5-4.9-.1-2.5 1.1-5.7 3.6-7.9zm3.3.8a7 7 0 00-1.3 3.3c1.2 0 2.3-.1 3.2-.6.5-.3.8-.6.8-1.4 0-.9-.5-2.1-1.3-2.1-.5 0-.9.2-1.4.8z"
      class="st2"
    />
  </g>
  <g class="st1">
    <path
      d="M155 116.1l-.2-.4c-.3-.2-.9-.4-1.4-.4s-1.1.1-1.5.3c-.4.3-.7.6-.7 1.1 0 .8 1.2 1.2 2.6 1.7 2.2.8 3.6 1.9 3.6 3.9 0 2.1-1.1 3.5-2.6 4.5-.9.5-2.5 1.1-5 1.1a13 13 0 01-4.4-.6l.3-4.8 2.5-.2.3 2 .2.4a3.7 3.7 0 003.3.2c.3-.2.5-.5.5-1.1 0-.8-.7-1.2-2.2-1.8-2.2-.8-4.1-1.8-4.1-4.2 0-2.3 1.9-3.8 3.2-4.4 1.4-.6 2.9-.8 4.7-.8 1.6 0 3.2.3 3.9.7l-.3 4.5-2.6.2-.1-1.9z"
      class="st2"
    />
  </g>
  <path
    d="M81.7 35.4a23 23 0 00-15.1 3.7c-.6.5 0 1.3.7.8 4.2-3.3 9.4-3.6 14.4-3.9.4 0 .4-.6 0-.6M99.6 34.8c3 .3 6 1.4 8.4 3.2.4.3 1-.4.6-.8-2.2-2.1-6-3.1-9-3.2-.5.1-.5.8 0 .8M77.3 53.1c-.9-.1-1.8-.3-2.6-.7-.8-.4-1.5-1-2.2-1.5-.4-.3-.9.2-.6.6 1.1 1.6 3.6 2.4 5.4 2.4.4-.1.4-.8 0-.8M81.3 44.7c-2.4-.1-7.4-2.6-3.8-5 2.4-1.6 6.2-1.7 9-1.2.6.1.9-.9.3-1-3.1-.6-8.8-.6-10.9 2.3-2.5 3.4 2.9 5.5 5.5 5.5.3 0 .3-.6-.1-.6M82.3 48.4c3 1 6.4.2 9.4-.6 1.9-.5 4.8-1.5 4.9-3.9.1-1.7-2.1-2.5-3.3-3-1.8-.7-3.9-1.1-5.8-1.1-.6 0-.6.9 0 1 1.3.1 2.7.4 4 .7 1.3.3 3.5.8 4 2.2.7 1.9-3.8 3-4.9 3.3-2.7.7-5.4 1.1-8.1.7-.4 0-.6.6-.2.7M99.5 43.5c1.1.1 3.2.2 3.8-1 .6-1.2-.2-2.3-1.2-3.1-2.7-1.9-7.3-1.7-10.4-1.5-.5 0-.5.8 0 .8 2.3.2 4.6.1 6.8.5 1.2.2 2.4.5 3.4 1.3 1.9 1.5-1.2 2.2-2.3 2.1-.5.1-.6.9-.1.9M99.4 49.1c-1.8-.1-3.8.1-5.1 1.5-1.1 1.2.2 1.9 1.2 2.2.8.3 1.7.5 2.5.9 1.5.7-1.1 1.9-1.7 2.1-1.7.6-3.4.8-5.1 1.2-.6.1-.4 1 .1 1 1.7 0 3.4-.4 4.9-.9 1.1-.3 3-1.1 3.3-2.5.2-1.4-.9-2-2-2.4-.4-.2-2.9-.6-2.2-1.4.9-1 2.8-1.2 4-1.1.5.1.5-.5.1-.6M82.8 66.8c-.4-5.3-4.5-12.8-10.4-13.3-.5 0-.6.8-.1.9 5.4 1.2 9.2 7 9.7 12.3.1.6.8.6.8.1M81.3 70.3c-.2 4.1-.4 8.3-.1 12.4 0 .7 1.1.7 1.1 0 .3-4.1 0-8.3-.1-12.4 0-.6-.9-.6-.9 0M77.5 73c-.1 5-.6 10.3-.2 15.3.1.7 1 .7 1.1 0 .4-5-.1-10.2-.2-15.3 0-.5-.7-.5-.7 0M73.9 84.4c.1-4.8.2-9.6.1-14.4 0-.7-1.1-.7-1.1 0-.1 4.8 0 9.6.1 14.4 0 .6.9.6.9 0M95.2 86.3c.3-5.1.3-10.3.1-15.4 0-.9-1.3-.9-1.4 0a158 158 0 00.1 15.4c.1.8 1.2.8 1.2 0M91.4 74.8v-9.4c0-.5-.8-.5-.9 0v9.4c-.1.6.9.6.9 0"
    class="st3"
  />
  <path
    d="M97.1 58.9c-2.4.2-5 .4-7 1.8-1.3.8-1.9 2.4-2.2 3.8-.5 2-.5 4.2-.5 6.3 0 3.6-.1 7.2 0 10.7 0 .8 1.2.8 1.2 0 .2-5.1-.6-10.3-.1-15.4.1-1.4.4-2.9 1.3-4.1 1.5-2 4.9-2.2 7.2-2.5.6.1.6-.6.1-.6"
    class="st3"
  />
  <path
    d="M87.6 57.2c1.4-.1 3.2-1.1 2.2-2.7-.9-1.4-3.7-1.3-5.1-1.3-1.5.1-3.8.5-3.7 2.4 0 .8.8 1.5 1.4 1.9 1.1.8 1.3 1.9 1.4 3.2.5 4.9.3 9.8.2 14.6l-.1 6.7c0 1.3-.2 2.6 0 3.9.1.9 1.3.9 1.4 0a225.8 225.8 0 00-.3-23.6c0-1.3 0-3-.7-4.3-.2-.5-.7-.9-1.2-1.2-.5-.3-1.7-1.2-.5-2 .5-.4 1.3-.4 1.9-.5.9-.1 1.9 0 2.8.1l1.1.3c.6.1.8.6.6 1.3-.4.3-.9.5-1.4.5-.5 0-.5.8 0 .7M100.3 85l.3-7.2c.1-2.4.5-5.1 0-7.4-.2-.7-1.3-.7-1.4 0-.5 2.1-.1 4.6 0 6.8.1 2.6.1 5.3.3 7.9 0 .5.8.5.8-.1"
    class="st3"
  />
  <path
    d="M75.1 20.6c-.3 3.9-2 8.2-4.3 11.4-.4.6 2.3-.3 2.6-1 1.6-2.9 2.5-6.8 2.5-10.5 0-.5-.8-.5-.8.1M97.8 20.6c.3 3.9 2 8.2 4.3 11.4.4.6-2.3-.3-2.6-1A22.6 22.6 0 0197 20.5c0-.5.7-.5.8.1M87.7 12.2a37 37 0 00-2.5 14c0 1 1.4 1 1.4 0a32 32 0 012.5-13.4c1.9-4 5.6-7 8.2-10.4.5-.7-.7-1.9-1.4-1.3 0-.1-6.3 6.9-8.2 11.1"
    class="st4"
  />
  <path
    d="M84.1 14.4c1 2.9.9 6.1 1.1 9.1.1 2-.2 4.1-.2 6.3 0 .5 1.7.7 1.8.3a74.7 74.7 0 00-1.9-17.6A42.3 42.3 0 0076.6.2c-.7-.8-2.2.5-1.6 1.1 0 .1 7.2 7.4 9.1 13.1"
    class="st4"
  />
  <path
    d="M64.2 35.5c1.6-1 3.2-2 5-2.7 2.1-.8 4-.8 6.2-.7 1.9.1 3.8-.1 5.7-.4 2.1-.3 4.1-1.4 6.3-1 2 .4 3.9 1.1 5.9 1.5 1.9.4 3.8.5 5.7.6h3.5l2.4.6c1.4.3 3.1.5 4.1 1.6.5.5 1.2-.3.8-.8a7.1 7.1 0 00-3.4-1.6l-4.8-.9c-2.4-.2-4.8-.1-7.3-.4-2.2-.3-4.4-1.4-6.7-1.5-1.9-.1-3.7.5-5.5.9-2.6.5-5.2.5-7.9.4-3.9-.2-7.5 1.4-10.4 3.9-.4.2 0 .7.4.5"
    class="st3"
  />
  <path
    d="M64.8 34.3c-.3-3.5.5-7.5-.3-10.4-.1-.6-1.8-.5-1.8.1l.8 10.3c0 .5-.1 2.2.1 2.7.2.9 1.8 2.3 2.7 3.4.9 1.2 3.3 5.4 4.2 9.3.8 3.8-2 8.7-3.6 8.2-1.2-.4-2.4-3.3-3-5.5.5-.7 1.3-1 2.1-.9 1.6.2 2 2.6 3.4 2.5-.3-2.6-3.8-4.9-6.2-2.8-1.3-1-5-1.9-4.6-4.3.1-.7.6-1.1 1.6-1-1.4-1.6-3.6-2.5-5.5-3.5-2-2.4-2.9-4.2-3.4-7.2-.1-.6-1.4-.9-1.6-.1 0 4.5 4.1 7.8 6.5 11.3.6.9 1 2.1 1.8 2.9 1 1.3 3 1.6 4 2.7 1.1 1.2 2.3 6.2 4 6.9 1.7.7 3-.7 3.7-1.5 2.7 2.4 6.8 5.7 8.3 7.8 1.6 2.4 2.6 4.8 0 5.4-2.3.5-4-1.2-5.3-2.3 1.3-2 3.2.8 4.8 1.3-.3-1.8-4.2-4.3-5.7-1.6-4.3-4.2-12.8-8.2-14.7-9.6-2.5-1.9-4.4-7.1-8.7-12.7-2.3-2.9-2.7-6.2-3-11.2-.2-4.3.4-9.6 1.6-12.1 1.2-2.8 5-4.9 2.8-11.6-.2-.6-.6-2.2-1.1-2.6-.4-.4-1.7.5-1.5 1 3.9 7.7.3 8.3-1.7 13-2 4.7-2.3 15.1-.1 20.6.3.6 1 2.1 1.5 2.8 3.1 4.2 5.5 10.5 9.5 13.9 1.2 1 3.3 1.9 4.7 2.7 6.1 3.5 10.2 6.7 13.4 8.7 3.7 2.5 7.6-.1 5.6-4.5-.4-.9-2-3.4-3-4.2l-6.5-5.8a8.4 8.4 0 001.5-6.3c-.8-4.4-3.4-8.4-4.5-10-1.2-1.6-2.7-2.6-2.7-3.8l-.1-2zM108.9 34.3c.3-3.5-.5-7.5.3-10.4.1-.6 1.8-.5 1.8.1l-.8 10.3c0 .5.1 2.2-.1 2.7-.2.9-1.8 2.3-2.7 3.4-.9 1.2-3.3 5.4-4.1 9.3-.8 3.8 2 8.7 3.6 8.2 1.2-.4 2.4-3.3 3-5.5-.5-.7-1.3-1-2.1-.9-1.6.2-2 2.6-3.4 2.5.3-2.6 3.8-4.9 6.2-2.8 1.3-1 5-1.9 4.7-4.3-.1-.7-.6-1.1-1.6-1 1.4-1.6 3.6-2.5 5.5-3.5 2-2.4 2.9-4.2 3.4-7.2.1-.6 1.4-.9 1.6-.1 0 4.5-4.1 7.8-6.5 11.3-.6.9-1 2.1-1.8 2.9-1.2 1.2-3.1 1.5-4.1 2.6-1.1 1.2-2.3 6.2-4 6.9-1.7.7-3-.7-3.7-1.5-2.7 2.4-6.8 5.7-8.3 7.8-1.6 2.4-2.6 4.8 0 5.4 2.3.5 4-1.2 5.3-2.3-1.3-2-3.2.8-4.8 1.3.3-1.8 4.2-4.3 5.7-1.6 4.3-4.2 12.8-8.2 14.7-9.6 2.5-1.9 4.4-7.1 8.7-12.7 2.3-2.9 2.7-6.2 3-11.2.2-4.3-.5-9.6-1.6-12.1-1.2-2.8-5-4.9-2.8-11.6.2-.6.6-2.2 1.1-2.6.4-.4 1.7.5 1.5 1-3.9 7.7-.3 8.3 1.7 13 2 4.7 2.3 15.1.1 20.6-.3.6-1 2.1-1.5 2.8-3.1 4.2-5.5 10.5-9.5 13.9-1.2 1-3.3 1.9-4.7 2.7-6.1 3.5-10.2 6.7-13.4 8.7-3.8 2.5-7.6-.1-5.6-4.5.4-.9 2-3.4 3-4.2l6.5-5.8a8.4 8.4 0 01-1.5-6.3c.8-4.4 3.4-8.4 4.5-10 1.2-1.6 2.7-2.6 2.7-3.8v-1.9z"
    class="st5"
  />
  <path
    d="M69.9 73.5c.3 8.4-8.7 13.8-16.3 14.2-8.2.4-16.8-5.1-24.7-1-.6.3-.2 1.4.5 1.1 9-3.7 18.1 2.7 27.3.8 7.1-1.4 14.6-7.1 13.9-15.1.1-.6-.7-.6-.7 0M103.2 73.5c-.7 7.9 6.6 13.3 13.5 15 9.3 2.3 18.6-4.5 27.7-.7.6.3 1.1-.8.5-1.1-7.8-4-16.6 1.1-24.7 1-7.6-.1-16.6-5.9-16.3-14.2.1-.6-.7-.6-.7 0"
    class="st3"
  />
  <path
    d="M79.1 9.1C76 5 68.9 4.6 64.4 5.4c-.8.1-.3 1.9.4 1.7 4.5-.9 10.2-.8 13.8 2.6.4.4.9-.2.5-.6M93 9.1c3.2-4 10.2-4.5 14.8-3.7.8.1.3 1.9-.4 1.7-4.5-.8-10.2-.8-13.8 2.6-.4.4-.9-.2-.6-.6"
    class="st4"
  />
</svg>
