<svg xmlns="http://www.w3.org/2000/svg" viewBox="0 0 171.8 125.6">
  <style>
    .st0 {
      fill: #873e35;
    }
    .st1 {
      opacity: 0.5;
    }
    .st2 {
      fill: #a17372;
    }
    .st3 {
      fill: #7cb1fd;
    }
    .st4,
    .st5 {
      fill: #6a463a;
    }
    .st5 {
      fill-rule: evenodd;
      clip-rule: evenodd;
    }
  </style>
  <title>
    background
  </title>
  <path id="canvas_background" fill="none" d="M-1-1h77v77H-1z" />
  <g>
    <title>
      Layer 1
    </title>
    <g id="svg_1">
      <g id="svg_2">
        <path id="svg_3" d="M0 89.9h2.4v16.9h8.1v2.1H0v-19z" class="st0" />
      </g>
      <g id="svg_4">
        <path id="svg_5" d="M15.2 89.9v18.9h-2.4V89.9h2.4z" class="st0" />
      </g>
      <g id="svg_6">
        <path
          id="svg_7"
          d="M23.6 108.8l-6.2-18.9H20l3 9.3c.8 2.6 1.5 4.9 2 7.1h.1c.5-2.2 1.3-4.6 2.2-7.1l3.2-9.4h2.6l-6.8 18.9h-2.7v.1z"
          class="st0"
        />
      </g>
      <g id="svg_8">
        <path id="svg_9" d="M38.1 89.9v18.9h-2.4V89.9h2.4z" class="st0" />
      </g>
      <g id="svg_10">
        <path
          id="svg_11"
          d="M41.3 108.8V89.9H44l6.1 9.6c1.4 2.2 2.5 4.2 3.4 6.2h.1c-.2-2.5-.3-4.8-.3-7.8V90h2.3v18.9H53l-6-9.6a57.5 57.5 0 01-3.5-6.3h-.1l.2 7.8v8.1h-2.3v-.1z"
          class="st0"
        />
      </g>
      <g id="svg_12">
        <path
          id="svg_13"
          d="M72.5 108c-1.1.4-3.3 1-5.8 1-2.9 0-5.2-.7-7.1-2.5a10 10 0 01-2.6-7.1c0-5.6 3.9-9.8 10.3-9.8 2.2 0 3.9.5 4.7.9l-.6 2c-1-.5-2.3-.8-4.2-.8-4.6 0-7.6 2.9-7.6 7.6 0 4.8 2.9 7.6 7.3 7.6a8 8 0 003.3-.5v-5.6h-3.9v-2h6.2v9.2z"
          class="st0"
        />
      </g>
      <g id="svg_14">
        <path
          id="svg_15"
          d="M80 90.1c1.1-.2 2.8-.4 4.5-.4 2.4 0 4 .4 5.2 1.4a4 4 0 011.6 3.3c0 1.8-1.2 3.4-3.2 4.2v.1c1.8.4 3.9 1.9 3.9 4.8a5 5 0 01-1.6 3.8c-1.3 1.2-3.5 1.8-6.5 1.8l-3.8-.2V90.1H80zm2.4 7.8h2.2c2.6 0 4.1-1.3 4.1-3.2 0-2.2-1.7-3.1-4.2-3.1l-2.2.2v6.1h.1zm0 9l2.1.1c2.5 0 4.9-.9 4.9-3.7 0-2.6-2.2-3.7-4.9-3.7h-2v7.3h-.1z"
          class="st0"
        />
      </g>
      <g id="svg_16">
        <path
          id="svg_17"
          d="M103.9 99.9h-7.4v6.8h8.2v2.1H94.1V89.9h10.2V92h-7.8v6h7.4v1.9z"
          class="st0"
        />
      </g>
      <g id="svg_18">
        <path
          id="svg_19"
          d="M112.1 108.8v-8l-6-10.9h2.8l2.7 5.2a136 136 0 011.9 3.9h.1l1.9-3.9 2.7-5.2h2.8l-6.4 10.9v8.1h-2.5v-.1z"
          class="st0"
        />
      </g>
      <g id="svg_20">
        <path
          id="svg_21"
          d="M137.4 99.1c0 6.5-4 10-8.8 10-5 0-8.5-3.9-8.5-9.6 0-6 3.7-9.9 8.8-9.9 5.2 0 8.5 3.9 8.5 9.5zm-14.7.3c0 4 2.2 7.7 6 7.7 3.9 0 6.1-3.6 6.1-7.9 0-3.8-2-7.7-6-7.7-4.1 0-6.1 3.8-6.1 7.9z"
          class="st0"
        />
      </g>
      <g id="svg_22">
        <path
          id="svg_23"
          d="M138.9 108.8V89.9h2.7l6.1 9.6c1.4 2.2 2.5 4.2 3.4 6.2h.1c-.2-2.5-.3-4.8-.3-7.8V90h2.3v18.9h-2.5l-6-9.6a57.5 57.5 0 01-3.5-6.3h-.1l.2 7.8v8.1h-2.4v-.1z"
          class="st0"
        />
      </g>
      <g id="svg_24">
        <path
          id="svg_25"
          d="M156.3 90.1c1.5-.2 3.3-.4 5.2-.4 3.5 0 6 .8 7.7 2.4 1.7 1.5 2.7 3.7 2.7 6.8 0 3.1-1 5.6-2.7 7.4-1.8 1.8-4.7 2.7-8.4 2.7l-4.4-.2V90.1h-.1zm2.4 16.8l2.5.1c5.2 0 8.1-2.9 8.1-8 0-4.5-2.5-7.3-7.7-7.3-1.3 0-2.2.1-2.9.3v14.9z"
          class="st0"
        />
      </g>
      <g id="svg_26" class="st1">
        <path
          id="svg_27"
          d="M35.9 123.1c-2 1.6-4.4 2.5-7.5 2.5a8.5 8.5 0 01-6.6-2.7 9.3 9.3 0 01-1.9-5.7c0-5.8 3.4-10.1 6.2-11.8 2.1-1.2 3.9-1.7 6.3-1.7 2.3 0 4 .6 5.3 1.6 2.2 1.6 3 4.6 3 6.7.1 4.7-1.9 8.8-4.8 11.1zm-9.3-1.8c.6.9 1.7 1.4 2.7 1.4.9 0 1.9-.2 3-1.4 1.3-1.4 2.5-5.4 2.5-9.5 0-1.1-.2-2.8-.7-3.9a2.7 2.7 0 00-2.5-1.5c-1.4 0-2.2.4-3.2 1.5-1.3 1.3-2.8 5.3-2.8 9.6.1 1.3.2 2.7 1 3.8z"
          class="st2"
        />
      </g>
      <g id="svg_28" class="st1">
        <path
          id="svg_29"
          d="M41.8 114.3l-.1-2.7 6.1-1.1c.4 0 1.4.9 1.6 1.5l-1.2 4.2c-.3 1-1 3.7-1 4.6 0 .4.2.8.6.8 1.3 0 3.7-3.7 4.2-5.4l1.1-5.4h4.8a384.7 384.7 0 00-2 11.6l1.8-.3.4 2.5c-1.5.6-3.9.9-5.6.9-.2 0-.9-.6-1.2-1l.3-2.8-.4-.1c-2.5 2.9-4.4 3.9-5.7 4a5 5 0 01-2.8-1.8c-.3-.4-.5-1-.5-1.6 0-1.4.7-4.8 1.6-8.1l-2 .2z"
          class="st2"
        />
      </g>
      <g id="svg_30" class="st1">
        <path
          id="svg_31"
          d="M60.6 114.2v-2.6c3.2-.4 5.3-1 5.6-1 .2 0 1.2.8 1.5 1.2l-.7 3.6.4.1c2.2-3.4 3.6-4.9 4.8-4.9.9 0 1.8.4 2.1.6 0 1.7-1 4.5-1.6 5-.3-.1-1.5-.5-1.9-.5-1.4 0-3.8 2.8-4.3 5l-1.1 4.6h-4.8l2.3-11.2-2.3.1z"
          class="st2"
        />
      </g>
      <g id="svg_32" class="st1">
        <path
          id="svg_33"
          d="M83.7 114l-.2-.4c-.3-.2-.9-.4-1.4-.4s-1.1.1-1.5.3c-.4.3-.7.6-.7 1.1 0 .8 1.2 1.1 2.5 1.6 2.2.8 3.6 1.9 3.6 3.9 0 2.1-1 3.5-2.6 4.4-.9.5-2.5 1-4.9 1-1.7 0-3.4-.2-4.3-.6l.3-4.7 2.5-.2.3 2 .2.4c.5.3 1.1.5 1.8.5.6 0 1.1-.1 1.5-.3.3-.2.5-.5.5-1 0-.8-.7-1.2-2.1-1.7-2.1-.8-4-1.8-4-4.1s1.9-3.8 3.1-4.3c1.3-.6 2.8-.8 4.6-.8 1.5 0 3.1.3 3.9.7l-.3 4.4-2.5.2-.3-2z"
          class="st2"
        />
      </g>
      <g id="svg_34" class="st1">
        <path
          id="svg_35"
          d="M91.4 113a8.8 8.8 0 016-2.4c3.2 0 4.6 2.2 4.7 4-.2 1.5-1 2.9-1.9 3.6-1.6.8-4 1.3-7.1 1.3l-.1 1c0 1.1.8 2 2 2 1.1 0 3.2-.3 5.2-1.2l.7 2.4a18 18 0 01-8.2 2 4.8 4.8 0 01-4.9-4.8 11 11 0 013.6-7.9zm3.3.8c-.5.6-1 1.5-1.3 3.2 1.1 0 2.3-.1 3.1-.6.5-.3.8-.6.8-1.4 0-.9-.5-2-1.3-2-.4 0-.8.2-1.3.8z"
          class="st2"
        />
      </g>
      <g id="svg_36" class="st1">
        <path
          id="svg_37"
          d="M103.4 105.9v-2.6c4-.3 6.4-.8 6.9-.8.2 0 1.2.8 1.5 1.3l-3.9 18.6c-.1.1 0 .3.1.3l2.5-.3.3 2.6a29 29 0 01-6.4.7c-.2 0-1.2-.8-1.6-1.4l3.7-18.3-3.1-.1z"
          class="st2"
        />
      </g>
      <g id="svg_38" class="st1">
        <path
          id="svg_39"
          d="M112.4 114.3l-.2-2.6 5.8-1c.2 0 1.5.9 2 1.7l-1.2 10.2c0 .2.1.3.3.1l1.8-2.4c1-1.6 2.5-4.6 2.5-6 0-.1-.1-.2-.3-.2h-1.3l-.1-2.7 4.7-.6c.3 0 1.6 1.4 1.6 1.6 0 2.5-2.7 6.9-4.1 8.7-2.4 3-4.4 4.5-4.7 4.5-1 0-3.4 0-5-.4-.2-2.1.2-8.4.4-11l-2.2.1z"
          class="st2"
        />
      </g>
      <g id="svg_40" class="st1">
        <path
          id="svg_41"
          d="M131.5 113a8.8 8.8 0 016-2.4c3.2 0 4.6 2.2 4.7 4-.2 1.5-1 2.9-1.9 3.6-1.6.8-4 1.3-7.1 1.3l-.1 1c0 1.1.8 2 2 2 1.1 0 3.2-.3 5.2-1.2l.7 2.4a18 18 0 01-8.2 2 4.8 4.8 0 01-4.9-4.8 11 11 0 013.6-7.9zm3.3.8c-.5.6-1 1.5-1.3 3.2 1.1 0 2.3-.1 3.1-.6.5-.3.8-.6.8-1.4 0-.9-.5-2-1.3-2-.4 0-.8.2-1.3.8z"
          class="st2"
        />
      </g>
      <g id="svg_42" class="st1">
        <path
          id="svg_43"
          d="M152.2 114l-.2-.4c-.3-.2-.9-.4-1.4-.4s-1.1.1-1.5.3c-.4.3-.7.6-.7 1.1 0 .8 1.2 1.1 2.5 1.6 2.2.8 3.6 1.9 3.6 3.9 0 2.1-1 3.5-2.6 4.4-.9.5-2.5 1-4.9 1-1.7 0-3.4-.2-4.3-.6l.3-4.7 2.5-.2.3 2 .2.4c.5.3 1.1.5 1.8.5.6 0 1.1-.1 1.5-.3.3-.2.5-.5.5-1 0-.8-.7-1.2-2.1-1.7-2.1-.8-4-1.8-4-4.1s1.9-3.8 3.1-4.3c1.3-.6 2.8-.8 4.6-.8 1.5 0 3.1.3 3.9.7l-.3 4.4-2.5.2-.3-2z"
          class="st2"
        />
      </g>
      <g id="svg_44">
        <path
          id="svg_45"
          d="M80.2 34.7c-5.1-.3-10.6.5-14.8 3.6-.6.5 0 1.3.6.8 4.1-3.2 9.2-3.5 14.2-3.8.4 0 .4-.6 0-.6"
          class="st3"
        />
        <path
          id="svg_46"
          d="M97.8 34.2c3 .3 5.9 1.3 8.3 3.2.4.3 1-.4.6-.7a13.5 13.5 0 00-8.8-3.1c-.6-.1-.6.6-.1.6"
          class="st3"
        />
        <path
          id="svg_47"
          d="M75.9 52.2c-.9-.1-1.7-.3-2.6-.7-.8-.4-1.4-1-2.2-1.5-.4-.3-.9.2-.6.6 1 1.6 3.5 2.3 5.3 2.3.5 0 .5-.7.1-.7"
          class="st3"
        />
        <path
          id="svg_48"
          d="M79.8 43.8c-2.3-.1-7.2-2.5-3.7-4.9 2.3-1.6 6.1-1.7 8.8-1.2.6.1.9-.9.3-1-3.1-.6-8.6-.5-10.7 2.3-2.5 3.3 2.8 5.4 5.4 5.4.3.1.3-.5-.1-.6"
          class="st3"
        />
        <path
          id="svg_49"
          d="M80.8 47.5c3 .9 6.3.2 9.3-.6 1.9-.5 4.7-1.5 4.8-3.8.1-1.6-2.1-2.5-3.3-2.9a16 16 0 00-5.7-1.1c-.6 0-.6.9 0 1 1.3.1 2.6.4 3.9.7 1.2.3 3.5.8 4 2.2.6 1.8-3.7 2.9-4.8 3.2-2.6.7-5.3 1.1-8 .7-.4-.1-.6.5-.2.6"
          class="st3"
        />
        <path
          id="svg_50"
          d="M97.7 42.7c1.1.1 3.1.2 3.7-1 .6-1.2-.2-2.3-1.2-3C97.6 36.9 93 37 90 37.3c-.5 0-.5.8 0 .8 2.2.2 4.5.1 6.7.5 1.2.2 2.4.5 3.3 1.3 1.8 1.5-1.2 2.1-2.2 2.1-.5-.1-.6.7-.1.7"
          class="st3"
        />
        <path
          id="svg_51"
          d="M97.6 48.3c-1.8-.1-3.7.1-5 1.5-1.1 1.1.2 1.9 1.2 2.2.8.3 1.7.5 2.4.9 1.4.7-1.1 1.9-1.6 2.1-1.6.6-3.4.8-5 1.1-.5.1-.4 1 .1 1 1.6 0 3.3-.4 4.9-.8 1.1-.3 3-1.1 3.2-2.4.2-1.4-.9-1.9-2-2.3-.4-.1-2.8-.6-2.2-1.4.8-1 2.8-1.1 4-1.1.4-.2.4-.8 0-.8"
          class="st3"
        />
        <path
          id="svg_52"
          d="M81.3 65.6c-.4-5.2-4.4-12.6-10.2-13-.5 0-.6.8-.1.9 5.3 1.2 9.1 6.9 9.5 12.1.1.5.8.5.8 0"
          class="st3"
        />
        <path
          id="svg_53"
          d="M79.8 69c-.2 4-.4 8.2-.1 12.2 0 .7 1.1.7 1.1 0 .2-4 0-8.2-.1-12.2 0-.6-.9-.6-.9 0"
          class="st3"
        />
        <path
          id="svg_54"
          d="M76.1 71.6c-.1 5-.6 10.1-.2 15 .1.7 1 .7 1 0 .4-4.9-.1-10.1-.2-15 0-.4-.6-.4-.6 0"
          class="st3"
        />
        <path
          id="svg_55"
          d="M72.6 82.9c.1-4.7.2-9.4.1-14.1 0-.7-1-.7-1 0-.1 4.7 0 9.4.1 14.1-.1.6.7.6.8 0"
          class="st3"
        />
        <path
          id="svg_56"
          d="M93.5 84.7c.3-5 .3-10.1.1-15.1 0-.9-1.3-.9-1.3 0-.2 5-.2 10.1.1 15.1 0 .8 1 .8 1.1 0"
          class="st3"
        />
        <path
          id="svg_57"
          d="M89.7 73.5v-9.2c0-.5-.8-.5-.8 0a141 141 0 000 9.2c-.1.6.8.6.8 0"
          class="st3"
        />
        <path
          id="svg_58"
          d="M95.4 57.9c-2.3.2-4.9.4-6.9 1.8-1.3.8-1.9 2.4-2.2 3.8-.5 2-.4 4.1-.5 6.1v10.5c0 .8 1.2.8 1.2 0 .2-5-.6-10.1-.1-15.2a7 7 0 011.3-4c1.5-1.9 4.8-2.2 7.1-2.4.5 0 .5-.7.1-.6"
          class="st3"
        />
        <path
          id="svg_59"
          d="M86 56.2c1.4-.1 3.1-1.1 2.2-2.6-.8-1.4-3.6-1.3-5-1.3-1.5.1-3.7.5-3.6 2.4 0 .8.8 1.4 1.4 1.8 1.1.8 1.3 1.9 1.4 3.2.5 4.8.3 9.6.2 14.4l-.1 6.6c0 1.3-.2 2.6 0 3.8.1.8 1.3.9 1.4 0a218.5 218.5 0 00-.3-23.2c-.1-1.5-.2-3.1-.8-4.4-.2-.5-.7-.9-1.1-1.2-.5-.3-1.7-1.2-.5-2 .5-.3 1.2-.4 1.8-.5.9-.1 1.9 0 2.8.1l1 .3c.6.1.8.6.6 1.3-.4.3-.8.5-1.3.5-.5.1-.6.8-.1.8"
          class="st3"
        />
        <path
          id="svg_60"
          d="M98.5 83.5l.3-7.1c.1-2.3.5-5 0-7.3-.2-.7-1.2-.7-1.4 0-.5 2.1-.1 4.5 0 6.6.1 2.6.1 5.2.3 7.7 0 .7.8.7.8.1"
          class="st3"
        />
        <path
          id="svg_61"
          d="M73.7 20.2c-.3 3.8-1.9 8-4.2 11.2-.4.6 2.2-.3 2.6-1 1.6-2.9 2.5-6.7 2.4-10.3 0-.4-.7-.4-.8.1"
          class="st4"
        />
        <path
          id="svg_62"
          d="M96 20.2c.3 3.8 1.9 8 4.2 11.2.4.6-2.2-.3-2.6-1a20.9 20.9 0 01-2.4-10.3c0-.4.8-.4.8.1"
          class="st4"
        />
        <path
          id="svg_63"
          d="M86.1 11.9a38 38 0 00-2.5 13.8c0 .9 1.3 1 1.3 0 .1-4.6.5-9 2.5-13.2 1.8-3.9 5.5-6.8 8.1-10.2.5-.7-.7-1.9-1.4-1.3 0 0-6.1 6.9-8 10.9"
          class="st4"
        />
        <path
          id="svg_64"
          d="M82.6 14.2c.9 2.8.9 6 1 9 .1 2-.2 4-.2 6.2 0 .5 1.7.7 1.7.3.1-2.7-.1-6.5-.3-9.3a27 27 0 00-1.5-8c-1.6-4.4-5-8.6-8-12.1-.7-.8-2.1.5-1.6 1.1 0 0 7 7.2 8.9 12.8"
          class="st4"
        />
        <path
          id="svg_65"
          d="M63 34.8c1.6-1 3.1-2 4.9-2.7 2-.8 4-.8 6.1-.7 1.9.1 3.7-.1 5.6-.4 2.1-.3 4.1-1.4 6.2-1 2 .4 3.9 1.1 5.8 1.5 1.8.4 3.7.5 5.6.6h3.4c.8.1 1.5.4 2.3.6 1.3.3 3 .5 4 1.6.5.5 1.2-.3.7-.7a6.7 6.7 0 00-3.3-1.5c-1.5-.4-3.2-.7-4.7-.9-2.4-.2-4.8-.1-7.2-.4-2.2-.3-4.3-1.3-6.6-1.5-1.8-.3-3.5.3-5.3.7-2.5.5-5.2.5-7.7.4-3.8-.2-7.3 1.4-10.2 3.8-.4.3.1.9.4.6"
          class="st3"
        />
        <path
          id="svg_66"
          d="M63.6 33.7c-.3-3.4.5-7.4-.2-10.2-.1-.6-1.7-.5-1.7.1.3 3.4.6 6.5.7 10.1 0 .5-.1 2.1.1 2.7.2.9 1.8 2.3 2.6 3.4.9 1.2 3.2 5.3 4.1 9.1.8 3.8-2 8.6-3.6 8.1-1.2-.4-2.3-3.2-3-5.4.5-.7 1.2-1 2.1-.9 1.6.2 2 2.5 3.4 2.4-.3-2.6-3.7-4.8-6-2.7-1.3-1-4.9-1.9-4.6-4.2.1-.7.5-1.1 1.6-1-1.4-1.6-3.5-2.4-5.4-3.5-2-2.4-2.9-4.1-3.3-7-.1-.6-1.4-.9-1.5-.1 0 4.4 4.1 7.6 6.4 11.1.6.9 1 2 1.7 2.8 1.1 1.2 3.1 1.5 4.1 2.6 1.1 1.2 2.3 6.1 3.9 6.8 1.7.7 2.9-.7 3.6-1.5 2.6 2.4 6.7 5.6 8.1 7.7 1.6 2.3 2.6 4.7 0 5.3-2.2.5-3.9-1.2-5.2-2.2 1.3-1.9 3.1.8 4.7 1.2-.3-1.7-4.1-4.2-5.6-1.6-4.2-4.2-12.6-8.1-14.4-9.5-2.4-1.8-4.3-7-8.6-12.4-2.3-2.9-2.7-6.1-2.9-11-.2-4.2.4-9.4 1.6-11.9 1.2-2.7 4.9-4.8 2.8-11.4-.2-.6-.6-2.1-1.1-2.5-.4-.4-1.7.5-1.5 1 3.8 7.5.3 8.1-1.6 12.7a34.7 34.7 0 00-.1 20.2c.2.6 1 2 1.5 2.7 3 4.1 5.4 10.3 9.3 13.7 1.2 1 3.2 1.9 4.6 2.7 6 3.4 10 6.6 13.2 8.6 3.7 2.5 7.4-.1 5.5-4.4-.4-.9-2-3.3-2.9-4.2-2.5-2.3-3.6-3.4-6.4-5.7a8 8 0 001.5-6.2c-.8-4.3-3.3-8.2-4.4-9.8-1.2-1.6-2.7-2.6-2.6-3.7l-.5-2z"
          class="st5"
        />
        <path
          id="svg_67"
          d="M106.9 33.7c.3-3.4-.5-7.4.2-10.2.1-.6 1.7-.5 1.7.1-.3 3.4-.6 6.5-.7 10.1 0 .5.1 2.1-.1 2.7-.2.9-1.8 2.3-2.6 3.4-.9 1.2-3.2 5.3-4.1 9.1-.8 3.8 2 8.6 3.6 8.1 1.2-.4 2.3-3.2 3-5.4-.5-.7-1.2-1-2.1-.9-1.6.2-2 2.5-3.4 2.4.3-2.6 3.7-4.8 6-2.7 1.3-1 4.9-1.9 4.6-4.2-.1-.7-.5-1.1-1.6-1 1.4-1.6 3.5-2.4 5.4-3.5 2-2.4 2.9-4.1 3.3-7 .1-.6 1.4-.9 1.5-.1 0 4.4-4.1 7.6-6.4 11.1-.6.9-1 2-1.7 2.8-1.1 1.2-3.1 1.5-4.1 2.6-1.1 1.2-2.3 6.1-3.9 6.8-1.7.7-2.9-.7-3.6-1.5-2.6 2.4-6.7 5.6-8.1 7.7-1.6 2.3-2.6 4.7 0 5.3 2.2.5 3.9-1.2 5.2-2.2-1.3-1.9-3.1.8-4.7 1.2.3-1.7 4.1-4.2 5.6-1.6 4.2-4.2 12.6-8.1 14.4-9.5 2.4-1.8 4.3-7 8.6-12.4 2.3-2.9 2.7-6.1 2.9-11 .2-4.2-.4-9.4-1.6-11.9-1.2-2.7-4.9-4.8-2.8-11.4.2-.6.6-2.1 1.1-2.5.4-.4 1.7.5 1.5 1-3.8 7.5-.3 8.1 1.6 12.7 1.9 4.6 2.2 14.8.1 20.2-.2.6-1 2-1.5 2.7-3 4.1-5.4 10.3-9.3 13.7-1.2 1-3.2 1.9-4.6 2.7-6 3.4-10 6.6-13.2 8.6-3.7 2.5-7.4-.1-5.5-4.4.4-.9 2-3.3 2.9-4.2 2.5-2.3 3.6-3.4 6.4-5.7a8 8 0 01-1.5-6.2c.8-4.3 3.3-8.2 4.4-9.8 1.2-1.6 2.7-2.6 2.6-3.7l.5-2z"
          class="st5"
        />
        <path
          id="svg_68"
          d="M68.6 72.1c.3 8.3-8.5 13.6-16 13.9-8.1.4-16.4-5-24.2-1-.6.3-.2 1.3.5 1.1 8.8-3.6 17.8 2.6 26.8.8 7-1.4 14.3-7 13.7-14.8 0-.5-.8-.5-.8 0"
          class="st3"
        />
        <path
          id="svg_69"
          d="M101.3 72.1c-.6 7.8 6.5 13 13.3 14.7 9.2 2.3 18.3-4.4 27.2-.7.6.3 1.1-.8.5-1.1-7.7-3.9-16.3 1.1-24.2 1-7.4-.1-16.3-5.8-16-13.9 0-.5-.8-.5-.8 0"
          class="st3"
        />
        <path
          id="svg_70"
          d="M77.7 8.9c-3.1-4-10-4.4-14.5-3.7-.8.1-.3 1.8.4 1.7 4.4-.8 10.1-.8 13.5 2.5.4.5.9-.1.6-.5"
          class="st4"
        />
        <path
          id="svg_71"
          d="M91.3 8.9c3.1-4 10-4.4 14.5-3.7.8.1.3 1.8-.4 1.7-4.4-.8-10-.7-13.5 2.6-.4.4-.9-.2-.6-.6"
          class="st4"
        />
      </g>
    </g>
  </g>
</svg>
