<svg xmlns="http://www.w3.org/2000/svg" viewBox="0 0 175 151.8">
  <path
    d="M54.6 73.7c1.9-2.3 4.2-4.2 5.3-7.3.5.9.6 1.6.5 2.3-.2 1.6-.5 3.2-1.2 4.7a5.3 5.3 0 01-2.9 2.8c-.5.2-.6.5-.4 1l.9 2.1c1.9-2.6 4.5-4.7 5.7-7.9.9 1.8.4 3.2.1 4.7-.2.9-.5 1.7-.9 2.6a5 5 0 01-2.9 2.8c-.6.2-.7.5-.3 1 .4.5.6 1.1.9 1.6a22 22 0 005.5-8c.7.5.6 1.2.6 1.7a12 12 0 01-1.7 7.1c-.5.8-1.2 1.3-2.1 1.6-.5.2-.5.4-.3.8.4.6.6 1.2 1.1 1.7 2.3-2.6 4-5.4 5.3-8.7 1 2.1.7 4.1.2 6.2a6.5 6.5 0 01-3.5 5c.7.9 1.3 1.9 2.4 2.8-.3-1.6 1-2.3 1.3-3.4.7-2 1.4-4.1 1.8-6.3l.1-.5c.7.5.8 1.2 1 1.8.5 2.1.7 4.2.3 6.3-.3 1.5-.7 3-2.3 3.7-.4.2-.3.4 0 .7l2.6 2.2c-.5-1.3.2-2.2.7-3.1.4-.7.5-1.5.5-2.4l.1-4.4c0-.2-.1-.5.2-.7.3-.1.4.2.6.3a9.3 9.3 0 011.7 3.8c.3 1.2.4 2.4.4 3.6 0 1.7-.3 3.2-1.9 4.3 1.4.9 2.7 1.8 4.2 2.6-.3.4-.4.9-1.1.5-1.1-.7-2.4-1-3.4-2-.6-.7-1.2-.3-1.6.2-1.1 1.4-2.7 1.5-4.2 1.4-1.5-.2-3-.4-4.4-1-1.2-.6-2.4-1.1-3.4-2.2 3.4-.5 6.8.8 9.7-1.2L68 96.9c-.3-.3-.5-.1-.7.1a4 4 0 01-2.9 1.1c-2.7.1-5.3-.4-7.6-1.9l-.2-.1c-.2-.4-.8-.5-.6-1 .2-.4.7-.2 1.1-.2 1.8.1 3.6.1 5.4-.1l2.5-.6c.2-.1.4-.2.1-.5L63.8 92c-.3-.4-.6-.4-.9-.2-1.2.9-2.6 1-4.1.8a15 15 0 01-4.7-1.4c-.7-.3-1.2-.9-1.8-1.4-.1-.1-.3-.2-.1-.4.1-.1.2-.2.4-.1 2.2.3 4.5.3 6.7.1l2.1-.5c-.5-.7-1-1.2-1.3-1.9-.1-.3-.5 0-.7.2-.9.9-2.2 1-3.3.9a13 13 0 01-6.5-2.7c-.3-.2-.6-.5-.3-.8.2-.3.5-.1.7 0 1.1.4 2.2.4 3.3.4l1.7-.1c.8 0 1.6.1 2.3-.4.3-.2.9-.2 1.3.1.2-.4-.1-.7-.3-.9a3 3 0 01-.5-.7c-.4-.9-.6-1.5-2-.9-2.1.9-4-.1-5.7-1.1a8.7 8.7 0 01-3.3-3.3c3.1.8 5.9 1.6 9 1.5l-1.1-2.1c-.2-.3-.5-.2-.7-.2-1 0-2 .2-2.9-.2a12 12 0 01-4-3.1c-.4-.6-1-1-1.2-1.8 0-.2-.2-.3 0-.5s.3-.1.5 0c.9.4 1.8 1 2.7 1.2 1.4.3 2.7 1.3 4.3 1.3.1-.8-.5-1.4-.6-2.1-.2-1.5-1.4-1.3-2.4-1.5-1.7-.3-2.8-1.4-3.9-2.5a7 7 0 01-1.5-2.3c-.2-.5-.2-.9-.2-1.6a19 19 0 006.2 3.5c.3-.8-.3-1.3-.3-2 0-1.2-.9-1.4-1.8-1.5-2-.3-3.1-1.7-4.1-3.2-.6-.8-1-1.7-1.2-2.7l.1-.8c1.8 1.8 3.8 2.8 5.8 3.9.3-.2.2-.5.2-.7-.3-.8-.4-1.6-.5-2.3-.1-.7-.7-.7-1.1-.8-1.8-.5-2.9-1.8-3.7-3.4-.5-.9-1.1-1.7-1.2-2.8 0-.2-.1-.4.1-.5.2-.1.3.1.4.2 1 .9 1.9 1.9 3.2 2.4l1.1.9c.2.1.4.4.7.1-.3-.9-.2-2-.3-3-.1-.7-.8-.8-1.3-.9-.7-.2-1.4-.6-1.8-1.2-1-1.4-2.2-2.8-2.2-4.7l.1-1c1.4 2 3.2 3 5.1 4.3v-3.3l-.4-.4c-1.9-.6-2.8-2.1-3.5-3.8-.4-.9-1-1.9-.5-3.3 1.1 1.9 2.8 2.9 4.4 4.1.5-1 .3-2.1.3-3.1 0-.3-.4-.4-.7-.5a7 7 0 01-3.3-6l.1-.8c.9.7 1 1.8 2 2.2 1 .4 1.3 1.4 2.3 2.1.1-.9.1-1.7.4-2.4.5-1.2-.3-1.8-1-2.5-1.5-1.6-1.7-3.7-1.5-5.8 0-.2 0-.2.5-.4.3 1.7 1.6 2.7 2.8 3.8.4-.1.3-.5.4-.8l.4-1.5c.1-.5.1-1-.3-1.5-1.5-1.5-1.5-3.5-1.3-5.4 0-.3.3-.5.4-.8.1-.1.1-.2.3-.2.2 0 .2.2.3.3.1 1.3 1.1 2.1 1.7 3.2.1.2.4.3.5 0l.8-2.2c.1-.5-.4-.7-.7-1a2 2 0 01-.7-1.5c-.1-1.5-.4-3.1.8-4.5.2 1.4 1 2.5 1.9 3.6.7-.6 1-1.5 1.3-2.3.1-.3-.2-.6-.4-.8-.9-.7-1.1-1.7-1-2.7.1-1.2.2-2.4 1.4-3.4.1 1.4 1 2.5 1.6 3.7 1-.6 1.3-1.7 1.8-2.6.1-.2-.2-.5-.2-.7-.2-1.4.6-2.3 1.5-3.1A16 16 0 0165.8 0h.5c.2.3-.1.5-.3.7a6.8 6.8 0 00-2.1 3.4l-.6 2c-.4.9-1.1 1.7-2 1.6-1.2-.1-1.3.8-1.7 1.4-.7 1.2-.7 1.1.7 1.3 1.2.2 2.3.5 3.5-.3.3.7-.3.9-.5 1.2-1 1.2-2.3 2-3.8 2.5-.7.2-1.4.4-2.1 0-.3-.2-.6-.1-.8.4l-.9 1.9c2-.8 4.1.5 5.8-1 .3.4 0 .7-.1.9a8 8 0 01-4.9 3.5c-.5.1-1-.1-1.5-.2-.4-.1-.7 0-.8.5l-.9 2.2c2.1-1.3 4.5 0 6.3-1.6-.3 1.3-1 2.1-1.9 2.9-1.4 1.2-3 2.1-5 1.8-.2 0-.4 0-.5.2-.3.9-.7 1.7-.6 2.8 1.7-1.5 4.3-.5 5.9-2.6.3 1.1-.3 1.7-.6 2.3a8.6 8.6 0 01-3.6 3.2c-.5.3-1 .3-1.5.3-.8-.1-1.1.3-1.2 1-.1.7 0 1.3-.3 2 1.7-1.4 4.2-1.3 5.4-3.4.5 1 .2 1.7-.1 2.3-.7 1.3-1.5 2.7-2.7 3.6-.7.5-1.5 1-2.4 1-.5 0-.8.4-.8.8v2.5c.8-.3 1.3-1.1 2-1.4a6.9 6.9 0 003.5-2.5c.1-.1.2-.3.4-.2.2.1.2.3.2.5-.1 1.4-.9 2.5-1.5 3.6a6.1 6.1 0 01-4.5 3.1l-.4.2c-.3.3-.1 2.5.3 3 1.7-1.8 4.4-2.2 5.6-4.8.7 1.2.1 1.9-.1 2.7a8.5 8.5 0 01-1.5 3 7 7 0 01-3.6 2.4c-.3.1-.7.4-.5.7.5.9.2 1.9.4 2.9 1.3-.6 1.9-2 3.2-2.5 1.4-.4 1.8-1.9 2.8-2.7.3 0 .4.3.4.5-.2 2.6-1.4 4.7-3.1 6.5-.6.6-1.4.8-2.2 1.1-.4.1-.6.2-.6.7l.6 3c1.9-2.2 4.4-3.5 5.8-6.3a8.5 8.5 0 01-2.4 7.7c-.5.6-1.2.9-2 1.1-.6.1-.9.5-.7 1.1l.6 2.2c.1.3.3.5.6.2 1.4-1.7 3.3-3 4.5-5l.5-1c.1-.2.2-.4.5-.4.3.1.3.3.3.6.1 1.6-.1 3.1-.8 4.5-.6 1.2-.9 2.5-2 3.3-.6.4-1.3.6-1.9.9-.2.1-.4.2-.3.4 0 1.6.3 2.6.8 3.5zM115.1 55.4c1.3 2.6 3.9 3.8 5.6 6 .6-1.1.4-2.1.7-3 .1-.3-.1-.5-.4-.6-2.5-.5-3.8-2.4-4.7-4.6a5.8 5.8 0 01-.5-3.8c1.4 2.7 4.2 3.4 6.1 5.7l.3-3.4c.1-.7-.7-.4-1-.6a8 8 0 01-3.3-2.7 8 8 0 01-1.6-4.2c0-.2-.1-.5.2-.7.3-.1.3.2.5.4.9.8 1.5 1.8 2.7 2.2 1 .4 1.8 1 2.5 1.8.3-.4.5-2.6.3-2.9-.2-.3-.5-.3-.8-.4a5.6 5.6 0 01-3.8-2.7c-.7-1-1.2-2-1.5-3.1-.1-.4-.2-.8.1-1.5 1.5 2.1 3.9 2.6 5.8 4.1v-2.7c0-.3-.3-.6-.7-.6-1.4-.1-2.3-.8-3.2-1.8a9 9 0 01-2.2-3.5c-.1-.5-.2-.9-.1-1.7 1.4 2 3.8 2 5.6 3.4-.2-1 0-1.9-.5-2.8-.1-.2-.3-.2-.5-.2-2.8 0-4.3-1.7-5.6-3.8-.3-.6-.9-1.1-.6-2.1 1.5 2.1 4.1 1.3 5.9 2.6 0-1.1-.2-1.9-.6-2.8-.1-.4-.5-.2-.8-.2-2.7 0-5.7-2.1-6.4-4.7 1.8 1.5 4.1.4 6.2 1.4-.2-1-.6-1.7-.9-2.5l-.8-.1c-3 .4-4.9-1.3-6.4-3.6l-.1-.6c1.8 1.5 3.8.1 5.9 1-.4-1-.7-1.7-1.1-2.3-.2-.3-.8-.2-1-.1-1 .6-1.8 0-2.5-.3-1.4-.7-2.7-1.4-3.5-2.8l-.2-.6c1.7 1.2 3.4.1 5.1.3-.3-1.1-1-1.7-1.6-2.5-.2-.3-.6 0-.9-.1-1.5-.4-2-1.4-2.3-2.8a7.5 7.5 0 00-1.9-3.9c-.3-.3-1-.4-1-1.1 1 .1 1.7.6 2.5 1 1.7 1 3.3 2.3 4.5 3.9.3.4.5 1 .3 1.4-.6 1.6.8 2.4 1.3 3.8.6-1.5 1.8-2.4 1.7-4 .7.5.9 1.1 1 1.7.5 1.7.5 3.3-.8 4.7l-.2.4c.4.8.5 1.6 1.1 2.3 1-1 1.9-2 2-3.6.5.5.7 1.1.7 1.6.1 1.3.3 2.5-.2 3.8l-.5.8c-.2.3-.6.5-.5.8l.9 2.4c0 .1.3.1.4-.1.6-1.1 1.8-1.8 1.9-3.3l.1-.2.3-.1c.7 1.4.5 2.9.3 4.4-.1.9-.6 1.7-1.3 2.4-.4.4-.3.8-.1 1.2.3.8.3 1.6.8 2.4.9-1.3 2.4-2 2.8-3.6 0-.2.1-.2.3-.2.2 0 .2.1.2.3.2 2.2.1 4.4-1.7 5.9-1.1.9-1 1.7-.8 2.7l.2 1.5c0 .2 0 .4.2.5.3.1.4-.1.5-.3.9-1.5 2.9-2 3.5-3.7l.3-.1c.3 1.4 0 2.6-.6 3.8a7.2 7.2 0 01-2.9 3.1c-.2.1-.4.2-.4.5.1 1-.1 2 .4 3 1.4-1.4 3.2-2.2 4.3-4.1.4 1.4 0 2.5-.4 3.5a6.3 6.3 0 01-3.4 3.6c-.2.1-.4.2-.4.5v3.4c1.7-1.5 3.8-2.1 4.8-4.4.4 1.4 0 2.4-.5 3.4-.8 1.8-2 3.1-4 3.7-.4.1-.7.5-.7 1 0 .9.2 1.8-.5 2.7 1.5-.1 2-1.4 3.1-1.8 1.1-.3 1.7-1.5 2.7-2.3-.2 1.6-.6 2.9-1.3 4.1-1 1.6-2.4 2.9-4.4 3.2-.3.1-.4.3-.4.6l-.5 3c1.2-.3 2.2-1 3.1-1.5 1-.5 1.8-1.3 2.8-2.1.3.9-.1 1.5-.4 2.1-.8 1.7-2 3.2-3.8 4-.4.2-.9.4-1.4.4-.9 0-1.2.4-1.3 1.2-.1.7-.5 1.4-.4 2.2 2.2-.9 4.3-1.8 6.1-3.4.4.6.2 1.1 0 1.5a9.8 9.8 0 01-4.7 4.7c-.5.2-1 .4-1.5.3-.9-.1-1.3.3-1.5 1.1-.2.7-.6 1.4-.7 2.2 1.1.3 2-.5 2.9-.8 1.4-.3 2.7-.9 3.9-1.6.2-.1.5-.3.7-.1.3.3-.1.4-.2.7-1 2.2-2.8 3.5-4.8 4.6-.8.5-1.9.6-2.9.3-.7-.2-1.2 0-1.4.8l-.6 1.5c3.1.1 5.9-.7 8.9-1.5a6 6 0 01-1.7 2.3c-1.3.9-2.6 1.8-4.2 2.2-1.3.4-2.7.5-3.9-.4-.2-.2-.5-.2-.6 0l-1.3 2.6c3.1.7 6.1 1 9.1.2.3.4 0 .7-.2.9-.8.9-2 1.3-3.1 1.8-1.3.6-2.6 1-4 1-1 0-2-.1-2.8-.9-.4-.4-.8-.5-1.1.2-.2.5-.6 1-1 1.5 1.5.7 3.1.6 4.6.7 1.5.1 3-.3 4.6-.1-.6 1.4-1.9 1.8-3.1 2.3-1.3.6-2.8.9-4.2 1-1.3.2-2.5-.2-3.5-.9-.3-.2-.5-.3-.8.1l-1.3 1.8c-.3.4 0 .5.3.6 2.3.8 4.7.7 7.1.6h.6c.4.1.9-.2 1 .3.1.4-.4.7-.7.9a13.5 13.5 0 01-8.6 1.9c-.7-.1-1.4-.4-1.8-.9-.4-.4-.7-.5-1.1 0l-1.6 1.3c3 2 6.3.7 9.6 1.2-.3.8-1 1.1-1.6 1.4-2 1.2-4.2 1.8-6.5 1.9-1.7.1-3.4-.3-4.3-2.2a25 25 0 01-4.1 2.5c-.6.3-1 .3-1.3-.5 1.5-.6 2.7-1.7 4.2-2.4-1.4-1-1.8-2.4-1.9-3.9-.1-2.3.4-4.5 1.2-6.7.2-.6.7-1.1 1.2-1.5.3-.3.5 0 .5.3v1.8c-.1 2.4.1 4.7 1.2 6.8.2.5 0 .9-.1 1.4 1.1-.5 1.9-1.4 2.7-2.2.3-.3 0-.6-.2-.8-1.1-.6-1.5-1.7-1.9-2.8-.7-1.9-.4-3.8-.3-5.7.1-1.1.5-2.1 1.3-3.3l.9 4.2c.4 1.5.8 3 1.9 4.2.4.5.5 1.1.5 1.9l2.3-2.7c-3.4-1.4-3.4-4.7-4.1-7.5-.3-1.3.2-2.5.8-3.8 1.1 3.3 3.1 6 5.1 8.8.6-.5.9-1.3 1.3-2.1.1-.1-.1-.3-.3-.4-1.9-.5-2.6-2.1-3.2-3.7-.7-1.9-.7-3.9-.6-5.8 0-.6 0-.6.5-.9a21 21 0 005.4 8.1l1.1-2c.1-.3.1-.5-.2-.6-2.6-.8-3.3-2.9-4-5.2-.3-1-.6-2-.6-3.1 0-.6.2-1.1.4-1.8.8.6 1 1.4 1.4 2.1.2.4.4.9.7 1.2 1.2.9 1.7 2.3 2.9 3.3.4.4.7.9.9 1.7l1.2-2.8c.1-.3-.1-.5-.4-.6-1.9-.6-2.7-2-3.4-3.7-.8-1.7-.9-3.5-.8-5.3 0-.4.1-.4.6-.7.9 2.9 3.3 4.7 5 7.1.5-.9 1-1.8 1.3-2.8.1-.4-.3-.4-.5-.4-2-.5-3.1-2-3.8-3.7-.7-1.5-1-3.2-.9-4.9 0-.3-.1-.6.4-.7a12 12 0 002.5 3.4l3.1 3.2c.3-1.1.8-2.2.7-3.3 0-.4-.7-.5-1.1-.6-2.3-.9-3-2.9-3.6-5 .1-1.4.1-2.5.3-3.7z"
  />
  <path
    d="M60.2 46.7c.6-52 47.6-56.8 51.3-3 .9 56.2-49.5 59.1-51.3 3zm49.6.4C108.4-7.3 62.1-5 62 48c2.7 52.6 46.7 48 47.8-.9z"
  />
  <path
    d="M85.9 9.3c31.2 2.1 29.5 74.5-1.8 73.1-28.5-4.5-27.5-71.7 1.8-73.1zm21.6 36.5C106.2-1 66.1-1.8 64.2 45.4c.9 48.6 42.5 47 43.3.4z"
  />
  <path
    d="M100 46.6H88.1c-.5 0-.7.2-.7.7v19.2c0 .5.2.8.6.9.6.2 1 .7 1.4 1 .3.3.4.7-.2 1.1l-1 .4c-1.6.2-3.2.3-4.9-.1-.5-.1-1-.3-1-.9 0-.6.5-1.1 1-1.2 1-.3 1.2-.9 1.2-1.9V47.4c0-.6-.1-.9-.8-.8H71.6c0 1.5.1 3 .6 4.5l.7 3.4c.6 2.4 1.1 4.9 2.2 7.2.6 1.2 1 2.5 1.5 3.7a3 3 0 001.9 2 8 8 0 011.6.8c.4.2.5.5.5.9-.1.4-.3.5-.7.6-1.8.5-3.6.3-5.3.2-1 0-1.4-1-.7-1.9.5-.7.4-1.3 0-2-1.3-2.9-2.7-5.8-3.5-8.9l-1-3.9c-.9-2.7-.9-5.6-1-8.4a31 31 0 01.8-9.6c.7-2.8 1.4-5.6 2.8-8.1.9-1.7 1.8-3.5 3-5.1.6-.8.4-.9-.3-1.2-.5-.2-1.2-.6-1-1.3.1-.8.9-.8 1.5-.9 1.5-.3 3.1-.2 4.6.1.4.1.9.2.9.7.1.5 0 1-.6 1.1-1.6.4-2.3 1.7-3 2.9a31.6 31.6 0 00-3.4 7.2c-.5 1.6-.8 3.4-1.2 5-.7 2.4-.5 4.9-.7 7.3 0 .5.1.7.6.7h11.8c.5 0 .6-.2.6-.6V21.9c0-.6-.5-.7-.8-.9l-.9-.4c-.8-.6-.7-1.6.2-1.8 2-.4 4-.7 5.9.1.6.3.7 1.1.2 1.5l-.3.2c-1.4.4-1.5 1.4-1.5 2.6v19.4c0 .7.2 1 .9 1h10.8c.8 0 1.1-.2 1-1a39.4 39.4 0 00-5-18.7l-1.7-2.4c-.4-.6-1.1-.8-1.8-1-.5-.2-.7-.5-.6-1 0-.5.4-.7.9-.8a14 14 0 015.4 0c.5.1.9.3.9.8.1.6-.3.9-.7 1.1l-.7.3c-.5.2-.4.4-.2.8a37.7 37.7 0 016.6 18.2c.2 1.8.5 3.6.3 5.4-.3 2.5-.5 5-1 7.5-.5 2.2-.9 4.3-1.7 6.3l-2.2 5.4c-.3.7-.5 1.4-1 2-.2.2-.2.6.2.9.4.4.9.9.6 1.6-.6.9-1.2 1-1.9 1-1.6 0-3.3.2-4.9-.3-.4-.1-.7-.2-.8-.6-.1-.4.1-.7.5-1 .4-.2.8-.5 1.3-.6 1.6-.5 2.3-1.8 2.8-3.3.8-2.4 1.8-4.7 2.5-7.1.5-1.8 1-3.7 1.2-5.6.4-1.6.7-3.2.7-4.9zM78.8 68.8c-.5-.4-1.2-.5-1.8-.9-1.2-1.1-1.6-2.6-2.3-4-1.4-2.7-1.9-5.7-2.8-8.6-.5-1.7-.7-3.4-1-5.2-.2-1.1-.1-2.3-.4-3.4-.2-.7 0-1.1.9-1.1h12.9c.9 0 1.2.3 1.2 1.2v18.8l-.1 1.7c-.1.9-1.2.8-1.7 1.4.9.6 3.4.5 4.2 0l-1.1-.6c-.5-.2-.8-.6-.8-1.2V46.5c0-.6.2-.8.8-.8h3.7c3.1-.1 6.1.1 9.2-.1 1-.1 1.3.3 1.2 1.2a76.2 76.2 0 01-4 17.2c-.9 2-1.5 4.2-4.2 4.8.4.3.7.4 1.1.4h2.7c.2 0 .5 0 .6-.2.1-.3-.1-.4-.3-.5-.6-.6-.7-1.2-.3-2l1.4-2.8c1.1-2.3 1.9-4.7 2.7-7.1.7-2.1 1-4.4 1.4-6.6.5-2.7.4-5.4.3-8.1 0-2.2-.3-4.4-.8-6.5-.3-1.4-.6-2.9-1.2-4.2L99 27.9c-.9-2.1-2.2-3.9-3.5-5.8-.4-.7-.2-1 .3-1.4l.6-.3c.3-.2.3-.5 0-.6a9.3 9.3 0 00-3.7.1c1.3.9 2.1 1.9 2.9 3.1 1 1.7 2.1 3.4 2.8 5.2a40.5 40.5 0 012.9 16.1c0 .5-.3.7-.7.7H87.3c-.6 0-.9-.3-.9-.9V21.8c0-.4.1-.7.5-.9.5-.2 1.2-.2 1.4-1.1-1.4-.1-2.8-.2-4.2 0 0 .7.5.7.8.8.5.2.9.5.9 1v22.1c0 .8-.3 1.2-1.1 1.2H71.8c-.8 0-1-.3-1-1 0-4.2.4-8.4 1.8-12.5l1.3-3.8c.9-2.3 2.3-4.3 3.6-6.3.4-.6 1.2-.8 1.6-1.5-1.4-.1-2.7-.1-4.1.1l.5.4c1.6 1.1 1.7 1.2.5 2.6-1.7 2.1-2.7 4.6-3.8 7-.7 1.4-1 3-1.4 4.5a41 41 0 00-.1 18.7l1 4c.4 1.8 1.3 3.5 1.9 5.2.5 1.4 1 2.8 1.9 4.1.5.7.7 1.6-.3 2.2-.1.1-.3.2-.2.4l.4.2h3.5c-.2-.1-.1-.2-.1-.4z"
  />
  <g>
    <path
      d="M27.2 111.9c-2.4.2-2.6.4-3.1 2.9l-2.5 12.8c-.5 2.5-.3 2.7 2.3 2.9l-.2 1.1h-9l.3-1.1c2.5-.2 2.8-.5 3.2-2.9l1.2-6.2h-9.1l-1.1 6.2c-.5 2.5-.3 2.7 2.2 2.9l-.3 1.1H2.3l.3-1.1c2.4-.2 2.5-.5 3-2.9l2.5-12.8c.5-2.5.3-2.7-2.3-2.9l.2-1.2h8.8l-.3 1.2c-2.3.2-2.5.4-2.9 2.9l-.9 5h9.1l1-5c.5-2.4.3-2.7-2.2-2.9l.3-1.2h8.7l-.4 1.2zM36.6 128.2c-2.9 3-5.3 3.9-7.3 3.9-1.7 0-3.8-1-3.8-4.8 0-3.1 1.4-6.4 3.8-8.3 1.3-1.1 3.3-2 4.9-2 2.1 0 3.2 1.3 3.2 2.8 0 3.3-5.2 4.9-8.4 5.8v.9c0 1.7.5 3.2 2.3 3.2 1.3 0 3.1-.9 4.7-2.5l.6 1zm-4.8-9.3c-.8.5-2.2 2.1-2.6 5.4 3.9-1.1 5.2-2.5 5.2-4.1 0-1.2-.7-1.7-1.4-1.7-.4 0-.9.1-1.2.4zM43.5 122.1c1.7-3.1 3.4-5.1 4.7-5.1.6 0 1.2.3 1.5.9.3.5.3 1.2-.1 1.8l-1 1.1c-.3.2-.6.2-.8 0-.4-.3-.8-.6-1.2-.6-.3 0-.7.3-1.4 1.2-.9 1.2-1.6 2.5-2 3.7l-1.3 6.3c-1 .1-2.2.3-3.1.6l-.2-.3c.8-3.4 1.6-6.9 2.2-10.4.2-1.1.2-1.5-.1-1.5-.3 0-1.3.6-2.1 1.3l-.5-1c1.8-1.9 3.8-3.2 4.9-3.2 1 0 1.1 1.4.6 3.8l-.3 1.3h.2zM55.2 122.1c1.7-3.1 3.4-5.1 4.7-5.1.6 0 1.2.3 1.5.9.3.5.3 1.2-.1 1.8l-1 1.1c-.3.2-.6.2-.8 0-.4-.3-.8-.6-1.2-.6-.3 0-.7.3-1.4 1.2-.9 1.2-1.6 2.5-2 3.7l-1.3 6.3c-1 .1-2.2.3-3.1.6l-.2-.3c.8-3.4 1.6-6.9 2.2-10.4.2-1.1.2-1.5-.1-1.5-.3 0-1.3.6-2.1 1.3l-.5-1c1.8-1.9 3.8-3.2 4.9-3.2 1 0 1.1 1.4.6 3.8L55 122h.2zM60.7 126.8c0-4.2 2.2-7.3 4.8-8.7a8.4 8.4 0 014-1.2c2.9 0 4.5 2 4.5 5.1 0 2.9-1.1 6-3.4 7.9a8.4 8.4 0 01-5.3 2.1c-3.5.1-4.6-2.6-4.6-5.2zm6.7 3.6c1.4-.6 3-4 3-8.4 0-2.5-.9-3.5-2.2-3.5l-1 .2c-1 .5-3 3.1-3 8.2 0 2.4.9 3.6 2.2 3.6l1-.1zM90.3 128.8c-2.2 2.3-4.1 3.3-5.2 3.3-.9 0-1.4-.7-.8-3.4l1.6-7c.4-1.7.2-2-.1-2.1-1.2 0-4.5 3.5-5.8 5.8l-1.4 6c-1.1.1-2.3.4-3.1.6l-.3-.2a252.2 252.2 0 002.5-11.9c-.3 0-1.3.7-2.1 1.4l-.5-1c2-2.1 4-3.2 5.1-3.2.9 0 1.2 1 .5 3.9l-.5 2h.1c1.8-2.5 3.8-4.1 5.1-5 .9-.6 1.8-.9 2.5-.9 1 0 2 .6 1 4.8l-1.4 6.2c-.2.9-.2 1.2.1 1.2.3 0 1.2-.6 2-1.4l.7.9zM121.5 111.9c-2.4.2-2.6.4-3.1 2.9l-2.5 12.8c-.5 2.5-.3 2.7 2.3 2.9l-.2 1.1h-9l.3-1.1c2.5-.2 2.8-.5 3.2-2.9l1.2-6.2h-9.1l-1.1 6.2c-.5 2.5-.3 2.7 2.2 2.9l-.3 1.1h-8.8l.3-1.1c2.4-.2 2.5-.5 3-2.9l2.5-12.8c.5-2.5.3-2.7-2.3-2.9l.2-1.2h8.8l-.3 1.2c-2.3.2-2.5.4-2.9 2.9l-.9 5h9.1l1-5c.5-2.4.3-2.7-2.2-2.9l.3-1.2h8.7l-.4 1.2zM119.9 126.8c0-4.2 2.2-7.3 4.8-8.7a8.4 8.4 0 014-1.2c2.9 0 4.5 2 4.5 5.1 0 2.9-1.1 6-3.4 7.9a8.4 8.4 0 01-5.3 2.1c-3.6.1-4.6-2.6-4.6-5.2zm6.6 3.6c1.4-.6 3-4 3-8.4 0-2.5-.9-3.5-2.2-3.5l-1 .2c-1 .5-3 3.1-3 8.2 0 2.4.9 3.6 2.2 3.6l1-.1zM149.6 128.6c-2 2.3-4 3.4-5.2 3.4-.6 0-1-.4-1-1.5l.3-1.9.5-2.2h-.2a20.5 20.5 0 01-4.8 4.7c-.8.5-1.7.8-2.5.8-.7 0-1.5-.3-1.5-2.1l.3-2.3 1.6-6.7c.2-.9.2-1.1-.1-1.2a7 7 0 00-2.1 1.4l-.5-1c2-1.9 4.2-3.2 5.2-3.2.6 0 .9.3.9 1.2l-.3 2-1.6 7.1-.2 1.3c0 .6.2.8.5.8 1.6 0 4.6-3.8 5.5-5.5.5-1.8.9-3.9 1.3-6l3-.9h.4c-.9 3.3-1.7 6.8-2.5 10.9-.2 1-.1 1.3.1 1.3.3 0 1.3-.7 2.1-1.6l.8 1.2zM149.8 129.6c0-.7.5-1.3 1-1.6.5-.3.8-.3 1.1.1 1 1.3 2.2 2.2 3.4 2.2 1 0 1.7-.7 1.7-1.5 0-.7-.4-1.4-1.9-2.6-1.4-1.1-3.1-2.3-3.1-4.1 0-1.1.5-2.2 1.9-3.4a7 7 0 013.8-1.6c1.6 0 2.8 1 2.8 2 0 .6-.4 1.2-1 1.6-.4.2-.7.2-.9-.1-.6-.9-1.5-1.7-2.7-1.7-.8 0-1.4.6-1.4 1.4 0 1 .9 1.8 2.2 2.7 1.9 1.3 2.9 2.4 2.9 4 0 2.8-3.4 5.2-6.2 5.2-1.6-.1-3.5-1.3-3.6-2.6zM172.4 128.2c-2.9 3-5.3 3.9-7.3 3.9-1.7 0-3.8-1-3.8-4.8 0-3.1 1.4-6.4 3.8-8.3 1.3-1.1 3.3-2 4.9-2 2.1 0 3.2 1.3 3.2 2.8 0 3.3-5.2 4.9-8.4 5.8v.9c0 1.7.5 3.2 2.3 3.2 1.3 0 3.1-.9 4.7-2.5l.6 1zm-4.8-9.3c-.8.5-2.2 2.1-2.6 5.4 3.9-1.1 5.2-2.5 5.2-4.1 0-1.2-.7-1.7-1.4-1.7a2 2 0 00-1.2.4z"
    />
  </g>
  <g>
    <path
      d="M11 145.4l1.8-.1c.3 0 .6-.2.9-.7l.3-.9.1-.1h.3l.1.1v2l.1 1.8-.1.2-.4.1-.1-.1-.3-.8c-.2-.4-.5-.6-.9-.7l-2-.1v4.3c0 .5.1.6.6.6h.9l.1.1v.4l-.1.1-2.5-.1-2.4.1-.1-.1v-.5l.1-.1h.7c.4 0 .6-.1.6-.4l.1-5.5v-1.2-3.4c0-.3-.2-.5-.7-.5h-.9l-.1-.1v-.5l.1-.1 2.8.1h5.9l.7-.1.1.2.7 2.9-.1.1-.3.1-.2-.1-1.2-1.6a2 2 0 00-1.2-.8l-3.3-.2v5.6zM40.9 147.9v.2l-.9 3.4-7.2-.1-2.4.1-.1-.2v-.4l.1-.1h.7c.6 0 .7-.2.7-.5l.1-5.6v-1l-.1-3.2c0-.4-.1-.6-.6-.6h-.7l-.1-.2v-.4l.1-.1 2.4.1 2.7-.1.2.2v.4l-.2.1h-.9c-.5 0-.6.2-.6.6l-.1 4v1.5l.1 4.8h1l2.9-.1c1-.1 2.1-2.2 2.3-2.9l.2-.1.4.2zM64.8 140.4a6.5 6.5 0 012.3 5.1c0 1.3-.3 2.6-1.3 3.8a6 6 0 01-5.2 2.4c-1 0-2.5-.3-3.9-1.1-1.2-.7-2.5-2.6-2.5-5.1a7 7 0 011.6-4.3 5.8 5.8 0 014.9-2.2c1.3 0 2.7.2 4.1 1.4zm-6.6.3c-1.1 1-1.5 2.8-1.5 4.2 0 4.5 2.8 6.1 4.2 6.1 3.5 0 4-3.9 4-5.3 0-3.8-2.5-5.9-4.2-5.9-.4 0-1.4-.2-2.5.9zM81 140.5c-.2-.5-.4-.6-.7-.6h-.5l-.1-.1v-.4l.1-.1 2.2.1 2.1-.1.1.1v.4l-.2.1h-.3c-.3 0-.5.2-.4.6l2.5 8 2.5-7.3c0-.3-.1-.7-.3-.9-.1-.2-.4-.3-.6-.3H87l-.1-.1v-.4l.1-.1 2.2.1 2.3-.1.1.2v.4l-.1.1h-.6c-.3 0-.5.4-.4.7l2.5 8h.1c.5-1.5 2.5-7.2 2.5-8.1 0-.2-.2-.5-.6-.5h-.5l-.1-.1v-.4l.1-.1 1.8.1 1.6-.1.1.1v.5l-.1.1h-.4c-.3 0-.6.2-.8.6l-4 10.9c-.1.2-.2.4-.4.4a.4.4 0 01-.4-.4l-3.1-9.1h-.1l-3.3 9.1c-.1.2-.2.3-.4.3s-.3-.1-.3-.3L81 140.5zM114.8 146.5l.1 2.9c0 .9.3 1.2.7 1.3l1.3.1 1.4-.1c.3 0 1-.2 1.4-.6l1.6-1.8.2-.1.3.2c.1 0 .1.1 0 .2l-.8 2.6c-.1.2-.2.3-.4.3H111.2l-.1-.1v-.4l.2-.1h.6c.8 0 .9-.1.9-.7v-5.9l-.1-3.8c-.1-.5-.2-.6-.8-.6h-.7l-.1-.1v-.4l.1-.1 2.4.1h6.7l.1.1.8 2.7-.1.2-.3.1-.2-.1c-.1-.1-1.5-1.7-1.9-1.9-.4-.2-.8-.4-1.3-.4l-2.6-.1v5l2-.1c.4-.1.6-.2.8-.6l.3-1 .1-.1h.4l.1.1v1.9l.1 1.9-.1.1-.4.1-.1-.1-.3-.9c-.2-.3-.5-.6-.9-.6l-2-.1v.9zM138.5 146.9l.1 3.2c.1.3.2.7.4.7h.9l.1.1v.4l-.2.2-2.4-.1-2.3.1-.1-.2v-.4l.1-.1h.6c.4 0 .7-.1.7-.6v-9.5c0-.6-.2-.9-.6-.9h-.7l-.1-.1v-.5l.1-.1 2.4.1 3.1-.1c1.4 0 2.4.5 3.1 1.1.6.6.9 1.3.9 1.9 0 2.2-1.3 3.1-3.2 3.4v.1c.5.2.8.5 1 .8l1.4 2.1 1.5 2c.3.3.8.3 1.2.3l.1.1v.4l-.1.2-1.7-.1-1.5.1-.8-1-1.1-2-.9-1.5c-.4-.6-.8-1.1-1.5-1.1h-.6v1zm.1-1.5l.7.1a3 3 0 003.2-3c0-.8-.3-1.5-.8-1.9-.6-.6-1.4-.7-2.3-.7l-.6.1-.2.5v4.9zM160.6 147.6l.1.1c0 .6.2 1.2.7 2 .5.8 1.4 1.2 2.3 1.2.9 0 2.2-.6 2.2-2 0-1.6-.7-2.1-2.5-2.8a8 8 0 01-2.5-1.4c-.6-.6-.9-1.4-.9-2.5 0-1 .4-1.8 1.2-2.4.7-.6 1.4-.8 2.4-.8 1.1 0 1.8.3 2.2.4.2.1.3 0 .4-.1l.2-.2.2-.1.1.3.3 2.9-.1.1-.3.1-.2-.1c-.2-.5-.4-1.2-1.1-1.8-.4-.5-1-.7-1.8-.7a1.8 1.8 0 00-1.9 1.7c0 .6.1 1.1.5 1.5a6 6 0 002.1 1.1c1 .3 1.8.7 2.5 1.3.6.6.9 1.3.9 2.5 0 2.1-1.4 3.8-3.6 3.8-1.4 0-2.2-.3-2.9-.8l-.4-.2-.3.3c-.1.2-.2.2-.3.2-.1 0-.2-.1-.2-.3l.3-3.2.1-.1h.3z"
    />
  </g>
  <path stroke="#000" stroke-miterlimit="10" d="M0 135.3h175" />
</svg>
