<svg xmlns="http://www.w3.org/2000/svg" viewBox="0 0 175 69.4">
  <style>
    .st0 {
      fill: #00205c;
    }
  </style>
  <path
    d="M91.9 48.1h-8.4V26.4H64.8v21.7h-8.4V.2h8.4v18.2h18.7V.2h8.4v47.9zM173.9 7.5h-18.7v11.2h18.1v6.6h-18.1v15.6h18.7v6.6h-25.7V.9h25.7v6.6zM121.4 29.8H133c-.3 3.3-1.9 6.1-4.6 8.4a14.4 14.4 0 01-9.3 3.5c-4.1 0-7.8-1.6-11.3-4.7a16.6 16.6 0 01-5.6-12.8c0-5 1.7-9.2 5-12.5 3.3-3.4 7.5-5.1 12.4-5.1 3.2 0 6.2.9 8.9 2.7V1.7a24.4 24.4 0 00-33.3 22.6c0 6.6 2.3 12.3 7 17a22.6 22.6 0 0016.7 7.1 21 21 0 0016.5-7.3c1.9-2.2 3.3-4.5 4.1-7 .8-2.7 1.2-5.8 1.2-9.3v-1.5h-19.2v6.5z"
    class="st0"
  />
  <path
    d="M142.4 11.5h1.5c-.6 1.7-1.4 3.4-2.5 5l3.6 3.8h-1.8l-2.7-2.8c-1.7 2-3.8 3-6.1 3-1.4 0-2.5-.4-3.4-1.2a3.8 3.8 0 01-1.3-3c0-2.3 1.5-4.1 4.4-5.4-1.5-1.5-2.2-2.9-2.2-4.1 0-1.1.4-2 1.2-2.8a4 4 0 013-1.1 4 4 0 012.8 1c.7.7 1.1 1.6 1.1 2.6 0 1.9-1.2 3.4-3.7 4.7l4 4.2c1-1.1 1.6-2.5 2.1-3.9zm-2.7 5.1l-4.5-4.7c-1.3.6-2.3 1.2-2.9 1.8-.6.7-.9 1.5-.9 2.4 0 1 .3 1.7.9 2.3.6.6 1.4.8 2.5.8 1.8.1 3.4-.8 4.9-2.6zm-4.1-6.3c2.2-.9 3.3-2.1 3.3-3.6 0-.7-.3-1.3-.8-1.8s-1.1-.7-1.9-.7c-.8 0-1.5.2-2 .7-.5.5-.8 1.1-.8 1.8 0 1.1.7 2.3 2.2 3.6zM19.3.6h-2.8a20.3 20.3 0 00-7 11.1c3 .8 6.4 1.3 9.8 1.4V.6zM9 33.6c3.2-.9 6.7-1.4 10.3-1.5v-7.3H7.9c.1 3.1.4 6.1 1.1 8.8zM.8 22.7h5c.1-3.4.5-6.6 1.2-9.5-2.2-.8-4.3-1.7-6.1-2.8v12.3zM1.6 8.3c1.7 1.1 3.7 2 5.9 2.8 1.3-4.4 3.3-8 5.7-10.4h-.4A23.7 23.7 0 001.6 8.3zM31.2 11.7c-1.5-5.1-4-9.2-7-11.1h-2.8v12.5c3.5 0 6.8-.5 9.8-1.4zM9.5 35.7c1.9 6.4 5.3 11.1 9.1 12.1h.6V34.2c-3.3.1-6.6.6-9.7 1.5zM31.8 13.8c-3.2.9-6.7 1.4-10.3 1.5v7.4h11.4c-.1-3.2-.5-6.2-1.1-8.9zM21.5 32.1c3.6.1 7.1.6 10.3 1.5.6-2.7 1-5.7 1.1-8.8H21.5v7.3zM19.3 15.3c-3.6-.1-7.1-.6-10.3-1.5-.7 2.7-1.1 5.7-1.1 8.9h11.4v-7.4zM39.2 39.1c-1.7-1.1-3.7-2-5.9-2.8A23.7 23.7 0 0127.5 47c4.6-1.4 8.7-4.2 11.7-7.9zM.8 41.5v6.3h8.7a26.3 26.3 0 01-8.7-6.3zM7.5.6H.8V6C2.7 3.9 5 2.1 7.5.6z"
    class="st0"
  />
  <path
    d="M33.3.6a26.6 26.6 0 01-2 47.2h20.2V.6H33.3zM5.8 24.8h-5v12.3C2.6 36 4.7 35 6.9 34.3c-.7-2.9-1.1-6.1-1.1-9.5z"
    class="st0"
  />
  <path
    d="M28.1.6h-.4c2.4 2.4 4.4 6 5.7 10.4 2.1-.7 4.1-1.7 5.9-2.8-3-3.4-6.8-6.1-11.2-7.6zM31.2 35.7c-3.1-.8-6.4-1.3-9.8-1.4v13.6h.6c4-1.2 7.3-5.8 9.2-12.2zM13.3 47a24.8 24.8 0 01-5.9-10.7c-2.2.7-4.1 1.7-5.9 2.8A25 25 0 0013.3 47zM40.5 10c-2 1.3-4.2 2.3-6.6 3.1.7 2.9 1.1 6.1 1.2 9.5h9.7A25 25 0 0040.5 10zM44.7 24.8H35c-.1 3.4-.5 6.6-1.2 9.5a31 31 0 016.6 3.1c2.6-3.6 4.1-8 4.3-12.6z"
    class="st0"
  />
  <g>
    <path
      d="M5.1 61.6l-.1 1H2.3L2 64.4h2.7l-.1 1H1.9l-.3 2.4h2.7l-.1 1H.6l.8-7.3h3.7zM15.2 60.9l.6 8h-1.2l-.3-4.6-2.8 5.2-1.6-5.2-1.5 4.6H7.3l2.5-7.8 1.8 6 3.6-6.2zM19.8 61.6h1.5c.6 0 1.1.1 1.5.3l.7.7c.2.3.2.7.2 1 0 .5-.1 1-.4 1.4-.4.6-1.1.9-2.1.9h-.8l-.4 3h-1.1l.9-7.3zm1 1l-.3 2.3h.7c.4 0 .8-.1 1-.3.2-.2.4-.6.4-1 0-.7-.4-1-1.3-1h-.5zM33.9 65.1c0 .8-.2 1.5-.7 2.2-.3.5-.8.9-1.4 1.2a4 4 0 01-1.9.4c-1.1 0-2-.3-2.7-1-.7-.7-1-1.5-1-2.6s.4-1.9 1.1-2.6c.7-.7 1.6-1 2.8-1 1.1 0 2 .3 2.7 1 .8.5 1.1 1.3 1.1 2.4zm-1 0c0-.7-.2-1.3-.7-1.8a3 3 0 00-3.9.1c-.5.5-.8 1.1-.8 1.9 0 .7.3 1.4.8 1.8.5.5 1.1.7 1.9.7.8 0 1.5-.3 2-.8a3 3 0 00.7-1.9zM46.5 61.6l-3.8 7.6-1.4-5.1-2.5 5.2-2.2-7.7h1.1l1.4 5 2.6-5.2 1.5 5.1 2.4-4.8h.9zM53 61.6l-.1 1h-2.7l-.2 1.8h2.7l-.1 1h-2.7l-.3 2.4h2.7l-.1 1h-3.6l.8-7.3H53zM58.4 65.8l1.8 3.1h-1.1l-1.7-3H57l-.4 3h-1.1l.9-7.3h1.4l1.1.1.7.4c.4.4.6.9.6 1.5 0 1.2-.6 1.9-1.8 2.2zm-1-3.2l-.3 2.3h.5l.8-.1.5-.4c.2-.2.3-.5.3-.8 0-.4-.1-.6-.3-.8-.2-.2-.5-.3-1-.3h-.5zM65.2 61.6l-.9 7.3h-1l.9-7.3h1zM75.1 61.6l-1 7.8-4.4-5.6-.7 5.1h-1l.9-7.7 4.4 5.6.6-5.2h1.2zM81.8 65.4h2.9c-.1.8-.3 1.5-.6 2-.6 1-1.5 1.4-2.7 1.4-1 0-1.8-.3-2.5-1-.6-.7-1-1.5-1-2.5a3.8 3.8 0 011.2-2.9c.7-.6 1.5-.9 2.5-.9 1.2 0 2.2.5 3 1.5l-.7.7a2.8 2.8 0 00-2.3-1.2c-.8 0-1.4.3-1.9.8s-.7 1.2-.7 2a2.4 2.4 0 002.5 2.5c.5 0 1-.1 1.3-.4.4-.3.6-.6.7-1h-1.8l.1-1zM95.4 65.6l-.4 3.3h-1.1l.4-3.3-1.9-3.9h1.2l1.3 2.9 1.9-2.9H98l-2.6 3.9zM107.3 65.1c0 .8-.2 1.5-.7 2.2-.3.5-.8.9-1.4 1.2a4 4 0 01-1.9.4c-1.1 0-2-.3-2.7-1-.7-.7-1-1.5-1-2.6s.4-1.9 1.1-2.6c.7-.7 1.6-1 2.8-1 1.1 0 2 .3 2.7 1 .8.5 1.1 1.3 1.1 2.4zm-1 0c0-.7-.2-1.3-.7-1.8a3 3 0 00-3.9.1c-.5.5-.8 1.1-.8 1.9 0 .7.3 1.4.8 1.8.5.5 1.1.7 1.9.7.8 0 1.5-.3 2-.8a3 3 0 00.7-1.9zM116.5 61.6l-.5 4.2c-.1.9-.3 1.6-.7 2-.5.7-1.3 1-2.2 1-.7 0-1.4-.2-1.9-.7-.5-.5-.7-1-.7-1.7V66v-.5l.5-4h1.1l-.5 4.1v.6c0 .5.1.8.4 1.1.3.3.6.4 1.1.4.5 0 1-.2 1.2-.5.3-.3.5-.9.6-1.7l.5-4.1h1.1zM122.2 65.8l1.8 3.1h-1.1l-1.7-3h-.4l-.4 3h-1.1l.9-7.3h1.4l1.1.1.7.4c.4.4.6.9.6 1.5 0 1.2-.6 1.9-1.8 2.2zm-1-3.2l-.3 2.3h.5l.8-.1.5-.4c.2-.2.3-.5.3-.8 0-.4-.1-.6-.3-.8-.2-.2-.5-.3-1-.3h-.5zM141.9 61.6l-3.8 7.6-1.4-5.1-2.5 5.2-2.2-7.7h1.1l1.4 5 2.6-5.2 1.5 5.1 2.4-4.8h.9zM151.3 65.1c0 .8-.2 1.5-.7 2.2-.3.5-.8.9-1.4 1.2a4 4 0 01-1.9.4c-1.1 0-2-.3-2.7-1-.7-.7-1-1.5-1-2.6s.4-1.9 1.1-2.6c.7-.7 1.6-1 2.8-1 1.1 0 2 .3 2.7 1 .8.5 1.1 1.3 1.1 2.4zm-1 0c0-.7-.2-1.3-.7-1.8a3 3 0 00-3.9.1c-.5.5-.8 1.1-.8 1.9 0 .7.3 1.4.8 1.8.5.5 1.1.7 1.9.7.8 0 1.5-.3 2-.8a3 3 0 00.7-1.9zM157 65.8l1.8 3.1h-1.1l-1.7-3h-.4l-.4 3h-1.1l.9-7.3h1.4l1.1.1.7.4c.4.4.6.9.6 1.5.1 1.2-.6 1.9-1.8 2.2zm-1-3.2l-.3 2.3h.5l.8-.1.5-.4c.2-.2.3-.5.3-.8 0-.4-.1-.6-.3-.8-.2-.2-.5-.3-1-.3h-.5zM163.8 61.6l-.8 6.3h2.1l-.1 1h-3.1l.9-7.3h1zM168.9 61.6h1.5l1.3.1.8.3c.5.3.8.7 1.1 1.2.3.5.4 1.2.4 1.8 0 .7-.2 1.4-.5 2l-.5.8-.7.6a3 3 0 01-1 .4l-.6.1H168l.9-7.3zm.8 1l-.7 5.2h.9a6 6 0 001.5-.2l.9-.6c.4-.5.7-1.2.7-2 0-.5-.1-.9-.3-1.3-.2-.4-.5-.7-.8-.8-.3-.2-.8-.2-1.5-.2h-.7z"
      class="st0"
    />
  </g>
  <path fill="none" stroke="#00205c" stroke-width="2.9" d="M0 55.1h175" />
</svg>
