<svg xmlns="http://www.w3.org/2000/svg" viewBox="0 0 175 20">
  <path
    d="M0 15L3.1.3h1L1 15H0zM11.2 15l1.5-6.8.3-1.6c0-1.2-.5-1.8-1.6-1.8a3 3 0 00-2 .7c-.6.4-1.2 1-1.6 1.8s-.8 1.8-1 2.9l-1 4.8h-1L7.1 4h.8l-.3 2.2h.1c.5-.8 1.2-1.3 1.8-1.7.7-.4 1.4-.6 2.1-.6.7 0 1.3.2 1.6.7.4.5.6 1.1.6 2h.2c.5-.9 1.1-1.5 1.8-2 .7-.4 1.4-.7 2.2-.7.8 0 1.4.2 1.8.6.4.4.7 1 .7 1.8v.6l-.2 1.2-1.5 7h-1l1.5-6.9.3-1.8c0-.5-.1-.9-.4-1.2-.3-.3-.7-.4-1.2-.4-1.1 0-2 .5-2.8 1.4-.8.9-1.4 2.1-1.7 3.7L12.3 15h-1.1zM28.4 3.9c1.6 0 2.5.7 2.8 2.2h.1l.6-2h.8l-2.3 11h-.8l.5-2.8H30a7 7 0 01-1.9 2.2 4 4 0 01-2.4.8c-1.9 0-2.8-1.3-2.8-3.8 0-1.3.3-2.6.8-3.8a7.5 7.5 0 012-2.8c.7-.7 1.6-1 2.7-1zm-2.5 10.4c.6 0 1.2-.2 1.8-.6.6-.4 1.1-1 1.6-1.7s.8-1.5 1.1-2.3.4-1.6.4-2.2c0-.5-.1-1-.3-1.4-.2-.4-.4-.8-.8-1-.3-.2-.8-.4-1.3-.4-.8 0-1.6.3-2.3.8S24.9 6.9 24.5 8a9.6 9.6 0 00-.6 3.3c0 1 .2 1.8.5 2.3.3.5.8.7 1.5.7zM44.3 4l-.2.8-2.4.2.4.8.2 1.2a4.3 4.3 0 01-2.1 3.6c-.6.3-1.3.5-2.2.5l-.8-.1-1.3.7a1 1 0 00-.4.8c0 .3.1.5.3.7.2.2.6.3 1.1.3l1.2.1c2.3.2 3.5 1.1 3.5 2.7 0 .8-.2 1.4-.7 2-.4.6-1.1 1-1.9 1.3-.8.3-1.8.5-2.9.5-1.3 0-2.2-.2-2.9-.7a2.5 2.5 0 01-1.1-2.1c0-1.6 1-2.7 3.1-3.4-.5-.3-.8-.7-.8-1.2 0-.8.6-1.5 1.9-2a2 2 0 01-1.1-1.1 3 3 0 01-.4-1.6c0-.7.2-1.4.5-2.1.4-.6.9-1.1 1.5-1.5.6-.4 1.3-.5 2.1-.5l1.5.2h3.9zm-11 13.1c0 .7.3 1.2.8 1.5.5.3 1.3.5 2.3.5 1.4 0 2.4-.3 3.2-.8.8-.5 1.2-1.2 1.2-2.1 0-.6-.2-1-.6-1.3-.4-.3-1.2-.5-2.2-.6l-1.6-.2a5 5 0 00-2.3 1.2c-.5.6-.8 1.1-.8 1.8zm2.8-9.3c0 .8.2 1.3.6 1.7.4.4.9.6 1.7.6a3 3 0 001.6-.4 2 2 0 001-1.2c.2-.5.4-1.1.4-1.7 0-.7-.2-1.2-.6-1.6-.4-.4-.9-.6-1.6-.6-.6 0-1.2.1-1.6.4-.5.3-.8.7-1.1 1.2s-.4 1.1-.4 1.6zM48.4 15.2c-1.2 0-2.1-.4-2.7-1.1-.7-.7-1-1.8-1-3.1 0-1.2.2-2.4.7-3.5.5-1.1 1.1-2 2-2.7.8-.7 1.8-1 2.8-1 .8 0 1.4.2 1.8.6s.7 1 .7 1.7c0 1.2-.6 2.1-1.7 2.8-1.1.6-2.7 1-4.9 1h-.3l-.1 1c0 1.1.2 2 .7 2.5.5.6 1.2.9 2.2.9a6 6 0 002.8-.7v.9a6 6 0 01-3 .7zm1.7-10.5c-.9 0-1.7.4-2.5 1.2A7 7 0 0046 9h.5c3.5 0 5.2-.9 5.2-2.7 0-.5-.1-.8-.4-1.1-.3-.3-.7-.5-1.2-.5zM68.2 1a6.6 6.6 0 00-6.1 4.2c-.6 1.3-.9 2.8-.9 4.5 0 1.5.4 2.7 1.1 3.5.7.8 1.8 1.2 3.2 1.2.9 0 2-.2 3.1-.5v.9c-1.1.3-2.1.5-3.2.5-1.7 0-3-.5-3.9-1.5a6 6 0 01-1.4-4.1c0-1.8.4-3.4 1.1-4.9a8.1 8.1 0 012.9-3.4C65.3.4 66.7 0 68.2 0c1.2 0 2.2.2 3.1.7l-.5.9-1.3-.5-1.3-.1zM76.8 3.8c1.2 0 2.2.4 2.8 1.1.7.7 1 1.7 1 3a9 9 0 01-.7 3.7c-.5 1.2-1.1 2-2 2.6-.8.6-1.8.9-2.9.9-1.2 0-2.2-.4-2.8-1.1-.6-.7-1-1.8-1-3.2 0-1.3.2-2.5.7-3.6s1.2-2 2-2.6 1.9-.8 2.9-.8zm-.1.9a4 4 0 00-2.3.8 5 5 0 00-1.6 2.3c-.4 1-.6 2-.6 3.1 0 2.3.9 3.5 2.8 3.5.9 0 1.6-.3 2.3-.8a5 5 0 001.6-2.3c.4-1 .6-2.1.6-3.3 0-1-.2-1.8-.7-2.4-.4-.6-1.1-.9-2.1-.9zM88.8 15l1.5-6.8.3-1.6c0-1.2-.5-1.8-1.6-1.8a3 3 0 00-2 .7c-.6.5-1.2 1.1-1.6 1.9s-.8 1.8-1 2.9l-1 4.8h-1l2.3-11h.8l-.3 2.1h.1c.5-.8 1.2-1.3 1.8-1.7.7-.4 1.4-.6 2.1-.6.7 0 1.3.2 1.6.7.4.5.6 1.1.6 2h.1c.5-.9 1.1-1.5 1.8-2 .7-.4 1.4-.7 2.2-.7.8 0 1.4.2 1.8.6.4.4.7 1 .7 1.8v.6l-.1 1.2-1.5 7h-1l1.5-6.9.3-1.8c0-.5-.1-.9-.4-1.2-.3-.3-.7-.4-1.2-.4-1.1 0-2 .5-2.8 1.4-.8.9-1.4 2.1-1.7 3.7L89.8 15h-1zM101.1 15h-1l2.3-11h1l-2.3 11zm1.7-13.8l.2-.9c.1-.2.4-.3.6-.3.4 0 .6.2.6.7l-.2.9c-.1.2-.3.4-.5.4l-.4-.2c-.2-.2-.3-.3-.3-.6zM111.8 15l1.5-7 .2-1.6c0-.5-.1-1-.4-1.3-.3-.3-.7-.5-1.4-.5-.8 0-1.5.2-2.1.7-.7.5-1.2 1.1-1.7 1.9-.5.8-.8 1.8-1 2.9l-1 4.8h-1l2.3-11h.8l-.4 2.2h.1c1.1-1.6 2.5-2.4 4.2-2.4a3 3 0 012 .6c.4.4.7 1.1.7 1.9l-.2 1.8-1.5 6.8h-1.1zM126.8 4l-.2.8-2.5.2.4.8.2 1.2a4.3 4.3 0 01-2.1 3.6c-.6.3-1.3.5-2.2.5l-.8-.1-1.3.7a1 1 0 00-.4.8c0 .3.1.5.3.7.2.2.6.3 1.1.3l1.2.1c2.3.2 3.5 1.1 3.5 2.7 0 .8-.2 1.4-.7 2-.4.6-1.1 1-1.9 1.3-.8.3-1.8.5-2.9.5-1.3 0-2.2-.2-2.9-.7a2.5 2.5 0 01-1.1-2.1c0-1.6 1-2.7 3.1-3.4-.5-.3-.8-.7-.8-1.2 0-.8.6-1.5 1.9-2a2 2 0 01-1.1-1.1 3 3 0 01-.4-1.6c0-.7.2-1.4.5-2.1.4-.6.9-1.1 1.5-1.5.6-.4 1.3-.5 2.1-.5l1.5.2h4zm-11 13.1c0 .7.3 1.2.8 1.5.5.3 1.3.5 2.3.5 1.4 0 2.4-.3 3.2-.8.8-.5 1.2-1.2 1.2-2.1 0-.6-.2-1-.6-1.3-.4-.3-1.2-.5-2.2-.6l-1.6-.2a5 5 0 00-2.3 1.2c-.6.6-.8 1.1-.8 1.8zm2.7-9.3c0 .8.2 1.3.6 1.7.4.4.9.6 1.7.6a3 3 0 001.6-.4 2 2 0 001-1.2c.2-.5.4-1.1.4-1.7 0-.7-.2-1.2-.6-1.6-.4-.4-.9-.6-1.6-.6-.6 0-1.2.1-1.6.4-.5.3-.8.7-1.1 1.2-.2.6-.4 1.1-.4 1.6zM140.6 11c0 .8-.2 1.6-.7 2.3-.4.7-1 1.2-1.8 1.5a7.6 7.6 0 01-6.1-.3v-1.1c1.1.6 2.3.9 3.5.9 1.3 0 2.3-.3 3-.9a3 3 0 00.9-3.4l-.5-.8-.9-.7-1.3-.8c-1-.5-1.7-1.1-2.1-1.7-.4-.6-.6-1.3-.6-2.1a3.7 3.7 0 012.3-3.5 6 6 0 012.4-.5 9 9 0 011.8.2 7 7 0 011.7.6l-.3.9a4 4 0 00-1.5-.6c-.6-.2-1.1-.2-1.7-.2a4 4 0 00-2.6.8 3 3 0 00-.5 3.9c.3.5.9.9 1.8 1.3l2.2 1.3c.4.3.7.7.9 1.1l.1 1.8zM148.4 3.8c1.2 0 2.2.4 2.8 1.1.7.7 1 1.7 1 3a9 9 0 01-.7 3.7c-.5 1.2-1.1 2-2 2.6-.8.6-1.8.9-2.9.9-1.2 0-2.2-.4-2.8-1.1-.6-.7-1-1.8-1-3.2 0-1.3.2-2.5.7-3.6s1.2-2 2-2.6 1.8-.8 2.9-.8zm-.1.9a4 4 0 00-2.3.8 5 5 0 00-1.6 2.3c-.4 1-.6 2-.6 3.1 0 2.3.9 3.5 2.8 3.5.9 0 1.6-.3 2.3-.8a5 5 0 001.6-2.3c.4-1 .6-2.1.6-3.3 0-1-.2-1.8-.7-2.4s-1.2-.9-2.1-.9zM159.8 3.8c1.2 0 2.2.4 2.8 1.1.7.7 1 1.7 1 3a9 9 0 01-.7 3.7c-.5 1.2-1.1 2-2 2.6-.8.6-1.8.9-2.9.9-1.2 0-2.2-.4-2.8-1.1-.6-.7-1-1.8-1-3.2 0-1.3.2-2.5.7-3.6s1.2-2 2-2.6 1.8-.8 2.9-.8zm-.1.9a4 4 0 00-2.3.8 5 5 0 00-1.6 2.3c-.4 1-.6 2-.6 3.1 0 2.3.9 3.5 2.8 3.5.9 0 1.6-.3 2.3-.8a5 5 0 001.6-2.3c.4-1 .6-2.1.6-3.3 0-1-.2-1.8-.7-2.4-.5-.6-1.2-.9-2.1-.9zM172.3 15l1.5-7 .2-1.6c0-.5-.1-1-.4-1.3-.3-.3-.7-.5-1.4-.5-.8 0-1.5.2-2.1.7-.7.5-1.2 1.1-1.7 1.9-.5.8-.8 1.8-1 2.9l-1 4.8h-1l2.3-11h.8l-.4 2.2h.1c1.1-1.6 2.5-2.4 4.2-2.4.9 0 1.5.2 2 .6s.7 1.1.7 1.9l-.2 1.8-1.5 6.8h-1.1z"
  />
</svg>
