<svg xmlns="http://www.w3.org/2000/svg" viewBox="0 0 75 75">
  <style>
    .st0,
    .st1 {
      fill-rule: evenodd;
      clip-rule: evenodd;
      fill: #1a1918;
    }
    .st1 {
      fill: #21609b;
    }
  </style>
  <title>
    background
  </title>
  <path id="canvas_background" fill="none" d="M-1-1h77v77H-1z" />
  <g>
    <title>
      Layer 1
    </title>
    <g id="jQuery_copy">
      <g id="svg_1">
        <path
          id="svg_2"
          d="M71.9 30.2H75l-6.3 8.6-.5.7c-.3.7-.6 2.2-.6 2.2h-2.9s.4-1.6.4-2.5c0-.7-.4-1.5-.6-2.2l-.5-2.2h3l.4 1.6 4.5-6.2"
          class="st0"
        />
        <path
          id="svg_3"
          d="M65.9 31.8c.6.4.9 2.3.9 2.3h-6.1L59 41.7h-2.7l2-9.7c.1-.5.9-.4 2.1-.4h2c1.3 0 2.9 0 3.5.2m-12.4 3.7s.1-.5-.3-1c-.3-.5-.6-.6-1.4-.6-2.3 0-2.3 1.6-2.3 1.6h4zm2.5-1.9c.3 1.2-.3 4.1-.3 4.1h-5.2c-.6 0-1.3 0-1.4.2-.2.4.1 1 .4 1.2.3.3.9.3 1.2.3 1.5.2 4.6 0 4.6 0l-.5 2.4s-4.4.2-6.6-.3c-.4 0-.8-.3-1.1-.6l-.2-.3-.3-.5c-.5-1.3.1-3.9.6-5.3l.2-.5.3-.6.2-.2.2-.3.7-.6c.9-.7 2.6-1.2 4.6-1 .6 0 1.8.3 2.3 1 .2.2.2.7.3 1zm-12.2-2h2.6l-2.2 10.1h-3c-2.1 0-3.9.3-4.7-1.2-.8-1.4 0-3.8.3-5.4l.7-3.5h2.7L39.1 37c-.1.6-.3 1.3-.1 1.7.2.5.6.5 1.5.5h1.3l2-7.6m-12 5c.3-1 .7-2 .6-3-.1-.9-.8-1.8-1.3-1.9-1.5-.5-2.9.2-3.5.8-.7.8-1 1.7-1.2 3a5 5 0 000 2.7c.6 1.3 2.5 1 4.6 1l.8-2.7zm3.6-3.9c.3 2.1-.8 4.5-1.6 6.6h1.5c.1.1-.5 2.5-.7 2.5H31c-2.8 0-5.5.2-6.8-1.2-.5-.6-.9-1.6-1-2.2a10 10 0 01.2-3.5c.2-.9.6-1.8 1-2.7 1.2-2 3.3-3.6 6.7-3.3a8 8 0 012.2.7l.2.2c1 .5 1.7 1.8 1.9 3zm-12.6-1l-.5 2.3h-2.9l.6-2.5 2.8.1m-3.5 3.2h2.8l-1.6 7.5c-.4 1.4-.6 2.4-1.5 3.2l-.2.1c-.2.2-1 .4-1.4.4H15l.7-2.6c2.2.3 2.2-1.8 2.7-3.8.1-1.3.8-4.4.9-4.8"
          class="st0"
        />
        <g id="svg_4">
          <path
            id="svg_5"
            d="M12.9 40l-.1.2c-1 2-2.8 3.2-5.3 3.2a9 9 0 01-3.1-.6c-1.6-.7-2.9-2-3.7-3.5-1.1-2-1.2-4.9.9-7l-.2.5v.1c-1.6 5 3.3 9.2 8 8.7a6 6 0 003.5-1.6"
            class="st1"
          />
          <path
            id="svg_6"
            d="M10 38c1.2 0 2.4-.6 3.2-1.4-.6 1.6-2.5 2.7-5 2.3-2.1-.2-4.1-2.3-4.3-4.4-.1-1.6.4-2.5 1.3-3.6l-.5 1.3C4.4 35.5 7.4 38 10 38"
            class="st1"
          />
          <path
            id="svg_7"
            d="M13.1 33.8c-.2.4-1.2 1.2-1.7 1.3-1.9.4-3.1-.4-3.7-1.5l-.3-.6c-.2-.8-.1-2 .6-2.7-.2.6-.3 1.3-.2 1.8l.5 1.1c.4.6.6.7 1.1 1l.6.2c.5.1 1.5.5 3.1-.6"
            class="st1"
          />
        </g>
      </g>
    </g>
  </g>
</svg>
