<svg xmlns="http://www.w3.org/2000/svg" viewBox="0 0 75 75">
  <title>JavaScript Icon</title>
  <path
    fill="#d5b930"
    d="M11 67.4L5 0h65l-6 67.4L37.4 75 11 67.4zm49.1-3l5.1-57.8h-27l.2 63.7 21.7-5.9zM35.6 15.1H29v34.5l-12.7-3.5v8l19.4 5.1-.1-44z"
  />
  <path
    fill="none"
    d="M33.5 58.7l-9.3-2.5-7.7-2v-4c0-3.8 0-3.9.4-3.8l6.3 1.8 5.9 1.6.1-17.2.1-17.2h6.4v22c0 17.3-.1 21.8-.2 21.8l-2-.5z"
  />
  <path
    fill="#ebebeb"
    fillOpacity=".9"
    d="M16.3 54.1v-7.9L29 49.7l.1-34.5h6.6v44.2l-19.4-5.3z"
  />
  <path
    fill="#fdd83e"
    d="M38.1 6.6h27L60 64.4l-21.9 6V6.5zm20.6 48.1l1.8-21.6-13.1 1.5V23.1h14l.6-8-21.1.1.3 28.7L54 41.7l-.2 6.4-12.9 3.4.1 7.8 17.7-4.6z"
  />
</svg>
