<svg xmlns="http://www.w3.org/2000/svg" viewBox="0 0 75 75">
  <title>AWS Lambda</title>
  <g id="Reference">
    <rect
      id="Orange_Light_BG"
      fill="#d86613"
      data-name="Orange Light BG"
      height="100%"
      width="100%"
    />
    <g id="Product_Icon" data-name="Product Icon">
      <path
        d="M60.5 62.5H48.2a1 1 0 01-1-.6L30 25.5h-7.4a1 1 0 01-1-1v-11a1 1 0 011-1h15.4a1 1 0 01.9.6L56 49.5h4.4a1 1 0 011 1v11a1 1 0 01-1 1zm-11.7-2h10.7v-9h-4a1 1 0 01-.9-.6L37.3 14.5H23.5v9h7a1 1 0 01.9.6z"
        fill="#fff"
      />
      <path
        d="M27.5 62.5h-13a1 1 0 01-.9-.5 1 1 0 010-1l13.6-28.4a1 1 0 01.9-.6 1 1 0 01.9.6L35.5 46a1 1 0 010 .9l-7.1 15a1 1 0 01-1 .6zm-11.4-2h10.8l6.6-14L28 35.4z"
        fill="#fff"
      />
    </g>
  </g>
</svg>
