<svg xmlns="http://www.w3.org/2000/svg" viewBox="0 0 75 75">
  <title>
    LoDash
  </title>
  <path fill="none" d="M-1-1h77v77H-1z" />
  <g>
    <path
      d="M0 3.8h7v46.4h27.6v5.7H0V3.8zm56.4 12.6a17.1 17.1 0 00-16.5 11.3 22.6 22.6 0 004.5 24c6 5 15.1 5.4 21.9 1.8 4.7-2.5 7.6-7.4 8.3-12.6.8-5.4.4-11.3-2.2-16.2a17.6 17.6 0 00-15.3-8.4l-.7.1zm.7 5.5c5.2 0 9.9 4 10.8 9.2 1.6 5.8.6 12.9-4.1 17a11.2 11.2 0 01-15.3-1.4C44 42 44 34.7 46.3 28.9a11 11 0 0110.3-7h.5z"
    />
    <path fill="#3492ff" d="M0 63.3h75v7.9H0v-7.9z" />
  </g>
</svg>
