<svg xmlns="http://www.w3.org/2000/svg" viewBox="0 0 175 97.6">
  <style></style>
  <g id="logo_1_">
    <radialGradient
      id="SVGID_1_"
      cx="-2.7"
      cy="86.3"
      r="4.8"
      gradientTransform="rotate(-4.4 -443.7 -179.6)"
      gradientUnits="userSpaceOnUse"
    >
      <stop offset="0" stop-color="#fec224" />
      <stop offset=".1" stop-color="#f7bf28" />
      <stop offset=".2" stop-color="#e3b834" />
      <stop offset=".4" stop-color="#c3ab48" />
      <stop offset=".6" stop-color="#959a64" />
      <stop offset=".7" stop-color="#5b8487" />
      <stop offset="1" stop-color="#1669b2" />
      <stop offset="1" stop-color="#1469b3" />
    </radialGradient>
    <path
      fill="url(#SVGID_1_)"
      d="M18.9 55.8c-1.6.9-3.6.3-4.4-1.3a3.2 3.2 0 011.3-4.4c1.6-.9 3.6-.3 4.4 1.3.9 1.6.3 3.6-1.3 4.4z"
    />
    <path
      d="M28.4 63.7h1.1l2.6 4.7v-4.7h.9v5.9h-1.1l-2.7-4.8v4.8h-.8v-5.9zM37.6 63.7h.9l2.5 5.9h-1l-.6-1.5h-2.9l-.5 1.5h-.9l2.5-5.9zm.4.8l-1.2 2.9h2.3L38 64.5zM43.6 64.4h-1.8v-.7h4.5v.7h-1.8v5.1h-.8v-5.1zM48.3 63.7h.8v5.9h-.8v-5.9zM54.4 63.6c1.8 0 2.8 1.3 2.8 3 0 1.8-1 3-2.8 3-1.8 0-2.8-1.3-2.8-3-.1-1.7 1-3 2.8-3zm0 5.3c1.4 0 1.9-1.1 1.9-2.3 0-1.2-.6-2.3-1.9-2.3-1.3 0-1.9 1.1-1.9 2.3-.1 1.2.5 2.3 1.9 2.3zM59.5 63.7h1.1l2.6 4.7v-4.7h.8v5.9h-1l-2.7-4.8v4.8h-.8v-5.9zM68.6 63.7h.9l2.5 5.9h-.9l-.6-1.5h-2.9l-.6 1.5h-.9l2.5-5.9zm.4.8l-1.2 2.9h2.3L69 64.5zM74.1 63.7h.8v5.1h2.5v.7h-3.3v-5.8zM83.1 63.7h.8v5.1h2.5v.7h-3.3v-5.8zM90.4 63.7h.9l2.5 5.9h-.9l-.6-1.5h-2.9l-.6 1.5h-.9l2.5-5.9zm.4.8l-1.2 2.9H92l-1.2-2.9zM95.7 63.7h1.6c1.2 0 2.1.4 2.1 1.5 0 .8-.5 1.2-1.2 1.4.8.1 1.4.6 1.4 1.4 0 1.3-1 1.6-2.2 1.6h-1.6v-5.9zm.9 2.5h.4c.8 0 1.5-.1 1.5-.9 0-.7-.6-.9-1.1-.9h-.9v1.8zm0 2.7h.6c.8 0 1.4-.2 1.4-1 0-.9-.8-1-1.5-1h-.5v2zM104.6 63.6c1.8 0 2.8 1.3 2.8 3 0 1.8-1 3-2.8 3-1.8 0-2.8-1.3-2.8-3-.1-1.7 1-3 2.8-3zm0 5.3c1.4 0 1.9-1.1 1.9-2.3 0-1.2-.6-2.3-1.9-2.3-1.3 0-1.9 1.1-1.9 2.3-.1 1.2.5 2.3 1.9 2.3zM109.7 63.7h1.4c1.2 0 2.3.2 2.3 1.6 0 .7-.5 1.2-1.2 1.3.3.1.4.2.6.6l1.1 2.3h-1l-.9-2c-.3-.6-.5-.6-1-.6h-.5v2.6h-.8v-5.8zm.8 2.5h.7c.8 0 1.3-.4 1.3-.9s-.4-.9-1.2-.9h-.8v1.8zM118 63.7h.9l2.5 5.9h-.9l-.6-1.5H117l-.6 1.5h-.9l2.5-5.9zm.4.8l-1.2 2.9h2.3l-1.1-2.9zM124 64.4h-1.8v-.7h4.5v.7h-1.8v5.1h-.9v-5.1zM131 63.6c1.8 0 2.8 1.3 2.8 3 0 1.8-1 3-2.8 3-1.8 0-2.8-1.3-2.8-3s1-3 2.8-3zm0 5.3c1.4 0 1.9-1.1 1.9-2.3 0-1.2-.6-2.3-1.9-2.3-1.3 0-1.9 1.1-1.9 2.3 0 1.2.5 2.3 1.9 2.3zM136.1 63.7h1.4c1.2 0 2.3.2 2.3 1.6 0 .7-.5 1.2-1.2 1.3.3.1.4.2.6.6l1.1 2.3h-1l-.9-2c-.3-.6-.5-.6-1-.6h-.4v2.6h-.8v-5.8zm.9 2.5h.7c.8 0 1.3-.4 1.3-.9s-.4-.9-1.2-.9h-.8v1.8zM144.1 67.1l-2.3-3.4h1l1.8 2.6 1.7-2.6h1l-2.3 3.4v2.5h-.8v-2.5z"
    />
    <linearGradient
      id="SVGID_2_"
      x1="-2"
      x2="15.1"
      y1="82.4"
      y2="57.7"
      gradientTransform="matrix(1.0157 -.0686 .0665 .9858 22.7 -31.3)"
      gradientUnits="userSpaceOnUse"
    >
      <stop offset=".1" stop-color="#fec224" />
      <stop offset=".9" stop-color="#1469b3" />
    </linearGradient>
    <path
      fill="url(#SVGID_2_)"
      d="M43.3 14.8c-6.6 2.7-17.7 15.9-24 32.3-.1.2 0 .3.1.4.2 0 .3-.1.4-.3 9.5-20.6 21.4-31 26.3-30.6 3.2.2 5.1 3.5 5.1 8.8l.2.3c.2 0 .3-.1.3-.3.5-6.9-1.3-10.2-4.1-11.1-1.1-.4-2.6-.2-4.3.5z"
    />
    <linearGradient
      id="SVGID_3_"
      x1="1.5"
      x2="61.5"
      y1="37.7"
      y2="37.7"
      gradientUnits="userSpaceOnUse"
    >
      <stop offset=".1" stop-color="#fec224" />
      <stop offset=".9" stop-color="#1469b3" />
    </linearGradient>
    <path
      fill="url(#SVGID_3_)"
      d="M49 29c-7 .2-15.7 2.1-24.6 5.3-8.5 3-15.9 6.9-22.6 11.6-.2.2-.3.4-.2.5h.5A93 93 0 0123.3 36a85 85 0 0123.8-5.1c6.1-.2 10.5.8 11.7 2.7 1.8 2.8.5 5.8-4.4 10.1-.2.1-.2.3-.1.4 0 .1.2.1.4 0 7.9-5.2 7.1-9.7 6.7-10.9-1-3-5.4-4.5-12.4-4.2z"
    />
    <g>
      <path
        d="M72.7 76.6h2.5v.6h-1.8v1.3H75v.5h-1.7v1.5h1.8v.6h-2.5v-4.5zM79.2 77.3l-.8-.2c-.4 0-.8.1-.8.6 0 .9 1.9.7 1.9 2.1 0 .9-.7 1.3-1.6 1.3l-.9-.2.1-.6.9.2c.4 0 .9-.2.9-.7 0-1-1.9-.7-1.9-2.1 0-.8.6-1.2 1.4-1.2l.9.2-.1.6zM82.2 77.2h-1.4v-.6h3.4v.6h-1.4v3.9h-.6v-3.9zM85.1 80.4h.7v.7h-.7v-.7zM89 77.4l-.7.6-.3-.5 1.1-.9h.6V81H89v-3.6zM92.3 80.4l.8.2c.8 0 1.2-.8 1.2-1.6-.3.3-.6.4-1 .4-.9 0-1.3-.6-1.3-1.4 0-.9.6-1.5 1.4-1.5 1.2 0 1.5 1.1 1.5 2.1 0 1.2-.4 2.5-1.8 2.5l-.9-.1.1-.6zm1.2-1.5c.5 0 .8-.4.8-.9 0-.4-.3-.9-.8-.9s-.8.5-.8.9.2.9.8.9zM98.4 80.1h-2.1v-.5l1.8-2.9h.9v2.9h.6v.5H99v1h-.6v-1zm0-2.9L97 79.5h1.4v-2.3zM101.6 78.5h.4c.5 0 1.1-.2 1.1-.7 0-.5-.4-.7-.9-.7l-1 .2v-.6l1.1-.2c.8 0 1.5.4 1.5 1.2 0 .6-.4.9-1 1 .6.1 1 .5 1 1.1 0 1-.9 1.3-1.7 1.3l-1-.2v-.6l1 .2c.5 0 1.1-.2 1.1-.8 0-.7-.5-.8-1.1-.8h-.4v-.4z"
      />
      <g>
        <path d="M28.5 78.5h39.9v.6H28.5z" />
      </g>
      <g>
        <path d="M108.1 78.5h39.1v.6h-39.1z" />
      </g>
    </g>
    <g>
      <path
        d="M28.5 41.8H32v14.7h6.8v2.8H28.5V41.8zM62.3 49.1c-1-.4-1.8-.6-3-.6-.9 0-2 .3-2 1.4 0 2.1 5.8.8 5.8 5.4 0 3-2.7 4.2-5.4 4.2a12 12 0 01-3.8-.6l.2-2.8c1.1.5 2.2.9 3.3.9.9 0 2.2-.3 2.2-1.6 0-2.5-5.8-.8-5.8-5.5 0-2.8 2.4-4 5.1-4 1.6 0 2.6.2 3.7.5l-.3 2.7zM73.6 41.8h4l6.9 17.5h-3.9l-1.5-4H72l-1.5 4h-3.6l6.7-17.5zm1.9 3.5l-2.6 7.2H78l-2.5-7.2zM85.5 41.8h3.4v17.5h-3.4V41.8zM91.7 47.1c1.3-.6 3.1-1 4.5-1 3.9 0 5.6 1.6 5.6 5.4v4.9l.2 2.9h-3l-.1-1.9h-.1a4.7 4.7 0 01-4 2.2c-2.3 0-4.5-1.4-4.5-3.8 0-1.9.9-3.1 2.2-3.7 1.3-.6 2.9-.8 4.3-.8h1.9c0-2.1-.9-2.8-2.9-2.8-1.4 0-2.9.6-4 1.4l-.1-2.8zm3.9 10A3 3 0 0098 56c.6-.7.7-1.7.7-2.7h-1.5c-1.5 0-3.7.3-3.7 2.2 0 1.2.9 1.6 2.1 1.6zM103.8 46.4h3.1v1.8a4.6 4.6 0 013.8-2.1c1.8 0 3.1.7 3.8 2.3a4.4 4.4 0 014-2.3c3.2 0 4.1 2.2 4.1 5.1v8.1h-3.4v-7.7c0-1.2 0-2.9-1.9-2.9-2.2 0-2.5 2.7-2.5 4.3v6.3h-3.4v-7.7c0-1.2 0-2.9-1.9-2.9-2.2 0-2.5 2.7-2.5 4.3v6.3h-3.4V46.4zM138.1 52.8a7 7 0 01-7.1 6.8c-4 0-7.1-3-7.1-6.8A7 7 0 01131 46c4 .1 7.1 3.1 7.1 6.8zm-3.6.1c0-2.2-1.4-4-3.5-4-2 0-3.5 1.8-3.5 4s1.4 4 3.5 4c2 0 3.5-1.8 3.5-4zM53.1 52.8a7 7 0 01-7.1 6.8c-4 0-7.1-3-7.1-6.8A7 7 0 0146 46c4.1.1 7.1 3.1 7.1 6.8zm-3.6.1c0-2.2-1.4-4-3.5-4-2 0-3.5 1.8-3.5 4s1.4 4 3.5 4 3.5-1.8 3.5-4zM147 49.1c-1-.4-1.8-.6-3-.6-.9 0-2 .3-2 1.4 0 2.1 5.8.8 5.8 5.4 0 3-2.7 4.2-5.4 4.2a12 12 0 01-3.8-.6l.2-2.8c1.1.5 2.2.9 3.3.9.9 0 2.2-.3 2.2-1.6 0-2.5-5.8-.8-5.8-5.5 0-2.8 2.4-4 5.1-4 1.6 0 2.6.2 3.7.5l-.3 2.7z"
      />
    </g>
    <path fill="none" d="M0 0h175v97.6H0z" />
  </g>
</svg>
