<svg xmlns="http://www.w3.org/2000/svg" viewBox="0 0 175 80.2">
  <style></style>
  <g id="logo_1_">
    <radialGradient
      id="SVGID_1_"
      cx="-5.8"
      cy="73.7"
      r="5.7"
      gradientTransform="rotate(-4.4 -368.5 -249.1)"
      gradientUnits="userSpaceOnUse"
    >
      <stop offset="0" stop-color="#fec224" />
      <stop offset=".1" stop-color="#f7bf28" />
      <stop offset=".2" stop-color="#e3b834" />
      <stop offset=".4" stop-color="#c3ab48" />
      <stop offset=".6" stop-color="#959a64" />
      <stop offset=".7" stop-color="#5b8487" />
      <stop offset="1" stop-color="#1669b2" />
      <stop offset="1" stop-color="#1469b3" />
    </radialGradient>
    <path
      fill="url(#SVGID_1_)"
      d="M20.8 49.9a4 4 0 01-5.3-1.6 4 4 0 011.6-5.3 4 4 0 015.3 1.6c1.1 1.9.4 4.3-1.6 5.3z"
    />
    <g>
      <path
        d="M32.2 59.3h1.4l3.1 5.7v-5.7h1v7h-1.3l-3.2-5.8v5.8h-1v-7zM43.2 59.3h1.1l3 7h-1.1l-.7-1.8H42l-.7 1.8h-1.1l3-7zm.5 1l-1.4 3.5h2.8l-1.4-3.5zM50.4 60.2h-2.2v-.9h5.4v.9h-2.2v6.1h-1v-6.1zM56 59.3h1v7h-1v-7zM63.2 59.2c2.1 0 3.4 1.5 3.4 3.6s-1.2 3.6-3.4 3.6c-2.1 0-3.4-1.5-3.4-3.6.1-2 1.3-3.6 3.4-3.6zm0 6.4c1.6 0 2.3-1.3 2.3-2.7 0-1.4-.8-2.8-2.3-2.7-1.5 0-2.3 1.3-2.3 2.7 0 1.3.7 2.7 2.3 2.7zM69.4 59.3h1.4l3.1 5.7v-5.7h1v7h-1.3l-3.2-5.8v5.8h-1v-7zM80.3 59.3h1.1l3 7h-1.1l-.7-1.8H79l-.7 1.8h-1.1l3.1-7zm.4 1l-1.4 3.5h2.8l-1.4-3.5zM86.8 59.3h1v6.1h2.9v.9h-3.9v-7zM97.6 59.3h1v6.1h2.9v.9h-3.9v-7zM106.3 59.3h1.1l3 7h-1.1l-.7-1.8h-3.4l-.7 1.8h-1.1l2.9-7zm.5 1l-1.4 3.5h2.8l-1.4-3.5zM112.7 59.3h1.9c1.5 0 2.5.5 2.5 1.8 0 1-.6 1.4-1.5 1.7 1 .1 1.6.7 1.6 1.7 0 1.5-1.2 1.9-2.7 1.9h-1.9v-7.1zm1 3h.6c1 0 1.8-.1 1.8-1.1 0-.8-.7-1-1.3-1h-1.1v2.1zm0 3.2h.8c.9 0 1.7-.2 1.7-1.1 0-1.1-1-1.2-1.8-1.2h-.7v2.3zM123.2 59.2c2.1 0 3.4 1.5 3.4 3.6s-1.2 3.6-3.4 3.6c-2.1 0-3.4-1.5-3.4-3.6 0-2 1.3-3.6 3.4-3.6zm0 6.4c1.6 0 2.3-1.3 2.3-2.7 0-1.4-.8-2.8-2.3-2.7-1.6 0-2.3 1.3-2.3 2.7 0 1.3.7 2.7 2.3 2.7zM129.4 59.3h1.7c1.4 0 2.7.2 2.7 1.9 0 .9-.6 1.5-1.4 1.6.3.1.5.3.7.7l1.3 2.8h-1.1l-1.1-2.4c-.3-.7-.6-.7-1.2-.7h-.6v3.1h-1v-7zm1 3h.9c1 0 1.5-.4 1.5-1.1 0-.6-.5-1-1.4-1h-1v2.1zM139.3 59.3h1.1l3 7h-1.1l-.7-1.8H138l-.7 1.8h-1.1l3.1-7zm.5 1l-1.4 3.5h2.8l-1.4-3.5zM146.4 60.2h-2.2v-.9h5.4v.9h-2.2v6.1h-1v-6.1zM154.8 59.2c2.1 0 3.4 1.5 3.4 3.6s-1.2 3.6-3.4 3.6c-2.1 0-3.4-1.5-3.4-3.6.1-2 1.3-3.6 3.4-3.6zm0 6.4c1.6 0 2.3-1.3 2.3-2.7 0-1.4-.8-2.8-2.3-2.7-1.6 0-2.3 1.3-2.3 2.7 0 1.3.7 2.7 2.3 2.7zM161 59.3h1.7c1.4 0 2.7.2 2.7 1.9 0 .9-.6 1.5-1.4 1.6.3.1.5.3.7.7l1.3 2.8h-1.1l-1.1-2.4c-.3-.7-.6-.7-1.2-.7h-.6v3.1h-1v-7zm1 3h.9c1 0 1.5-.4 1.5-1.1 0-.6-.5-1-1.4-1h-1v2.1zM170.4 63.4l-2.7-4.1h1.2l2.1 3.2 2-3.2h1.2l-2.7 4.1v2.9h-1v-2.9z"
      />
      <linearGradient
        id="SVGID_2_"
        x1="-1.4"
        x2="19.1"
        y1="71"
        y2="41.5"
        gradientTransform="matrix(1.0157 -.0686 .0665 .9858 26.2 -27.1)"
        gradientUnits="userSpaceOnUse"
      >
        <stop offset=".1" stop-color="#fec224" />
        <stop offset=".9" stop-color="#1469b3" />
      </linearGradient>
      <path
        fill="url(#SVGID_2_)"
        d="M50 .8c-7.9 3.3-21.1 19-28.7 38.6-.1.2 0 .4.2.4.3.1.4-.1.5-.3C33.3 15 47.5 2.5 53.4 2.9c3.9.3 6.1 4.2 6.1 10.6l.3.4c.2 0 .4-.1.4-.4.6-8.2-1.5-12.2-4.9-13.3a8.6 8.6 0 00-5.3.6z"
      />
      <linearGradient
        id="SVGID_3_"
        x1="0"
        x2="71.8"
        y1="28.3"
        y2="28.3"
        gradientUnits="userSpaceOnUse"
      >
        <stop offset=".1" stop-color="#fec224" />
        <stop offset=".9" stop-color="#1469b3" />
      </linearGradient>
      <path
        fill="url(#SVGID_3_)"
        d="M56.8 17.8c-8.3.3-18.8 2.5-29.5 6.3-10.2 3.6-19 8.2-27 13.9-.3.2-.4.5-.3.6.1.2.4.1.6 0a117.9 117.9 0 0153.8-18.5c7.3-.3 12.5.9 14 3.3 2.1 3.3.6 6.9-5.2 12-.2.2-.2.4-.1.5.1.1.2.2.5 0 9.4-6.2 8.5-11.6 8-13.1-1.1-3.5-6.4-5.3-14.8-5z"
      />
      <g>
        <path
          d="M85.2 74.8h3v.7H86V77h2v.7h-2v1.7h2.2v.7h-3v-5.3zM92.9 75.6c-.4-.2-.6-.2-1-.2s-.9.2-.9.7c0 1 2.3.8 2.3 2.5 0 1.1-.9 1.6-1.9 1.6l-1.1-.2.1-.7c.3.1.7.3 1.1.3.4 0 1-.2 1-.9 0-1.2-2.3-.9-2.3-2.5 0-.9.7-1.4 1.7-1.4l1.1.2-.1.6zM96.4 75.4h-1.6v-.7h4.1v.7h-1.6V80h-.8v-4.6zM100 79.2h.9v.8h-.9v-.8zM104.6 75.6l-.8.7-.4-.5 1.3-1.1h.7V80h-.8v-4.4zM108.6 79.3l.9.2c1 0 1.5-.9 1.5-1.9-.4.3-.7.5-1.2.5-1 0-1.6-.7-1.6-1.7 0-1.1.7-1.8 1.7-1.8 1.5 0 1.8 1.3 1.8 2.5 0 1.4-.5 2.9-2.1 2.9a3 3 0 01-1.1-.2l.1-.5zm1.4-1.8c.6 0 1-.5 1-1.1 0-.5-.3-1.1-.9-1.1-.6 0-.9.5-.9 1.1-.1.5.2 1.1.8 1.1zM115.9 78.9h-2.5v-.6l2.1-3.5h1.1v3.5h.7v.6h-.7v1.2h-.8v-1.2zm0-3.5l-1.7 2.8h1.7v-2.8zM119.7 77h.4c.5 0 1.3-.2 1.3-.9 0-.6-.5-.8-1-.8s-.9.1-1.2.3v-.7l1.3-.2c.9 0 1.7.4 1.7 1.4 0 .7-.5 1.1-1.1 1.2.7.1 1.2.6 1.2 1.3 0 1.2-1 1.5-2.1 1.5l-1.2-.2v-.7c.3.1.7.3 1.2.3.6 0 1.3-.2 1.3-.9 0-.8-.6-1-1.3-1h-.5V77z"
        />
        <g>
          <path d="M32.3 77h47.6v.7H32.3z" />
        </g>
        <g>
          <path d="M127.5 77h46.8v.7h-46.8z" />
        </g>
      </g>
    </g>
    <g>
      <path
        d="M32.3 33.2h4.2v17.6h8.1v3.3H32.3V33.2zM72.7 41.9c-1.2-.4-2.1-.7-3.6-.7-1.1 0-2.4.4-2.4 1.7 0 2.5 7 .9 7 6.5 0 3.6-3.2 5-6.5 5-1.5 0-3.1-.3-4.6-.7l.2-3.3c1.3.6 2.6 1 4 1 1 0 2.6-.4 2.6-1.9 0-3-7-1-7-6.5 0-3.3 2.9-4.8 6.1-4.8 1.9 0 3.1.3 4.4.6l-.2 3.1zM86.2 33.1h4.7L99.1 54h-4.6l-1.8-4.8h-8.5L82.4 54H78l8.2-20.9zm2.3 4.2L85.4 46h6.1l-3-8.7zM100.4 33.2h4v20.9h-4V33.2zM107.9 39.4c1.6-.7 3.7-1.2 5.4-1.2 4.7 0 6.6 1.9 6.6 6.5v2l.1 3.9.2 3.4h-3.5l-.2-2.3h-.1a5.5 5.5 0 01-4.8 2.7c-2.7 0-5.4-1.6-5.4-4.6 0-2.3 1.1-3.7 2.6-4.4a13 13 0 015.2-.9h2.2c0-2.5-1.1-3.3-3.5-3.3-1.7 0-3.4.7-4.8 1.7v-3.5zm4.7 12.1c1.2 0 2.2-.5 2.8-1.4.7-.9.8-2 .8-3.2h-1.7c-1.8 0-4.5.3-4.5 2.7 0 1.3 1.1 1.9 2.6 1.9zM122.3 38.6h3.7v2.2h.1a5.5 5.5 0 014.6-2.5c2.2 0 3.7.8 4.6 2.7.9-1.9 2.9-2.7 4.8-2.7 3.8 0 4.9 2.6 4.9 6.1v9.7h-4v-9.2c0-1.4 0-3.5-2.3-3.5-2.7 0-3 3.2-3 5.2v7.5h-4v-9.2c0-1.4 0-3.5-2.3-3.5-2.7 0-3 3.2-3 5.2v7.5h-4V38.6zM163.3 46.3c0 4.5-3.6 8.1-8.5 8.1a8.2 8.2 0 01-8.5-8.1c0-4.5 3.7-8.1 8.5-8.1s8.5 3.7 8.5 8.1zm-4.3.1c0-2.6-1.7-4.8-4.1-4.8-2.4 0-4.1 2.1-4.1 4.8 0 2.6 1.7 4.8 4.1 4.8 2.4 0 4.1-2.2 4.1-4.8zM61.8 46.3c0 4.5-3.6 8.1-8.5 8.1a8.2 8.2 0 01-8.5-8.1c0-4.5 3.7-8.1 8.5-8.1s8.5 3.7 8.5 8.1zm-4.4.1c0-2.6-1.7-4.8-4.1-4.8-2.4 0-4.1 2.1-4.1 4.8 0 2.6 1.7 4.8 4.1 4.8 2.4 0 4.1-2.2 4.1-4.8zM174 41.9c-1.2-.4-2.1-.7-3.6-.7-1.1 0-2.4.4-2.4 1.7 0 2.5 7 .9 7 6.5 0 3.6-3.2 5-6.5 5-1.5 0-3.1-.3-4.6-.7l.2-3.3c1.3.6 2.6 1 4 1 1 0 2.6-.4 2.6-1.9 0-3-7-1-7-6.5 0-3.3 2.9-4.8 6.1-4.8 1.9 0 3.1.3 4.4.6l-.2 3.1z"
      />
    </g>
  </g>
</svg>
