<svg xmlns="http://www.w3.org/2000/svg" viewBox="0 0 175 97.2">
  <path
    d="M74 27.7l-1.7 7-.8 3.4-.8-3.4-1.8-7h-2.4l-.9 15.5h2.2l.3-6.6v-.1l.1-2.8.6 2.5 1.8 6.9h1.6l1.9-7.2.6-2.3.1 2.9.3 6.7h2.3l-.9-15.5H74zM82.2 27.7l-3.5 15.5H81l1-4.4h2.7l1 4.4h2.4l-3.4-15.5h-2.5zm2.1 9h-1.9l.7-3.3.3-1.5.3 1.5.6 3.3zM94.1 43.3c.9 0 1.7-.2 2.3-.4l.2-.1-.4-2.2-.4.2c-.3.1-.8.3-1.4.3-2 0-3.1-2-3.1-5.6 0-4.2 1.6-5.7 3-5.7.7 0 1 .1 1.3.3l.4.2.5-2.1-.1-.2c-.4-.3-1.2-.4-2-.4-2.6 0-5.6 2.1-5.6 8 0 7 3.7 7.7 5.3 7.7zM100.8 36.3h3.4v6.9h2.4V27.7h-2.4v6.4h-3.4v-6.4h-2.5v15.5h2.5zM109.2 27.7h2.4v15.5h-2.4zM116.6 37.7l-.1-4.4 1 2.6 2.9 7.3h2.2V27.7h-2.2v5.6l.1 4.4-1.1-2.9-2.8-7.1h-2.2v15.5h2.3v-5.5zM131.9 41h-4.2v-4.8h3.7v-2.1h-3.7v-4.2h4v-2.2h-6.4v15.5h6.6zM136 41.1c-.6 0-1.5-.2-1.9-.5l-.4-.3-.6 2.2.2.1c.5.3 1.6.7 2.7.7 2.6 0 4.5-1.9 4.5-4.5 0-1.8-.9-3.2-2.7-4.5-1.4-1-2-1.5-2-2.7 0-.8.6-1.7 1.8-1.7.8 0 1.4.3 1.5.4l.4.3.6-2.2-.2-.2c-.4-.3-1.3-.6-2.3-.6-2.5 0-4.3 1.7-4.3 4.2 0 1.6 1 3 2.9 4.4 1.1.9 1.8 1.6 1.8 2.8.1 1.3-.7 2.1-2 2.1zM107.2 66.4h2.4l-3.4-15.5h-2.4l-3.5 15.5h2.4l1-4.4h2.7l.8 4.4zm-1.4-6.5h-1.9l.7-3.3.3-1.5.3 1.5.6 3.3zM114.6 59l2.9 7.3h2.2V50.9h-2.2v5.6l.1 4.4-1.1-2.9-2.8-7.1h-2.2v15.5h2.3v-5.5l-.1-4.4.9 2.5zM128.9 52a5.3 5.3 0 00-3.7-1.2c-.9 0-1.7.1-2.4.3l-.3.1v15l.3.1 2 .2c1.9 0 3.3-.6 4.3-1.7 1.2-1.3 1.9-3.5 1.9-6.5 0-3.7-1.2-5.4-2.1-6.3zm-3.7 12.3h-.3V52.9h.4c2.1 0 3.1 1.8 3.1 5.4.1 4-1 6-3.2 6zM98.7 81.9l-.5 2.9-.5-2.7-1.5-7.5h-2L92.9 82l-.2 1.1-.3 1.8-.4-2.8-1.3-7.4h-2.5l3 15.5h2.2l1.5-7.4.5-2.5.4 2.4 1.5 7.5h2.2l3-15.5H100l-1.3 7.2zM109.7 80.9h-3.4v-6.3h-2.4v15.5h2.4v-6.9h3.4v6.9h2.4V74.6h-2.4zM116.9 83.1h3.7v-2.2h-3.7v-4.1h3.9v-2.2h-6.3v15.5h6.6v-2.2h-4.2zM125.1 83.1h3.7v-2.2h-3.7v-4.1h4v-2.2h-6.4v15.5h6.6v-2.2h-4.2zM133.4 74.6H131v15.5h6.5v-2.2h-4.1zM143 81.1c-1.4-1-2-1.5-2-2.7 0-.8.6-1.7 1.8-1.7.8 0 1.4.3 1.5.4l.4.3.6-2.2-.2-.2c-.4-.3-1.3-.6-2.3-.6-2.5 0-4.3 1.7-4.3 4.2 0 1.6 1 3 2.9 4.4 1.1.9 1.8 1.6 1.8 2.8 0 1.3-.8 2.1-2.1 2.1-.6 0-1.5-.2-1.9-.5l-.4-.3-.6 2.2.2.1c.5.3 1.6.7 2.7.7 2.6 0 4.5-1.9 4.5-4.5.1-1.7-.8-3.2-2.6-4.5zM151 74.9h2.4v15.5H151zM160.1 78.9a3 3 0 00-2.2.9v-.7h-2.2v1.3l.1 1.8v8.2h2.4v-7l.1-.9c.2-.9.7-1.4 1.2-1.4s1.1.2 1.1 2.2v7.2h2.4V83c0-3.7-2.1-4.1-2.9-4.1zM169.2 81.1l1 .2.4.2.5-2.1-.2-.1c-.4-.2-1.1-.4-1.7-.4-2.7 0-4.5 2.4-4.5 5.9 0 3.6 1.6 5.7 4.2 5.7.7 0 1.5-.2 1.9-.4l.2-.1-.3-2-.4.2c-.4.2-.7.3-1.1.3-1.3 0-2.1-1.3-2.1-3.6 0-1.9.7-3.8 2.1-3.8zM173.5 87.3c-.8 0-1.5.7-1.5 1.6 0 .9.6 1.6 1.5 1.6s1.5-.7 1.5-1.6c0-.9-.6-1.6-1.5-1.6zM146.2 90l-.4 1.6-.2.6 1.2-.2.1-.2.7-1.8.1-.5-1.4.2-.1.3z"
  />
  <path
    fill-rule="evenodd"
    d="M93.1 47.8v.3L82.9 72.4c-1.3 2.9-8 18.2-8 20.2 0 3.1 3.1 2 3.1 3.6 0 .4 0 .7-.3 1H71c-2.4-.3-8.4.4-10.9-2.8-1.9-2.5 11.6-32.4 17.5-46.6h15.5zm-19.4 0c-4.5 10.8-18.4 42.9-18.4 44.7 0 2.7 3.2 2.5 3.2 3.4l-.1 1.1-9.7-.1c-2.8-.7-7.7-.1-7.7-4.2 0-3.9 14.6-38 17.5-44.9h15.2zM61.1 0c2.5.3 10.4-.1 10.4 4.2 0 2.2-4.9 13.9-5.9 16.3L51.2 55.2c-4.9 11.9-10.1 23.7-15 35.8l-.1 1.5c0 2.8 3.1 2.5 3.1 3.5l-.1 1-9.8-.1c-3.5-.4-7.6-.4-7.6-4.2 0-2.1 1.1-4.6 1.8-6.4 1.3-4.1 3.2-8 4.8-11.9 2.9-7.2 5.8-14.6 8.8-21.7 4.3-10.7 9-21.7 13.6-32.5.4-1.3 6.2-13.6 6.2-15.6 0-1.7-1-2.7-3.1-2.9l.1-1.5h7.2zM41.8 0c1.2.4 10.3-.6 10.3 4.1 0 2.4-4.5 12.9-4.6 13.3l-2.8 7.2a773 773 0 01-10.4 24.8l-15-.1c6-14.3 12.2-28.7 18-43 .3-.6.4-1.4.4-1.7 0-1.5-1.4-2.9-3.1-3.1V0h7.2zM22.5 0c3.1.7 10.2-.4 10.2 4.1 0 3.1-3.8 10.9-4.4 12.8l-2.2 5.7C25 25.4 23.7 28 22.6 31c-1.3 3.1-7.3 18.4-7.7 18.4L0 49.2 17.8 6.3c.3-.6.4-1.4.4-1.8 0-2.9-3.1-2.7-3.1-3.4l.1-1.1h7.3z"
    clip-rule="evenodd"
  />
  <path
    fill="#fa2400"
    fill-rule="evenodd"
    d="M90 49.6S74.1 87.3 72.6 92.2c-.1.3.1 1.3.3 1.8.1.3.4.6.7.8l-3.9.1-3.5-.3c-.3-.4-3.9 0-4.2-2.2-.3-2.6 17-43 17-43h11zm-19.2-.1S53.1 91.6 53.4 92.8c.3 1.2 1.8 2.4.7 2.2h-4.2s-6.7.2-7-2.4c-.5-3.5 16.3-42.1 17-43.2h10.9zM69.1 3.6c3.2 0-34.7 85.8-34.7 85.8s-.7 1.1-.3 2.9c.1.6 1.4 2.3 1.3 2.5l-4.7-.2s-8.1.1-7.5-2.8c1.4-6.7 36-85.8 35.9-87.4-.1-1.4-1.4-2-1.7-2.7.1.1 12.5.1 11.7 1.9zm-19 0c.8 3-16.3 42.4-17.2 43.9L22 47.4 39.8 4.6c.2-1.8-1.6-2.9-1.6-3l.2.1c-.3-.1 11.1 0 11.7 1.9zm-19.3.2C30.5 8 13.9 47.7 13.7 47.5H2.8S20.4 5.4 20.7 4.1c.4-2-1.8-2.2-1.8-2.4-.2 0 12 .2 11.9 2.1z"
    clip-rule="evenodd"
  />
</svg>
