<svg xmlns="http://www.w3.org/2000/svg" viewBox="0 0 75 75">
  <title>
    MariaDB
  </title>
  <path fill="none" d="M-1-1h77v77H-1z" />
  <g>
    <path
      fill="#445264"
      fill-rule="evenodd"
      d="M67.3 64c2.2-.1 3.8.9 3.8 2.8 0 1.7-1.6 2.6-2.9 2.6h-2.6V64h1.7zm-19.5 1.6c0 2.3-1.6 4.3-4.1 4.3-1.5 0-2.8-.6-3.8-2.6a4 4 0 01-.3-1.2V65c.5-2.6 2.2-3.8 4.1-3.8 2.5.2 4.1 2.2 4.1 4.4zm-21.5 0c0 2.4-1.7 4.3-4.2 4.3-2.6 0-4.1-2.2-4.1-4.3 0-2.3 1.8-4.3 4.1-4.3 2.5.1 4.2 2.1 4.2 4.3zm10.5-5.3v10.6h-1.3V60.3h1.3zm-2.9-.2v1.3c-1.3-.2-3.2 1.4-3.2 2.9v6.6h-1.4V60.3h1.3l.1 1.5c.9-1.1 2-1.5 2.9-1.6h.3v-.1zm13.9 2.1v-1.9h1.4v10.6h-1.4v-1.8c-1.4 1.6-2.7 2.1-4.1 2.1-2.1 0-4.2-1-5.2-3.8a4 4 0 01-.3-1.2v-1.3c.6-3.5 3.1-5 5.4-5 1.4.1 2.9.6 4.2 2.3zm-21.6-.1v-1.9h1.4v10.6h-1.4V69a5.2 5.2 0 01-9.2-1.5 4 4 0 01-.3-1.2v-1.5c.6-3.3 3.1-4.8 5.4-4.8 1.3 0 2.8.4 4.1 2.1zM67.9 58c1.4.2 2.1.9 2.1 2.1 0 2.2-2.2 2.5-3.6 2.5h-.9v-4.5h2.4V58zm-13.1 0l.9.1c3.9.3 5.6 3 5.6 5.8 0 3.9-2.5 5.6-6 5.6h-3.2V58h2.7zm19.2-.6l.1.2-.5.1v-.3h.4zm.1-.2l.2.3-.3.4.4.6h-.2a2 2 0 00-.4-.6h-.2l-.1.6h-.2v-1.3h.8zm.7.6a1 1 0 01-2 0c0-.6.4-.9 1-.9s1 .4 1 .9zm.2 0c0 .7-.6 1.2-1.2 1.2-.9 0-1.1-.7-1.1-1.3 0-.7.4-1.2 1.2-1.2.6.1 1.1.6 1.1 1.3zm-7.4-1.2c2.6.2 3.9 1.5 3.9 3.5 0 1-.6 2.4-1.8 3.1 2.2.7 3 2.2 3 3.7 0 2.4-2.2 4.1-4.1 4.1h-4.4V56.6h3.4zm-12.7 0c5.7.1 7.7 3.6 7.7 7.4 0 4.3-2.9 6.9-6.6 6.9h-5.4V56.6h4.3zm-17.8.9c0 .7-.5 1-1 1-.6 0-1-.4-1-1s.4-1 1-1c.7.1 1 .5 1 1zm-34.9-.9L8 68.3l5.8-11.7h.2l2 14.3h-1.4l-1.4-10.2-5 10.2h-.4l-5-10.3-1.4 10.3H0l2-14.3h.2zM65.1 8.4l.1.5c0 1.4-1.2 2.1-2.3 2.1-.3 0-1.3-.2-1.3-.6 0-1.1 1.4-1.9 2.3-2h1.2zM72.9 6c0 6.4-6.1 5.9-8.4 10.9l-.5 1.4-.7 3-.9 3.9-.7 2.9-.8 2.8-.7 2.1a33.9 33.9 0 01-3.6 6.6c-.1.1-2.3 2.5-2.8 2.5-.9 0-.2-1.9-.9-3.6l-.2.2-.9 2.3a19 19 0 01-5.9 8.1 17.6 17.6 0 01-5.5 2.5c-.3 0-.4-.3-.4-.4 0-.2 1.6-2.5 2.3-3.7 1.2-2.1 1.9-4.1 2.2-6.2.2-.8.3-2.4.3-2.5 0-.4-.3-.6-.6-.6-1 0-2 5.1-3.3 5.7l-.8.2H37l-3.9-.5c-2.2-.3-4.7-.6-6.8-.6-4.6 0-7 1.3-12 4.7-1.3.9-2.7 1.4-3.9 2.1C8.7 50.7 5.9 52 4 52H2.9v-.3c0-1.1 2.7-3.8 2.7-4.2 0-.5-1.2-.9-1.3-1.1l-.8-.6c-.7-.5-1.5-1.3-2.2-1.6.8-1 2.1-1.2 3.1-1.2l.9.1c2.2.3 4.6.9 6.8.9 1.8 0 2.1-.3 4-2.7 1.1-1.4 2.1-3.1 3.7-4.4 1.6-1.4 3.2-2.6 4.8-3.2l6.6-2.3c3.2-1.1 6.6-2 9.8-3.3 2.8-1.2 6-2.6 8.6-5.8 2.8-3.5 4.3-7.2 6.9-10.7 2.5-3.5 5.8-5 8.8-5.1l1.4-.1h1l2.3-.6c.7-.3 1.8-1 2.5-1 .4.2.4.7.4 1.2zm1.2-.3c0 4.9-3.7 6.3-6.7 9.2a8.4 8.4 0 00-2.7 4.8c-1 5.6-2.5 11.1-4.2 16.8-.2.6-.3 1.6-.3 2.2 0 1.4.3 3.2.9 4.5l.6 1.1c.5.7.9.8.9 1.2 0 1-3.3 1.3-3.8 1.3-1.8 0-4-.5-5.6-2.6-3.3 1-3.6 4.6-6.3 6.5-1.5 1-6.7 2.8-8.9 2.8-.3 0-1 .1-1-.3 0-.5 3.4-4.1 4.4-7.1-1-.2-10.1-1.7-12.8-1.7h-3.4a25 25 0 00-3.8.6c-2.4.6-4.9 2.7-7.3 4.2a25 25 0 01-11 3.8c-.6 0-1.9-.1-1.9-1 0-1.4 1.8-3 2.5-4.2L2 46.7c-.4-.3-2.3-1.8-2.3-2.4 0-.4.2-.5.7-.9 1.1-.8 2.4-.9 3.5-.9l7 .8.7-.1c.5-.1 1-.1 1.5-.5 1-.7 1.6-1.6 2.3-2.5 1-1.2 2.2-2.8 3.5-3.9 2.2-1.9 4.4-3 6.6-3.8 4.6-1.7 9.5-2.8 14.2-4.9 1.7-.8 3.7-1.7 5.5-3 4.1-3.1 6.8-8.9 8.5-11.6 3.5-5.3 7.1-7.6 11.3-7.6h1l2.6-.4 1.6-.5c1-.4 1.3-.7 2.2-.7 1.5 0 1.7 1 1.7 1.9z"
      clip-rule="evenodd"
    />
  </g>
</svg>
