<svg xmlns="http://www.w3.org/2000/svg" viewBox="0 0 75 75">
  <style>
    .st0 {
      fill: #939598;
    }
    .st2 {
      fill: #a7a9ac;
    }
    .st3 {
      fill: #bcbec0;
    }
    .st7 {
      fill: #a51724;
    }
  </style>
  <title>
    background
  </title>
  <path id="canvas_background" fill="none" d="M-1-1h77v77H-1z" />
  <g>
    <title>
      Layer 1
    </title>
    <g id="Marionette_2_">
      <path
        id="svg_1"
        d="M43 34l7-16.6c.1-.2.3-.3.5-.2.2.1.3.3.2.5l-6.2 14.7L43 34z"
        class="st0"
      />
      <path
        id="svg_2"
        fill="#931a2b"
        d="M49.1 25.5s-3.4 4.4-5.7 7L37.5 39v9h.1a1 1 0 010 2h-.1v9.1s4.4-3 7.5-5.8c3.6-3.2 7.5-8.3 7.5-8.3l-3.4-19.5z"
      />
      <path id="svg_3" d="M35 9v3.5l-12.7 5.1.2-3.1L35 9z" class="st2" />
      <path
        id="svg_4"
        d="M52.7 14.4l.2 3.1-12.8-5V9l12.6 5.4zM37.6 7.9v3.6L19 4.2l.4-4.1 18.2 7.8zM19.4.2l-.4 4-2.5 1.5.4-4L19.4.2z"
        class="st3"
      />
      <path id="svg_5" d="M55.7 0l.4 4.1-18.5 7.4V7.9L55.7 0z" class="st2" />
      <path id="svg_6" d="M58.1 1.5l.5 4-2.5-1.4-.4-4.1 2.4 1.5z" class="st3" />
      <path
        id="svg_7"
        fill="#808285"
        d="M24.8 18.4l-2.5-.7L35 12.5 16.5 5.7 19 4.2l18.6 7.3 18.5-7.4 2.5 1.4-18.4 7 12.8 5-2.5.7-12.8-4.7-12.9 4.9z"
      />
      <path
        id="svg_8"
        d="M16.7 28.6c-.3 0-.4-.2-.4-.4l2.3-22.6c0-.2.2-.4.4-.4s.4.2.4.4l-2.3 22.6c0 .3-.2.4-.4.4zm40.8 0a.4.4 0 01-.4-.4L55.7 5.5c0-.2.2-.4.4-.4s.4.1.4.4l1.4 22.8c0 .1-.2.3-.4.3zM31 33.2l-6.6-15.5c-.1-.2 0-.4.2-.5.2-.1.4 0 .5.2l7.3 17.2-1.4-1.4z"
        class="st0"
      />
      <path
        id="svg_9"
        fill="#a81e2c"
        d="M36.5 49c0-.5.4-1 1-1v-9l-5.8-6.6c-2.4-2.5-5.7-7-5.7-7L22.4 45s4 5.1 7.5 8.3c3.2 2.9 7.5 5.8 7.5 5.8V50c-.4 0-.9-.4-.9-1z"
      />
      <path
        id="svg_10"
        d="M37.6 49.6l-.3-.1L23.7 37v-1.1l13.9 12.8 13.7-12.9.1 1-13.6 12.7-.2.1z"
        class="st0"
      />
      <path
        id="svg_11"
        fill="#ce2227"
        d="M66.1 28.2l-17-2.7s1.6 9 1.6 24.1c0 15.1-2.1 25.4-2.1 25.4l17.2-1.9S68 64.9 68 50.6c0-14.1-1.9-22.4-1.9-22.4zM58.2 68a.8.8 0 01-.8-.8c0-.5.4-.8.8-.8.5 0 .8.4.8.8.1.5-.3.8-.8.8zM24.3 49.6c0-15.1 1.6-24.1 1.6-24.1l-17 2.7S7 36.4 7 50.7c0 14.2 2.2 22.5 2.2 22.5L26.4 75s-2.1-10.3-2.1-25.4zM16.4 68a.8.8 0 01-.8-.8c0-.4.4-.8.8-.8s.8.3.8.8-.3.8-.8.8z"
      />
      <circle id="svg_12" cx="58.2" cy="33.2" r=".8" class="st7" />
      <path
        id="svg_13"
        d="M58.2 67.6c-.3-.1-.4-.3-.4-.5 0 0 1.2-5.1 1.2-16.7s-1.2-17.1-1.2-17.2c0-.2.1-.4.3-.5.2 0 .4.1.5.3 0 .1 1.2 5.6 1.2 17.3 0 11.7-1.1 16.6-1.2 16.8 0 .4-.2.5-.4.5z"
        class="st0"
      />
      <circle id="svg_14" cx="16.4" cy="33.2" r=".9" class="st7" />
      <path
        id="svg_15"
        d="M16.4 67.6c-.2 0-.4-.1-.4-.3 0-.1-1-6.7-1-17s1-17 1-17.1c0-.2.2-.4.4-.3.2 0 .4.2.3.4 0 .1-1 6.7-1 17s1 16.8 1 16.9c.2.2 0 .4-.3.4.1 0 .1 0 0 0z"
        class="st0"
      />
    </g>
  </g>
</svg>
