<svg xmlns="http://www.w3.org/2000/svg" viewBox="0 0 175 175">
  <g fill-rule="evenodd" clip-rule="evenodd">
    <path
      fill="#03355f"
      d="M87.5 172.6c40.6 0 81.6-29.7 85.1-83.2 2.7-.4 2.3-.4 2.3.8a101 101 0 01-9 35.9c-19.5 35.9-50.8 48.8-78.5 48.8-28.1 0-59-12.9-78.9-48.8C4.3 118.3 0 100 0 90.6c0-2.3-.4-.8 2.3-1.2a85 85 0 0085.2 83.2zM162.1 57a82.2 82.2 0 015.9 22.3v2h-28.9V53.5l1.2-5.5h-28.9l-23 56.6L65.2 48h-30s-.4-.4-.4.8c0 .8 1.2 3.1 1.2 4.3v28.1H7v-2A79.5 79.5 0 0187.5 7c26.6 0 59 12.5 74.6 50zm6.6-1.9c.4.8 5.9 17.6 5.9 21.5v3.5h-2.3A85.2 85.2 0 0087.5 2.3 84.5 84.5 0 002.8 80.1c-2-.3-2.3.5-2.4.4v-.4c0-6.6 4.3-22.7 6.2-26.9A86.5 86.5 0 0187.5 0a86 86 0 0181.2 55.1z"
    />
    <path
      fill="#0067ac"
      d="M116 119.5l-1.2 7h25s.4.4.4-.4c0-1.2-1.2-3.5-1.2-4.3v-34h29.3v2.3c-3.5 50-43 78.1-80.8 78.1A81.6 81.6 0 0111 113.9c-1.2-3.9-4.3-17.2-4.3-23v-3.1H36V121l-1.2 5.5c.4.4 1.2.4 13.3.4.4-.4.4 0 .4-1.2 0-.8-1.2-3.5-1.2-4.3V60.9l26.2 66h15.6L116 60.1v59.4z"
    />
  </g>
</svg>
