<svg xmlns="http://www.w3.org/2000/svg" viewBox="0 0 175 85.9">
  <style>
    .st0 {
      fill: #e86e1f;
    }
    .st1 {
      fill: #00543d;
    }
    .st3 {
      fill: #221f20;
    }
  </style>
  <path d="M30.8 50l31.1-.1L72 38.3V3.8z" class="st0" />
  <path d="M74.1 0v46.2l29.7-33.1V0z" class="st1" />
  <path d="M114.8 3.6L74.9 49.9h29.9l9.9-11.1z" class="st0" />
  <path
    d="M117.1 0l-.1 50.1h30.5l.1-50.1zM41.1 59l-.1-3.6-1.3 3.4-1.4 3.4h-2.1L35 58.8l-1.1-3.4-.2 3.6-.2 3.3h-2.4l.7-8.8h3.5l1.1 2.9 1 3.1h.1l1.1-3.2 1.2-2.9h3.5l.6 8.8h-2.6l-.2-3.2zM51.8 60.9c1.8 0 2.8-1.3 2.8-3 0-1.6-1-2.9-2.8-2.9S49 56.4 49 58c0 1.7 1 2.9 2.8 2.9zm-.1 1.6c-3.5 0-5.5-2-5.5-4.5 0-2.6 2.3-4.6 5.7-4.6 3.6 0 5.6 2 5.6 4.5-.1 2.9-2.4 4.6-5.8 4.6zM62.7 60.9h.9c2.4 0 4-1 4-3.1 0-1.9-1.4-2.8-3.7-2.8l-1.2.1v5.8zM60 53.7l3.6-.2c2.2 0 3.7.3 4.8.9 1.2.7 2 1.8 2 3.3 0 1.7-.8 2.8-1.9 3.6-1.2.8-3.1 1.1-5.4 1.1l-3-.1v-8.6zM72.4 58.3h4.5v1.3h-4.5zM82.1 53.6v5.1c0 1.5.8 2.3 2.1 2.3 1.4 0 2.2-.7 2.2-2.3v-5.1H89v4.9c0 2.7-1.8 4-4.9 4-3 0-4.7-1.2-4.7-4v-4.9h2.7zM91.5 58.3H96v1.3h-4.5zM98.6 53.6h2.6v3.9l.8-1 2.6-2.9h3.3l-3.9 3.7 4.1 5.1H105l-2.9-3.8-1 .9v2.9h-2.6v-8.8zM112.8 57.5h1c1.3 0 2.1-.5 2.1-1.3s-.7-1.2-1.9-1.2l-1.2.1v2.4zm-2.7-3.8l3.5-.2c1.7 0 3 .2 3.8.7a2 2 0 011.1 1.8c0 1.1-1.1 1.9-2.1 2.2.8.2 1.3.8 1.6 1.6l.9 2.5h-2.7a7 7 0 01-.8-2c-.3-1.1-.8-1.4-1.9-1.4h-.8v3.5h-2.6v-8.7zM127.1 58.6l-.7-1.9-.6-1.7h-.1l-.5 1.7-.7 1.9h2.6zm-2.9 1.5l-.8 2.3h-2.7l3.6-8.8h3.5l3.6 8.8h-2.8l-.9-2.3h-3.5zM133.7 53.6h7.2v1.6h-4.5v2h4.2v1.6h-4.2v3.6h-2.7zM144.4 55.2h.3c.4 0 .6-.1.6-.3 0-.2-.2-.3-.6-.3h-.3v.6zm0 1.2h-.6v-2.2l.9-.1 1 .2c.2.1.3.2.3.5s-.2.4-.6.5c.3 0 .4.2.5.5l.2.5h-.6l-.2-.6c0-.2-.2-.3-.6-.3h-.3v1zm.4-2.7c-1.1 0-2 .7-2 1.6 0 .9.9 1.6 2 1.6s2-.7 2-1.6c0-.9-.9-1.6-2-1.6zm0-.4c1.5 0 2.6.9 2.6 2s-1.2 2-2.6 2c-1.5 0-2.6-.9-2.6-2s1.2-2 2.6-2z"
    class="st1"
  />
  <path fill="#fff" d="M0 64h175v21.8H0z" />
  <g>
    <path
      d="M30 70.7l.9-.7.2-.1.1.2-.7.5-.3.6v.2l.1.1.1.1.3.3.1.3-.2.5-.5.2-.6-.3-.2-.7c0-.3.2-.8.7-1.2m-3.1.3c.2-.3.6-.6 1.2-1l.2-.1.1.2-.7.5-.4.6v.2l.1.1.1.1.3.3.1.3-.2.4-.5.2-.6-.3-.2-.7.5-.8M35.7 73.9c.7 0 1.2-.1 1.6-.3.7-.3 1-.9 1-1.8 0-.5-.1-.9-.4-1.1a2 2 0 00-1.1-.3l-.6.1-.2.3-.9 3.1h.6zm1.2 3.8c.4-.5.6-1 .6-1.7s-.2-1.2-.7-1.4l-1.8-.2-.8 3-.1.2v.2c0 .2.1.4.3.5l.6.1c.9 0 1.5-.3 1.9-.7m-5.2.9l.7-.2c.2-.1.3-.4.5-.8l1.6-5.9.1-.3.1-.4-.2-.5-.8-.1V70H37l1.6.2c.8.3 1.1.9 1.1 1.7 0 .7-.3 1.2-.9 1.6-.3.2-.8.4-1.4.5l1 .6c.4.4.6.9.6 1.5 0 .7-.3 1.3-1 1.8s-1.5.7-2.7.7h-3.7zM41.6 74.1V74v-.1c0-.2-.1-.3-.2-.3l-.6-.1v-.2l1-.2 1.1-.2h.1v.2l-1.3 4.4-.1.3v.1l.1.2.2.1c.3 0 .6-.2 1-.7l1-1.4.8-1.5.6-1.6h1L45 77.6l-.1.2V78.1l.1.1.2-.1.3-.2.3-.3.4-.4.2.1-.6.9c-.4.5-.8.7-1.2.7l-.5-.2a.8.8 0 01-.2-.5v-.4l.1-.5.3-1.2.2-.6-1.4 2.2c-.6.7-1.2 1.1-1.7 1.1l-.4-.1c-.2-.1-.3-.3-.3-.7v-.2-.2l.9-3.5zM49.1 71.2a.8.8 0 01-.2-.5l.2-.5.5-.2.5.2.2.5-.2.5-.5.2-.5-.2m.7 1.6c0 .1 0 .1 0 0l-1.3 4.7-.1.4v.2l.2.1.6-.4.5-.7.2.1-.1.1-.8 1c-.3.3-.7.5-1 .5l-.5-.2-.2-.6v-.3l.1-.4.9-3.4v-.1-.1c0-.2-.1-.3-.2-.3l-.7-.1v-.2l.8-.1.5-.1.6-.1h.5M53 70.8v-.2-.1l-.2-.3h-.7V70l.7-.1.5-.1.9-.2.1.1-2.2 7.9-.1.3V78.2l.2.1c.2 0 .4-.1.6-.4l.6-.8.2.1-.9 1.2c-.4.4-.7.5-1.1.5l-.4-.1c-.2-.1-.3-.3-.3-.6l.1-.4.1-.4 1.9-6.6zM54.7 78.2v-.1l1.3-4.6h-1v-.2l.1-.1 1-.5 1-1 .1-.1h.2v.2l-.4 1.4h1.1l-.1.4h-1L55.8 78v.2l.2.1.5-.3.6-.7.2.1-.1.1c-.4.6-.7 1-1 1.2l-.8.3a.8.8 0 01-.5-.2.8.8 0 01-.2-.4v-.2M61.8 78.2v-.1l1.3-4.6h-1v-.2l.1-.1 1-.5 1-1 .1-.1h.2v.2l-.4 1.4h1.1l-.1.4H64L62.8 78v.2l.2.1.5-.3.6-.7.2.1-.1.1c-.4.6-.7 1-1 1.2l-.8.3a.8.8 0 01-.5-.2.8.8 0 01-.2-.4l.1-.2M66.8 78.3c.2.2.4.4.8.4.7 0 1.3-.5 1.9-1.6.5-.9.7-1.8.7-2.5l-.1-.8c-.2-.4-.4-.6-.8-.6-.7 0-1.3.5-1.9 1.5a5 5 0 00-.8 2.8c-.1.2 0 .5.2.8m4-4.9c.3.4.5.9.5 1.4a4 4 0 01-1.2 2.7c-.8.9-1.7 1.4-2.7 1.4-.6 0-1.1-.2-1.5-.5-.4-.3-.5-.8-.5-1.5 0-1 .4-1.9 1.2-2.7.8-.9 1.7-1.3 2.7-1.3.7-.1 1.2.1 1.5.5M80.1 75.3l-.6-3.5-2 3.5h2.6zm-5.6 3.3l.7-.4 1-1.6 3.9-6.7h.3l1.3 7.6.3.9.7.2v.2h-3.3v-.2l.8-.1c.2-.1.3-.3.3-.5v-.2-.2l-.3-1.8h-2.9l-.8 1.5-.2.3-.1.5.2.4.6.1v.2h-2.5v-.2z"
      class="st3"
    />
    <path
      d="M88 73.9a.8.8 0 00-.7-.5c-.3 0-.6.2-1 .5s-.7.8-.9 1.5l-.5 1.7-.2 1.1.2.4.5.1c.8 0 1.4-.5 2-1.5.5-.9.8-1.7.8-2.6l-.2-.7m-6 7.4l.6-.1.3-.5 1.8-6.4.1-.3v-.2l-.2-.3-.5-.1H84h-.1v-.2l2.1-.3.1.1v.2l-.4 1.2.8-.9a2 2 0 011.4-.6c.5 0 .8.1 1.1.4.3.3.4.7.4 1.3 0 1-.4 2-1.3 2.9-.9.9-1.7 1.4-2.7 1.4l-.5-.1-.5-.2-.1.4-.2 1-.2.9c0 .2.1.3.2.3l.7.1v.2H82v-.2zM94.8 73.9a.8.8 0 00-.7-.5c-.3 0-.6.2-1 .5s-.7.8-.9 1.5l-.5 1.7-.2 1.1.2.4.5.1c.8 0 1.4-.5 2-1.5.5-.9.8-1.7.8-2.6l-.2-.7m-6.1 7.4l.6-.1.3-.5 1.8-6.4.1-.3v-.2l-.2-.3-.5-.1h-.1-.1v-.2l2.1-.3.1.1v.2l-.4 1.2.8-.9a2 2 0 011.4-.6c.5 0 .8.1 1.1.4.3.3.4.7.4 1.3 0 1-.4 2-1.3 2.9-.9.9-1.7 1.4-2.7 1.4l-.5-.1-.5-.2-.1.4-.2 1-.2.9c0 .2.1.3.2.3l.7.1v.2h-2.8v-.2zM99.3 72.9v.2l-.7 2.6.2-.3 1.1-1.7c.4-.5.8-.8 1.2-.8l.5.2.2.5-.2.5-.5.2-.3-.1-.2-.2-.1-.1-.1-.1h-.1c-.2 0-.4.2-.7.7l-.9 1.5-.5 1.3-.5 1.5h-1l1.1-3.9.1-.6.1-.4-.1-.3-.3-.1h-.5v-.2l.3-.1 1.1-.2c.5-.1.7-.2.8-.1 0-.1 0-.1 0 0M105.1 75.1c.5-.5.8-.9.8-1.4l-.1-.4-.3-.1a1 1 0 00-.8.4l-.7.8-.6 1-.2.6c.7-.1 1.3-.4 1.9-.9m-2.2-.9c.9-.9 1.8-1.4 2.7-1.4l.8.2c.2.2.3.4.3.7 0 .6-.4 1.2-1.1 1.6-.7.4-1.5.7-2.3.8h-.4l-.1.4v.4c0 .4.1.7.4.9l.9.3a2 2 0 001-.3l.9-.7.2.2-.8.8c-.7.5-1.3.7-2 .7-.5 0-.9-.2-1.2-.5a2 2 0 01-.5-1.4c-.1-.8.4-1.8 1.2-2.7M112.5 73.2l.4.7-.2.5-.4.2c-.2 0-.3 0-.4-.2l-.2-.4.1-.4.1-.3-.1-.2-.4-.1c-.7 0-1.3.4-1.8 1.2s-.8 1.6-.8 2.5c0 .5.1.9.3 1.2.2.3.5.4.9.4a2 2 0 001-.3l.9-.7v-.1l.2.1-.9.9c-.5.4-1.1.5-1.7.5-.6 0-1.1-.2-1.4-.6-.4-.4-.5-.9-.5-1.5 0-1 .4-1.9 1.2-2.7.8-.8 1.7-1.2 2.6-1.2l1.1.5M115.6 71.2a.8.8 0 01-.2-.5l.2-.5.5-.2.5.2.2.5-.2.5-.5.2c-.3 0-.4-.1-.5-.2m.6 1.6c0 .1 0 .1 0 0l-1.3 4.7-.1.4v.2l.2.1.6-.4.5-.7.2.1-.1.1-.8 1c-.3.3-.7.5-1 .5l-.5-.2-.2-.6v-.3l.1-.4.9-3.4v-.1-.1c0-.2-.1-.3-.2-.3l-.7-.1v-.2l.8-.1.5-.1.6-.1h.5M121.6 73.4a.8.8 0 00-.5-.2c-.7 0-1.4.5-2 1.6a6 6 0 00-.8 2.5l.2.8c.2.2.3.2.6.2.7 0 1.3-.5 1.9-1.6a5 5 0 00.9-2.6l-.3-.7m.2-.3l.2.4v.1l.1-.5V73h.1l.8-.1h.1V73.2l-.6 2.3-.4 1.3-.2 1.1v.1h.2l.2-.1.1-.1.1-.1.2-.2.4-.4.2.1-1.1 1.2-.8.3-.4-.2-.1-.4.1-.7.2-.7-.4.6-.7.7-.9.6-.7.1c-.4 0-.7-.1-1-.4-.3-.3-.4-.7-.4-1.2 0-.9.4-1.9 1.2-2.9.9-1 1.7-1.6 2.7-1.6l.8.5M124.1 78.2v-.1l1.3-4.6h-1v-.2l.1-.1 1-.5 1-1 .1-.1h.2v.2l-.4 1.4h1.1l-.1.4h-1.1l-1.2 4.4v.2l.2.1.5-.3.6-.7.2.1-.1.1c-.4.6-.7 1-1 1.2l-.8.3a.8.8 0 01-.5-.2.8.8 0 01-.2-.4l.1-.2M131.2 75.1c.5-.5.8-.9.8-1.4l-.1-.4-.3-.1a1 1 0 00-.8.4l-.7.8-.6 1-.2.6c.7-.1 1.4-.4 1.9-.9m-2.1-.9c.9-.9 1.8-1.4 2.7-1.4l.8.2c.2.2.3.4.3.7 0 .6-.4 1.2-1.1 1.6-.7.4-1.5.7-2.3.8h-.4l-.1.4v.4c0 .4.1.7.4.9l.9.3a2 2 0 001-.3l.9-.7.2.2-.8.8c-.7.5-1.3.7-2 .7-.5 0-.9-.2-1.2-.5a2 2 0 01-.5-1.4c-.2-.8.3-1.8 1.2-2.7M139.6 70.1c.2.2.2.4.2.7 0 .4-.2.8-.5 1.2-.3.4-.7.6-1 .8l-.2.1-.1-.2.6-.5c.3-.3.4-.5.4-.7v-.2l-.1-.1-.1-.1-.3-.3-.1-.3.2-.5.5-.2.5.3m-3.8 0l.5-.2.6.3.2.7c0 .4-.1.7-.4 1.1-.3.4-.6.7-1.1 1l-.2.1-.1-.2.6-.5c.3-.2.4-.5.4-.7v-.2l-.1-.1-.1-.1-.3-.3-.1-.4c-.1-.3-.1-.4.1-.5M140.9 71.1h3.5v1.1h-.2l-.3-.7-.7-.2h-.2v3.2l.1.4.5.1v.1h-1.8V75l.5-.1.1-.5v-3.1h-.4l-.7.2-.3.7h-.2l.1-1.1zM144.7 75.1c.3 0 .4-.1.5-.2l.1-.6v-2.5l-.1-.4-.5-.1v-.1h1.2l1.4 3.1 1.4-3.1h1.2v.1l-.4.1-.1.4v2.8l.1.4.4.1v.1h-1.8v-.1l.5-.1.1-.5v-2.8l-1.6 3.6h-.1l-1.6-3.4v2.5l.2.7.4.1v.1h-1.5v-.2z"
      class="st3"
    />
  </g>
</svg>
