<svg xmlns="http://www.w3.org/2000/svg" viewBox="0 0 175.1 148.3">
  <style>
    .st0 {
      stroke: #231f20;
      stroke-width: 0.15;
    }
    .st3,
    .st4 {
      fill: #231f20;
    }
    .st4 {
      stroke: #231f20;
      stroke-width: 0.5;
    }
    .st5 {
      fill: #aeaaaa;
      stroke: #aeaaaa;
      stroke-width: 0.25;
    }
  </style>
  <path
    d="M30.9 103.5c4.7 0 8.3 2.9 8.3 7.6 0 4.6-3.4 8.3-8.5 8.3-5.8 0-8.2-4.3-8.2-8a8.2 8.2 0 018.4-7.9zm.5 15.1c1.9 0 5.7-1 5.7-6.9 0-4.9-3-7.5-6.3-7.5-3.5 0-6.1 2.2-6.1 6.6.1 4.9 2.9 7.8 6.7 7.8zM44.3 116.4c0 1.7.2 2.2.8 2.3l1.1.1.2.2c0 .1-.1.2-.4.2l-2.2-.1-2 .1c-.2 0-.3 0-.3-.2l.2-.2.9-.1c.5-.1.6-.7.6-2.5v-11.7c0-.8.1-1 .3-1 .2 0 .6.4.8.6L51 111l5 5.2-.2-10.2c0-1.3-.1-1.8-.8-1.9l-1-.1a.2.2 0 01-.2-.2l.4-.1h4l.4.1-.2.2h-.5c-.7.1-.7.6-.7 1.8v11.9c0 1.3 0 1.5-.2 1.5s-.4-.2-1.6-1.2l-5.5-5.5a272 272 0 00-5.5-5.8l-.1 9.7zM67.8 113.3l.1 4.4c.1.6.2 1 .8 1.1l1 .1.2.2c0 .1-.1.2-.3.2l-2.6-.1-2.2.1c-.2 0-.3 0-.3-.2l.2-.1.6-.1c.4-.1.6-.5.6-1.1l.1-4.4v-8.6h-3c-1.3 0-1.8.2-2.1.6l-.3.6c0 .2-.1.2-.2.2l-.1-.2a17.4 17.4 0 01.7-2.6c.1 0 .4.2.9.2l1.7.1h8l1.5-.1.6-.1.1.2-.1 2.3c0 .2-.1.3-.2.3l-.2-.4v-.2c-.1-.6-.5-1.1-2.5-1.1h-2.6v8.7zM86.9 114c0-1.7 0-1.9-.9-2.1h-.7a.2.2 0 01-.2-.2c0-.1.1-.2.3-.2H90c.2 0 .3 0 .3.2l-.2.2h-.5c-.6.1-.7.4-.8 1.1v4.4c0 .9 0 1-.3 1.1-1.3.7-3.3.9-4.5.9-1.6 0-4.6-.2-6.9-2.2a7.9 7.9 0 01-2.5-5.8c0-3.3 1.7-5.6 3.5-6.7 1.9-1.2 4-1.3 5.6-1.3 1.3 0 2.8.2 3.2.3l1.7.2c.2 0 .3.1.3.2l-.1 2.9c0 .3-.1.4-.2.4l-.1-.3a2 2 0 00-.5-1.3c-.5-.8-2.1-1.6-4.9-1.6-1.3 0-2.8.1-4.4 1.3-1.2.9-2.1 2.8-2.1 5.1 0 2.9 1.5 4.9 2.2 5.6a7.4 7.4 0 005.4 2.1c.7 0 1.7-.1 2.3-.4.3-.1.4-.2.4-.6V114zM100.9 103.5c4.7 0 8.3 2.9 8.3 7.6 0 4.6-3.4 8.3-8.5 8.3-5.8 0-8.2-4.3-8.2-8 0-3.2 2.6-7.9 8.4-7.9zm.5 15.1c1.9 0 5.7-1 5.7-6.9 0-4.9-3-7.5-6.3-7.5-3.5 0-6.1 2.2-6.1 6.6 0 4.9 2.9 7.8 6.7 7.8zM129.6 116.6c.1.7.2 1.8 1.1 2.1.6.2 1.1.2 1.4.2l.2.1-.4.2-3.6-.1c-.5 0-.6-.1-.6-.2l.1-.2.1-.7-1-10.4-5.1 10.4c-.4.9-.6 1.1-.7 1.1-.2 0-.3-.2-.7-.9l-2.5-4.7-2.7-5.6h-.2l-.8 9.2v1c0 .3.2.5.5.6l.8.1.2.1c0 .1-.1.2-.4.2l-2-.1-1.8.1c-.2 0-.4 0-.4-.2l.2-.1.6-.1c.7-.1.7-.9.8-1.6l1.5-13.3.2-.4.4.3 6.4 12.7 6.1-12.6.3-.3c.1 0 .3.2.3.6l1.7 12.5zM135.7 109.7v-4.4c0-.7-.2-1-.9-1.1h-.7a.2.2 0 01-.2-.2c0-.1.1-.2.3-.2h7.4l1-.1.3-.1.1.2-.2 1-.1 1.3-.2.2c-.1 0-.2-.1-.2-.3l-.1-.7c-.1-.3-.4-.5-1.5-.6l-3-.1-.1.2v5.5l.1.2h3.5c.5 0 .8-.1 1-.3l.3-.3.1.2-.2 1.1-.1 1.3c0 .2 0 .4-.2.4l-.1-.2-.1-.7c-.1-.3-.3-.5-1.1-.6l-3.2-.1-.1.1v5.2c0 1.4.4 1.6 2.5 1.6.6 0 1.6 0 2.1-.2.6-.2.8-.6 1-1.4 0-.2.1-.3.2-.3l.1.3-.3 2c-.1.5-.4.5-1.2.5l-3.7-.1h-1.7-2.1c-.2 0-.3 0-.3-.2 0-.1 0-.2.2-.2l.6-.1c.4-.1.5-.5.6-1.1l.1-4.4v-3.3zM148.7 109.7v-4.4c0-.7-.2-1-.9-1.1h-.7a.2.2 0 01-.2-.2c0-.1.1-.2.3-.2h5.1c1.3 0 2.8.1 3.9.9.5.4 1.5 1.4 1.5 2.8 0 1.5-.6 3-2.6 4.6l4.4 5.3c1.1 1.1 1.8 1.3 2.3 1.4l.7.1.2.2c0 .1-.1.2-.5.2H161c-1.2 0-1.7-.1-2.3-.4-.9-.5-1.7-1.5-2.9-3l-2.3-3-.3-.1h-2.7l-.1.2v.5l.1 4.4c.1.6.2 1 .8 1.1l.9.1.2.2c0 .1-.1.2-.3.2l-2.6-.1-2.1.1c-.2 0-.3 0-.3-.2 0-.1 0-.2.2-.2l.6-.1c.4-.1.5-.5.6-1.1l.1-4.4v-3.8zm1.8 1.7l.1.3c.3.2 1.4.3 2.3.3.5 0 1.1 0 1.6-.4.7-.5 1.3-1.6 1.3-3.1 0-2.5-1.4-4-3.6-4l-1.5.1-.2.2v6.6zM166.5 113.9c0-1.1-.1-1.5-.5-2.1l-3.7-5.9c-.5-.8-1-1.2-1.4-1.5l-.9-.3-.2-.2.3-.1H164l.3.1-.3.2-.3.3c0 .3.1.5.3.8l3.8 6.4c.4-.9 3.1-5.2 3.5-5.9.3-.5.4-.8.4-1.1 0-.3-.1-.5-.3-.5-.2 0-.3-.1-.3-.2l.3-.1h3.6l.3.1c0 .1-.1.2-.3.2l-1 .3c-.4.2-.6.5-1.1 1-.7.8-3.7 5.6-4.1 6.5-.4.7-.3 1.4-.3 2v1.7l.1 2c0 .6.2 1 .8 1.1l1 .1.2.2c0 .1-.1.2-.3.2l-2.7-.1-2.1.1c-.2 0-.3 0-.3-.2 0-.1 0-.2.2-.2l.6-.1c.4-.1.6-.5.6-1.1v-3.7zM19.1 115.7c.1.7.2 1.9 1.1 2.2.6.2 1.2.2 1.4.2l.2.1-.4.2-3.7-.1c-.5 0-.6-.1-.6-.2l.1-.2.1-.7-1-10.7-5.3 10.7c-.4.9-.6 1.1-.8 1.1-.2 0-.3-.2-.7-1L7 112.4l-2.8-5.7H4l-.8 9.5v1.1c0 .3.2.5.5.6l.8.1.2.1c0 .1-.1.2-.4.2l-2-.1-1.8.1c-.2 0-.4 0-.4-.2l.2-.1.6-.1c.7-.1.7-.9.8-1.7l1.6-13.7.2-.4.4.3 6.6 13.1 6.3-13 .3-.3c.1 0 .3.2.3.6l1.7 12.9z"
    class="st0"
  />
  <g>
    <path
      d="M21.3 137.2v-5c0-.8-.2-1.2-1-1.3l-.8-.1-.2-.1c0-.1.1-.2.4-.2h8.4l1-.1.3-.1.1.2-.2 1.1-.1 1.5-.2.3c-.1 0-.2-.1-.2-.3l-.2-.9c-.1-.3-.7-.7-1.6-.7l-3.6-.1c-.1 0-.2.1-.2.3v6.4c0 .1 0 .2.2.2h4c.6 0 .9-.1 1.1-.4l.3-.2.1.2-.2 1.3-.1 1.6c0 .2 0 .4-.2.4a.2.2 0 01-.2-.2l-.1-.8c-.1-.3-.5-.7-1.2-.8l-3.5-.1c-.1 0-.2 0-.2.2v2l.1 5c.1.7.2 1.2.9 1.3l1 .1.2.1c0 .1-.1.2-.4.2l-2.9-.1-2.3.1c-.3 0-.4 0-.4-.2l.2-.1.7-.1c.5-.1.6-.6.7-1.3l.1-5v-4.3zM36.6 133.5c.3-.6.3-.8.5-.8s.3.3.5.7l4.9 12c.7 1.8 1.3 2 1.7 2.2l.8.1c.1 0 .3 0 .3.2s-.2.2-.5.2h-3.2l-.7-.1.1-.1c.1 0 .3-.2.2-.5l-1.8-4.5-.2-.1h-4.7c-.1 0-.2 0-.2.2l-1.2 3.2a4 4 0 00-.3 1.3c0 .4.3.5.7.5h.2c.2 0 .2.1.2.2s-.1.2-.3.2l-1.8-.1-2.1.1c-.3 0-.4 0-.4-.2l.2-.2h.6c.9-.1 1.3-.8 1.7-1.8l4.8-12.7zm2.3 8.2l.1-.1-2-5.4c-.1-.3-.2-.3-.3 0l-1.9 5.4.1.1h4zM63.6 145.5c.1.7.2 1.8 1 2a4 4 0 001.3.2l.2.1-.4.2-3.5-.1c-.5 0-.6-.1-.6-.2l.1-.2.1-.7-1-10-4.9 10.1c-.4.9-.5 1-.7 1-.2 0-.3-.2-.7-.9l-2.4-4.6-2.6-5.4h-.1l-.8 8.9v1c0 .3.2.5.5.6l.8.1.2.1c0 .1-.1.2-.4.2l-1.9-.1-1.7.1c-.2 0-.3 0-.3-.2l.2-.1.6-.1c.7-.1.7-.8.8-1.6l1.5-12.9c0-.2.1-.3.2-.3l.4.3 6.2 12.2 5.9-12.2.3-.3c.1 0 .3.2.3.5l1.4 12.3zM71.3 142.3l.1 4.3c.1.6.1 1 .7 1l.9.1.2.2c0 .1-.1.2-.3.2l-2.6-.1-2 .1c-.2 0-.3 0-.3-.2 0-.1 0-.2.2-.2l.6-.1c.4-.1.5-.5.5-1l.1-4.3v-3.5-4.2c0-.7-.2-1-.6-1.1l-.6-.1a.2.2 0 01-.2-.2c0-.1.1-.2.3-.2h4.1c.2 0 .3 0 .3.2l-.2.2H72c-.6.1-.7.4-.7 1.1V142.3zM79.7 142.3c0 2.9 0 4.1.4 4.4.3.3 1.1.5 2.7.5 1.1 0 2 0 2.5-.6.3-.3.4-.7.5-1.1l.2-.3.1.3c0 .2-.1 1.4-.3 2-.1.5-.2.5-1.3.5l-3.5-.1h-4.2c-.2 0-.3 0-.3-.2 0-.1 0-.2.2-.2l.6-.1c.4-.1.4-.5.5-1l.1-4.3v-3.5-4.2c0-.7-.2-1-.8-1.1h-.7a.2.2 0 01-.2-.2c0-.1.1-.2.3-.2H81c.2 0 .3 0 .3.2l-.2.1h-.7c-.6.1-.7.4-.8 1.1v8zM91.5 142.9c0-1.1-.1-1.5-.4-2l-3.6-5.7a6 6 0 00-1.3-1.4l-.9-.3-.2-.2.3-.1h3.8l.3.1-.3.2-.3.3c0 .3.1.5.3.8l3.7 6.1 3.3-5.7c.3-.4.3-.8.3-1 0-.3-.1-.4-.3-.5-.2 0-.3-.1-.3-.2l.3-.1h3.4l.3.1c0 .1-.1.2-.3.2l-1 .3a83.5 83.5 0 00-5 7.3c-.3.7-.3 1.3-.3 2v1.7l.1 2c0 .6.2 1 .8 1l.9.1.2.2c0 .1-.1.2-.3.2l-2.6-.1-2 .1c-.2 0-.3 0-.3-.2 0-.1 0-.2.2-.2l.6-.1c.4-.1.6-.5.6-1v-3.9zM112.1 141.3c0 3.4.1 4.9.5 5.3.4.4 1 .5 2.8.5 1.2 0 2.2 0 2.8-.7.3-.4.5-1 .6-1.4 0-.2.1-.3.2-.3l.1.3-.3 2.3c-.2.5-.2.6-1.5.6l-3.9-.1-2.4-.1h-2.3c-.3 0-.4 0-.4-.2l.2-.1.7-.1c.5-.1.6-.6.7-1.3l.1-5v-4.1-5c0-.8-.2-1.2-1-1.3l-.8-.1-.2-.1c0-.1.1-.2.4-.2l2.6.1 2.5-.1c.3 0 .4 0 .4.2l-.2.1-.8.1c-.7.1-.9.5-.9 1.3v9.4zM126.5 133.5c.3-.6.3-.8.5-.8s.3.3.5.7l4.9 12c.7 1.8 1.3 2 1.7 2.2l.8.1c.1 0 .3 0 .3.2s-.2.2-.5.2h-3.2l-.7-.1.1-.1c.1 0 .3-.2.2-.5l-1.8-4.5-.2-.1h-4.7c-.1 0-.2 0-.2.2l-1.2 3.2a4 4 0 00-.3 1.3c0 .4.3.5.7.5h.2c.2 0 .2.1.2.2s-.1.2-.3.2l-1.8-.1-2.1.1c-.3 0-.4 0-.4-.2l.2-.2h.6c.9-.1 1.3-.8 1.7-1.8l4.8-12.7zm2.3 8.2l.1-.1-2-5.4c-.1-.3-.2-.3-.3 0l-1.9 5.4.1.1h4zM149.4 145.1l3.2-9.9.2-1.2c0-.3-.2-.6-1.1-.6a.2.2 0 01-.2-.2l.3-.1h3.7l.3.1c0 .1 0 .2-.2.2a2 2 0 00-.7.1c-.6.2-.9 1-1.3 2.1l-3.7 11c-.5 1.5-.6 1.7-.9 1.7-.2 0-.4-.3-.7-1l-4-10.8-4.2 10.8c-.3.8-.5 1-.7 1-.2 0-.4-.2-.8-1.6L135 135c-.3-1-.5-1.3-1.1-1.5l-.9-.1a.2.2 0 01-.2-.2l.3-.1h4.5l.4.1-.2.2-.7.1c-.1 0-.3.2-.3.4l.4 1.8a224 224 0 002.7 9.3l4.3-11c.3-.8.4-.9.6-.9l.6.9 4 11.1z"
      class="st0"
    />
  </g>
  <path fill="none" stroke="#000" d="M2.3 124.8h167.6" />
  <g>
    <path
      fill="#757575"
      stroke="#757575"
      stroke-width=".3"
      d="M131.6 6.8s0-3.1.4-3.1c.3 0 .4 2.3.4 2.3v69.8l-.3 1.4c-.2.2-.4-1.7-.4-1.7V6.8z"
    />
    <path d="M42.1 7.8h14.1v74.5H42.1z" class="st3" />
    <path d="M42.1 0h14.1v7.9H42.1z" class="st3" />
    <path
      d="M42.5 7.8s-3-7-5.9-7h6.2l.2 6.9-.5.1zM55.7 7.8s3-7 5.9-7h-6.2l-.1 6.9.4.1zM55.5 82.4s3 7 5.9 7h-6.2l-.2-6.9.5-.1zM42.6 82.4s-3 7-5.9 7h6.2l.1-6.9-.4-.1z"
      class="st4"
    />
    <path d="M42.1 82.1h14.1v8.1H42.1z" class="st3" />
    <path
      d="M52.7 11.1s.1-1.8.3-1.8c.3 0 .3 1.6.3 1.6v68.4s-.1 2.3-.3 2.3c-.3 0-.3-2.4-.3-2.4V11.1zM44.4 11.1s.1-1.8.3-1.8c.3 0 .3 1.6.3 1.6v68.4s-.1 2.3-.3 2.3c-.3 0-.3-2.4-.3-2.4V11.1zM48.6 11.1s.1-1.8.3-1.8c.3 0 .3 1.6.3 1.6v68.4s-.1 2.3-.3 2.3c-.3 0-.3-2.4-.3-2.4V11.1z"
      class="st5"
    />
    <path d="M119 7.8h14.1v74.5H119z" class="st3" />
    <path d="M119 0h14.1v7.9H119z" class="st3" />
    <path
      d="M119.5 7.8s-3-7-5.9-7h6.2l.1 6.9-.4.1zM132.6 7.8s3-7 5.9-7h-6.2l-.1 6.9.4.1zM132.5 82.4s3 7 5.9 7h-6.2l-.1-6.9.4-.1zM119.6 82.4s-3 7-5.9 7h6.2l.1-6.9-.4-.1z"
      class="st4"
    />
    <path d="M119.1 82.1h14.1v8.1h-14.1z" class="st3" />
    <path
      d="M129.7 11.1s.1-1.8.3-1.8c.3 0 .3 1.6.3 1.6v68.4s-.1 2.3-.3 2.3c-.3 0-.3-2.4-.3-2.4V11.1zM121.4 11.1s.1-1.8.3-1.8c.3 0 .3 1.6.3 1.6v68.4s-.1 2.3-.3 2.3c-.3 0-.3-2.4-.3-2.4V11.1zM125.5 11.1s.1-1.8.3-1.8c.3 0 .3 1.6.3 1.6v68.4s-.1 2.3-.3 2.3c-.3 0-.3-2.4-.3-2.4V11.1z"
      class="st5"
    />
    <path
      fill="#231f20"
      stroke="#231f20"
      d="M55.9 11.4l31.5 40.2 31.9-40.2v14.5L87.4 66.5 55.6 26z"
    />
  </g>
</svg>
