<svg xmlns="http://www.w3.org/2000/svg" viewBox="0 0 75 75">
  <style>
    .st1 {
      fill: #fff;
    }
    .st2 {
      fill: #66b245;
      stroke: #fff;
      stroke-miterlimit: 10;
    }
    .st3 {
      fill: #101010;
    }
  </style>
  <title>
    neo4j
  </title>
  <path id="canvas_background" fill="none" d="M-1-1h77v77H-1z" />
  <g>
    <title>
      Layer 1
    </title>
    <g id="Neo4j_2_">
      <g id="svg_1">
        <path
          id="svg_2"
          fill="#008cc1"
          d="M22.1 36.3a11 11 0 11-11-11.1c6.1 0 11 5 11 11.1"
        />
        <path
          id="svg_3"
          d="M4.9 32.6c0 .5-.4.9-.9.9s-.9-.4-.9-.9.4-.9.9-.9c.5.1.9.5.9.9"
          class="st1"
        />
        <path
          id="svg_4"
          d="M5.1 35.1c0 .5-.4.9-.9.9a.9.9 0 01-.9-.9c0-.5.4-.9.9-.9s.9.4.9.9"
          class="st1"
        />
        <path
          id="svg_5"
          d="M5.6 37.6c0 .5-.4.9-.9.9s-.9-.4-.9-.9.4-.9.9-.9c.5.1.9.5.9.9"
          class="st1"
        />
        <path
          id="svg_6"
          d="M6.8 39.9c0 .5-.4.9-.9.9s-.9-.4-.9-.9.4-.9.9-.9c.5.1.9.5.9.9"
          class="st1"
        />
        <path
          id="svg_7"
          d="M16.3 43.2c0 .5-.4.9-.9.9s-.9-.4-.9-.9.4-.9.9-.9.9.4.9.9"
          class="st1"
        />
        <path
          id="svg_8"
          d="M17.9 41.3c0 .5-.4.9-.9.9s-.9-.4-.9-.9.4-.9.9-.9.9.4.9.9"
          class="st1"
        />
        <path
          id="svg_9"
          d="M13.2 27.8c0 .5-.4.9-.9.9s-.9-.4-.9-.9.4-.9.9-.9.9.4.9.9"
          class="st1"
        />
        <path
          id="svg_10"
          d="M10.9 27c0 .5-.4.9-.9.9s-.9-.4-.9-.9.4-.9.9-.9.9.4.9.9"
          class="st1"
        />
        <circle id="svg_11" cx="17.2" cy="33.6" r="5.9" class="st2" />
        <circle id="svg_12" cx="9.1" cy="45.7" r="4.8" class="st2" />
        <circle id="svg_13" cx="5.1" cy="27.7" r="3.2" class="st2" />
      </g>
      <g id="svg_14">
        <path
          id="svg_15"
          d="M25.8 29.8h1.1v2.1c.5-1.3 1.6-2.2 3.8-2.2 2.5 0 4.2 1.7 4.2 4.3v6.7h-1.1v-6.4c0-2.2-1.3-3.5-3.3-3.5-2.2 0-3.5 1.7-3.5 4.2v5.8h-1.1v-11h-.1z"
          class="st3"
        />
        <path
          id="svg_16"
          d="M36.7 35.2c0-3.4 2.3-5.7 5.3-5.7 2.9 0 5 2.4 5 5.4v.5h-9.2c.1 2.6 1.8 4.4 4.3 4.4a5 5 0 004-1.7v1.3c-1 .9-2.2 1.4-4 1.4-3.2.1-5.4-2.2-5.4-5.6zm9.1-.7c0-2.2-1.7-3.9-3.9-3.9a4.2 4.2 0 00-4.2 3.9h8.1z"
          class="st3"
        />
        <path
          id="svg_17"
          d="M54.3 29.5c3.2 0 5.7 2.4 5.7 5.7s-2.5 5.7-5.7 5.7-5.7-2.4-5.7-5.7c0-3.3 2.5-5.7 5.7-5.7zm0 10.4c2.6 0 4.6-2 4.6-4.7s-2-4.7-4.6-4.7c-2.6 0-4.6 2-4.6 4.7s2 4.7 4.6 4.7z"
          class="st3"
        />
        <path
          id="svg_18"
          d="M65.6 29.8h1.2l-4.6 9.8h6.7V36H70v8.7h-1.1v-4.1h-8.4l5.1-10.8z"
          class="st3"
        />
        <path
          id="svg_19"
          d="M73.7 29.8h1.1v12.3c0 2.4-1.4 2.9-2.7 2.9l-.7-.1v-1l.8.1c1.1 0 1.6-.5 1.6-1.9V29.8h-.1zm-.2-2.9c0-.4.4-.8.8-.8s.8.3.8.8c0 .4-.4.7-.8.7-.5 0-.8-.3-.8-.7z"
          class="st3"
        />
      </g>
    </g>
  </g>
</svg>
