<svg viewBox="0 0 75 75" xmlns="http://www.w3.org/2000/svg">
  <title>NodeJS</title>
  <g>
    <g id="svg_1">
      <path
        id="svg_2"
        d="m37.1,60.4375c-0.3,0 -0.5,-0.1 -0.7,-0.2l-2.3,-1.3c-0.3,-0.2 -0.2,-0.3 -0.1,-0.3c0.5,-0.2 0.5,-0.2 1,-0.5c0.1,0 0.1,0 0.2,0l1.7,1c0.1,0 0.2,0 0.2,0l6.8,-3.9c0.1,0 0.1,-0.1 0.1,-0.2l0,-7.8c0,-0.1 0,-0.2 -0.1,-0.2l-6.8,-3.9c-0.1,0 -0.2,0 -0.2,0l-6.8,3.9c-0.1,0 -0.1,0.1 -0.1,0.2l0,7.8c0,0.1 0,0.2 0.1,0.2l1.8,1.1c1,0.5 1.6,-0.1 1.6,-0.7l0,-7.7c0,-0.1 0.1,-0.2 0.2,-0.2l0.9,0c0.1,0 0.2,0.1 0.2,0.2l0,7.7c0,1.3 -0.7,2.1 -2,2.1c-0.4,0 -0.7,0 -1.6,-0.4l-1.8,-1c-0.4,-0.3 -0.7,-0.7 -0.7,-1.2l0,-7.8c0,-0.5 0.3,-1 0.7,-1.2l6.8,-3.9c0.4,-0.2 1,-0.2 1.4,0l6.8,3.9c0.4,0.3 0.7,0.7 0.7,1.2l0,7.8c0,0.5 -0.3,1 -0.7,1.2l-6.8,3.9c0,0.2 -0.3,0.2 -0.5,0.2l0,0zm2.1,-5.3c-3,0 -3.6,-1.4 -3.6,-2.5c0,-0.1 0.1,-0.2 0.2,-0.2l0.9,0c0.1,0 0.2,0.1 0.2,0.2c0.1,0.9 0.5,1.3 2.3,1.3c1.4,0 2,-0.3 2,-1.1c0,-0.4 -0.2,-0.8 -2.4,-1c-1.8,-0.2 -3,-0.6 -3,-2.1c0,-1.4 1.2,-2.2 3.1,-2.2c2.2,0 3.2,0.7 3.4,2.4c0,0.1 0,0.1 -0.1,0.2c0,0 -0.1,0.1 -0.1,0.1l-0.9,0c-0.1,0 -0.2,-0.1 -0.2,-0.2c-0.2,-0.9 -0.7,-1.2 -2.1,-1.2c-1.6,0 -1.7,0.5 -1.7,0.9c0,0.5 0.2,0.6 2.3,0.9c2.1,0.3 3.1,0.7 3.1,2.1c0,1.5 -1.3,2.4 -3.4,2.4z"
        fill="#539E43"
      />
      <path
        id="svg_3"
        d="m16.1,29.9375c0,-0.3 -0.2,-0.6 -0.4,-0.7l-7.2,-4.1c-0.1,-0.1 -0.3,-0.1 -0.4,-0.1l-0.1,0c-0.1,0 -0.3,0.1 -0.4,0.1l-7.2,4.1c-0.2,0.1 -0.4,0.4 -0.4,0.7l0,11.1c0,0.2 0.1,0.3 0.2,0.4c0.1,0.1 0.3,0.1 0.4,0l4.3,-2.4c0.3,-0.2 0.4,-0.4 0.4,-0.7l0,-5.2c0,-0.3 0.2,-0.6 0.4,-0.7l1.8,-1.1c0.1,-0.1 0.3,-0.1 0.4,-0.1c0.2,0 0.3,0 0.4,0.1l1.8,1.1c0.3,0.2 0.4,0.4 0.4,0.7l0,5.2c0,0.3 0.2,0.6 0.4,0.7l4.3,2.4c0.1,0.1 0.3,0.1 0.4,0c0.1,-0.1 0.2,-0.2 0.2,-0.4l0.3,-11.1l0,0zm34.6,-15.3c-0.1,-0.1 -0.3,-0.1 -0.4,0c-0.2,0 -0.3,0.2 -0.3,0.3l0,11c0,0.1 -0.1,0.2 -0.2,0.3c-0.1,0.1 -0.2,0.1 -0.3,0l-1.8,-1c-0.3,-0.2 -0.6,-0.2 -0.9,0l-7.2,4.2c-0.3,0.2 -0.4,0.4 -0.4,0.7l0,8.3c0,0.3 0.2,0.6 0.4,0.7l7.2,4.2c0.3,0.2 0.6,0.2 0.9,0l7.2,-4.2c0.3,-0.2 0.4,-0.4 0.4,-0.7l0,-20.7c0,-0.3 -0.2,-0.6 -0.4,-0.8l-4.2,-2.3l0,0zm-0.7,21c0,0.1 0,0.2 -0.1,0.2l-2.5,1.4c-0.1,0 -0.2,0 -0.2,0l-2.5,-1.4c-0.1,0 -0.1,-0.1 -0.1,-0.2l0,-2.8c0,-0.1 0,-0.2 0.1,-0.2l2.5,-1.4c0.1,0 0.2,0 0.2,0l2.5,1.4c0.1,0 0.1,0.1 0.1,0.2l0,2.8l0,0zm24.6,-2.9c0.3,-0.2 0.4,-0.4 0.4,-0.7l0,-2c0,-0.3 -0.2,-0.6 -0.4,-0.7l-7.1,-4.1c-0.3,-0.2 -0.6,-0.2 -0.9,0l-7.2,4.2c-0.3,0.2 -0.4,0.4 -0.4,0.7l0,8.3c0,0.3 0.2,0.6 0.4,0.7l7.1,4.1c0.3,0.2 0.6,0.2 0.8,0l4.3,-2.4c0.1,-0.1 0.2,-0.2 0.2,-0.4s-0.1,-0.3 -0.2,-0.4l-7.2,-4.2c-0.1,-0.1 -0.2,-0.2 -0.2,-0.4l0,-2.6c0,-0.2 0.1,-0.3 0.2,-0.4l2.3,-1.3c0.1,-0.1 0.3,-0.1 0.4,0l2.3,1.3c0.1,0.1 0.2,0.2 0.2,0.4l0,2c0,0.2 0.1,0.3 0.2,0.4c0.1,0.1 0.3,0.1 0.4,0l4.4,-2.5l0,0z"
        fill="#333333"
      />
      <path
        id="svg_4"
        d="m66.9,32.3375c0.1,0 0.1,0 0.2,0l1.4,0.8c0.1,0 0.1,0.1 0.1,0.2l0,1.6c0,0.1 0,0.1 -0.1,0.2l-1.4,0.8c-0.1,0 -0.1,0 -0.2,0l-1.4,-0.8c-0.1,0 -0.1,-0.1 -0.1,-0.2l0,-1.6c0,-0.1 0,-0.1 0.1,-0.2l1.4,-0.8z"
        fill="#539E43"
      />
      <path
        id="svg_5"
        d="m27.1,25.4375c0.3,-0.2 0.6,-0.2 0.9,0l7.1,4.1c0.3,0.2 0.4,0.4 0.4,0.8l0,8.3c0,0.4 -0.2,0.6 -0.4,0.8l-7.2,4.1c-0.3,0.2 -0.6,0.2 -0.9,0l-7.1,-4.1c-0.3,-0.2 -0.4,-0.4 -0.4,-0.8l0,-8.3c0,-0.4 0.2,-0.6 0.4,-0.8l7.2,-4.1z"
        fill="#539E43"
      />
    </g>
  </g>
</svg>
