<svg xmlns="http://www.w3.org/2000/svg" viewBox="0 0 175 33.9">
  <style>
    .st1 {
      fill: #282561;
    }
  </style>
  <path
    fill="#282561"
    fill-rule="evenodd"
    d="M12.2 15.5L1.1 1.1 15 12.2 16.7 0l1.6 12.2L32.7 1.1 21.6 15l12.8 1.7-12.8 2.2 11.7 14.4-14.4-11.7-1.7 12.3L15 21.6 1.7 32.7l11.1-13.8L0 17.2z"
    clip-rule="evenodd"
  />
  <path
    d="M27.9 23.4v-1.1c1.1 0 1.7-.1 1.9-.2l.3-.3c.1-.2.2-.9.2-2.2l.1-4.7V9.4l-.1-2.5-.2-.3a8 8 0 00-2-.3V5.2l3 .1 2.5-.1c2 2.6 4.3 5.3 6.8 8.3l4.3 5v-5.2l-.1-5.1-.2-1.6c-.1-.1-.1-.2-.3-.2l-1.8-.2v-1l2.8.1 3.5-.1v1.1l-1.7.2-.3.2-.2.3-.1 2v10.4l.1 4.2-.4.2-2.2-.4a1475.3 1475.3 0 01-12-14.1v5.1l.1 5c0 1.4.1 2.3.2 2.5l.2.2 1.9.3v1.1l-3-.1h-3.3zM58.9 23.6c-2.2 0-4-.6-5.1-1.7S52 19.2 52 17.2c0-1.4.3-2.6.9-3.6.6-1 1.4-1.7 2.4-2.3 1-.5 2.3-.8 3.9-.8 1.5 0 2.8.3 3.8.8s1.7 1.2 2.3 2.1c.5.9.8 2 .8 3.3 0 1.4-.3 2.6-.9 3.7s-1.4 1.8-2.5 2.4c-1.1.5-2.4.8-3.8.8zm.3-1c1.2 0 2.2-.5 2.9-1.4.7-.9 1.1-2.3 1.1-4.1a7 7 0 00-1.2-4.4c-.7-.8-1.7-1.2-3.1-1.2-1.3 0-2.3.4-3 1.3-.7.9-1.1 2.2-1.1 4 0 1.3.2 2.4.6 3.3.4.9.9 1.6 1.5 2 .5.3 1.3.5 2.3.5zM68.8 23.4v-.8l1.2-.2.1-.2.1-1.5v-3.1-3.8c0-1.2-.1-1.9-.2-2.1l-.1-.2-1.2-.2v-.8l2.4.1 4.6-.1c1 0 1.7.1 2.2.3a2.4 2.4 0 011.5 2.4c0 .7-.2 1.4-.6 1.9s-1.2 1-2.2 1.5l1.9 2.9 1.5 2.2.6.7.7.1v.7h-.5l-3 .1-2.4-3.7-1.9-2.9.1-.3h.5c.6 0 1.1-.2 1.7-.7.5-.5.8-1.1.8-2 0-.7-.2-1.3-.6-1.7-.4-.4-1.1-.6-1.9-.6l-1.1.1v2.9l-.1 3.4.1 3 .1 1.5.2.2 1.2.2v.8l-2.9-.1h-2.8zM86.1 23.4v-.8l1.1-.1.4-.2.2-.4.1-2.9v-3.6-3.7l-.6-.1-2.2.1-.6.1-.1.2-.2 1.6h-.8l-.1-3 .1-.1 5.6.1 6.1-.1.1.1-.2 2.9h-.8l-.2-1.7-.3-.1-2.9-.1-.2.1v.5l-.1 6.1v3.3c0 .4.1.6.2.7l1.4.2v.8l-2.8-.1-3.2.2zM97.5 23.4v-.8c.8 0 1.3-.1 1.4-.2l.2-.4.1-2.5v-5l-.1-2.8-.2-.2-1.4-.2v-.8l2.9.1 3.1-.1v.8c-.7 0-1.2.1-1.3.2l-.2.2-.1 1.1v3.5h5.7l-.1-3.9-.2-.6c-.1-.1-.6-.2-1.4-.2v-.8l3.1.1 2.9-.1v.8c-.8 0-1.2.1-1.4.2l-.2.2-.1 1.5-.1 3.2.1 4.1.1 1.6.2.3 1.4.2v.8h-2.8l-3.2.1V23c.8 0 1.3-.1 1.4-.2.1-.1.2-.3.2-.7l.1-4.4H101.9v.6a34.4 34.4 0 00.3 4.5c.1.1.6.2 1.4.2v.8H100.7l-3.2-.4zM115.6 17.9h1.1l.1 2.3a3.6 3.6 0 002.4 1.8l2.1.3c1.2 0 2.2-.3 2.9-1 .7-.7 1.1-1.5 1.1-2.4 0-.9-.2-1.6-.7-2.1-.5-.5-1.4-.8-2.8-1a14 14 0 01-4.1-1c-.7-.3-1.3-.9-1.7-1.6-.4-.7-.6-1.5-.6-2.5 0-1.6.6-3 1.7-4.1 1.1-1.1 3-1.7 5.5-1.7l2.6.2c.8.1 1.5.4 2.3.7l.1.3-.3 1.5-.1 2.3h-1.1c0-1.3-.1-2.1-.2-2.2-.2-.3-.6-.6-1.3-.9-.7-.3-1.4-.5-2.3-.5-1.2 0-2.1.3-2.8.9-.7.6-1 1.3-1 2.2 0 .6.1 1 .4 1.4.3.4.6.7 1.1.9l3.1.7 2.9.6c.8.3 1.5.9 1.9 1.5.4.7.7 1.6.7 2.6 0 1.8-.7 3.4-2.1 4.6s-3.3 1.8-5.8 1.8c-1.1 0-2.1-.1-3-.3-.9-.2-1.8-.6-2.7-1l.3-1.7c.3-.5.3-1.4.3-2.6zM135.2 23.4v-.8l1.1-.1.4-.2.2-.4.1-2.9v-3.6-3.7l-.6-.1-2.2.1-.6.1-.1.2-.2 1.6h-.8l-.1-3 .1-.1 5.6.1 6.1-.1.1.1-.2 2.9h-.8l-.2-1.7-.3-.1-2.9-.1-.2.1v.5l-.1 6.1v3.3c0 .4.1.6.2.7l1.4.2v.8l-2.8-.1-3.2.2zM146.4 22.6c.6 0 .9-.1 1.1-.2l.4-.7 1.4-3.3 3.2-7.9h1.3l4.1 9.8 1 2c.1.1.5.2 1.2.2v.8l-2.8-.1-3 .1v-.8l1.3-.1c.1-.1.2-.1.2-.3l-.4-1.2-.6-1.5h-4.7l-.4 1-.4 1.2-.1.3.2.3 1.3.2v.8l-2.2-.1-2 .1v-.6zm6-8.9l-1.9 4.7h3.8l-1.9-4.7zM162.4 23.4v-.8l1.2-.2.1-.2.1-1.5v-3.1-3.8c0-1.2-.1-1.9-.2-2.1l-.1-.2-1.2-.2v-.8l2.4.1 4.6-.1c1 0 1.7.1 2.2.3a2.4 2.4 0 011.5 2.4 3 3 0 01-.6 1.9 7 7 0 01-2.2 1.5l1.9 2.9 1.5 2.2.6.7.7.1v.7h-.5l-3 .1-2.4-3.7-1.9-2.9.1-.3h.5c.6 0 1.1-.2 1.7-.7.5-.5.8-1.1.8-2 0-.7-.2-1.3-.6-1.7-.4-.4-1.1-.6-1.9-.6l-1.1.1-.1 2.7-.1 3.4.1 3 .1 1.5.2.2 1.2.2v.8l-2.9-.1-2.7.2z"
    class="st1"
  />
</svg>
