<svg
  xmlns="http://www.w3.org/2000/svg"
  xmlns:xlink="http://www.w3.org/1999/xlink"
  viewBox="0 0 175 77.7"
>
  <style></style>
  <defs>
    <path
      id="SVGID_1_"
      d="M25.6 26.3v1c3.8.3 5.3.7 5.3 6.8V52h-.1L9.5 26.3H0v1c2.2 0 3.1.3 5.4 2.9v23.5c0 5.8-1.2 6.6-5.4 6.8v1h13.1v-1c-4.1-.2-5.2-1.3-5.2-6.8V33H8l24.5 29.3h.9V34.2c0-6.2 1.8-6.5 5.3-6.8v-1H25.6z"
    />
  </defs>
  <clipPath id="SVGID_2_">
    <use overflow="visible" xlink:href="#SVGID_1_" />
  </clipPath>
  <linearGradient
    id="SVGID_3_"
    x1="-793.1"
    x2="-791.5"
    y1="960.1"
    y2="960.1"
    gradientTransform="matrix(0 22.2846 22.2846 0 -21375 17700.6)"
    gradientUnits="userSpaceOnUse"
  >
    <stop offset="0" stop-color="#00a4e4" />
    <stop offset=".3" stop-color="#009adc" />
    <stop offset=".9" stop-color="#007fc6" />
    <stop offset="1" stop-color="#0079c1" />
  </linearGradient>
  <path
    fill="url(#SVGID_3_)"
    d="M0 26.3h38.7v35.9H0z"
    clip-path="url(#SVGID_2_)"
  />
  <defs>
    <path
      id="SVGID_4_"
      d="M122.5 33.3L129 48h-13l6.5-14.7zm.8-7.6l-11.6 26.2c-1.1 2.3-2.8 6.2-4.1 7.6-1 1-2 1.1-2.8 1.2v1h11v-1c-1.2 0-3.8 0-3.8-2.2 0-.6.2-1.3.4-2l2.6-6.2h14.6l2.3 5.1c.3.7 1.1 2.5 1.1 3.4 0 2-1.8 2-3.9 2v1h14.2v-1c-2.5-.2-3.2-.7-5-4.6l-13.9-30.3h-1.1z"
    />
  </defs>
  <clipPath id="SVGID_5_">
    <use overflow="visible" xlink:href="#SVGID_4_" />
  </clipPath>
  <linearGradient
    id="SVGID_6_"
    x1="-793.1"
    x2="-791.5"
    y1="961.9"
    y2="961.9"
    gradientTransform="matrix(0 22.3178 22.3178 0 -21343.4 17725.3)"
    gradientUnits="userSpaceOnUse"
  >
    <stop offset="0" stop-color="#00a4e4" />
    <stop offset=".3" stop-color="#009adc" />
    <stop offset=".9" stop-color="#007fc6" />
    <stop offset="1" stop-color="#0079c1" />
  </linearGradient>
  <path
    fill="url(#SVGID_6_)"
    d="M104.8 25.7h38.5v36h-38.5z"
    clip-path="url(#SVGID_5_)"
  />
  <defs>
    <path
      id="SVGID_7_"
      d="M73.7 26l-.5 8.4h1.2c.3-3.3 2.1-6.6 7.7-6.6H89v27.1c0 4.5 0 5.9-6.4 5.9v1h19.3v-1c-6.4 0-6.4-1.3-6.4-5.9V27.8h6.8c5.7 0 7.4 3.3 7.7 6.6h1.2l-.5-8.4h-37z"
    />
  </defs>
  <clipPath id="SVGID_8_">
    <use overflow="visible" xlink:href="#SVGID_7_" />
  </clipPath>
  <linearGradient
    id="SVGID_9_"
    x1="-793.3"
    x2="-791.7"
    y1="961.1"
    y2="961.1"
    gradientTransform="matrix(0 22.1612 22.1612 0 -21206.4 17607.2)"
    gradientUnits="userSpaceOnUse"
  >
    <stop offset="0" stop-color="#00a4e4" />
    <stop offset=".3" stop-color="#009adc" />
    <stop offset=".9" stop-color="#007fc6" />
    <stop offset="1" stop-color="#0079c1" />
  </linearGradient>
  <path
    fill="url(#SVGID_9_)"
    d="M73.3 26h37.9v35.7H73.3z"
    clip-path="url(#SVGID_8_)"
  />
  <g>
    <defs>
      <path
        id="SVGID_10_"
        d="M69.2 25.4c-.4 1.8-2.3 1.8-2.6 1.8-1.2 0-4.8-1.8-9.8-1.8-9.6 0-19 6.5-19 18.4 0 13.3 9.6 18.4 18.6 18.4 4.7 0 8-1.3 10.3-2.8l.8-.5c2.4-.8 2.2 2 2.2 2h1V49.5H70c-1.1 6.3-3.9 8.4-5.2 9-1.9.8-4.1 1.4-6.8 1.4-7 0-13.7-4.6-13.7-16 0-7.7 2.5-11.1 4.6-13.1 2.3-2.2 5.6-3.3 8.4-3.3 6.9 0 10.9 4.3 12.3 9.9h1.3l-.5-12h-1.2z"
      />
    </defs>
    <clipPath id="SVGID_11_">
      <use overflow="visible" xlink:href="#SVGID_10_" />
    </clipPath>
    <linearGradient
      id="SVGID_12_"
      x1="-792.2"
      x2="-790.6"
      y1="961.6"
      y2="961.6"
      gradientTransform="matrix(0 22.8478 22.8478 0 -21917 18125.3)"
      gradientUnits="userSpaceOnUse"
    >
      <stop offset="0" stop-color="#00a4e4" />
      <stop offset=".3" stop-color="#009adc" />
      <stop offset=".9" stop-color="#007fc6" />
      <stop offset="1" stop-color="#0079c1" />
    </linearGradient>
    <path
      fill="url(#SVGID_12_)"
      d="M37.9 25.4h33v36.8h-33z"
      clip-path="url(#SVGID_11_)"
    />
  </g>
  <path
    d="M139.2 37.1l13.5-.2 4.4-11.9 3.9 11.9h14l-11.1 6.5 4.4 12.7-11.2-8.3-11.3 8.6 4.5-13.2zM123.4 12.6l8-.1 2.7-7.2 2.4 7.2h8.3l-6.6 3.9 2.6 7.6-6.7-5-6.8 5.2 2.7-7.9zM106.8 0l-2.2 5.8-6.5.1 5.4 3-2.2 6.4 5.5-4.2 5.5 4.1-2.2-6.2 5.5-3.2h-6.9zM77.7 8.1h4.4l1.5-4 1.3 4h4.6l-3.6 2.1 1.4 4.2-3.7-2.7-3.7 2.8 1.5-4.3zM61 14.4l3.4-.1 1.1-3 1 3H70l-2.8 1.6 1.1 3.3-2.8-2.1-2.8 2.1 1.1-3.3z"
  />
  <g>
    <path
      d="M1.5 75.8v-6.9h.9l3.7 5.4v-5.4H7v6.9H6l-3.6-5.4v5.4zM8.1 73.3c0-.9.3-1.6.8-2.1.4-.4 1-.6 1.6-.6.7 0 1.3.2 1.7.7.4.5.7 1.1.7 1.9a3 3 0 01-.3 1.5c-.2.4-.5.7-.8.9l-1.2.3c-.7 0-1.3-.2-1.7-.7-.6-.4-.8-1-.8-1.9m.9 0c0 .6.1 1.1.4 1.4.3.3.6.5 1.1.5.4 0 .8-.2 1.1-.5.3-.3.4-.8.4-1.5 0-.6-.1-1.1-.4-1.4-.3-.3-.6-.5-1.1-.5-.4 0-.8.2-1.1.5-.3.4-.4.9-.4 1.5M13.8 75.8v-5h.8v.8l.5-.7.5-.2.9.3-.3.8-.6-.2-.5.2c-.1.1-.3.3-.3.5l-.1 1v2.6l-.9-.1zM18.9 75l.1.8-.6.1-.7-.1a.8.8 0 01-.4-.4l-.1-1v-2.9h-.6v-.7h.6v-1.2l.8-.6v1.8h.9v.7H18v3.4l.1.2.3.1.5-.2M19.7 75.8v-6.9h.9v2.5c.4-.5.9-.7 1.5-.7l1 .2c.3.1.5.3.6.6l.2 1.1v3.2H23v-3.2c0-.4-.1-.7-.3-.9-.2-.2-.4-.3-.8-.3l-.7.2-.5.5-.1.9v2.8h-.9zM32.8 73.3l.9.2c-.2.8-.5 1.3-1 1.7-.5.4-1.1.6-1.8.6s-1.4-.2-1.8-.5c-.5-.3-.8-.7-1.1-1.3-.2-.6-.4-1.2-.4-1.9s.1-1.4.4-1.9c.3-.5.7-.9 1.2-1.2s1.1-.4 1.7-.4c.7 0 1.3.2 1.8.5.5.4.8.8 1 1.5l-.9.2c-.2-.5-.4-.9-.7-1.1-.3-.2-.7-.3-1.2-.3s-1 .1-1.3.4c-.4.3-.6.6-.8 1l-.2 1.3c0 .6.1 1.1.3 1.5.2.4.4.8.8 1l1.2.3c.5 0 1-.1 1.3-.4.3-.1.5-.6.6-1.2M38.1 75.1l-.9.6-.9.2c-.6 0-1-.1-1.3-.4-.3-.3-.4-.6-.4-1l.2-.7.4-.5.6-.3.8-.1 1.5-.3v-.2l-.2-.7c-.2-.2-.5-.3-1-.3a2 2 0 00-.9.2c-.2.1-.3.4-.4.7l-.8-.1.4-.9.7-.5 1.1-.2c.4 0 .8 0 1 .2.3.1.5.2.6.4l.3.6V73.7a5 5 0 00.3 2.1h-.9c-.2-.2-.2-.4-.2-.7m-.1-1.9l-1.4.3-.7.2-.3.3-.1.4.3.6c.2.2.4.2.8.2l.9-.2c.3-.1.4-.3.6-.6l.1-.9-.2-.3zM40.2 75.8v-5h.8v.8l.5-.7.5-.2.9.3-.3.8-.6-.2-.5.2c-.1.1-.3.3-.3.5l-.1 1v2.6l-.9-.1zM43.1 73.2c0-.9.3-1.6.8-2.1.4-.4 1-.6 1.6-.6.7 0 1.3.2 1.7.7.4.5.7 1.1.7 1.9a3 3 0 01-.3 1.5c-.2.4-.5.7-.8.9l-1.2.3c-.7 0-1.3-.2-1.7-.7-.6-.4-.8-1-.8-1.9m.9 0c0 .6.1 1.1.4 1.4s.6.5 1.1.5c.4 0 .8-.2 1.1-.5.3-.3.4-.8.4-1.5 0-.6-.1-1.1-.4-1.4-.3-.3-.6-.5-1.1-.5-.4 0-.8.2-1.1.5-.3.4-.4.9-.4 1.5M48.8 68.8h.9v6.9h-.9zM50.9 68.8h.9v1h-.9v-1zm0 1.9h.9v5h-.9v-5zM53.1 75.7v-5h.8v.7c.4-.6.9-.8 1.6-.8l.8.2.6.4.3.6V75.7h-.9v-3.1l-.1-.8-.3-.4-.6-.2c-.4 0-.7.1-.9.3-.3.2-.4.7-.4 1.3v2.7l-.9.2zM61.8 75.1l-.9.6-.9.2c-.6 0-1-.1-1.3-.4-.3-.3-.4-.6-.4-1l.2-.7.4-.5.6-.3.8-.1 1.5-.3v-.2l-.2-.7c-.2-.2-.5-.3-1-.3a2 2 0 00-.9.2c-.2.1-.3.4-.4.7l-.8-.1.4-.9.7-.5 1.1-.2c.4 0 .8 0 1 .2.3.1.5.2.6.4l.3.6V73.7a5 5 0 00.3 2.1H62c-.2-.3-.2-.5-.2-.7m-.1-1.9l-1.4.3-.7.2-.3.3-.1.4.3.6c.2.2.4.2.8.2l.9-.2c.3-.1.4-.3.6-.6l.1-.9-.2-.3zM68.4 75.7v-6.1h-2.3v-.8h5.5v.8h-2.3l.1 6.1zM74.8 74.1l.9.1a2 2 0 01-.8 1.2c-.4.3-.9.4-1.4.4-.7 0-1.3-.2-1.7-.7-.4-.5-.6-1.1-.6-1.9 0-.8.2-1.5.6-2 .4-.5 1-.7 1.7-.7s1.2.2 1.6.7c.4.5.6 1.1.6 1.9v.2h-3.8c0 .6.2 1 .5 1.3.3.3.6.4 1.1.4l.8-.2c.2-.1.4-.4.5-.7M72 72.7h2.8c0-.4-.1-.7-.3-.9-.3-.3-.6-.5-1.1-.5-.4 0-.7.1-1 .4-.2.2-.3.6-.4 1M80.1 73.8l.8.1c-.1.6-.3 1-.7 1.4-.4.3-.8.5-1.4.5-.7 0-1.2-.2-1.7-.7-.4-.5-.6-1.1-.6-1.9 0-.5.1-1 .3-1.4.2-.4.5-.7.8-.9l1.2-.3c.5 0 1 .1 1.3.4.3.3.6.7.7 1.2H80l-.4-.8a1 1 0 00-.7-.3c-.4 0-.8.2-1 .5s-.4.8-.4 1.5.1 1.2.4 1.5c.3.3.6.5 1 .5.3 0 .6-.1.8-.3.2-.2.3-.5.4-1M81.6 75.7v-6.9h.9v2.5c.4-.5.9-.7 1.5-.7l1 .2c.3.1.5.3.6.6l.2 1.1v3.2h-.9v-3.2c0-.4-.1-.7-.3-.9-.2-.2-.4-.3-.8-.3l-.7.2-.5.5-.1.9v2.8h-.9zM87 75.7v-5h.8v.7c.4-.6.9-.8 1.6-.8l.8.2.6.4c.2.1.2.4.3.6V75.7h-.9v-3.1l-.1-.8-.3-.4-.6-.2c-.4 0-.7.1-.9.3-.3.2-.4.7-.4 1.3v2.7l-.9.2zM92.1 73.1c0-.9.3-1.6.8-2.1.4-.4 1-.6 1.6-.6.7 0 1.3.2 1.7.7.4.5.7 1.1.7 1.9a3 3 0 01-.3 1.5c-.2.4-.5.7-.8.9l-1.2.3c-.7 0-1.3-.2-1.7-.7-.6-.4-.8-1-.8-1.9m.9 0c0 .6.1 1.1.4 1.4.3.3.6.5 1.1.5.4 0 .8-.2 1.1-.5.3-.3.4-.8.4-1.5 0-.6-.1-1.1-.4-1.4-.3-.3-.6-.5-1.1-.5-.4 0-.8.2-1.1.5s-.4.9-.4 1.5M97.8 68.7h.9v6.9h-.9zM99.6 73.1c0-.9.3-1.6.8-2.1.4-.4 1-.6 1.6-.6.7 0 1.3.2 1.7.7s.7 1.1.7 1.9a3 3 0 01-.3 1.5c-.2.4-.5.7-.8.9l-1.2.3c-.7 0-1.3-.2-1.7-.7-.5-.4-.8-1-.8-1.9m.9 0c0 .6.1 1.1.4 1.4.3.3.6.5 1.1.5.4 0 .8-.2 1.1-.5.3-.3.4-.8.4-1.5 0-.6-.1-1.1-.4-1.4-.3-.3-.6-.5-1.1-.5-.4 0-.8.2-1.1.5-.3.4-.4.9-.4 1.5M105.2 76l.8.1c0 .3.1.4.3.6.2.2.5.2.9.2l.9-.2c.2-.2.4-.4.4-.7l.1-1.1c-.4.4-.8.7-1.4.7-.7 0-1.2-.2-1.6-.7-.4-.5-.6-1.1-.6-1.8 0-.5.1-.9.3-1.3.2-.4.4-.7.8-.9.3-.2.7-.3 1.2-.3.6 0 1.1.2 1.5.7v-.6h.8v4.4l-.2 1.7c-.1.4-.4.6-.8.8-.3.2-.8.3-1.3.3-.6 0-1.1-.1-1.4-.4-.5-.5-.7-.9-.7-1.5m.7-3c0 .7.1 1.1.4 1.4.3.3.6.5 1 .5s.7-.2 1-.5c.3-.3.4-.8.4-1.4 0-.6-.1-1.1-.4-1.4-.3-.3-.6-.5-1-.5s-.7.2-1 .5c-.3.4-.4.8-.4 1.4M110.7 77.6l-.1-.8.5.1.5-.1.3-.3.3-.6.1-.2-1.9-5h.9l1 2.9.4 1.2.3-1.1 1.1-2.9h.9l-1.9 5.1-.5 1.1-.5.6-.7.2-.7-.2M117.6 75.6l2.6-6.9h1l2.9 6.9h-1l-.8-2.1h-2.9l-.8 2.1h-1zm2-2.9h2.4l-.7-1.9-.5-1.4a5 5 0 01-.4 1.3l-.8 2zM124.4 74.1l.8-.1c0 .3.2.6.4.8.2.2.5.3.9.3l.9-.2c.2-.2.3-.3.3-.6 0-.2-.1-.3-.3-.5l-.9-.3-1.3-.4-.5-.5-.2-.7.2-.6.4-.5.5-.2.7-.1 1 .2.7.5.3.8-.8.1c0-.3-.1-.5-.3-.6l-.8-.2-.8.2c-.2.1-.2.3-.2.5l.1.3.3.2.8.2 1.3.4.6.4.2.7-.2.8-.7.6-1.1.2c-.7 0-1.1-.1-1.5-.4a2 2 0 01-.8-1.3M129.2 74.1l.8-.1c0 .3.2.6.4.8.2.2.5.3.9.3l.9-.2c.2-.2.3-.3.3-.6 0-.2-.1-.3-.3-.5l-.9-.3-1.3-.4-.5-.5-.2-.7.2-.6.4-.5.5-.2.7-.1 1 .2.7.5.3.8-.8.1c0-.3-.1-.5-.3-.6l-.8-.2-.8.2c-.2.1-.2.3-.2.5l.1.3.3.2.8.2 1.3.4.6.4.2.7-.2.8-.7.6c-.3.2-.7.2-1.1.2-.7 0-1.1-.1-1.5-.4a2 2 0 01-.8-1.3M134.1 73.1c0-.9.3-1.6.8-2.1.4-.4 1-.6 1.6-.6.7 0 1.3.2 1.7.7s.7 1.1.7 1.9a3 3 0 01-.3 1.5c-.2.4-.5.7-.8.9l-1.2.3c-.7 0-1.3-.2-1.7-.7-.6-.4-.8-1.1-.8-1.9m.9-.1c0 .6.1 1.1.4 1.4s.6.5 1.1.5c.4 0 .8-.2 1.1-.5.3-.3.4-.8.4-1.5 0-.6-.1-1.1-.4-1.4-.3-.3-.6-.5-1.1-.5-.4 0-.8.2-1.1.5-.3.4-.4.9-.4 1.5M143.1 73.7l.8.1c-.1.6-.3 1-.7 1.4-.4.3-.8.5-1.4.5-.7 0-1.2-.2-1.7-.7-.4-.5-.6-1.1-.6-1.9 0-.5.1-1 .3-1.4s.5-.7.8-.9l1.2-.3c.5 0 1 .1 1.3.4.3.3.6.7.7 1.2l-.8.1-.4-.8a1 1 0 00-.7-.3c-.4 0-.8.2-1 .5-.3.3-.4.8-.4 1.5s.1 1.2.4 1.5c.3.3.6.5 1 .5.3 0 .6-.1.8-.3l.4-1.1M144.6 68.6h.9v1h-.9v-1zm0 1.9h.9v5h-.9v-5zM150.1 74.9l-.9.6-.9.2c-.6 0-1-.1-1.3-.4-.3-.3-.4-.6-.4-1l.2-.7.4-.5.6-.3.8-.1 1.5-.3v-.2l-.2-.7c-.2-.2-.5-.3-1-.3a2 2 0 00-.9.2c-.2.1-.3.4-.4.7l-.8-.1.4-.9.7-.5 1.1-.2c.4 0 .8 0 1 .2.3.1.5.2.6.4l.3.6V73.5a5 5 0 00.3 2.1h-.9l-.2-.7M150 73l-1.4.3-.7.2-.3.3-.1.4.3.6c.2.2.4.2.8.2l.9-.2c.3-.1.4-.3.6-.6l.1-.9-.2-.3zM154 74.8l.1.8-.6.1-.7-.1a.8.8 0 01-.4-.4l-.1-1v-2.9h-.6v-.7h.6v-1.2l.9-.5v1.8h.9v.7h-.9v3.4l.1.2.3.1c.2-.3.3-.3.4-.3M154.9 68.6h.9v1h-.9v-1zm0 1.9h.9v5h-.9v-5zM156.7 73c0-.9.3-1.6.8-2.1.4-.4 1-.6 1.6-.6.7 0 1.3.2 1.7.7.4.5.7 1.1.7 1.9a3 3 0 01-.3 1.5c-.2.4-.5.7-.8.9l-1.2.3c-.7 0-1.3-.2-1.7-.7-.6-.4-.8-1-.8-1.9m.9 0c0 .6.1 1.1.4 1.4.3.3.6.5 1.1.5.4 0 .8-.2 1.1-.5.3-.3.4-.8.4-1.5 0-.6-.1-1.1-.4-1.4-.3-.3-.6-.5-1.1-.5-.4 0-.8.2-1.1.5-.3.4-.4.9-.4 1.5M162.4 75.5v-5h.8v.7c.4-.6.9-.8 1.6-.8l.8.2.6.4.3.6V75.5h-.9v-3.1l-.1-.8-.3-.4-.6-.2c-.4 0-.7.1-.9.3-.3.2-.4.7-.4 1.3v2.7l-.9.2z"
    />
  </g>
</svg>
