<svg xmlns="http://www.w3.org/2000/svg" viewBox="0 0 75 75">
  <style>
    .st0 {
      fill-rule: evenodd;
      clip-rule: evenodd;
      fill: #eb6500;
    }
    .st3 {
      fill: #cfcfcf;
    }
    .st3,
    .st5 {
      fill-rule: evenodd;
      clip-rule: evenodd;
    }
  </style>
  <title>
    OrientDB
  </title>
  <path id="canvas_background" fill="none" d="M-1-1h77v77H-1z" />
  <g>
    <title>
      Layer 1
    </title>
    <g id="Orientdb_copy">
      <path
        id="svg_1"
        d="M17.6 25.1c0 1 .6 3.6 1 4.3-.8-.2-2.1-1-4.3 0 .3-2.5 1.7-6.2 4.1-8.4-.3.7-.8 3.2-.8 4.1z"
        class="st0"
      />
      <path
        id="svg_2"
        fill="#e86300"
        fill-rule="evenodd"
        d="M15.2 49.8c0-1-.6-3.6-1-4.3.8.2 2.1 1 4.3 0-.2 2.5-1.7 6.3-4.1 8.5.2-.6.8-3.2.8-4.2z"
        clip-rule="evenodd"
      />
      <path
        id="svg_3"
        fill="#ee6723"
        fill-rule="evenodd"
        d="M4.1 36.2c1 0 3.6-.4 4.3-.8a7 7 0 00-.1 4.4A15 15 0 010 35.3c.7.2 3.1.9 4.1.9z"
        clip-rule="evenodd"
      />
      <path
        id="svg_4"
        d="M8.5 27.9a15 15 0 003.5 2.3c-.6.6-2 1-2.9 3.2-.1.1-3.1-4.6-2.9-8.9.4.6 1.6 2.7 2.3 3.4z"
        class="st3"
      />
      <path
        id="svg_5"
        d="M6.9 45.4c.6-.7 2-2.8 2.2-3.6.6.5 1.1 1.9 3.3 2.8.2.1-4.6 3.6-9 3.1.6-.3 2.8-1.5 3.5-2.3z"
        class="st3"
      />
      <path
        id="svg_6"
        fill="#0a0908"
        fill-rule="evenodd"
        d="M74.1 33.7l.1.1-.1.1h-.3v-.3h.3v.1zm.1-.2c.2 0 .3.2.3.3 0 .1 0 .2-.2.3l.1.2V34.6h-.3v-.3l-.1-.2h-.3v.4h-.2v-1.1h.7v.1zm.7.6c0 .5-.4.9-.9.9a.9.9 0 01-.9-.9c0-.5.4-.9.9-.9s.9.4.9.9zm.1 0c0 .6-.5 1-1 1-.4 0-.7-.2-1-.6l-.1-.2v-.4c.1-.6.6-.8 1-.8.6-.1 1.1.4 1.1 1z"
        clip-rule="evenodd"
      />
      <path
        id="svg_7"
        d="M69.4 38.3c1 .6 1.2 1 1.2 1.2 0 .7-.8 1.1-1.2 1.1h-1.1v-2.3h1.1zm-.2-3.8c.6.3.8.6.8 1 0 .6-.4 1-1.1 1h-.6v-1.9h.9v-.1zm-9.4 0c2.1 0 2.9 1.8 2.9 3.2 0 2.2-1.2 3-3.3 3h-.7v-6.2h1.1zm9.5-1.9c1.9.4 2.6 1.1 2.6 2.5 0 .7.1 1.1-.8 1.9.3.3.7.4 1 1 .4.4.7 1.4.7 1.7 0 1.8-1.2 3-3 3h-3.3v-10h2.8v-.1zm-9.1 0c3.6.3 4.4 2.9 4.4 5.1 0 2.5-1.4 5-4.3 5h-3.7v-10h3.6v-.1z"
        class="st0"
      />
      <path
        id="svg_8"
        d="M27.2 35.1v.9l-.1.2h-.6l-.6.1c-.8.2-1.3 1-1.3 1.6v4.8h-1V35h.9v1.2c.7-1.1 1.3-1.3 2.1-1.3l.6.2z"
        class="st5"
      />
      <path
        id="svg_9"
        d="M53 32.4v2.8h1.6v.8H53v6.6h-1V36h-1.4v-.8H52v-2.8z"
        class="st5"
      />
      <path
        id="svg_10"
        d="M38.4 37.9v.1h-5.2c.4-1.6 1.4-2.1 2.6-2.1 1.2 0 2.3.3 2.6 2zm.8-1l.4 1.3v.7H33v.3c.3 1.9 1.6 2.8 2.9 2.8 1.9 0 2.6-1.8 2.8-1.8l.8.5c-1 1.4-1.6 2-3.6 2.2-2.1.2-3.6-2-3.8-3l-.1-.4v-1.2a3.8 3.8 0 013.8-3.3c1.3-.2 2.5.2 3.4 1.9z"
        class="st5"
      />
      <path
        id="svg_11"
        d="M29.8 35.1v7.7h-.9v-7.7h.9zm.2-2.3c0 .4-.2.7-.7.7-.5 0-.6-.4-.6-.7 0-.5.2-.7.6-.7.5.1.7.4.7.7z"
        class="st5"
      />
      <path
        id="svg_12"
        d="M20.6 37.5c0 2.4-1.8 4.4-4.3 4.4a4.4 4.4 0 01-4.3-4.4c0-2.3 1.8-4.4 4.3-4.4s4.3 2.1 4.3 4.4zm1 0c0 3-2.5 5.3-5.3 5.3-1.8 0-3.9-1-4.9-3.3l-.3-1.4v-1.2a5.2 5.2 0 015.3-4.7c2.9 0 5.2 2.4 5.2 5.3z"
        class="st5"
      />
      <path
        id="svg_13"
        d="M48.4 36.6l.1 1.1v4.9h-1V38c-.1-1.5-1-2-2.1-2h-.6c-.6 0-1.6 1.2-1.6 1.9v4.7h-1v-7.4h.9v.9c.8-.9 1.5-1.1 2.3-1.1 1-.1 2.4.1 3 1.6z"
        class="st5"
      />
    </g>
  </g>
</svg>
