<svg xmlns="http://www.w3.org/2000/svg" viewBox="0 0 75 75">
  <title>React Native</title>
  <rect
    id="blue_BG"
    data-name="Blue BG"
    fill="#61DAFB"
    width="100%"
    height="100%"
  />
  <g fill="#ffffff" stroke="null">
    <path
      d="M74.3 37.5c0-4.9-6.1-9.5-15.5-12.4 2.2-9.5 1.2-17-3-19.5-1-.6-2.1-.9-3.4-.9v3.4c.7 0 1.3.1 1.8.4 2 1.1 2.9 5.6 2.2 11.3-.2 1.4-.4 3-.8 4.4-3-.7-6.1-1.2-9.5-1.6-2-2.8-4.1-5.3-6.2-7.5 4.8-4.5 9.4-7 12.6-7V4.7s0 0 0 0c-4.2 0-9.6 3-15 8-5.5-5-10.9-8-15-8v3.4c3 0 7.7 2.5 12.6 7a70.9 70.9 0 00-6.2 7.5 70 70 0 00-9.6 1.7c-.3-1.5-.6-3-.7-4.4-.7-5.7.1-10.2 2.2-11.4.4-.2 1-.4 1.7-.4V4.8s0 0 0 0c-1.3 0-2.4.3-3.4.8-4.2 2.5-5.2 10-3 19.6C6.8 28 .7 32.6.7 37.5S6.8 47 16.2 50C14 59.4 15 67 19.2 69.4c1 .6 2.1.9 3.4.9 4.1 0 9.5-3 15-8 5.4 5 10.8 8 15 8 1.2 0 2.3-.4 3.3-1 4.3-2.4 5.2-10 3-19.4 9.3-3 15.4-7.5 15.4-12.4zm-19.5-10l-2 6a71 71 0 00-4.2-7.2c2.1.3 4.2.7 6.2 1.2zm-6.9 16a80 80 0 01-3.6 5.7 78 78 0 01-13.6 0A82.7 82.7 0 0124 37.6a78.2 78.2 0 016.7-11.8 78 78 0 0113.6 0A82.7 82.7 0 0151 37.5l-3.1 6zm4.8-2c.9 2 1.5 4 2.1 6-2 .5-4 .9-6.2 1.2a82.9 82.9 0 004.1-7.2zm-15.2 16c-1.4-1.4-2.8-3-4.1-4.8a92.9 92.9 0 008.3 0 58.6 58.6 0 01-4.2 4.8zm-11.1-8.8c-2.2-.3-4.2-.7-6.2-1.2l2-6a71 71 0 004.2 7.2zm11-31.2c1.5 1.4 2.8 3 4.2 4.8a92.9 92.9 0 00-8.3 0c1.4-1.8 2.8-3.4 4.2-4.8zm-11 8.8a82.9 82.9 0 00-4.2 7.2c-.8-2-1.5-4-2-6 2-.5 4-.9 6.2-1.2zM12.8 45.1C7.5 42.8 4 39.9 4 37.5c0-2.3 3.5-5.3 8.8-7.6l4.1-1.5c.9 3 2 6 3.4 9.1a71 71 0 00-3.3 9.1c-1.5-.4-3-1-4.2-1.5zm8 21.4c-2-1.1-2.9-5.6-2.2-11.3.2-1.4.4-3 .8-4.4 3 .7 6.1 1.2 9.5 1.6 2 2.8 4.1 5.3 6.2 7.5-4.8 4.6-9.4 7-12.6 7-.6 0-1.2-.1-1.7-.4zm35.6-11.4c.7 5.7-.1 10.2-2.2 11.4-.4.2-1 .4-1.7.4-3 0-7.7-2.5-12.6-7 2.1-2.2 4.2-4.7 6.2-7.5a70 70 0 009.6-1.7c.3 1.6.6 3 .7 4.4zm5.8-10c-1.3.6-2.7 1-4.1 1.5-.9-3-2-6-3.4-9.1a71 71 0 003.3-9.1l4.2 1.5c5.3 2.3 8.8 5.3 8.8 7.6 0 2.4-3.5 5.3-8.8 7.6zM22.5 4.8h0z"
    />
    <circle cx="37.5" cy="37.5" r="6.9" />
  </g>
</svg>
