<svg xmlns="http://www.w3.org/2000/svg" viewBox="0 0 175 88.8">
  <style>
    .st0 {
      fill: #483729;
    }
  </style>
  <path
    d="M0 71.9c1.1-.2 2.7-.3 4.2-.3C6.5 71.6 8 72 9 73c.8.7 1.3 1.9 1.3 3.2 0 2.2-1.4 3.7-3.2 4.3v.1c1.3.4 2.1 1.6 2.5 3.4.5 2.3.9 4 1.3 4.6H8.7c-.3-.5-.6-1.9-1.1-4-.5-2.3-1.4-3.2-3.4-3.3h-2v7.3H0V71.9zm2.2 7.7h2.2c2.3 0 3.8-1.3 3.8-3.2 0-2.2-1.6-3.1-3.9-3.1l-2.1.2v6.1zM28.3 80c0 5.8-3.5 8.9-7.8 8.9-4.4 0-7.6-3.4-7.6-8.5 0-5.3 3.3-8.8 7.8-8.8 4.6-.2 7.6 3.4 7.6 8.4zm-13 .2c0 3.6 1.9 6.8 5.4 6.8 3.4 0 5.4-3.2 5.4-7 0-3.3-1.7-6.8-5.4-6.8-3.6 0-5.4 3.3-5.4 7zM31.6 71.9a21 21 0 014-.3c2.2 0 3.6.4 4.6 1.2.9.6 1.4 1.6 1.4 3 0 1.6-1.1 3-2.8 3.7 1.6.4 3.5 1.7 3.5 4.2a5 5 0 01-1.4 3.4c-1.2 1.1-3.1 1.6-5.8 1.6l-3.4-.2V71.9zm2.2 6.9h2c2.3 0 3.6-1.2 3.6-2.8 0-2-1.5-2.7-3.7-2.7-1 0-1.6.1-1.9.2v5.3zm0 8.1l1.8.1c2.2 0 4.3-.8 4.3-3.3 0-2.3-2-3.2-4.3-3.2h-1.8v6.4zM54.4 80.7h-6.5v6.1h7.3v1.8h-9.5V71.7h9.1v1.8h-6.9v5.3h6.5v1.9zM58.5 71.9c1.1-.2 2.7-.3 4.2-.3 2.3 0 3.8.4 4.9 1.4.8.7 1.3 1.9 1.3 3.2 0 2.2-1.4 3.7-3.2 4.3v.1c1.3.4 2.1 1.6 2.5 3.4.5 2.3.9 4 1.3 4.6h-2.2c-.3-.5-.6-1.9-1.1-4-.5-2.3-1.4-3.2-3.4-3.3h-2v7.3h-2.2V71.9zm2.1 7.7h2.2c2.3 0 3.8-1.3 3.8-3.2 0-2.2-1.6-3.1-3.9-3.1l-2.1.2v6.1zM75.6 73.6h-5.1v-1.8H83v1.8h-5.1v15h-2.2v-15zM93.2 71.7v7h8.1v-7h2.2v16.8h-2.2v-7.9h-8.1v7.9H91V71.7h2.2zM115.8 71.7v7h8.1v-7h2.2v16.8h-2.2v-7.9h-8.1v7.9h-2.2V71.7h2.2zM133.1 83.3l-1.7 5.3h-2.2l5.7-16.8h2.6l5.7 16.8h-2.3l-1.8-5.3h-6zm5.5-1.7l-1.6-4.8-.9-3.1-.8 3-1.6 4.9h4.9zM160.4 81.2c-.1-2.3-.3-5.2-.2-7.3h-.2l-2.1 6.4-3 8.2h-1.6l-2.7-8c-.8-2.4-1.5-4.5-1.9-6.5l-.3 7.4-.4 7.2h-2.1l1.2-16.8h2.8l2.9 8.1c.7 2.1 1.3 3.9 1.7 5.7h.1c.4-1.7 1-3.5 1.8-5.7l3-8.1h2.8l1 16.8h-2.1l-.7-7.4z"
    class="st0"
  />
  <path fill="#006072" d="M84.8 63.9a32 32 0 100-63.8 32 32 0 000 63.8" />
  <path
    fill="#fff"
    d="M78.9 22.5c0-1.2.1-2 .2-2.3.1-.3.4-.5.9-.6h.4l.7-.2.2-.4c0-.4-.3-.5-.8-.5h-5.8c-.6 0-.9.2-.9.5l.2.4.7.2h.5c.5 0 .8.2.9.5.1.3.2 1.1.2 2.3v18.9c0 1.2-.1 2-.2 2.3-.1.3-.4.5-.9.5h-.5l-.6.2-.2.4c0 .4.3.5.8.5h5.8c.6 0 .9-.2.9-.5s-.3-.5-.8-.6h-.5c-.5-.1-.8-.3-.9-.6-.1-.3-.2-1.1-.2-2.3v-8l.1-1.8c.1-.4.2-.6.5-.7l1.2-.2h7.4l1.8.1c.3.1.5.3.6.6l.1 1.9v8c0 1.2-.1 2-.2 2.3-.1.3-.4.5-.9.5h-.4l-.6.1-.2.4c0 .4.3.5.8.5H94.9c.6 0 .9-.2.9-.5s-.3-.5-.8-.6h-.5c-.5-.1-.8-.2-.9-.5-.1-.3-.2-1.1-.2-2.3V22.5c0-1.2.1-2 .2-2.3.1-.3.4-.5.9-.5h.5l.7-.2.2-.4c0-.4-.3-.5-.8-.5H89.4c-.6 0-.9.2-.9.5l.2.4.7.2h.4c.5 0 .8.2.9.5.1.3.2 1.1.2 2.3v7h-12v-7z"
  />
  <g>
    <path
      d="M175 73.2c0 .7-.6 1.3-1.3 1.3-.7 0-1.3-.6-1.3-1.3 0-.7.6-1.3 1.3-1.3.7 0 1.3.6 1.3 1.3zm-2.3 0c0 .6.4 1 1 1s1-.4 1-1-.4-1-1-1a1 1 0 00-1 1zm.8.6h-.3v-1.3h.5l.4.1.1.3-.3.3c.1 0 .2.1.2.3l.1.3h-.2l-.1-.3c0-.1-.1-.2-.3-.2h-.1v.5zm0-.7h.1c.2 0 .3-.1.3-.2s-.1-.2-.3-.2h-.2v.4z"
      class="st0"
    />
  </g>
</svg>
