<svg xmlns="http://www.w3.org/2000/svg" viewBox="0 0 175 74.8">
  <style>
    .st0 {
      fill: #0c2646;
    }
    .st1 {
      fill: #d3c46f;
    }
  </style>
  <g id="XMLID_2_">
    <path
      id="XMLID_82_"
      d="M0 38.5v-1.7l3.1.1 5.1.1 4.7-.1 4.8-.2c3.4 0 5.8.3 7.3.9 1.5.6 2.7 1.6 3.6 2.9a8.4 8.4 0 01.1 8.8 9 9 0 01-3.4 3.6 17 17 0 01-5.9 2.2l3.1 4.1 6.6 8.7 3.3 4.1.5.3 1.7.1v1.7l-3.5-.2-3.8.2c-1.1-1.3-3.1-3.9-5.8-7.7a139.3 139.3 0 00-9.3-11.7l.3-.8 2.1.1c3.2 0 5.6-.8 7.3-2.3a7.6 7.6 0 002.5-6c0-2.2-.7-3.9-2.1-5.1-1.4-1.3-3.6-1.9-6.5-1.9-1.8 0-3.6.3-5.3.8l-.2 2.7-.2 7.7v11.7l.1 7c0 1.7.2 2.7.4 3 .2.3.5.5 1 .7.5.2 1.7.2 3.8.3v1.7l-6.9-.2c-1.7-.1-4.5 0-8.5.1v-1.7c2.1 0 3.3-.1 3.8-.3.5-.1.8-.4.9-.6.2-.4.3-1.2.4-2.6l.1-7.5V49.4l-.1-7a9.6 9.6 0 00-.4-3c-.2-.3-.5-.5-1-.7-.4-.1-1.6-.2-3.7-.2z"
      class="st0"
    />
    <path
      id="XMLID_79_"
      d="M34.8 61.3c0-1.9.3-3.7.9-5.4.6-1.6 1.6-3.1 2.9-4.4 1.4-1.3 2.9-2.3 4.6-3 1.7-.7 3.7-1 5.9-1 2 0 3.9.3 5.5.9a11.6 11.6 0 017.7 8.3c.3 1.1.4 2.3.4 3.6A14.2 14.2 0 0148 74.7c-1.9 0-3.7-.3-5.4-.9a11.1 11.1 0 01-6.8-7.3 14 14 0 01-1-5.2zm3.8-1.5c0 1.2.1 2.4.4 3.6.2 1.2.5 2.2.9 3.1.6 1.5 1.4 2.7 2.3 3.7 1 1 2 1.7 3.2 2.2 1.2.5 2.5.7 3.9.7 2 0 3.7-.5 5.2-1.4 1.5-1 2.6-2.3 3.3-4.1a18 18 0 00.3-11.5c-.3-1-.7-1.9-1.3-2.7a9.5 9.5 0 00-1.9-2.1 9.2 9.2 0 00-2.8-1.5c-1.2-.4-2.4-.6-3.8-.6-2 0-3.7.4-5.1 1.3a7.7 7.7 0 00-3.3 3.8c-.9 1.5-1.3 3.4-1.3 5.5z"
      class="st0"
    />
    <path
      id="XMLID_78_"
      d="M65.9 74.2v-1l1.4-.8.3-.4.2-2.2.1-3v-9.9l-.1-4.9c0-1.2-.1-1.9-.3-2.1-.1-.2-.4-.4-.7-.5-.3-.1-1.2-.2-2.6-.2V48l5.6.1 5.3-.1v1.2c-1.5 0-2.3.1-2.7.2l-.7.4c-.2.2-.2.8-.3 1.8l-.1 5.2v12.4l.1 3.1a58.9 58.9 0 0011.5-.6l.4-1.3.7-3h1.2l-.8 6.4-1.2.2-2.9.1-10.9-.1-3.5.2z"
      class="st0"
    />
    <path
      id="XMLID_77_"
      d="M89 74.2v-1l1.4-.8.3-.4.2-2.2.1-3v-9.9l-.1-4.9c0-1.2-.1-1.9-.3-2.1-.1-.2-.4-.4-.7-.5-.3-.1-1.2-.2-2.6-.2V48l5.6.1 5.3-.1v1.2c-1.5 0-2.4.1-2.7.2l-.7.4-.3 1.8-.1 5.2v12.4l.1 3.1a58.9 58.9 0 0011.5-.6l.4-1.3.7-3h1.2l-.8 6.4-1.2.2-3 .1-10.9-.1-3.4.2z"
      class="st0"
    />
    <path
      id="XMLID_76_"
      d="M121 73v1.2l-5.2-.1-5.7.1V73c1.4 0 2.3-.1 2.6-.2l.7-.4.3-1.8.1-5.2v-8.5l-.1-4.9c0-1.2-.1-1.9-.3-2.1-.1-.2-.4-.4-.7-.5-.3-.1-1.2-.2-2.6-.2V48l5.4.1 5.4-.1v1.2c-1.5 0-2.3.1-2.7.2l-.7.4-.3 1.8-.1 5.2v8.5a78.5 78.5 0 00.4 7c.1.2.4.4.7.5.4.1 1.3.2 2.8.2z"
      class="st0"
    />
    <path
      id="XMLID_75_"
      d="M124 74.2V73c1.3 0 2.2-.1 2.6-.3l.4-.3.3-1.9.1-4.2v-15l-.1-.8c-.1-.2-.3-.5-.7-.8l-.8-.4-1.9-.1V48l4 .1 2.8-.1 2.3 3 3.8 4.7 5.5 6.7 4.2 5 1.7 1.9V55.9l-.1-4.2-.2-1.9c-.1-.2-.2-.3-.4-.3-.4-.2-1.3-.3-2.6-.3V48l4.4.1 3.8-.1v1.2c-1.3 0-2.1.1-2.5.3l-.4.4a9 9 0 00-.3 1.9l-.1 4.2v8.9l.1 10-1.9-.5-.4-.1-.2-.1-.7-.7-2.2-2.6-2.4-3-13.1-16v14.3a69.3 69.3 0 00.3 6.2l.4.4c.4.2 1.3.3 2.6.3v1.2l-3.6-.1H124z"
      class="st0"
    />
    <path
      id="XMLID_74_"
      d="M154.8 73.3c.2-1.2.3-3.1.3-5.7h1.2l.3 3.2c.1.3.5.7 1 1 .5.4 1.3.7 2.2 1 .9.3 1.8.4 2.6.4 1.2 0 2.4-.3 3.4-.9 1-.6 1.8-1.3 2.3-2.3a6 6 0 00.7-3c0-.8-.1-1.5-.4-2.1-.2-.6-.6-1.1-1.1-1.4a5 5 0 00-1.8-.8l-2.7-.4-3.5-.6a6.6 6.6 0 01-2.8-1.4 6.7 6.7 0 01-2.1-4.9c0-1.4.4-2.8 1.1-4.1a7.7 7.7 0 013.4-3c1.5-.7 3.1-1.1 4.8-1.1 1 0 2.2.1 3.4.4 1.2.3 2.4.7 3.5 1.2l-.4 2.2-.2 3h-1c0-1.9-.1-2.9-.2-3.1-.3-.4-.7-.8-1.3-1.2a8.3 8.3 0 00-4-1.1c-1.8 0-3.2.5-4.3 1.6a5.7 5.7 0 00-1.6 4.2c0 1 .2 1.8.6 2.4.4.6 1.1 1 2 1.4.7.2 1.8.5 3.3.7l4.1.7a8 8 0 012.6 1.2c.6.5 1 1.1 1.4 1.9a8.3 8.3 0 01-2.5 9.1c-2 1.8-4.6 2.7-7.9 2.7-2.3.2-4.5-.2-6.4-1.2z"
      class="st0"
    />
    <path
      id="XMLID_73_"
      d="M100.5 34h.7c1 0 2.7-.1 3.9-.9l3.1-2.1c1.1-.7 2.2-1.3 2.9-1.3h2.1c1.5 0 2.5 0 4.8-.4.2 0 .3-.2.2-.3 0-.2-.2-.3-.3-.2-2.3.4-3.2.4-4.7.4h-2.1c-.9 0-2 .6-3.2 1.4l-3.1 2.1c-1 .6-2.7.8-3.6.8h-.7c-.2 0-.3.1-.3.3 0 .1.1.2.3.2z"
      class="st1"
    />
    <path
      id="XMLID_72_"
      d="M98.9 30.6l1.8-.5c.9-.4 2-.9 2.6-1.6l-.2-.2.2.2c.6-.6 1.1-1.7 1.8-2.7a6 6 0 012.8-2.4l-.1-.3.1.3c2.7-.7 6.8-2.8 6.8-2.8l.1-.4-.4-.1-2.4 1.2a25 25 0 01-4.3 1.6 6.6 6.6 0 00-3.1 2.6c-.7 1.1-1.3 2.2-1.8 2.6-.4.6-1.4 1.1-2.3 1.4l-1.2.4-.5.1c-.2 0-.2.2-.2.3 0 .3.1.4.3.3z"
      class="st1"
    />
    <path
      id="XMLID_71_"
      d="M96.5 27.7l1.7-.9c.9-.6 1.9-1.3 2.3-2.1l1.4-3.6c.6-1.4 1.4-2.6 2.4-3 2.1-.9 5.3-3.9 5.4-3.9v-.4h-.4l-1.9 1.6c-1.1.9-2.4 1.8-3.3 2.2-1.2.5-2 1.9-2.7 3.3l-1.4 3.6c-.3.6-1.2 1.4-2 1.9a4 4 0 01-1.1.6l-.5.2-.1.4.2.1z"
      class="st1"
    />
    <path
      id="XMLID_70_"
      d="M93.8 25.4l1.4-1.4c.7-.8 1.4-1.9 1.5-3l.3-3.4c.1-1.2.5-2.4 1-2.9.5-.7 1-1.1 1.7-1.8s1.5-1.9 2.8-4.1l-.1-.4-.4.1a23 23 0 01-2.7 4l-1.7 1.9.2.2-.2-.2c-.7.7-1 2-1.1 3.3l-.3 3.4c-.1.9-.7 1.9-1.4 2.7l-.9 1-.4.4v.4l.3-.2z"
      class="st1"
    />
    <path
      id="XMLID_69_"
      d="M75.3 5.6l.7 1.9c.4 1 1 2.2 1.6 2.9l.2-.2-.2.2a9 9 0 012 5.7l-.2 2.6v.4c0 1.2.6 2.3 1.2 3.1l1.2 1.4h.4v-.4l-.3-.4c-.6-.7-1.8-2.3-1.8-3.8v-.4l.2-2.7c0-1.8-.4-3.9-2.1-6.1-.5-.6-1.1-1.8-1.5-2.7L76 5.3l-.4-.2c-.3.2-.4.4-.3.5z"
      class="st1"
    />
    <path
      id="XMLID_68_"
      d="M61.5 14.7s1.5 1.6 2.9 2.2c2 .7 3.3 2 4.1 3l.9 1.3.2.4.1.1.3-.1-.3.1s.4 1.2 1.3 2.5a7.2 7.2 0 004.3 3.2c.2 0 .3-.1.3-.2 0-.2-.1-.3-.2-.3a6.6 6.6 0 01-3.9-2.9l-1-1.7-.2-.5-.1-.2s-1.3-3.5-5.6-5.1l-.1.3.1-.3a11.3 11.3 0 01-2.4-1.8l-.2-.2h-.4l-.1.2z"
      class="st1"
    />
    <path
      id="XMLID_67_"
      d="M94.4 5.8l-.7 2c-.5 1.2-1.1 2.7-1.9 4.1a8 8 0 00-.9 4c0 1.5.3 3 .4 3.7v.3c0 .8-.4 1.7-.8 2.4l-.5.8-.2.3v.4h.4s1.6-2 1.6-3.9v-.4c-.1-.8-.4-2.2-.4-3.7 0-1.3.2-2.6.8-3.7C93.9 9.3 95 6 95 6c0-.1 0-.3-.2-.4l-.4.2z"
      class="st1"
    />
    <path
      id="XMLID_66_"
      d="M86.1 23.2s.5-3.5.5-5.1v-.6c-.1-.6-.4-1.4-.8-2.2-.3-.8-.7-1.7-.8-2.5v-.5c0-1.9 1-5.9 1-6.2v-.4l-.2-2c0-.2-.2-.3-.3-.2-.2 0-.3.2-.2.3l.1.7.1 1.2V6h.3-.4c-.1.4-1.1 4.3-1.1 6.4v.6c.1.8.5 1.8.8 2.6.3.8.7 1.6.7 2.1v.5l-.2 3.1-.2 1.9c0 .2.1.3.2.3.4 0 .5-.1.5-.3z"
      class="st1"
    />
    <path
      id="XMLID_65_"
      d="M67.9 5.6V6c0 1.1.2 4.1 2.3 5.7 2.4 1.7 2.7 3 3.3 4.1.3.7.6 2 .8 3.1l.6 2.8.3-.1h-.3l.6 1.2c.9 1.2 2.5 2.4 2.5 2.5h.4v-.4l-.4-.4-1.5-1.4c-.5-.5-.9-1.1-.9-1.5v-.1c-.2-.4-.3-1.5-.6-2.7a13 13 0 00-.9-3.3c-.5-1.1-1-2.5-3.4-4.3-1.8-1.3-2-4.2-2-5.2v-.4c0-.2-.1-.3-.3-.3-.4 0-.5.1-.5.3z"
      class="st1"
    />
    <path
      id="XMLID_64_"
      d="M56.5 21.3s4.2 1.8 7 2.7c2.6.9 3.5 3 4.6 4.4 1.9 1.8 4.9 2 4.9 2.1.2 0 .3-.1.3-.3 0-.2-.1-.3-.3-.3l-.5-.1a8 8 0 01-4.1-1.8l-.2.2.2-.2c-1-1.3-2-3.7-4.9-4.6L59 21.7l-2.4-1c-.1-.1-.3 0-.4.2 0 .2.1.4.3.4z"
      class="st1"
    />
    <path
      id="XMLID_63_"
      d="M53.9 30.5s2 .5 4.8.5l1.8-.1h.4c2.3 0 4.2 1.4 5.6 2.4 1.4.7 3 .8 4 .8l1.1-.1c.2 0 .3-.2.2-.3 0-.2-.2-.3-.3-.2h-1c-1 0-2.4-.1-3.8-.8v.3l.2-.2c-1.4-.9-3.4-2.5-5.9-2.5h-.5l-1.8.1c-1.4 0-2.5-.1-3.3-.3l-1-.2-.3-.1c-.2 0-.3.1-.3.2-.1.3 0 .4.1.5z"
      class="st1"
    />
    <path
      id="XMLID_62_"
      d="M97.7 28.9h.3l2.1-.3c.7-.2 1.4-.5 1.9-1l2.2-2.9c1-1.2 2.2-2.2 3.3-2.4 1.1-.3 3.2-.6 5.1-1.3 1.9-.8 3.7-2.1 4-4.7l-.2-.3-.3.2c-.4.9-.3 1.3-.4 1.7-.1.4-.4 1-1.6 2.6l-.8.6c-1.2.8-3.2 1.7-3.8 2-2.3 1.2-3.4 3.1-4.6 4.8-1.3 1.7-2.6 3.1-5.5 3.5-.2 0-.3.2-.2.3 0 .2.2.3.3.2a8 8 0 005.8-3.7c1.3-1.7 2.3-3.5 4.4-4.6l2.5-1.2 1.4-.8.9-.8a8.6 8.6 0 001.7-2.8l.4-1.6-.3-.1h-.3c-.3 2.3-1.8 3.5-3.7 4.2-1.8.7-3.9 1-5 1.3l.1.3v-.3c-1.4.2-2.6 1.4-3.7 2.5l-2.3 2.9c-.3.4-.9.7-1.6.9l-1.9.3h-.3c-.2 0-.3.1-.3.3l.4.2z"
      class="st1"
    />
    <path
      id="XMLID_61_"
      d="M99.3 31.9c.5.2 1.2.3 2 .3s1.6-.1 2.3-.4c1.2-.4 2.4-1.2 3.6-1.9a7.4 7.4 0 013.4-1.2h.1c1 0 2.9.5 4.8.5 2.2 0 4.5-.6 5.8-3l-.1-.4h-.4c-.7.7-.7 1.1-1 1.4-.3.3-.8.8-2.4 1.9a3 3 0 01-1 .3c-1.4.3-3.5.5-4.3.6-2.5.3-3.9 1.7-5.5 3a10.3 10.3 0 01-6.6 2.6c-.2 0-.3.1-.3.3 0 .2.1.3.3.3a10 10 0 006.9-2.7c1.6-1.3 2.8-2.5 5.2-2.8l2.7-.3a47.8 47.8 0 002.7-.7c1.7-1.1 2.3-1.6 2.6-2.1.3-.5.3-.7 1-1.4l-.2-.2-.3-.1c-1.1 2.2-3.2 2.7-5.3 2.7-1.8 0-3.6-.4-4.8-.5h-.2c-1.2 0-2.4.6-3.6 1.3-1.2.7-2.5 1.4-3.6 1.8-.6.2-1.4.3-2.2.3-.7 0-1.4-.1-1.8-.3-.1-.1-.3 0-.4.1.4.4.4.6.6.6z"
      class="st1"
    />
    <path
      id="XMLID_60_"
      d="M91.8 24.6l1.9-1.5c.7-.7 1.2-1.3 1.4-1.9l.5-3.6c.3-1.6.7-3.2 1.4-3.9.6-.7 2-1.7 3.3-3 1.2-1.3 2.3-2.8 2.4-4.7a5 5 0 00-.4-2l-.3-.2-.2.3c.1.7.2 1.1.4 1.4.1.3.2.5.2 1.2 0 .5 0 1.2-.2 2.3 0 .4-.6 1.4-1.2 2.3l-1.5 2.3c-1.4 2.1-1.4 4.4-1.6 6.5-.2 2.1-.7 4-3 5.7l-.1.4.4.1a8 8 0 003.2-6.1c.2-2.1.2-4.2 1.5-6.2l1.5-2.3c.6-1 1.2-1.9 1.2-2.5l.2-2.3-.2-1.4-.3-1.2h-.3l-.3.1c.3.6.4 1.2.4 1.8 0 1.6-1 3.1-2.2 4.3-1.2 1.2-2.6 2.2-3.3 3-.8.9-1.2 2.6-1.5 4.2l-.5 3.5a6 6 0 01-1.2 1.7c-.6.6-1.4 1.2-1.8 1.4l-.1.4.3-.1z"
      class="st1"
    />
    <path
      id="XMLID_59_"
      d="M95.1 26.2c.6-.1 1.3-.5 2.1-.9a5 5 0 001.7-1.4l.7-1.3 1.6-3c.6-1 1.3-1.9 1.9-2.3.9-.5 2.8-1.2 4.5-2.2 1.7-1 3.2-2.6 3.2-4.9v-.6l-.3-.3-.3.2-.1.9v.7c0 .4-.1 1.1-1 3.1a9 9 0 01-1.8 1.9l-2.1 1.8c-2 1.6-2.5 3.9-3.2 5.8-.7 2-1.6 3.7-4.3 4.7l-.2.4.4.2c2.9-1 3.9-3 4.6-5 .7-2 1.2-4.1 3-5.6l2.1-1.8c.9-.8 1.7-1.5 1.9-2.1.9-2 1.1-2.7 1.1-3.3v-.7l.1-.8h-.6v.5c0 2.1-1.3 3.4-2.9 4.4-1.6 1-3.5 1.6-4.5 2.2-1.1.6-2 2.1-2.7 3.6l-1 2-.6 1.2a7 7 0 01-1.5 1.3 7 7 0 01-1.9.8c-.2 0-.3.2-.2.3 0 .1.1.3.3.2z"
      class="st1"
    />
    <path
      id="XMLID_58_"
      d="M88 23.6c.8-.7 2-2.1 2-3.5V20v-1.3c0-2.4.2-5.3 1.1-6.8.8-1.5 3.7-4.4 3.7-7.5 0-1-.3-2-1-3l-.4-.1-.1.3c.3.9.6 1.2.8 1.5.2.4.4 1.1.6 3.1v.1c0 .5-.3 1.5-.7 2.5l-.9 2.5c-.4 1-.5 2-.5 2.9 0 1.9.5 3.6.5 5.3 0 1.5-.4 3-1.7 4.7v.4h.4a7.3 7.3 0 001.9-5.1c0-1.8-.5-3.5-.5-5.3 0-.9.1-1.8.4-2.7l.9-2.5c.5-1 .8-2 .8-2.7v-.2c-.2-2-.4-2.7-.7-3.2-.3-.5-.5-.6-.8-1.5l-.3.1-.2.2c.6.9.9 1.8.9 2.7 0 2.8-2.7 5.6-3.6 7.2-1 1.7-1.1 4.7-1.1 7.1V20c0 1-1.1 2.5-1.8 3.1v.4l.3.1z"
      class="st1"
    />
    <path
      id="XMLID_57_"
      d="M76.5 25.5c-1-.1-2.6-.3-3.5-1.9l-.2.1.2-.1c-1.2-2.2-2.8-5.3-4.9-6.4-1.1-.5-3-1.1-4.6-2.1-1.7-1-3-2.4-3-4.6v-.2h-.3l-.3.1.1 1.1v.2c0 .3 0 .6.2 1.1l1.1 2.4c.3.6 1.1 1.2 2 1.9l2.2 1.6c1.9 1.4 2.5 3.4 3.3 5.4.8 2 2 3.9 4.9 4.8.2 0 .3 0 .4-.2 0-.2 0-.3-.2-.4-2.7-.8-3.7-2.5-4.5-4.4-.8-1.9-1.5-4.1-3.5-5.6l-2.2-1.6a8.4 8.4 0 01-1.9-1.8 9.1 9.1 0 01-1-2.3l-.2-.9v-.2l-.1-1.2-.3-.3-.3.3v.3c0 2.5 1.5 4 3.3 5.1 1.7 1 3.7 1.6 4.7 2.1 1.8.9 3.5 3.9 4.7 6.1 1 1.8 2.9 2 3.9 2.1.2 0 .3-.1.3-.3 0 0-.1-.2-.3-.2z"
      class="st1"
    />
    <path
      id="XMLID_56_"
      d="M73.9 28.3h-.7c-1.1 0-2.5-.2-3.1-.9l-.2.2.2-.2c-1.6-1.9-3.9-4.5-6.2-5.1-1.2-.3-3.2-.4-5.1-1-1.9-.6-3.5-1.7-3.9-4l-.3.1-.3.1c.4.8.3 1.1.5 1.6s.6 1.2 1.9 2.7l1 .7c1.3.7 3.3 1.5 4 1.8 2.2.9 3.3 2.7 4.7 4.4 1.4 1.6 3 3.2 6 3.3.2 0 .3-.1.3-.3 0-.2-.1-.3-.3-.3a7.2 7.2 0 01-5.6-3.1c-1.3-1.6-2.6-3.5-4.9-4.5l-2.5-1.1L58 22l-.8-.6a11 11 0 01-1.8-2.5c-.1-.4-.1-.8-.5-1.7l-.3-.1-.2.3c.5 2.5 2.3 3.8 4.3 4.4 1.9.7 4.1.8 5.1 1 2 .5 4.3 3 5.9 4.9.9.9 2.4 1.1 3.5 1.1h.8c.2 0 .3-.2.2-.3l-.3-.2z"
      class="st1"
    />
    <path
      id="XMLID_55_"
      d="M72.3 31.5c-.5.2-1.3.4-2.2.4l-1.7-.2c-1.1-.3-2.3-1-3.6-1.6a8.3 8.3 0 00-3.6-1.1h-.4c-1.3.1-3.3.8-5.4.8-1.9 0-3.7-.5-4.8-2.4l-.2.1-.2.2c.7.6.7.9 1 1.3.4.4 1 .9 2.7 1.9a40.4 40.4 0 005.6.6c2.3.2 3.6 1.3 5.2 2.4a11 11 0 006.8 2.2h.3c.2 0 .3-.1.3-.3 0-.2-.1-.3-.3-.3h-.3c-3.2 0-4.9-1-6.5-2.1-1.6-1.1-3-2.3-5.5-2.5l-2.8-.2a7.8 7.8 0 01-2.6-.5 8.7 8.7 0 01-2.5-1.8c-.3-.3-.4-.7-1.1-1.4h-.4l-.1.4c1.3 2.1 3.3 2.7 5.3 2.7 2.1 0 4.3-.7 5.4-.8h.3c1 0 2.2.5 3.4 1.1 1.2.6 2.5 1.3 3.6 1.6.6.2 1.2.2 1.9.2.9 0 1.8-.1 2.5-.5l.1-.4-.2.2z"
      class="st1"
    />
    <path
      id="XMLID_54_"
      d="M83.9 23.1c.3-.4.5-1.1.7-1.9.2-.8.3-1.8.3-2.7 0-.7-.1-1.3-.3-1.8a9 9 0 01-1-3.9l.3-1.9c.3-1.4 1.6-3.9 1.6-6.5 0-1.6-.5-3.2-2.1-4.4H83v.4c.6.8.9.9 1.2 1.3.3.3.7.9 1.4 2.8l.1 1.3c0 1.4-.2 3.3-.3 4v.7c0 1.9.6 2.8 1.1 4 .5 1.2 1.1 2.7 1.1 5.8l-.1 2.9c0 .2.1.3.3.3.2 0 .3-.1.3-.3l.1-3a14 14 0 00-1.1-6c-.6-1.2-1.1-2-1.1-3.8v-.7c0-.7.3-2.6.3-4 0-.6 0-1.2-.2-1.5a9.4 9.4 0 00-1.5-2.9L83.4.1l-.2.2-.2.2a4.7 4.7 0 011.8 4c0 2.4-1.2 4.9-1.6 6.3l-.3 2.1c0 1.3.4 2.6 1 4.1l.3-.1-.3.1.2 1.6c0 .8-.1 1.8-.3 2.6-.2.8-.4 1.5-.6 1.7l.1.4.6-.2z"
      class="st1"
    />
    <path
      id="XMLID_53_"
      d="M79.9 23.7c-.5-.2-1.1-.3-1.6-.7-.5-.3-1.1-1-1.5-2.3-.8-2.8-.7-5.4-2.9-7.4l-.2.2.2-.2c-.8-.7-2.2-1.7-3.4-2.9-1.2-1.2-2.2-2.6-2.2-4.3 0-.5.1-1.1.3-1.6l-.3-.1H68l-.2 1.2-.2 1.1.3 2.7c.1.6.7 1.5 1.4 2.5l1.7 2.2c1.4 1.9 1.5 4 1.9 6.1.4 2.1 1 4.2 3.6 5.9l.4-.1-.1-.4c-2.4-1.6-2.9-3.5-3.3-5.5-.4-2.1-.5-4.3-2-6.4l-1.6-2.2-1.3-2.2-.3-2.6c0-.5.1-.7.2-.9.1-.3.2-.6.2-1.3l-.2-.3-.3.2-.3 1.8c0 1.9 1.1 3.5 2.3 4.7 1.2 1.2 2.7 2.2 3.4 2.9 2 1.8 1.9 4.3 2.8 7.2a4.5 4.5 0 001.7 2.6c.7.4 1.3.5 1.7.7.1.1.3 0 .4-.1-.1-.2-.1-.4-.3-.5z"
      class="st1"
    />
    <path
      id="XMLID_52_"
      d="M83.8 22.7c-.4-.3-.9-.9-1.3-1.5-.4-.7-.7-1.4-.7-1.9-.1-2.5-.1-5.8-1.9-8.1C78.8 9.8 76 7 76 4.1c0-.9.2-1.7.8-2.6l-.2-.2-.3-.1c-.3.9-.5 1-.7 1.5a11 11 0 00-.5 3.3v.1c0 .6.4 1.7.8 2.7l1.1 2.5c.5 1.1.6 2.2.6 3.3l-.2 4c0 1.8.4 3.7 2.2 5.6h.4v-.4a7 7 0 01-2-5.2l.2-4c0-1.1-.1-2.3-.7-3.6l-1.1-2.5c-.4-1-.8-2.1-.8-2.5.1-2 .3-2.7.4-3.1.2-.4.4-.6.7-1.6V1l-.4.1c-.6 1-.9 2-.9 2.9 0 3.3 2.9 6.1 4 7.5 1.6 2 1.7 5.2 1.7 7.7 0 .7.4 1.5.8 2.2.4.7 1 1.3 1.4 1.7l.4-.1.1-.3z"
      class="st1"
    />
    <path
      id="XMLID_51_"
      d="M71.1 11.6c-1.2-1.2-2.8-2.2-2.8-4.5 0-.6.1-1.3.4-2.2 0-.1 0-.3-.2-.4-.1 0-.3 0-.4.2-.3.9-.4 1.7-.4 2.4 0 2.6 1.8 3.8 3 4.9h.4v-.4z"
      class="st1"
    />
    <path
      id="XMLID_50_"
      d="M120.7 36.2H51.3c-.2 0-.3.1-.3.3 0 .2.1.3.3.3h69.4c.2 0 .3-.1.3-.3 0-.2-.1-.3-.3-.3"
      class="st1"
    />
    <path
      id="XMLID_49_"
      d="M81.9 38.9h37.5c.2 0 .3-.1.3-.3 0-.2-.1-.3-.3-.3H81.9c-.2 0-.3.1-.3.3 0 .2.2.3.3.3"
      class="st1"
    />
    <path
      id="XMLID_48_"
      d="M74.6 38.4H52.1c-.2 0-.3.1-.3.3 0 .2.1.3.3.3h22.5c.2 0 .3-.1.3-.3l-.3-.3"
      class="st1"
    />
    <path
      id="XMLID_43_"
      d="M168.4 43.9c0-1.8 1.5-3.3 3.3-3.3 1.8 0 3.3 1.5 3.3 3.3 0 1.8-1.5 3.3-3.3 3.3a3.3 3.3 0 01-3.3-3.3zm6.3 0a3 3 0 00-2.9-3c-1.7 0-2.9 1.3-2.9 3 0 1.6 1.3 2.9 2.9 2.9 1.6.1 2.9-1.3 2.9-2.9zm-4.3-1.8h1.5c.5 0 .8.1 1 .4.2.2.3.4.3.7 0 .6-.3.9-.8 1l.9 1.3h-.8l-.8-1.2h-.7v1.2h-.7v-3.4zm1.5 1.7c.4 0 .7-.2.7-.5s-.3-.5-.7-.5h-.9v1.1l.9-.1z"
      class="st0"
    />
  </g>
</svg>
