<svg xmlns="http://www.w3.org/2000/svg" viewBox="0 0 75 75">
  <title>Amazon Route 53</title>
  <g id="Reference">
    <rect
      id="Purple_Light_BG"
      fill="#693cc5"
      data-name="Purple Light BG"
      height="100%"
      width="100%"
    />
    <g id="Product_Icon" data-name="Product Icon">
      <path
        d="M27.3 43a13 13 0 004 .7 3.6 3.6 0 002.3-.7 2.6 2.6 0 00.8-2 2.6 2.6 0 00-.7-2.1 4 4 0 00-2.6-.7 30 30 0 00-3.2.2V37l.4-6.2h7.5v1.7H30l-.3 4.2a11.1 11.1 0 012-.2 5 5 0 013.5 1.2 4.2 4.2 0 011.3 3.2 4 4 0 01-1.5 3.3 5.8 5.8 0 01-3.9 1.2 9.5 9.5 0 01-3.9-.8zM43.6 37h.4a4.6 4.6 0 013.3 1 3.8 3.8 0 011.2 3 4 4 0 01-1.5 3.2 6 6 0 01-4 1.2 9.5 9.5 0 01-3.7-.8v-1.7a12.4 12.4 0 003.8.8 3.7 3.7 0 002.4-.7 2.4 2.4 0 00.9-2q0-2.5-3.2-2.5a18.1 18.1 0 00-2 0v-1.3l4.3-4.7h-6v-1.7h8.4v1.6z"
        fill="#fff"
      />
      <path
        d="M37.5 56.5a1 1 0 01-.5-.1 33.2 33.2 0 00-10.5-4c-2-.4-9-2-9-7 0-2.3.9-3.8 2-5.7a15.7 15.7 0 002.7-8.2 14.6 14.6 0 00-2.3-8 1 1 0 010-1.1l1.6-2a1 1 0 011.3-.2 13.7 13.7 0 006.7 1.8 12.3 12.3 0 007.4-2.3 1 1 0 011.2 0 12.3 12.3 0 007.4 2.3 13.7 13.7 0 006.7-1.9 1 1 0 011.3.3l1.6 2a1 1 0 010 1.2 14.6 14.6 0 00-2.3 7.9c0 3.5 1.4 6 2.7 8.2 1.1 1.9 2 3.4 2 5.6 0 5-6.9 6.7-9 7a33.2 33.2 0 00-10.5 4 1 1 0 01-.5.2zM21.9 23a16.4 16.4 0 012.3 8.4c0 4-1.6 7-3 9.2-1 1.8-1.7 3-1.7 4.7 0 3.5 6.1 4.8 7.3 5a34.9 34.9 0 0110.7 4 34.9 34.9 0 0110.6-4c1.2-.2 7.3-1.5 7.3-5 0-1.8-.6-3-1.6-4.7-1.4-2.3-3-5.1-3-9.2A16.4 16.4 0 0153 23l-.6-.8a15.4 15.4 0 01-7 1.7 14.4 14.4 0 01-8-2.3 14.4 14.4 0 01-8 2.3 15.4 15.4 0 01-7-1.7z"
        fill="#fff"
      />
      <path
        d="M37.5 62.5a1 1 0 01-.6-.2 30 30 0 00-11.3-5c-8.2-1.5-13.1-6-13.1-12A15.3 15.3 0 0115 37c1.1-1.9 2-3.5 2-5.7a10.8 10.8 0 00-3.6-7.6 1 1 0 01-.1-1.5l7.2-9a1 1 0 01.7-.4 1 1 0 01.9.4 10.3 10.3 0 007.3 3.6c2.8 0 5-1.2 7.1-4a1 1 0 011.7 0c2.1 2.8 4.3 4 7.1 4a10.3 10.3 0 007.4-3.6 1 1 0 01.8-.4 1 1 0 01.8.5c1.3 1.8 7.1 8.8 7.2 8.9a1 1 0 01.2.8 1 1 0 01-.4.7 10.8 10.8 0 00-3.6 7.6c0 2.2 1 3.8 2 5.7a15.3 15.3 0 012.7 8.2c0 6-5 10.5-13.2 12a29.7 29.7 0 00-11.2 5 1 1 0 01-.6.2zM15.6 22.9a12.5 12.5 0 013.6 8.5c0 2.8-1.1 4.8-2.2 6.7-1.3 2.1-2.4 4.1-2.4 7.2 0 7.3 8.7 9.5 11.4 10a31.3 31.3 0 0111.5 4.9 31.3 31.3 0 0111.5-5c2.7-.5 11.4-2.6 11.4-10 0-3-1.1-5-2.4-7-1-2-2.3-4-2.3-6.8a12.5 12.5 0 013.7-8.5 413 413 0 01-6-7.3 12 12 0 01-8 3.4 10.2 10.2 0 01-8-3.8 10.2 10.2 0 01-8 3.8 12 12 0 01-8-3.4c-1.4 2-4.5 5.7-5.8 7.3z"
        fill="#fff"
      />
    </g>
  </g>
</svg>
