<svg xmlns="http://www.w3.org/2000/svg" viewBox="0 0 75 75">
  <title>Responsive Web Design</title>
  <g fillRule="evenodd" clipRule="evenodd">
    <path fill="#6dc8c2" d="M64 5l-4.9 58.7L37 70V5z" />
    <path
      fill="#03a48f"
      d="M64 5.4l-4.8 57.7-21.8 6.3-.1-64H64zM70 0s-4 45.4-6.1 67.3C55.2 69.9 38 75 37.4 75c-.4 0-17.6-5.1-26.5-7.7L5 0h65z"
    />
    <path
      fill="#fff"
      d="M48.8 30.2H26.4l-.4-8.3 23.6.1-.8 8.2zM57.4 14l-1.9 24.9h-5.6l3.5 17.3-9.9 2.8-1.9-20.1-14.5-.1 2.6 19.7-9.1-2.6L16.9 14h40.5z"
    />
  </g>
</svg>
