<svg xmlns="http://www.w3.org/2000/svg" viewBox="0 0 75 75">
  <title>Section 508</title>
  <path fill="none" d="M-1-1h77v77H-1z" />
  <g>
    <title>Layer 1</title>
    <path
      fillRule="evenodd"
      d="M71.9 47.9c0 4.3-3.8 6.4-7 6.4-3.7 0-7-2.1-7-6.2s3.7-6.5 7-6.5c3.1 0 7 2.2 7 6.2zM30.7 33.7c-3 2-4.4 6-4.4 8.8 0 6.7 5.6 11.7 12 11.7 2 0 5-.5 6.9-2.1v3a14.7 14.7 0 01-21.5-12.6c0-3.7 2-9.4 7-12v3.2zm22.6-4.1l-2.7 9H40v-.8h9.9l2.7-8.4.7.2zm17.2 3.9c0 3.4-3 5.3-5.6 5.3-2.7 0-5.6-2.4-5.6-5.2 0-3.3 2.9-5 5.6-5 2.5.1 5.6 1.6 5.6 4.8zm-31.9-4.2l.3 3c-.2 1.7-.2 1.8.3 1.8h7.2c1.2-.4 1.7.2 1.7 1s-.5 1.5-1.2 1.5h-8.1c.2 2.7 0 3 0 3h9.4c.6.3 1.4.8 1.4 1.2V54h4c.8.2 1.2.6 1.2 1.4 0 .3-.5 1.2-1.1 1.2h-7.2V45h-12c-.6-.2-2.3-1.5-2.3-2.3v-14c.8-1.8 1.8-2.3 3-2.3 1.5 0 3.3.7 3.4 2.9zm34.8 4.5c0 2-1.1 4.4-4.1 6 0 .3.2.4.3.4 4 2 5.2 4.8 5.2 7.5 0 6.2-5.3 9.1-10.1 9.1-2.9 0-7.8-1.1-9.3-5.7l-.5-1.7v-3c-.2-2.2 3-5.5 5.6-6.5a7.1 7.1 0 01-4.3-6.4c0-5.2 4.7-7.6 8.5-7.6 4.6.2 8.7 3.2 8.7 7.9zm-54.3-8v2.5H8.5C7.4 30.9 7.3 34 6.7 37c0 0-.2.2.3.2l3.4-.6c6.2 0 9.6 4.7 9.6 9.9C20 52.8 15.7 57 9.5 57c-4.1 0-8.2-2-9.3-8h2.9c.8 4.1 4 5.3 6.6 5.3 3.4 0 6.2-2.3 7.5-6.6v-3.2c-1.1-4.3-4.3-5.5-7.3-5.5-2.6 0-3.4.3-6.4 1.5L6 25.7h13.1zm20.2-4.2c0 2.1-2.1 3.5-3.7 3.5-2.3 0-3.5-1.7-3.5-3.5 0-2.2 1.2-3.7 3.5-3.7 2.4 0 3.7 2 3.7 3.8z"
      clipRule="evenodd"
    />
  </g>
</svg>
