<svg
  xmlns="http://www.w3.org/2000/svg"
  xmlns:xlink="http://www.w3.org/1999/xlink"
  viewBox="0 0 176.2 130.8"
>
  <style>
    .st0,
    .st32,
    .st68,
    .st72 {
      clip-path: url(#SVGID_2_);
      fill: #e96f35;
    }
    .st32,
    .st68,
    .st72 {
      fill: #f3a450;
    }
    .st68,
    .st72 {
      fill: #fccd69;
    }
    .st72 {
      fill: #fdd16b;
    }
    .st75,
    .st77,
    .st85,
    .st87,
    .st89 {
      clip-path: url(#SVGID_2_);
      fill: #ffd46d;
    }
    .st77,
    .st85,
    .st87,
    .st89 {
      fill: #ffd66e;
    }
    .st85,
    .st87,
    .st89 {
      fill: #ffdc72;
    }
    .st87,
    .st89 {
      fill: #ffde74;
    }
    .st89 {
      fill: #ffe075;
    }
    .st91,
    .st92,
    .st95,
    .st96,
    .st97 {
      clip-path: url(#SVGID_2_);
      fill: #ffe276;
    }
    .st92,
    .st95,
    .st96,
    .st97 {
      fill: #ffe376;
    }
    .st95,
    .st96,
    .st97 {
      fill: #ffe578;
    }
    .st96,
    .st97 {
      fill: #ffe679;
    }
    .st97 {
      fill: #ffe779;
    }
    .st100,
    .st101,
    .st98,
    .st99 {
      clip-path: url(#SVGID_2_);
      fill: #ffe87a;
    }
    .st100,
    .st101,
    .st99 {
      fill: #ffe97a;
    }
    .st100,
    .st101 {
      fill: #ffea7c;
    }
    .st101 {
      fill: #ffeb7c;
    }
    .st102,
    .st103,
    .st105,
    .st106 {
      clip-path: url(#SVGID_2_);
      fill: #ffec7d;
    }
    .st103,
    .st105,
    .st106 {
      fill: #ffed7d;
    }
    .st105,
    .st106 {
      fill: #ffee7e;
    }
    .st106 {
      fill: #ffef7f;
    }
    .st107 {
      fill: #fbba64;
    }
    .st108 {
      fill-rule: evenodd;
      clip-rule: evenodd;
      fill: #231f20;
    }
    .st109 {
      fill: #c41e1e;
    }
    .st110 {
      fill: #fff;
    }
    .st112 {
      fill: #231f20;
    }
  </style>
  <defs>
    <path
      id="SVGID_1_"
      d="M162.5 65.7a65.2 65.2 0 01-65.9 64.4 65.1 65.1 0 01-65.9-64.4A65.2 65.2 0 0196.6 1.3a65.1 65.1 0 0165.9 64.4z"
    />
  </defs>
  <clipPath id="SVGID_2_">
    <use overflow="visible" xlink:href="#SVGID_1_" />
  </clipPath>
  <path d="M30.6 1.3h131.9V130H30.6z" class="st0" />
  <path
    d="M161.7 65.7a65.2 65.2 0 11-130.4 0 65.2 65.2 0 01130.4 0z"
    class="st0"
  />
  <path
    fill="#e97135"
    d="M161.3 65.7a64.8 64.8 0 11-129.6 0 64.8 64.8 0 01129.6 0z"
    clip-path="url(#SVGID_2_)"
  />
  <path
    fill="#e97236"
    d="M160.9 65.7a64.4 64.4 0 11-128.7 0 64.4 64.4 0 01128.7 0z"
    clip-path="url(#SVGID_2_)"
  />
  <path
    fill="#ea7537"
    d="M160.5 65.7a64 64 0 11-128 0 64 64 0 01128 0z"
    clip-path="url(#SVGID_2_)"
  />
  <circle
    cx="96.5"
    cy="65.7"
    r="63.6"
    fill="#ea7738"
    clip-path="url(#SVGID_2_)"
  />
  <path
    fill="#ea7839"
    d="M159.7 65.7a63.2 63.2 0 11-126.4 0 63.2 63.2 0 01126.4 0z"
    clip-path="url(#SVGID_2_)"
  />
  <circle
    cx="96.5"
    cy="65.7"
    r="62.8"
    fill="#ea7b3a"
    clip-path="url(#SVGID_2_)"
    transform="rotate(-45 96.5 65.7)"
  />
  <path
    fill="#eb7d3a"
    d="M159 65.7a62.4 62.4 0 11-124.7.1 62.4 62.4 0 01124.7-.1z"
    clip-path="url(#SVGID_2_)"
  />
  <path
    fill="#eb7e3b"
    d="M158.6 65.7a62 62 0 11-124 0 62 62 0 01124 0z"
    clip-path="url(#SVGID_2_)"
  />
  <path
    fill="#eb803c"
    d="M158.2 65.7a61.6 61.6 0 11-123.3 0 61.6 61.6 0 01123.3 0z"
    clip-path="url(#SVGID_2_)"
  />
  <path
    fill="#ec823d"
    d="M157.8 65.7a61.3 61.3 0 11-122.6 0 61.3 61.3 0 01122.6 0z"
    clip-path="url(#SVGID_2_)"
  />
  <path
    fill="#ed833e"
    d="M157.4 65.7a60.9 60.9 0 11-121.8 0 60.9 60.9 0 01121.8 0z"
    clip-path="url(#SVGID_2_)"
  />
  <path
    fill="#ed853e"
    d="M157 65.7a60.5 60.5 0 11-121 0 60.5 60.5 0 01121 0z"
    clip-path="url(#SVGID_2_)"
  />
  <path
    fill="#ed863f"
    d="M156.6 65.7a60 60 0 11-120.2 0 60 60 0 01120.2 0z"
    clip-path="url(#SVGID_2_)"
  />
  <path
    fill="#ed8840"
    d="M156.2 65.7a59.7 59.7 0 11-119.3 0 59.7 59.7 0 01119.3 0z"
    clip-path="url(#SVGID_2_)"
  />
  <circle
    cx="96.5"
    cy="65.7"
    r="59.3"
    fill="#ee8a41"
    clip-path="url(#SVGID_2_)"
    transform="rotate(-45 96.5 65.7)"
  />
  <circle
    cx="96.5"
    cy="65.7"
    r="58.9"
    fill="#ee8b43"
    clip-path="url(#SVGID_2_)"
  />
  <circle
    cx="96.5"
    cy="65.7"
    r="58.5"
    fill="#ee8d43"
    clip-path="url(#SVGID_2_)"
    transform="rotate(-45 96.5 65.7)"
  />
  <path
    fill="#ee8f44"
    d="M154.7 65.7a58 58 0 11-116.2 0 58 58 0 01116.2 0z"
    clip-path="url(#SVGID_2_)"
  />
  <path
    fill="#ef9145"
    d="M154.3 65.7a57.7 57.7 0 11-115.4 0 57.7 57.7 0 01115.4 0z"
    clip-path="url(#SVGID_2_)"
  />
  <path
    fill="#f09246"
    d="M153.9 65.7a57.4 57.4 0 11-114.8 0 57.4 57.4 0 01114.8 0z"
    clip-path="url(#SVGID_2_)"
  />
  <path
    fill="#f09446"
    d="M153.5 65.7a57 57 0 11-114 0 57 57 0 01114 0z"
    clip-path="url(#SVGID_2_)"
  />
  <path
    fill="#f09547"
    d="M153.1 65.7a56.6 56.6 0 11-113.2 0 56.6 56.6 0 01113.2 0z"
    clip-path="url(#SVGID_2_)"
  />
  <path
    fill="#f09749"
    d="M152.7 65.7a56.2 56.2 0 11-112.5-.1 56.2 56.2 0 01112.5.1z"
    clip-path="url(#SVGID_2_)"
  />
  <circle
    cx="96.5"
    cy="65.7"
    r="55.8"
    fill="#f19849"
    clip-path="url(#SVGID_2_)"
    transform="rotate(-45 96.5 65.7)"
  />
  <path
    fill="#f19a4a"
    d="M151.9 65.7a55.4 55.4 0 11-110.8 0 55.4 55.4 0 01110.8 0z"
    clip-path="url(#SVGID_2_)"
  />
  <circle
    cx="96.5"
    cy="65.7"
    r="55"
    fill="#f19b4b"
    clip-path="url(#SVGID_2_)"
    transform="rotate(-88.6 96.5 65.7)"
  />
  <path
    fill="#f19c4c"
    d="M151.2 65.7a54.6 54.6 0 11-109.2 0 54.6 54.6 0 01109.2 0z"
    clip-path="url(#SVGID_2_)"
  />
  <path
    fill="#f19e4c"
    d="M150.8 65.7a54.2 54.2 0 11-108.5 0 54.2 54.2 0 01108.5 0z"
    clip-path="url(#SVGID_2_)"
  />
  <path
    fill="#f29f4d"
    d="M150.4 65.7a53.8 53.8 0 11-107.6 0 53.8 53.8 0 01107.6 0z"
    clip-path="url(#SVGID_2_)"
  />
  <path
    fill="#f3a14e"
    d="M150 65.7a53.4 53.4 0 11-106.8 0 53.4 53.4 0 01106.8 0z"
    clip-path="url(#SVGID_2_)"
  />
  <path
    fill="#f3a24f"
    d="M149.6 65.7a53.1 53.1 0 11-106.3 0 53.1 53.1 0 01106.3 0z"
    clip-path="url(#SVGID_2_)"
  />
  <path
    d="M149.2 65.7a52.7 52.7 0 11-105.4 0 52.7 52.7 0 01105.4 0z"
    class="st32"
  />
  <circle
    cx="96.5"
    cy="65.7"
    r="52.3"
    class="st32"
    transform="scale(.99999) rotate(-88.6 96.5 65.7)"
  />
  <path
    fill="#f3a651"
    d="M148.4 65.7a51.9 51.9 0 11-103.7 0 51.9 51.9 0 01103.7 0z"
    clip-path="url(#SVGID_2_)"
  />
  <circle
    cx="96.5"
    cy="65.7"
    r="51.5"
    fill="#f4a752"
    clip-path="url(#SVGID_2_)"
  />
  <path
    fill="#f4a952"
    d="M147.6 65.7a51.1 51.1 0 11-102.3 0 51.1 51.1 0 01102.3 0z"
    clip-path="url(#SVGID_2_)"
  />
  <path
    fill="#f4aa53"
    d="M147.3 65.7a50.7 50.7 0 11-101.4 0 50.7 50.7 0 01101.4 0z"
    clip-path="url(#SVGID_2_)"
  />
  <path
    fill="#f4ab55"
    d="M146.9 65.7a50.3 50.3 0 11-100.5 0 50.3 50.3 0 01100.5 0z"
    clip-path="url(#SVGID_2_)"
  />
  <path
    fill="#f5ad55"
    d="M146.5 65.7a50 50 0 11-99.8 0 50 50 0 0199.8 0z"
    clip-path="url(#SVGID_2_)"
  />
  <path
    fill="#f5ad56"
    d="M146.1 65.7a49.5 49.5 0 11-99 0 49.5 49.5 0 0199 0z"
    clip-path="url(#SVGID_2_)"
  />
  <path
    fill="#f5af56"
    d="M145.7 65.7a49.2 49.2 0 11-98.5 0 49.2 49.2 0 0198.5 0z"
    clip-path="url(#SVGID_2_)"
  />
  <circle
    cx="96.5"
    cy="65.7"
    r="48.8"
    fill="#f6b157"
    clip-path="url(#SVGID_2_)"
  />
  <path
    fill="#f6b158"
    d="M144.9 65.7a48.4 48.4 0 11-96.9 0 48.4 48.4 0 0196.9 0z"
    clip-path="url(#SVGID_2_)"
  />
  <circle
    cx="96.5"
    cy="65.7"
    r="48"
    fill="#f6b358"
    clip-path="url(#SVGID_2_)"
  />
  <path
    fill="#f7b459"
    d="M144.1 65.7a47.6 47.6 0 11-95.2 0 47.6 47.6 0 0195.2 0z"
    clip-path="url(#SVGID_2_)"
  />
  <path
    fill="#f7b55a"
    d="M143.7 65.7a47.2 47.2 0 11-94.3 0 47.2 47.2 0 0194.3 0z"
    clip-path="url(#SVGID_2_)"
  />
  <path
    fill="#f7b65b"
    d="M143.4 65.7a46.8 46.8 0 11-93.6 0 46.8 46.8 0 0193.6 0z"
    clip-path="url(#SVGID_2_)"
  />
  <path
    fill="#f7b75b"
    d="M143 65.7a46.4 46.4 0 11-92.9 0 46.4 46.4 0 0192.9 0z"
    clip-path="url(#SVGID_2_)"
  />
  <path
    fill="#f7b85c"
    d="M142.6 65.7a46 46 0 11-92 0 46 46 0 0192 0z"
    clip-path="url(#SVGID_2_)"
  />
  <path
    fill="#f8b95c"
    d="M142.2 65.7a45.6 45.6 0 11-91.2 0 45.6 45.6 0 0191.2 0z"
    clip-path="url(#SVGID_2_)"
  />
  <path
    fill="#f8ba5d"
    d="M141.8 65.7a45.3 45.3 0 11-90.6 0 45.3 45.3 0 0190.6 0z"
    clip-path="url(#SVGID_2_)"
  />
  <path
    fill="#f8bc5e"
    d="M141.4 65.7a44.9 44.9 0 11-89.8 0 44.9 44.9 0 0189.8 0z"
    clip-path="url(#SVGID_2_)"
  />
  <circle
    cx="96.5"
    cy="65.7"
    r="44.5"
    fill="#f8bd5f"
    clip-path="url(#SVGID_2_)"
  />
  <circle
    cx="96.5"
    cy="65.7"
    r="44.1"
    fill="#f8be60"
    clip-path="url(#SVGID_2_)"
    transform="rotate(-45 96.5 65.7)"
  />
  <circle
    cx="96.5"
    cy="65.7"
    r="43.7"
    fill="#f8bf60"
    clip-path="url(#SVGID_2_)"
  />
  <path
    fill="#f9c061"
    d="M139.8 65.7a43.3 43.3 0 11-86.6 0 43.3 43.3 0 0186.6 0z"
    clip-path="url(#SVGID_2_)"
  />
  <path
    fill="#fac161"
    d="M139.5 65.7a42.9 42.9 0 11-85.8 0 42.9 42.9 0 0185.8 0z"
    clip-path="url(#SVGID_2_)"
  />
  <path
    fill="#fac262"
    d="M139.1 65.7a42.5 42.5 0 11-85 0 42.5 42.5 0 0185 0z"
    clip-path="url(#SVGID_2_)"
  />
  <path
    fill="#fac362"
    d="M138.7 65.7a42.1 42.1 0 11-84.2 0 42.1 42.1 0 0184.2 0z"
    clip-path="url(#SVGID_2_)"
  />
  <path
    fill="#fac463"
    d="M138.3 65.7a41.7 41.7 0 11-83.3 0 41.7 41.7 0 0183.3 0z"
    clip-path="url(#SVGID_2_)"
  />
  <path
    fill="#fac564"
    d="M137.9 65.7a41.4 41.4 0 11-82.8 0 41.4 41.4 0 0182.8 0z"
    clip-path="url(#SVGID_2_)"
  />
  <circle
    cx="96.5"
    cy="65.7"
    r="41"
    fill="#fac664"
    clip-path="url(#SVGID_2_)"
    transform="rotate(-3.1 96.5 65.7) scale(.99997)"
  />
  <circle
    cx="96.5"
    cy="65.7"
    r="40.6"
    fill="#fbc765"
    clip-path="url(#SVGID_2_)"
  />
  <circle
    cx="96.5"
    cy="65.7"
    r="40.2"
    fill="#fbc865"
    clip-path="url(#SVGID_2_)"
    transform="rotate(-45 96.5 65.7)"
  />
  <path
    fill="#fbc966"
    d="M136.3 65.7a39.8 39.8 0 11-79.6 0 39.8 39.8 0 0179.6 0z"
    clip-path="url(#SVGID_2_)"
  />
  <path
    fill="#fbca66"
    d="M135.9 65.7a39.3 39.3 0 11-78.7.1 39.3 39.3 0 0178.7-.1z"
    clip-path="url(#SVGID_2_)"
  />
  <path
    fill="#fbcb67"
    d="M135.6 65.7a39 39 0 11-78.1-.1 39 39 0 0178.1.1z"
    clip-path="url(#SVGID_2_)"
  />
  <path
    fill="#fbcc68"
    d="M135.2 65.7a38.6 38.6 0 11-77.2 0 38.6 38.6 0 0177.2 0z"
    clip-path="url(#SVGID_2_)"
  />
  <path
    d="M134.8 65.7a38.2 38.2 0 11-76.4 0 38.2 38.2 0 0176.4 0z"
    class="st68"
  />
  <path
    d="M134.4 65.7a37.8 37.8 0 11-75.5 0 37.8 37.8 0 0175.5 0z"
    class="st68"
  />
  <circle
    cx="96.5"
    cy="65.7"
    r="37.5"
    fill="#fcce69"
    clip-path="url(#SVGID_2_)"
    transform="rotate(-45 96.5 65.7)"
  />
  <path
    fill="#fccf6a"
    d="M133.6 65.7a37 37 0 11-74.2 0 37 37 0 0174.2 0z"
    clip-path="url(#SVGID_2_)"
  />
  <circle
    cx="96.5"
    cy="65.7"
    r="36.7"
    fill="#fcd06a"
    clip-path="url(#SVGID_2_)"
    transform="rotate(-45 96.5 65.7)"
  />
  <path
    d="M132.8 65.7a36.3 36.3 0 11-72.6 0 36.3 36.3 0 0172.6 0z"
    class="st72"
  />
  <path d="M132.4 65.7a36 36 0 11-71.9 0 36 36 0 0171.9 0z" class="st72" />
  <path
    fill="#fdd26c"
    d="M132 65.7a35.5 35.5 0 11-71 0 35.5 35.5 0 0171 0z"
    clip-path="url(#SVGID_2_)"
  />
  <path
    fill="#ffd36d"
    d="M131.7 65.7a35 35 0 11-70.2 0 35 35 0 0170.2 0z"
    clip-path="url(#SVGID_2_)"
  />
  <path
    d="M131.3 65.7a34.8 34.8 0 01-69.5 0 34.7 34.7 0 0169.5 0z"
    class="st75"
  />
  <path
    d="M130.9 65.7a34.3 34.3 0 11-68.6 0 34.3 34.3 0 0168.6 0z"
    class="st75"
  />
  <circle
    cx="96.5"
    cy="65.7"
    r="33.9"
    fill="#ffd56e"
    clip-path="url(#SVGID_2_)"
    transform="rotate(-45 96.5 65.7)"
  />
  <path
    d="M130.1 65.7a33.6 33.6 0 11-67.2 0 33.6 33.6 0 0167.2 0z"
    class="st77"
  />
  <circle
    cx="96.5"
    cy="65.7"
    r="33.2"
    class="st77"
    transform="rotate(-45 96.5 65.7)"
  />
  <path
    fill="#ffd76f"
    d="M129.3 65.7a32.8 32.8 0 11-65.6 0 32.8 32.8 0 0165.6 0z"
    clip-path="url(#SVGID_2_)"
  />
  <path
    fill="#ffd870"
    d="M128.9 65.7a32.4 32.4 0 11-64.8 0 32.4 32.4 0 0164.8 0z"
    clip-path="url(#SVGID_2_)"
  />
  <path
    fill="#ffd970"
    d="M128.5 65.7a32 32 0 11-64 0 32 32 0 0164 0z"
    clip-path="url(#SVGID_2_)"
  />
  <path
    fill="#ffd971"
    d="M128.1 65.7a31.5 31.5 0 11-63.2 0 31.5 31.5 0 1163.2 0z"
    clip-path="url(#SVGID_2_)"
  />
  <path
    fill="#ffda71"
    d="M127.8 65.7a31.2 31.2 0 11-62.5 0 31.2 31.2 0 0162.5 0z"
    clip-path="url(#SVGID_2_)"
  />
  <path
    fill="#ffdb71"
    d="M127.4 65.7a30.8 30.8 0 11-61.6 0 30.8 30.8 0 0161.6 0z"
    clip-path="url(#SVGID_2_)"
  />
  <circle
    cx="96.5"
    cy="65.7"
    r="30.4"
    fill="#ffdb72"
    clip-path="url(#SVGID_2_)"
    transform="rotate(-45 96.5 65.7)"
  />
  <path d="M126.6 65.7a30 30 0 11-60 0 30 30 0 0160 0z" class="st85" />
  <circle cx="96.5" cy="65.7" r="29.6" class="st85" />
  <path
    fill="#ffdd73"
    d="M125.8 65.7a29.3 29.3 0 11-58.6 0 29.3 29.3 0 0158.6 0z"
    clip-path="url(#SVGID_2_)"
  />
  <circle cx="96.5" cy="65.7" r="28.9" class="st87" />
  <path d="M125 65.7a28.6 28.6 0 01-57 0 28.6 28.6 0 0157 0z" class="st87" />
  <path
    d="M124.6 65.7a28.1 28.1 0 11-56.2 0 28.1 28.1 0 0156.2 0z"
    class="st87"
  />
  <path
    fill="#ffdf75"
    d="M124.2 65.7a27.7 27.7 0 11-55.4 0 27.7 27.7 0 0155.4 0z"
    clip-path="url(#SVGID_2_)"
  />
  <path
    d="M123.9 65.7a27.3 27.3 0 11-54.5 0 27.3 27.3 0 0154.5 0z"
    class="st89"
  />
  <path d="M123.5 65.7a27 27 0 11-53.8 0 27 27 0 0153.8 0z" class="st89" />
  <path
    fill="#ffe175"
    d="M123.1 65.7a26.6 26.6 0 11-53-.1 26.6 26.6 0 0153 .1z"
    clip-path="url(#SVGID_2_)"
  />
  <circle cx="96.5" cy="65.7" r="26.1" class="st91" />
  <circle
    cx="96.5"
    cy="65.7"
    r="25.7"
    class="st91"
    transform="rotate(-45 96.5 65.7)"
  />
  <circle cx="96.5" cy="65.7" r="25.4" class="st92" />
  <path d="M121.5 65.7a25 25 0 11-50 0 25 25 0 0150 0z" class="st92" />
  <path
    fill="#ffe377"
    d="M121.1 65.7a24.6 24.6 0 11-49.2 0 24.6 24.6 0 0149.2 0z"
    clip-path="url(#SVGID_2_)"
  />
  <path
    fill="#ffe478"
    d="M120.7 65.7a24.2 24.2 0 11-48.3 0 24.2 24.2 0 0148.3 0z"
    clip-path="url(#SVGID_2_)"
  />
  <path
    d="M120.3 65.7a23.9 23.9 0 01-47.6 0 23.9 23.9 0 0147.6 0z"
    class="st95"
  />
  <path
    d="M120 65.7a23.4 23.4 0 11-46.9 0 23.4 23.4 0 0146.9 0z"
    class="st95"
  />
  <path d="M119.6 65.7a23 23 0 11-46 0 23 23 0 0146 0z" class="st96" />
  <circle cx="96.5" cy="65.7" r="22.6" class="st96" />
  <path
    d="M118.8 65.7a22.2 22.2 0 11-44.4 0 22.2 22.2 0 0144.4 0z"
    class="st96"
  />
  <circle cx="96.5" cy="65.7" r="21.8" class="st96" />
  <path d="M118 65.7a21.5 21.5 0 11-43 0 21.5 21.5 0 0143 0z" class="st97" />
  <path
    d="M117.6 65.7a21.1 21.1 0 11-42.2 0 21.1 21.1 0 0142.2 0z"
    class="st97"
  />
  <path
    d="M117.2 65.7a20.7 20.7 0 01-41.4 0 20.7 20.7 0 0141.4 0z"
    class="st98"
  />
  <path
    d="M116.8 65.7a20.3 20.3 0 11-40.6 0 20.3 20.3 0 0140.6 0z"
    class="st98"
  />
  <path
    d="M116.4 65.7a19.9 19.9 0 11-39.8 0 19.9 19.9 0 0139.8 0z"
    class="st99"
  />
  <path d="M116 65.7a19.5 19.5 0 11-39 0 19.5 19.5 0 1139 0z" class="st99" />
  <circle cx="96.5" cy="65.7" r="19.1" class="st99" />
  <path
    d="M115.3 65.7a18.7 18.7 0 01-37.4 0 18.7 18.7 0 0137.4 0z"
    class="st99"
  />
  <circle cx="96.5" cy="65.7" r="18.3" class="st100" />
  <path
    d="M114.5 65.7a17.9 17.9 0 11-35.8 0 17.9 17.9 0 0135.8 0z"
    class="st100"
  />
  <path
    d="M114.1 65.7a17.5 17.5 0 11-35.1 0 17.5 17.5 0 1135.1 0z"
    class="st100"
  />
  <path
    d="M113.7 65.7a17.2 17.2 0 11-34.4 0 17.2 17.2 0 0134.4 0z"
    class="st101"
  />
  <path
    d="M113.3 65.7a16.8 16.8 0 11-33.5 0 16.8 16.8 0 0133.5 0z"
    class="st101"
  />
  <path
    d="M112.9 65.7c0 9.1-7.3 16.4-16.4 16.4s-16.4-7.3-16.4-16.4a16.4 16.4 0 0132.8 0z"
    class="st101"
  />
  <path
    d="M112.5 65.7a16 16 0 01-16 16 16 16 0 01-16-16 16 16 0 0116-16 16 16 0 0116 16z"
    class="st101"
  />
  <circle cx="96.5" cy="65.7" r="15.6" class="st102" />
  <path
    d="M111.8 65.7a15.2 15.2 0 11-30.4 0 15.2 15.2 0 0130.4 0z"
    class="st102"
  />
  <circle
    cx="96.5"
    cy="65.7"
    r="14.8"
    class="st102"
    transform="rotate(-42.7 96.5 65.7)"
  />
  <path
    d="M111 65.7a14.4 14.4 0 11-28.8 0 14.4 14.4 0 0128.8 0z"
    class="st102"
  />
  <path d="M110.6 65.7a14 14 0 11-14-14 14 14 0 0114 14z" class="st102" />
  <path
    d="M110.2 65.7a13.7 13.7 0 01-27.4 0C82.9 58.1 89 52 96.5 52c7.6 0 13.7 6.1 13.7 13.7z"
    class="st103"
  />
  <path
    d="M109.8 65.7a13.3 13.3 0 11-26.6 0 13.3 13.3 0 0126.6 0z"
    class="st103"
  />
  <path d="M109.4 65.7a13 13 0 01-25.8 0 13 13 0 0125.8 0z" class="st103" />
  <path d="M109 65.7a12.5 12.5 0 11-25 0 12.5 12.5 0 0125 0z" class="st103" />
  <path
    fill="#ffee7d"
    d="M108.6 65.7a12 12 0 11-24.2 0 12 12 0 1124.2 0z"
    clip-path="url(#SVGID_2_)"
  />
  <path
    d="M108.2 65.7c0 6.5-5.2 11.7-11.7 11.7-6.5 0-11.7-5.2-11.7-11.7C84.8 59.2 90 54 96.5 54c6.5 0 11.7 5.2 11.7 11.7z"
    class="st105"
  />
  <circle
    cx="96.5"
    cy="65.7"
    r="11.3"
    class="st105"
    transform="rotate(-45 96.5 65.7)"
  />
  <circle cx="96.5" cy="65.7" r="10.9" class="st105" />
  <circle
    cx="96.5"
    cy="65.7"
    r="10.5"
    class="st105"
    transform="rotate(-45 96.5 65.7)"
  />
  <path
    d="M106.7 65.7a10 10 0 01-10.1 10.1 10 10 0 01-10.1-10.1 10 10 0 0110.1-10.1 10 10 0 0110.1 10.1z"
    class="st105"
  />
  <path d="M106.3 65.7a9.8 9.8 0 11-19.6 0 9.8 9.8 0 0119.6 0z" class="st105" />
  <path d="M105.9 65.7a9.4 9.4 0 11-18.8 0 9.4 9.4 0 0118.8 0z" class="st105" />
  <path d="M105.5 65.7c0 5-4 9-9 9s-9-4-9-9 4-9 9-9 9 4 9 9z" class="st105" />
  <path
    d="M105.1 65.7c0 4.7-3.8 8.6-8.6 8.6S88 70.4 88 65.7c0-4.7 3.8-8.6 8.6-8.6s8.5 3.8 8.5 8.6z"
    class="st105"
  />
  <path
    d="M104.7 65.7c0 4.5-3.7 8.2-8.2 8.2a8.2 8.2 0 01-8.2-8.2c0-4.5 3.7-8.2 8.2-8.2 4.6 0 8.2 3.6 8.2 8.2z"
    class="st105"
  />
  <circle
    cx="96.5"
    cy="65.7"
    r="7.8"
    class="st106"
    transform="rotate(-45 96.5 65.7)"
  />
  <circle cx="96.5" cy="65.7" r="7.4" class="st106" />
  <circle
    cx="96.5"
    cy="65.7"
    r="7"
    class="st106"
    transform="rotate(-88.9 96.5 65.7) scale(.99998)"
  />
  <path d="M103.2 65.7a6.6 6.6 0 11-13.2 0 6.6 6.6 0 0113.2 0z" class="st106" />
  <path
    d="M102.8 65.7c0 3.4-2.8 6.2-6.2 6.2a6.2 6.2 0 01-6.2-6.2c0-3.4 2.8-6.2 6.2-6.2a6.1 6.1 0 016.2 6.2z"
    class="st106"
  />
  <path d="M102.4 65.7a6 6 0 01-11.8 0 6 6 0 0111.8 0z" class="st106" />
  <path
    d="M102 65.7c0 3-2.4 5.5-5.5 5.5-3 0-5.5-2.4-5.5-5.5 0-3 2.4-5.5 5.5-5.5s5.5 2.4 5.5 5.5z"
    class="st106"
  />
  <path
    d="M101.6 65.7c0 2.8-2.3 5.1-5.1 5.1a5.1 5.1 0 01-5.1-5.1c0-2.8 2.3-5.1 5.1-5.1s5.1 2.3 5.1 5.1z"
    class="st106"
  />
  <path d="M101.2 65.7a4.7 4.7 0 11-9.4 0 4.7 4.7 0 019.4 0z" class="st106" />
  <circle
    cx="96.5"
    cy="65.7"
    r="4.3"
    class="st106"
    transform="matrix(.0188 -.9998 .9998 .0188 29 161)"
  />
  <circle
    cx="96.5"
    cy="65.7"
    r="3.9"
    class="st106"
    transform="rotate(-50.8 96.5 65.7)"
  />
  <circle cx="96.5" cy="65.7" r="3.5" class="st106" />
  <path
    d="M99.7 65.7c0 1.7-1.4 3.1-3.1 3.1a3.1 3.1 0 01-3.1-3.1c0-1.7 1.4-3.1 3.1-3.1 1.7-.1 3.1 1.3 3.1 3.1z"
    class="st106"
  />
  <path
    d="M99.3 65.7c0 1.5-1.2 2.7-2.7 2.7a2.7 2.7 0 01-2.7-2.7c0-1.5 1.2-2.7 2.7-2.7 1.5-.1 2.7 1.1 2.7 2.7z"
    class="st106"
  />
  <path
    d="M98.9 65.7c0 1.3-1 2.3-2.3 2.3-1.3 0-2.3-1-2.3-2.3 0-1.3 1-2.3 2.3-2.3 1.2-.1 2.3 1 2.3 2.3z"
    class="st106"
  />
  <path
    d="M98.5 65.7a2 2 0 01-2 2c-1.1 0-1.9-.9-1.9-2s.9-1.9 1.9-1.9c1.1-.1 2 .8 2 1.9z"
    class="st106"
  />
  <path
    d="M98.1 65.7c0 .9-.7 1.6-1.6 1.6s-1.5-.8-1.5-1.6.7-1.6 1.6-1.6 1.5.7 1.5 1.6z"
    class="st106"
  />
  <path
    d="M97.7 65.7c0 .6-.5 1.2-1.2 1.2-.6 0-1.2-.5-1.2-1.2 0-.6.5-1.2 1.2-1.2s1.2.5 1.2 1.2z"
    class="st106"
  />
  <path
    d="M97.3 65.7c0 .4-.3.8-.8.8a.8.8 0 01-.8-.8c0-.4.3-.8.8-.8s.8.3.8.8z"
    class="st106"
  />
  <path
    d="M96.9 65.7c0 .2-.2.4-.4.4a.4.4 0 01-.4-.4c0-.2.2-.4.4-.4.3 0 .4.1.4.4z"
    class="st106"
  />
  <g>
    <path
      d="M168.6 39.3l-.7-2.1a7 7 0 00-1.9-3.1c.1-1 0-2-.3-3.1l-.7-2.1a7.2 7.2 0 00-8.3-5 7.4 7.4 0 00-7.4-1.9l-3.6 1.1a5 5 0 00-1.3.5l-1 .2-3.6 1.1a7.6 7.6 0 00-4.3 3.6l-.3.7-.8-.5a7 7 0 00-5.5-.5l-4.1 1.3-1.1.4-1.1.3-1.3.4c-.1-.1-4.1 1.2-10.7 3.5-1 .4-2.7 3.3-2.7 3.3s-3.8-1.1-5.5-.5c-20 7.3-67.4 22.2-69.5 22.8-3.2 1-3 2.8-3 2.8s-1.2-2.1-3.6-1.5c-2.5.6-10.9 3.2-14 4.4-3.4 1.2-3.1 4.8-3 5.6.1.8.4 2.7 1.1 4.6.7 1.8 1.6 2.7 1.9 2.6l1 3.4a8.3 8.3 0 00-.1 3.5l.7 2.4a7.6 7.6 0 003.6 4.3 7.7 7.7 0 005.5.5l4.8-1.5c1.1-.3 2-.9 2.8-1.7l1.1.1a9 9 0 002.2-.3l4.2-1.3a7 7 0 001.3-.5 3 3 0 001.3-.3l4.2-1.3c.7-.2 1.4-.6 2-1a14.9 14.9 0 007.6-2.4c.7 0 1.5-.1 2.1-.3l4.2-1.3 1.1-.4c.4-.1.8-.1 1.1-.3l3.3-1L68 78l3-.5 1.8-.7.8-.2 3.6-1.1c.7-.2 1.3-.5 1.9-.9 1.5-.1 2.9-.4 4.3-.8 1.1-.3 2.2-.8 3.2-1.5.7 0 1.3-.1 1.9-.3l4.2-1.3 1.1-.4c.4-.1.8-.1 1.1-.3l3.3-1 .8-.3.5-.1a6 6 0 001.8 1.3 7.7 7.7 0 005.5.5l4.2-1.3c3-.9 5-3.6 5.1-6.6l.9-1 1.2-1.8c1.2.9 2.7 1.4 4.3 1.4a9 9 0 002.2-.3l3.9-1.2c.5-.1.9-.3 1.3-.6.5 0 .9-.1 1.4-.3l3.9-1.2c.7-.2 1.4-.6 2-1h.2a10 10 0 003.1-.5l-.3-.9.3.9c.8-.2 1.5-.5 2.1-.9l.9-.2 3.5-1.1.8-.3.8-.2 4.2-1.3.8-.3.8-.2 4.2-1.3 1.2-.5c.4-.1.9-.1 1.3-.3l2.5-.8a7.9 7.9 0 004.3-3.5c1.1-2 1.3-4 .7-5.8zM59.9 48.7l-.3.1.3-.1z"
      class="st107"
    />
  </g>
  <g>
    <path
      d="M108 37.7l-.5-3.4c.5-.8.6-1.8.3-2.7l-.7-2.1c-.5-1.6-2.9-3.8-4.6-3.5l-.7.2-.7.3-.4.1-2.3.7c-.5.1-.9.4-1.2.7h-.4c-.9 0-1.6.2-2.4.4l-1.6.7c-.9-1-2.1-1.6-3.4-1.6-.5 0-35.7 9.8-37.6 11.8-.6-.2-3.6 0-4 .2l-9.3 2.9c-1.8.5-2 4.4-1.5 6.1l.5 1.6c.2.6.6 1.2 1 1.5l1 3.1a3 3 0 000 1.9l.5 1.6c.3.8.9 1.5 1.6 2 .5.3 1 .4 1.5.4l1-.1 3.2-1c.9-.3 1.7-1 2-1.8l.2.1c.5.3 1 .4 1.5.4l1-.1 2.9-.9c.5-.1.9-.4 1.3-.7h.9c.2.1 51.1-18.5 50.9-18.8z"
      class="st107"
    />
  </g>
  <g>
    <path d="M89.9 104c-1.2-.6-1.1 2.1-.4 2 1.5.4.7-1.7.4-2z" class="st108" />
  </g>
  <g>
    <path
      d="M47.4 53.6l.5 1.5-3.1 1-.5-1.5c.4-.2.4-.5.2-1.1l-1.3-4.3c-.2-.6-.3-.8-.8-.8l-.5-1.5 3.6-1.1c2.2-.7 3.3-.1 3.9 2 .8 2.4.5 3.6-1.9 4.3l-1 .3.1.3c.2.6.3.9.8.9zm-.7-3.4c.8-.3 1.1-.5.8-1.5-.3-1-.7-1.1-1.5-.9l-.8.2.8 2.4.7-.2z"
      class="st109"
    />
    <path
      d="M44.8 58.3c-1 0-1.8-.6-2.1-1.6l-.5-1.5c-.2-.5-.1-1 .1-1.5l-1.1-3.5c-.4-.3-.7-.7-.9-1.2l-.5-1.5a2 2 0 01.2-1.7c.3-.5.7-.9 1.3-1.1l3.6-1.1c.8-.2 1.5-.4 2.1-.4 1.5 0 3.6.7 4.6 3.9a7 7 0 01.2 4.3c-.4 1.1-1.2 1.7-2.1 2.2l.3.9c.4 1.2-.3 2.4-1.5 2.8l-3.1 1h-.6z"
      class="st109"
    />
  </g>
  <g>
    <path
      d="M50.7 44.1a1 1 0 011.4.7c.2.6-.2 1.2-.7 1.4-.6.2-1.2-.2-1.4-.7-.2-.6.1-1.3.7-1.4zm4 7.4l.4 1.4-2.7.8-.4-1.4c.3-.2.3-.5.1-1.2l-.7-2.1c-.2-.5-.2-.7-.7-.7l-.4-1.3 2.3-.7 1.4 4.5c.1.5.2.7.7.7z"
      class="st109"
    />
    <path
      d="M52.4 55.9c-.4 0-.7-.1-1-.3-.5-.3-.9-.7-1.1-1.3l-.5-1.3v-1.4l-.5-1.5c-.4-.3-.7-.7-.8-1.1l-.4-1.3-.1-1-.2-.4c-.6-1.8.4-3.7 2.2-4.2l1-.2a3.2 3.2 0 013.3 3.3l.3.6 1.3 4.1c.4.3.7.7.8 1.1l.4 1.4a2 2 0 01-.2 1.7c-.3.5-.7.9-1.3 1.1l-2.6.6-.6.1zM51.1 44l-.3.1c-.3.1-.6.3-.7.6l1.6-.5-.6-.2z"
      class="st109"
    />
  </g>
  <g>
    <path
      d="M58.5 50.4c.5-.2.7-.6.5-1.2l1.9-.6.5 1.6c-.6.7-1.5 1.3-2.4 1.6-1.9.6-3 .1-3.5-1.6l-.7-2.2c-.5-1.7 0-2.7 2-3.3 1.9-.6 2.9-.1 3.4 1.6l.5 1.5-3.5 1.1.2.6c.2.8.5 1.1 1.1.9zm-1.7-2.7l1.6-.5-.1-.3c-.2-.7-.6-1-1.1-.8-.6.2-.7.6-.5 1.4l.1.2z"
      class="st109"
    />
    <path
      d="M57.6 54.2c-1.2 0-3.3-.4-4.2-3.4l-.7-2.2c-.4-1.4-.9-4.7 3.4-6.1l2-.3c1.2 0 3.3.4 4.2 3.4l.5 1.5.1.4.1.3.5 1.6c.2.7.1 1.5-.4 2.1a7 7 0 01-3.5 2.3 5 5 0 01-2 .4z"
      class="st109"
    />
  </g>
  <g>
    <path
      d="M65 48.3l.4 1.4-2.7.8-.4-1.4c.3-.2.3-.5.1-1.2l-.7-2.1c-.2-.5-.2-.7-.7-.7l-.4-1.3 2.2-.7.2.6c.2-.5.5-.8.9-.9l.3-.1.6 2-.3.1c-.7.2-.8.7-.6 1.6l.4 1.2c.2.4.3.7.7.7z"
      class="st109"
    />
    <path
      d="M62.7 52.7c-1 0-1.8-.6-2.1-1.6l-.4-1.4v-1.4l-.5-1.5c-.4-.3-.7-.7-.8-1.1l-.4-1.3a2 2 0 01.2-1.7c.3-.5.7-.9 1.3-1.1l2.2-.7.4-.1.7-.3.6-.1c1.1-.2 2.2.5 2.5 1.5l.6 2a2.2 2.2 0 01-.7 2.4l.1.2c.4.3.7.7.8 1.1l.4 1.4c.4 1.2-.3 2.4-1.5 2.8l-2.7.8-.7.1z"
      class="st109"
    />
  </g>
  <g>
    <path
      d="M70.3 41.6l.7-.2.4 1.3-.7.2.7 2.3c.2.8.4 1 1 .9h.1l.4 1.2-.7.4c-1.3.4-1.8-.4-2.3-1.8l-.8-2.4-.3.1-.4-1.3.3-.1-.4-1.2 1.5-1 .5 1.6z"
      class="st109"
    />
    <path
      d="M71.5 50c-2.7 0-3.5-2.6-3.8-3.5l-.4-1.4a2 2 0 01-.6-1l-.4-1.3v-1.2c-.3-.9.1-2 .9-2.5l1.5-1c.6-.4 1.3-.5 2-.3s1.2.8 1.4 1.4c.6.3 1 .7 1.2 1.4l.4 1.3a2 2 0 01-.2 1.7l-.1.1.1.2c.6.3 1 .7 1.2 1.4l.4 1.2c.3.9-.1 2-.9 2.5-.4.3-.9.5-1.3.6a3 3 0 01-1.4.4z"
      class="st109"
    />
  </g>
  <g>
    <path
      d="M78 43.5c.5 1.5 0 2.3-1.7 2.8s-2.6.1-3-1.4l-.6-1.9c-.5-1.5 0-2.3 1.7-2.9 1.7-.5 2.6-.1 3 1.4l.6 2zm-3.2-2.1c-.5.2-.6.5-.4 1.2l.5 1.7c.2.7.5.9 1 .8.5-.2.6-.5.4-1.2l-.5-1.7c-.2-.7-.5-.9-1-.8z"
      class="st109"
    />
    <path
      d="M75.1 48.8c-1.1 0-3.1-.4-4-3.1l-.6-1.9c-.8-2.7.4-4.8 3.2-5.6l1.9-.3c1.1 0 3.1.4 4 3.2l.6 1.9c.8 2.7-.4 4.8-3.2 5.6l-1.9.2zm-.1-5.7l.2.5.3-.1.2-.1-.2-.4h-.2l-.3.1z"
      class="st109"
    />
  </g>
  <g>
    <path
      d="M85.7 41.6l.5 1.5-3.1 1-.5-1.5c.4-.2.4-.5.2-1.1l-1.3-4.3c-.2-.6-.3-.8-.8-.8l-.5-1.5 3.6-1.1c2.2-.7 3.3-.1 3.9 2 .8 2.4.5 3.6-1.9 4.3l-1 .3.1.3c.2.7.3 1 .8.9zm-.7-3.4c.8-.3 1.1-.5.8-1.5-.3-1-.7-1.1-1.5-.9l-.8.3.8 2.4.7-.3z"
      class="st109"
    />
    <path
      d="M83.1 46.4c-1 0-1.8-.6-2.1-1.6l-.5-1.5c-.2-.5-.1-1 .1-1.5l-1.1-3.5c-.4-.3-.7-.7-.9-1.2l-.5-1.5c-.4-1.2.3-2.4 1.5-2.8l3.6-1.1c.8-.2 1.5-.4 2.1-.4 1.5 0 3.6.7 4.6 3.9.6 2.1 1.1 4.9-1.9 6.5l.3.9a2 2 0 01-.2 1.7c-.3.5-.7.9-1.3 1.1l-3.1 1h-.6z"
      class="st109"
    />
  </g>
  <g>
    <path
      d="M89 32.1a1 1 0 011.4.7c.2.6-.2 1.2-.7 1.4-.6.2-1.2-.2-1.4-.7-.2-.5.1-1.2.7-1.4zm3.9 7.5l.4 1.4-2.7.8-.4-1.4c.3-.2.3-.5.1-1.2l-.7-2.1c-.2-.5-.2-.7-.7-.7l-.4-1.4 2.3-.7 1.4 4.5c.2.5.3.8.7.8z"
      class="st109"
    />
    <path
      d="M90.6 44c-.4 0-.7-.1-1-.3-.5-.3-.9-.7-1.1-1.3l-.4-1.4v-1.4l-.5-1.5c-.4-.3-.7-.7-.8-1.1l-.4-1.4-.1-1-.2-.4c-.3-.8-.2-1.7.2-2.5s1.1-1.4 2-1.7l1-.2a3.2 3.2 0 013.3 3.3l.3.6 1.3 4.1c.4.3.7.7.8 1.1l.4 1.4a2 2 0 01-.2 1.7c-.3.5-.7.9-1.3 1.1l-2.7.8-.6.1zm-1.2-11.9l-.4.1a1 1 0 00-.6.5v.1l1.6-.5c-.2-.2-.4-.2-.6-.2z"
      class="st109"
    />
  </g>
  <g>
    <path
      d="M96.8 38.5c.5-.2.7-.6.5-1.2l1.9-.6.5 1.6c-.6.7-1.5 1.3-2.4 1.6-1.9.6-3 .1-3.5-1.6l-.7-2.2c-.5-1.7 0-2.7 2-3.3 1.9-.6 2.9-.1 3.4 1.6l.5 1.5-3.5 1.1.2.6c.2.7.5 1 1.1.9zm-1.7-2.7l1.6-.5-.1-.3c-.2-.7-.6-1-1.1-.8-.6.2-.7.6-.5 1.4l.1.2z"
      class="st109"
    />
    <path
      d="M95.9 42.3c-1.2 0-3.3-.4-4.2-3.4l-.7-2.1c-.4-1.4-.9-4.7 3.4-6.1l2-.3c1.2 0 3.3.4 4.2 3.4l.5 1.5.1.4.1.3.5 1.6c.2.7.1 1.5-.4 2.1a7 7 0 01-3.5 2.3l-2 .3z"
      class="st109"
    />
  </g>
  <g>
    <path
      d="M103.3 36.3l.4 1.4-2.7.8-.4-1.4c.3-.2.3-.5.1-1.2l-.7-2.1c-.2-.5-.2-.7-.7-.7l-.4-1.3 2.2-.7.2.6c.2-.5.5-.8.9-.9l.3-.1.6 2-.3.1c-.7.2-.8.7-.6 1.6l.4 1.2c.2.5.3.8.7.7z"
      class="st109"
    />
    <path
      d="M101 40.8c-.4 0-.7-.1-1-.3-.5-.3-.9-.7-1.1-1.3l-.4-1.4v-1.4l-.5-1.5c-.4-.3-.7-.7-.8-1.1l-.4-1.3c-.4-1.2.3-2.4 1.5-2.8l2.2-.7.4-.1.7-.3.5-.1c1.1-.2 2.2.5 2.6 1.5l.6 2a2.2 2.2 0 01-.7 2.4l.1.2c.4.3.7.7.8 1.1l.4 1.4a2 2 0 01-.2 1.7c-.3.5-.7.9-1.3 1.1l-2.7.8-.7.1z"
      class="st109"
    />
  </g>
  <g>
    <path
      d="M20.1 83c.6-.4.6-.8.3-1.7l-2.1-6.6c-.3-.9-.4-1.3-1.2-1.2l-.7-2.3 9.8-3 1.4 4.4-2.9.9v-.1c-.3-1.1-.9-1.3-2-1l-1.3.4.9 2.9 3.7-1.2.7 2.4-3.7 1 .7 2.3c.3 1 .5 1.4 1.2 1.2l.7 2.4-4.8 1.5-.7-2.3z"
      class="st109"
    />
    <path
      d="M20.9 88.2a3 3 0 01-2.8-2l-.7-2.4a3 3 0 01.1-2.1l-1.8-5.8a3 3 0 01-1.3-1.6l-.7-2.3c-.5-1.5.4-3.2 1.9-3.6l9.8-3c1.5-.5 3.2.4 3.6 1.9l1.4 4.4c.2.7.2 1.5-.2 2.2-.2.5-.6.8-1 1.1l.3 1c.2.7.2 1.5-.2 2.2a3 3 0 01-1.7 1.4l-.4.1.5.9.7 2.4c.5 1.5-.4 3.2-1.9 3.6l-4.8 1.5-.8.1z"
      class="st109"
    />
  </g>
  <g>
    <path
      d="M35.3 78.5l.7 2.1-4.3 1.4-.7-2.1c.5-.3.5-.8.2-1.8l-1-3.3c-.2-.8-.4-1.1-1.1-1.1l-.7-2.1 3.4-1.1.3.9a2 2 0 011.4-1.4l.5-.1 1 3.1-.5.1c-1.1.3-1.3 1.1-.9 2.5l.6 1.8c.3.8.4 1.2 1.1 1.1z"
      class="st109"
    />
    <path
      d="M31.7 84.9c-.5 0-.9-.1-1.3-.3a3 3 0 01-1.4-1.7l-.7-2.1c-.2-.7-.2-1.4.1-2l-.8-2.8c-.6-.4-1-.9-1.2-1.6l-.7-2.1c-.2-.7-.2-1.5.2-2.2a3 3 0 011.7-1.4l3.4-1.1.7-.1 1-.4.7-.2h.1c1.4-.3 2.9.6 3.3 2l1 3.1a3 3 0 01-.3 2.3 2 2 0 01-.9.9l.3.8c.6.4 1 .9 1.2 1.6l.7 2.1c.5 1.5-.4 3.2-1.9 3.6l-4.2 1.3-1 .3z"
      class="st109"
    />
  </g>
  <g>
    <path
      d="M36 64.9c.9-.3 1.9.2 2.2 1.1.3.9-.3 1.9-1.2 2.2-.9.3-1.9-.3-2.2-1.1a2 2 0 011.2-2.2zm6.1 11.5l.7 2.1-4.2 1.3-.7-2.1c.5-.3.5-.8.2-1.8l-1-3.3c-.2-.8-.4-1.1-1.1-1.1l-.7-2.1 3.6-1.1 2.2 6.9c.2.9.3 1.2 1 1.2z"
      class="st109"
    />
    <path
      d="M38.5 82.7a3 3 0 01-2.8-2l-.7-2.1c-.2-.7-.2-1.4.1-2l-.8-2.7c-.6-.4-1-.9-1.2-1.6l-.7-2.1c-.2-.5-.2-1-.1-1.5l-.3-.8a5 5 0 01.3-3.6A4.7 4.7 0 0135 62l1.4-.2a4.6 4.6 0 014.6 4.6l.4.9 2 6.6c.5.4 1 .9 1.2 1.6l.7 2.1c.5 1.5-.4 3.2-1.9 3.6l-4.2 1.3c-.1.2-.4.2-.7.2zm-1.9-17.3l-.4.1a1 1 0 00-.8.8l1.9-.6c-.1-.2-.4-.3-.7-.3z"
      class="st109"
    />
  </g>
  <g>
    <path
      d="M48.1 74.7c.8-.3 1.1-.9.8-1.9v-.1l2.9-.9.8 2.5c-1 1.2-2.3 2-3.8 2.5-3 .9-4.6.2-5.4-2.4L42.3 71c-.8-2.6.1-4.1 3.1-5 2.9-.9 4.5-.1 5.3 2.4l.7 2.3-5.4 1.8.3.9c.4 1.1.9 1.6 1.8 1.3zm-2.7-4.1l2.5-.8-.1-.4c-.3-1.1-.9-1.5-1.8-1.2-.9.3-1.1 1-.7 2.2l.1.2z"
      class="st109"
    />
    <path
      d="M46.6 80.1c-1.7 0-4.7-.6-6-4.8l-1.1-3.4c-.8-2.4-1.1-6.8 5-8.7 1.1-.3 2-.5 2.9-.5 1.7 0 4.7.6 6 4.8l.7 2.3.1.6.2.5.8 2.5c.3.9.1 2-.5 2.7a10.3 10.3 0 01-5.2 3.4c-1 .5-2 .6-2.9.6z"
      class="st109"
    />
  </g>
  <g>
    <path
      d="M58.1 71.4l.7 2.1-4.2 1.3-.7-2.1c.5-.2.5-.8.2-1.8l-1-3.3c-.2-.8-.4-1.1-1.1-1.1l-.6-2.1 3.6-1.1.2.7c.7-.7 1.4-1.2 2.1-1.4 2.4-.8 3.5.2 4.3 2.7l1 3.2v.1c.3 1 .5 1.4 1.1 1.2l.7 2.1-3.3 1c-.5-.7-.9-1.7-1.3-3.1l-1-3.3c-.4-1.3-.9-1.8-1.9-1.5-.4.1-.8.4-1.1.9l1.3 4.3c.2.9.3 1.3 1 1.2z"
      class="st109"
    />
    <path
      d="M54.5 77.8c-.5 0-.9-.1-1.3-.3a3 3 0 01-1.4-1.7l-.7-2.1c-.2-.7-.2-1.4.1-2l-.8-2.7c-.6-.4-1-.9-1.2-1.6l-.6-2.1c-.5-1.5.4-3.2 1.9-3.6l3.6-1.1.9-.1 1.5-.7c.8-.3 1.6-.4 2.3-.4 2.7 0 4.6 1.7 5.6 5l.9 2.9c.6.4 1 .9 1.3 1.6L67 71c.2.7.2 1.5-.2 2.2a3 3 0 01-1.7 1.4l-3.3 1c-.4.1-.8.2-1.2.1a2 2 0 01-1 .6l-4.2 1.3a3 3 0 01-.9.2z"
      class="st109"
    />
  </g>
  <g>
    <path
      d="M63.8 64.8l-.2-.5c-.2-.8-.4-1.5-.3-2.2.2-1.1.9-1.9 2.3-2.3.9-.3 1.8-.3 2.8-.1l-.3-.8c-.3-.9-.5-1.2-1.1-1.2l-.7-2.1 3.6-1.1 3.4 10.8c.2.8.4 1.1 1 1.1l.7 2.1-3.6 1.1-.2-.7c-.7.8-1.5 1.3-2.4 1.6-2.3.7-3.5-.3-4.2-2.8l-.8-2.9zm5.8 3.1c.4-.1.8-.4 1.1-.9L69 61.7h-1.5c-1 .3-1.1 1.1-.6 2.5l.7 2.1c.4 1.4.9 1.9 2 1.6z"
      class="st109"
    />
    <path
      d="M67.7 73.6c-1.9 0-4.4-.9-5.7-5l-1.1-3.4c-.3-.8-.7-2.1-.4-3.5a5.5 5.5 0 013.5-4.3l-.3-1c-.2-.7-.2-1.5.2-2.2a3 3 0 011.7-1.4l3.6-1.1c1.5-.5 3.2.4 3.6 1.9L76 64c.6.4 1 .9 1.2 1.6l.7 2.1c.5 1.5-.4 3.2-1.9 3.6l-3.6 1.1-.8.1-1.7.8a9 9 0 01-2.2.3z"
      class="st109"
    />
  </g>
  <g>
    <path
      d="M75.7 64.5l2.9-.9c.3 1 .8 1.4 1.5 1.1.6-.2.9-.7.7-1.3-.2-.6-.7-.8-1.7-.8-.8 0-1.8.1-2.7-.1-1-.2-1.6-.8-2-1.9-.6-2 .5-3.7 3-4.5 1.3-.4 2.8-.5 4.3-.3l.8 2.6-2.7.8v-.1c-.3-.9-.8-1.2-1.5-1-.6.2-.9.7-.7 1.3.3 1 1.5.7 3.4.7 1.8 0 2.6.6 3.1 2.2.6 2.1-.3 3.6-2.8 4.4a13 13 0 01-4.8.6l-.8-2.8z"
      class="st109"
    />
    <path
      d="M77.4 70.2h-1a3 3 0 01-2.6-2l-.9-2.8c-.2-.6-.2-1.1 0-1.7-.5-.6-1-1.4-1.2-2.3a6 6 0 01.7-5.2 7.8 7.8 0 014.2-3c1.7-.5 3.6-.7 5.5-.4a3 3 0 012.4 2l.8 2.6c.1.4.2.9.1 1.4.7.7 1.2 1.5 1.5 2.6a6 6 0 01-.6 5.1 7.5 7.5 0 01-4.1 2.9 13 13 0 01-4.8.8z"
      class="st109"
    />
  </g>
  <g>
    <path
      d="M85.8 62.8c.5-.3.5-.8.2-1.8l-2.2-7.1c-.2-.8-.4-1.1-1.1-1.1l-.7-2.1 3.6-1.1L87 54c.7-.7 1.4-1.2 2.1-1.4 2.4-.8 3.5.2 4.3 2.7l1 3.2v.1c.3 1 .5 1.4 1.1 1.2l.7 2.1-3.3 1c-.5-.7-.9-1.7-1.3-3.1l-1-3.3c-.4-1.3-.9-1.8-1.9-1.5-.4.1-.8.4-1.1.9l1.3 4.3c.3.9.5 1.2 1.1 1.2l.7 2.1-4.2 1.3-.7-2z"
      class="st109"
    />
    <path
      d="M86.5 67.8c-.5 0-.9-.1-1.3-.3a3 3 0 01-1.4-1.7l-.7-2.1c-.2-.7-.2-1.4.1-2l-2-6.5c-.6-.4-1-.9-1.2-1.6l-.7-2.1c-.2-.7-.2-1.5.2-2.2a3 3 0 011.7-1.4l3.6-1.1c.7-.2 1.5-.2 2.2.2a3 3 0 011.4 1.7l.3 1 1.9-.3c2.7 0 4.6 1.7 5.6 5l.9 2.9c.6.4 1 .9 1.3 1.6L99 61c.2.7.2 1.5-.2 2.2a3 3 0 01-1.7 1.4l-3.3 1c-.4.1-.8.2-1.2.1-.3.3-.7.5-1 .6l-4.2 1.3c-.3.2-.6.2-.9.2z"
      class="st109"
    />
  </g>
  <g>
    <path
      d="M95.3 46.5c.9-.3 1.9.2 2.2 1.1.3.9-.3 1.9-1.2 2.2-.9.3-1.9-.3-2.2-1.1-.2-1 .3-2 1.2-2.2zm6.1 11.4l.7 2.1-4.2 1.3-.7-2.1c.5-.3.5-.8.2-1.8l-1-3.3c-.4-.7-.5-1.1-1.2-1.1l-.6-2.1 3.6-1.1 2.2 6.9c.2.9.3 1.3 1 1.2z"
      class="st109"
    />
    <path
      d="M97.8 64.3a3 3 0 01-2.8-2l-.7-2.1c-.2-.7-.2-1.4.1-2l-.8-2.7c-.6-.4-1-.9-1.2-1.6l-.6-2.1c-.2-.5-.2-1-.1-1.5l-.3-.8c-.8-2.4.6-5.1 3-5.8l1.4-.2a4.6 4.6 0 014.6 4.6l.4.9 2 6.6c.5.4 1 .9 1.2 1.6l.7 2.1c.5 1.5-.4 3.2-1.9 3.6l-4.2 1.3-.8.1zm-1.9-17.4l-.4.1-.7.5-.1.3 1.9-.6c-.2-.1-.4-.3-.7-.3z"
      class="st109"
    />
  </g>
  <g>
    <path
      d="M111.7 52.7c.8 2.7.7 4.3-1.8 5-.9.3-1.8.3-2.8.1l.2.8c.3.9.5 1.2 1.1 1.2l.7 2.1-4.2 1.3-.7-2.1c.5-.2.5-.7.2-1.8l-2.2-7c-.2-.8-.4-1.1-1.1-1.1l-.7-2.1L104 48l.2.7c.7-.8 1.5-1.3 2.4-1.6 2.3-.7 3.5.3 4.3 2.8l.8 2.8zm-5.7-3.1c-.4.1-.8.4-1.2.9l1.6 5.3c.6.1 1.1.1 1.6 0 1-.3 1.1-1.1.6-2.5l-.7-2.1c-.4-1.4-.9-1.9-1.9-1.6z"
      class="st109"
    />
    <path
      d="M104.9 66.2c-.5 0-.9-.1-1.3-.3a3 3 0 01-1.4-1.7l-.7-2.1c-.2-.7-.2-1.4.1-2l-2-6.4c-.6-.4-1-.9-1.2-1.6l-.7-2.1c-.2-.7-.2-1.5.2-2.2a3 3 0 011.7-1.4l3.6-1.1.8-.1c.6-.4 1.1-.6 1.7-.8.8-.2 1.5-.4 2.2-.4 1.9 0 4.4.9 5.7 5l.9 2.9c1.6 5.1-.5 7.4-2.9 8.4l.3.9c.2.7.2 1.5-.2 2.2a3 3 0 01-1.7 1.4l-4.2 1.3-.9.1z"
      class="st109"
    />
  </g>
  <g>
    <path
      d="M117.4 43.6c-.4-.7-.7-1-1.2-1l-.7-2.3 4.7-1.5.7 2.3c-.4.2-.5.4-.4.9l.2.6 3.2 6.3-1.5-10.8 2.5-.8 5 9.6-1.2-6.7-.1-.7c-.1-.4-.3-.6-.8-.6l-.7-2.3 4.1-1.3.7 2.3c-.5.4-.5.9-.4 1.7l1.6 11-3.9 1.2-3.9-7.3 1.2 8.2-3.9 1.2-5.2-10z"
      class="st109"
    />
    <path
      d="M122.7 56.5a3 3 0 01-2.6-1.5l-5.1-9.7c-.7-.3-1.3-1-1.6-1.8l-.7-2.3c-.5-1.5.4-3.2 1.9-3.6l4.7-1.5c.4-.1.8-.2 1.2-.1.3-.3.7-.5 1-.6l2.5-.8c.4-.1.8-.2 1.2-.1l1-.6 4.1-1.3c.7-.2 1.5-.2 2.2.2a3 3 0 011.4 1.7l.7 2.3a3 3 0 01-.3 2.3l1.6 10.8c.2 1.4-.6 2.8-2 3.2l-3.9 1.2c-.5.2-1 .2-1.5.1a5 5 0 01-1.2.8l-3.9 1.2-.7.1z"
      class="st109"
    />
  </g>
  <g>
    <path
      d="M138.5 48.9c-1.6.5-3-.3-3.6-2.1-.7-2.2.9-3.6 4.3-6l-.2-.6c-.3-.8-.7-1.1-1.4-.8-.7.2-.9.7-.7 1.5l.1.3-2.9.9-.8-2.4c1.2-1.2 2.5-2 3.8-2.4 2.8-.9 4.2-.1 4.9 2.3l1.1 3.5c.3 1 .5 1.4 1.2 1.3l.7 2.1-3.5 1.1-.3-1.1a4.7 4.7 0 01-2.7 2.4zm-.6-3.3c.2.5.6.7 1.1.6.5-.1 1-.7 1.4-1.5l-.6-1.8c-1.5 1.2-2.2 1.9-1.9 2.7z"
      class="st109"
    />
    <path
      d="M137.5 52a5.6 5.6 0 01-5.4-4.2 5.7 5.7 0 01-.1-3.4c-.3-.3-.6-.7-.7-1.2l-.8-2.4a3 3 0 01.7-2.9c1.5-1.5 3.2-2.5 5-3.1 1-.3 2-.5 2.8-.5 2 0 4.5.8 5.8 4.7l1 3.2c.6.4 1 .9 1.3 1.6l.7 2.1c.2.7.2 1.5-.2 2.2a3 3 0 01-1.7 1.4l-3.5 1.1-1 .1a6.8 6.8 0 01-3.9 1.3z"
      class="st109"
    />
  </g>
  <g>
    <path
      d="M142.8 34.1l-.7-2.1 3.6-1.1 3.3 10.6c.3.9.4 1.3 1.1 1.2l.7 2.1-4.2 1.3-.7-2.1c.5-.2.5-.8.2-1.8l-2.2-7c-.3-.7-.4-1.1-1.1-1.1z"
      class="st109"
    />
    <path
      d="M146.5 49.1a3 3 0 01-2.8-2L143 45c-.2-.7-.2-1.4.1-2l-2-6.4c-.6-.4-1-.9-1.2-1.6l-.7-2.1c-.2-.7-.2-1.5.2-2.2a3 3 0 011.7-1.4l3.6-1.1c1.5-.5 3.2.4 3.6 1.9l3.2 10.3c.5.4 1 .9 1.2 1.6l.7 2.1c.5 1.5-.4 3.2-1.9 3.6l-4.2 1.3-.8.1z"
      class="st109"
    />
  </g>
  <g>
    <path
      d="M148.6 32.2l-.7-2.1 3.6-1.1 2.4 7.7.7-2.1c.2-.5.2-1 0-1.5l-.3-.8 3.8-1.2.7 2.1c-.4.2-.7.5-.9 1.1l-.9 2 2.7 2.6c.4.3.7.5 1.3.5l.7 2.1-2.5.8a5 5 0 01-1.4-1l-3.4-3.3.5 1.7c.3.9.4 1.2 1.1 1.2l.7 2.1-4.2 1.3-.7-2.1c.5-.3.5-.7.2-1.8l-2.2-7.1c-.3-.7-.5-1-1.2-1.1z"
      class="st109"
    />
    <path
      d="M152.4 47.3c-.5 0-.9-.1-1.3-.3a3 3 0 01-1.4-1.7l-.7-2.1c-.2-.7-.2-1.4.1-2l-2-6.4c-.6-.4-1-.9-1.2-1.6l-.7-2.1c-.2-.7-.2-1.5.2-2.2a3 3 0 011.7-1.4l3.6-1.1c1.5-.5 3.2.4 3.6 1.9l.3 1 2.7-.8c1.5-.5 3.2.4 3.6 1.9l.7 2.1c.4 1.2-.1 2.5-1.1 3.2l.9.9c1.1.1 2 .9 2.4 2l.7 2.1c.5 1.5-.4 3.2-1.9 3.6l-2.6.7c-.4.1-.9.2-1.3.1-.3.3-.7.6-1.2.7l-4.2 1.3a3 3 0 01-.9.2zm9.3-10.6l-1.9 2.2 1.9-2.2c0 .1 0 0 0 0z"
      class="st109"
    />
  </g>
  <g>
    <path
      d="M47.4 53.6l.5 1.5-3.1 1-.5-1.5c.4-.2.4-.5.2-1.1l-1.3-4.3c-.2-.6-.3-.8-.8-.8l-.5-1.5 3.6-1.1c2.2-.7 3.3-.1 3.9 2 .8 2.4.5 3.6-1.9 4.3l-1 .3.1.3c.2.6.3.9.8.9zm-.7-3.4c.8-.3 1.1-.5.8-1.5-.3-1-.7-1.1-1.5-.9l-.8.2.8 2.4.7-.2z"
      class="st110"
    />
  </g>
  <g>
    <path
      d="M50.7 44.1a1 1 0 011.4.7c.2.6-.2 1.2-.7 1.4-.6.2-1.2-.2-1.4-.7-.2-.6.1-1.3.7-1.4zm4 7.4l.4 1.4-2.7.8-.4-1.4c.3-.2.3-.5.1-1.2l-.7-2.1c-.2-.5-.2-.7-.7-.7l-.4-1.3 2.3-.7 1.4 4.5c.1.5.2.7.7.7z"
      class="st110"
    />
  </g>
  <g>
    <path
      d="M58.5 50.4c.5-.2.7-.6.5-1.2l1.9-.6.5 1.6c-.6.7-1.5 1.3-2.4 1.6-1.9.6-3 .1-3.5-1.6l-.7-2.2c-.5-1.7 0-2.7 2-3.3 1.9-.6 2.9-.1 3.4 1.6l.5 1.5-3.5 1.1.2.6c.2.8.5 1.1 1.1.9zm-1.7-2.7l1.6-.5-.1-.3c-.2-.7-.6-1-1.1-.8-.6.2-.7.6-.5 1.4l.1.2z"
      class="st110"
    />
  </g>
  <g>
    <path
      d="M65 48.3l.4 1.4-2.7.8-.4-1.4c.3-.2.3-.5.1-1.2l-.7-2.1c-.2-.5-.2-.7-.7-.7l-.4-1.3 2.2-.7.2.6c.2-.5.5-.8.9-.9l.3-.1.6 2-.3.1c-.7.2-.8.7-.6 1.6l.4 1.2c.2.4.3.7.7.7z"
      class="st110"
    />
  </g>
  <g>
    <path
      d="M70.3 41.6l.7-.2.4 1.3-.7.2.7 2.3c.2.8.4 1 1 .9h.1l.4 1.2-.7.4c-1.3.4-1.8-.4-2.3-1.8l-.8-2.4-.3.1-.4-1.3.3-.1-.4-1.2 1.5-1 .5 1.6z"
      class="st110"
    />
  </g>
  <g>
    <path
      d="M78 43.5c.5 1.5 0 2.3-1.7 2.8s-2.6.1-3-1.4l-.6-1.9c-.5-1.5 0-2.3 1.7-2.9 1.7-.5 2.6-.1 3 1.4l.6 2zm-3.2-2.1c-.5.2-.6.5-.4 1.2l.5 1.7c.2.7.5.9 1 .8.5-.2.6-.5.4-1.2l-.5-1.7c-.2-.7-.5-.9-1-.8z"
      class="st110"
    />
  </g>
  <g>
    <path
      d="M85.7 41.6l.5 1.5-3.1 1-.5-1.5c.4-.2.4-.5.2-1.1l-1.3-4.3c-.2-.6-.3-.8-.8-.8l-.5-1.5 3.6-1.1c2.2-.7 3.3-.1 3.9 2 .8 2.4.5 3.6-1.9 4.3l-1 .3.1.3c.2.7.3 1 .8.9zm-.7-3.4c.8-.3 1.1-.5.8-1.5-.3-1-.7-1.1-1.5-.9l-.8.3.8 2.4.7-.3z"
      class="st110"
    />
  </g>
  <g>
    <path
      d="M89 32.1a1 1 0 011.4.7c.2.6-.2 1.2-.7 1.4-.6.2-1.2-.2-1.4-.7-.2-.5.1-1.2.7-1.4zm3.9 7.5l.4 1.4-2.7.8-.4-1.4c.3-.2.3-.5.1-1.2l-.7-2.1c-.2-.5-.2-.7-.7-.7l-.4-1.4 2.3-.7 1.4 4.5c.2.5.3.8.7.8z"
      class="st110"
    />
  </g>
  <g>
    <path
      d="M96.8 38.5c.5-.2.7-.6.5-1.2l1.9-.6.5 1.6c-.6.7-1.5 1.3-2.4 1.6-1.9.6-3 .1-3.5-1.6l-.7-2.2c-.5-1.7 0-2.7 2-3.3 1.9-.6 2.9-.1 3.4 1.6l.5 1.5-3.5 1.1.2.6c.2.7.5 1 1.1.9zm-1.7-2.7l1.6-.5-.1-.3c-.2-.7-.6-1-1.1-.8-.6.2-.7.6-.5 1.4l.1.2z"
      class="st110"
    />
  </g>
  <g>
    <path
      d="M103.3 36.3l.4 1.4-2.7.8-.4-1.4c.3-.2.3-.5.1-1.2l-.7-2.1c-.2-.5-.2-.7-.7-.7l-.4-1.3 2.2-.7.2.6c.2-.5.5-.8.9-.9l.3-.1.6 2-.3.1c-.7.2-.8.7-.6 1.6l.4 1.2c.2.5.3.8.7.7z"
      class="st110"
    />
  </g>
  <g>
    <path
      d="M20.1 83c.6-.4.6-.8.3-1.7l-2.1-6.6c-.3-.9-.4-1.3-1.2-1.2l-.7-2.3 9.8-3 1.4 4.4-2.9.9v-.1c-.3-1.1-.9-1.3-2-1l-1.3.4.9 2.9 3.7-1.2.7 2.4-3.7 1 .7 2.3c.3 1 .5 1.4 1.2 1.2l.7 2.4-4.8 1.5-.7-2.3z"
      class="st110"
    />
  </g>
  <g>
    <path
      d="M35.3 78.5l.7 2.1-4.3 1.4-.7-2.1c.5-.3.5-.8.2-1.8l-1-3.3c-.2-.8-.4-1.1-1.1-1.1l-.7-2.1 3.4-1.1.3.9a2 2 0 011.4-1.4l.5-.1 1 3.1-.5.1c-1.1.3-1.3 1.1-.9 2.5l.6 1.8c.3.8.4 1.2 1.1 1.1z"
      class="st110"
    />
  </g>
  <g>
    <path
      d="M36 64.9c.9-.3 1.9.2 2.2 1.1.3.9-.3 1.9-1.2 2.2-.9.3-1.9-.3-2.2-1.1a2 2 0 011.2-2.2zm6.1 11.5l.7 2.1-4.2 1.3-.7-2.1c.5-.3.5-.8.2-1.8l-1-3.3c-.2-.8-.4-1.1-1.1-1.1l-.7-2.1 3.6-1.1 2.2 6.9c.2.9.3 1.2 1 1.2z"
      class="st110"
    />
  </g>
  <g>
    <path
      d="M48.1 74.7c.8-.3 1.1-.9.8-1.9v-.1l2.9-.9.8 2.5c-1 1.2-2.3 2-3.8 2.5-3 .9-4.6.2-5.4-2.4L42.3 71c-.8-2.6.1-4.1 3.1-5 2.9-.9 4.5-.1 5.3 2.4l.7 2.3-5.4 1.8.3.9c.4 1.1.9 1.6 1.8 1.3zm-2.7-4.1l2.5-.8-.1-.4c-.3-1.1-.9-1.5-1.8-1.2-.9.3-1.1 1-.7 2.2l.1.2z"
      class="st110"
    />
  </g>
  <g>
    <path
      d="M58.1 71.4l.7 2.1-4.2 1.3-.7-2.1c.5-.2.5-.8.2-1.8l-1-3.3c-.2-.8-.4-1.1-1.1-1.1l-.6-2.1 3.6-1.1.2.7c.7-.7 1.4-1.2 2.1-1.4 2.4-.8 3.5.2 4.3 2.7l1 3.2v.1c.3 1 .5 1.4 1.1 1.2l.7 2.1-3.3 1c-.5-.7-.9-1.7-1.3-3.1l-1-3.3c-.4-1.3-.9-1.8-1.9-1.5-.4.1-.8.4-1.1.9l1.3 4.3c.2.9.3 1.3 1 1.2z"
      class="st110"
    />
  </g>
  <g>
    <path
      d="M63.8 64.8l-.2-.5c-.2-.8-.4-1.5-.3-2.2.2-1.1.9-1.9 2.3-2.3.9-.3 1.8-.3 2.8-.1l-.3-.8c-.3-.9-.5-1.2-1.1-1.2l-.7-2.1 3.6-1.1 3.4 10.8c.2.8.4 1.1 1 1.1l.7 2.1-3.6 1.1-.2-.7c-.7.8-1.5 1.3-2.4 1.6-2.3.7-3.5-.3-4.2-2.8l-.8-2.9zm5.8 3.1c.4-.1.8-.4 1.1-.9L69 61.7h-1.5c-1 .3-1.1 1.1-.6 2.5l.7 2.1c.4 1.4.9 1.9 2 1.6z"
      class="st110"
    />
  </g>
  <g>
    <path
      d="M75.7 64.5l2.9-.9c.3 1 .8 1.4 1.5 1.1.6-.2.9-.7.7-1.3-.2-.6-.7-.8-1.7-.8-.8 0-1.8.1-2.7-.1-1-.2-1.6-.8-2-1.9-.6-2 .5-3.7 3-4.5 1.3-.4 2.8-.5 4.3-.3l.8 2.6-2.7.8v-.1c-.3-.9-.8-1.2-1.5-1-.6.2-.9.7-.7 1.3.3 1 1.5.7 3.4.7 1.8 0 2.6.6 3.1 2.2.6 2.1-.3 3.6-2.8 4.4a13 13 0 01-4.8.6l-.8-2.8z"
      class="st110"
    />
  </g>
  <g>
    <path
      d="M85.8 62.8c.5-.3.5-.8.2-1.8l-2.2-7.1c-.2-.8-.4-1.1-1.1-1.1l-.7-2.1 3.6-1.1L87 54c.7-.7 1.4-1.2 2.1-1.4 2.4-.8 3.5.2 4.3 2.7l1 3.2v.1c.3 1 .5 1.4 1.1 1.2l.7 2.1-3.3 1c-.5-.7-.9-1.7-1.3-3.1l-1-3.3c-.4-1.3-.9-1.8-1.9-1.5-.4.1-.8.4-1.1.9l1.3 4.3c.3.9.5 1.2 1.1 1.2l.7 2.1-4.2 1.3-.7-2z"
      class="st110"
    />
  </g>
  <g>
    <path
      d="M95.3 46.5c.9-.3 1.9.2 2.2 1.1.3.9-.3 1.9-1.2 2.2-.9.3-1.9-.3-2.2-1.1-.2-1 .3-2 1.2-2.2zm6.1 11.4l.7 2.1-4.2 1.3-.7-2.1c.5-.3.5-.8.2-1.8l-1-3.3c-.4-.7-.5-1.1-1.2-1.1l-.6-2.1 3.6-1.1 2.2 6.9c.2.9.3 1.3 1 1.2z"
      class="st110"
    />
  </g>
  <g>
    <path
      d="M111.7 52.7c.8 2.7.7 4.3-1.8 5-.9.3-1.8.3-2.8.1l.2.8c.3.9.5 1.2 1.1 1.2l.7 2.1-4.2 1.3-.7-2.1c.5-.2.5-.7.2-1.8l-2.2-7c-.2-.8-.4-1.1-1.1-1.1l-.7-2.1L104 48l.2.7c.7-.8 1.5-1.3 2.4-1.6 2.3-.7 3.5.3 4.3 2.8l.8 2.8zm-5.7-3.1c-.4.1-.8.4-1.2.9l1.6 5.3c.6.1 1.1.1 1.6 0 1-.3 1.1-1.1.6-2.5l-.7-2.1c-.4-1.4-.9-1.9-1.9-1.6z"
      class="st110"
    />
  </g>
  <g>
    <path
      d="M117.4 43.6c-.4-.7-.7-1-1.2-1l-.7-2.3 4.7-1.5.7 2.3c-.4.2-.5.4-.4.9l.2.6 3.2 6.3-1.5-10.8 2.5-.8 5 9.6-1.2-6.7-.1-.7c-.1-.4-.3-.6-.8-.6l-.7-2.3 4.1-1.3.7 2.3c-.5.4-.5.9-.4 1.7l1.6 11-3.9 1.2-3.9-7.3 1.2 8.2-3.9 1.2-5.2-10z"
      class="st110"
    />
  </g>
  <g>
    <path
      d="M138.5 48.9c-1.6.5-3-.3-3.6-2.1-.7-2.2.9-3.6 4.3-6l-.2-.6c-.3-.8-.7-1.1-1.4-.8-.7.2-.9.7-.7 1.5l.1.3-2.9.9-.8-2.4c1.2-1.2 2.5-2 3.8-2.4 2.8-.9 4.2-.1 4.9 2.3l1.1 3.5c.3 1 .5 1.4 1.2 1.3l.7 2.1-3.5 1.1-.3-1.1a4.7 4.7 0 01-2.7 2.4zm-.6-3.3c.2.5.6.7 1.1.6.5-.1 1-.7 1.4-1.5l-.6-1.8c-1.5 1.2-2.2 1.9-1.9 2.7z"
      class="st110"
    />
  </g>
  <g>
    <path
      d="M142.8 34.1l-.7-2.1 3.6-1.1 3.3 10.6c.3.9.4 1.3 1.1 1.2l.7 2.1-4.2 1.3-.7-2.1c.5-.2.5-.8.2-1.8l-2.2-7c-.3-.7-.4-1.1-1.1-1.1z"
      class="st110"
    />
  </g>
  <g>
    <path
      d="M148.6 32.2l-.7-2.1 3.6-1.1 2.4 7.7.7-2.1c.2-.5.2-1 0-1.5l-.3-.8 3.8-1.2.7 2.1c-.4.2-.7.5-.9 1.1l-.9 2 2.7 2.6c.4.3.7.5 1.3.5l.7 2.1-2.5.8a5 5 0 01-1.4-1l-3.4-3.3.5 1.7c.3.9.4 1.2 1.1 1.2l.7 2.1-4.2 1.3-.7-2.1c.5-.3.5-.7.2-1.8l-2.2-7.1c-.3-.7-.5-1-1.2-1.1z"
      class="st110"
    />
  </g>
  <g>
    <path d="M110.3 104.8c4.3 1.5 4.9-1.4 0 0z" class="st108" />
  </g>
  <g>
    <defs>
      <path id="SVGID_3_" d="M12.1 53.7h161.4v59.5H12.1z" />
    </defs>
    <clipPath id="SVGID_4_">
      <use overflow="visible" xlink:href="#SVGID_3_" />
    </clipPath>
    <g clip-path="url(#SVGID_4_)">
      <path
        d="M176.2 82.8c-2.1-1.9-2.1-5.1-.8-7.5-.8-4.3-.4-8.3.2-12.7.2-1.6.5-3.3.4-4.9v-.1c-.5 0-.9 0-1.2.3-.1-.8.6-.9 1.2-.9l-.1-.9-.6-.9-.2-.2c-.4 0-.7-.2-.7-.6h.2l-.1-.1-.5-.5-8.8 2.7-17.9 5.7c-3.3 1.1-6.6 2.5-10 3.3-.7-2.4-.6-5.4-.6-7.9 0-2.6.1-5.2-.2-7.8a10 10 0 00-.8-3.4c-.7 4.2-.6 8.7-.4 12.9.1 1.9.6 4.4-.5 6.1-1.3 1.9-4.2 2.3-6.3 2.8a45 45 0 00-8 2.9c.3 0 .8.1.8.5 0 .5-1 .4-1.3.4-.9.1-1.9.5-2.7 1.1 1.2.3 2.9-1.6 3.9-.4-1.3.1-3.6 1.8-4.7.8.5-.5.5-1.3 1.1-1.6-.8 0-1.8.1-2.3.8 1.8-.3.7 1.3 0 2 2.1-.1 3.9-1.3 5.9-1.6-1.1 1.1-2.8 1.5-4.2 1.9l-4.9 1.3c-.4-.9.2-1.4.8-2a3 3 0 01-2-.4c-.1 1-.9 2 0 2.8-.9 0-2.5 1.5-3.2.4.5-.4.1-2.3-.8-2 .3.9.3 1.8.4 2.8-.9.1-2.8 1.4-3.6.4.5-.4.1-2.3-.8-2 .3.9.4 1.8.4 2.8a28 28 0 00-3.1.8c.2-.8.4-1.7-.4-2.3-.2.9 0 1.9-.4 2.7-.8-.2-1.8.7-2.4.4-.7-.3.1-1.7-.4-2.4-.9.2-.2 2.1-.4 2.8-.8-.1-1.1.5-1.8.5-1 0-.7-1-.5-1.6.2-.6.2-1.1-.5-.5-.7.5-.4 1.5-.1 2.2-.7 0-2.3 1.3-2.8.4.6-.2 0-1.7-.4-2v2.8c-.7-.2-1.6.7-2.1.4-.5-.3.1-1.7-.3-2.4-.7.7-.3 1.9-.4 2.8-.5-.1-1.7.7-2 .3-.3-.4.6-1.9-.3-1.8 0 .8.1 2.1-.8 2.5-1 .4-1.6-.6-1.8-1.4-.6-2.4.1-5.2.1-7.6 0-1.4-.3-2.7-.7-4-.2 2.7-.1 5.4-.1 8.1.1 2 .1 4.3-1.7 5.7-1.8 1.4-4.5 1.6-6.7 2-2.1.4-4.1 1-6.1 1.8-2.4 1-4.9 1.8-7.4 2.4-1.5-2.7.5-6.4-.8-9.1 0 2.7.1 5.4-.4 8.1-.2 1.3-.8 1.7-2 2-.9.2-1.8.6-2.8.7 0-.3.5-1.4-.3-1.2-.4.1-.1.7-.1 1.1-.1.7-.3.6-.5-.1-.2-.9-.2-1.7.1-2.6-2-1.2-4.4-1.9-6.5-2.8-2.1-1-4-2.2-5.4-3.9-1.4 4-5.6 3.9-8.9 5.4-.9.4-1.6 1-2.3 1.8.7.8.5 1.7.2 2.6-.2.6-.7 1.5-.3 2.2-1.5.5-3.6 1.1-3.6-1.1 0-1.3.4-3-.4-4.1-.2 1.5.5 3.7-.3 5-.3.4-1.4 1-1.9.6-.4-.4.4-.7.3-1.2-.1-.3-.3-.5-.6-.3-.4.2-.3 1.1-.3 1.5-1.3-.1-3-.6-4.3-.4a2 2 0 00-1.1 3.1c.4.5 1 .9.7 1.6-.1-.1-.4-.5-.6-.5-.2 0-.1.2-.2.2-1 .2-2 .3-3.1.3h-2.1l-.8-.2v.6l.4 3.3c2.4 0 4.9-.2 7.3-.1v4l-7.7-.3c.2 1.4-.9 3-.7 4.4 1.4.1 5.1-.2 6.4-.1 3.4.2 6.9.1 10.3.4 3.2.2 6.3.6 9.5.9l9.5.6c1.3.1 3 .1 4.5.5.7-.3 1.5-.5 2.4-.6 2.3-.3 4.7.1 7 .6l1.7.4 1.6.2a5 5 0 001.2-.2c2.8-.8 5.6-1.2 8.2-.4a6 6 0 013-.7 6 6 0 013.2.9l1.3 1c2.9 0 5.7.1 8.6.3 4.7-1.6 10.6-1.3 15.4-1.2 6.3.2 12.5 0 18.8.1l13.8.4c1.7.1 3.4.3 5 .7 6.2.2 12.5.2 18.8 0 5-.2 9.4-2 14.3-1.8l-.3-8.3c0-.9.2-1.7.5-2.5-.7-7.1-1.9-16.1.7-20.7zm-152 25.3h-2.8c.8-1.2-.8-3.5.8-4.4-.1.9 1.4.2 2 .4v4zm2-1.2c-.3-.3-1.1-3.1.4-2.8-.2.9.5 2.7-.4 2.8zm2-2c.5 0 .4-.7.8-.8.2 4-.3 4.5-.8.8zm27.2 3.2c.1-2-1.1-4.4.8-5.2-.3 1.7.7 4.8-.8 5.2zm12.8-9.6c.2.2.9 1.9 0 2-.1-.3-.3-.5-.8-.4-.1-.9.1-1.5.8-1.6zm-.4 9.6c-1.7-.2-.4-3.3-.8-4.8 1.1.3.8-.8 1.6-.8-.5 1.7.9 5.2-.8 5.6zM73 97.3c1.7-1.3 3.2 1.7 2 3.2 0-1.1-1.9-.9-2.4-.4.1-.9.6-1.5.4-2.8zm2.4 10.8h-3.2c.6-1.7-.5-3.3.4-5.2h2.8c.2 2.3 0 2.7 0 5.2zm4.3-12c3.6-1.2 4.3 2.6 3.2 4.8-1-1.3-2.2 0-3.2-.8v-4zm3.6 12h-3.6v-5.2h3.6c.7 1.9.1 3.1 0 5.2zm2.8 0c.5-3.7-1-9.2.8-11.6-.9 4 .5 8.7-.8 11.6zm4.4 0c-.2-3.3-1.6-11.2.8-13.2 2.3 3.3.3 9.4 1.2 13.2h-2zm8-.4c-.6.6-2 .4-3.2.4v-6c1-.9 2.2 1.6 2.8-.4-.2-.9-2-.2-2.8-.4-.4-3.4.5-5.3.8-8 1.5.4 2.1-.7 2.8 0 0 4-.5 9.2-.4 14.4zm4.4.4c-.4-4-1.2-11.8.4-15.2 2.3 1.8 1.2 5.2 1.2 8.8 0 2.8 1.7 7.1-1.6 6.4zm5.6 2.4a13 13 0 017.6.4c-.7 2.1-7.3 1.8-7.6-.4zm7.6-2.4c-2.8-.3-4.6.1-8 0 .4-6.9-.5-11.1.8-16.8 2.1-.4 4.2-.9 6.8-.8.5 5.4.8 13.9.4 17.6zm16.8-40.3c-1.9.1-4 2.1-5.6 1.2 1.9-.1 4-2.1 5.6-1.2zm0 1.2l-5.6 1.6c1-1.2 4.1-2.3 5.6-1.6zm0 1.2c-2 .4-3.7 1.1-5.6 1.6.8-1.4 4.1-2.3 5.6-1.6zm-6-.4c-1.9.4-3.3 1.2-5.2 1.6.6-1.4 4-2.2 5.2-1.6zm0 .8c-1.3.5-3.8 2-5.2 1.2 1.8-.1 3.9-1.9 5.2-1.2zm-5.2 2.4c1.6-.3 3.8-2 5.2-1.2-1.5.4-4.1 1.7-5.2 1.2zm1.2 35.1c.4-7.2-.6-13.5 1.6-19.2 4.2-1.5 9.3-2.2 13.6-1.6 3.6 5 2.4 13.3 2.8 20.8h-18zm17.2 4.8c-2.2-.7-12.7.8-16.4-1.2 4.4-2.1 13.5-1 17.2-1.6 0 1.3-.2 2.2-.8 2.8zm0-45.5c2.1-.7 4.4-1.2 6.4-2-1 1.6-4.7 2.5-6.4 2zm0-1.2c2-.8 4.5-1.1 6.4-2-1.1 1.5-4.9 2.4-6.4 2zm0-1.2c2.1-.7 4.4-1.2 6.4-2-1.1 1.5-4.9 2.4-6.4 2zm33.5-10c-2.7.9-6.4 2.9-9.2 2.4 3-.6 6.9-2.5 9.2-2.4zm-10 3.2c-2.5.7-6 2.5-8.4 2 3-.2 5.9-2.6 8.4-2zm0 .8c-1.8 2-5.8 2-8.4 3.2 2-1.9 5.9-1.9 8.4-3.2zm.4 2c-2.9.5-6.3 2.5-8.8 2 2.8-.6 6.3-2.5 8.8-2zm-9.2 0c-2.5.8-5.2 1.5-7.6 2.4 1.5-1.6 5.6-2.7 7.6-2.4zm0 1.2c-2.3 1-5.1 1.6-7.6 2.4 1.7-1.4 5.7-2.6 7.6-2.4zm0 .8c-1.5 1.5-5.7 2.5-7.6 2.4 2.5-.9 5.1-1.6 7.6-2.4zm14.4 50.3c-6.4-.2-16.8-.6-21.6 0 .7-1.3-.2-1.8 0-3.6h21.6c.5.5.8 3.2 0 3.6zm.4-5.2c-7.3-.3-15.7.5-22.4-.4.7-8.1-.4-14.3.8-22.8 5.9-.9 11.3-2.3 18.4-2 5 4.9 3 17.9 3.2 25.2zM164.4 61c2-1.8 6.9-3 9.6-2.8-3.3.9-6.6 1.7-9.6 2.8zm0-2c2.9-.8 6.7-2.8 9.6-2.4-3 .7-7 2.6-9.6 2.4z"
        class="st112"
      />
    </g>
  </g>
  <g>
    <path
      d="M122.7 103.6c-.9-.1-.2 1.4-.4 2 .5-1.2 6.6.8 7.6-1.6.6.4 1.7 1.8.8.4 6.4-1.3.6-.5-2.4-.4-3 .1-5.1-.4-5.6-.4z"
      class="st108"
    />
  </g>
  <g>
    <path d="M28.8 99.2l-.1-9.3 24.4-.3-.3 9.2z" class="st112" />
  </g>
  <g>
    <path
      d="M40.9 90.7c9.6-.1 13.8-.2 13.8-1.1 0-.9-8.1-.9-13.9-6.8-5.6 6.1-13.7 6.2-13.7 7.2 0 1.1 4.2.9 13.8.7z"
      class="st112"
    />
  </g>
  <g>
    <path
      d="M41 86.3c3.3 0 5.5.2 5.5-.6s-3.3-.5-5.7-3.3c-2.3 2.9-5.6 2.8-5.6 3.4 0 .7 2.5.6 5.8.5z"
      class="st112"
    />
  </g>
  <g>
    <path
      d="M31.4 97.7c-.1-3-1.3-5.5 2.2-5.6 3.5-.1 2.5 2.4 2.7 5.4l-4.9.2z"
      class="st107"
    />
  </g>
  <g>
    <path
      d="M38 97.4c-.1-3-1.3-5.5 2.2-5.6 3.5-.1 2.5 2.4 2.7 5.4l-4.9.2z"
      class="st107"
    />
  </g>
  <g>
    <path
      d="M44.6 97.1c-.1-3-1.3-5.5 2.2-5.6 3.5-.1 2.5 2.4 2.7 5.4l-4.9.2z"
      class="st107"
    />
  </g>
  <g>
    <path d="M30 97.9l21.7-4.3 1 5.3-21.7 4.3z" class="st112" />
  </g>
  <g>
    <path d="M173.1 57.1L52 93.6l.2.3 121-36.1-.1-.7z" class="st112" />
  </g>
  <g>
    <path d="M173.2 55.3L50.5 93.4l.1.3L173.2 56v-.7z" class="st112" />
  </g>
  <g>
    <path d="M173.3 53.6v-.3l-121 39 .2.3L173.3 54v-.4z" class="st112" />
  </g>
  <g>
    <path
      d="M12.2 116c.3-.5.9-.8 1.9-.8.7 0 1.4.2 2.1.5v1.7h-1.4c0-.6-.2-.8-.7-.8-.5 0-.7.3-.7.9v2.2c0 .6.2.9.7.9.5 0 .7-.3.7-.9v-.2h-.6v-1h2v2.9c-.6.4-1.3.6-2.1.6-.9 0-1.5-.2-1.8-.6-.3-.4-.3-.9-.3-1.7v-2.1c0-.7 0-1.2.2-1.6z"
      class="st109"
    />
    <path
      d="M14.1 122.8c-1.2 0-2-.3-2.5-1s-.5-1.5-.5-2.2v-2.1c0-.7 0-1.4.4-2 .6-1.1 1.8-1.2 2.7-1.2.8 0 1.6.2 2.4.6l.5.2v6.6l-.4.3c-.8.5-1.6.8-2.6.8z"
      class="st109"
    />
  </g>
  <g>
    <path
      d="M17.5 115.9c.3-.4.9-.6 1.8-.6s1.4.2 1.8.6c.3.4.3.9.3 1.7v2.1c0 .7 0 1.2-.3 1.7-.4.4-.9.6-1.8.6s-1.5-.2-1.8-.6c-.3-.4-.3-.9-.3-1.7v-2.1c0-.8 0-1.3.3-1.7zm1.1 3.8c0 .6.2.9.7.9.5 0 .7-.3.7-.9v-2.2c0-.6-.2-.9-.7-.9-.5 0-.7.3-.7.9v2.2z"
      class="st109"
    />
    <path
      d="M19.3 122.8c-.8 0-1.8-.1-2.5-1-.5-.7-.5-1.5-.5-2.2v-2.1c0-.8 0-1.5.5-2.2.5-.6 1.3-1 2.5-1 .7 0 1.8.1 2.5.9.5.7.5 1.5.5 2.2v2.1c0 .7 0 1.5-.5 2.2-.7 1-1.7 1.1-2.5 1.1z"
      class="st109"
    />
  </g>
  <g>
    <path
      d="M26 117.3v.6h-1.2v-2.6h5v2.6h-1.2v-.6c0-.5-.2-.7-.6-.7v3.4c0 .4 0 .6.3.7v1.1h-2.1v-1.1c.3-.1.3-.2.3-.7v-3.4c-.4 0-.5.2-.5.7z"
      class="st109"
    />
    <path
      d="M29.2 122.7h-3.9V120l.4-.1v-1h-1.8v-4.4h6.8v4.4h-1.8v1l.3.1z"
      class="st109"
    />
  </g>
  <g>
    <path
      d="M32.6 120.7v1.1h-2.1v-1.1c.3-.1.3-.2.3-.7v-3c0-.4 0-.6-.3-.7v-1h2.1v1c-.3.1-.3.3-.3.7v.9h1.4v-.9c0-.4 0-.6-.3-.7v-1h2.1v1c-.3.1-.3.3-.3.7v3c0 .4 0 .6.3.7v1.1h-2.1v-1.1c.3-.1.3-.2.3-.7v-1h-1.4v1c0 .5 0 .7.3.7z"
      class="st109"
    />
    <path
      d="M36.3 122.7h-6.7V120l.3-.1v-2.7l-.3-.1v-2.6h6.7v2.6l-.3.1v2.7l.3.1z"
      class="st109"
    />
  </g>
  <g>
    <path
      d="M36.3 120.7c.3-.1.3-.2.3-.7v-3c0-.4 0-.6-.3-.7v-1h4.5v2h-1.4v-.1c0-.5-.2-.7-.8-.7h-.5v1.3h1.7v1.1h-1.7v1.5h.6c.5 0 .7-.2.7-.7v-.2h1.4v2.1h-4.5v-.9z"
      class="st109"
    />
    <path
      d="M41.7 122.7h-6.3V120l.4-.1v-2.7l-.4-.1v-2.6h6.3v3.7h-.9v.6h.9z"
      class="st109"
    />
  </g>
  <g>
    <path
      d="M44.2 120.7c.3-.1.3-.2.3-.7v-3c0-.4 0-.6-.3-.7v-1h4.5v2h-1.4v-.1c0-.5-.2-.7-.8-.7H46v1.3h1.7v1.1H46v1.5h.6c.5 0 .7-.2.7-.7v-.2h1.4v2.1h-4.5v-.9z"
      class="st109"
    />
    <path
      d="M49.6 122.7h-6.2V120l.3-.1v-2.7l-.3-.1v-2.6h6.2v3.7h-.9v.6h.9z"
      class="st109"
    />
  </g>
  <g>
    <path
      d="M49.3 120.7l.3-.3 1.1-2-.9-1.6-.3-.3v-1h1.8v.7l.1.6.4.7.4-.7.1-.6v-.7h1.5v1l-.3.3-.9 1.8 1 1.7.4.4v1.1h-2v-.8l-.2-.7-.3-.7-.4.7c-.2.3-.2.5-.2.8v.7h-1.6v-1.1z"
      class="st109"
    />
    <path
      d="M54.8 122.7h-6.3v-2.5l.4-.2.8-1.5-.7-1.2-.4-.2v-2.5h6.1v2.5l-.4.2-.7 1.4.7 1.3v.1l.5.2v2.4z"
      class="st109"
    />
  </g>
  <g>
    <path
      d="M55.5 117.3v.6h-1.2v-2.6h5v2.6h-1.2v-.6c0-.5-.2-.7-.6-.7v3.4c0 .4 0 .6.3.7v1.1h-2.1v-1.1c.3-.1.3-.2.3-.7v-3.4c-.3 0-.5.2-.5.7z"
      class="st109"
    />
    <path
      d="M58.7 122.7h-3.8V120l.3-.1v-1h-1.8v-4.4h6.8v4.4h-1.8v1l.3.1z"
      class="st109"
    />
  </g>
  <g>
    <path
      d="M62.1 120.7v1.1H60v-1.1c.3-.1.3-.2.3-.7v-3c0-.4 0-.6-.3-.7v-1h2.5c1.4 0 2.1.5 2.1 1.8 0 .8-.3 1.3-1 1.5.6.1.8.4.8 1v.3c0 .4 0 .6.3.6v1.1h-1.6l-.1-.9v-.7c0-.6-.1-.8-.8-.8h-.5v.8c.1.5.1.7.4.7zm.3-2.6c.5 0 .8-.2.8-.7 0-.5-.2-.8-.8-.8h-.6v1.5h.6z"
      class="st109"
    />
    <path
      d="M65.6 122.7h-6.5V120l.3-.1v-2.7l-.3-.1v-2.6h3.4c2.5 0 3 1.5 3 2.7 0 .6-.1 1.1-.4 1.5.2.3.2.6.2 1v.2l.3.1v2.7z"
      class="st109"
    />
  </g>
  <g>
    <path
      d="M65.4 120.7c.2-.1.3-.3.4-.7l.9-4.6h2.2l1 4.8c.1.3.1.5.4.6v1.1H68v-1.1c.2 0 .3-.1.3-.3v-.2l-.1-.3H67l-.1.2v.2c0 .2.1.3.3.3v1.1h-2v-1.1zm2.7-1.6l-.4-2.4-.4 2.4h.8z"
      class="st109"
    />
    <path
      d="M71.1 122.7h-6.6v-2.6l.4-.1v-.1l1-5.4h3.6l1.1 5.4.4.1v2.7zm-3.7-6.4v.2h.8v-.2h-.8z"
      class="st109"
    />
  </g>
  <g>
    <path
      d="M74.8 120.1c0 .4 0 .6.3.6v1.1h-1.8v-1.1c.2 0 .3-.2.3-.6V117c0-.4-.1-.6-.3-.6v-1h2.3l.8 3.6.8-3.6h2.3v1c-.3.1-.3.3-.3.7v2.9c0 .5 0 .7.3.7v1.1h-2.1v-1.1c.3-.1.3-.3.3-.7v-3l-1.1 4.8H76l-1.2-4.9v3.2z"
      class="st109"
    />
    <path
      d="M80.4 122.7h-8v-2.8h.3v-2.6l-.3-.1v-2.6h3.9l.1.5.1-.5h3.9v2.6l-.3.1v2.7h.3v2.7zm-2.6-5.8l.5.1.1-.7h-.5l-.1.6zm-3.4-.6l.1.5.5-.1-.1-.5h-.5z"
      class="st109"
    />
  </g>
  <g>
    <path
      d="M82.5 120.7v1.1h-2.1v-1.1c.3-.1.3-.2.3-.7v-3c0-.4 0-.6-.3-.7v-1h2.1v1c-.3.1-.3.3-.3.7v3c0 .5 0 .7.3.7z"
      class="st109"
    />
    <path
      d="M83.4 122.7h-3.9V120l.3-.1v-2.7l-.3-.1v-2.6h3.9v2.6l-.3.1v2.7l.3.1z"
      class="st109"
    />
  </g>
  <g>
    <path
      d="M83.4 121.8v-1.1c.3-.1.3-.2.3-.7v-3c0-.4 0-.6-.3-.7v-1h2.1v1c-.3.1-.3.3-.3.7v3.5h.5c.7 0 .7-.3.7-1v-.7h1.3v2.9h-4.3z"
      class="st109"
    />
    <path
      d="M88.6 122.7h-6.1V120l.4-.1v-2.7l-.4-.1v-2.6h3.9v2.6l-.3.1v.8h2.5z"
      class="st109"
    />
  </g>
  <g>
    <path
      d="M88.4 120.7c.3-.1.3-.2.3-.7v-3c0-.4 0-.6-.3-.7v-1h4.5v2h-1.4v-.1c0-.5-.2-.7-.8-.7h-.5v1.3h1.7v1.1h-1.7v1.5h.6c.5 0 .7-.2.7-.7v-.2h1.4v2.1h-4.5v-.9z"
      class="st109"
    />
    <path
      d="M93.8 122.7h-6.3V120l.3-.1v-2.7l-.3-.1v-2.6h6.3v3.7h-1v.6h1z"
      class="st109"
    />
  </g>
  <g>
    <path
      d="M96.3 120.7c.3-.1.3-.2.3-.7v-3c0-.4 0-.6-.3-.7v-1h4.4v2h-1.3v-.1c0-.5-.2-.7-.7-.7h-.6v1.3h1.7v1.1h-1.7v1c0 .4 0 .6.3.7v1.1h-2.1v-1z"
      class="st109"
    />
    <path
      d="M99.3 122.7h-3.9V120l.3-.1v-2.7l-.3-.1v-2.6h6.2v3.7h-1v1.7h-1.5.2z"
      class="st109"
    />
  </g>
  <g>
    <path
      d="M101.7 115.9c.3-.4.9-.6 1.8-.6s1.4.2 1.8.6c.3.4.3.9.3 1.7v2.1c0 .7 0 1.2-.3 1.7-.4.4-.9.6-1.8.6s-1.5-.2-1.8-.6c-.3-.4-.3-.9-.3-1.7v-2.1c0-.8 0-1.3.3-1.7zm1.2 3.8c0 .6.2.9.7.9s.7-.3.7-.9v-2.2c0-.6-.2-.9-.7-.9s-.7.3-.7.9v2.2z"
      class="st109"
    />
    <path
      d="M103.5 122.8c-1.2 0-2-.3-2.5-1s-.5-1.4-.5-2.2v-2.1c0-.8 0-1.5.5-2.2.5-.6 1.3-1 2.5-1 .7 0 1.8.1 2.5.9.5.7.5 1.5.5 2.2v2.1c0 .7 0 1.5-.5 2.2-.7 1-1.7 1.1-2.5 1.1z"
      class="st109"
    />
  </g>
  <g>
    <path
      d="M108.7 120.7v1.1h-2.1v-1.1c.3-.1.3-.2.3-.7v-3c0-.4 0-.6-.3-.7v-1h2.5c1.4 0 2.1.5 2.1 1.8 0 .8-.3 1.3-1 1.5.6.1.8.4.8 1v.3c0 .4 0 .6.3.6v1.1h-1.6l-.1-.9v-.7c0-.6-.1-.8-.8-.8h-.5v.8c.1.5.1.7.4.7zm.3-2.6c.5 0 .8-.2.8-.7 0-.5-.2-.8-.8-.8h-.6v1.5h.6z"
      class="st109"
    />
    <path
      d="M112.2 122.7h-6.5V120l.3-.1v-2.7l-.3-.1v-2.6h3.4c2.5 0 3 1.5 3 2.7 0 .6-.1 1.1-.4 1.5.2.3.2.6.2 1v.2l.3.1v2.7z"
      class="st109"
    />
  </g>
  <g>
    <path
      d="M115.1 115.9c.3-.4.9-.6 1.8-.6s1.4.2 1.8.6c.3.4.3.9.3 1.7v2.1c0 .7 0 1.2-.3 1.7-.4.4-.9.6-1.8.6s-1.5-.2-1.8-.6c-.3-.4-.3-.9-.3-1.7v-2.1c0-.8 0-1.3.3-1.7zm1.2 3.8c0 .6.2.9.7.9.5 0 .7-.3.7-.9v-2.2c0-.6-.2-.9-.7-.9-.5 0-.7.3-.7.9v2.2z"
      class="st109"
    />
    <path
      d="M116.9 122.8c-.8 0-1.8-.1-2.5-1-.5-.7-.5-1.5-.5-2.2v-2.1c0-.8 0-1.5.5-2.2.5-.6 1.3-1 2.5-1 .7 0 1.8.1 2.5.9.5.7.5 1.5.5 2.2v2.1c0 .7 0 1.5-.5 2.2-.7 1-1.7 1.1-2.5 1.1z"
      class="st109"
    />
  </g>
  <g>
    <path
      d="M119.9 115.4h2.1v1c-.3.1-.3.3-.3.8v2.5c0 .6.2.9.7.9.5 0 .7-.3.7-.9V117c0-.4-.1-.5-.3-.6v-1h1.9v1c-.3.1-.3.3-.3.7v2.7c0 .6 0 1.1-.4 1.5-.3.4-.9.6-1.6.6-1.6 0-2.1-.7-2.1-2.3V117c0-.4 0-.5-.4-.6v-1z"
      class="st109"
    />
    <path
      d="M122.4 122.8c-2 0-3-1-3-3.1v-2.5l-.3-.1v-2.5h6.5v2.6l-.3.1v2.5c0 .7 0 1.4-.6 2.1-.6.6-1.4.9-2.3.9z"
      class="st109"
    />
  </g>
  <g>
    <path
      d="M127.7 120.7v1.1h-2.1v-1.1c.3-.1.3-.2.3-.7v-3c0-.4 0-.6-.3-.7v-1h2.5c1.4 0 2.1.5 2.1 1.8 0 .8-.3 1.3-1 1.5.6.1.8.4.8 1v.3c0 .4 0 .6.3.6v1.1h-1.6l-.1-.9v-.7c0-.6-.1-.8-.8-.8h-.5v.8c.1.5.1.7.4.7zm.2-2.6c.5 0 .8-.2.8-.7 0-.5-.2-.8-.8-.8h-.6v1.5h.6z"
      class="st109"
    />
    <path
      d="M131.2 122.7h-6.5V120l.3-.1v-2.7l-.3-.1v-2.6h3.4c2.5 0 3 1.5 3 2.7 0 .6-.1 1.1-.4 1.5.2.3.2.6.2 1v.2l.3.1v2.7z"
      class="st109"
    />
  </g>
  <g>
    <path
      d="M134 116c.3-.5.9-.8 1.9-.8.7 0 1.4.2 2.1.5v1.8h-1.4v-.1c0-.6-.2-.9-.7-.9-.5 0-.7.3-.7.9v2.2c0 .6.2.9.7.9.5 0 .7-.3.7-.9v-.5h1.4v2.2a5 5 0 01-2.1.5c-.9 0-1.5-.2-1.8-.6-.3-.4-.3-.9-.3-1.7v-2.1c0-.5 0-1 .2-1.4z"
      class="st109"
    />
    <path
      d="M135.9 122.8c-.8 0-1.8-.1-2.5-1-.5-.7-.5-1.5-.5-2.2v-2.1c0-.7 0-1.4.4-2 .6-1.1 1.8-1.2 2.7-1.2.8 0 1.6.2 2.4.6l.5.2v6.8l-.5.2c-.8.5-1.6.7-2.5.7z"
      class="st109"
    />
  </g>
  <g>
    <path
      d="M141.1 120.7v1.1H139v-1.1c.3-.1.3-.2.3-.7v-3c0-.4 0-.6-.3-.7v-1h2.1v1c-.3.1-.3.3-.3.7v.9h1.4v-.9c0-.4 0-.6-.3-.7v-1h2.1v1c-.3.1-.3.3-.3.7v3c0 .4 0 .6.3.7v1.1h-2.1v-1.1c.3-.1.3-.2.3-.7v-1h-1.4v1c-.1.5 0 .7.3.7z"
      class="st109"
    />
    <path
      d="M144.8 122.7h-6.7V120l.3-.1v-2.7l-.3-.1v-2.6h6.7v2.6l-.3.1v2.7l.3.1z"
      class="st109"
    />
  </g>
  <g>
    <path
      d="M146.9 120.7v1.1h-2.1v-1.1c.3-.1.3-.2.3-.7v-3c0-.4 0-.6-.3-.7v-1h2.1v1c-.3.1-.3.3-.3.7v3c0 .5 0 .7.3.7z"
      class="st109"
    />
    <path
      d="M147.8 122.7h-3.9V120l.4-.1v-2.7l-.4-.1v-2.6h3.9v2.6l-.3.1v2.7l.3.1z"
      class="st109"
    />
  </g>
  <g>
    <path
      d="M147.8 121.8v-1.1c.3-.1.3-.2.3-.7v-3c0-.4 0-.6-.3-.7v-1h2.1v1c-.3.1-.3.3-.3.7v3.5h.5c.7 0 .7-.3.7-1v-.7h1.3v2.9h-4.3z"
      class="st109"
    />
    <path
      d="M153 122.7h-6V120l.3-.1v-2.7l-.3-.1v-2.6h3.8v2.6l-.3.1v.8h2.5z"
      class="st109"
    />
  </g>
  <g>
    <path
      d="M152.8 121.8v-1.1c.3-.1.3-.2.3-.7v-3c0-.4 0-.6-.3-.7v-1h2.1c1.8 0 2.5.5 2.5 2.4v1.5c0 2-.6 2.5-2.5 2.5h-2.1zm2.2-1.3c.7 0 .9-.2.9-.9v-1.9c0-.7-.1-1-.8-1h-.5v3.8h.4z"
      class="st109"
    />
    <path
      d="M154.9 122.7h-3V120l.3-.1v-2.7l-.3-.1v-2.6h3c2.4 0 3.3 1 3.3 3.3v1.5c.1 2.5-.8 3.4-3.3 3.4z"
      class="st109"
    />
  </g>
  <g>
    <path
      d="M160.4 120.7v1.1h-2.1v-1.1c.3-.1.3-.2.3-.7v-3c0-.4 0-.6-.3-.7v-1h2.5c1.4 0 2.1.5 2.1 1.8 0 .8-.3 1.3-1 1.5.6.1.8.4.8 1v.3c0 .4 0 .6.3.6v1.1h-1.6l-.1-.9v-.7c0-.6-.1-.8-.8-.8h-.5v.8c.1.5.1.7.4.7zm.3-2.6c.5 0 .8-.2.8-.7 0-.5-.2-.8-.8-.8h-.6v1.5h.6z"
      class="st109"
    />
    <path
      d="M163.9 122.7h-6.5V120l.3-.1v-2.7l-.3-.1v-2.6h3.4c2.5 0 3 1.5 3 2.7 0 .6-.1 1.1-.4 1.5.2.3.2.6.2 1v.2l.3.1v2.7z"
      class="st109"
    />
  </g>
  <g>
    <path
      d="M163.9 120.7c.3-.1.3-.2.3-.7v-3c0-.4 0-.6-.3-.7v-1h4.5v2H167v-.1c0-.5-.2-.7-.8-.7h-.5v1.3h1.7v1.1h-1.7v1.5h.6c.5 0 .7-.2.7-.7v-.2h1.4v2.1h-4.5v-.9z"
      class="st109"
    />
    <path
      d="M169.2 122.7H163V120l.3-.1v-2.7l-.3-.1v-2.6h6.2v3.7h-.9v.6h.9z"
      class="st109"
    />
  </g>
  <g>
    <path
      d="M169.2 120.7c.3 0 .3-.2.3-.6V117c0-.3-.1-.5-.3-.6v-1h1.7l1.6 3.6v-1.9c0-.4-.1-.6-.3-.6v-1h2v1c-.3.1-.3.3-.3.7v4.6h-1.3l-1.6-3.6v1.9c0 .4.1.6.3.6v1.1h-2v-1.1z"
      class="st109"
    />
    <path
      d="M174.7 122.7h-6.4V120h.3v-2.7l-.3-.1v-2.6h6.7v2.6l-.3.1v5.4zm-2.4-3.5l.6 1.5v-1.6l-.6.1zm-2.1-2.9l.1.7v1.1l.6-.1-.7-1.7z"
      class="st109"
    />
  </g>
  <g>
    <path
      d="M11.6 115.4c.3-.5.9-.8 1.9-.8.7 0 1.4.2 2.1.5v1.7h-1.4c0-.6-.2-.8-.7-.8-.5 0-.7.3-.7.9v2.2c0 .6.2.9.7.9.5 0 .7-.3.7-.9v-.2h-.6v-1h2v2.9c-.6.4-1.3.6-2.1.6-.9 0-1.5-.2-1.8-.6-.3-.4-.3-.9-.3-1.7V117c0-.7 0-1.2.2-1.6z"
      class="st110"
    />
  </g>
  <g>
    <path
      d="M16.9 115.3c.3-.4.9-.6 1.8-.6s1.4.2 1.8.6c.3.4.3.9.3 1.7v2.1c0 .7 0 1.2-.3 1.7-.4.4-.9.6-1.8.6s-1.5-.2-1.8-.6c-.3-.4-.3-.9-.3-1.7V117c0-.7 0-1.3.3-1.7zm1.2 3.8c0 .6.2.9.7.9.5 0 .7-.3.7-.9v-2.2c0-.6-.2-.9-.7-.9-.5 0-.7.3-.7.9v2.2z"
      class="st110"
    />
  </g>
  <g>
    <path
      d="M25.4 116.8v.6h-1.2v-2.6h5v2.6H28v-.6c0-.5-.2-.7-.6-.7v3.4c0 .4 0 .6.3.7v1.1h-2.1v-1.1c.3-.1.3-.2.3-.7V116c-.4 0-.5.3-.5.8z"
      class="st110"
    />
  </g>
  <g>
    <path
      d="M32 120.1v1.1h-2.1v-1.1c.3-.1.3-.2.3-.7v-3c0-.4 0-.6-.3-.7v-1H32v1c-.3.1-.3.3-.3.7v.9h1.4v-.9c0-.4 0-.6-.3-.7v-1h2.1v1c-.3.1-.3.3-.3.7v3c0 .4 0 .6.3.7v1.1h-2.1v-1.1c.3-.1.3-.2.3-.7v-1h-1.4v1c0 .5 0 .7.3.7z"
      class="st110"
    />
  </g>
  <g>
    <path
      d="M35.7 120.1c.3-.1.3-.2.3-.7v-3c0-.4 0-.6-.3-.7v-1h4.5v2h-1.4v-.1c0-.5-.2-.7-.8-.7h-.5v1.3h1.7v1.1h-1.7v1.5h.6c.5 0 .7-.2.7-.7v-.2h1.4v2.1h-4.5v-.9z"
      class="st110"
    />
  </g>
  <g>
    <path
      d="M43.6 120.1c.3-.1.3-.2.3-.7v-3c0-.4 0-.6-.3-.7v-1h4.5v2h-1.4v-.1c0-.5-.2-.7-.8-.7h-.5v1.3h1.7v1.1h-1.7v1.5h.6c.5 0 .7-.2.7-.7v-.2h1.4v2.1h-4.5v-.9z"
      class="st110"
    />
  </g>
  <g>
    <path
      d="M48.8 120.1l.3-.3 1.1-2-.9-1.6-.3-.3v-1h1.8v.7l.1.6.4.7.4-.7.1-.6v-.7h1.5v1l-.3.3-.9 1.8 1 1.7.4.4v1.1h-1.9v-.8l-.2-.7-.3-.7-.4.7c-.2.3-.2.5-.2.8v.7h-1.6v-1.1z"
      class="st110"
    />
  </g>
  <g>
    <path
      d="M54.9 116.8v.6h-1.2v-2.6h5v2.6h-1.2v-.6c0-.5-.2-.7-.6-.7v3.4c0 .4 0 .6.3.7v1.1h-2.1v-1.1c.3-.1.3-.2.3-.7V116c-.3 0-.5.3-.5.8z"
      class="st110"
    />
  </g>
  <g>
    <path
      d="M61.5 120.1v1.1h-2.1v-1.1c.3-.1.3-.2.3-.7v-3c0-.4 0-.6-.3-.7v-1h2.5c1.4 0 2.1.5 2.1 1.8 0 .8-.3 1.3-1 1.5.6.1.8.4.8 1v.3c0 .4 0 .6.3.6v1.1h-1.6l-.1-.9v-.8c0-.6-.1-.8-.8-.8h-.5v.8c.1.6.1.8.4.8zm.3-2.6c.5 0 .8-.2.8-.7 0-.5-.2-.8-.8-.8h-.6v1.5h.6z"
      class="st110"
    />
  </g>
  <g>
    <path
      d="M64.8 120.1c.3-.1.3-.3.4-.7l.9-4.6h2.2l1 4.8c.1.3.1.5.4.6v1.1h-2.2v-1.1c.2 0 .3-.1.3-.3v-.2l-.1-.3h-1.2l-.1.2v.2c0 .2.1.3.3.3v1.1h-2v-1.1zm2.7-1.6l-.4-2.4-.4 2.4h.8z"
      class="st110"
    />
  </g>
  <g>
    <path
      d="M74.3 119.5c0 .4 0 .6.3.6v1.1h-1.9v-1.1c.2 0 .3-.2.3-.6v-3.1c0-.4-.1-.6-.3-.6v-1H75l.8 3.6.8-3.6h2.3v1c-.3.1-.3.3-.3.7v2.9c0 .5 0 .7.3.7v1.1h-2.1v-1.1c.3-.1.3-.3.3-.7v-3l-1.1 4.8h-.6l-1.2-4.9v3.2z"
      class="st110"
    />
  </g>
  <g>
    <path
      d="M81.9 120.1v1.1h-2.1v-1.1c.3-.1.3-.2.3-.7v-3c0-.4 0-.6-.3-.7v-1h2.1v1c-.3.1-.3.3-.3.7v3c0 .5 0 .7.3.7z"
      class="st110"
    />
  </g>
  <g>
    <path
      d="M82.8 121.2v-1.1c.3-.1.3-.2.3-.7v-3c0-.4 0-.6-.3-.7v-1H85v1c-.3.1-.3.3-.3.7v3.5h.5c.7 0 .7-.3.7-1v-.7h1.3v2.9h-4.4z"
      class="st110"
    />
  </g>
  <g>
    <path
      d="M87.8 120.1c.3-.1.3-.2.3-.7v-3c0-.4 0-.6-.3-.7v-1h4.5v2h-1.4v-.1c0-.5-.2-.7-.8-.7h-.5v1.3h1.7v1.1h-1.7v1.5h.6c.5 0 .7-.2.7-.7v-.2h1.4v2.1h-4.5v-.9z"
      class="st110"
    />
  </g>
  <g>
    <path
      d="M95.7 120.1c.3-.1.3-.2.3-.7v-3c0-.4 0-.6-.3-.7v-1h4.4v2h-1.3v-.1c0-.5-.2-.7-.7-.7h-.6v1.3h1.7v1.1h-1.7v1c0 .4 0 .6.3.7v1.1h-2.1v-1z"
      class="st110"
    />
  </g>
  <g>
    <path
      d="M101.1 115.3c.3-.4.9-.6 1.8-.6s1.4.2 1.8.6c.3.4.3.9.3 1.7v2.1c0 .7 0 1.2-.3 1.7-.4.4-.9.6-1.8.6s-1.5-.2-1.8-.6c-.3-.4-.3-.9-.3-1.7V117c0-.7 0-1.3.3-1.7zm1.2 3.8c0 .6.2.9.7.9.5 0 .7-.3.7-.9v-2.2c0-.6-.2-.9-.7-.9-.5 0-.7.3-.7.9v2.2z"
      class="st110"
    />
  </g>
  <g>
    <path
      d="M108.1 120.1v1.1H106v-1.1c.3-.1.3-.2.3-.7v-3c0-.4 0-.6-.3-.7v-1h2.5c1.4 0 2.1.5 2.1 1.8 0 .8-.3 1.3-1 1.5.6.1.8.4.8 1v.3c0 .4 0 .6.3.6v1.1h-1.6l-.1-.9v-.8c0-.6-.1-.8-.8-.8h-.5v.8c.1.6.1.8.4.8zm.3-2.6c.5 0 .8-.2.8-.7 0-.5-.2-.8-.8-.8h-.6v1.5h.6z"
      class="st110"
    />
  </g>
  <g>
    <path
      d="M114.5 115.3c.3-.4.9-.6 1.8-.6s1.4.2 1.8.6c.3.4.3.9.3 1.7v2.1c0 .7 0 1.2-.3 1.7-.4.4-.9.6-1.8.6s-1.5-.2-1.8-.6c-.3-.4-.3-.9-.3-1.7V117c0-.7 0-1.3.3-1.7zm1.2 3.8c0 .6.2.9.7.9.5 0 .7-.3.7-.9v-2.2c0-.6-.2-.9-.7-.9-.5 0-.7.3-.7.9v2.2z"
      class="st110"
    />
  </g>
  <g>
    <path
      d="M119.4 114.8h2.1v1c-.3.1-.3.3-.3.8v2.5c0 .6.2.9.7.9.5 0 .7-.3.7-.9v-2.7c0-.4-.1-.5-.3-.6v-1h1.9v1c-.3.1-.3.3-.3.7v2.7c0 .6 0 1.1-.4 1.5-.3.4-.9.6-1.6.6-1.6 0-2.1-.7-2.1-2.3v-2.6c0-.4 0-.5-.4-.6v-1z"
      class="st110"
    />
  </g>
  <g>
    <path
      d="M127.1 120.1v1.1H125v-1.1c.3-.1.3-.2.3-.7v-3c0-.4 0-.6-.3-.7v-1h2.5c1.4 0 2.1.5 2.1 1.8 0 .8-.3 1.3-1 1.5.6.1.8.4.8 1v.3c0 .4 0 .6.3.6v1.1h-1.6l-.1-.9v-.8c0-.6-.1-.8-.8-.8h-.5v.8c.1.6.1.8.4.8zm.3-2.6c.5 0 .8-.2.8-.7 0-.5-.2-.8-.8-.8h-.6v1.5h.6z"
      class="st110"
    />
  </g>
  <g>
    <path
      d="M133.4 115.4c.3-.5.9-.8 1.9-.8.7 0 1.4.2 2.1.5v1.8H136v-.1c0-.6-.2-.9-.7-.9-.5 0-.7.3-.7.9v2.2c0 .6.2.9.7.9.5 0 .7-.3.7-.9v-.5h1.4v2.2a5 5 0 01-2.1.5c-.9 0-1.5-.2-1.8-.6-.3-.4-.3-.9-.3-1.7V117c0-.7 0-1.2.2-1.6z"
      class="st110"
    />
  </g>
  <g>
    <path
      d="M140.5 120.1v1.1h-2.1v-1.1c.3-.1.3-.2.3-.7v-3c0-.4 0-.6-.3-.7v-1h2.1v1c-.3.1-.3.3-.3.7v.9h1.4v-.9c0-.4 0-.6-.3-.7v-1h2.1v1c-.3.1-.3.3-.3.7v3c0 .4 0 .6.3.7v1.1h-2.1v-1.1c.3-.1.3-.2.3-.7v-1h-1.4v1c0 .5 0 .7.3.7z"
      class="st110"
    />
  </g>
  <g>
    <path
      d="M146.3 120.1v1.1h-2.1v-1.1c.3-.1.3-.2.3-.7v-3c0-.4 0-.6-.3-.7v-1h2.1v1c-.3.1-.3.3-.3.7v3c0 .5 0 .7.3.7z"
      class="st110"
    />
  </g>
  <g>
    <path
      d="M147.2 121.2v-1.1c.3-.1.3-.2.3-.7v-3c0-.4 0-.6-.3-.7v-1h2.1v1c-.3.1-.3.3-.3.7v3.5h.5c.7 0 .7-.3.7-1v-.7h1.3v2.9h-4.3z"
      class="st110"
    />
  </g>
  <g>
    <path
      d="M152.2 121.2v-1.1c.3-.1.3-.2.3-.7v-3c0-.4 0-.6-.3-.7v-1h2.1c1.8 0 2.5.5 2.5 2.4v1.5c0 2-.6 2.5-2.5 2.5h-2.1zm2.2-1.3c.7 0 .9-.2.9-.9v-1.9c0-.7-.1-1-.8-1h-.5v3.8h.4z"
      class="st110"
    />
  </g>
  <g>
    <path
      d="M159.8 120.1v1.1h-2.1v-1.1c.3-.1.3-.2.3-.7v-3c0-.4 0-.6-.3-.7v-1h2.5c1.4 0 2.1.5 2.1 1.8 0 .8-.3 1.3-1 1.5.6.1.8.4.8 1v.3c0 .4 0 .6.3.6v1.1h-1.6l-.1-.9v-.8c0-.6-.1-.8-.8-.8h-.5v.8c.1.6.1.8.4.8zm.3-2.6c.5 0 .8-.2.8-.7 0-.5-.2-.8-.8-.8h-.6v1.5h.6z"
      class="st110"
    />
  </g>
  <g>
    <path
      d="M163.3 120.1c.3-.1.3-.2.3-.7v-3c0-.4 0-.6-.3-.7v-1h4.5v2h-1.4v-.1c0-.5-.2-.7-.8-.7h-.5v1.3h1.7v1.1h-1.7v1.5h.6c.5 0 .7-.2.7-.7v-.2h1.4v2.1h-4.5v-.9z"
      class="st110"
    />
  </g>
  <g>
    <path
      d="M168.6 120.1c.3 0 .3-.2.3-.6v-3.1c0-.3-.1-.5-.3-.6v-1h1.7l1.6 3.6v-1.9c0-.4-.1-.6-.3-.6v-1h2v1c-.3.1-.3.3-.3.7v4.6H172l-1.6-3.6v1.9c0 .4.1.6.3.6v1.1h-2v-1.1z"
      class="st110"
    />
  </g>
  <g>
    <path
      d="M134.7 57.5l.7-.2c.7-.2 1.4-.6 2-1l-.6-3.2-2.1.6v3.8zM60 48.7l-.3.1.3-.1z"
      class="st107"
    />
  </g>
  <g>
    <path
      d="M81.4 74.1l1.4-.3c.3-.1-.6-3.3-1.6-3-1 .4-.5 3.5.2 3.3zM60.1 48.7l-.3.1.3-.1z"
      class="st107"
    />
  </g>
  <g>
    <path
      d="M125.2 14.3c.3 1.1 1.5 1.7 2.6 1.4 1.1-.3 1.7-1.5 1.4-2.6-.3-1.1-1.5-1.7-2.6-1.4a2.2 2.2 0 00-1.4 2.6z"
      class="st109"
    />
    <path
      d="M128 0l-13.4 4.1a6.2 6.2 0 00-3.5 2.3c-1.3-.7-2.9-.3-4.4.1L62 20.1l-8.9 2.7c-1.2.3-2.1.8-2.9 1.5v-.6L6 37.2a6.8 6.8 0 00-5 5.7l-.4 2.8c-.1.4-.2 1.3.1 2.3l-.7-.1.4 7.5 47.9-14.6.4-1.2c1.5.6 3.2.1 3.8-.1l69.2-21.1c3.3-1 5-2.9 5.4-5.9l.4-3.1c.1-.8 0-1.4-.1-1.9l-.1-.2h.5L128 0z"
      class="st109"
    />
    <path
      d="M16.4 41.7c.2-1.9-1-2.2-3.4-1.4l-4 1.2c-.9.3-1.1.2-1-.2l.1-.7c.1-.5.3-.6 1.2-.9l5.3-1.6c1.1-.3 1.6-.3 2.2-.3l-.2-2.4-10.5 3.2c-2 .6-3.3 2-3.5 4l-.4 2.8c-.3 2.1.5 2.5 2.7 1.8l4.6-1.4c.9-.3 1.1-.2 1 .2l-.1.9c-.1.5-.3.6-1.1.9l-5.5 1.7c-1.1.3-1.6.3-2.2.2l.1 2.4L12 49c2.7-.8 3.7-2.2 4-4.2l.4-3.1zM44 33.9c1.3-.4 1.9-.4 2.5-.4l.4-2.8c-.6.3-1.3.7-2.6 1.1l-4 1.2.4-3 4.6-1.4c1.3-.4 2-.4 2.5-.5l-.1-2.3-12.9 3.9c.2.4.3.8.2 2l-1.1 8.4-.4 1.6-1.3-1.5-3.5-5 3.1-3.3c.9-1 1.4-1.3 2.1-1.9l-5.2 1.6v.5c-.1.4-.3.8-1 1.6l-4.4 5 .5-3.5a5 5 0 01.8-2.3l-6.6 2c.2.4.3.8.2 2L17 45.4a5 5 0 01-.8 2.3l6.6-2c-.2-.4-.3-.8-.2-2.1l.3-1.9 1.5-1.7 2.6 4.4 19.2-5.9.8-2.6c-.6.3-1.3.7-2.6 1.1l-4.9 1.5.5-3.4 4-1.2zM61.7 30.9s-1.7 1-3.9 1.6l-2.7.8c-.6.2-.8.1-.7-.5l.8-6c0-.2.2-.7.9-1l4.2-1.3c1-.3 2.1-.2 2.1-.2l-.1-2.8v-.1l-8.9 2.7c-2.4.7-3.9 2.1-4.3 4.9l-.7 5.3c-.4 2.7.8 3.3 3.3 2.6l9.2-2.8.8-3.2zM78.1 26.7l1.1-8.4A5 5 0 0180 16l-6.6 2c.2.4.3.8.2 2l-.4 3-4.2 1.3.4-2.9a5 5 0 01.8-2.3l-6.6 2c.2.4.3.8.2 2l-1.1 8.4a5 5 0 01-.8 2.3l6.6-2c-.2-.4-.3-.8-.2-2.1l.4-3.4 4.2-1.3-.4 3.4a5 5 0 01-.8 2.3l6.6-2c-.2-.3-.4-.7-.2-2zM90 23.2l-4.9 1.5.5-3.4 4-1.2c1.3-.4 1.9-.4 2.5-.4l.4-2.8c-.6.3-1.3.7-2.6 1.1l-4.1 1.2.4-3 4.6-1.4c1.3-.4 2-.4 2.5-.5V12l-12.9 3.9c.2.4.3.8.2 2.1l-1.1 8.4a5 5 0 01-.8 2.3l13.1-4 .8-2.6c-.6.3-1.3.7-2.6 1.1zM107.4 14.6c1.2-.4 2.3-.9 2.6-2.7l.3-2.3c.3-2.1-.9-2.4-3.5-1.6l-12.2 3.7c.4.4.5.8.3 2L93.8 22a5 5 0 01-.8 2.3l6.6-2c-.2-.4-.3-.8-.2-2.1l.4-3.3 1.7-.5 2 4.7 6.3-1.9c-.4-.3-.6-.9-1-1.6l-1.4-3zm-2.8-3.4l-.2 1.6c-.1.6-.3.8-1 1l-3.2 1 .4-3 3.2-1c.7-.2.9-.2.8.4zM116.7 7.4c.1-.5.3-.6 1.2-.9l5.3-1.6c1.1-.3 1.6-.3 2.2-.3V2.2l-10.7 3.3c-2 .6-3.3 2-3.5 4l-.4 2.8c-.3 2.1.5 2.5 2.7 1.8l4.6-1.4c.9-.3 1.1-.2 1 .2l-.1.9c-.1.5-.3.6-1.2.9l-5.5 1.7c-1.1.3-1.6.3-2.2.2l.1 2.4 10.2-3.1c2.7-.8 3.7-2.2 4-4.2l.4-3.1c.3-1.9-1-2.2-3.4-1.4l-4 1.2c-.9.3-1.1.3-1-.2l.3-.8zM128.4 13.3c.2.6-.2 1.3-.8 1.5-.7.2-1.3-.2-1.5-.8-.2-.6.2-1.3.8-1.5.6-.2 1.3.2 1.5.8m-2.2.7c.2.5.7.8 1.3.7.5-.2.8-.7.7-1.3-.2-.5-.7-.8-1.3-.7-.5.2-.8.7-.7 1.3m.9-.9c.3-.1.5 0 .6.2l-.1.3v.1h.1v.4l.1.1-.2.1-.1-.2c-.1-.2-.1-.3-.4-.2l-.3.1.1.5-.2.1-.4-1.2.8-.3m-.2.6l.3-.1.3-.3c0-.1-.1-.2-.3-.1l-.3.1v.4z"
      class="st110"
    />
  </g>
</svg>
