<svg xmlns="http://www.w3.org/2000/svg" viewBox="0 0 175 90.7">
  <style>
    .st0 {
      fill: #0063ba;
    }
  </style>
  <path
    d="M22.4 7.9c1-2.2-.4-3.1-3.7-3.1h-5.5c-1.2 0-1.5-.1-1.2-.7l.4-.9c.2-.6.6-.7 1.8-.7h7.3c1.5 0 2.1.2 2.9.5l.7-3H10.6a6.2 6.2 0 00-6 3.7L3.1 7.1c-1.2 2.6-.3 3.3 2.8 3.3h6.4c1.2 0 1.4.1 1.2.7l-.5 1.1c-.3.6-.6.7-1.8.7H3.6c-1.6 0-2.2-.3-2.8-.6L0 15.5h14.1c3.7 0 5.5-1.4 6.6-3.8l1.7-3.8zM60.2 8.7c1.8 0 2.6.2 3.3.4L65 5.7c-.9.2-1.9.4-3.7.4h-5.6l1.7-3.6h6.3c1.8 0 2.6.2 3.4.4l.7-3-17.6.1c.1.6.1 1.2-.6 2.6L45 12.8c-.4.9-.8 1.5-1.2 1.9-.5-.8-.8-1.8-1-2.4l-2.5-7.7 5.2-3C47 .7 47.8.5 48.9.1h-7.1l-.2.6c-.2.5-.6.9-1.9 1.7l-7.5 4.7 2-4.3c.7-1.5 1.2-2 1.9-2.6H27c0 .4 0 1-.7 2.5l-4.6 10.1c-.7 1.5-1.2 2-1.8 2.7H29c-.1-.6-.1-1.2.6-2.7l1.1-2.3 2.6-1.6 1.6 6.5h26.4l2.1-3c-.9.2-1.9.4-3.7.4h-6.8l1.9-4.1h5.4zM83.6 11.7s-2.5.6-5.6.6h-3.7c-.8 0-1-.2-.7-1l3.3-7.2c.1-.2.5-.9 1.5-.9h5.7c1.4 0 2.7.5 2.7.5l.9-3.5V.1L75.4 0c-3.3 0-5.7 1.2-7.3 4.5l-2.9 6.4c-1.5 3.3-.2 4.5 3.1 4.5h12.6l2.7-3.7zM105.9 12.8l4.6-10.1c.7-1.5 1.2-2 1.8-2.6h-9.1c.1.6.1 1.2-.6 2.6L101 6.2h-5.8l1.6-3.5c.7-1.5 1.2-2 1.9-2.6h-9.1c.1.6.1 1.2-.6 2.6l-4.6 10.1c-.7 1.5-1.2 2-1.9 2.7h9.1c-.1-.6-.1-1.2.6-2.7l1.9-4.1h5.8l-1.8 4.1c-.7 1.5-1.2 2-1.9 2.7h9.1c-.1-.7-.1-1.3.6-2.7zM122.3 12.9h-6.8l1.9-4.1h5.6c1.8 0 2.6.2 3.3.4l1.5-3.4c-.9.2-1.9.4-3.7.4h-5.6l1.7-3.6h6.4c1.8 0 2.6.2 3.4.4l.7-3H113c.1.6.1 1.2-.6 2.6l-4.6 10.1c-.7 1.5-1.2 2-1.9 2.7h18l2.1-3c-.9.3-1.9.5-3.7.5zM147.5 8.7c1.7-.1 3.2-.2 4.3-2.5l1.3-2.8c1.2-2.6-.2-3.4-3.7-3.4h-16.8c.3.6.3 1.2-.4 2.6l-4.6 10.1c-.7 1.5-1.2 2-1.9 2.7h9.1c-.1-.6-.1-1.2.6-2.7l1.8-4h2.4l.6 6.7h8.7c-.4-.6-.4-1.4-.6-2.4l-.8-4.3zm-2.3-5.3l-.8 1.9c-.3.7-.7.9-1.7.9h-4.4l1.7-3.6h4.4c1 0 1.2.1.8.8zM162 3.2c.3-.6.6-.7 1.8-.7h7.3c1.5 0 2.1.2 2.9.5l1-3.1h-14.8c-2.8 0-4.9 1.2-6 3.7L152.6 7c-1.2 2.6-.3 3.3 2.8 3.3h6.4c1.2 0 1.4.1 1.2.7l-.5 1.1c-.3.6-.6.7-1.8.7h-7.5c-1.5 0-2.2-.3-2.8-.6l-.8 3.1h14.1c3.8 0 5.5-1.4 6.6-3.8l1.7-3.8c1-2.2-.4-3.1-3.7-3.1h-5.5c-1.2 0-1.5-.1-1.2-.7l.4-.7zM170.6 13.1c.6 0 1.1.5 1.1 1.2 0 .6-.5 1.2-1.1 1.2-.6 0-1.2-.5-1.2-1.2.1-.7.6-1.2 1.2-1.2zm0 .3c-.5 0-.9.4-.9.9s.4.9.9.9.9-.4.9-.9-.4-.9-.9-.9zm-.2 1.5h-.3v-1.3h.4l.4.1.1.3c0 .2-.1.3-.2.3.1 0 .2.1.2.3l.1.3h-.3l-.1-.3-.2-.2h-.1v.5zm0-.7h.1c.2 0 .3-.1.3-.2s-.1-.2-.3-.2h-.1v.4z"
    class="st0"
  />
  <g>
    <path
      d="M39.3 46.3l2.4.6.6.1v.7a24 24 0 00.5 2.4l-2 1.4L39 53c-.1 0 1.2 3 1.4 3.1l2.4-.7 2.4-.6 1.6 1.9.5.5-1 2.2-1 2.3 1.3.9 1.5 1 1.8-1.8 1.7-1.8.9.3 1.5.5c.6.2.6 0 .8 2.7l.3 2v.5h3.4a33.5 33.5 0 001.3-4.6s.2-.2.5-.2c.2 0 .8 0 1.4-.2l1.1-.2a43 43 0 013 3.8l3-1.4s-.9-3.5-1.3-4.5c0-.2 0-.4.8-1a11.3 11.3 0 001.5-1.3 50 50 0 014.6 1.9l1.8-2.9-1.7-1.7-1.8-1.7.2-.6a27.8 27.8 0 00.8-2.3l2.5-.3 2.4-.4.2-1.7V45l-2.4-.6L74 44v-.4l-.4-1.6-.2-1.2 2-1.4c1.9-1.4 2-1.5 1.8-1.8l-.8-1.5-.6-1.3-2.1.6-2.4.7c-.2 0-.3 0-.7-.5l-1-1.2-.6-.6 1-2.2a32 32 0 001-2.3l-2.8-1.8s-1 .7-1.9 1.7c-1.5 1.5-1.7 1.7-2 1.6l-1.4-.5-1.2-.4-.2-1.4-.2-2.4-.2-1-1.3-.2h-2.1l-.6 2.3c-.5 2-.6 2.4-.8 2.4a41 41 0 01-2.7.6c-.1 0-.6-.5-1.6-2l-1.5-2-1.5.8c-1 .4-1.5.8-1.5.9l.6 2.3c.6 2.2.7 2.5.5 2.5l-1.1 1-1.1.9-2.2-1-2.2-1s-.6.6-1.1 1.4l-1 1.5 1.8 1.7 1.8 1.7-.4 1-.5 1.5c0 .6.1.5-3.2.8l-1.8.2v.5l-.3 3 2 .5zm6.8-2.4a12.2 12.2 0 0111.8-10.6 12.2 12.2 0 0112 8.8c.4 1.3.5 4 .3 5.3a12.3 12.3 0 01-13.8 10.1c-2.6-.4-4.9-1.5-6.8-3.4a12 12 0 01-3.5-10.2z"
      class="st0"
    />
    <path
      d="M67.9 70.8l2.4.7.2.6c0 .2 0 .9.2 1.4l.2 1-2 1.5-2 1.5.8 1.6c.6 1.3.8 1.5 1 1.4l2.3-.7 2.2-.6.5.6 1 1.2.5.5-.3.7a51.4 51.4 0 01-1.6 3.8c0 .1.6.6 1.4 1.1l1.4 1 1.7-1.8 1.7-1.8.7.3 1.5.5c.7.2.8.3.8.6a290.8 290.8 0 01.5 4.5c.1 0 3.4.4 3.5.3l.6-2.4.6-2.4h.7a14.8 14.8 0 002.3-.5l1.5 2 1.5 1.9 3-1.4a35.3 35.3 0 00-1.2-4.7l.6-.7c.4-.2 1-.7 1.2-1l.5-.5 2.3 1 2.3 1 .9-1.3 1-1.5-1.8-1.8-1.8-1.7.3-.5c0-.3.3-1 .5-1.4l.5-1a35 35 0 014.7-.6 155.2 155.2 0 01.3-3.2c0-.2-.6-.4-2.2-.8a34 34 0 01-2.5-.6l-.2-.5-.2-1.6-.3-1 2-1.5 2-1.3-.7 1.6-.7 1.7c0 .1 2.8 1.9 3 1.9l1.6-1.8c1.2-1.2 1.7-1.8 1.8-1.7a72.5 72.5 0 012.9 1.1l.3 2.4.3 2.3 3.4.1.6-2.4.6-2.3 1.3-.3 1.6-.4s.6.5 1.6 2l1.6 1.9 1.4-.7a33 33 0 011.5-.8s-.1-.9-.6-2.4l-.7-2.4L128 61l.6-.6 2.3 1 2.3 1 .9-1.5.9-1.5-1.8-1.7c-1.7-1.6-1.8-1.7-1.7-2a31.6 31.6 0 00.9-2.6l2.4-.4 2.5-.3v-.7l.1-1.8v-1l-1.2-.2-2.5-.6-1-.2-.2-1-.4-1.4v-.7a42.5 42.5 0 013.8-3c-.4-1-1.5-3-1.6-3a38 38 0 00-4.7 1.3l-.6-.7-1-1.1-.5-.5 1-2.2.9-2.3-1.5-1-1.4-1-1.7 1.9-1.7 1.8-.6-.2a20.6 20.6 0 00-2.3-.8l-.4-2.5-.3-2.4H116.2a40 40 0 00-1.2 4.6l-.7.2a23 23 0 00-2.3.5l-1.5-2-1.5-1.9-.6.3L106 32l.7 2.4.7 2.3-.3.2-1.1 1-1 .8-2.3-.8-2.2-1-1 1.5-1 1.4 1.9 1.7 1.8 1.7-.3.8-.5 1.5-.2.7-2.4.3-2.4.4a19 19 0 00-.2 3.3l2.4.6 2.4.6.1.7a12.4 12.4 0 00.5 2.3s-3.7 3-3.9 3l.8-1.8.8-1.8-1.4-1-1.4-1-1.8 1.8-1.7 1.8-1.1-.4-1.4-.5c-.3 0-.5-.1-.5-.2l-.3-2.5a64 64 0 00-.2-2.4l-3.4-.2-.7 2.4-.6 2.4h-.4l-2.4.5c-.2 0-.5-.2-1.7-2l-1.5-2-1.5.8-1.5.8.6 2.4.6 2.3-.5.4-1.2 1-.6.7-2.2-1-2.3-1s-2 2.6-2 2.8l1.8 1.7 1.7 1.8c0 .1 0 .4-.2.6l-.5 1.4-.3 1H70l-2.4.3c-1 0-1.8.2-1.8.2s-.3 2.7-.2 3.2c0 .2.3.3 2.3.8zm6.3-2.6A12.2 12.2 0 1183.4 82c-1-.3-2.8-1-3.7-1.6a13 13 0 01-5-6.1c-.5-1.8-.8-4.1-.5-6zM97.5 58l.2-.3.8 1.5.8 1.5 2.4-.7 2.3-.7.7.8 1 1.2.4.3-.2.5-.3.5-.8-1.5-.7-1.5-2.3.6-2.4.6-.7-.7-1-1.1c-.4-.4-.4-.5-.2-1zm7.5-11.2a12.2 12.2 0 11.4 7.2 10 10 0 01-.7-4.2c0-1.7 0-2 .3-3z"
      class="st0"
    />
  </g>
</svg>
