<?xml version="1.0" encoding="UTF-8"?>
<svg
  width="175px"
  height="25px"
  viewBox="0 0 175 25"
  version="1.1"
  xmlns="http://www.w3.org/2000/svg"
  xmlns:xlink="http://www.w3.org/1999/xlink"
>
  <title>skechers-fr-ca__logo</title>
  <defs>
    <polygon
      id="path-1"
      points="0.6036 0.3917 26 0.3917 26 15.8177 0.6036 15.8177"
    ></polygon>
    <polygon
      id="path-3"
      points="0 25.6086 175 25.6086 175 0.9996 0 0.9996"
    ></polygon>
  </defs>
  <g
    id="skechers-fr-ca"
    stroke="none"
    stroke-width="1"
    fill="none"
    fill-rule="evenodd"
  >
    <g id="Group-38" transform="translate(0.000000, -1.000000)">
      <path
        d="M22.4201,8.9091 C23.4381,6.6671 22.0421,5.7991 18.7281,5.7991 L13.1891,5.8041 C11.9841,5.8021 11.7311,5.7051 11.9991,5.1251 L12.3981,4.2611 C12.6411,3.7021 12.9951,3.5931 14.2011,3.5921 L21.4581,3.5891 C22.9561,3.5881 23.5881,3.7851 24.3981,4.0971 L25.1181,1.0351 L10.6441,1.0381 C7.8831,1.0351 5.7391,2.2881 4.6431,4.7021 L3.0861,8.1481 C1.8861,10.7191 2.7481,11.4831 5.8511,11.4831 L12.2161,11.4851 C13.4351,11.4841 13.6341,11.6051 13.3761,12.1631 L12.8911,13.2221 C12.6381,13.7961 12.3231,13.8901 11.1131,13.8921 L3.5731,13.8921 C2.0211,13.8911 1.4071,13.6041 0.7761,13.3161 L0.0001,16.4571 L14.0831,16.4541 C17.8291,16.4511 19.5831,15.0951 20.6911,12.6791 L22.4201,8.9091 Z"
        id="Fill-1"
        fill="#0063BA"
      ></path>
      <path
        d="M60.2004,9.7392 C62.0044,9.7382 62.7964,9.9602 63.5444,10.1522 L65.0894,6.7872 C64.1634,6.9682 63.1764,7.1902 61.3804,7.1872 L55.8084,7.1872 L57.4714,3.5842 L63.8174,3.5812 C65.6534,3.5842 66.4454,3.7912 67.1914,3.9902 L67.9144,1.0272 L50.1934,1.0252 C50.3114,1.6352 50.2844,2.2072 49.6214,3.6702 L44.9964,13.7912 C44.5744,14.7032 44.2134,15.2652 43.8434,15.7132 C43.3714,14.8932 43.0224,13.9612 42.7944,13.2892 L40.3044,5.5792 L45.4714,2.5502 C46.9454,1.6762 47.7554,1.4152 48.8554,1.0262 L41.7184,1.0302 C41.6604,1.2272 41.6174,1.4152 41.5294,1.6062 C41.2944,2.1232 40.9144,2.4962 39.6784,3.2782 L32.1914,7.9502 L34.1414,3.6732 C34.8104,2.2062 35.3354,1.6372 35.9954,1.0262 L26.9014,1.0332 C27.0234,1.6392 27.0104,2.2082 26.3374,3.6732 L21.7124,13.7972 C21.0444,15.2602 20.5304,15.8302 19.8644,16.4542 L28.9394,16.4552 C28.8454,15.8302 28.8464,15.2572 29.5084,13.7952 L30.5754,11.4832 L33.1434,9.9122 L34.7304,16.4502 L61.1694,16.4432 L63.2354,13.4732 C62.3454,13.6622 61.3514,13.8822 59.5414,13.8832 L52.7504,13.8832 L54.6544,9.7402 L60.2004,9.7392 Z"
        id="Fill-3"
        fill="#0063BA"
      ></path>
      <path
        d="M83.5793,12.6991 C83.5793,12.6991 81.1103,13.2771 78.0093,13.2741 C78.0093,13.2741 74.9813,13.2831 74.3543,13.2741 C73.5623,13.2701 73.3193,13.0531 73.6203,12.2961 C73.9193,11.5361 76.9343,5.0551 76.9343,5.0551 C77.0413,4.8211 77.4183,4.1801 78.3913,4.1801 L84.1253,4.1811 C85.5513,4.1781 86.8313,4.6611 86.8313,4.6611 L87.7433,1.1141 L87.6963,1.1181 L87.7233,1.0221 L75.4343,1.0241 C72.0933,1.0241 69.6943,2.2261 68.1703,5.5571 L65.2683,11.9131 C63.7443,15.2231 65.0593,16.4431 68.3763,16.4431 L80.9933,16.4381 L83.5793,12.6991 Z"
        id="Fill-5"
        fill="#0063BA"
      ></path>
      <path
        d="M105.8976,13.7782 L110.5296,3.6552 C111.1916,2.1942 111.7176,1.6252 112.3686,1.0152 L103.2866,1.0202 C103.3976,1.6262 103.3916,2.1942 102.7176,3.6572 L101.1146,7.1832 L95.2836,7.1832 L96.9026,3.6612 C97.5806,2.1922 98.0896,1.6232 98.7586,1.0182 L89.6696,1.0232 C89.7816,1.6292 89.7706,2.1942 89.0856,3.6622 L84.4686,13.7862 C83.7936,15.2432 83.2756,15.8222 82.6036,16.4392 L91.6936,16.4352 C91.5886,15.8202 91.5936,15.2442 92.2786,13.7842 L94.1326,9.7332 L99.9446,9.7312 L98.0956,13.7822 C97.4246,15.2412 96.9056,15.8172 96.2446,16.4352 L105.3186,16.4342 C105.2106,15.8182 105.2226,15.2412 105.8976,13.7782"
        id="Fill-7"
        fill="#0063BA"
      ></path>
      <path
        d="M122.2844,13.871 L115.5134,13.869 L117.3984,9.729 L122.9654,9.727 C124.7484,9.725 125.5584,9.945 126.2974,10.137 L127.8404,6.775 C126.9104,6.96 125.9274,7.179 124.1454,7.178 L118.5634,7.177 L120.2214,3.569 L126.5824,3.567 C128.4184,3.569 129.2034,3.778 129.9524,3.975 L130.6644,1.014 L112.9534,1.017 C113.0564,1.626 113.0454,2.193 112.3694,3.661 L107.7534,13.778 C107.0744,15.241 106.5494,15.817 105.8984,16.434 L123.9264,16.431 L125.9894,13.46 C125.1154,13.654 124.1034,13.874 122.2844,13.871"
        id="Fill-9"
        fill="#0063BA"
      ></path>
      <path
        d="M145.2463,4.4247 L144.3973,6.3097 C144.0583,7.0557 143.7143,7.1747 142.7053,7.1757 L138.2973,7.1767 L139.9703,3.5697 L144.3613,3.56567425 C145.3603,3.5637 145.6003,3.6767 145.2463,4.4247 L145.2463,4.4247 Z M147.4963,9.7217 C149.2073,9.6357 150.7303,9.5117 151.7723,7.2497 L153.0613,4.4107 C154.2433,1.8257 152.8913,1.0087 149.3133,1.0087 L132.4913,1.0107 C132.7913,1.6217 132.7803,2.1867 132.1043,3.6557 L127.4823,13.7787 C126.8133,15.2387 126.3013,15.8127 125.6213,16.4317 L134.7083,16.4287 C134.6013,15.8117 134.6093,15.2357 135.2793,13.7767 L137.1243,9.7267 L139.5293,9.7217 L140.1723,16.4277 L148.9003,16.4287 C148.4823,15.8437 148.4743,15.0437 148.2953,14.0617 L147.4963,9.7217 Z"
        id="Fill-11"
        fill="#0063BA"
      ></path>
      <g id="Group-15" transform="translate(149.000000, 0.608600)">
        <mask id="mask-2" fill="white">
          <use xlink:href="#path-1"></use>
        </mask>
        <g id="Clip-14"></g>
        <path
          d="M12.9816,3.6247 C13.2456,3.0637 13.5836,2.9527 14.8056,2.9487 L22.0566,2.9507 C23.5656,2.9537 24.1716,3.1497 24.9936,3.4597 L26.0006,0.3917 L11.2276,0.3987 C8.4746,0.3987 6.3436,1.6487 5.2346,4.0647 L3.6806,7.5117 C2.4866,10.0817 3.3496,10.8487 6.4476,10.8487 L12.8136,10.8467 C14.0216,10.8457 14.2396,10.9647 13.9726,11.5277 L13.4876,12.5847 C13.2356,13.1577 12.9296,13.2537 11.6946,13.2547 L4.1606,13.2577 C2.6366,13.2577 1.9926,12.9687 1.3586,12.6807 L0.6036,15.8177 L14.6696,15.8157 C18.4216,15.8127 20.1786,14.4517 21.2926,12.0347 L23.0156,8.2707 C24.0426,6.0287 22.6486,5.1607 19.3196,5.1627 L13.7826,5.1627 C12.5626,5.1627 12.3166,5.0707 12.5876,4.4857 L12.9816,3.6247 Z"
          id="Fill-13"
          fill="#0063BA"
          mask="url(#mask-2)"
        ></path>
      </g>
      <path
        d="M170.4064,15.205 L170.5344,15.205 C170.6934,15.205 170.8164,15.153 170.8164,15.02 C170.8164,14.913 170.7394,14.832 170.5554,14.832 C170.4894,14.832 170.4424,14.832 170.4064,14.836 L170.4064,15.205 Z M170.4064,15.941 L170.1354,15.941 L170.1354,14.663 C170.2384,14.647 170.3494,14.627 170.5464,14.627 C170.7644,14.627 170.8984,14.663 170.9844,14.728 C171.0564,14.785 171.0964,14.872 171.0964,15.006 C171.0964,15.158 170.9904,15.266 170.8514,15.302 L170.8514,15.312 C170.9654,15.332 171.0354,15.435 171.0564,15.624 C171.0824,15.823 171.1074,15.9 171.1284,15.941 L170.8474,15.941 C170.8164,15.894 170.7954,15.782 170.7694,15.608 C170.7504,15.471 170.6674,15.414 170.5294,15.414 L170.4064,15.414 L170.4064,15.941 Z M170.6004,14.351 C170.1214,14.351 169.7324,14.765 169.7324,15.276 C169.7324,15.793 170.1214,16.196 170.6064,16.196 C171.0924,16.202 171.4864,15.793 171.4864,15.276 C171.4864,14.765 171.0924,14.351 170.6064,14.351 L170.6004,14.351 Z M170.6104,14.121 C171.2454,14.121 171.7514,14.637 171.7514,15.271 C171.7514,15.916 171.2454,16.427 170.6064,16.427 C169.9714,16.427 169.4564,15.916 169.4564,15.271 C169.4564,14.637 169.9714,14.121 170.6064,14.121 L170.6104,14.121 Z"
        id="Fill-16"
        fill="#0063BA"
      ></path>
      <path
        d="M136.5099,20.538 C135.9739,20.538 135.5519,20.728 135.2439,21.108 C134.9369,21.488 134.7829,22.014 134.7829,22.683 C134.7829,23.383 134.9309,23.913 135.2269,24.272 C135.5229,24.632 135.9499,24.811 136.5099,24.811 C136.7519,24.811 136.9869,24.787 137.2129,24.739 C137.4399,24.691 137.6749,24.629 137.9199,24.554 L137.9199,25.354 C137.4719,25.523 136.9639,25.608 136.3969,25.608 C135.5609,25.608 134.9189,25.355 134.4709,24.849 C134.0229,24.342 133.7989,23.617 133.7989,22.675 C133.7989,22.081 133.9069,21.561 134.1249,21.116 C134.3429,20.671 134.6569,20.33 135.0689,20.093 C135.4799,19.855 135.9629,19.737 136.5179,19.737 C137.1009,19.737 137.6399,19.859 138.1349,20.104 L137.7989,20.882 C137.6069,20.791 137.4029,20.711 137.1879,20.642 C136.9729,20.572 136.7469,20.538 136.5099,20.538"
        id="Fill-18"
        fill="#0063BA"
      ></path>
      <path
        d="M142.4767,23.1396 L141.9417,21.5846 C141.9027,21.4806 141.8487,21.3166 141.7797,21.0926 C141.7097,20.8686 141.6637,20.7046 141.6367,20.6006 C141.5667,20.9206 141.4637,21.2716 141.3287,21.6516 L140.8127,23.1396 L142.4767,23.1396 Z M143.2927,25.5306 L142.7227,23.9446 L140.5397,23.9446 L139.9807,25.5306 L138.9967,25.5306 L141.1327,19.7956 L142.1487,19.7956 L144.2857,25.5306 L143.2927,25.5306 Z"
        id="Fill-20"
        fill="#0063BA"
      ></path>
      <path
        d="M150.3976,25.5302 L149.2526,25.5302 L146.4446,20.9792 L146.4136,20.9792 L146.4326,21.2332 C146.4686,21.7172 146.4876,22.1602 146.4876,22.5612 L146.4876,25.5302 L145.6396,25.5302 L145.6396,19.8192 L146.7726,19.8192 L149.5736,24.3462 L149.5966,24.3462 C149.5916,24.2872 149.5816,24.0682 149.5656,23.6922 C149.5496,23.3162 149.5426,23.0222 149.5426,22.8112 L149.5426,19.8192 L150.3976,19.8192 L150.3976,25.5302 Z"
        id="Fill-22"
        fill="#0063BA"
      ></path>
      <path
        d="M155.2316,23.1396 L154.6966,21.5846 C154.6576,21.4806 154.6036,21.3166 154.5346,21.0926 C154.4646,20.8686 154.4186,20.7046 154.3916,20.6006 C154.3216,20.9206 154.2186,21.2716 154.0836,21.6516 L153.5676,23.1396 L155.2316,23.1396 Z M156.0476,25.5306 L155.4776,23.9446 L153.2946,23.9446 L152.7356,25.5306 L151.7516,25.5306 L153.8876,19.7956 L154.9036,19.7956 L157.0406,25.5306 L156.0476,25.5306 Z"
        id="Fill-24"
        fill="#0063BA"
      ></path>
      <path
        d="M162.0549,22.6513 C162.0549,21.2843 161.4149,20.6003 160.1369,20.6003 L159.3279,20.6003 L159.3279,24.7453 L159.9919,24.7453 C161.3679,24.7453 162.0549,24.0473 162.0549,22.6513 M163.0389,22.6203 C163.0389,23.5623 162.7779,24.2833 162.2539,24.7823 C161.7309,25.2813 160.9769,25.5303 159.9919,25.5303 L158.3949,25.5303 L158.3949,19.8193 L160.1599,19.8193 C161.0699,19.8193 161.7769,20.0643 162.2819,20.5533 C162.7859,21.0433 163.0389,21.7323 163.0389,22.6203"
        id="Fill-26"
        fill="#0063BA"
      ></path>
      <path
        d="M167.592,23.1396 L167.057,21.5846 C167.018,21.4806 166.964,21.3166 166.895,21.0926 C166.825,20.8686 166.779,20.7046 166.752,20.6006 C166.682,20.9206 166.579,21.2716 166.444,21.6516 L165.928,23.1396 L167.592,23.1396 Z M168.408,25.5306 L167.838,23.9446 L165.655,23.9446 L165.096,25.5306 L164.112,25.5306 L166.248,19.7956 L167.264,19.7956 L169.401,25.5306 L168.408,25.5306 Z"
        id="Fill-28"
        fill="#0063BA"
      ></path>
      <polygon
        id="Fill-30"
        fill="#0063BA"
        points="1.3752 24.5302 0.4492 24.5302 0.4492 18.8192 3.6722 18.8192 3.6722 19.6082 1.3752 19.6082 1.3752 21.3932 3.5272 21.3932 3.5272 22.1862 1.3752 22.1862"
      ></polygon>
      <path
        d="M6.2414,21.4755 L6.8894,21.4755 C7.3244,21.4755 7.6394,21.3945 7.8354,21.2335 C8.0304,21.0725 8.1284,20.8315 8.1284,20.5145 C8.1284,20.1915 8.0224,19.9595 7.8114,19.8195 C7.6004,19.6785 7.2834,19.6085 6.8584,19.6085 L6.2414,19.6085 L6.2414,21.4755 Z M6.2414,22.2485 L6.2414,24.5305 L5.3074,24.5305 L5.3074,18.8195 L6.9214,18.8195 C7.6584,18.8195 8.2034,18.9565 8.5574,19.2335 C8.9124,19.5095 9.0894,19.9255 9.0894,20.4835 C9.0894,21.1945 8.7194,21.7015 7.9794,22.0025 L9.5934,24.5305 L8.5304,24.5305 L7.1634,22.2485 L6.2414,22.2485 Z"
        id="Fill-32"
        fill="#0063BA"
      ></path>
      <mask id="mask-4" fill="white">
        <use xlink:href="#path-3"></use>
      </mask>
      <g id="Clip-35"></g>
      <polygon
        id="Fill-34"
        fill="#0063BA"
        mask="url(#mask-4)"
        points="10.548 22.7756 12.556 22.7756 12.556 21.9946 10.548 21.9946"
      ></polygon>
      <path
        d="M16.6252,19.538 C16.0892,19.538 15.6672,19.728 15.3592,20.108 C15.0522,20.488 14.8982,21.014 14.8982,21.683 C14.8982,22.383 15.0462,22.913 15.3422,23.272 C15.6382,23.632 16.0652,23.811 16.6252,23.811 C16.8672,23.811 17.1022,23.787 17.3282,23.739 C17.5552,23.691 17.7902,23.629 18.0352,23.554 L18.0352,24.354 C17.5872,24.523 17.0792,24.608 16.5122,24.608 C15.6762,24.608 15.0342,24.355 14.5862,23.849 C14.1382,23.342 13.9142,22.617 13.9142,21.675 C13.9142,21.081 14.0222,20.561 14.2402,20.116 C14.4582,19.671 14.7722,19.33 15.1842,19.093 C15.5952,18.855 16.0782,18.737 16.6332,18.737 C17.2162,18.737 17.7552,18.859 18.2502,19.104 L17.9142,19.882 C17.7222,19.791 17.5182,19.711 17.3032,19.642 C17.0882,19.572 16.8622,19.538 16.6252,19.538"
        id="Fill-36"
        fill="#0063BA"
        mask="url(#mask-4)"
      ></path>
      <path
        d="M22.592,22.1396 L22.057,20.5846 C22.018,20.4806 21.964,20.3166 21.895,20.0926 C21.825,19.8686 21.779,19.7046 21.752,19.6006 C21.682,19.9206 21.579,20.2716 21.444,20.6516 L20.928,22.1396 L22.592,22.1396 Z M23.408,24.5306 L22.838,22.9446 L20.655,22.9446 L20.096,24.5306 L19.112,24.5306 L21.248,18.7956 L22.264,18.7956 L24.401,24.5306 L23.408,24.5306 Z"
        id="Fill-37"
        fill="#0063BA"
        mask="url(#mask-4)"
      ></path>
    </g>
  </g>
</svg>
