<svg xmlns="http://www.w3.org/2000/svg" viewBox="0 0 175 15.5">
  <style>
    .st0 {
      fill: #002d56;
    }
  </style>
  <path
    d="M22.4 7.9c1-2.2-.4-3.1-3.7-3.1h-5.5c-1.2 0-1.5-.1-1.2-.7l.4-.9c.2-.6.6-.7 1.8-.7h7.3c1.5 0 2.1.2 2.9.5l.7-3H10.6a6.2 6.2 0 00-6 3.7L3.1 7.1c-1.2 2.6-.3 3.3 2.8 3.3h6.4c1.2 0 1.4.1 1.2.7l-.5 1.1c-.3.6-.6.7-1.8.7H3.6c-1.6 0-2.2-.3-2.8-.6L0 15.5h14.1c3.7 0 5.5-1.4 6.6-3.8l1.7-3.8zM60.2 8.7c1.8 0 2.6.2 3.3.4L65 5.7c-.9.2-1.9.4-3.7.4h-5.6l1.7-3.6h6.3c1.8 0 2.6.2 3.4.4l.7-3-17.6.1c.1.6.1 1.2-.6 2.6L45 12.8c-.4.9-.8 1.5-1.2 1.9-.5-.8-.8-1.8-1-2.4l-2.5-7.7 5.2-3C47 .7 47.8.5 48.9.1h-7.1l-.2.6c-.2.5-.6.9-1.9 1.7l-7.5 4.7 2-4.3c.7-1.5 1.2-2 1.9-2.6H27c0 .4 0 1-.7 2.5l-4.6 10.1c-.7 1.5-1.2 2-1.8 2.7H29c-.1-.6-.1-1.2.6-2.7l1.1-2.3 2.6-1.6 1.6 6.5h26.4l2.1-3c-.9.2-1.9.4-3.7.4h-6.8l1.9-4.1h5.4zM83.6 11.7s-2.5.6-5.6.6h-3.7c-.8 0-1-.2-.7-1l3.3-7.2c.1-.2.5-.9 1.5-.9h5.7c1.4 0 2.7.5 2.7.5l.9-3.5V.1L75.4 0c-3.3 0-5.7 1.2-7.3 4.5l-2.9 6.4c-1.5 3.3-.2 4.5 3.1 4.5h12.6l2.7-3.7zM105.9 12.8l4.6-10.1c.7-1.5 1.2-2 1.8-2.6h-9.1c.1.6.1 1.2-.6 2.6L101 6.2h-5.8l1.6-3.5c.7-1.5 1.2-2 1.9-2.6h-9.1c.1.6.1 1.2-.6 2.6l-4.6 10.1c-.7 1.5-1.2 2-1.9 2.7h9.1c-.1-.6-.1-1.2.6-2.7l1.9-4.1h5.8l-1.8 4.1c-.7 1.5-1.2 2-1.9 2.7h9.1c-.1-.7-.1-1.3.6-2.7zM122.3 12.9h-6.8l1.9-4.1h5.6c1.8 0 2.6.2 3.3.4l1.5-3.4c-.9.2-1.9.4-3.7.4h-5.6l1.7-3.6h6.4c1.8 0 2.6.2 3.4.4l.7-3H113c.1.6.1 1.2-.6 2.6l-4.6 10.1c-.7 1.5-1.2 2-1.9 2.7h18l2.1-3c-.9.3-1.9.5-3.7.5zM147.5 8.7c1.7-.1 3.2-.2 4.3-2.5l1.3-2.8c1.2-2.6-.2-3.4-3.7-3.4h-16.8c.3.6.3 1.2-.4 2.6l-4.6 10.1c-.7 1.5-1.2 2-1.9 2.7h9.1c-.1-.6-.1-1.2.6-2.7l1.8-4h2.4l.6 6.7h8.7c-.4-.6-.4-1.4-.6-2.4l-.8-4.3zm-2.3-5.3l-.8 1.9c-.3.7-.7.9-1.7.9h-4.4l1.7-3.6h4.4c1 0 1.2.1.8.8zM162 3.2c.3-.6.6-.7 1.8-.7h7.3c1.5 0 2.1.2 2.9.5l1-3.1h-14.8c-2.8 0-4.9 1.2-6 3.7L152.6 7c-1.2 2.6-.3 3.3 2.8 3.3h6.4c1.2 0 1.4.1 1.2.7l-.5 1.1c-.3.6-.6.7-1.8.7h-7.5c-1.5 0-2.2-.3-2.8-.6l-.8 3.1h14.1c3.8 0 5.5-1.4 6.6-3.8l1.7-3.8c1-2.2-.4-3.1-3.7-3.1h-5.5c-1.2 0-1.5-.1-1.2-.7l.4-.7zM170.6 13.1c.6 0 1.1.5 1.1 1.2 0 .6-.5 1.2-1.1 1.2-.6 0-1.2-.5-1.2-1.2.1-.7.6-1.2 1.2-1.2zm0 .3c-.5 0-.9.4-.9.9s.4.9.9.9.9-.4.9-.9-.4-.9-.9-.9zm-.2 1.5h-.3v-1.3h.4l.4.1.1.3c0 .2-.1.3-.2.3.1 0 .2.1.2.3l.1.3h-.3l-.1-.3-.2-.2h-.1v.5zm0-.7h.1c.2 0 .3-.1.3-.2s-.1-.2-.3-.2h-.1v.4z"
    class="st0"
  />
</svg>
