<?xml version="1.0" encoding="UTF-8"?>
<svg
  width="175px"
  height="36px"
  viewBox="0 0 175 36"
  version="1.1"
  xmlns="http://www.w3.org/2000/svg"
  xmlns:xlink="http://www.w3.org/1999/xlink"
>
  <title>skechers-fr-ca-admin__logo</title>
  <defs>
    <polygon
      id="path-1"
      points="0 0.2877 25.1179 0.2877 25.1179 15.7087 0 15.7087"
    ></polygon>
    <polygon
      id="path-3"
      points="0.6044 0.252 26 0.252 26 15.6779 0.6044 15.6779"
    ></polygon>
    <polygon
      id="path-5"
      points="0 0.2104 3.2228 0.2104 3.2228 5.9214 0 5.9214"
    ></polygon>
    <polygon id="path-7" points="0 36 175 36 175 0.252 0 0.252"></polygon>
  </defs>
  <g
    id="skechers-fr-ca-admin"
    stroke="none"
    stroke-width="1"
    fill="none"
    fill-rule="evenodd"
  >
    <g id="Group-47" transform="translate(0.000000, -1.000000)">
      <polygon
        id="Fill-1"
        fill="#0063BA"
        points="0 30.0563 170 30.0563 170 20.0553 0 20.0553"
      ></polygon>
      <g id="Group-46" transform="translate(0.000000, 0.748300)">
        <g id="Group-4">
          <mask id="mask-2" fill="white">
            <use xlink:href="#path-1"></use>
          </mask>
          <g id="Clip-3"></g>
          <path
            d="M22.4209,8.1607 C23.4379,5.9187 22.0419,5.0507 18.7289,5.0507 L13.1899,5.0557 C11.9839,5.0537 11.7309,4.9567 11.9989,4.3767 L12.3979,3.5127 C12.6409,2.9537 12.9949,2.8457 14.2019,2.8437 L21.4579,2.8407 C22.9559,2.8397 23.5889,3.0367 24.3989,3.3477 L25.1179,0.2877 L10.6439,0.2897 C7.8829,0.2877 5.7389,1.5397 4.6429,3.9537 L3.0859,7.3997 C1.8859,9.9707 2.7479,10.7347 5.8519,10.7347 L12.2169,10.7377 C13.4349,10.7357 13.6339,10.8567 13.3759,11.4147 L12.8909,12.4737 C12.6379,13.0477 12.3229,13.1417 11.1129,13.1437 L3.5729,13.1437 C2.0209,13.1427 1.4069,12.8557 0.7759,12.5687 L-0.0001,15.7087 L14.0829,15.7057 C17.8299,15.7027 19.5829,14.3467 20.6909,11.9307 L22.4209,8.1607 Z"
            id="Fill-2"
            fill="#0063BA"
            mask="url(#mask-2)"
          ></path>
        </g>
        <path
          d="M60.2012,8.9908 C62.0052,8.9898 62.7972,9.2118 63.5442,9.4048 L65.0892,6.0398 C64.1632,6.2198 63.1762,6.4418 61.3802,6.4398 L55.8082,6.4398 L57.4722,2.8368 L63.8172,2.8328 C65.6532,2.8368 66.4452,3.0428 67.1912,3.2418 L67.9142,0.2788 L50.1932,0.2768 C50.3122,0.8858 50.2842,1.4588 49.6212,2.9218 L44.9962,13.0428 C44.5742,13.9548 44.2142,14.5168 43.8442,14.9648 C43.3712,14.1448 43.0222,13.2128 42.7942,12.5408 L40.3042,4.8308 L45.4722,1.8018 C46.9462,0.9278 47.7552,0.6668 48.8552,0.2778 L41.7192,0.2818 C41.6612,0.4788 41.6172,0.6668 41.5292,0.8578 C41.2952,1.3748 40.9142,1.7478 39.6782,2.5298 L32.1912,7.2018 L34.1412,2.9248 C34.8102,1.4578 35.3352,0.8888 35.9952,0.2778 L26.9012,0.2848 C27.0232,0.8918 27.0102,1.4598 26.3372,2.9248 L21.7122,13.0488 C21.0452,14.5118 20.5302,15.0818 19.8642,15.7058 L28.9392,15.7068 C28.8452,15.0818 28.8462,14.5088 29.5082,13.0468 L30.5752,10.7348 L33.1442,9.1638 L34.7302,15.7018 L61.1692,15.6948 L63.2352,12.7248 C62.3452,12.9138 61.3522,13.1338 59.5412,13.1348 L52.7502,13.1348 L54.6542,8.9918 L60.2012,8.9908 Z"
          id="Fill-5"
          fill="#0063BA"
        ></path>
        <path
          d="M83.5791,11.9507 C83.5791,11.9507 81.1101,12.5287 78.0091,12.5257 C78.0091,12.5257 74.9811,12.5347 74.3541,12.5257 C73.5621,12.5217 73.3201,12.3047 73.6201,11.5477 C73.9191,10.7887 76.9341,4.3067 76.9341,4.3067 C77.0411,4.0727 77.4181,3.4317 78.3911,3.4317 L84.1251,3.4337 C85.5521,3.4297 86.8311,3.9127 86.8311,3.9127 L87.7431,0.3657 L87.6961,0.3697 L87.7241,0.2737 L75.4341,0.2757 C72.0931,0.2757 69.6941,1.4777 68.1701,4.8087 L65.2681,11.1647 C63.7441,14.4747 65.0591,15.6947 68.3761,15.6947 L80.9931,15.6897 L83.5791,11.9507 Z"
          id="Fill-7"
          fill="#0063BA"
        ></path>
        <path
          d="M105.8975,13.0298 L110.5295,2.9068 C111.1915,1.4458 111.7185,0.8768 112.3685,0.2668 L103.2875,0.2718 C103.3975,0.8778 103.3915,1.4458 102.7175,2.9088 L101.1145,6.4348 L95.2835,6.4348 L96.9025,2.9128 C97.5805,1.4438 98.0895,0.8748 98.7585,0.2708 L89.6695,0.2748 C89.7825,0.8808 89.7705,1.4458 89.0855,2.9138 L84.4695,13.0378 C83.7935,14.4948 83.2755,15.0748 82.6035,15.6908 L91.6935,15.6878 C91.5895,15.0718 91.5935,14.4958 92.2785,13.0358 L94.1325,8.9848 L99.9445,8.9828 L98.0955,13.0338 C97.4245,14.4928 96.9055,15.0688 96.2445,15.6878 L105.3185,15.6868 C105.2105,15.0698 105.2225,14.4928 105.8975,13.0298"
          id="Fill-9"
          fill="#0063BA"
        ></path>
        <path
          d="M122.2842,13.1226 L115.5132,13.1206 L117.3992,8.9806 L122.9652,8.9796 C124.7482,8.9766 125.5582,9.1966 126.2972,9.3886 L127.8402,6.0266 C126.9102,6.2116 125.9282,6.4316 124.1452,6.4296 L118.5632,6.4286 L120.2212,2.8206 L126.5822,2.8196 C128.4182,2.8206 129.2042,3.0296 129.9522,3.2266 L130.6642,0.2656 L112.9532,0.2686 C113.0562,0.8776 113.0452,1.4446 112.3692,2.9126 L107.7532,13.0296 C107.0742,14.4926 106.5492,15.0686 105.8982,15.6856 L123.9262,15.6826 L125.9892,12.7116 C125.1152,12.9056 124.1032,13.1256 122.2842,13.1226"
          id="Fill-11"
          fill="#0063BA"
        ></path>
        <path
          d="M145.2461,3.6763 L144.3971,5.5613 C144.0581,6.3073 143.7141,6.4263 142.7051,6.4273 L138.2971,6.4283 L139.9701,2.8213 L144.3611,2.81727425 C145.3601,2.8153 145.6001,2.9283 145.2461,3.6763 L145.2461,3.6763 Z M147.4961,8.9743 C149.2071,8.8873 150.7301,8.7633 151.7721,6.5013 L153.0621,3.6623 C154.2431,1.0773 152.8921,0.2603 149.3131,0.2603 L132.4911,0.2623 C132.7911,0.8733 132.7811,1.4393 132.1041,2.9073 L127.4821,13.0303 C126.8131,14.4903 126.3021,15.0643 125.6211,15.6833 L134.7081,15.6813 C134.6021,15.0633 134.6091,14.4873 135.2791,13.0283 L137.1241,8.9783 L139.5291,8.9743 L140.1721,15.6793 L148.9011,15.6813 C148.4821,15.0953 148.4741,14.2953 148.2951,13.3133 L147.4961,8.9743 Z"
          id="Fill-13"
          fill="#0063BA"
        ></path>
        <g id="Group-17" transform="translate(149.000000, 0.000000)">
          <mask id="mask-4" fill="white">
            <use xlink:href="#path-3"></use>
          </mask>
          <g id="Clip-16"></g>
          <path
            d="M12.9824,3.4849 C13.2454,2.9239 13.5834,2.8129 14.8064,2.8089 L22.0564,2.8109 C23.5654,2.8139 24.1714,3.0099 24.9934,3.3199 L26.0004,0.2519 L11.2274,0.2589 C8.4744,0.2589 6.3434,1.5089 5.2344,3.9249 L3.6804,7.3719 C2.4864,9.9419 3.3494,10.7089 6.4474,10.7089 L12.8134,10.7069 C14.0214,10.7059 14.2404,10.8249 13.9724,11.3889 L13.4874,12.4449 C13.2364,13.0179 12.9294,13.1139 11.6944,13.1149 L4.1604,13.1179 C2.6364,13.1179 1.9934,12.8289 1.3584,12.5409 L0.6044,15.6779 L14.6694,15.6759 C18.4214,15.6729 20.1784,14.3119 21.2924,11.8949 L23.0154,8.1309 C24.0424,5.8889 22.6494,5.0209 19.3194,5.0229 L13.7824,5.0229 C12.5624,5.0229 12.3164,4.9309 12.5874,4.3459 L12.9824,3.4849 Z"
            id="Fill-15"
            fill="#0063BA"
            mask="url(#mask-4)"
          ></path>
        </g>
        <path
          d="M170.4072,14.4566 L170.5342,14.4566 C170.6932,14.4566 170.8162,14.4056 170.8162,14.2716 C170.8162,14.1646 170.7392,14.0836 170.5552,14.0836 C170.4892,14.0836 170.4422,14.0836 170.4072,14.0886 L170.4072,14.4566 Z M170.4072,15.1926 L170.1362,15.1926 L170.1362,13.9146 C170.2382,13.8986 170.3502,13.8786 170.5462,13.8786 C170.7642,13.8786 170.8982,13.9146 170.9852,13.9796 C171.0562,14.0376 171.0962,14.1236 171.0962,14.2576 C171.0962,14.4106 170.9902,14.5176 170.8512,14.5536 L170.8512,14.5636 C170.9652,14.5836 171.0362,14.6866 171.0562,14.8756 C171.0822,15.0746 171.1072,15.1516 171.1282,15.1926 L170.8472,15.1926 C170.8162,15.1456 170.7952,15.0346 170.7692,14.8596 C170.7502,14.7236 170.6682,14.6666 170.5302,14.6666 L170.4072,14.6666 L170.4072,15.1926 Z M170.6002,13.6026 C170.1212,13.6026 169.7322,14.0166 169.7322,14.5276 C169.7322,15.0446 170.1212,15.4476 170.6062,15.4476 C171.0932,15.4536 171.4862,15.0446 171.4862,14.5276 C171.4862,14.0166 171.0932,13.6026 170.6062,13.6026 L170.6002,13.6026 Z M170.6112,13.3726 C171.2452,13.3726 171.7512,13.8886 171.7512,14.5226 C171.7512,15.1676 171.2452,15.6786 170.6062,15.6786 C169.9712,15.6786 169.4562,15.1676 169.4562,14.5226 C169.4562,13.8886 169.9712,13.3726 170.6062,13.3726 L170.6112,13.3726 Z"
          id="Fill-18"
          fill="#0063BA"
        ></path>
        <path
          d="M136.5332,30.9293 C135.9972,30.9293 135.5752,31.1193 135.2672,31.4993 C134.9602,31.8793 134.8062,32.4053 134.8062,33.0743 C134.8062,33.7743 134.9542,34.3043 135.2502,34.6633 C135.5462,35.0233 135.9732,35.2023 136.5332,35.2023 C136.7752,35.2023 137.0102,35.1783 137.2362,35.1303 C137.4632,35.0823 137.6982,35.0203 137.9432,34.9453 L137.9432,35.7453 C137.4952,35.9143 136.9872,35.9993 136.4202,35.9993 C135.5842,35.9993 134.9422,35.7463 134.4942,35.2403 C134.0462,34.7333 133.8222,34.0083 133.8222,33.0663 C133.8222,32.4723 133.9302,31.9523 134.1482,31.5073 C134.3662,31.0623 134.6802,30.7213 135.0922,30.4843 C135.5032,30.2463 135.9862,30.1283 136.5412,30.1283 C137.1242,30.1283 137.6632,30.2503 138.1582,30.4953 L137.8222,31.2733 C137.6302,31.1823 137.4262,31.1023 137.2112,31.0333 C136.9962,30.9633 136.7702,30.9293 136.5332,30.9293"
          id="Fill-20"
          fill="#0063BA"
        ></path>
        <path
          d="M142.5,33.5308 L141.965,31.9758 C141.926,31.8718 141.872,31.7078 141.803,31.4838 C141.733,31.2598 141.687,31.0958 141.66,30.9918 C141.59,31.3118 141.487,31.6628 141.352,32.0428 L140.836,33.5308 L142.5,33.5308 Z M143.316,35.9218 L142.746,34.3358 L140.563,34.3358 L140.004,35.9218 L139.02,35.9218 L141.156,30.1868 L142.172,30.1868 L144.309,35.9218 L143.316,35.9218 Z"
          id="Fill-22"
          fill="#0063BA"
        ></path>
        <path
          d="M150.4209,35.9214 L149.2759,35.9214 L146.4679,31.3704 L146.4369,31.3704 L146.4559,31.6244 C146.4919,32.1084 146.5109,32.5514 146.5109,32.9524 L146.5109,35.9214 L145.6629,35.9214 L145.6629,30.2104 L146.7959,30.2104 L149.5969,34.7374 L149.6199,34.7374 C149.6149,34.6784 149.6049,34.4594 149.5889,34.0834 C149.5729,33.7074 149.5659,33.4134 149.5659,33.2024 L149.5659,30.2104 L150.4209,30.2104 L150.4209,35.9214 Z"
          id="Fill-24"
          fill="#0063BA"
        ></path>
        <path
          d="M155.2549,33.5308 L154.7199,31.9758 C154.6809,31.8718 154.6269,31.7078 154.5579,31.4838 C154.4879,31.2598 154.4419,31.0958 154.4149,30.9918 C154.3449,31.3118 154.2419,31.6628 154.1069,32.0428 L153.5909,33.5308 L155.2549,33.5308 Z M156.0709,35.9218 L155.5009,34.3358 L153.3179,34.3358 L152.7589,35.9218 L151.7749,35.9218 L153.9109,30.1868 L154.9269,30.1868 L157.0639,35.9218 L156.0709,35.9218 Z"
          id="Fill-26"
          fill="#0063BA"
        ></path>
        <path
          d="M162.0781,33.0425 C162.0781,31.6755 161.4381,30.9915 160.1601,30.9915 L159.3511,30.9915 L159.3511,35.1365 L160.0151,35.1365 C161.3911,35.1365 162.0781,34.4385 162.0781,33.0425 M163.0621,33.0115 C163.0621,33.9535 162.8011,34.6745 162.2771,35.1735 C161.7541,35.6725 161.0001,35.9215 160.0151,35.9215 L158.4181,35.9215 L158.4181,30.2105 L160.1831,30.2105 C161.0931,30.2105 161.8001,30.4555 162.3051,30.9445 C162.8091,31.4345 163.0621,32.1235 163.0621,33.0115"
          id="Fill-28"
          fill="#0063BA"
        ></path>
        <path
          d="M167.6152,33.5308 L167.0802,31.9758 C167.0412,31.8718 166.9872,31.7078 166.9182,31.4838 C166.8482,31.2598 166.8022,31.0958 166.7752,30.9918 C166.7052,31.3118 166.6022,31.6628 166.4672,32.0428 L165.9512,33.5308 L167.6152,33.5308 Z M168.4312,35.9218 L167.8612,34.3358 L165.6782,34.3358 L165.1192,35.9218 L164.1352,35.9218 L166.2712,30.1868 L167.2872,30.1868 L169.4242,35.9218 L168.4312,35.9218 Z"
          id="Fill-30"
          fill="#0063BA"
        ></path>
        <g id="Group-34" transform="translate(0.000000, 30.000000)">
          <mask id="mask-6" fill="white">
            <use xlink:href="#path-5"></use>
          </mask>
          <g id="Clip-33"></g>
          <polygon
            id="Fill-32"
            fill="#0063BA"
            mask="url(#mask-6)"
            points="0.9258 5.9214 -0.0002 5.9214 -0.0002 0.2104 3.2228 0.2104 3.2228 0.9994 0.9258 0.9994 0.9258 2.7844 3.0778 2.7844 3.0778 3.5774 0.9258 3.5774"
          ></polygon>
        </g>
        <path
          d="M5.792,32.8668 L6.44,32.8668 C6.875,32.8668 7.19,32.7858 7.386,32.6248 C7.581,32.4638 7.679,32.2228 7.679,31.9058 C7.679,31.5828 7.573,31.3508 7.362,31.2108 C7.151,31.0698 6.834,30.9998 6.409,30.9998 L5.792,30.9998 L5.792,32.8668 Z M5.792,33.6398 L5.792,35.9218 L4.858,35.9218 L4.858,30.2108 L6.472,30.2108 C7.209,30.2108 7.754,30.3478 8.108,30.6248 C8.463,30.9008 8.64,31.3168 8.64,31.8748 C8.64,32.5858 8.27,33.0928 7.53,33.3938 L9.144,35.9218 L8.081,35.9218 L6.714,33.6398 L5.792,33.6398 Z"
          id="Fill-35"
          fill="#0063BA"
        ></path>
        <mask id="mask-8" fill="white">
          <use xlink:href="#path-7"></use>
        </mask>
        <g id="Clip-38"></g>
        <polygon
          id="Fill-37"
          fill="#0063BA"
          mask="url(#mask-8)"
          points="10.099 34.167 12.107 34.167 12.107 33.386 10.099 33.386"
        ></polygon>
        <path
          d="M16.1758,30.9293 C15.6398,30.9293 15.2178,31.1193 14.9098,31.4993 C14.6028,31.8793 14.4488,32.4053 14.4488,33.0743 C14.4488,33.7743 14.5968,34.3043 14.8928,34.6633 C15.1888,35.0233 15.6158,35.2023 16.1758,35.2023 C16.4178,35.2023 16.6528,35.1783 16.8788,35.1303 C17.1058,35.0823 17.3408,35.0203 17.5858,34.9453 L17.5858,35.7453 C17.1378,35.9143 16.6298,35.9993 16.0628,35.9993 C15.2268,35.9993 14.5848,35.7463 14.1368,35.2403 C13.6888,34.7333 13.4648,34.0083 13.4648,33.0663 C13.4648,32.4723 13.5728,31.9523 13.7908,31.5073 C14.0088,31.0623 14.3228,30.7213 14.7348,30.4843 C15.1458,30.2463 15.6288,30.1283 16.1838,30.1283 C16.7668,30.1283 17.3058,30.2503 17.8008,30.4953 L17.4648,31.2733 C17.2728,31.1823 17.0688,31.1023 16.8538,31.0333 C16.6388,30.9633 16.4128,30.9293 16.1758,30.9293"
          id="Fill-39"
          fill="#0063BA"
          mask="url(#mask-8)"
        ></path>
        <path
          d="M22.1426,33.5308 L21.6076,31.9758 C21.5686,31.8718 21.5146,31.7078 21.4456,31.4838 C21.3756,31.2598 21.3296,31.0958 21.3026,30.9918 C21.2326,31.3118 21.1296,31.6628 20.9946,32.0428 L20.4786,33.5308 L22.1426,33.5308 Z M22.9586,35.9218 L22.3886,34.3358 L20.2056,34.3358 L19.6466,35.9218 L18.6626,35.9218 L20.7986,30.1868 L21.8146,30.1868 L23.9516,35.9218 L22.9586,35.9218 Z"
          id="Fill-40"
          fill="#0063BA"
          mask="url(#mask-8)"
        ></path>
        <path
          d="M72.0049,24.5406 L71.4699,22.9856 C71.4309,22.8826 71.3769,22.7186 71.3079,22.4936 C71.2379,22.2696 71.1919,22.1056 71.1649,22.0016 C71.0949,22.3216 70.9919,22.6726 70.8569,23.0526 L70.3409,24.5406 L72.0049,24.5406 Z M72.8209,26.9316 L72.2509,25.3456 L70.0679,25.3456 L69.5089,26.9316 L68.5249,26.9316 L70.6609,21.1966 L71.6769,21.1966 L73.8139,26.9316 L72.8209,26.9316 Z"
          id="Fill-41"
          fill="#FFFFFF"
          mask="url(#mask-8)"
        ></path>
        <path
          d="M78.8271,24.0523 C78.8271,22.6853 78.1871,22.0013 76.9091,22.0013 L76.1001,22.0013 L76.1001,26.1463 L76.7641,26.1463 C78.1401,26.1463 78.8271,25.4483 78.8271,24.0523 M79.8111,24.0213 C79.8111,24.9643 79.5501,25.6853 79.0261,26.1833 C78.5031,26.6823 77.7491,26.9313 76.7641,26.9313 L75.1671,26.9313 L75.1671,21.2203 L76.9321,21.2203 C77.8421,21.2203 78.5491,21.4653 79.0541,21.9543 C79.5581,22.4453 79.8111,23.1333 79.8111,24.0213"
          id="Fill-42"
          fill="#FFFFFF"
          mask="url(#mask-8)"
        ></path>
        <path
          d="M84.1074,26.9312 L82.4514,22.1612 L82.4204,22.1612 C82.4634,22.8702 82.4864,23.5352 82.4864,24.1542 L82.4864,26.9312 L81.6384,26.9312 L81.6384,21.2202 L82.9554,21.2202 L84.5414,25.7632 L84.5644,25.7632 L86.1974,21.2202 L87.5174,21.2202 L87.5174,26.9312 L86.6194,26.9312 L86.6194,24.1072 C86.6194,23.8242 86.6264,23.4532 86.6404,22.9972 C86.6554,22.5422 86.6674,22.2662 86.6774,22.1692 L86.6464,22.1692 L84.9314,26.9312 L84.1074,26.9312 Z"
          id="Fill-43"
          fill="#FFFFFF"
          mask="url(#mask-8)"
        ></path>
        <polygon
          id="Fill-44"
          fill="#FFFFFF"
          mask="url(#mask-8)"
          points="89.621 26.931 90.555 26.931 90.555 21.22 89.621 21.22"
        ></polygon>
        <path
          d="M97.4209,26.9312 L96.2759,26.9312 L93.4679,22.3802 L93.4369,22.3802 L93.4559,22.6342 C93.4919,23.1182 93.5109,23.5622 93.5109,23.9622 L93.5109,26.9312 L92.6629,26.9312 L92.6629,21.2202 L93.7959,21.2202 L96.5969,25.7472 L96.6199,25.7472 C96.6149,25.6882 96.6049,25.4702 96.5889,25.0932 C96.5729,24.7172 96.5659,24.4232 96.5659,24.2122 L96.5659,21.2202 L97.4209,21.2202 L97.4209,26.9312 Z"
          id="Fill-45"
          fill="#FFFFFF"
          mask="url(#mask-8)"
        ></path>
      </g>
    </g>
  </g>
</svg>
