<?xml version="1.0" encoding="UTF-8"?>
<svg
  width="175px"
  height="24px"
  viewBox="0 0 175 24"
  version="1.1"
  xmlns="http://www.w3.org/2000/svg"
  xmlns:xlink="http://www.w3.org/1999/xlink"
>
  <title>skechers-en-ca__logo</title>
  <g
    id="skechers-en-ca"
    stroke="none"
    stroke-width="1"
    fill="none"
    fill-rule="evenodd"
  >
    <path
      d="M22.421,7.9088 C23.438,5.6668 22.042,4.7988 18.729,4.7988 L13.19,4.8038 C11.984,4.8018 11.731,4.7048 11.999,4.1248 L12.398,3.2608 C12.641,2.7018 12.995,2.5938 14.202,2.5918 L21.458,2.5888 C22.956,2.5878 23.589,2.7848 24.399,3.0958 L25.118,0.0358 L10.644,0.0378 C7.883,0.0358 5.739,1.2878 4.643,3.7018 L3.086,7.1478 C1.886,9.7188 2.748,10.4828 5.852,10.4828 L12.217,10.4858 C13.435,10.4838 13.634,10.6048 13.376,11.1628 L12.891,12.2218 C12.638,12.7958 12.323,12.8898 11.113,12.8918 L3.573,12.8918 C2.021,12.8908 1.407,12.6038 0.776,12.3168 L1.97175609e-13,15.4568 L14.083,15.4538 C17.83,15.4508 19.583,14.0948 20.691,11.6788 L22.421,7.9088 Z"
      id="Fill-2"
      fill="#0063BA"
    ></path>
    <path
      d="M60.2013,8.7389 C62.0053,8.7379 62.7973,8.9599 63.5443,9.1529 L65.0893,5.7879 C64.1633,5.9679 63.1763,6.1899 61.3803,6.1879 L55.8083,6.1879 L57.4723,2.5849 L63.8173,2.5809 C65.6533,2.5849 66.4453,2.7909 67.1913,2.9899 L67.9143,0.0269 L50.1933,0.0249 C50.3123,0.6339 50.2843,1.2069 49.6213,2.6699 L44.9963,12.7909 C44.5743,13.7029 44.2143,14.2649 43.8443,14.7129 C43.3713,13.8929 43.0223,12.9609 42.7943,12.2889 L40.3043,4.5789 L45.4723,1.5499 C46.9463,0.6759 47.7553,0.4149 48.8553,0.0259 L41.7193,0.0299 C41.6613,0.2269 41.6173,0.4149 41.5293,0.6059 C41.2953,1.1229 40.9143,1.4959 39.6783,2.2779 L32.1913,6.9499 L34.1413,2.6729 C34.8103,1.2059 35.3353,0.6369 35.9953,0.0259 L26.9013,0.0329 C27.0233,0.6399 27.0103,1.2079 26.3373,2.6729 L21.7123,12.7969 C21.0453,14.2599 20.5303,14.8299 19.8643,15.4539 L28.9393,15.4549 C28.8453,14.8299 28.8463,14.2569 29.5083,12.7949 L30.5753,10.4829 L33.1443,8.9119 L34.7303,15.4499 L61.1693,15.4429 L63.2353,12.4729 C62.3453,12.6619 61.3523,12.8819 59.5413,12.8829 L52.7503,12.8829 L54.6543,8.7399 L60.2013,8.7389 Z"
      id="Fill-5"
      fill="#0063BA"
    ></path>
    <path
      d="M83.5792,11.6988 C83.5792,11.6988 81.1102,12.2768 78.0092,12.2738 C78.0092,12.2738 74.9812,12.2828 74.3542,12.2738 C73.5622,12.2698 73.3202,12.0528 73.6202,11.2958 C73.9192,10.5368 76.9342,4.0548 76.9342,4.0548 C77.0412,3.8208 77.4182,3.1798 78.3912,3.1798 L84.1252,3.1818 C85.5522,3.1778 86.8312,3.6608 86.8312,3.6608 L87.7432,0.1138 L87.6962,0.1178 L87.7242,0.0218 L75.4342,0.0238 C72.0932,0.0238 69.6942,1.2258 68.1702,4.5568 L65.2682,10.9128 C63.7442,14.2228 65.0592,15.4428 68.3762,15.4428 L80.9932,15.4378 L83.5792,11.6988 Z"
      id="Fill-7"
      fill="#0063BA"
    ></path>
    <path
      d="M105.8976,12.7779 L110.5296,2.6549 C111.1916,1.1939 111.7186,0.6249 112.3686,0.0149 L103.2876,0.0199 C103.3976,0.6259 103.3916,1.1939 102.7176,2.6569 L101.1146,6.1829 L95.2836,6.1829 L96.9026,2.6609 C97.5806,1.1919 98.0896,0.6229 98.7586,0.0189 L89.6696,0.0229 C89.7826,0.6289 89.7706,1.1939 89.0856,2.6619 L84.4696,12.7859 C83.7936,14.2429 83.2756,14.8229 82.6036,15.4389 L91.6936,15.4359 C91.5896,14.8199 91.5936,14.2439 92.2786,12.7839 L94.1326,8.7329 L99.9446,8.7309 L98.0956,12.7819 C97.4246,14.2409 96.9056,14.8169 96.2446,15.4359 L105.3186,15.4349 C105.2106,14.8179 105.2226,14.2409 105.8976,12.7779"
      id="Fill-9"
      fill="#0063BA"
    ></path>
    <path
      d="M122.2843,12.8707 L115.5133,12.8687 L117.3993,8.7287 L122.9653,8.7277 C124.7483,8.7247 125.5583,8.9447 126.2973,9.1367 L127.8403,5.7747 C126.9103,5.9597 125.9283,6.1797 124.1453,6.1777 L118.5633,6.1767 L120.2213,2.5687 L126.5823,2.5677 C128.4183,2.5687 129.2043,2.7777 129.9523,2.9747 L130.6643,0.0137 L112.9533,0.0167 C113.0563,0.6257 113.0453,1.1927 112.3693,2.6607 L107.7533,12.7777 C107.0743,14.2407 106.5493,14.8167 105.8983,15.4337 L123.9263,15.4307 L125.9893,12.4597 C125.1153,12.6537 124.1033,12.8737 122.2843,12.8707"
      id="Fill-11"
      fill="#0063BA"
    ></path>
    <path
      d="M149.3132,0.0084 C152.8922,0.0084 154.2432,0.8254 153.0622,3.4104 L153.0622,3.4104 L151.7722,6.2494 C150.7302,8.5114 149.2072,8.6354 147.4962,8.7224 L147.4962,8.7224 L148.2952,13.0614 C148.4742,14.0434 148.4822,14.8434 148.9012,15.4294 L148.9012,15.4294 L140.1722,15.4274 L139.5292,8.7224 L137.1242,8.7264 L135.2792,12.7764 C134.6092,14.2354 134.6022,14.8114 134.7082,15.4294 L134.7082,15.4294 L125.6212,15.4314 C126.3022,14.8124 126.8132,14.2384 127.4822,12.7784 L127.4822,12.7784 L132.1042,2.6554 C132.7812,1.1874 132.7912,0.6214 132.4912,0.0104 L132.4912,0.0104 Z M144.3612,2.56537425 L139.9702,2.5694 L138.2972,6.1764 L142.7052,6.1754 C143.7142,6.1744 144.0582,6.0554 144.3972,5.3094 L144.3972,5.3094 L145.2462,3.4244 C145.6002,2.6764 145.3602,2.5634 144.3612,2.56537425 L144.3612,2.56537425 Z"
      id="Fill-13"
      fill="#0063BA"
    ></path>
    <path
      d="M161.9825,3.233 C162.2455,2.672 162.5835,2.561 163.8065,2.557 L171.0565,2.559 C172.5655,2.562 173.1715,2.758 173.9935,3.068 L175.0005,1.98951966e-13 L160.2275,0.007 C157.4745,0.007 155.3435,1.257 154.2345,3.673 L152.6805,7.12 C151.4865,9.69 152.3495,10.457 155.4475,10.457 L161.8135,10.455 C163.0215,10.454 163.2405,10.573 162.9725,11.137 L162.4875,12.193 C162.2365,12.766 161.9295,12.862 160.6945,12.863 L153.1605,12.866 C151.6365,12.866 150.9935,12.577 150.3585,12.289 L149.6045,15.426 L163.6695,15.424 C167.4215,15.421 169.1785,14.06 170.2925,11.643 L172.0155,7.879 C173.0425,5.637 171.6495,4.769 168.3195,4.771 L162.7825,4.771 C161.5625,4.771 161.3165,4.679 161.5875,4.094 L161.9825,3.233 Z"
      id="Fill-15"
      fill="#0063BA"
    ></path>
    <path
      d="M170.4073,14.2047 L170.5343,14.2047 C170.6933,14.2047 170.8163,14.1537 170.8163,14.0197 C170.8163,13.9127 170.7393,13.8317 170.5553,13.8317 C170.4893,13.8317 170.4423,13.8317 170.4073,13.8367 L170.4073,14.2047 Z M170.4073,14.9407 L170.1363,14.9407 L170.1363,13.6627 C170.2383,13.6467 170.3503,13.6267 170.5463,13.6267 C170.7643,13.6267 170.8983,13.6627 170.9853,13.7277 C171.0563,13.7857 171.0963,13.8717 171.0963,14.0057 C171.0963,14.1587 170.9903,14.2657 170.8513,14.3017 L170.8513,14.3117 C170.9653,14.3317 171.0363,14.4347 171.0563,14.6237 C171.0823,14.8227 171.1073,14.8997 171.1283,14.9407 L170.8473,14.9407 C170.8163,14.8937 170.7953,14.7827 170.7693,14.6077 C170.7503,14.4717 170.6683,14.4147 170.5303,14.4147 L170.4073,14.4147 L170.4073,14.9407 Z M170.6003,13.3507 C170.1213,13.3507 169.7323,13.7647 169.7323,14.2757 C169.7323,14.7927 170.1213,15.1957 170.6063,15.1957 C171.0933,15.2017 171.4863,14.7927 171.4863,14.2757 C171.4863,13.7647 171.0933,13.3507 170.6063,13.3507 L170.6003,13.3507 Z M170.6113,13.1207 C171.2453,13.1207 171.7513,13.6367 171.7513,14.2707 C171.7513,14.9157 171.2453,15.4267 170.6063,15.4267 C169.9713,15.4267 169.4563,14.9157 169.4563,14.2707 C169.4563,13.6367 169.9713,13.1207 170.6063,13.1207 L170.6113,13.1207 Z"
      id="Fill-18"
      fill="#0063BA"
    ></path>
    <text
      id="EN-CA"
      font-family="MyriadPro-Regular, Myriad Pro"
      font-size="8"
      font-weight="normal"
      fill="#0063BA"
    >
      <tspan x="0" y="23">EN-CA</tspan>
    </text>
    <text
      id="CANADA"
      font-family="MyriadPro-Regular, Myriad Pro"
      font-size="8"
      font-weight="normal"
      fill="#0063BA"
    >
      <tspan x="139" y="23">CANADA</tspan>
    </text>
  </g>
</svg>
