<svg xmlns="http://www.w3.org/2000/svg" viewBox="0 0 175 24.6">
  <style>
    .st0 {
      fill: #0063ba;
    }
  </style>
  <path
    d="M22.4 7.9c1-2.2-.4-3.1-3.7-3.1h-5.5c-1.2 0-1.5-.1-1.2-.7l.4-.9c.2-.6.6-.7 1.8-.7h7.3c1.5 0 2.1.2 2.9.5l.7-3H10.6a6.2 6.2 0 00-6 3.7L3.1 7.1c-1.2 2.6-.3 3.3 2.8 3.3h6.4c1.2 0 1.4.1 1.2.7l-.5 1.1c-.3.6-.6.7-1.8.7H3.6c-1.6 0-2.2-.3-2.8-.6L0 15.5h14.1c3.7 0 5.5-1.4 6.6-3.8l1.7-3.8zM60.2 8.7c1.8 0 2.6.2 3.3.4L65 5.7c-.9.2-1.9.4-3.7.4h-5.6l1.7-3.6h6.3c1.8 0 2.6.2 3.4.4l.7-3-17.6.1c.1.6.1 1.2-.6 2.6L45 12.8c-.4.9-.8 1.5-1.2 1.9-.5-.8-.8-1.8-1-2.4l-2.5-7.7 5.2-3C47 .7 47.8.5 48.9.1h-7.1l-.2.6c-.2.5-.6.9-1.9 1.7l-7.5 4.7 2-4.3c.7-1.5 1.2-2 1.9-2.6H27c0 .4 0 1-.7 2.5l-4.6 10.1c-.7 1.5-1.2 2-1.8 2.7H29c-.1-.6-.1-1.2.6-2.7l1.1-2.3 2.6-1.6 1.6 6.5h26.4l2.1-3c-.9.2-1.9.4-3.7.4h-6.8l1.9-4.1h5.4zM83.6 11.7s-2.5.6-5.6.6h-3.7c-.8 0-1-.2-.7-1l3.3-7.2c.1-.2.5-.9 1.5-.9h5.7c1.4 0 2.7.5 2.7.5l.9-3.5V.1L75.4 0c-3.3 0-5.7 1.2-7.3 4.5l-2.9 6.4c-1.5 3.3-.2 4.5 3.1 4.5h12.6l2.7-3.7zM105.9 12.8l4.6-10.1c.7-1.5 1.2-2 1.8-2.6h-9.1c.1.6.1 1.2-.6 2.6L101 6.2h-5.8l1.6-3.5c.7-1.5 1.2-2 1.9-2.6h-9.1c.1.6.1 1.2-.6 2.6l-4.6 10.1c-.7 1.5-1.2 2-1.9 2.7h9.1c-.1-.6-.1-1.2.6-2.7l1.9-4.1h5.8l-1.8 4.1c-.7 1.5-1.2 2-1.9 2.7h9.1c-.1-.7-.1-1.3.6-2.7zM122.3 12.9h-6.8l1.9-4.1h5.6c1.8 0 2.6.2 3.3.4l1.5-3.4c-.9.2-1.9.4-3.7.4h-5.6l1.7-3.6h6.4c1.8 0 2.6.2 3.4.4l.7-3H113c.1.6.1 1.2-.6 2.6l-4.6 10.1c-.7 1.5-1.2 2-1.9 2.7h18l2.1-3c-.9.3-1.9.5-3.7.5zM147.5 8.7c1.7-.1 3.2-.2 4.3-2.5l1.3-2.8c1.2-2.6-.2-3.4-3.7-3.4h-16.8c.3.6.3 1.2-.4 2.6l-4.6 10.1c-.7 1.5-1.2 2-1.9 2.7h9.1c-.1-.6-.1-1.2.6-2.7l1.8-4h2.4l.6 6.7h8.7c-.4-.6-.4-1.4-.6-2.4l-.8-4.3zm-2.3-5.3l-.8 1.9c-.3.7-.7.9-1.7.9h-4.4l1.7-3.6h4.4c1 0 1.2.1.8.8zM162 3.2c.3-.6.6-.7 1.8-.7h7.3c1.5 0 2.1.2 2.9.5l1-3.1h-14.8c-2.8 0-4.9 1.2-6 3.7L152.6 7c-1.2 2.6-.3 3.3 2.8 3.3h6.4c1.2 0 1.4.1 1.2.7l-.5 1.1c-.3.6-.6.7-1.8.7h-7.5c-1.5 0-2.2-.3-2.8-.6l-.8 3.1h14.1c3.8 0 5.5-1.4 6.6-3.8l1.7-3.8c1-2.2-.4-3.1-3.7-3.1h-5.5c-1.2 0-1.5-.1-1.2-.7l.4-.7zM170.6 13.1c.6 0 1.1.5 1.1 1.2 0 .6-.5 1.2-1.1 1.2-.6 0-1.2-.5-1.2-1.2.1-.7.6-1.2 1.2-1.2zm0 .3c-.5 0-.9.4-.9.9s.4.9.9.9.9-.4.9-.9-.4-.9-.9-.9zm-.2 1.5h-.3v-1.3h.4l.4.1.1.3c0 .2-.1.3-.2.3.1 0 .2.1.2.3l.1.3h-.3l-.1-.3-.2-.2h-.1v.5zm0-.7h.1c.2 0 .3-.1.3-.2s-.1-.2-.3-.2h-.1v.4z"
    class="st0"
  />
  <g>
    <path
      d="M54.4 18.8v3.7c0 .4-.1.8-.3 1.1-.2.3-.4.6-.8.7-.3.2-.8.3-1.2.3-.7 0-1.3-.2-1.7-.6a2 2 0 01-.6-1.5v-3.7h.9v3.6c0 .5.1.8.3 1s.6.3 1 .3c.9 0 1.3-.5 1.3-1.4v-3.6h1.1zM61.2 24.5H60l-2.8-4.6v.3l.1 1.3v3h-.8v-5.7h1.1l2.8 4.5v-.7-3.9h.9v5.8zM63.3 24.5v-5.7h.9v5.7h-.9zM68.3 24.5h-.9v-4.9h-1.7v-.8H70v.8h-1.7v4.9zM74.7 24.5h-3.2v-5.7h3.2v.8h-2.3v1.6h2.2v.8h-2.2v1.8h2.3v.7zM81.2 21.6c0 .9-.3 1.7-.8 2.2s-1.3.7-2.3.7h-1.6v-5.7h1.8c.9 0 1.6.2 2.1.7.5.5.8 1.2.8 2.1zm-1 0c0-1.4-.6-2.1-1.9-2.1h-.8v4.1h.7c1.3.1 2-.6 2-2zM90 24.5h-1.1l-1.8-2.6-.6.4v2.1h-.9v-5.7h.9v2.7l.8-.9 1.5-1.8H90l-2.1 2.5 2.1 3.3zM91.4 24.5v-5.7h.9v5.7h-.9zM99.2 24.5H98l-2.8-4.6v.3l.1 1.3v3h-.8v-5.7h1.1l2.8 4.5v-.7-3.9h.9v5.8zM103.6 21.4h2.1v2.9l-1 .2-1 .1c-.9 0-1.5-.3-2-.8s-.7-1.2-.7-2.2c0-.9.3-1.6.8-2.2.5-.5 1.3-.8 2.2-.8.6 0 1.2.1 1.7.3l-.3.8c-.5-.2-.9-.3-1.4-.3-.6 0-1.1.2-1.4.6-.4.4-.5.9-.5 1.6 0 .7.2 1.2.5 1.6.3.4.8.5 1.4.5l1-.1v-1.5h-1.2v-.7zM112.3 21.6c0 .9-.3 1.7-.8 2.2s-1.3.7-2.3.7h-1.6v-5.7h1.8c.9 0 1.6.2 2.1.7.6.5.8 1.2.8 2.1zm-.9 0c0-1.4-.6-2.1-1.9-2.1h-.8v4.1h.7c1.3.1 2-.6 2-2zM119.2 21.6c0 .9-.2 1.7-.7 2.2s-1.1.8-2 .8c-.9 0-1.5-.3-2-.8s-.7-1.2-.7-2.2.2-1.7.7-2.2 1.1-.8 2-.8c.8 0 1.5.3 2 .8.5.6.7 1.3.7 2.2zm-4.3 0c0 .7.1 1.2.4 1.6.3.4.7.5 1.3.5.6 0 1-.2 1.3-.5.3-.4.4-.9.4-1.6 0-.7-.1-1.2-.4-1.6-.3-.4-.7-.5-1.3-.5-.6 0-1 .2-1.3.5s-.4.9-.4 1.6zM123.5 24.5l-1.7-4.8.1 2v2.8h-.8v-5.7h1.3l1.6 4.5 1.6-4.5h1.3v5.7h-.9v-2.8-1.1-.8l-1.7 4.8h-.8zM131.4 18.8l-2.1 5.7h-.9l2.1-5.7h.9zM132.8 24.5v-5.7h.9v5.7h-.9zM136.7 22.2v2.3h-.9v-5.7h1.6c.7 0 1.3.1 1.6.4.4.3.5.7.5 1.2 0 .7-.4 1.2-1.1 1.5l1.6 2.5h-1l-1.4-2.3h-.9zm0-.8h.6l.9-.2c.1-.1.3-.4.3-.7 0-.3-.1-.6-.3-.7l-1-.2h-.6v1.8zM144.8 24.5h-3.2v-5.7h3.2v.8h-2.3v1.6h2.2v.8h-2.2v1.8h2.3v.7zM146.6 24.5v-5.7h.9v4.9h2.4v.8h-3.3zM155.1 24.5l-.6-1.6h-2.2l-.6 1.6h-1l2.1-5.7h1l2.1 5.7h-.8zm-.8-2.4l-.5-1.6-.2-.5-.1-.5-.3 1.1-.5 1.5h1.6zM162.2 24.5H161l-2.8-4.6v.3l.1 1.3v3h-.8v-5.7h1.1l2.8 4.5v-.7-3.9h.9v5.8zM168.9 21.6c0 .9-.3 1.7-.8 2.2s-1.3.7-2.3.7h-1.6v-5.7h1.8c.9 0 1.6.2 2.1.7.6.5.8 1.2.8 2.1zm-1 0c0-1.4-.6-2.1-1.9-2.1h-.8v4.1h.7c1.4.1 2-.6 2-2z"
      class="st0"
    />
  </g>
  <g>
    <path
      d="M3.6 24.5H.4v-5.7h3.2v.8H1.3v1.6h2.2v.8H1.3v1.8h2.3v.7zM10.2 24.5H9l-2.8-4.6v.3l.1 1.3v3h-.9v-5.7h1.1l2.8 4.5v-.7-3.9h.9v5.8zM11.8 22.7V22h2v.8h-2zM17.8 21.4h2.1v2.9l-1 .2-1 .1c-.9 0-1.5-.3-2-.8s-.7-1.2-.7-2.2c0-.9.3-1.6.8-2.2s1.3-.8 2.2-.8c.6 0 1.2.1 1.7.3l-.3.8c-.5-.2-.9-.3-1.4-.3-.6 0-1.1.2-1.4.6s-.5.9-.5 1.6c0 .7.2 1.2.5 1.6s.8.5 1.4.5l1-.1v-1.5H18v-.7zM21.9 18.8h1.7c.8 0 1.4.1 1.7.3s.5.6.5 1.1c0 .3-.1.6-.3.8s-.4.4-.7.4c.4.1.7.2.9.4s.3.5.3.9c0 .5-.2.9-.5 1.2s-.9.4-1.5.4h-2.1v-5.5zm.9 2.3h.9l.9-.2c.2-.1.3-.3.3-.6s-.1-.5-.3-.6l-.9-.2h-.8v1.6zm0 .8v1.8h1l.9-.2c.2-.1.3-.4.3-.7 0-.3-.1-.5-.3-.7s-.5-.2-.9-.2h-1z"
      class="st0"
    />
  </g>
</svg>
