<svg xmlns="http://www.w3.org/2000/svg" viewBox="0 0 175.5 24.6">
  <style>
    .st0 {
      fill: #0063ba;
    }
  </style>
  <path
    d="M23 7.9c1-2.2-.4-3.1-3.7-3.1h-5.5c-1.2 0-1.5-.1-1.2-.7l.4-.9c.2-.6.6-.7 1.8-.7h7.3c1.5 0 2.1.2 2.9.5l.7-3H11.2a6.2 6.2 0 00-6 3.7L3.6 7.1c-1.2 2.6-.3 3.3 2.8 3.3h6.4c1.2 0 1.4.1 1.2.7l-.5 1.1c-.3.6-.6.7-1.8.7H4.1c-1.6 0-2.2-.3-2.8-.6l-.8 3.1h14.1c3.7 0 5.5-1.4 6.6-3.8L23 7.9zM60.7 8.7c1.8 0 2.6.2 3.3.4l1.5-3.4c-.9.2-1.9.4-3.7.4h-5.6L58 2.6h6.3c1.8 0 2.6.2 3.4.4l.7-3H50.7c.1.6.1 1.2-.6 2.6l-4.6 10.1c-.4.9-.8 1.5-1.2 1.9-.5-.8-.8-1.8-1-2.4l-2.5-7.7 5.2-3C47.5.6 48.3.4 49.4 0h-7.1l-.2.6c-.2.5-.6.9-1.9 1.7L32.7 7l2-4.3c.7-1.5 1.2-2 1.9-2.6h-9.1c.1.6.1 1.2-.6 2.6l-4.6 10.1c-.7 1.5-1.2 2-1.8 2.7h9.1c-.1-.6-.1-1.2.6-2.7l1.1-2.3 2.6-1.6 1.6 6.5h26.4l2.1-3c-.9.2-1.9.4-3.7.4h-6.8l1.9-4.1h5.3zM84.1 11.7s-2.5.6-5.6.6h-3.7c-.8 0-1-.2-.7-1l3.3-7.2c.1-.2.5-.9 1.5-.9h5.7c1.4 0 2.7.5 2.7.5l.9-3.5V.1L76 0c-3.3 0-5.7 1.2-7.3 4.5l-2.9 6.4c-1.5 3.3-.2 4.5 3.1 4.5h12.6l2.6-3.7zM106.4 12.8L111 2.7c.7-1.5 1.2-2 1.8-2.6h-9.1c.1.6.1 1.2-.6 2.6l-1.6 3.5h-5.8l1.6-3.5c.7-1.5 1.2-2 1.9-2.6h-9.1c.1.6.1 1.2-.6 2.6L85 12.8c-.7 1.5-1.2 2-1.9 2.7h9.1c-.1-.6-.1-1.2.6-2.7l1.9-4.1h5.8l-1.8 4.1c-.7 1.5-1.2 2-1.9 2.7h9.1c-.1-.7-.1-1.3.5-2.7zM122.8 12.9H116l1.9-4.1h5.6c1.8 0 2.6.2 3.3.4l1.5-3.4c-.9.2-1.9.4-3.7.4H119l1.7-3.6h6.4c1.8 0 2.6.2 3.4.4l.7-3h-17.7c.1.6.1 1.2-.6 2.6l-4.6 10.1c-.7 1.5-1.2 2-1.9 2.7h18l2.1-3c-.8.3-1.8.5-3.7.5zM148 8.7c1.7-.1 3.2-.2 4.3-2.5l1.3-2.8c1.2-2.6-.2-3.4-3.7-3.4H133c.3.6.3 1.2-.4 2.6L128 12.8c-.7 1.5-1.2 2-1.9 2.7h9.1c-.1-.6-.1-1.2.6-2.7l1.8-4h2.4l.6 6.7h8.7c-.4-.6-.4-1.4-.6-2.4l-.7-4.4zm-2.2-5.3l-.8 1.9c-.3.7-.7.9-1.7.9h-4.4l1.7-3.6h4.4c.9 0 1.1.1.8.8zM162.5 3.2c.3-.6.6-.7 1.8-.7h7.3c1.5 0 2.1.2 2.9.5l1-3.1h-14.8c-2.8 0-4.9 1.2-6 3.7L153.1 7c-1.2 2.6-.3 3.3 2.8 3.3h6.4c1.2 0 1.4.1 1.2.7l-.5 1.1c-.3.6-.6.7-1.8.7h-7.5c-1.5 0-2.2-.3-2.8-.6l-.8 3.1h14.1c3.8 0 5.5-1.4 6.6-3.8l1.7-3.8c1-2.2-.4-3.1-3.7-3.1h-5.5c-1.2 0-1.5-.1-1.2-.7l.4-.7zM171.2 13.1c.6 0 1.1.5 1.1 1.2 0 .6-.5 1.2-1.1 1.2-.6 0-1.2-.5-1.2-1.2s.5-1.2 1.2-1.2zm-.1.3c-.5 0-.9.4-.9.9s.4.9.9.9.9-.4.9-.9-.4-.9-.9-.9zm-.1 1.5h-.3v-1.3h.4l.4.1.1.3c0 .2-.1.3-.2.3.1 0 .2.1.2.3l.1.3h-.3l-.1-.3-.2-.2h-.1v.5zm0-.7h.1c.2 0 .3-.1.3-.2s-.1-.2-.3-.2h-.1v.4z"
    class="st0"
  />
  <g>
    <path
      d="M147.3 22.9c0 .5-.2.9-.6 1.2s-.9.4-1.5.4-1.2-.1-1.6-.3v-.9l.8.3.8.1.8-.2c.2-.1.3-.3.3-.6l-.2-.5-1-.5-1.1-.7c-.2-.2-.3-.6-.3-1 0-.5.2-.9.5-1.1s.8-.4 1.4-.4c.5 0 1.1.1 1.6.4l-.3.8a4 4 0 00-1.4-.3l-.7.2c-.2.1-.2.3-.2.5l.1.4.3.3.8.4.9.5.4.5.2.5zM152.8 20.5c0 .6-.2 1.1-.6 1.4s-.9.5-1.7.5h-.6v2.1h-.9v-5.7h1.6c.7 0 1.2.1 1.6.4s.6.7.6 1.3zm-2.9 1.1h.5l1.1-.2c.3-.1.3-.4.3-.8 0-.3-.1-.6-.3-.7l-.9-.2h-.6v1.9zM158 24.5l-.6-1.6h-2.2l-.6 1.6h-1l2.1-5.7h1l2.1 5.7h-.8zm-.8-2.4l-.5-1.6-.2-.5-.1-.5-.3 1.1-.5 1.5h1.6zM160.4 24.5v-5.7h.9v5.7h-.9zM168.2 24.5H167l-2.8-4.6v.3l.1 1.3v3h-.8v-5.7h1.1l2.8 4.5v-.7-3.9h.9v5.8z"
      class="st0"
    />
  </g>
  <g>
    <path
      d="M3.2 24.5H0v-5.7h3.2v.8H.9v1.6h2.2v.8H.9v1.8h2.3v.7zM8.4 22.9c0 .5-.2.9-.6 1.2s-.9.4-1.5.4-1.2-.1-1.6-.3v-.9l.8.3.8.1.8-.2c.2-.1.3-.3.3-.6l-.2-.5-1-.5-1.1-.7c-.2-.2-.3-.6-.3-1 0-.5.2-.9.5-1.1s.8-.4 1.4-.4c.5 0 1.1.1 1.6.4l-.3.7a4 4 0 00-1.4-.3l-.7.2c-.2.1-.2.3-.2.5l.1.4.3.3.8.4.9.5.4.5.2.6zM9.6 22.7V22h2v.8h-2zM16.5 24.5h-3.2v-5.7h3.2v.8h-2.3v1.6h2.2v.8h-2.2v1.8h2.3v.7zM21.6 22.9c0 .5-.2.9-.6 1.2s-.9.4-1.5.4-1.2-.1-1.6-.3v-.9l.8.3.8.1.8-.2c.2-.1.3-.3.3-.6l-.2-.5-1-.5-1.1-.7c-.2-.2-.3-.6-.3-1 0-.5.2-.9.5-1.1s.8-.4 1.4-.4c.5 0 1.1.1 1.6.4l-.3.8a4 4 0 00-1.4-.3l-.7.2c-.2.1-.2.3-.2.5l.1.4.3.3.8.4.9.5.4.5.2.5z"
      class="st0"
    />
  </g>
</svg>
