<svg
  xmlns="http://www.w3.org/2000/svg"
  xmlns:xlink="http://www.w3.org/1999/xlink"
  viewBox="0 0 175 45.2"
>
  <style>
    .st2 {
      fill: #1a181a;
    }
    .st4 {
      fill: #fff;
    }
  </style>
  <g id="arrow_2_">
    <linearGradient
      id="SVGID_1_"
      x1="12.4"
      x2="86.3"
      y1="28.8"
      y2="28.8"
      gradientUnits="userSpaceOnUse"
    >
      <stop offset="0" stop-color="#231f20" stop-opacity="0" />
      <stop offset=".1" stop-color="#231f20" stop-opacity=".1" />
      <stop offset="1" stop-color="#231f20" />
    </linearGradient>
    <path fill="url(#SVGID_1_)" d="M175 28.4l-14.4-9.2V23H0v11.7h160.6v3.7z" />
  </g>
  <path
    id="Direct_2_"
    fill="#f3a31d"
    d="M99.1 24.9h7c2.3 0 2.9.8 2.1 2.7l-.9 2.3c-.7 1.9-1.9 2.7-4.2 2.7H96l3.1-7.7zm.1 5.7h4.2c1 0 1.5-.3 1.9-1.4l.4-1c.4-1.1.2-1.4-.8-1.4h-4.2l-1.5 3.8zm11.5-5.7h2.3l-2.9 7.7h-2.4l3-7.7zm3.9 0h7c1.8 0 2 .9 1.5 2.3l-.2.5c-.4 1-.8 1.6-2 1.9.7.1 1.1.4.7 1.7l-.5 1.3h-2.4l.3-.9c.3-.8.2-1.1-.6-1.1h-3.7l-.7 2h-2.4l3-7.7zm.9 3.8h3.9c.6 0 1-.3 1.2-.8l.1-.3c.2-.7 0-.8-.8-.8h-3.7l-.7 1.9zm9.8-3.8h8.3l-.6 1.8h-6l-.4 1.2h5.7l-.5 1.6H126l-.4 1.2h6.2l-.6 1.9h-8.6l2.7-7.7zm8.7 2.7c.8-2.3 2.2-2.8 4.3-2.8h2.7c3.3 0 3.5.7 2.8 2.9h-2.3l.1-.2c.2-.6-.2-.7-.9-.7h-2.6c-1.2 0-1.7.6-2 1.5l-.3.8c-.4 1.1-.3 1.5.8 1.5h2.5c1.1 0 1.4-.1 1.7-1.1h2.4l-.2.7c-.4 1.3-1.2 2.3-3.6 2.3h-3.8c-2.1 0-3.2-.5-2.5-2.8l.9-2.1zm11.5-2.7h8.9l-.6 1.9h-3.3l-1.8 5.8h-2.4l1.8-5.8h-3.3l.7-1.9z"
  />
  <path
    id="skechers_black_2_"
    d="M41.2 20.7l1.3-5.3 1 .4c-.4-.9 0-1.9.3-2.7l1-2.3c.9-2.1 2.8-3.2 5.2-3.2h11.4l-1.2 5.1-1-.4c.3.5.4 1.3-.1 2.4L58 17.3c-1 2.3-2.8 3.3-5.7 3.3l-11.1.1zm24.1 0l-.9-3.5-.5 1c-.3.7-.3.9-.3 1.1l.2 1.5H53l2.4-2.3c.3-.3.6-.6 1-1.4l3.1-6.8.3-1-.3-1.6h31l-1.2 4.9-.7-.2-1.6 3.3 1.6-.3-3.7 5.3H65.3zm6.4-8.1l1 3.1 2.3-5-.7.4-2.6 1.5zm-1.8-4.4l-1.8 1.7-.1.1 1-.6.8-.6v-.1l.1-.5zm19.2 12.4c-.6 0-2.6 0-3.4-1.4-.9-1.4-.1-3 .1-3.5l2-4.3C89 8.8 91 7.6 93.9 7.6h10l-.2.4-.3 1.3-1 3.8-1.4-.5-1.3-.2h-3.8l-1.6 3.5h1.2c1.9 0 3.5-.4 3.5-.4l3.3-.8-4.1 5.9h-9.1zm6.3 0l2.5-2.3c.3-.3.6-.6 1-1.4l3.1-6.8.3-1-.3-1.5h20.2l-2.4 2.3c-.3.3-.6.5-1 1.4l-3.1 6.8-.3 1 .3 1.5H95.4zm11.9-4.5l-.9 2-.3 1v.1l.9-.8c.4-.3.6-.6 1-1.4l.4-.9h-1.1zm2-4.3h1.1l.7-1.6.3-1v-.1l-.9.8c-.3.3-.6.6-.9 1.4l-.3.5zm18 8.8h-16.1l2.4-2.3c.3-.3.6-.5 1-1.4l3.1-6.8.3-1-.3-1.5h15.2l-1.2 4.9-.7-.2-1.5 3.3 1.6-.4-3.8 5.4zm-4.3-4.3h2.5l1.6-.1-1.1-.1h-2.9l-.1.2zm23.1 4.4h-9.7l-.4-3.8-.6 1.2-.3 1 .3 1.5h-11.1l2.5-2.3c.3-.3.6-.6 1-1.4l3.1-6.8.3-.7-.9-1.8h13.5c1.4 0 3 .2 3.8 1.3.5.8.5 1.7 0 2.8l-.9 1.9c-.7 1.5-1.6 2-2.5 2.3l.3 1.6.1.5.1.6 1.4 2.1zm7.4-.1h-11.2l1.3-5.3 1 .4c-.4-.9 0-1.9.3-2.7l1-2.3c.9-2.1 2.9-3.2 5.2-3.2h11.8l-1.7 5.1-.8-.3c.3.5.4 1.3-.1 2.4l-1.2 2.5c-1 2.4-2.8 3.4-5.6 3.4z"
    class="st2"
  />
  <path
    fill="none"
    d="M140.5 10.2h-3l-1.1 2.4h3c.7 0 .9-.1 1.1-.6l.6-1.3c.2-.4 0-.5-.6-.5z"
  />
  <defs>
    <path
      id="SVGID_2_"
      d="M51.2 10.7c.2-.4.4-.5 1.2-.5h4.9c1 0 1.4.1 2 .3l.5-2.1H50c-1.9 0-3.3.8-4.1 2.5l-1.1 2.3c-.8 1.7-.2 2.3 1.9 2.3H51c.8 0 1 .1.8.5l-.3.7c-.2.4-.4.4-1.2.5h-5.1c-1 0-1.5-.2-1.9-.4l-.5 2.1h9.5c2.5 0 3.7-.9 4.5-2.6l1.2-2.5c.7-1.5-.3-2.1-2.5-2.1h-3.7c-.8 0-1-.1-.8-.5l.2-.5z"
    />
  </defs>
  <use fill="#fff" overflow="visible" xlink:href="#SVGID_2_" />
  <clipPath id="SVGID_3_">
    <use overflow="visible" xlink:href="#SVGID_2_" />
  </clipPath>
  <defs>
    <path
      id="SVGID_4_"
      d="M83.6 14.4c1.2 0 1.8.2 2.3.3l1-2.3c-.6.1-1.3.3-2.5.3h-3.8l1.1-2.4H86a6 6 0 012.3.3l.5-2h-12c.1.4.1.8-.4 1.8l-3.1 6.8-.8 1.3-.7-1.6-1.7-5.2 3.5-2c1-.6 1.5-.8 2.3-1h-4.8l-.1.4c-.2.3-.4.6-1.3 1.1l-5.1 3.2 1.3-2.9c.5-1 .8-1.4 1.3-1.8h-6.1c.1.4.1.8-.4 1.8l-3.1 6.8a6 6 0 01-1.2 1.8h6.1c-.1-.4-.1-.8.4-1.8l.7-1.6 1.7-1.1 1.1 4.4h17.9l1.4-2c-.6.1-1.3.3-2.5.3h-4.6l1.3-2.8h3.7z"
    />
  </defs>
  <use fill="#fff" overflow="visible" xlink:href="#SVGID_4_" />
  <clipPath id="SVGID_5_">
    <use overflow="visible" xlink:href="#SVGID_4_" />
  </clipPath>
  <defs>
    <path
      id="SVGID_6_"
      d="M95.6 16.8h-2.5c-.5 0-.7-.2-.5-.7l2.2-4.9c.1-.2.3-.6 1-.6h3.9c1 0 1.8.3 1.8.3l.6-2.4v-.1h-8.3c-2.3 0-3.9.8-4.9 3.1l-2 4.3c-1 2.2-.1 3.1 2.1 3.1h8.5l1.7-2.5c.2 0-1.5.4-3.6.4z"
    />
  </defs>
  <use fill="#fff" overflow="visible" xlink:href="#SVGID_6_" />
  <clipPath id="SVGID_7_">
    <use overflow="visible" xlink:href="#SVGID_6_" />
  </clipPath>
  <g>
    <defs>
      <path
        id="SVGID_8_"
        d="M114.4 17.1l3.1-6.8c.4-1 .8-1.4 1.2-1.8h-6.1c.1.4.1.8-.4 1.8l-1.1 2.4h-3.9l1.1-2.4c.5-1 .8-1.4 1.3-1.8h-6.1c.1.4.1.8-.4 1.8l-3.1 6.8c-.5 1-.8 1.4-1.3 1.8h6.1c-.1-.4-.1-.8.4-1.8l1.3-2.7h3.9l-1.2 2.7c-.5 1-.8 1.4-1.3 1.8h6.1c0-.4 0-.8.4-1.8z"
      />
    </defs>
    <use fill="#fff" overflow="visible" xlink:href="#SVGID_8_" />
    <clipPath id="SVGID_9_">
      <use overflow="visible" xlink:href="#SVGID_8_" />
    </clipPath>
  </g>
  <g>
    <defs>
      <path
        id="SVGID_10_"
        d="M125.5 17.2H121l1.3-2.8h3.8a6 6 0 012.3.3l1-2.3c-.6.1-1.3.3-2.5.3H123l1.1-2.4h4.3a6 6 0 012.3.3l.5-2h-12c.1.4.1.8-.4 1.8l-3.1 6.8c-.5 1-.8 1.4-1.3 1.8h12.2l1.4-2c-.6 0-1.2.2-2.5.2z"
      />
    </defs>
    <use fill="#fff" overflow="visible" xlink:href="#SVGID_10_" />
    <clipPath id="SVGID_11_">
      <use overflow="visible" xlink:href="#SVGID_10_" />
    </clipPath>
  </g>
  <g>
    <defs>
      <path
        id="SVGID_12_"
        d="M142.6 14.4c1.2-.1 2.2-.1 2.9-1.7l.9-1.9c.8-1.7-.1-2.3-2.5-2.3h-11.4c.2.4.2.8-.3 1.8l-3.1 6.8c-.5 1-.8 1.4-1.3 1.8h6.1c-.1-.4-.1-.8.4-1.8l1.2-2.7h1.6l.4 4.5h5.9c-.3-.4-.3-.9-.4-1.6l-.4-2.9zm-1.6-3.6l-.6 1.3c-.2.5-.5.6-1.1.6h-3l1.1-2.4h3c.7-.1.9 0 .6.5z"
      />
    </defs>
    <use fill="#fff" overflow="visible" xlink:href="#SVGID_12_" />
    <clipPath id="SVGID_13_">
      <use overflow="visible" xlink:href="#SVGID_12_" />
    </clipPath>
  </g>
  <g>
    <defs>
      <path
        id="SVGID_14_"
        d="M152.4 10.7c.2-.4.4-.5 1.2-.5h4.9c1 0 1.4.1 2 .3l.7-2.1h-10c-1.9 0-3.3.8-4.1 2.5l-1.1 2.3c-.8 1.7-.2 2.3 1.9 2.3h4.3c.8 0 1 .1.8.5l-.3.7c-.2.4-.4.5-1.2.5h-5.1c-1 0-1.5-.2-1.9-.4l-.5 2.1h9.5c2.5 0 3.7-.9 4.5-2.6l1.2-2.5c.7-1.5-.2-2.1-2.5-2.1H153c-.8 0-1-.1-.8-.5l.2-.5z"
      />
    </defs>
    <use fill="#fff" overflow="visible" xlink:href="#SVGID_14_" />
    <clipPath id="SVGID_15_">
      <use overflow="visible" xlink:href="#SVGID_14_" />
    </clipPath>
  </g>
  <g>
    <path
      d="M156.8 19.3c0 .8.6 1.4 1.4 1.4.8 0 1.4-.6 1.4-1.4 0-.8-.6-1.4-1.4-1.4-.7 0-1.4.6-1.4 1.4z"
      class="st2"
    />
    <path
      d="M158.2 18.4c-.5 0-.9.4-.9.9s.4.9.9.9.9-.4.9-.9-.4-.9-.9-.9m0 1.6a.7.7 0 01-.7-.7c0-.4.3-.7.7-.7.4 0 .7.3.7.7.1.4-.3.7-.7.7"
      class="st4"
    />
    <path
      d="M158.6 19.7v-.2-.1-.1l.1-.2c0-.2-.1-.3-.3-.3h-.4v.9h.2v-.4h.2c.2 0 .2 0 .2.2v.2m-.4-.4h-.2V19h.2l.2.1c.1.1 0 .2-.2.2"
      class="st4"
    />
  </g>
  <g>
    <path
      d="M38.2 40.3l.2 1.2c.1.2.3.3.5.3s.4-.1.5-.3l.2-1.2-.2-1.2a.5.5 0 00-.5-.3c-.2 0-.4.1-.5.3l-.2 1.2"
    />
    <path
      d="M48.1 37.6l-1-.5-.5-.1h-4.8v1l-.1-.1c-.7-.7-1.6-1-2.7-1l-.7.1-.7.2-.6.3-.7.6v-1H32l-.3.8-.5-.9h-4.3v2.7h.4V41h-.4v2.7h9.3v-1l.1.1a4 4 0 002.6.9c1.1 0 2-.3 2.7-1l.1-.1v1.1H46v-.5l.2.5h8.3v-3.1H53v-.5h1.5V37h-6.4v.6zm.4 2.9v.4l-.1-.2.1-.2zM76.4 37.5L76 37H54.7v3.6h1.6v.4h-.5v2.7h4.4V41h-.5v-.4h1v.4h-.4v2.7H76v-.9l.7.9h2.8v-4h.5V37h-3.5v.5zm-8.8 2.1h.1l-.3.8v-.8h.2zm5.2 0h.1v.7l-.3-.7h.2zM127.7 40l.4-.4h.8V37h-7.4v.6l-1-.5-.5-.1h-4.8v1l-.1-.1c-.7-.7-1.6-1-2.7-1l-.7.1-.7.2-.6.3-.2.1V37H92.4l-.6-.1c-.5 0-.9.1-1.2.3V37h-9.8v2.7h.5V42.5l-.6-.1v2.8l.6.1.9.1 1.3-.2.9-.7.4-1v-1l.4.6c.3.3.6.5 1 .6l1.2.2c.6 0 1.1-.1 1.5-.3.3-.1.5-.3.6-.5v.8H92l.6.1c.7 0 1.3-.2 1.7-.7.5-.4.7-1 .7-1.6l-.1-.8h.7v.4H95V44h4.4v-2.7h-.5v-.4h1.6V40h.4l1.5 4h2.6l.2-.6.2.6h2.6l.8-2.2c.2.5.5.9.9 1.3a4 4 0 002.6.9c1.1 0 2-.3 2.7-1l.1-.1V44h4.3v-.5l.2.5h9.4v-2.7h-.6l-.7-1.3zm-5.8.5v.4l-.1-.2.1-.2zM158.1 40.3l-.3-.4h.3V37h-2.4l-.6-.1c-.6 0-1.1.2-1.5.5V37h-6.4v1l-.1-.1c-.7-.7-1.6-1-2.7-1l-.7.1-.7.2-.6.3-.7.6v-1h-9.2l-.6-.1c-.6 0-1.2.2-1.6.6-.5.4-.7 1-.7 1.7 0 .4.1.8.3 1.1l.2.3h-.4v3.1h2.5l.6.1c.6 0 1.1-.2 1.5-.5v.4h7.5v-1l.2.2a4 4 0 002.6.9c1.1 0 2-.3 2.7-1l.1-.1v1.1h8.1l.6.1c.7 0 1.3-.2 1.7-.7.5-.4.7-1 .7-1.6-.1-.7-.2-1.1-.4-1.4zm-6 .2V40h.9l.1.2.2.3H152.1z"
    />
    <path
      d="M29.6 42.9h-2v-1.2h.4v-2.8h-.4v-1.2h3.2l.7 2 .8-2h3.2v1.2H35v2.8h.5v1.2h-2.8v-1.2h.5v-3l-1.6 4.2h-.8l-1.6-4.1v2.9h.4zM36 40.3c0-.4.1-.9.3-1.3.2-.4.5-.7 1-1l.5-.2.5-.1h.6c.9 0 1.7.3 2.2.8l.6.9.2 1c0 .7-.3 1.4-.8 1.9a3 3 0 01-2.2.8c-.9 0-1.6-.3-2.1-.8-.6-.6-.8-1.2-.8-2m2.2 0l.2 1.2c.1.2.3.3.5.3s.4-.1.5-.3l.2-1.2-.2-1.2a.5.5 0 00-.5-.3c-.2 0-.4.1-.5.3l-.2 1.2M45.2 42.9h-2.8v-1.3h.4v-2.7h-.4v-1.3h4.1l.4.1c.4.1.7.2.9.5l.3.9-.2.7a1 1 0 01-.6.5l.7 1.2h.4v1.3h-1.9l-1.1-2.1h-.6v.9h.4v1.3zm-.4-4.1v1h.8l.3-.1.1-.3-.1-.3-.3-.2h-.8zM53.8 42.9h-5v-1.2h.4v-2.8h-.4v-1.2h5v1.7h-1.4v-.5h-1.2v.8h1v1.1h-1v.9h1.2v-.5h1.4zM59.5 42.9h-2.9v-1.2h.4v-2.8h-.6v1h-1v-2.2h5.2v2.2h-1v-1H59v2.8h.5zM63.8 42.9h-2.7v-1.2h.4v-2.8h-.4v-1.2h2.7v1.2h-.3v.8h1.2v-.8h-.3v-1.2h2.7v1.2h-.4v2.8h.4v1.2h-2.7v-1.2h.3v-.9h-1.2v.9h.3zM69.4 42.9h-2.1v-1.3h.4l1-2.7h-.4v-1.3h3.8v1.3h-.4l1 2.7h.3v1.3h-2.7v-1.1h.5l-.2-.7h-1.3l-.3.7h.4v1.1zm.5-3.9l-.5 1.4h.9l-.4-1.4zM75.3 42.9h-2.1v-1.2h.4v-2.8h-.4v-1.2h2.4l1.9 2.7v-1.5h-.4v-1.2h2.1v1.2h-.4V43H77l-2.2-3.2v1.9h.5zM81.2 44.5v-1.3h.2c.2 0 .3-.1.3-.2l.1-.8v-3.3h-.5v-1.3h2.9v1.3h-.4v4.3c0 .2-.1.5-.3.7a1 1 0 01-.6.5l-1 .2-.7-.1M84.9 38.9h-.4v-1.3h2.7v1.3H87v1.8l.1.9c.1.2.2.2.4.2l.4-.2.1-.8v-1.9h-.3v-1.3h2v1.3h-.4v1.9l-.2 1.2c-.1.3-.4.5-.7.7-.4.2-.8.3-1.3.3l-1-.1-.7-.4-.4-.7-.1-1.2v-1.7zM91.2 42.9H90v-1.7h1.2c.1.5.4.7.8.7.3 0 .4-.1.4-.3l-.1-.3-.7-.4-.9-.5-.5-.5-.2-.7c0-.5.2-.9.5-1.1.3-.3.7-.4 1.2-.4s.8.1 1.2.4v-.3H94v1.5h-1.2c-.1-.4-.4-.6-.8-.6-.3 0-.4.1-.4.3l.1.2.7.4c.5.3.9.4 1 .6l.3.2.2.3.2.8c0 .4-.2.8-.5 1.1-.2.2-.6.4-1.1.4a2 2 0 01-1.3-.4v.3zM98.7 42.9h-3v-1.2h.5v-2.8h-.6v1h-1v-2.2h5.2v2.2h-1v-1h-.6v2.8h.5zM104.5 43h-1.6l-1.5-4.1h-.3v-1.2h2.7v1.2h-.4l.6 2.3.8-2.3h-.4v-1.2h2.3v1.2h-.4l.8 2.3.6-2.3h-.4v-1.2h2.1v1.2h-.3l-1.5 4.1H106l-.8-2.1zM109.4 40.3c0-.4.1-.9.3-1.3.2-.4.5-.7 1-1l.5-.2.5-.1h.6c.9 0 1.7.3 2.2.8l.6.9.2 1c0 .7-.3 1.4-.8 1.9a3 3 0 01-2.2.8c-.9 0-1.6-.3-2.1-.8a3 3 0 01-.8-2m2.3 0l.2 1.2c.1.2.3.3.5.3s.4-.1.5-.3l.2-1.2-.2-1.2a.5.5 0 00-.5-.3c-.2 0-.4.1-.5.3-.2.2-.2.6-.2 1.2M118.7 42.9h-2.8v-1.3h.4v-2.7h-.4v-1.3h4.1l.4.1c.4.1.7.2.9.5l.3.9-.2.7a1 1 0 01-.6.5l.7 1.2h.4v1.3H120l-1.1-2.1h-.6v.9h.4v1.3zm-.4-4.1v1h.8l.3-.1.1-.3-.1-.3-.3-.2h-.8zM125 42.9h-2.8v-1.2h.4V39h-.4v-1.3h2.8V39h-.4v2.7h.4v1.2zm3.3 0h-2.7v-1.2h.3l-1.1-1.5 1.3-1.2h-.4v-1.3h2.6V39h-.4l-1.1 1 1.3 1.7h.3v1.2zM131.5 42.9h-1.2v-1.7h1.2c.1.5.4.7.8.7.3 0 .4-.1.4-.3l-.1-.3-.7-.4-.9-.5-.5-.5-.2-.7c0-.5.2-.9.5-1.1.3-.3.7-.4 1.2-.4s.8.1 1.2.4v-.3h1.2v1.5h-1.2c-.1-.4-.4-.6-.8-.6-.3 0-.4.1-.4.3l.1.2.7.4c.5.3.9.4 1 .6l.3.2.2.3.2.8c0 .4-.2.8-.5 1.1-.3.3-.7.5-1.2.5a2 2 0 01-1.3-.4v.2zM137.7 42.9h-2.8v-1.2h.4v-2.8h-.4v-1.2h2.8v1.2h-.4v.8h1.3v-.8h-.4v-1.2h2.8v1.2h-.4v2.8h.4v1.2h-2.8v-1.2h.4v-.9h-1.3v.9h.4zM141.5 40.3c0-.4.1-.9.3-1.3.2-.4.5-.7 1-1l.5-.2.5-.1h.6c.9 0 1.7.3 2.2.8l.6.9.2 1c0 .7-.3 1.4-.8 1.9a3 3 0 01-2.2.8c-.9 0-1.6-.3-2.1-.8a3 3 0 01-.8-2m2.3 0l.2 1.2c.1.2.3.3.5.3s.4-.1.5-.3l.2-1.2-.2-1.2a.5.5 0 00-.5-.3c-.2 0-.4.1-.5.3-.2.2-.2.6-.2 1.2M152.9 42.9h-5v-1.2h.4v-2.8h-.4v-1.2h5v1.7h-1.4v-.5h-1.1v.8h1v1.1h-1v.9h1.1v-.5h1.4zM154.7 42.9h-1.2v-1.7h1.2c.1.5.4.7.8.7.3 0 .4-.1.4-.3l-.1-.3-.7-.4-.9-.5-.5-.5-.2-.7c0-.5.2-.9.5-1.1.3-.3.7-.4 1.2-.4s.8.1 1.2.4v-.3h1.2v1.5h-1.2c-.1-.4-.4-.6-.8-.6-.3 0-.4.1-.4.3l.1.2.7.4c.5.3.9.4 1 .6l.3.2.2.3.2.8c0 .4-.2.8-.5 1.1-.3.3-.7.5-1.2.5a2 2 0 01-1.3-.4v.2z"
      class="st4"
    />
  </g>
  <g>
    <path
      d="M133.6 5.7l-.6-1.6h-2.2l-.6 1.6h-1l2.1-5.7h1l2.1 5.7h-.8zm-.8-2.4l-.5-1.6-.2-.5-.1-.5-.3 1.1-.5 1.5h1.6zM140.6 2.8c0 .9-.3 1.7-.8 2.2s-1.3.7-2.3.7H136V0h1.8c.9 0 1.6.2 2.1.7s.7 1.2.7 2.1zm-1 .1c0-1.4-.6-2.1-1.9-2.1h-.8v4.1h.7c1.3 0 2-.6 2-2zM144.9 5.7L143.2 1l.1 2v2.8h-.8V0h1.3l1.6 4.5L147 0h1.3v5.7h-.9V2.9 1.8 1l-1.7 4.8h-.8zM150.4 5.7V0h.9v5.7h-.9zM158.2 5.7h-1.1l-2.8-4.6v.3l.1 1.3v3h-.8V0h1.1l2.8 4.5v-.7V0h.9v5.7z"
    />
  </g>
</svg>
