<svg
  xmlns="http://www.w3.org/2000/svg"
  xmlns:xlink="http://www.w3.org/1999/xlink"
  viewBox="0 0 175 98.2"
>
  <style>
    .st0 {
      stroke: #003976;
    }
    .st0,
    .st1,
    .st2,
    .st4 {
      fill: #003976;
    }
    .st2,
    .st4 {
      stroke: #003976;
      stroke-width: 0.45;
    }
    .st4 {
      fill: #f9f9f9;
      stroke-width: 1.5;
    }
  </style>
  <defs>
    <path
      id="SVGID_1_"
      d="M87.4 1.5c9.6 0 15.6 3.1 20.3 4a74.5 74.5 0 0010.9 1.3v35.5c0 .5.9 10.5-9.4 17.1-4 2.5-11.3 5.2-14.7 6.8-5.5 2.6-7 4.6-7 4.6s-1.3-2-6.8-4.6C77.2 64.6 70 61.8 66 59.4c-10.2-6.1-9.4-16.6-9.5-17.1V6.8s4.5-.1 10.9-1.3c4.8-.9 10.7-4 20.3-4h-.3z"
    />
  </defs>
  <use fill="#fff" overflow="visible" xlink:href="#SVGID_1_" />
  <clipPath id="SVGID_2_">
    <use overflow="visible" xlink:href="#SVGID_1_" />
  </clipPath>
  <use
    fill="none"
    stroke="#003976"
    stroke-miterlimit="3"
    stroke-width="3"
    overflow="visible"
    xlink:href="#SVGID_1_"
  />
  <path d="M111.5 57.4c8.5-7 6.9-14 6.9-14.4V7s-1.2.3-6.9-.6v51z" class="st0" />
  <g>
    <path
      d="M63.7 57.3c-8.1-5.3-6.9-13.5-6.9-14L56.7 7s1.3.3 7-.6v50.9z"
      class="st0"
    />
  </g>
  <path d="M66 5.9v53.4l1.4.7V5.6zM109.3 6v53.4l-1.5.8V5.7z" class="st0" />
  <g>
    <path
      d="M.8 84.3a15 15 0 005.6 1.2c3.2 0 5.1-1.3 5.1-3.1 0-1.7-1.3-2.7-4.6-3.6-4-1-6.4-2.6-6.4-5.1 0-2.8 3.1-4.9 7.8-4.9 2.5 0 4.3.4 5.4.9l-.9 1.9c-.8-.3-2.4-.9-4.6-.9-3.3 0-4.6 1.5-4.6 2.7 0 1.7 1.5 2.5 4.8 3.5 4.1 1.2 6.2 2.7 6.2 5.3 0 2.8-2.8 5.2-8.5 5.2-2.3 0-4.9-.5-6.2-1.2l.9-1.9zM33 80.6c0 4.4-3.5 6.7-7.9 6.7-4.5 0-7.6-2.6-7.6-6.4 0-4 3.3-6.7 7.9-6.7 4.6 0 7.6 2.7 7.6 6.4zm-13.2.2c0 2.7 2 5.1 5.4 5.1 3.5 0 5.4-2.4 5.4-5.3 0-2.5-1.8-5.2-5.4-5.2-3.6.2-5.4 2.7-5.4 5.4zM38.3 74.4v7.5c0 2.8 1.7 4 4 4 2.5 0 4.1-1.2 4.1-4v-7.5h2.2v7.4c0 3.9-2.7 5.5-6.4 5.5-3.5 0-6.1-1.5-6.1-5.4v-7.5h2.2zM55.9 75.8h-5.2v-1.4h12.6v1.4h-5.2v11.3h-2.2V75.8zM67.6 74.4v5.3h8.2v-5.3H78v12.7h-2.2v-5.9h-8.2v5.9h-2.2V74.4h2.2zM90.9 81.2h-6.6v4.6h7.4v1.4h-9.5V74.4h9.2v1.4h-7v4H91v1.4zM97.5 83.1l-1.8 4h-2.3l5.8-12.7h2.6l5.8 12.7h-2.3l-1.8-4h-6zm5.5-1.3l-1.7-3.6-.9-2.3h-.1l-.9 2.3-1.7 3.7h5.3zM110.1 85.1a9 9 0 003.9.8c2.2 0 3.5-.9 3.5-2.2 0-1.2-.9-1.9-3.2-2.5-2.8-.7-4.5-1.8-4.5-3.6 0-2 2.2-3.4 5.5-3.4 1.7 0 3 .3 3.8.6l-.6 1.3c-.6-.2-1.7-.6-3.2-.6-2.3 0-3.2 1-3.2 1.9 0 1.2 1 1.8 3.4 2.4 2.9.8 4.3 1.9 4.3 3.7 0 2-1.9 3.6-5.9 3.6-1.6 0-3.4-.4-4.3-.8l.5-1.2zM126.3 75.8h-5.2v-1.4h12.6v1.4h-5.2v11.3h-2.2V75.8zM144.6 81.2H138v4.6h7.4v1.4h-9.5V74.4h9.2v1.4h-7v4h6.6v1.4zM148.5 74.6c1.1-.2 2.7-.3 4.2-.3 2.3 0 3.9.3 4.9 1 .9.6 1.3 1.4 1.3 2.4 0 1.7-1.4 2.8-3.2 3.2v.1c1.3.3 2.1 1.2 2.5 2.6.6 1.8 1 3 1.3 3.5h-2.3a10 10 0 01-1.1-3c-.5-1.7-1.4-2.4-3.4-2.5h-2.1v5.5h-2.2V74.6zm2.2 5.8h2.2c2.3 0 3.8-1 3.8-2.4 0-1.6-1.6-2.4-3.9-2.4l-2.2.1v4.7zM162.3 87.1V74.4h2.4l5.4 6.4a30 30 0 013 4.1h.1c-.2-1.7-.3-3.2-.3-5.2v-5.3h2.1v12.7h-2.2l-5.4-6.4a52.2 52.2 0 01-3.2-4.2h-.1l.2 5.2v5.4h-2z"
      class="st1"
    />
  </g>
  <g>
    <path
      d="M7.1 89.5l2.6-.2c1.4 0 2.3.2 3 .6.6.3.9.8.9 1.5 0 .8-.7 1.6-1.9 1.9 1 .2 2.3.9 2.3 2.2 0 .7-.4 1.3-.9 1.7-.8.6-2 .8-3.8.8l-2.2-.1v-8.4zm1.4 3.6h1.3c1.5 0 2.4-.6 2.4-1.5 0-1-1-1.4-2.4-1.4l-1.2.1v2.8zm0 4.2l1.2.1c1.5 0 2.8-.4 2.8-1.7 0-1.2-1.3-1.7-2.8-1.7H8.5v3.3zM16.4 96.2l-.8 1.9h-1l2.6-6.1h1.2l2.6 6.1h-1.1l-.8-1.9h-2.7zm2.5-.6l-.7-1.7-.4-1.1-.4 1.1-.7 1.8h2.2zM21.8 92.1l1.9-.1c1 0 1.7.2 2.1.5.4.3.7.7.7 1.3 0 .5-.2 1-.6 1.3a4 4 0 01-2.3.7l-.8-.1v2.4h-1v-6zm1 2.9l.8.1c1.2 0 1.9-.5 1.9-1.3s-.7-1.2-1.8-1.2l-.9.1V95zM29 92.7h-2.3V92h5.7v.7H30v5.4h-1v-5.4zM33.9 92v6.1h-1V92h1zM35.2 97.2c.4.2 1.1.4 1.8.4 1 0 1.6-.4 1.6-1s-.4-.9-1.4-1.2c-1.3-.4-2-.9-2-1.7 0-.9 1-1.6 2.5-1.6.8 0 1.4.1 1.7.3l-.4.5c-.2-.1-.8-.3-1.5-.3-1 0-1.4.5-1.4.9 0 .6.5.8 1.5 1.2 1.3.4 2 .9 2 1.8s-.9 1.7-2.7 1.7a6 6 0 01-2-.4l.3-.6zM42.1 92.7h-2.3V92h5.7v.7h-2.3v5.4h-1v-5.4zM50.9 90.4h-3.3v-1h8.1v1h-3.3v7.7H51v-7.7zM57.1 92v2.5h3.7V92h1v6.1h-1v-2.8h-3.7v2.8h-1V92h1zM67.2 95.3h-3v2.2h3.3v.7h-4.3V92h4.1v.7h-3.1v1.9h3v.7zM75.1 95c0 2.1-1.6 3.2-3.6 3.2s-3.4-1.2-3.4-3.1c0-1.9 1.5-3.2 3.6-3.2 2 0 3.4 1.3 3.4 3.1zm-6 .1c0 1.3.9 2.5 2.4 2.5 1.6 0 2.5-1.1 2.5-2.5 0-1.2-.8-2.5-2.4-2.5-1.7 0-2.5 1.2-2.5 2.5zM76 92h1v5.4h3.3v.7H76V92zM87.2 95c0 2.1-1.6 3.2-3.6 3.2s-3.4-1.2-3.4-3.1c0-1.9 1.5-3.2 3.6-3.2s3.4 1.3 3.4 3.1zm-5.9.1c0 1.3.9 2.5 2.4 2.5 1.6 0 2.5-1.1 2.5-2.5 0-1.2-.8-2.5-2.4-2.5-1.7 0-2.5 1.2-2.5 2.5zM94.1 97.8c-.4.1-1.3.3-2.4.3-1.2 0-2.1-.2-2.9-.8a2.7 2.7 0 01-1.1-2.3c0-1.8 1.6-3.1 4.1-3.1.9 0 1.6.2 1.9.3l-.2.6c-.4-.1-.9-.3-1.7-.3-1.9 0-3.1.9-3.1 2.4s1.2 2.5 3 2.5l1.3-.2v-1.8h-1.6v-.6h2.5v3zM96.3 92v6.1h-1V92h1zM103.1 97.9c-.4.1-1.1.3-2 .3-2.2 0-3.8-1.1-3.8-3.1 0-1.9 1.6-3.2 4-3.2 1 0 1.6.2 1.8.3l-.2.6c-.4-.1-.9-.3-1.5-.3-1.8 0-3 .9-3 2.5 0 1.5 1.1 2.4 2.9 2.4.6 0 1.2-.1 1.6-.3l.2.8zM105.3 96.2l-.8 1.9h-1l2.6-6.1h1.2l2.6 6.1h-1.1l-.8-1.9h-2.7zm2.5-.6l-.8-1.7-.4-1.1-.4 1.1-.8 1.8h2.4zM110.7 92h1v5.4h3.3v.7h-4.3V92zM119 96.7c.6.3 1.6.6 2.5.6 1.4 0 2.3-.6 2.3-1.5 0-.8-.6-1.3-2.1-1.7-1.8-.5-2.9-1.2-2.9-2.5 0-1.4 1.4-2.4 3.5-2.4 1.1 0 1.9.2 2.4.4l-.4.9c-.4-.2-1.1-.4-2.1-.4-1.5 0-2.1.7-2.1 1.3 0 .8.7 1.2 2.2 1.7 1.9.6 2.8 1.3 2.8 2.6s-1.2 2.5-3.8 2.5c-1.1 0-2.2-.2-2.8-.6l.5-.9zM130.4 95.3h-3v2.2h3.3v.7h-4.3V92h4.1v.7h-3.1v1.9h3v.7zM138.2 95.4l-.1-2.6-1 2.3-1.4 2.9h-.7l-1.2-2.9-.9-2.4-.1 2.7-.2 2.6h-.9l.5-6.1h1.3l1.3 2.9.8 2 .8-2 1.4-2.9h1.3l.5 6.1h-1l-.4-2.6zM141.6 92v6.1h-1V92h1zM143.1 98.1V92h1.1l2.5 3.1 1.4 2-.1-2.5V92h.9v6.1h-1l-2.4-3.1-1.4-2 .1 2.5v2.6h-1.1zM151.5 96.2l-.8 1.9h-1l2.6-6.1h1.2l2.6 6.1H155l-.8-1.9h-2.7zm2.5-.6l-.8-1.7-.4-1.1-.4 1.1-.8 1.8h2.4zM156.9 92.1l1.9-.1a4 4 0 012.2.5c.4.3.6.7.6 1.2 0 .8-.6 1.3-1.4 1.6.6.2.9.6 1.1 1.2l.6 1.7h-1a8 8 0 01-.5-1.5c-.2-.8-.6-1.2-1.5-1.2h-.9v2.6h-1v-6zm1 2.8h1c1.1 0 1.7-.5 1.7-1.2 0-.8-.7-1.1-1.8-1.1l-1 .1v2.2zM164.3 98.1v-2.6l-2.4-3.5h1.1l1.1 1.7.8 1.3.8-1.3 1.1-1.7h1.1l-2.6 3.5v2.6h-1z"
      class="st1"
    />
  </g>
  <g>
    <path d="M72.7 38.1l-2.5 19.8h33.6l-3.3-20.6-13.8 2.3z" class="st2" />
    <path
      fill="#fff"
      stroke="#003976"
      stroke-width="1.5"
      d="M73.7 36.3s1.1.7 2.8.1c2.4-.9 4.4-1 6-.7 4.3.8 4.5 2.1 4.5 2.1s.5-1.5 4.3-2.1c2-.3 3.2 0 5.7.4 2.2.3 3.1-.2 3.1-.2l3.8 22s-7.8-1.1-10.4-.9c-2.7.3-6.3 1.2-6.3 1.2s-3.5-.9-6.3-1.1c-3.5-.3-9.6.8-9.6.8l2.4-21.6z"
    />
    <path
      d="M87 37.9l.1 20M103.8 58l-3.7-21.2 1.2.2 3.8 21.7-16.5-.5s.1.4-.2.5a7 7 0 01-1.2.3c-.3 0-1-.2-1.3-.4-.2-.1-.2-.4-.2-.4l-15.7.6 2.5-21 1-.4L71.3 58"
      class="st4"
    />
  </g>
  <g>
    <path
      fill="#fff"
      stroke="#003976"
      stroke-linejoin="round"
      stroke-width=".6"
      d="M86.4 6c-1.9.5-3.5 1.7-4.4 2.6l-.1.1-.5-.4-.2.2-5.4 6.3v.4l-.1 1.9c0 1 .1 2.2.4 3.3 1.2 3.9 3.9 6.1 6.8 8.1l.8.6c2.3 1.7 5.4 4.3 6.2 6.8l.3 2.1c0 .9-.2 1.7-.6 2.4-.5.9-1.3 1.4-2.3 1.7-3.2.8-6.1-1.8-7-4.7-.3-1-.3-2-.4-3l-.1-3.3-6.5 8.1.3.7c1.6 3.2 5.5 8.2 14.4 6a12 12 0 005.6-2.9c3.2-1.1 7.8-4.4 7.8-9.3 0-.8-.1-1.6-.4-2.5-1.1-3.8-4.6-6.3-7.5-8.2l-.7-.5-.7-.5c-2-1.4-6.3-4.4-7-7l-.2-1.1c0-.5.2-1.1.4-1.5.4-.7 1.1-1.2 2-1.5 2.7-.7 3.9 1.6 4.6 3l.8 1.7 5.1-5.8-1.1-.8c-2.9-2.1-6.2-4-10.3-3z"
    />
    <path
      d="M92.4 23.7c2.7 1.9 6.6 4.3 7.7 8.1 1.7 5.7-3.8 9.4-6.9 10.4-1 .9-2.2 2.1-5.3 2.8-7.8 1.9-11.5-2.2-13-5.4l4-5c0 1.1.1 2.3.4 3.4 1.1 3.6 4.6 6.4 8.4 5.5 3.2-.8 4.5-4.1 3.4-7.7-.9-3-4.5-5.8-6.6-7.4l-.9-.7c-3-2.1-5.3-4.1-6.3-7.5-.5-1.5-.4-3.1-.3-4.7l3.8-4.5a8 8 0 00-.4 6.1c1 3.3 3.7 5 7.9 7.8l1.3.8c2.5 1.8 5.7 3.8 6.8 7.6a6 6 0 01-.8 5.5l.1.1c1.9-1.1 4-3.3 2.9-6.8-.9-3.1-3.9-5.2-6.8-7.1l-2.3-1.6c-5.7-4-7.2-5-8-7.8-1.1-3.8 1.1-7.3 5.1-8.3 3.4-.8 6.1.4 9.3 2.7l-3 3.5c-.7-1.4-2.3-4.6-6-3.7-2.5.6-3.9 3-3.1 5.6.9 3.1 5.4 6.2 7.5 7.7l1.1.6z"
      class="st2"
    />
  </g>
</svg>
