<svg xmlns="http://www.w3.org/2000/svg" viewBox="0 0 175 62.7">
  <style>
    .st0 {
      fill: #4a1913;
    }
  </style>
  <g id="Color_Logo_Group_1_">
    <path
      d="M47.9 60.1l-.5 1.6h-.7l1.7-5.1h.8l1.7 5.1h-.7l-.5-1.6h-1.8zm1.7-.5l-.5-1.5-.3-.9-.3.9-.5 1.5h1.6zM54.9 56.7l1.4-.1c.9 0 1.6.2 2.1.6.5.4.7 1 .7 1.8s-.3 1.5-.7 2c-.5.5-1.3.7-2.3.7l-1.2-.1v-4.9zm.6 4.5h.7c1.4 0 2.2-.8 2.2-2.2 0-1.2-.7-2-2.1-2l-.8.1v4.1zM61.3 56.6v5.1h-.7v-5.1h.7zM64.3 61.7l-1.7-5.1h.7l.8 2.5.5 1.9.6-1.9.9-2.5h.7L65 61.7h-.7zM68.9 56.6v5.1h-.7v-5.1h.7zM70.7 60.9c.3.2.7.3 1.2.3.7 0 1.1-.4 1.1-.9s-.3-.7-1-1c-.8-.3-1.3-.7-1.3-1.4 0-.8.7-1.4 1.6-1.4l1.1.2-.2.5-1-.2c-.7 0-1 .4-1 .8 0 .5.3.7 1 1 .9.3 1.3.7 1.3 1.5s-.6 1.5-1.8 1.5c-.5 0-1-.1-1.3-.3l.3-.6zM75.9 56.6v5.1h-.7v-5.1h.7zM82.2 59.1c0 1.8-1.1 2.7-2.4 2.7-1.3 0-2.3-1-2.3-2.6s1-2.7 2.4-2.7 2.3 1.1 2.3 2.6zm-4 .1c0 1.1.6 2.1 1.6 2.1s1.6-1 1.6-2.1c0-1-.5-2.1-1.6-2.1-1 0-1.6 1-1.6 2.1zM83.8 61.7v-5.1h.7l1.6 2.6c.4.6.7 1.1.9 1.7v-4.2h.6v5.1h-.7l-1.6-2.6-1-1.7.1 2.1v2.2h-.6zM96.2 59.1c0 1.8-1.1 2.7-2.4 2.7-1.3 0-2.3-1-2.3-2.6s1-2.7 2.4-2.7 2.3 1.1 2.3 2.6zm-3.9.1c0 1.1.6 2.1 1.6 2.1s1.6-1 1.6-2.1c0-1-.5-2.1-1.6-2.1s-1.6 1-1.6 2.1zM97.8 56.6h2.7v.6h-2.1v1.7h1.9v.5h-1.9v2.3h-.7v-5.1zM107.3 59.3h-2v1.8h2.2v.6h-2.9v-5.1h2.8v.6h-2.1v1.6h2v.5zM113.3 62.5l-2-.6-.3-.1c-1.2 0-2.2-.9-2.2-2.6 0-1.6 1-2.7 2.4-2.7s2.3 1.1 2.3 2.6c0 1.3-.6 2.1-1.5 2.4l1.5.3-.2.7zm-.5-3.3c0-1-.5-2.1-1.6-2.1s-1.7 1-1.6 2.1c0 1.1.6 2.1 1.6 2.1s1.6-1 1.6-2.1zM115.7 56.6v5.1h-.7v-5.1h.7zM121.9 62.5l-2-.6-.3-.1c-1.2 0-2.2-.9-2.2-2.6 0-1.6 1-2.7 2.4-2.7s2.3 1.1 2.3 2.6c0 1.3-.6 2.1-1.5 2.4l1.5.3-.2.7zm-.6-3.3c0-1-.5-2.1-1.6-2.1s-1.7 1-1.6 2.1c0 1.1.6 2.1 1.6 2.1s1.6-1 1.6-2.1zM122.9 62.7l.5-1.8.7-.1-.7 1.8-.5.1zM128.7 56.6v5.1h-.7v-5.1h.7zM130.6 61.7v-5.1h.7l1.6 2.6c.4.6.7 1.1.9 1.7l-.1-2.1v-2.1h.6v5.1h-.7l-1.6-2.6-1-1.7.1 2.1v2.2h-.5zM139.9 61.6l-1.3.2c-1.4 0-2.5-.9-2.5-2.6 0-1.6 1.1-2.7 2.7-2.7l1.2.2-.2.5-1-.2c-1.2 0-2 .8-2 2.1 0 1.2.7 2.1 2 2.1l1.1-.2v.6z"
      class="st0"
    />
    <path fill="none" stroke="#4a1913" d="M46.5 51.5H175" />
    <g>
      <path
        d="M48.6 38.4v8.7h-1.1v-8.7h1.1zM50.9 47.1v-8.7h1.2l2.8 4.4a93 93 0 011.6 2.8l-.1-3.6v-3.6h1.1v8.7h-1.1l-2.8-4.4-1.6-2.9.1 3.6v3.7h-1.2zM61.3 39.4h-2.6v-1h6.4v1h-2.6v7.7h-1.1v-7.7zM70.9 43h-3.4v3.1h3.8v.9h-4.9v-8.7h4.7v.9h-3.6v2.7h3.4V43zM73.1 38.5l2.1-.2c1.2 0 2 .2 2.5.7.4.4.7 1 .7 1.6 0 1.1-.7 1.9-1.6 2.2.7.2 1.1.8 1.3 1.7l.7 2.4h-1.2l-.6-2.1c-.3-1.2-.7-1.6-1.7-1.7h-1.1v3.8h-1.1v-8.4zm1.1 4h1.1c1.2 0 2-.7 2-1.6 0-1.1-.8-1.6-2-1.6l-1.1.1v3.1zM80.3 47.1v-8.7h1.2l2.8 4.4a93 93 0 011.6 2.8l-.1-3.6v-3.6h1.1v8.7h-1.1L83 42.7l-1.6-2.9.1 3.6v3.7h-1.2zM90.5 44.3l-.9 2.7h-1.2l2.9-8.7h1.3l3 8.7h-1.2l-.9-2.7h-3zm2.8-.8l-.8-2.5-.4-1.6-.4 1.6-.8 2.5h2.4zM97.9 39.4h-2.6v-1h6.4v1h-2.6v7.7H98v-7.7zM104.1 38.4v8.7H103v-8.7h1.1zM113.8 42.7c0 3-1.8 4.6-4 4.6-2.3 0-3.9-1.8-3.9-4.4 0-2.8 1.7-4.6 4-4.6 2.4 0 3.9 1.8 3.9 4.4zm-6.7.1c0 1.9 1 3.5 2.8 3.5 1.8 0 2.8-1.6 2.8-3.6 0-1.7-.9-3.5-2.8-3.5s-2.8 1.7-2.8 3.6zM115.6 47.1v-8.7h1.2l2.8 4.4a93 93 0 011.6 2.8l-.1-3.6v-3.6h1.1v8.7h-1.1l-2.8-4.4-1.6-2.9.1 3.6v3.7h-1.2zM125.7 44.3l-.9 2.7h-1.2l2.9-8.7h1.3l3 8.7h-1.2l-.9-2.7h-3zm2.9-.8l-.8-2.5-.4-1.6-.4 1.6-.8 2.5h2.4zM132.5 38.4h1.1v7.7h3.7v.9h-4.8v-8.6z"
        class="st0"
      />
    </g>
    <g>
      <path
        d="M47.4 30.7a4 4 0 002 .6c1.1 0 1.8-.6 1.8-1.5 0-.8-.5-1.3-1.6-1.7-1.4-.5-2.3-1.2-2.3-2.5s1.1-2.4 2.8-2.4c.9 0 1.5.2 1.9.4l-.3.9c-.3-.2-.9-.4-1.6-.4-1.2 0-1.6.7-1.6 1.3 0 .8.5 1.2 1.7 1.7 1.5.6 2.2 1.3 2.2 2.5 0 1.3-1 2.5-3 2.5-.8 0-1.7-.2-2.2-.6l.2-.8zM55.5 24.4h-2.6v-1h6.4v1h-2.6v7.7h-1.1v-7.7zM60.7 29.3l-.9 2.7h-1.2l2.9-8.7h1.3l3 8.7h-1.2l-.9-2.7h-3zm2.8-.8l-.8-2.5-.4-1.6-.4 1.6-.8 2.5h2.4zM67.9 23.4v5.1c0 1.9.9 2.8 2 2.8 1.3 0 2.1-.8 2.1-2.8v-5.1h1.1v5.1c0 2.7-1.4 3.8-3.3 3.8-1.8 0-3.1-1-3.1-3.7v-5.1h1.2zM75.1 23.5l2-.2a4 4 0 012.4.6c.4.3.7.8.7 1.5 0 .8-.6 1.6-1.5 1.9.8.2 1.8.9 1.8 2.2 0 .7-.3 1.3-.7 1.7-.6.6-1.6.8-3 .8l-1.7-.1v-8.4zm1.1 3.6h1c1.2 0 1.9-.6 1.9-1.5 0-1-.8-1.4-1.9-1.4l-1 .1v2.8zm0 4.1l.9.1c1.2 0 2.2-.4 2.2-1.7 0-1.2-1-1.7-2.2-1.7h-.9v3.3zM84.8 23.4h1.1v7.7h3.7v.9h-4.8v-8.6zM95.3 28h-3.4v3.1h3.8v.9h-4.9v-8.7h4.7v.9h-3.6v2.7h3.4V28zM98.5 29.3l-.9 2.7h-1.2l2.9-8.7h1.3l3 8.7h-1.2l-.9-2.7h-3zm2.8-.8l-.8-2.5-.4-1.6-.4 1.6-.8 2.5h2.4zM104.9 23.5l2.4-.2c1.6 0 2.8.4 3.5 1.1.8.7 1.2 1.7 1.2 3.1 0 1.4-.4 2.6-1.2 3.4-.8.8-2.1 1.2-3.8 1.2l-2-.1v-8.5zm1.1 7.7l1.1.1c2.4 0 3.7-1.3 3.7-3.7 0-2-1.1-3.3-3.5-3.3l-1.3.1v6.8zM117.9 28h-3.4v3.1h3.8v.9h-4.9v-8.7h4.7v.9h-3.6v2.7h3.4V28zM119.6 23.5l2.1-.2c1.2 0 2 .2 2.5.7.4.4.7 1 .7 1.6 0 1.1-.7 1.9-1.6 2.2.7.2 1.1.8 1.3 1.7l.7 2.4h-1.2l-.6-2.1c-.3-1.2-.7-1.6-1.7-1.7h-1.1v3.8h-1.1v-8.4zm1.2 4h1.1c1.2 0 2-.7 2-1.6 0-1.1-.8-1.6-2-1.6l-1.1.1v3.1zM126.3 30.7a4 4 0 002 .6c1.1 0 1.8-.6 1.8-1.5 0-.8-.5-1.3-1.6-1.7-1.4-.5-2.3-1.2-2.3-2.5s1.1-2.4 2.8-2.4c.9 0 1.5.2 1.9.4l-.3.9c-.3-.2-.9-.4-1.6-.4-1.2 0-1.6.7-1.6 1.3 0 .8.5 1.2 1.7 1.7 1.5.6 2.2 1.3 2.2 2.5 0 1.3-1 2.5-3 2.5-.8 0-1.7-.2-2.2-.6l.2-.8zM133.9 23.4V27h4.2v-3.6h1.1v8.7h-1.1V28h-4.2v4.1h-1.1v-8.7h1.1zM142.2 23.4v8.7h-1.1v-8.7h1.1zM144.1 23.5l2.1-.2c1.1 0 1.9.3 2.4.7.5.4.8 1 .8 1.8s-.2 1.4-.7 1.9c-.6.6-1.6 1-2.6 1l-.9-.1v3.5h-1.1v-8.6zm1.1 4.2l.9.1c1.3 0 2.2-.7 2.2-1.9 0-1.1-.8-1.7-2-1.7l-1.1.1v3.4z"
        class="st0"
      />
    </g>
    <path
      id="eagle_outline_1_"
      d="M14.4 2.3c.9.9.3.6 5.3 4.5 2.6 2 4 4.6 4.5 4.9 2.7 1.2 5.6 5.3 6.3 6.7.8 1.6.4 2.8.1 4.6-.3 1.7-.6 9.2.3 10.9 1.2-.5 2.3-1 3.4-1.2.6-.1 1.3-.2 2.6.1.8.2 1.8.8 2.6 1.4.8.6 1.2 1.2.8 2.1 0-1-1.1-1.1-1.8-.4-.2.2-1 .5-1.8 1.2-1.7 1.4-1.7 2.1-3 3.3-2.2 2-5 2.2-6.2 4.1-.9 1.4-1 2.7-2.9 3.7-.3.1-.4.3-.1.4.6.2.7.7 1.2 1.5.2 1.1.4 1.5.1 3-.2.2-.3.5-.6.4.1-.1.5-.5.3-.5-.2.1-.2.2-.6.2l.6-.5c.1-.5-.5-1.7-.5-1.7s-.7 2-1 1.6c.2-.2.5-.8.2-.9.1-.5.2-1.1-.2-1.2l-.5.8-.5.6s.8.8 1.9 1.4c.4.4.9 1.1 1.4 1.4.1.9 1.5 2.9-.3 3.3.6-.5.7-.9.6-1.1-.3.1-.5.7-1 .6.4-.2.5-.4.5-.6-.2.2-.5.5-.9.4 1-.4.7-.8.7-.8-.2-.3-.7-.2-.8-.5-.2-.5.1-1.1-.3-1.1-.9 0-.7 1.6-1.1 1.4-1-.6-.7.5-.2.9-1.9-.6-.1-2.4.2-3 .2-.3 0-.5-.5-.9l-1.7-1c-.8.1-1.5.4-2.9 1.7.6-1.3 0-2.8.5-3.4.3-.3.6-.8.6-1.1 0-.7.3-.8.3-1.1 0-.2.5-.7.4-.9-.2-.3-.8.4-1.1.7-.2.2-.6.4-1.7.3.1-.2-.4-.7-2.1-.6.7-1.5 0-1-.5-1.8-2.2 2.3-4.4 3.7-5.6 4.6-1.3.1-1.5-.7-1.5-.7s-.5-.2-1.2 0c-.4-.7.3-1.4.3-1.4l-1.3.4c-.5.1-1.6-.1-1.8-.1.2-.3-.5-.2-.5-.3 0-.1 0-.3-.4-.3-.2 0 .2-.3 0-.4-.3-.1-.4 0-.8 0-.2-.5.4-.6.1-.9-.9.2-.9-.4-.7-.6.1-.2.3-.5-.3-.1-.4.3-1.1-.3-1.1-.4 0-.4.5-.5 0-.9.1-.4.5-.6.4-.6-1.6-.7-.2-1.3.2-1.3 2.9-.4 6.8-1.3 8.4-1.8l4.2-1.3c2.2-.6 4.5-2 4.5-2l-2.5.2c-.8.1-1.7-.2-1.7-.2l.3-.5-.6.1.1-.8-.4-.1V36l-.8-.2-.2-.9c-.1-.5.7-.2.7-.2s-1.1-.4-1.6-1.2c-.2-.3.8-.6.8-.9 0-.2-.2-.3-.2-.3l-1-.6c-.5-.4-.3-1.5-.3-1.5s-.5-.5-.5-1.2.7-1.1.7-1.1v-.2l-.8-1c.3-.3 1.1-.6 1.1-.6l-.2-.9.5-1.6c0-.2-1-.9-1.2-1.2-.3-.3-.5-1.2-.5-1.2s-.9-.4-1-.9c-.2-.9.1-1.3.1-1.3s-1.2-1.1-1.9-1.5c-.4-.2.2-.9.2-.9s-1.5-.7-1.6-1c-.3-.6.1-.8.3-1.1.3-.3-1.4-.6-2.2-1.5 0-1.4 1.7-1 2.3-.9-.2-1-5.7-2.5-4.4-3.5 2.3-.4 8.9 1.7 8.9 1.7l-.1-.4s-2.1-1-4-2.2c-1.7-1-3.3-2.1-3-3.2.5-.4 4 1.5 4.7 1.9l4.3 2.2.2-.3S9.9 6.7 7.9 5C5.8 3.7 4.5 2.2 5.4 1.5c.5-.3 4 2.4 4.7 2.9l3.6 2.5 1.3.7s.2-.2 0-.3C13.6 6.4 7.5 1.5 9.3 0a115 115 0 016.2 5.4l-1-1.4c-.4-.7-.8-2.3-.1-1.7z"
      class="st0"
    />
  </g>
</svg>
