<svg xmlns="http://www.w3.org/2000/svg" viewBox="0 0 175 151.4">
  <path fill="#fff" d="M1.9 2.1H159v147.2H1.9z" />
  <path
    fill="#4b1111"
    d="M132.7 126.2v10.4l.5-.1.6.1v-7.4l1.5 1.7 4.6 5.6h1.2v-10.4H140v7.1l-5.9-7.1h-1.4zm-10.8 10.6c3.4 0 5.4-2.5 5.4-5.5 0-2.4-1.2-5.4-5.1-5.4-3.4 0-5.4 2.4-5.4 5.5.1 3.5 2.1 5.4 5.1 5.4m-12.7-10.6v10.4l1-.1 1 .1v-10.4l-1 .1-1-.1m-7.5 10.4v-9.3l2.5.2-.1-.7.1-.6h-7l.1.6-.1.7a18 18 0 012.5-.2v9.3l1-.1 1 .1M88 133.5h3.2l1 3.2 1.2-.1 1.2.1-3.8-10.6h-1l-3.9 10.5.7-.1.6.1c.1-1 .4-2 .8-3.1m-10.1-7.3h-4.7v10.3H77c2.8 0 5-2 5-5.5 0-2.4-1.2-4.7-4.1-4.8m-19.7 0v10.4l.5-.1.5.1v-7.4l1.5 1.7 4.6 5.6h1.2v-10.4h-1.1v7.1l-5.9-7.1h-1.3zm-14.6 0v6.2l.2 1.9c.5 2 2.3 2.6 4 2.6.9 0 1.8-.2 2.6-.8 1.4-1.1 1.4-2.7 1.5-4.4v-5.4h-1.1v4.6c0 .7 0 2.5-.2 3.1-.5 1.3-1.2 1.8-2.4 1.8-.6 0-1.1-.2-1.6-.7-.5-.5-.6-1-.7-1.7l-.1-2.9v-4.3l-1 .1-1.2-.1m-11 10.6c3.4 0 5.4-2.5 5.4-5.5 0-2.4-1.2-5.4-5.1-5.4-3.4 0-5.4 2.4-5.4 5.5.1 3.5 2.1 5.4 5.1 5.4m-12.7-.2v-5h1.4l1.7.1-.1-.7.1-.6-1.7.1h-1.5v-3.3l3.2.2-.1-.7.1-.7h-5.2v10.4l1-.1c.4.3.7.3 1.1.3m120.4-44.3c-2-1.4-2.3-3.4-2.4-6.6l-.7-25.1V60c0-2.8.5-4.5 2.1-5.3 2.7-1.4 3.8-.4 3.8-1.9 0-1.1-.3-1.3-1.3-1.3-1.1 0-2.8.4-5 .4-1.4 0-2.4-.3-3-.3-1 0-1.4.3-1.8 1l-15.6 30.5c-.3.5-.6.8-.9.8-.4 0-.7-.3-.9-.9l-14.3-29.7c-.6-1.4-1-1.8-1.9-1.8-.3 0-1.7.2-4.1.2-3.3 0-5-.3-5.4-.3-.9 0-1.2.3-1.2 1.1 0 1.7 1.8.8 3.8 2.4 2.3 1.9 2.7 5.1 2.7 9.3l-.1 3-.7 15.9-.2 3.4 3.6 2-.2-2.8V83l.4-15.5c.1-1.1.3-1.6.6-1.6.4 0 .6.5.9 1.2L111.1 94c.5.9.6 1.5 1.4 1.5.8 0 1.1-.6 1.5-1.4l13.7-26.7c.6-1.1 1-1.6 1.3-1.6.2 0 .5.5.5 1.5l.8 19.5V88c0 2.3-.4 3.6-2 4.7-1.3.8-2.6.7-2.6 1.9 0 .9.5 1.3 1.6 1.3 1.2 0 3.6-.6 7.5-.6 3.8 0 6.3.5 7.5.5 1.3 0 1.7-.3 1.7-1.4 0-1.7-1.5-.5-3.7-2.1m-79.2-25c0 .6-6.6 1.4-7.3 11.7-.4 5.1 4.6 13.7 14 13.7 3.7 0 8.5-1.4 11.3-4.3 5.6 5.2 11.2 8.3 14.6 8.3 3.4 0 6.1-2.2 6.2-3.4 0-.2.1-1-.8-.6-.6.3-1 .4-2.8-.1-1.2-.3-13.9-7.8-13.2-8.9 0-.4 2-2.7 2.9-10.5.2-1.9 1.8-1.9 1.8-2.3 0-.5-.3-.7-.7-.7-.7 0-1.6.2-3.8.2-2.9 0-4-.2-4.7-.2-.6 0-.9.3-.9.8 0 .8 5.2-.6 5.2 6.1 0 3.2-1.6 5.5-1.8 5.5-1.2 0-16.4-15.1-16.4-22.7 0-2.4 1.1-4.4 3.1-4.4.7 0 3.1-.5 5 4.2.3.8.5 1.3.9 1.3.6 0 .5-.4.5-1-.3-2.7-.3-2.4-.3-5.1 0-.8 0-1.1-.5-1.1-.7 0-.8 1-1.8.9-.7 0-1.5-.9-3.6-.9-4.2 0-7.7 3.3-7.7 8.4-.1 3.1.8 4 .8 5.1M25.7 80.8h12.6c1.7 0 2 .6 4.1 5.3.7 1.6 1.2 2.7 1.2 4.1 0 3.7-4.5 2.7-4.5 4.8 0 .9.8.6 2 .6l7-.2c4.2 0 5.9.2 8.2.2 1.7 0 2.3.2 2.3-.8 0-2.1-3.4.4-5.5-3.9L35.8 53.7c-.8-1.8-1-1.9-1.5-1.9-.8 0-1.1 1.2-1.6 2.1L15.4 90.6C13.8 94 10.5 93 10.5 95c0 .7 1 .5 1.9.5l5.6-.2 6 .2c1.3 0 3.3.6 3.3-.7 0-2.2-6.9-.7-6.9-5 0-1.5.9-3.6 1.3-4.8 1.6-4 2.9-4.2 4-4.2m113.8-64.5h.3l.6-1.7c-.4-.4-1.6-.8-3-.8-2.8 0-4.3 1.6-4.3 3.6 0 4.1 5.6 3.1 5.6 5.8 0 1.2-1 1.8-2.2 1.8-1.3 0-2.3-.7-2.6-1.9h-.4l-.5 2.2c.9.5 2 .7 3 .7 2.9 0 5-1.6 5-3.7 0-3.9-5.7-3.5-5.7-5.8 0-1 .6-1.7 2.1-1.7 1 .1 1.7.6 2.1 1.5m-32.7 5.9h4.4l1.3 3.5 1.6-.1 1.6.1-5.3-11.7-.7.1-.7-.1-5.3 11.8.9-.1.9.1c.3-1.2.8-2.3 1.3-3.6m-23.2-5.7l1.8-2.3h-1.8l-2.8 4.1-2.3-4.1-1.7.1-1.7-.1 3.8 6.2-4 5.4.9-.1.9.1 1.2-1.9 1.7-2.4 2.5 4.3 1.6-.1 1.6.1a89.7 89.7 0 00-3.7-6.1l-.2-.4 2.2-2.8zm-29.4-2.4h-7.1v11.6h7.1l-.1-.7.1-.7-4.3.2v-4.3h1.9l2.3.2-.1-.7.1-.7H50v-3.6l4.3.2-.1-.7c-.1-.3 0-.5 0-.8M22.8 25.8V15.3l3.3.2-.1-.7.1-.7h-9.6l.1.7-.1.7 3.5-.2v10.4l1.4-.1 1.4.2M0 0h160.8v151.4H0V0zm119.1 131.8c0-3.4 1.1-5 3-5 2.1 0 2.9 2.2 2.9 4.2 0 2.5-.9 4.9-3.1 4.9-2 0-2.8-2.1-2.8-4.1m-28.3.7h-2.5l1.3-3.5 1.2 3.5zm-15.5 3.2v-8.6h1.3c1.9 0 3.1 1.1 3.1 4 0 3.6-1.4 4.6-3.3 4.6h-1.1zm-45.5-3.9c0-3.4 1.1-5 3-5 2.1 0 2.9 2.2 2.9 4.2 0 2.5-.9 4.9-3 4.9s-2.9-2.1-2.9-4.1m47.6-44.5c0 1-3.7 2.1-5.5 2-8.4-.4-14.4-7.7-14.1-13.6.2-4.3 3-6.6 3.9-6.6.4 0 .8 1.2 1.3 2 5.9 9.5 12.4 14.3 14.4 16.2m-41.1-9.8h-8.7c-1.2 0-2 .1-2-.5 0-.9.4-1.5.7-2.2L31.2 64c.3-.7.6-.7.7-.7.3 0 .1 0 .5.5l5.2 11c.3.7.7 1.4.7 2.2 0 .6-.8.5-2 .5m74.4-56.3h-3.4l1.8-4 1.6 4z"
  />
  <path
    fill="#4a1913"
    d="M165.5 144.6c.3-.6.6-1.1 1.1-1.6.5-.5 1-.8 1.6-1.1a4 4 0 011.9-.4 4 4 0 011.9.4c.6.3 1.1.6 1.6 1.1.4.4.8 1 1.1 1.6.3.6.4 1.2.4 1.9a4 4 0 01-.4 1.9c-.3.6-.6 1.1-1.1 1.6-.4.4-1 .8-1.6 1-.6.2-1.2.4-1.9.4a4 4 0 01-1.9-.4l-1.6-1c-.4-.4-.8-1-1.1-1.6a4 4 0 01-.4-1.9c0-.7.1-1.3.4-1.9m8.6.2c-.2-.5-.5-1-.9-1.4a4.2 4.2 0 00-3.1-1.2 4.2 4.2 0 00-3.1 1.2 4.2 4.2 0 00-1.2 3.1 4.2 4.2 0 001.2 3.1c.4.4.9.7 1.4.9.5.2 1.1.4 1.7.4.6 0 1.2-.1 1.7-.4.5-.2 1-.5 1.4-.9a4.2 4.2 0 001.2-3.1c0-.6-.1-1.2-.3-1.7m-2 4.4H170.9l-.8-1.5-.4-.8-.2-.3h-.1V149.2h-1.2v-.3-.6-.9-1.3-1.1-.7-.5-.3h2.2c.5 0 .9.1 1.2.4.3.3.4.6.4 1s-.1.7-.4 1a2 2 0 01-.9.5l1.8 2.8h-.4m-1.6-5l-.6-.3h-.4v2.3h.4l.4-.1.4-.4.1-.7c0-.3-.1-.6-.3-.8"
  />
</svg>
