<svg xmlns="http://www.w3.org/2000/svg" viewBox="0 0 175 30.3">
  <path
    d="M0 24.3l.6-1.5c1.1.4 2.2.7 3.5.7 1.5 0 2.8-.4 3.9-1.2 1.1-.8 2.2-2 3.1-3.6l.9-1.8 1-2.9 1-3.3.8-3.3.7-3.3 1.8-.8h-.1l-.3-.1a62.5 62.5 0 00-10.3-.3 5 5 0 00-2.2.8c-.8.5-1.2 1.1-1.2 1.9 0 1.6 2 2.5 5.9 2.7L8 9.5c-1.1-.1-2-.3-2.8-.6-.8-.3-1.4-.8-1.9-1.3-.4-.6-.6-1.2-.6-1.8 0-1.4.9-2.5 2.6-3.3 1.5-.7 3.6-1.1 6.5-1.1l3 .1 3.7.3 3.2.4.3.1-.8 1.5-.3-.1a76 76 0 00-3.4-.6h-.1l-.1.2-.1.2c-.9 4-1.8 7.4-2.7 10a23 23 0 01-3.2 6.3 10.1 10.1 0 01-4.1 3.4c-1.6.7-3.4 1.1-5.5 1.1H0zM22.1 13.8l-1.5 5.5c-.2.9-.4 1.6-.4 2.2l.2.9c.1.2.3.3.5.3.3 0 .9-.4 1.7-1.2l.3.2-.2.2a7 7 0 01-1.4 1.5c-.3.3-.6.4-.8.4-.3 0-.6-.2-.9-.5-.2-.4-.4-.8-.4-1.3l.2-1.6 1.1-5.9 1.6-.7zm.5-6.6c.3 0 .5.1.7.3.2.2.3.4.3.7 0 .3-.1.5-.3.7a1 1 0 01-.7.3 1 1 0 01-.7-.3 1 1 0 01-.3-.7c0-.3.1-.5.3-.7.2-.2.4-.3.7-.3z"
  />
  <path
    d="M25.8 14.7h-1.6l.1-.6H26l1.6-7.4c.3-1.2.5-2.2.8-2.9.3-.7.6-1.4 1-1.9A4.1 4.1 0 0133 0l1.3.2-.6 1.5A2 2 0 0032 .8c-.5 0-1 .2-1.3.6-.3.4-.6 1.1-.8 2l-2.6 10.7H30l-.1.6h-2.7l-2.3 9.6a17 17 0 01-.9 2.9c-.3.6-.7 1.2-1.2 1.7-.9 1-1.9 1.5-2.9 1.5-.5 0-1-.1-1.4-.3l.8-1.2c.5.4 1 .6 1.5.6.8 0 1.5-.4 1.9-1.3l1-3.2 2.1-10.3z"
  />
  <path
    d="M31.3 14.7h-1.6l.1-.6h1.7L33 6.7c.3-1.2.5-2.2.8-2.9.3-.7.6-1.4 1-1.9C35.8.6 37 0 38.5 0l1.3.2-.6 1.5a2 2 0 00-1.7-.9c-.5 0-1 .2-1.3.6-.3.4-.6 1.1-.8 2l-2.6 10.7h2.7l-.1.6h-2.7l-2.3 9.6a17 17 0 01-.9 2.9c-.3.6-.7 1.2-1.2 1.7-.9 1-1.9 1.5-2.9 1.5-.5 0-1-.1-1.4-.3l.8-1.2c.5.4 1 .6 1.5.6.8 0 1.5-.4 1.9-1.3l1-3.2 2.1-10.3zM44.2 13.7l-1.6 6.2-.3 1.6.2.9c.1.2.3.4.5.4.3 0 .9-.4 1.6-1.2l.2.2v.2l-1.4 1.4c-.3.3-.6.4-.8.4-.4 0-.7-.2-.9-.6a2 2 0 01-.4-1.3l.4-2.4.1-.6c-.4 1-1 1.9-1.7 2.8-1.2 1.5-2.3 2.2-3.3 2.2-.6 0-1.1-.2-1.5-.7-.4-.5-.6-1.1-.6-1.8 0-1.1.3-2.2.9-3.3a9.3 9.3 0 012.2-2.9c.9-.7 1.8-1.1 2.6-1.1.9 0 1.5.3 2 1l.2-.6 1.6-.8zm-1.9 2.2c-.1-.4-.4-.8-.7-1-.3-.2-.7-.4-1.1-.4-.5 0-1 .2-1.6.7-.5.5-1.1 1.1-1.5 1.9-.4.6-.7 1.3-.9 2.1-.2.8-.4 1.4-.4 1.9 0 .6.1 1 .3 1.3.2.3.5.5.9.5.5 0 1.1-.2 1.6-.7.6-.5 1.1-1.2 1.7-2.1l.8-1.5.6-2.2.3-.5zM46.1 23.8l1.8-9.3 1.6-.7-1.4 6.2c.9-2 1.9-3.5 2.8-4.5.9-1 1.8-1.5 2.6-1.5.4 0 .8.1 1 .4.3.3.4.6.4 1.1l-.2 1.1-.2.7-.5 2.1-.2.6-.3 1.5.2.9c.1.2.3.3.5.3.3 0 .9-.4 1.7-1.2l.3.2-.2.2a7 7 0 01-1.4 1.5c-.3.3-.6.4-.8.4-.3 0-.6-.2-.9-.5-.2-.4-.4-.8-.4-1.3l.2-1.6.7-3.6.1-1.2-.2-.5a.8.8 0 00-.5-.2c-.8 0-1.7.8-2.9 2.5l-1.4 2.4a22 22 0 00-1.2 3.2l-.2.5-1 .3zM55.6 29.6l.8-1.1a3 3 0 002.2 1c.9 0 1.6-.3 2.1-1s1-1.8 1.3-3.4l.8-3.5c-1.2 1.4-2.3 2.2-3.3 2.2-.6 0-1-.2-1.4-.5-.3-.4-.5-.8-.5-1.4l.2-1.3 1.1-6 1.6-.7-1.6 6.8-.2 1.2c0 .4.1.7.3.9.2.2.5.4.9.4a3 3 0 001.4-.5 12 12 0 001.7-1.6l1.4-6.4L66 14l-2.5 9.9-.8 2.8-.9 1.7a4.9 4.9 0 01-4 2.1c-.9-.2-1.6-.4-2.2-.9zM92.1 22.4l-.7 1.6-.9.1-2-.2-1.8-.4-2.3-.7-2.3-.7c-.7.7-1.5 1.2-2.5 1.5a7 7 0 01-2.8.5c-1.1 0-2-.2-2.6-.6-.7-.4-1-.9-1-1.6 0-.7.4-1.2 1.1-1.6.8-.4 1.8-.6 3-.6 1.5 0 3.1.3 4.9.8l.8-1.8.7-2.7 1.2-5.6a28.4 28.4 0 012-6.2l1.3-1.7c.5-.5 1-.9 1.5-1.1.5-.3 1-.4 1.5-.4s1 .1 1.4.4c.4.3.7.6.9 1.1.2.5.3 1 .3 1.7l-.3 2.2-.8 2.4-1.6.2a13.9 13.9 0 001.7-5.4c0-.7-.1-1.2-.4-1.5-.3-.4-.7-.5-1.2-.5-1.2 0-2.1.8-2.9 2.3l-.6 1.5-.6 2.5-1.5 7c-.3 1.5-.7 2.7-1 3.6-.3.9-.8 1.7-1.3 2.3l.4.1 4.1 1.2c1 .2 1.9.4 2.7.4.3.1.9 0 1.6-.1zm-10.8-.6l-.4-.1c-2-.6-3.5-.9-4.6-.9-1.7 0-2.5.4-2.5 1.3 0 .4.3.8.9 1.1.6.3 1.3.5 2.2.5a7 7 0 002.5-.5c.7-.3 1.3-.8 1.9-1.4zM100 21.1l.3.3c-.7.9-1.4 1.6-2 2-.7.4-1.4.6-2.1.6-.9 0-1.6-.3-2.2-.9s-.8-1.4-.8-2.4.3-2 .8-3.1c.5-1 1.2-1.9 2-2.6.8-.7 1.6-1 2.4-1 .5 0 .8.1 1.1.4.3.3.4.6.4 1 0 .9-.5 1.7-1.4 2.6-.9.9-2.2 1.6-3.9 2.2v.3c0 .8.2 1.4.6 1.9.4.5 1 .7 1.6.7.5 0 1-.2 1.5-.5.6-.3 1.2-.8 1.7-1.5zm-5.4-1.3a7.6 7.6 0 003.9-3.2c.3-.5.4-1 .4-1.4 0-.5-.2-.8-.7-.8-.7 0-1.5.6-2.2 1.7a8.4 8.4 0 00-1.4 3.7zM111 13.7l-1.6 6.2-.3 1.6.2.9c.1.2.3.4.5.4.3 0 .9-.4 1.6-1.2l.2.2-.2.2-1.4 1.4c-.3.3-.6.4-.8.4-.4 0-.7-.2-.9-.6a2 2 0 01-.4-1.3l.4-2.4.1-.6c-.4 1-1 1.9-1.7 2.8-1.2 1.5-2.3 2.2-3.3 2.2-.6 0-1.1-.2-1.5-.7-.4-.5-.6-1.1-.6-1.8 0-1.1.3-2.2.9-3.3a9.3 9.3 0 012.2-2.9c.9-.7 1.8-1.1 2.6-1.1.9 0 1.5.3 2 1l.2-.6 1.8-.8zm-2 2.2c-.1-.4-.4-.8-.7-1-.3-.2-.7-.4-1.1-.4-.5 0-1 .2-1.6.7-.5.5-1.1 1.1-1.5 1.9-.4.6-.7 1.3-.9 2.1-.2.8-.4 1.4-.4 1.9 0 .6.1 1 .3 1.3.2.3.5.5.9.5.5 0 1.1-.2 1.6-.7.6-.5 1.1-1.2 1.7-2.1l.8-1.5.6-2.2.3-.5zM137.6 22.4l-.7 1.6-.9.1-2-.2-1.8-.4-2.3-.7-2.3-.7c-.7.7-1.5 1.2-2.5 1.5a7 7 0 01-2.8.5c-1.1 0-2-.2-2.6-.6-.7-.4-1-.9-1-1.6 0-.7.4-1.2 1.1-1.6.8-.4 1.8-.6 3-.6 1.5 0 3.1.3 4.9.8l.8-1.8.7-2.7 1.2-5.6a28.4 28.4 0 012-6.2l1.3-1.7c.5-.5 1-.9 1.5-1.1.5-.3 1-.4 1.5-.4s1 .1 1.4.4c.4.3.7.6.9 1.1.2.5.3 1 .3 1.7l-.3 2.2-.8 2.4-1.6.2a13.9 13.9 0 001.7-5.4c0-.7-.1-1.2-.4-1.5-.3-.4-.7-.5-1.2-.5-1.2 0-2.1.8-2.9 2.3l-.6 1.5-.6 2.5-1.5 7c-.3 1.5-.7 2.7-1 3.6-.3.9-.8 1.7-1.3 2.3l.4.1 4.1 1.2c1 .2 1.9.4 2.7.4.3.1.9 0 1.6-.1zm-10.8-.6l-.4-.1c-2-.6-3.5-.9-4.6-.9-1.7 0-2.5.4-2.5 1.3 0 .4.3.8.9 1.1.6.3 1.3.5 2.2.5a7 7 0 002.5-.5c.7-.3 1.3-.8 1.9-1.4zM157.6 22.4l-.7 1.6-.9.1-2-.2-1.8-.4-2.3-.7-2.3-.7c-.7.7-1.5 1.2-2.5 1.5a7 7 0 01-2.8.5c-1.1 0-2-.2-2.6-.6-.7-.4-1-.9-1-1.6 0-.7.4-1.2 1.1-1.6.8-.4 1.8-.6 3-.6 1.5 0 3.1.3 4.9.8l.8-1.8.7-2.7 1.2-5.6a28.4 28.4 0 012-6.2l1.3-1.7c.5-.5 1-.9 1.5-1.1.5-.3 1-.4 1.5-.4s1 .1 1.4.4c.4.3.7.6.9 1.1.2.5.3 1 .3 1.7l-.3 2.2-.8 2.4-1.6.2a13.9 13.9 0 001.7-5.4c0-.7-.1-1.2-.4-1.5-.3-.4-.7-.5-1.2-.5-1.2 0-2.1.8-2.9 2.3l-.6 1.5-.6 2.5-1.5 7c-.3 1.5-.7 2.7-1 3.6-.3.9-.8 1.7-1.3 2.3l.4.1 4.1 1.2c1 .2 1.9.4 2.7.4.3.1.9 0 1.6-.1zm-10.8-.6l-.4-.1c-2-.6-3.5-.9-4.6-.9-1.7 0-2.5.4-2.5 1.3 0 .4.3.8.9 1.1.6.3 1.3.5 2.2.5a7 7 0 002.5-.5c.6-.3 1.3-.8 1.9-1.4zM168.8 10.4l-.5-1.3c1-.3 2-.8 3-1.4.9-.6 1.7-1.3 2.2-2.1.5-.8.8-1.5.8-2.3 0-.5-.2-1-.5-1.3-.4-.3-.8-.5-1.4-.5-.7 0-1.5.2-2.3.6-.8.4-1.7.9-2.5 1.5L165.2 6a22 22 0 00-2.1 3.2c-.5 1.1-1 2.2-1.2 3.4-.3 1.1-.4 2.3-.4 3.6 0 2.1.5 3.8 1.4 5 1 1.2 2.3 1.8 4 1.8 1.1 0 2.1-.2 3.1-.7 1-.5 2.2-1.3 3.5-2.4l.3-.2.2.4a17.4 17.4 0 01-4 3c-1.3.7-2.7 1-4.1 1-1.2 0-2.3-.3-3.3-.9-1-.6-1.7-1.4-2.2-2.5a8.7 8.7 0 01-.8-3.7 16.3 16.3 0 011.9-6.6 23 23 0 012.1-3.3c.9-1.1 1.8-2.2 2.9-3.1 1.1-.9 2.1-1.6 3.2-2.1s2-.7 2.9-.7c.8 0 1.4.2 1.9.7.5.5.7 1.1.7 1.8 0 .9-.3 1.8-.9 2.7a9 9 0 01-5.5 4z"
  />
</svg>
