<svg xmlns="http://www.w3.org/2000/svg" viewBox="0 0 75 75">
  <title>
    Underscore.js
  </title>
  <path fill="none" d="M-1-1h77v77H-1z" />
  <g>
    <title>
      Layer 1
    </title>
    <path
      d="M.5 31h.6v4.4c0 1 .2 1.7.5 2 .4.5 1 .7 1.7.7l.9-.2c.3-.1.5-.3.6-.5.2-.2.4-.5.4-.8l.1-1V31H6v4.6c0 1-.2 1.8-.7 2.3-.5.5-1.1.7-2 .7-.9 0-1.5-.2-2-.7-.5-.5-.8-1.3-.8-2.4V31zM7.9 31h.6l3.3 5 .5.8.5.8v-1V31h.6v7.6h-.6l-3.2-4.7-.6-1-.6-1V38.5h-.5V31zM17.5 31l1.4.1 1.1.7c.3.3.6.7.7 1.1a4.8 4.8 0 010 3.4c-.2.5-.5 1-.8 1.2l-1.2.7-1.5.2h-1.8V31h2.1zm-1.6 7H17l1.2-.1 1.1-.5c.3-.3.6-.6.8-1.1.2-.4.3-1 .3-1.7l-.2-1.4c-.1-.4-.4-.7-.6-1a2 2 0 00-1-.6l-1.2-.2H16V38h-.1zM22.5 31h4.3v.4h-3.7v3h3.4v.5h-3.4v3h3.7v.6h-4.3V31zM28.3 31h2.2l1 .1.7.4.5.7.2.8-.1.8-.4.6-.5.5-.6.3 2.1 3.3h-.7l-2-3.2h-1.8v3.2h-.6V31zm.6 3.8h2.2l.6-.3.4-.5.1-.8c0-.6-.2-1-.5-1.2-.3-.3-.8-.4-1.5-.4h-1.4v3.3h.1zM36.5 31h1l1 .4-.2.5-.9-.4-.8-.1c-.5 0-1 0-1.3.4-.3.1-.5.5-.5 1 0 .4.1.7.4.9l1.1.5.8.3c.6.2 1 .4 1.2.8.3.3.4.7.4 1.2 0 .6-.2 1.1-.7 1.5-.4.4-1 .5-1.8.5h-1.1L34 38l.2-.5 1 .4h1.1c.5 0 1 0 1.3-.4.3-.2.5-.6.5-1l-.1-.6-.2-.3-.5-.4-.8-.3-.8-.2-.6-.3-.5-.4-.4-.5-.1-.7c0-.6.2-1.1.6-1.4s1.1-.4 1.8-.4zM43.4 38h1l.7-.4.1.5-.8.3-1.1.1c-.5 0-1 0-1.4-.2l-1.1-.7c-.3-.3-.6-.7-.8-1.2-.2-.5-.3-1-.3-1.6 0-.6.1-1 .3-1.6.2-.5.4-.9.7-1.2.3-.3.7-.6 1.1-.7a3 3 0 011.5-.4l1.1.1.8.3-.1.5c-.3 0-.5-.3-.8-.3h-.9l-1.1.1a2 2 0 00-1 .6l-.7 1c-.2.4-.3 1-.3 1.5 0 .6.1 1.1.3 1.5.2.4.4.8.7 1 .3.3.6.4 1 .5l1.1.3zM49.2 31l1.3.1 1 .7c.3.3.5.7.7 1.2s.3 1 .3 1.7c0 .6-.1 1.2-.3 1.6-.2.6-.4 1-.7 1.3-.3.3-.7.6-1.1.7-.4.2-.8.2-1.3.2l-1.3-.2-1-.7c-.3-.3-.5-.7-.7-1.2-.2-.5-.3-1-.3-1.7s.1-1.3.3-1.7c.2-.5.4-.9.7-1.2.3-.3.7-.6 1.1-.7l1.3-.2zm-2.7 3.7l.2 1.5c.1.4.3.7.6 1 .2.3.5.5.9.6.3.2.7.3 1 .3l1-.2c.3-.1.6-.3.8-.6l.6-1a6 6 0 000-3c-.1-.4-.3-.8-.6-1-.2-.3-.5-.5-.9-.6l-1-.3c-.4 0-.7.2-1 .3-.3 0-.6.2-.8.5l-.6 1a6 6 0 00-.2 1.5zM54 31h2.2l1 .1.7.4.5.7.2.8-.1.8-.4.6-.5.5-.6.3 2 3.2h-.7l-2-3.2h-1.8v3.2H54V31zm.6 3.8h2.2l.6-.3.4-.5.1-.8c0-.6-.2-1-.5-1.2-.3-.3-.8-.4-1.5-.4h-1.4v3.3h.1zM60.2 31h4.3v.4h-3.7v3h3.4v.5h-3.4v3h3.7v.6h-4.3V31zM65.6 38l.1-.4.3-.1h.3l.1.5-.1.4h-.6l-.1-.4zM68.9 31v6.2l-.1 1.2-.3.9-.4.4-.4.2-.5.1h-.5v-.4c.5 0 .9 0 1.1-.4l.4-.7.1-.9V31h.6zM72.7 31h1l1 .4-.2.5-.9-.4-.8-.1c-.5 0-1 0-1.3.4-.3.1-.5.5-.5 1 0 .4.1.7.4.9.2.2.6.4 1.1.5l.8.3c.6.2 1 .4 1.2.8.4.3.5.7.5 1.2 0 .6-.2 1.1-.7 1.5-.4.4-1 .5-1.8.5h-1.1l-1.1-.5.2-.5 1 .4h1c.5 0 1 0 1.3-.4.3-.2.5-.6.5-1l-.1-.6-.2-.3-.5-.4-.8-.3-.7-.1-.6-.3-.5-.4-.4-.5-.1-.7c0-.6.2-1.1.6-1.4.4-.3 1-.5 1.7-.5z"
    />
    <path fill="#0071b5" d="M0 41.9h33.3v2.2H0z" />
    <path fill="#002a41" d="M33.3 41.9h41.5v2.2H33.3z" />
  </g>
</svg>
