<svg xmlns="http://www.w3.org/2000/svg" viewBox="0 0 159.1 104.8">
  <style>
    .st1 {
      fill: #fff;
    }
  </style>
  <path d="M55.9 18.4h45.2v45.2H55.9z" />
  <path
    fill="#e31837"
    d="M81.9 37.3V0H36.6v45.2h38.2v-7.9h7.1zm0 0v7.9h-7v37.3h45.2V37.3H81.9z"
  />
  <path
    d="M51.6 10.9v11.6c0 2.3-.2 5.2 2.9 6.9 2.3 1.3 7.6 1.3 9.9-.1 2.8-1.7 2.5-4.3 2.5-6.4v-12h4.4v12.4c0 3.2-.2 6.9-4.4 9.3a18.6 18.6 0 01-15 .1c-4.6-2.6-4.7-6.6-4.7-10.1V10.9h4.4zM99.8 48.6l11.4 22.8h-4.7l-2.6-5.3H91.1l-2.6 5.3h-4.7l11.4-22.8h4.6zm2.4 13.7l-4.7-9.4-4.7 9.4h9.4z"
    class="st1"
  />
  <path
    d="M2.3 92.6v6c0 1.2-.1 2.7 1.5 3.6 1.2.7 4 .7 5.2-.1 1.5-.9 1.3-2.2 1.3-3.3v-6.3h2.3V99c0 1.7-.1 3.6-2.3 4.9a9.6 9.6 0 01-7.8.1C.1 102.6 0 100.5 0 98.7v-6.1h2.3zM20.8 104.5v-4.7c0-.6.1-1.9-.8-2.5-.6-.4-1.7-.3-2.4 0-.5.2-1 .6-1.5 1.1v6.1h-2v-8.8h2v1a4.8 4.8 0 015.1-1c1.6.7 1.7 2.3 1.7 3.5v5.3h-2.1zM26.6 95.6v8.8h-2v-8.8h2zm0-3.3v1.8h-2v-1.8h2zM31.6 93.1v2.5h3.1v1.7h-3.1v3.4c0 .8 0 1.6.5 2 .6.5 2.3.1 2.8 0v1.8c-1.1.2-3.5.5-4.6-.4-.8-.7-.7-1.6-.7-2.5v-4.2H28v-1.7h1.6v-2.5h2zM37.5 100.6c.2 1.2.6 1.9 1.8 2.3.7.2 2.3.3 3.2-.5l.4-.6h2.2a4 4 0 01-3.3 2.8c-1.2.3-3.7.2-5.1-1.3a5.4 5.4 0 01-1.1-4.6 4.1 4.1 0 013-3.1c1.5-.4 3.7-.3 5.2 1 1.3 1.2 1.5 2.7 1.5 4.1h-7.8zm4.5-3.2c-.8-.5-2-.6-2.9-.2-.9.4-1.4 1-1.5 1.9H43c0-.2 0-.4-.3-.9-.1-.3-.4-.6-.7-.8zM56.4 92.6v11.9h-1.9v-1.1c-1.7 1.4-3.5 1.7-5.1 1.2a4.1 4.1 0 01-3-3c-.3-1.2-.2-3.3.9-4.6a4.4 4.4 0 014.2-1.5c1.1.1 1.9.5 2.9 1.2v-4h2zm-7.7 5.9c-.6.9-.5 2-.3 2.7.3 1 1.1 1.5 2 1.8 1.2.3 2.8-.3 3.8-1.2v-3.5c-1.2-.9-2.2-1.2-3.2-1.1-.7 0-1.7.3-2.3 1.3zM69.2 92.6l5.9 11.9h-2.4l-1.4-2.8h-6.7l-1.4 2.8h-2.4l6-11.9h2.4zm1.3 7.2L68 94.9l-2.5 4.9h5zM82.5 104.5v-4.7c0-.6.1-1.9-.8-2.5-.6-.4-1.7-.3-2.4 0-.5.2-1 .6-1.5 1.1v6.1h-2v-8.8h2v1a4.8 4.8 0 015.1-1c1.6.7 1.7 2.3 1.7 3.5v5.3h-2.1zM87.9 100.6c.2 1.2.6 1.9 1.8 2.3.7.2 2.3.3 3.2-.5l.4-.6h2.2a4 4 0 01-3.3 2.8c-1.2.3-3.7.2-5.1-1.3a5.4 5.4 0 01-1.1-4.6 4.1 4.1 0 013-3.1c1.5-.4 3.7-.3 5.2 1 1.3 1.2 1.5 2.7 1.5 4.1h-7.8zm4.5-3.2c-.8-.5-2-.6-2.9-.2-.9.4-1.4 1-1.5 1.9h5.4c0-.2 0-.4-.3-.9-.1-.3-.4-.6-.7-.8zM103.8 98.4a3.8 3.8 0 00-3.4-1.3c-.4 0-1 .2-1.3.7v.6c.2.4.9.5 1.7.6l1.2.2c1.1.2 2.9.4 3.6 1.7.3.6.3 1.6-.1 2.3-.6 1.1-2.3 1.5-3.2 1.6-1.8.1-3.9 0-5.6-2.1l1.7-1a3.8 3.8 0 003.6 1.5c.4 0 1.2-.1 1.6-.7v-.7c-.2-.5-.8-.5-1.6-.6l-1.2-.2c-.9-.1-3-.4-3.6-1.8-.3-.6-.2-1.6.2-2.3.8-1.3 2.8-1.5 3.7-1.5 1.5 0 3.1.3 4.6 2.1l-1.9.9zM110 93.1v2.5h3.1v1.7H110v3.4c0 .8 0 1.6.5 2 .6.5 2.3.1 2.8 0v1.8c-1.1.2-3.5.5-4.6-.4-.8-.7-.7-1.6-.7-2.5v-4.2h-1.6v-1.7h1.6v-2.5h2zM116.7 92.6v4.1a4.9 4.9 0 015.1-1c1.6.7 1.7 2 1.7 3.5v5.2h-2v-4.5c0-.9 0-2-.7-2.6-.5-.4-1.6-.4-2.5-.1-.4.2-.9.5-1.5 1.1v6.1h-2V92.6h1.9zM126.9 100.6c.2 1.2.6 1.9 1.8 2.3.7.2 2.3.3 3.2-.5l.4-.6h2.2a4 4 0 01-3.3 2.8c-1.2.3-3.7.2-5.1-1.3a5.4 5.4 0 01-1.1-4.6 4.1 4.1 0 013-3.1c1.5-.4 3.7-.3 5.2 1 1.3 1.2 1.5 2.7 1.5 4.1h-7.8zm4.5-3.2c-.8-.5-2.1-.6-2.9-.2-.9.4-1.4 1-1.5 1.9h5.4c0-.2 0-.4-.3-.9l-.7-.8zM142.8 98.4a3.8 3.8 0 00-3.4-1.3c-.4 0-1 .2-1.3.7v.6c.2.4.9.5 1.7.6l1.2.2c1.1.2 2.9.4 3.6 1.7.3.6.3 1.6-.1 2.3-.6 1.1-2.3 1.5-3.2 1.6-1.8.1-3.9 0-5.6-2.1l1.7-1a3.8 3.8 0 003.6 1.5c.4 0 1.2-.1 1.6-.7v-.7c-.2-.5-.8-.5-1.6-.6l-1.2-.2c-.9-.1-3-.4-3.6-1.8-.3-.6-.2-1.6.2-2.3.8-1.3 2.8-1.5 3.7-1.5 1.5 0 3.1.3 4.6 2.1l-1.9.9zM148.2 95.6v8.8h-2v-8.8h2zm0-3.3v1.8h-2v-1.8h2zM157 104.5l-.1-.9c-1.6.9-3.9 1.5-5.4.9-.8-.3-1.5-.8-1.7-1.6-.2-.8-.1-1.6.3-2.2 1-1.5 3-1.8 5.1-2.1l1.7-.1c0-.5 0-.9-.5-1.2-.6-.4-2.5-.4-3.1-.1-.5.2-.7.4-1 1h-2c.3-1.2.9-2 2-2.4 1.2-.4 4.4-.5 5.6.3 1.2.8 1.1 2.2 1.1 3.2v4.2l.2 1.1H157zm-5-3.1c-.2.3-.2.7-.1 1 .1.4.5.6.8.7.9.3 3-.4 4.1-1.1v-2.1l-1.9.2c-1.2.2-2.4.4-2.9 1.3z"
  />
</svg>
