<svg xmlns="http://www.w3.org/2000/svg" viewBox="0 0 175 61.3">
  <style>
    .st0 {
      fill: #231f20;
    }
    .st1 {
      fill: none;
      stroke: #231f20;
      stroke-width: 0.3411;
    }
    .st2 {
      fill: #502d6d;
    }
  </style>
  <path
    d="M7.3 6.2c0 1.2 0 1.3.9 1.4h.5v.3H4.6v-.3h.5c.9-.1 1-.3 1-1.4V1.1c0-.4 0-.4-.4-.4h-.9C4.2.7 3.3.7 3 1c-.4.3-.5.5-.7.8-.1.1-.3 0-.4-.1L2.5 0h.3c0 .4.5.4 1.2.4h6.1c.8 0 .9 0 1.2-.3h.3c-.2.5-.3 1.4-.2 1.7-.1.1-.3.1-.4 0 0-.3-.1-.7-.4-.8-.3-.2-.9-.3-1.7-.3H7.7c-.4 0-.4 0-.4.4v5.1zM28.3 54.6c0-1 0-1.1-.5-1.2h-.1v-.2h3.6l.1 1.2c0 .1-.2.1-.2 0-.1-.4-.2-.7-.6-.9l-.8-.1h-.6c-.2 0-.2 0-.2.4v1.8c0 .3 0 .3.3.3h.5l.7-.1c.1 0 .2-.1.2-.3l.1-.4c0-.1.2-.1.2 0v1.8c0 .1-.2.1-.2 0l-.1-.4c0-.2-.1-.3-.2-.3h-1.1c-.2 0-.3 0-.3.2v1.3c0 .5 0 .8.2 1 .1.1.3.2 1 .2l1-.1c.1-.1.4-.4.6-.9l.2.1-.4 1.3h-4s-.1-.2 0-.2h.3c.5 0 .5-.2.5-1.1v-3.4z"
    class="st0"
  />
  <path
    d="M28.3 54.6c0-1 0-1.1-.5-1.2h-.1v-.2h3.6l.1 1.2c0 .1-.2.1-.2 0-.1-.4-.2-.7-.6-.9l-.8-.1h-.6c-.2 0-.2 0-.2.4v1.8c0 .3 0 .3.3.3h.5l.7-.1c.1 0 .2-.1.2-.3l.1-.4c0-.1.2-.1.2 0v1.8c0 .1-.2.1-.2 0l-.1-.4c0-.2-.1-.3-.2-.3h-1.1c-.2 0-.3 0-.3.2v1.3c0 .5 0 .8.2 1 .1.1.3.2 1 .2l1-.1c.1-.1.4-.4.6-.9l.2.1-.4 1.3h-4s-.1-.2 0-.2h.3c.5 0 .5-.2.5-1.1v-3.4z"
    class="st1"
  />
  <path
    d="M38.7 59.4c-.7 0-1.1-.2-1.3-.3l-.2-1.3c0-.1.2-.1.2 0 .1.5.5 1.4 1.4 1.4.7 0 1-.5 1-1.1 0-.4-.1-.9-.7-1.3l-.8-.6c-.4-.3-.9-.8-.9-1.6 0-.9.6-1.6 1.6-1.6l.7.1.3.1.1 1.1c0 .1-.2.1-.2 0-.1-.4-.3-1-1.1-1s-1 .6-1 1c0 .5.4.9.7 1.1l.6.5c.5.4 1 .9 1 1.8.3 1-.4 1.7-1.4 1.7"
    class="st0"
  />
  <path
    d="M38.7 59.4c-.7 0-1.1-.2-1.3-.3l-.2-1.3c0-.1.2-.1.2 0 .1.5.5 1.4 1.4 1.4.7 0 1-.5 1-1.1 0-.4-.1-.9-.7-1.3l-.8-.6c-.4-.3-.9-.8-.9-1.6 0-.9.6-1.6 1.6-1.6l.7.1.3.1.1 1.1c0 .1-.2.1-.2 0-.1-.4-.3-1-1.1-1s-1 .6-1 1c0 .5.4.9.7 1.1l.6.5c.5.4 1 .9 1 1.8.3 1-.4 1.7-1.4 1.7z"
    class="st1"
  />
  <path
    d="M50.5 55.5c0-.6 0-1.6-.2-1.9l-.4-.2h-.2v-.2H51.4c.1 0 .1.2 0 .2h-.2l-.4.2-.1 1.9v1c0 .8-.1 1.6-.6 2.2a2 2 0 01-1.5.7c-.6 0-1.1-.1-1.5-.5-.4-.4-.6-1.1-.6-2.2v-2.2c0-1 0-1.1-.5-1.2h-.2v-.2h2s.1.2 0 .2h-.2c-.5 0-.5.2-.5 1.2v2c0 1.5.4 2.4 1.6 2.4 1.2 0 1.6-1 1.6-2.4v-1z"
    class="st0"
  />
  <path
    d="M50.5 55.5c0-.6 0-1.6-.2-1.9l-.4-.2h-.2v-.2H51.4c.1 0 .1.2 0 .2h-.2l-.4.2-.1 1.9v1c0 .8-.1 1.6-.6 2.2a2 2 0 01-1.5.7c-.6 0-1.1-.1-1.5-.5-.4-.4-.6-1.1-.6-2.2v-2.2c0-1 0-1.1-.5-1.2h-.2v-.2h2s.1.2 0 .2h-.2c-.5 0-.5.2-.5 1.2v2c0 1.5.4 2.4 1.6 2.4 1.2 0 1.6-1 1.6-2.4v-1z"
    class="st1"
  />
  <path
    d="M57.5 54.6c0-1 0-1.1-.5-1.2h-.2v-.2h2s.1.2 0 .2h-.2c-.5 0-.5.2-.5 1.2v3.3c0 1 0 1.1.5 1.2h.2v.2h-2s-.1-.2 0-.2h.2c.5-.1.5-.2.5-1.2v-3.3z"
    class="st0"
  />
  <path
    d="M57.5 54.6c0-1 0-1.1-.5-1.2h-.2v-.2h2s.1.2 0 .2h-.2c-.5 0-.5.2-.5 1.2v3.3c0 1 0 1.1.5 1.2h.2v.2h-2s-.1-.2 0-.2h.2c.5-.1.5-.2.5-1.2v-3.3z"
    class="st1"
  />
  <path
    d="M67 57.9c0 1 0 1.1.5 1.1h.3v.2h-2.2s-.1-.2 0-.2h.3c.5 0 .5-.2.5-1.1v-4.1c0-.3 0-.3-.2-.3h-.4c-.3 0-.8 0-1 .2l-.4.6c-.1.1-.2 0-.2-.1l.3-1.4h.2c0 .3.3.3.7.3h3.3c.4 0 .5 0 .6-.3h.1l-.1 1.4c0 .1-.2.1-.2 0l-.2-.7c-.2-.2-.5-.2-.9-.2h-.6c-.2 0-.2 0-.2.3v4.3z"
    class="st0"
  />
  <path
    d="M67 57.9c0 1 0 1.1.5 1.1h.3v.2h-2.2s-.1-.2 0-.2h.3c.5 0 .5-.2.5-1.1v-4.1c0-.3 0-.3-.2-.3h-.4c-.3 0-.8 0-1 .2l-.4.6c-.1.1-.2 0-.2-.1l.3-1.4h.2c0 .3.3.3.7.3h3.3c.4 0 .5 0 .6-.3h.1l-.1 1.4c0 .1-.2.1-.2 0l-.2-.7c-.2-.2-.5-.2-.9-.2h-.6c-.2 0-.2 0-.2.3v4.3z"
    class="st1"
  />
  <path
    d="M85.9 55.5c0-.6 0-1.6-.2-1.9l-.4-.2h-.2v-.2H86.8c.1 0 .1.2 0 .2h-.2l-.4.2-.1 1.9v1c0 .8-.1 1.6-.6 2.2a2 2 0 01-1.5.7c-.6 0-1.1-.1-1.5-.5-.4-.4-.6-1.1-.6-2.2v-2.2c0-1 0-1.1-.5-1.2h-.2v-.2h2s.1.2 0 .2H83c-.5 0-.5.2-.5 1.2v2c0 1.5.4 2.4 1.6 2.4 1.2 0 1.6-1 1.6-2.4v-1z"
    class="st0"
  />
  <path
    d="M85.9 55.5c0-.6 0-1.6-.2-1.9l-.4-.2h-.2v-.2H86.8c.1 0 .1.2 0 .2h-.2l-.4.2-.1 1.9v1c0 .8-.1 1.6-.6 2.2a2 2 0 01-1.5.7c-.6 0-1.1-.1-1.5-.5-.4-.4-.6-1.1-.6-2.2v-2.2c0-1 0-1.1-.5-1.2h-.2v-.2h2s.1.2 0 .2H83c-.5 0-.5.2-.5 1.2v2c0 1.5.4 2.4 1.6 2.4 1.2 0 1.6-1 1.6-2.4v-1z"
    class="st1"
  />
  <path
    d="M97.2 57.7v1.6l-.2.1-1-1.4-1.9-2.4-.9-1.2V57l.1 1.9.4.2h.2v.2H92.2c-.1 0-.1-.2 0-.2h.2l.4-.2.1-1.9v-2.6c0-.3 0-.4-.2-.7a.8.8 0 00-.5-.2h-.1v-.2h1.3c.2.5 1.1 1.7 1.4 2l.8 1 1.3 1.7v-2.4c0-.4 0-1.6-.2-1.9l-.5-.2h-.1c-.1-.1 0-.2 0-.2h1.8c.1 0 .1.2 0 .2h-.1c-.3 0-.4.1-.5.2l-.1 1.9v2.1z"
    class="st0"
  />
  <path
    d="M97.2 57.7v1.6l-.2.1-1-1.4-1.9-2.4-.9-1.2V57l.1 1.9.4.2h.2v.2H92.2c-.1 0-.1-.2 0-.2h.2l.4-.2.1-1.9v-2.6c0-.3 0-.4-.2-.7a.8.8 0 00-.5-.2h-.1v-.2h1.3c.2.5 1.1 1.7 1.4 2l.8 1 1.3 1.7v-2.4c0-.4 0-1.6-.2-1.9l-.5-.2h-.1c-.1-.1 0-.2 0-.2h1.8c.1 0 .1.2 0 .2h-.1c-.3 0-.4.1-.5.2l-.1 1.9v2.1z"
    class="st1"
  />
  <path
    d="M104 54.6c0-1 0-1.1-.5-1.2h-.2v-.2h2s.1.2 0 .2h-.2c-.5 0-.5.2-.5 1.2v3.3c0 1 0 1.1.5 1.2h.2v.2h-2s-.1-.2 0-.2h.2c.5-.1.5-.2.5-1.2v-3.3z"
    class="st0"
  />
  <path
    d="M104 54.6c0-1 0-1.1-.5-1.2h-.2v-.2h2s.1.2 0 .2h-.2c-.5 0-.5.2-.5 1.2v3.3c0 1 0 1.1.5 1.2h.2v.2h-2s-.1-.2 0-.2h.2c.5-.1.5-.2.5-1.2v-3.3z"
    class="st1"
  />
  <path
    d="M111.3 54.2c-.2-.5-.3-.7-.7-.7h-.1c-.1-.1 0-.2 0-.2h1.8c.1 0 .1.2 0 .2h-.1c-.3 0-.4.1-.4.2l.4 1.3 1.1 3.2.8-2 .7-2 .1-.4-.4-.2h-.1c-.1-.1 0-.2 0-.2h1.6c.1 0 .1.2 0 .2h-.2c-.2 0-.3.1-.4.3l-.9 2.1-.4 1.1-.8 2.4h-.1-.1l-.4-1.2-1.4-4.1z"
    class="st0"
  />
  <path
    d="M111.3 54.2c-.2-.5-.3-.7-.7-.7h-.1c-.1-.1 0-.2 0-.2h1.8c.1 0 .1.2 0 .2h-.1c-.3 0-.4.1-.4.2l.4 1.3 1.1 3.2.8-2 .7-2 .1-.4-.4-.2h-.1c-.1-.1 0-.2 0-.2h1.6c.1 0 .1.2 0 .2h-.2c-.2 0-.3.1-.4.3l-.9 2.1-.4 1.1-.8 2.4h-.1-.1l-.4-1.2-1.4-4.1z"
    class="st1"
  />
  <path
    d="M121.8 54.6c0-1 0-1.1-.5-1.2h-.1v-.2h3.6l.1 1.2c0 .1-.2.1-.2 0-.1-.4-.2-.7-.6-.9l-.8-.1h-.6c-.2 0-.2 0-.2.4v1.8c0 .3 0 .3.3.3h.5l.7-.1c.1 0 .2-.1.2-.3l.1-.4c0-.1.2-.1.2 0v1.8c0 .1-.2.1-.2 0l-.1-.4c0-.2-.1-.3-.2-.3h-1.1c-.2 0-.3 0-.3.2v1.3c0 .5 0 .8.2 1 .1.1.3.2 1 .2l1-.1c.1-.1.4-.4.6-.9l.2.1-.4 1.3h-4s-.1-.2 0-.2h.3c.5 0 .5-.2.5-1.1v-3.4z"
    class="st0"
  />
  <path
    d="M121.8 54.6c0-1 0-1.1-.5-1.2h-.1v-.2h3.6l.1 1.2c0 .1-.2.1-.2 0-.1-.4-.2-.7-.6-.9l-.8-.1h-.6c-.2 0-.2 0-.2.4v1.8c0 .3 0 .3.3.3h.5l.7-.1c.1 0 .2-.1.2-.3l.1-.4c0-.1.2-.1.2 0v1.8c0 .1-.2.1-.2 0l-.1-.4c0-.2-.1-.3-.2-.3h-1.1c-.2 0-.3 0-.3.2v1.3c0 .5 0 .8.2 1 .1.1.3.2 1 .2l1-.1c.1-.1.4-.4.6-.9l.2.1-.4 1.3h-4s-.1-.2 0-.2h.3c.5 0 .5-.2.5-1.1v-3.4z"
    class="st1"
  />
  <path
    d="M131.4 54.6c0-.9 0-1-.4-1.1h-.3c-.1 0-.1-.2 0-.2l1.8-.1c.5 0 1 0 1.3.3.4.2.7.6.7 1.3 0 .9-.6 1.3-1 1.5v.2a8.9 8.9 0 001.6 2.4l.6.3v.1h-.4c-.7 0-1.1-.2-1.7-1.2l-.8-1.4c-.1-.2-.2-.3-.6-.3-.4 0-.4 0-.4.2v1.2c0 1 0 1.1.5 1.1h.2v.2h-2s-.1-.2 0-.2h.2c.5-.1.5-.2.5-1.1v-3.2zm.6 1.3v.3h.6c.3 0 .6 0 .8-.2.2-.2.4-.5.4-1.1 0-.7-.4-1.4-1.3-1.4-.5 0-.5 0-.5.3v2.1z"
    class="st0"
  />
  <path
    d="M131.4 54.6c0-.9 0-1-.4-1.1h-.3c-.1 0-.1-.2 0-.2l1.8-.1c.5 0 1 0 1.3.3.4.2.7.6.7 1.3 0 .9-.6 1.3-1 1.5v.2a8.9 8.9 0 001.6 2.4l.6.3v.1h-.4c-.7 0-1.1-.2-1.7-1.2l-.8-1.4c-.1-.2-.2-.3-.6-.3-.4 0-.4 0-.4.2v1.2c0 1 0 1.1.5 1.1h.2v.2h-2s-.1-.2 0-.2h.2c.5-.1.5-.2.5-1.1v-3.2zm.6 1.3v.3h.6c.3 0 .6 0 .8-.2.2-.2.4-.5.4-1.1 0-.7-.4-1.4-1.3-1.4-.5 0-.5 0-.5.3v2.1z"
    class="st1"
  />
  <path
    d="M142.2 59.4c-.7 0-1.1-.2-1.3-.3l-.2-1.3c0-.1.2-.1.2 0 .1.5.5 1.4 1.4 1.4.7 0 1-.5 1-1.1 0-.4-.1-.9-.7-1.3l-.8-.6c-.4-.3-.9-.8-.9-1.6 0-.9.6-1.6 1.6-1.6l.7.1.3.1.1 1.1c0 .1-.2.1-.2 0-.1-.4-.3-1-1.1-1s-1 .6-1 1c0 .5.4.9.7 1.1l.6.5c.5.4 1 .9 1 1.8.3 1-.4 1.7-1.4 1.7"
    class="st0"
  />
  <path
    d="M142.2 59.4c-.7 0-1.1-.2-1.3-.3l-.2-1.3c0-.1.2-.1.2 0 .1.5.5 1.4 1.4 1.4.7 0 1-.5 1-1.1 0-.4-.1-.9-.7-1.3l-.8-.6c-.4-.3-.9-.8-.9-1.6 0-.9.6-1.6 1.6-1.6l.7.1.3.1.1 1.1c0 .1-.2.1-.2 0-.1-.4-.3-1-1.1-1s-1 .6-1 1c0 .5.4.9.7 1.1l.6.5c.5.4 1 .9 1 1.8.3 1-.4 1.7-1.4 1.7z"
    class="st1"
  />
  <path
    d="M150.2 54.6c0-1 0-1.1-.5-1.2h-.2v-.2h2s.1.2 0 .2h-.2c-.5 0-.5.2-.5 1.2v3.3c0 1 0 1.1.5 1.2h.2v.2h-2s-.1-.2 0-.2h.2c.5-.1.5-.2.5-1.2v-3.3z"
    class="st0"
  />
  <path
    d="M150.2 54.6c0-1 0-1.1-.5-1.2h-.2v-.2h2s.1.2 0 .2h-.2c-.5 0-.5.2-.5 1.2v3.3c0 1 0 1.1.5 1.2h.2v.2h-2s-.1-.2 0-.2h.2c.5-.1.5-.2.5-1.2v-3.3z"
    class="st1"
  />
  <path
    d="M159.6 57.9c0 1 0 1.1.5 1.1h.3v.2h-2.2s-.1-.2 0-.2h.3c.5 0 .5-.2.5-1.1v-4.1c0-.3 0-.3-.2-.3h-.4c-.3 0-.8 0-1 .2l-.4.6c-.1.1-.2 0-.2-.1l.3-1.4h.2c0 .3.3.3.7.3h3.3c.4 0 .5 0 .6-.3h.1l-.1 1.4c0 .1-.2.1-.2 0l-.2-.7c-.2-.2-.5-.2-.9-.2h-.6c-.2 0-.2 0-.2.3v4.3z"
    class="st0"
  />
  <path
    d="M159.6 57.9c0 1 0 1.1.5 1.1h.3v.2h-2.2s-.1-.2 0-.2h.3c.5 0 .5-.2.5-1.1v-4.1c0-.3 0-.3-.2-.3h-.4c-.3 0-.8 0-1 .2l-.4.6c-.1.1-.2 0-.2-.1l.3-1.4h.2c0 .3.3.3.7.3h3.3c.4 0 .5 0 .6-.3h.1l-.1 1.4c0 .1-.2.1-.2 0l-.2-.7c-.2-.2-.5-.2-.9-.2h-.6c-.2 0-.2 0-.2.3v4.3z"
    class="st1"
  />
  <path
    d="M169.5 57.9c0 1 0 1.1.5 1.2h.3v.2h-2.2s-.1-.2 0-.2h.2c.5-.1.5-.2.5-1.2v-.5c0-.5 0-.6-.3-1.1l-1-2.1c-.3-.6-.4-.6-.6-.7h-.2v-.2h1.8c.1 0 .1.2 0 .2h-.1l-.3.2.3.7.9 2 .8-1.5.5-1.2-.3-.1h-.1c-.1-.1 0-.2 0-.2h1.5c.1 0 .1.2 0 .2h-.2c-.4.1-.7.7-1.1 1.4l-.5 1c-.4.7-.4.8-.4 1.5v.4z"
    class="st0"
  />
  <path
    d="M169.5 57.9c0 1 0 1.1.5 1.2h.3v.2h-2.2s-.1-.2 0-.2h.2c.5-.1.5-.2.5-1.2v-.5c0-.5 0-.6-.3-1.1l-1-2.1c-.3-.6-.4-.6-.6-.7h-.2v-.2h1.8c.1 0 .1.2 0 .2h-.1l-.3.2.3.7.9 2 .8-1.5.5-1.2-.3-.1h-.1c-.1-.1 0-.2 0-.2h1.5c.1 0 .1.2 0 .2h-.2c-.4.1-.7.7-1.1 1.4l-.5 1c-.4.7-.4.8-.4 1.5v.4zM20.9 54.6c0-1-.1-1.1-.6-1.2h-.2v-.2h2s.1.2 0 .2H22c-.5.1-.5.2-.5 1.2V58c0 .7 0 1.4-.2 1.8-.3.7-.8 1.3-1.6 1.3-.1 0-.3 0-.3-.2s.1-.4.3-.4l.3.1.3.1c.2 0 .3-.1.3-.2.2-.4.2-1.8.2-2.3v-3.6z"
    class="st1"
  />
  <path
    d="M17.3 4.2c-.7 0-.7 0-.7.4v1.6c0 1.2.1 1.3.9 1.4h.4v.3H14.3v-.3h.3c.8-.1.9-.2.9-1.4V2.1c0-1.2-.1-1.4-.9-1.4h-.4V.4H17.8v.3h-.3c-.9.1-.9.2-.9 1.4v1.3c0 .4 0 .4.7.4h4.3c.7 0 .7 0 .7-.4V2.1c0-1.2 0-1.4-.9-1.4h-.3V.4h3.6v.3h-.3c-.9.1-.9.2-.9 1.4v4.1c0 1.2 0 1.3.9 1.4h.4v.3h-3.6v-.3h.3c.9-.1.9-.2.9-1.4V4.6c0-.3 0-.4-.7-.4h-4.4zM29.1 2.1c0-1.2 0-1.4-.9-1.4H28V.4h6.6l.2 1.5c-.1.1-.3.1-.4 0-.2-.5-.4-.9-1.1-1.1L31.8.7h-1.1c-.4 0-.4 0-.4.5v2.3c0 .3 0 .3.5.3h.9l1.3-.1c.2 0 .3-.1.4-.4l.1-.5c.1-.1.3-.1.4 0L33.8 4l.1 1.1c-.1.1-.3.1-.4 0l-.1-.4c-.1-.2-.2-.4-.5-.4l-1.2-.1h-.9c-.4 0-.5 0-.5.3v1.6c0 .6 0 1 .3 1.2.2.1.5.3 1.8.3 1.2 0 1.6 0 1.9-.2.3-.1.7-.5 1.1-1.1.1-.1.3 0 .4.1L35.1 8h-7.3v-.3h.5c.9-.1.9-.2.9-1.4V2.1zM52.1 3.2c0-.7 0-2-.3-2.3l-.7-.2h-.4V.4H54v.3h-.4c-.4 0-.7.1-.7.3-.2.4-.2 1.7-.2 2.3v1.3c0 1-.2 2-1.1 2.7-.5.4-1.7.7-2.8.7-1 0-2.1-.1-2.8-.6-.8-.5-1.2-1.3-1.2-2.7V2.1c0-1.2 0-1.4-.9-1.4h-.4V.4h3.7v.3h-.4c-.9.1-.9.2-.9 1.4v2.4c0 1.8.7 3 3 3 2.2 0 3-1.3 3-3V3.2zM65.9 5.9v2l-.2.1-1.9-1.7-3.5-3-1.7-1.5-.1.7V5c0 .5 0 2 .3 2.3l.8.2h.5v.3H56.7v-.3h.4l.7-.2c.2-.4.2-1.8.2-2.3V1.7c0-.3 0-.6-.3-.8-.2-.2-.6-.2-.9-.3h-.3V.3h2.4c.3.6 2.1 2.1 2.6 2.5L63 4a27 27 0 002.5 2l.1-.5V3.2c0-.5 0-2-.3-2.3-.1-.1-.3-.2-.9-.2h-.3V.4h3.3v.3h-.2l-.8.2c-.3.4-.2 1.8-.2 2.3v2.7zM120.8 2.1c0-1.2 0-1.4-.9-1.4h-.4V.4h3.8v.3h-.4c-.9 0-.9.2-.9 1.4v4c0 1.2 0 1.4.9 1.4h.4v.3h-3.8v-.3h.4c.9-.1.9-.2.9-1.4v-4zM131.1 6.2c0 1.2 0 1.3.9 1.4h.5v.3h-4.1v-.3h.5c.9-.1.9-.2.9-1.4V1.1c0-.4 0-.4-.4-.4h-.8c-.6 0-1.5 0-1.8.3-.4.2-.5.5-.7.8-.1.1-.3 0-.4-.1l.6-1.7h.3c.1.4.6.4 1.3.4h6.1c.8 0 .9 0 1.2-.3h.3c-.2.5-.3 1.4-.2 1.7-.1.1-.3.1-.4 0 0-.3-.1-.7-.4-.8-.3-.2-.9-.3-1.7-.3h-1.1c-.4 0-.4 0-.4.4v5.1zM71.3 2.1c0-1.2 0-1.4-.9-1.4H70V.4h3.8v.3h-.4c-.9.1-.9.2-.9 1.4v4c0 1.2 0 1.4.9 1.4h.4v.3H70v-.3h.4c.9-.1.9-.2.9-1.4v-4zM77.7 1.6c-.3-.6-.6-.9-1.2-.9h-.3V.4H79.6v.3h-.2l-.7.2.7 1.6 2.1 3.9L83 3.8l1.4-2.5.1-.4c0-.1-.1-.2-.7-.2h-.3V.4h3.1v.3h-.4c-.4 0-.6.2-.8.4l-1.7 2.6-.8 1.3-1.6 3h-.2-.1l-.7-1.5-2.6-4.9zM89.9 2.1c0-1.2 0-1.4-.9-1.4h-.2V.4h6.6l.2 1.5c-.1.1-.3.1-.4 0-.2-.5-.4-.9-1.1-1.1L92.6.7h-1.1c-.4 0-.4 0-.4.5v2.3c0 .3 0 .3.5.3h.9l1.3-.1c.2 0 .3-.1.4-.4l.1-.5c.1-.1.3-.1.4 0L94.6 4l.1 1.1c-.1.1-.3.1-.4 0l-.1-.4c-.1-.2-.2-.4-.5-.4l-1.2-.1h-.9c-.4 0-.5 0-.5.3v1.6c0 .6 0 1 .3 1.2.2.1.5.3 1.8.3 1.2 0 1.6 0 1.9-.2.3-.1.7-.5 1.1-1.1.1-.1.3 0 .4.1L95.9 8h-7.3v-.3h.5c.9-.1.9-.2.9-1.4V2.1zM101.6 1.1c0-.3 0-.4 1-.4 1.7 0 2.4.9 2.4 1.8 0 .8-.3 1.2-.7 1.4-.4.3-1 .3-1.5.3l-1-.1v-3zm-1.2 5.1c0 1.2 0 1.3-.9 1.4h-.4v.3h3.7v-.3h-.3c-.9-.1-.9-.2-.9-1.4V4.7c0-.2 0-.2.7-.2.6 0 .8.1 1.1.4l1.5 1.7C106 7.8 106.7 8 108 8l.7-.1c.1 0 .1-.1 0-.2-.4 0-.8-.1-1-.3-1-.6-1.8-1.6-3-3-.1-.1-.2-.2-.1-.3.7-.2 1.9-.8 1.9-1.9 0-.8-.5-1.3-1.2-1.6-.7-.3-1.6-.3-2.5-.3l-3.3.1v.3h.5c.6.1.7.3.7 1.3v4.2zM113.2 8c-1.3 0-2-.3-2.3-.4-.2-.2-.4-1-.4-1.6.1-.1.3-.1.4 0 .2.6.8 1.7 2.6 1.7 1.3 0 1.9-.6 1.9-1.3 0-.5-.1-1.1-1.2-1.6l-1.4-.7c-.7-.4-1.6-1-1.6-1.9 0-1.1 1.1-1.9 3-1.9l1.4.1.5.1c.1.3.3.9.3 1.4-.1.1-.3.1-.4 0-.2-.5-.6-1.3-2-1.3-1.5 0-1.8.7-1.8 1.3 0 .7.7 1.1 1.3 1.4l1.2.6c.9.4 1.9 1.1 1.9 2.2-.3 1.1-1.5 1.9-3.4 1.9M142.4 6.1c0 1.2.1 1.4.9 1.4h.6v.3h-4v-.3h.5c.9-.1.9-.2.9-1.4v-.5c0-.6 0-.8-.5-1.4L139 1.6c-.5-.7-.7-.8-1.2-.9l-.4-.1V.3h3.3v.3h-.2l-.6.2.5.9 1.7 2.5 1.4-1.9 1-1.5-.6-.2h-.3V.3h2.8v.3l-.4.1c-.8.1-1.2.8-2 1.8l-.9 1.2c-.7.8-.7 1-.7 1.8v.6zM159.4 7.7c-2.9 0-4-2.2-4-3.8 0-2.5 2-3.3 3.6-3.3 2.9 0 4 2 4 3.9-.1 2.2-1.8 3.2-3.6 3.2m-.2.3c2.9 0 5.2-1.7 5.2-3.9 0-2-1.7-3.9-5.2-3.9-3.1 0-5.3 1.7-5.3 4-.1 2 1.9 3.8 5.3 3.8M169.9 3.6c0 .3 0 .3.5.3h1l1.3-.1c.2 0 .3-.1.4-.4l.1-.5c.1-.1.3-.1.4 0l-.1 1.2.1 1.1c-.1.1-.3.1-.4 0l-.2-.4c-.1-.2-.2-.4-.5-.4l-1.2-.1h-1c-.4 0-.5 0-.5.3v1.6c0 1.2 0 1.4.9 1.4h.5v.3h-3.9v-.3h.4c.9-.1.9-.2.9-1.4V2.1c0-1.2 0-1.4-.9-1.4h-.2V.4h6.4v1.5c0 .1-.3.1-.4 0-.1-.5-.3-.9-1-1.1l-1.4-.1h-.9c-.4 0-.4 0-.4.5v2.4z"
    class="st0"
  />
  <path
    d="M8.4 46.7c-3.9 0-6.3-1.3-7.2-1.8C.7 43.8.1 40.5 0 38.2c.2-.3.9-.4 1.1-.1.7 2.4 2.6 7.1 7.9 7.1 3.9 0 5.8-2.6 5.8-5.5 0-2.1-.4-4.4-3.8-6.7l-4.4-3c-2.3-1.6-4.9-4.3-4.9-8.2 0-4.5 3.4-8.2 9.4-8.2 1.4 0 3.1.2 4.3.6l1.6.3c.4 1.1.8 3.8.8 5.8-.2.3-.9.4-1.1.2-.6-2.3-1.8-5.4-6.2-5.4C6 15.1 5 18.2 5 20.4c0 2.8 2.2 4.7 3.9 5.9l3.7 2.4c2.9 1.9 5.7 4.6 5.7 9.2-.2 5.2-3.9 8.8-9.9 8.8M22.9 17.6c2.4-2 5.5-3 9-3 1.8 0 4.3.4 5.9.8.4.1.6.2.9.1l.5 5.1c-.2.2-.7.3-.9.1-.5-2.4-2-5.1-6.8-5.1-5.1 0-9.4 3.4-9.4 10.6 0 7.3 4.4 11.3 9.9 11.3a7 7 0 006.9-5c.2-.2.7-.1.9.1-.2 1.8-1.1 4.1-1.6 4.8l-1.2.3c-.7.3-3.1.8-5.3.8-3 0-5.8-.6-8.3-2.3a11.3 11.3 0 01-4.7-9.6c.1-3.7 1.7-7 4.2-9M45.9 17.2c0-1 .1-1.1 2.2-1.1 3.7 0 5.3 2.6 5.3 5.4 0 2.4-.8 3.6-1.7 4.3-1 .8-2.2.9-3.4.9-1.7 0-2.2-.1-2.3-.2l-.1-1.1v-8.2zm-2.7 15.7c0 3.7-.1 4.1-2 4.4l-.8.1c-.2.2-.1.8.1.9l4.2-.1 3.9.1c.2-.1.3-.7.1-.9l-.7-.1c-1.9-.3-2-.7-2-4.4v-4.4c0-.7.1-.8 1.6-.8 1.3 0 1.9.3 2.4 1.1l3.3 5.3c2.4 3.5 4.1 4.4 6.9 4.4l1.5-.2c.2-.1.1-.4 0-.5-.9-.1-1.7-.5-2.3-1-2.3-2-4-4.8-6.7-9.3-.2-.3-.3-.6-.2-.8 1.7-.7 4.2-2.5 4.2-5.8 0-2.4-1.2-4-2.8-4.9-1.5-.9-3.5-1-5.5-1-3.3 0-5.5.1-7.4.3-.3.1-.3.7 0 .9l1.1.1c1.4.2 1.5.8 1.5 4.1v12.5z"
    class="st2"
  />
  <path
    d="M68.9 20.9l.8-2.1h.1l.8 2.2 1.8 5.7c.3.9.2 1.1-.7 1.1h-4.1c-.9 0-1 0-.7-.8l2-6.1zm5.9 13.9c.3.8.4 1.5.4 1.8 0 .3-.5.6-1.2.6l-1 .1c-.2.2-.2.7.1.9l3.8-.1 4 .1c.2-.1.2-.7 0-.9l-.9-.1c-1.4-.2-1.9-.7-2.8-3.7l-4.6-14-1.5-4.7a.5.5 0 00-.5-.3c-.4.5-.9 1.1-1.7 1.3.1.6-.1 1.2-.6 2.5l-3.4 9.4-2.9 7.8c-.5 1.3-1.2 1.6-2 1.7l-1.1.1c-.2.2-.1.7.1.9l3.2-.1 3.5.1c.3-.1.3-.7.1-.9l-1.1-.1c-.8-.1-1-.3-1-.7 0-.4.2-1.3.7-2.9l1.2-3.7c.2-.7.4-.8 1.3-.8h5c1 0 1.1.1 1.4.9l1.5 4.8z"
    class="st2"
  />
  <path
    d="M101.9 32.2l.1 6.1c-.1.2-.3.4-.6.4l-4.3-5.2-7.7-9.2-3.9-4.7h-.1l-.2 2.3v7.6c0 1.6.1 6.2.6 7.2.2.4.9.6 1.7.7l1 .1c.2.3.2.7-.1.9l-3.9-.1-3.5.1c-.2-.2-.3-.7-.1-.9l.9-.1c.8-.1 1.3-.3 1.5-.7.5-1.3.4-5.5.4-7.2V19.3c0-1 0-1.7-.7-2.5-.5-.5-1.3-.7-2.1-.8l-.6-.1c-.2-.2-.2-.7.1-.9l3.8.1 1.5-.1c.7 1.8 4.6 6.4 5.7 7.7l3.2 3.8 5.5 6.3h.1l.1-1.5v-7.4c0-1.6 0-6.2-.7-7.2-.2-.3-.7-.5-2.1-.7l-.6-.1c.1-.2.1-.8.4-.9l3.9.1 3.4-.1c.3.2.3.7.1.9l-.5.1c-1.1.2-1.7.5-1.9.7-.6 1.3-.5 5.6-.5 7.2v8.3zM117.1 32.9c0 3.7.1 4.1 2 4.4l1.1.1c.2.1.1.8-.1.9l-4.4-.1-4.6.1c-.2-.1-.3-.7 0-.9l1.2-.1c1.9-.2 2.1-.7 2.1-4.4V17.3c0-1.1 0-1.1-1-1.1h-1.8c-1.4 0-3.3.1-4.1.9-.8.8-1.1 1.5-1.5 2.4-.3.2-.7 0-.9-.2l1.3-5.2h.6c.2 1.1 1.3 1.1 2.8 1.1h13.5c1.8 0 2.1-.1 2.6-1 .2-.1.5 0 .6.1-.4 1.4-.6 4.3-.5 5.3-.1.3-.7.3-.9.1-.1-.9-.3-2.2-.8-2.5-.8-.6-2-.9-3.9-.9H118c-1 0-1 0-1 1.2v15.4zM138.6 37.6c-6.6 0-9-6.7-9-11.8 0-7.6 4.5-10.1 8-10.1 6.4 0 8.8 6.2 8.8 11.9 0 6.9-3.8 10-7.8 10m-.4 1.1c6.4 0 11.5-5.1 11.5-12.1 0-6.1-3.8-11.9-11.5-11.9-6.9 0-11.8 5.3-11.8 12.3 0 6.1 4.4 11.7 11.8 11.7"
    class="st2"
  />
  <path
    d="M171.9 37.8l.1 8.4c-.1.3-.3.5-.7.5-.4-.8-1.4-2.5-4.5-7.2l-8.2-12.7-4.1-6.5h-.1l-.2 3.1V34c0 2.3.1 8.5.6 9.9.2.5.9.8 1.8.9l1.1.1c.2.4.2.9-.1 1.2l-4.1-.2-3.7.2c-.2-.2-.3-.9-.1-1.2l.9-.1c.8-.1 1.4-.4 1.5-1 .5-1.7.5-7.6.5-9.9V20.1c0-1.3 0-2.4-.8-3.5-.5-.7-1.3-1-2.2-1.2l-.6-.1c-.2-.3-.2-1 .1-1.2a87.2 87.2 0 005.6 0c.7 2.4 4.9 8.8 6 10.6l3.4 5.2c2.4 3.7 4.1 6.4 5.8 8.7h.1l.1-2V26.4c0-2.3 0-8.5-.7-9.9-.2-.4-.8-.7-2.2-1l-.6-.1c-.2-.3-.2-1.1.1-1.2l4.1.2 3.6-.2c.3.2.3.9.1 1.2l-.5.1c-1.1.2-1.8.6-2 1-.6 1.7-.5 7.7-.5 9.9v11.4z"
    class="st2"
  />
  <path fill="none" stroke="#231f20" stroke-width="1.4" d="M19.5 45.4H146" />
  <path
    d="M6.3 57.1c-.1-.2-.1-.2-.3-.2H4.7c-.2 0-.2 0-.3.2l-.3 1-.1.7c0 .1 0 .2.2.2h.3c.1 0 .1.2 0 .2H2.9s-.1-.2 0-.2h.3c.2 0 .4-.1.5-.4l.7-2 .8-2.5c.1-.3.2-.5.1-.6l.4-.3.1.1.3 1.1 1.1 3.7c.2.8.3.9.7 1h.2c.1 0 0 .2 0 .2H6.2c-.1 0-.1-.2 0-.2h.2c.2 0 .3-.1.3-.2l-.1-.5-.3-1.3zm-1.6-.8c-.1.2-.1.2.2.2h1c.2 0 .2 0 .2-.3l-.4-1.5-.2-.6-.2.5-.6 1.7z"
    class="st0"
  />
  <path
    d="M6.3 57.1c-.1-.2-.1-.2-.3-.2H4.7c-.2 0-.2 0-.3.2l-.3 1-.1.7c0 .1 0 .2.2.2h.3c.1 0 .1.2 0 .2H2.9s-.1-.2 0-.2h.3c.2 0 .4-.1.5-.4l.7-2 .8-2.5c.1-.3.2-.5.1-.6l.4-.3.1.1.3 1.1 1.1 3.7c.2.8.3.9.7 1h.2c.1 0 0 .2 0 .2H6.2c-.1 0-.1-.2 0-.2h.2c.2 0 .3-.1.3-.2l-.1-.5-.3-1.3zm-1.6-.8c-.1.2-.1.2.2.2h1c.2 0 .2 0 .2-.3l-.4-1.5-.2-.6-.2.5-.6 1.7z"
    class="st1"
  />
  <path
    d="M20.9 54.6c0-1-.1-1.1-.6-1.2h-.2v-.2h2s.1.2 0 .2H22c-.5.1-.5.2-.5 1.2V58c0 .7 0 1.4-.2 1.8-.3.7-.8 1.3-1.6 1.3-.1 0-.3 0-.3-.2s.1-.4.3-.4l.3.1.3.1c.2 0 .3-.1.3-.2.2-.4.2-1.8.2-2.3v-3.6z"
    class="st0"
  />
</svg>
