<svg xmlns="http://www.w3.org/2000/svg" viewBox="0 0 175 51.5">
  <style>
    .st0 {
      fill: #231f20;
    }
    .st1 {
      fill: #ea5a4f;
    }
  </style>
  <path
    d="M67.6 13.1l2.2.1h.2l.2.3 1 1.3 6.4 6.2v-3.1l-.1-3.3c0-.3-.1-.7-.4-.8l-.9-.1-.1-.1v-.4h1.8l1.7-.1.1.1.1.3a3 3 0 00-1 .3c-.3.2-.4.7-.5 2.8v6.8l-.3.3-.2-.1a27 27 0 00-4.1-4.5l-3.9-3.8-.1 2.9c0 1.4 0 3.6.2 4.2.1.4.6.5 1.3.6l.1.4-.1.1-2-.1h-1.3l-.1-.4c1-.3 1.1-.4 1.1-1 0-.4.2-1.9.2-4.1v-1.8c0-1.6 0-1.9-.3-2.1-.3-.3-.5-.4-1.2-.5l-.1-.1v-.3M86.2 13.6c-1.4.1-1.6.2-1.6.5l-.1 2.7V20l.1 2.3c0 .4.2.5.4.5l.8.1.2.1-.1.4h-2.5l-1.6.1-.2-.1-.1-.4c1.1 0 1.5-.1 1.5-.5l.1-2.6v-3.8c0-2.1 0-2.2-.6-2.3l-.9-.1-.1-.1.1-.2.1-.2h4.1l.2.1.2.3M98.5 13.7l-.4.1-.9 1.7-3 6.7-.3.5-.4.8-.1.1-.3-.1-.6-1.4-3.1-7.2c-.6-1.3-.6-1.3-1.6-1.4l.2-.4.1-.1 1.7.1h1.4v.3l-.1.2c-.6.1-.7.2-.6.5l1.1 2.8 2 4.5a49.4 49.4 0 002.3-4.9l1.1-2.7c.1-.1-.1-.2-.5-.2H96l-.1-.1.3-.4H98.8c.2 0 .2.1.2.4l-.1.1-.4.1M104.4 18h1.6c.9-.1 1-.1 1.2-1.1l.5-.1-.1 1.7.1 1.4h-.4l-.1-.1-.2-.6c-.1-.4-.3-.6-.9-.6h-2.7l-.2.1-.1 1.9c0 1.2 0 1.6.2 1.8.2.3.8.4 2.1.4 1.9 0 2.7-.2 3.2-1.9h.4v.1c0 .7-.3 1.7-.5 2.2l-.2.1H104.7l-3.8.1v-.5l.1-.1c.7-.1.8-.2.8-.5l.1-2.9V17l-.1-2.9c0-.1 0-.2-.2-.2l-.8-.2v-.5l.1-.1h4.2l2.9-.1.4.1.1.4-.1 2-.5-.1c-.2-1.1-.3-1.7-1.6-1.7H105l-1.6.1c-.2.1-.2.2-.2.6v3.3l.2.3h1M111 13.3l.1-.1 2.2-.1 1.6-.1c.9 0 1.9.1 2.8.7.7.5 1.1 1.3 1.1 2.1 0 1.3-1.1 2-1.7 2.3l-.1.2c.1.3.4 1.3 1.1 2.3a6.7 6.7 0 002.9 2.6l.2.2-.1.3a4.9 4.9 0 01-3.3-1.5 7.3 7.3 0 01-1.7-2.6c-.4-.7-.5-.9-1.5-.9h-.8l-.2.2.1 3.1.2.4c.2.2.9.3 1.2.3l-.1.4h-3.6l-.1-.5c.3-.1.8-.2.9-.4.2-.3.2-1.5.2-3.5v-1.9V14c0-.5-.1-.6-1.1-.8l-.3.1m6.2 2.6c0-1.2-.9-2.3-2.4-2.3l-1.1.2-.2.3-.1 2.7.1 1.6h.5c1.2 0 2-.2 2.5-.8.5-.4.7-1 .7-1.7zM122.8 23.8l-.1-.1-.1-.6c0-.8-.1-1.6-.3-2.3v-.2h.3l.2.2.5 1c.5.7 1.6 1.4 2.6 1.4 1.4 0 2.4-.9 2.4-2.2 0-.6-.3-1-.7-1.3-.3-.3-.7-.5-2-.9a5.4 5.4 0 01-2.4-1.4c-.3-.4-.6-1-.6-1.6 0-1.1.6-1.9 1.3-2.3.4-.2 1.3-.5 2.3-.5l1.5.1h.4l.4-.3h.4l.1 2.5v.2l-.4.2-.1-.1c-.2-.6-.3-1.1-.8-1.5-.3-.3-1.1-.6-1.9-.6-1.2 0-2 .8-2 1.8 0 .5.2.9.4 1.2.4.4.8.7 2 1.1 1.1.4 1.9.8 2.4 1.2.6.6.8 1.2.8 1.9 0 1.1-.6 2-1.4 2.4a6.9 6.9 0 01-4.6.4h-.3l-.3.2c.1.1 0 .1 0 .1M136.2 13.6c-1.4.1-1.6.2-1.6.5l-.1 2.7V20l.1 2.3c0 .4.2.5.4.5l.8.1.2.1-.1.4h-2.5l-1.6.1-.2-.1-.1-.4c1.1 0 1.5-.1 1.5-.5l.1-2.6v-3.8c0-2.1 0-2.2-.6-2.3l-.9-.1-.1-.1.1-.2.1-.2h4.1l.2.1.2.3M140.6 23.1l.9-.1c.4-.1.6-.2.7-.5l.1-3.6v-1.6l-.1-3.4h-1.3c-1.5 0-2.2.3-2.3.3-.2.1-.3.4-.5 1.1h-.1l-.4-.3.9-2.4h.3l.1.1.1.4.7.1h6.7l.9-.1.3-.4.1-.1.4.1v.2c-.3.8-.3 1.2-.4 2.2l-.2.1h-.3l-.1-.1v-.8l-.3-.3c-.1-.1-.9-.2-2-.2h-1c-.1 0-.2.1-.2.4V19l.1 3.2c0 .3.2.5.3.6.3.2 1 .3 1.4.3l.1.1-.1.3-.1.1H143l-2.2.1-.2-.1v-.5M153.2 13.3l-.1.5-.6.1c-.2 0-.2.1-.2.2l2 3.2.3.3c.1 0 .2 0 .3-.2l1.8-2.6.4-.8c0-.1-.2-.2-.9-.2v-.4l.1-.2h2.8l.3.1v.5c-.8 0-1 .2-1.4.7a40.4 40.4 0 00-2.6 3.5c-.3.5-.4.6-.4 1.4v2.9c0 .7.1.7 1.6.9l-.1.5-.3.1-2.5-.1h-1.4l-.2-.1-.1-.4v-.1c.7-.1 1.2-.1 1.3-.4l.1-2v-1.6c0-.6 0-.7-.4-1.2a28.8 28.8 0 00-2.7-4l-.8-.1-.1-.1v-.4l.1-.1h3.4c.2-.1.3 0 .3.1M66.5 10.9l-.9.1s-.2.1-.2.3c-.2.5-.2 1.7-.3 5.2-.1 2.4-.2 3.6-1.1 5.1a5.9 5.9 0 01-8.6.8c-1-1-1.3-2.4-1.3-3.8v-4c.1-2.1.1-2.8 0-3.2-.1-.4-.4-.5-1.4-.6v-.4l.4-.1 1.8.1 2.6-.1.1.1-.1.4c-1.4.1-1.6.3-1.8.8-.1.3-.2.7-.2 2.2l-.1 4.4c0 1.8.6 3.1 1.4 3.7a5 5 0 003.1 1c1.9 0 2.9-.8 3.4-1.4.8-1.1 1.1-2.5 1.1-4.7l-.1-5c0-.8-.5-.8-2-.8l-.2-.2.2-.3.5-.1h1.7l2-.1.1.1-.1.5"
    class="st0"
  />
  <g>
    <path
      d="M120.8 40.4l.9-.1c.4-.1.6-.2.7-.5l.1-3.6v-1.6l-.1-3.4h-1.3c-1.5 0-2.2.3-2.3.3-.2.1-.3.4-.5 1.1h-.1l-.4-.3.9-2.4h.3l.1.1.1.4.7.1h6.7l.9-.1.3-.4.1-.1.4.1v.2c-.3.8-.3 1.2-.4 2.2l-.2.1h-.3l-.1-.1v-.8l-.3-.3c-.1-.1-.9-.2-2-.2h-1c-.1 0-.2.1-.2.4V36.3l.1 3.2.3.6c.3.2 1 .3 1.4.3l.1.1-.1.3-.1.1h-2.3l-2.2.1-.2-.1v-.5M131 40.2c.2 0 .2 0 .3-.3l.1-3.8v-1.6-2.7c0-.6-.1-.7-.9-.9v-.4l.2-.1h4.5l2.4-.1.1.2v2.1l-.2.1-.3-.1c-.2-.9-.3-1.3-.8-1.4-.4-.1-.8-.2-1.9-.2l-1.3.1c-.1 0-.2.2-.2.6-.2 1.5-.1 3.4-.1 3.6l.1.2h1.3l1.7-.1c.3 0 .4-.1.6-.9l.5-.1v1.3l.1 1.4h-.5c-.1-.4-.2-.8-.4-.9-.3-.2-.6-.2-1.9-.2H133c-.1 0-.2.2-.2.6V38l.1 1.5c.1.6.5.7 1.4.7l.1.1-.1.4h-.4l-1.7-.1-1.5.1-.2-.1v-.5h.5M145.4 30.2c2.9 0 5.5 2.3 5.5 5.2 0 2-1 3.4-1.8 4.2a4.9 4.9 0 01-3.4 1.4c-1.7 0-3.5-.8-4.6-2a5.7 5.7 0 01-1.3-3.6c0-1.3.5-2.7 1.8-3.8a6 6 0 013.8-1.4m-.6.6c-.8 0-1.6.3-2.4 1.2-.8 1-1.1 2.4-1.1 3.4 0 1.5.5 2.8 1.4 3.6a4 4 0 003.1 1.5c1.6 0 3.4-1.4 3.4-4.4 0-1.4-.4-2.8-1.5-4-.5-.7-1.5-1.3-2.9-1.3zM152.9 30.6l.1-.1 2.2-.1 1.6-.1c1 0 1.9.1 2.8.7.7.5 1.1 1.3 1.1 2.1 0 1.3-1.1 2-1.7 2.3l-.1.2c.1.3.4 1.3 1.1 2.3a6.7 6.7 0 002.9 2.6l.2.2-.1.3a4.9 4.9 0 01-3.3-1.5 7.3 7.3 0 01-1.7-2.6c-.4-.7-.5-.9-1.5-.9h-.8l-.2.2.1 3.1.2.4c.2.2.9.3 1.2.3l-.1.4h-3.6l-.1-.5c.3-.1.8-.2.9-.4.2-.3.2-1.5.2-3.5v-1.9-2.8c0-.5-.1-.6-1.1-.8l-.3.1m6.2 2.6c0-1.2-.9-2.3-2.4-2.3l-1.1.2-.2.3-.1 2.7.1 1.6h.5c1.2 0 2-.2 2.5-.8.4-.4.7-1 .7-1.7zM175 35.6c0 .9-.4 2.3-1.5 3.3a6 6 0 01-2.7 1.6 9 9 0 01-2.5.3l-2.8-.1h-1.2v-.5c.7-.2.9-.3.9-.6l.1-5.9v-2.3c0-.2-.1-.4-.9-.5l-.1-.2v-.3h1.9l2.4-.1c1.1 0 3.2.2 4.7 1.5a5.3 5.3 0 011.7 3.8m-6.4-4.7c-.6 0-1.6.2-1.7.3l-.1.3-.1 3.5c0 2.3 0 3.9.3 4.8l.2.2c.3.2.9.3 1.4.3.8 0 1.7-.1 2.8-.8 1.3-.9 2-2.4 2-4 0-1.7-.8-2.8-1.5-3.5a5.4 5.4 0 00-3.3-1.1zM58.4 30.2c2.9 0 5.5 2.3 5.5 5.2 0 2-1 3.4-1.8 4.2a4.9 4.9 0 01-3.4 1.4c-1.7 0-3.5-.8-4.6-2a5.7 5.7 0 01-1.3-3.6c0-1.3.5-2.7 1.8-3.8a6 6 0 013.8-1.4m-.6.6c-.8 0-1.6.3-2.4 1.2-.8 1-1.1 2.4-1.1 3.4 0 1.5.5 2.8 1.4 3.6a4 4 0 003.1 1.5c1.6 0 3.4-1.4 3.4-4.4 0-1.4-.4-2.8-1.5-4-.5-.7-1.5-1.3-2.9-1.3zM66.6 40.2c.2 0 .2 0 .3-.3l.1-3.8v-1.6-2.7c0-.6-.1-.7-.9-.9v-.4l.2-.1h4.5l2.4-.1.1.2v2.1l-.2.1-.3-.1c-.2-.9-.3-1.3-.8-1.4-.4-.1-.8-.2-1.9-.2l-1.3.1c-.1 0-.2.2-.2.6-.2 1.5-.1 3.4-.1 3.6l.1.2h1.3l1.7-.1c.3 0 .4-.1.6-.9l.5-.1v1.3l.1 1.4h-.5c-.1-.4-.2-.8-.4-.9-.3-.2-.6-.2-1.9-.2h-1.4c-.1 0-.2.2-.2.6V38l.1 1.5c.1.6.5.7 1.4.7l.1.1-.1.4h-.4l-1.7-.1-1.5.1-.2-.1v-.5h.5M101 30.2l.2.2 1.4 3.8 2 4.9c.3.7.6 1 1.5 1.2l-.1.5H102.6l-.1-.4c.8-.2.9-.3.7-.9a75.2 75.2 0 00-1.1-2.3l-3.4.1c-.2 0-.3.1-.4.3-.2.3-.7 1.7-.7 2.1 0 .3.1.5.9.7l-.1.4h-2.7l-.1-.4c.7-.2.8-.5 1.3-1.3l3.2-7.5.4-1 .1-.1c0-.2.3-.3.4-.3m-1.9 6.3h2.7c.1 0 .2-.1.1-.2l-1.4-3.9-.2.1-1.6 3.9c.1-.1.2.1.4.1zM107.7 30.6l.1-.1 2.2-.1 1.6-.1c.9 0 1.9.1 2.8.7.7.5 1.1 1.3 1.1 2.1 0 1.3-1.1 2-1.7 2.3l-.1.2c.1.3.4 1.3 1.1 2.3a6.7 6.7 0 002.9 2.6l.2.2-.1.3a4.9 4.9 0 01-3.3-1.5 7.3 7.3 0 01-1.7-2.6c-.4-.7-.5-.9-1.5-.9h-.8l-.2.2.1 3.1.2.4c.2.2.9.3 1.2.3l-.1.4h-3.6l-.1-.5c.3-.1.8-.2.9-.4.2-.3.2-1.5.2-3.5v-1.9-2.8c0-.5-.1-.6-1.1-.8l-.3.1m6.3 2.6c0-1.2-.9-2.3-2.4-2.3l-1.1.2-.2.3-.1 2.7.1 1.6h.5c1.2 0 2-.2 2.5-.8.4-.4.7-1 .7-1.7zM85.5 34.4h-2.6c-.2 0-.2.1-.2.8v3.9c0 .7.1.7 1.5 1l-.1.5h-1.9a5 5 0 00-1.1.1l-.9.1-.2-.1-.1-.4c1.1-.2 1.3-.2 1.3-.9l.1-3.2v-3.7l-.1-3.5c0-.5-.1-.7-1.4-.8l.2-.5h2.6l1.4-.1.2.1v.4c-1 .1-1.3.3-1.3.5l-.1 3v1.7l.1.4 2.7.1h2.5c2.8 0 2.4 0 2.7-.1.3 0 .3-.2.3-.5l-.1-3.6c0-.7-.1-1-.2-1.1-.1-.1-.2-.3-1.2-.4l-.2-.1.1-.3 2.7.1 1.4-.1h.2l.1.3c-1.1.2-1.2.4-1.3 1l-.1 3.2v7c0 .6.1.8 1.4.9l-.1.5-.1.1h-2.9l-1 .1v-.6c.9-.1 1.1-.2 1.2-.7l.1-3.4c0-1.7 0-1.7-.4-1.7h-5.2"
      class="st0"
    />
  </g>
  <g>
    <path
      d="M20 17.3l-.3-.1h-.8l-.4.1.2.1c.2 0 .2.2.2.3v1.8c0 .2-.1.3-.2.3l-.2-.2-.6-2.1c-.1-.2-.3-.2-.4-.2h-.3l-.2.1.2.1.1.4-.2.1.1.1v.2l-.9 3.6s0 .3-.2.4l-.2.1.2.1h.7l.2-.1-.2-.1c-.2 0-.1-.2-.1-.2l.2-.7c0-.1.1-.2.3-.2h1.1c.2 0 .2.1.3.2l.1.6c0 .1 0 .2-.2.2l-.2.1.2.1h1.2l.2-.1-.2-.1c-.3 0-.3-.2-.4-.4l-.4-1.3-.1-.5h.3s.4.1 1-.1c.3-.1.5-.2.6-.4.2-.2.3-.5.3-.8-.4-.9-.8-1.3-1-1.4m-2.1 3.5h-1c-.1 0-.2 0-.1-.2l.5-2.4a74.3 74.3 0 00.6 2.6zm2-1.4c-.2.3-.3.3-.4.3 0 0-.3.1-.3-.2v-1.9-.2s0-.2.2-.1l.5.5.1.7c.1.2.1.6-.1.9zM21.9 17.1h-.6l-.1.1.2.1c.1 0 .3 0 .3.4v4.1c0 .1 0 .3-.2.3l-.3.1.2.1h1.1l.1-.1-.2-.1c-.2 0-.2-.1-.2-.4v-1.8c0-.1 0-.3.2-.3h.8c.2 0 .3-.1.3.4v1.9l-.2.2-.2.1.2.1h1.1l.1-.1-.2-.1c-.2 0-.2-.2-.2-.2v-4.3c0-.1.1-.2.3-.2.2 0 .2.1.3.3v3.5c0 .1-.1.6.7 1.2.1.1.2.1.4 0l.5-.3v.2c0 .1 0 .3.2.3h.7l.2-.1-.2-.1c-.1 0-.2 0-.2-.2v-.5-4.1c0-.1 0-.4-.2-.3h-.6l-.2.1.2.1c.1 0 .2.1.2.3v4l-.4.3s-.5-.1-.6-1v-3.4c0-.1 0-.3-.2-.4h-1.8l-.2.1.2.1c.1 0 .3 0 .3.4v1.4c0 .1 0 .3-.2.3h-.9s-.2 0-.2-.2v-1.6c0-.1 0-.3.3-.2l.2-.1-.2-.1c-.5-.3-.8-.3-.8-.3"
      class="st1"
    />
    <path
      d="M27.4 19.4l-.2.4v.2l.2-.1.1-.2.3.2c.1 0 .2.1.3-.1l.3-.5v-.2l-.2.1-.1.1s0 .1-.1 0l-.2-.1c-.1.1-.3 0-.4.2M27.3 25.5l-.2.4v.2l.2-.1.1-.2.3.2c.1 0 .2.1.3-.1l.3-.5v-.2l-.2.1-.1.1s0 .1-.1 0l-.2-.1c-.1.1-.3 0-.4.2M22.5 26.2l-.2-.1-.9-2.6c0-.1-.1-.1 0-.1l.1-.1-.1-.1h-.6l-.1.1.1.1v.1s-.4 1.6-.8 2.4c-.2.4-.3-.1-.3-.1l-.5-2.2c0-.1-.1-.2.1-.2l.1-.1-.2-.1c-.2 0-.4 0-.4.3l-.3 1.8-.4 1.5-.7-3.2v-.1l.1-.1-.2-.1h-.8l-.1.1.1.1.2.1.2.8a41.8 41.8 0 01-1.1 3.9l-.2.1.3.1h.8l.2-.1-.2-.1c-.2 0-.3-.1-.2-.3l.6-2.9.7 2.8v.5s.1.2.2.1l.2-.8.6-2.7.7 2.8c0 .1.1.4-.2.5l-.3.1.1.1H20.4l.1-.1-.2-.1c-.1 0-.3-.3-.3-.5l-.2-1c0-.1-.1-.3.1-.2h.4l.1-.1-.1-.1-.1-.1.1-.3.2-.2h.8s.2 0 .3.2l.1.3-.1.1-.2.1.2.1h.7l.1-.1.1-.3m-1.1-.9h-.6s-.2 0-.2-.2L21 24l.5 1.2-.1.1z"
      class="st1"
    />
    <path
      d="M22.8 24.1l-.3-.6-.2-.1-.1-.1.2-.1h.8l.1.1-.1.1s-.2 0-.1.1l1.1 2.1.7 1.4v-3.3l-.1-.2-.2-.1.2-.1h.6l.2.1-.2.1-.1.2v4.4c0 .1 0 .6-.3.2a70.8 70.8 0 00-1.8-3.3v3.2c0 .1 0 .2.2.2l.2.1-.2.1h-.8l-.2-.1.2-.1c.2 0 .2-.1.2-.3v-4"
      class="st1"
    />
    <path
      d="M26.3 23.2h.5l.1.1-.2.1c-.1 0-.2 0-.2.2v4c0 .1 0 .4.2.4l.2.1-.3.1h-.8l-.3-.1.1-.1c.1 0 .3 0 .3-.4v-4.1l-.1-.1-.2-.1.2-.1h.5M16.1 29.2h2.5c.1 0 .4 0 .3.2 0 .2-.2.2-.2.2l-.7-.1c-.3 0-.4.2-.4.2v4.2c0 .1 0 .2.3.3.2 0 .3 0 .3.2l-.3.1H17l-.4-.1.3-.1c.1 0 .2-.1.2-.3v-4.1s0-.2-.3-.2c-.3-.1-.7.2-.9.1-.2 0-.1-.2 0-.2l.2-.4M20.6 29.1h2c.1 0 .3 0 .2.2 0 .2-.1.2-.2.2l-.4-.1-.2.1v4.3c0 .1 0 .2.2.2s.3 0 .3.2-.2.1-.2.1h-.9c-.1 0-.4.1-.4-.1l.2-.1c.1 0 .2 0 .2-.3v-4.2c0-.1 0-.2-.2-.2h-.9c-.1-.1 0-.1 0-.2l.3-.1"
      class="st1"
    />
    <path
      d="M23.3 29.1h1.2l.3.1c0 .2-.1.3-.2.3l-.2-.1h-.8l-.1.2v.5l.1.2h.5l.1-.1.1-.2.1.2v.8l-.1.1-.1-.1-.1-.2h-.5l-.1.2v1.2l.1.1h.4l.1-.1.1-.2v.6l-.1.2-.1-.1-.1-.2h-1c-.1 0-.3.1-.3-.1l.1-.2.1-.1v-2.5c.2-.2.1-.5.5-.5"
      class="st1"
    />
    <path
      d="M24.2 33.4l-.3.6c-.2 0-.2.1-.2.2l.2.1h.8l.2-.1-.2-.1c-.2 0-.2-.2-.2-.3l.6-3 .8 2.9v.3l.1.2c.1.1.1 0 .1-.1v-.4l.6-3 .9 3.1c0 .2-.2.2-.3.2l-.2.1.4.1h.9l.2-.1-.2-.1c-.2 0-.2-.1-.2-.2l-1.1-4.2c-.1-.3.1-.4.2-.5.1-.1 0-.1 0-.1H27c-.2 0-.2.3-.2.3l-.6 3.1-.4-1.8-.4-1.5h-.5l-.1.2.1.5-.7 3.6M21.2 32.5l-.2-.2-1.1-3-.2-.2h-.4l-.1.1.1.1.1.1-1 3-.2.1-.2.1.2.1h.6l.2-.1-.1-.1-.2-.1.2-.8.2-.1h.9l.2.1.2.6-.1.1-.2.1.2.1h.7l.1-.1.1.1M20 31.3h-.8l-.1-.1.4-1.4a5 5 0 01.5 1.3c.1.2.1.2 0 .2zM12.9 39.2c.6-.5 1.2-.4 1.2-.4-.7-.3-1.2.4-1.2.4m19.9-1c-.3-.2-.8 0-.8 0 .4-.1.8 0 .8 0zm-1.2-1a2 2 0 01-.7.7c.5-.1.7-.7.7-.7zM15 38s-.6-.6-.8-1.2c0 .1.1.7.8 1.2zm5.2 2.3s-1.3-1.9-1.3-3.9c.1.1-.2 2.1 1.3 3.9zm-3.7-.7h-.2.2zm-2.4.7c.9-.5 1.8-.7 2.2-.7-1.6 0-2.2.7-2.2.7zm-1.3-3.1s.2.6.7.7c-.1 0-.5-.2-.7-.7zm-1.3 1l.9-.1c0 .1-.5-.2-.9.1zm4.9-1.8s0 1.8 1.1 2.6c0 0-.9-.8-1.1-2.6zM28 39.6c.4 0 1.3.1 2.2.7 0 0-.5-.7-2.2-.7zm2.1-2.7c-.2.5-.8 1.2-.8 1.2.8-.6.8-1.2.8-1.2zm1.3 2.3s-.5-.6-1.2-.4c0 0 .7-.1 1.2.4zm3.3-.2h.1l-.1-.1c-1.2-1.5-2.1-1.6-2.4-1.6V37c0-.6-.3-1.3-.3-1.4v-.1l-1 .9v-.1c0-.6-.4-1-.4-1h-.2c-.6.4-1.2 1.1-1.5 1.4l-.2-1c-.2-.5-.7-.8-.7-.9h-.1c-.7.7-1.3 1.6-1.6 2a2.9 2.9 0 00-1.5-2.2h-.1v.1s-1 1.2-1.6 2.7l-.2 1.4.3 1.7-.1.2-.4.2-.8-.1h-1l-.4-.3-.1-.2.3-1.5c0-1.8-1.2-3.4-1.6-4l-.2-.3h-.1a3.4 3.4 0 00-1.5 2.1c-.5-.9-1.5-1.9-1.5-1.9l-.1-.1-.4.3c-.4.5-.4 1-.4 1.4v.1L13.4 35h-.1l-.1.1c-.4.3-.4.8-.4 1.1l-.9-.8-.1-.1v.1l-.3 1.3v.3c-1-.1-2.3 1.5-2.4 1.5l-.1.1h.1l1.8.2-1.1.9h.2c.8.2 1.9.1 2.3.1l-.6.8.3.5h.2l1.1.1c.8.1 1.6 0 2.1-.1l-1.2 1.1-.1.1.9.2V45c1.5-.8 3.8-1.3 4.5-1.5l-.6.6c-.1.1-.4.4-.4.6v.1c.1.2.7 0 .9 0l1.1-.4 1.3-1.2h.8l1.2 1.1 1.1.5c.2.1.7.4.9.2v-.1l-.4-.7-.6-.6c2.3.4 4.5 1.5 4.5 1.5l.1.1v-2.6l.8-.2-.1-.1-1.2-1.1 1.3.2 2.1-.1-.1-.3-.6-.7c.9.1 2.2-.1 2.3-.1h.2l-1.1-.9h.1l1.6-.3zm-21.8 1.8s1.1-1.3 2.2-1.6h1.2l.8.2-.4-.2-1.3-.4h-.6c-.2.1-.3 1.4-3.3 1.1l1.3-1c.5-.3 1-.3 1.4-.2l.5.1-.9-.2-.9-.1-.8.3c-.5.2-1.6 0-1.6 0 1.6-1.7 2.2-.7 2.3-.6l.5.1h.4c.2 0 0-.1-.1-.1s-.4 0-.8-.5c-.4-.4-.1-1.4-.1-1.4 1.8 1.6 1.1 1.6 1.2 1.9 0 .1.1.2.3.2l1.1.2c.1-.1-.2-.2-.2-.2s-.7-.1-1-.8c-.5-1.2-.2-1.7-.2-1.7 2.5 2.1 1.6 2.5 1.7 2.7l.2.2h.1l1.9.6c.1 0 0 0 0 0l-.4-.3s-.8-.4-1.2-1.3c-.7-1.8.1-2.4.1-2.4 2.6 2.8 1.6 3.8 1.8 4l.1.1h.1l2.1 1c.1.1 0 0 0 0l-.1-.1a5 5 0 01-1.7-2c-.8-2.3.8-3.3.8-3.3 2.4 3.1 1.1 4.9 1.2 5.3l.2.4.1.1h-.5c-.9-.6-1.8-1-2.6-1.3h-.5c-.3 0-.8 1.5-4.4 1.2zm2.9-2.4l.1-.2.1.2h-.2zm2.4.8V39l.1.2c.1.2-.1 0-.1 0zm.1 1.1l-.8-.1-.7.1.4-.4h.3l.8.4zM14.8 42s1.4-1.3 2.3-1.5c1.1-.2 2.1.3 2.7.5 0 0-1 .1-2.1.5-.9.2-2 .7-2 .7l-.9-.2zm5.6 2.1l-1.4.5 1.3-1.2s.9-.2 1-.1l-.9.8zm4.9.5l-1.3-.5-.9-.9 1.1.2 1.1 1.2zm-3.1-1.8c-3.3-.1-6.9 1.5-6.9 1.5v-1.6s3-1.6 6.9-1.6c3.9 0 6.8 1.6 6.8 1.6v1.6c-.3 0-3.5-1.4-6.8-1.5zm7.4-.8l-.9.1-1.9-.7-2.1-.5c.6-.2 1.5-.7 2.6-.5.9.3 2.3 1.6 2.3 1.6zM26 40.3l.8-.4h.2l.4.4H26zm3.8-1.7c.1.1.2 0 .5-.1.4-.1.9-.1 1.4.2l1.3 1c-3 .3-3-1-3.3-1.1h-.6l-1.3.4-.4.2.8-.2c.3-.1.7-.2 1.2 0 1.1.3 2.2 1.6 2.2 1.6-3.6.3-4.1-1.1-4.2-1.2H27h-.1L24.1 41h-.5l.1-.1.2-.4c.1-.3-1.2-2.1 1.2-5.3 0 0 1.6 1.1.8 3.3a5 5 0 01-1.7 2l-.1.1s-.1.1 0 0l2-1h.1l.1-.1c.2-.3-.8-1.2 1.8-4 0 0 .8.6.1 2.4-.3.9-1.2 1.3-1.2 1.3l-.4.3s-.1 0 0 0l1.9-.6h.1l.2-.2c.1-.2-.8-.6 1.7-2.7 0 0 .3.5-.2 1.7-.3.7-1 .8-1 .8s-.3.1-.2.2l1.1-.2.3-.2c.1-.3-.6-.2 1.2-1.9 0 0 .3 1-.1 1.4-.4.4-.8.4-.8.5l-.1.1h.4l.5-.1c.1-.1.8-1.1 2.3.6 0 0-1.1.2-1.6 0l-.8-.3-.9.1s-.2-.2-.8-.1zm-3.7.7l-.2.1.1-.2.1.1zm2.4-.9h-.2l.1-.2.1.2zm-.7 1.2h.2-.2zm-2.4-3.1c0 1.9-1.2 3.8-1.3 3.9 1.6-1.9 1.3-3.9 1.3-3.9zm2.5-.1c-.2 1.8-1.1 2.6-1.1 2.6 1.2-.7 1.1-2.6 1.1-2.6z"
      class="st1"
    />
    <path
      d="M13.4 28.2c.3-.1.8-1.1.8-1.1l-.3-.4c-.2-.3-.8-3.3-.8-3.4l-.1-2v-3.2c.1-.6-.2-1.1-.2-1.1l-1 .1c-.5.1-.4-.7-.4-.7l.3.1c.2-.1.3-.5.4-1.4l.1-2.1c0-.4-.6-.3-.6-.3l-2 .4c-.2.9.7 2.8.7 2.8l-1 1.6-1.9.5c-.2 0-.5.8-.8 1.6l-1.1 4.2.5.7.2 3.4 1.5-.1.1.4.5.2c.1.2-.9 4.4-.9 4.4s-.3.5.3 3.1c.5 2.6.3 2.7.3 2.7l1.4 1.3c.4.3.5.2.6.1l.4-.4c.2-.2.1-.3.1-.3l-.8-.7c-.4-.6-.4-.9-.6-2.2-.2-1.3.6-3.6.6-3.6.6-.1.7-1.1.8-1.4l.5-1c-.2 1.4.9 5.5.9 5.5l1.4 1.1.1-1.6s-.4-2.9-.3-3c.2-.1.3-4.2.3-4.2m-1.8-4.1l.1-2.6.4-1.7c.1-.2-.2-1.3-.4-1.7l.3-.5.4.2c.2.4.2 1.8.1 2.2v1.2l-.3 2.6-.2.5s-.5.2-.4-.2zm-1.1-10.5l1.4-.2s.1 1.8-.2 2.6c0 0-.8-.1-.9-.5 0 0-.4-1.8-.3-1.9zm.2 2.4c0 .6.8 1.5.7 1.6l-.7-.2h-.8l.8-1.4zM6.6 27.4l-.1-2.2 1.1 2.1-1 .1zm1.5.6l-.2-.4-.1-.4L6 23.6c0-.1 1.3-5.3 1.6-5.4l1.1-.1 1-.5h.6c.2 0 .8.4.9.6l.2 1.5-.5 4.7c-.3.1-.5.1-.8 0 0 0-.1-1.1-.5-1.1-.7 0-.7-.5-.7-.7l-.2-1.1c.2-.7.2-1.5 0-1.7-.1-.2-1.7 3.1-1.8 3.2h-.3l1.5 3.9.5.7c.2.2 1.1.1 1 .2l-.7.4s-.8 0-.8-.2zm1.3-3.9L7.8 24c-.2 0-.2-.3-.2-.3h1.9c.3 0 .3.3.3.3l.1 3.1-.1.3-.1-.2-.1-2.7c0-.3-.1-.3-.2-.4zm0 3.2l-.5-.2-.4-.5-.7-2.3h1.4l.2 3zm-1.9-3.9c-.2 0-.1-.2-.1-.2l.6-1.1a44.7 44.7 0 00.1 1.3h-.6zm2.5 16c.3.2-.3.4-.4.3-.1-.1-1.2-1-1.2-1.2V38c.1 0 .2.4.6.2.1-.1.3.6 1 1.2zm3-2.8l-.6-.5-.4-3.2c-.2-1 .3-1.7.1-3.1-.1-.6-.6-1.4-.6-1.5 0-.4.5-.6.5-.6s-.6-.4-.6-.1l-.7 2.3-.6 1.4c-.1.2 0 .9-.6 1.2l-.3.6c-.8 1.7-.4 4.5-.5 4.7-.1.2-.3 0-.3 0-.2-1.7-.6-3.3-.5-4.5l.3-1.8c.1-.9.6-2.3.6-2.3l.3-.3.6-.3c.1-.1.3-.6.6-.6s0-2.4 0-2.4v-.7h1l.7-.2a17.8 17.8 0 01.8 3.4v3.8l-.1 1 .4 3.1-.1.6zm-.2-11.7l-.1-1.2v-1.1s.3 3.3 1 4.6l-.3.3c0 .2-.4-1.1-.6-2.6zM38.7 31.5l-2.1-1.6.3-4.3-.2-2 1.7-1.3c-.7-3.8-1.5-4.8-1.5-4.8h-1.1c-.7-.2-.8-.7-.8-.7.7-.5.7-1 .7-1-.8-.6-.7-2-.8-2.1l-1.3-.4s-1-.3-1.4.1c-.4.4-.2.7-.2.7.1 1.8.8 2.5.8 2.5.3.1.7-.1.7-.1v.5c0 .5 0 .6-.3.8L32 18l-.4 2.5c-.4 2.5-.8 3-.8 3h-.2c-.5 0-.4.3-.4.3l-.3 4.2.5.1h1.1c-.3 1.3-.4 3.8-.5 4.8 0 1.3.6 1.6.6 1.6l.2 1.1v.2l-.1 1.7h.9l.5-2.8c1.3 0 2.4-.5 2.4-.5.4 1 .2 3.1.2 3.1s-.4.4-.5.8l-.4.7-.2.2c.2.4.5.4.5.4l.5-.1.9-.9c.5-.5.3-.6.3-.6l-.2-.8c.6-2.4.7-4.3.7-4.3l1.4-1.2m-4.8-14l-.1-.7v-.4l.4.2c1.3.8 0 .8-.3.9zm-.8-1.4s-.6-.9-.6-2.3c0 0 1-.2 1.5.3 0 0-.1.7.3.3.1-.1.2.2.3.3.1.2 0 .5-.1.5-.1.1-.3-.2-.3.1 0 .3-.2.5-.2.5-.1 0-.8.4-.9.3zm.2 2l.8-.2 2.4-.1c.3.1 1.4 3.5 1.3 4 0 .5-2.8 2.3-2.8 2.3l-.4.3-.3.4-.6.3-.3-.2 1-1.1c.7-.6 1.4-1.3 1.8-1.5l.7-.5-1.2-3c-.1-.1-.2-.3-.3-.1-.1.2-.2.8-.1 1l.8 1.1c.1.3.1.9-.1 1l-.9.9-1.7 1.4h-.5c0-.2.2-.5.2-1.1 0-1.8 0-1.9-.5-2.4-.3-.2-.2-.9-.1-1.2.4-.5.5-1.2.8-1.3zm-.8.3l.5-.2c-.4.3-.8 1.3-.8 1.3.1-.8.2-1.1.3-1.1zm-.6 3.7l.2-1.6s0 .4.3.7c.2.2.4.2.2 1.3l-.2 1.2-.8-.1.3-1.5zm-1.5 5.5h-.2l.4-3.4c.1-.3.1 0 .1 0l-.3 3.4zm.4.1l.4-3.7h1l-.5 3.7h-.9zm1.7 9.3v.3c-.1-.1-.5 0-.4-.1l.1-1.2v-1.3h.6l-.3 2.3zm3-3.5c-.4.1-1.3-1.2-1.4-2.4-.3-1.8-.2-2.7-.2-2.7 0-.2-.3 1.6-.2 2.7.2 1.8.8 2.6.8 2.6l-1.1.2h-1.2c-1.5-.4.8-9.1.9-9.2.1 0 .2-.1.2 0l-.1.4c-.1.2.4.4.5.4.1.1.7 0 .8-.1l.8-.5c.1-.1 1.1.6 1.1.6.4.3-.2 2.8-.2 3.7 0 .9-.3.3-.3.3l-1-3.2.5 3.4c0 1 .9 1.2 1.1 1.2l1.1.2c.2 0 .4.1.2.4-.4.5-1.9 1.9-2.3 2zm.8 3.1c-.1.4-.1.7.1.7.1 0 .2.3.1.5l-.4.3c-.1.1-.4.8-.6.8-.2 0-.5 0-.4-.1l.9-1.6.1-1.5-.1-1.6c.4 0 .9-.9.8-.6.1.3-.3 2.4-.5 3.1z"
      class="st1"
    />
    <path d="M32 25.7s-.3 2-1.1 2.1l.8.2c.3-.1.3-2.3.3-2.3" class="st1" />
    <path
      d="M39.1 2.9c1.2.5-14.3-6.7-33.1-.1 0 0-6.1 5.9-6 22.9.1 15.9 5.8 23.7 5.8 23.7s16.1 4.7 33 0c0 0 5.3-6.6 5.3-23.8 0-17.3-5-22.7-5-22.7m-.8 45.6c-15.8 4.6-31.9 0-31.9 0S1.2 40.8 1 25.7C.7 9.9 6.6 3.6 6.6 3.6c18.1-6.1 31.9.1 31.9.1s4.7 6.7 4.6 21.9c-.2 16.8-4.8 22.9-4.8 22.9z"
      class="st1"
    />
    <path
      d="M41.7 25.7C41.8 10.9 37.3 5 37.3 5 21.7-.8 7.5 4.9 7.5 4.9S2 10.3 2.1 25.7a37 37 0 005.2 21.1c17.1 4.2 29.7 0 29.7 0 5.1-8.9 4.7-21.1 4.7-21.1m-5 20.8s-12 4.1-29.2 0c0 0-4.7-6.1-5-20.7C2.2 11 7.7 5.3 7.7 5.3S21.6-.3 37 5.5c0 0 4.3 5.6 4.2 20.3 0-.1.2 13.1-4.5 20.7z"
      class="st1"
    />
    <path
      d="M16 11.4l.3-4.3 2.6 3.7 1.2-4.4 2.1 4.2 2-4.3 1.2 4.5L28 7.1l.4 4.2L31.3 8l-.7 4.9h-.8l.9-3.6-3.1 3.6.1-4.8-2.9 4.1-.7-4.7-1.9 4.7-2-4.7-.7 4.7-2.9-4.1.2 4.7-3.2-3.6 1 3.7h-.8l-.7-5 2.9 3.5M17.5 36.6h.5l-.1.5h-.2l-.2-.5"
      class="st1"
    />
    <path
      d="M14.9 15.6v21.3h.4l.2-.3V16.1h13.3v19.2l.3 1.6h.3V15.6H14.9"
      class="st1"
    />
    <path
      d="M26.4 36.6h.5l-.4.7-.1-.4v-.3M20.4 36.6h3.5l-.1.5h-3.3l-.1-.5M17.5 13.7c0 .2-.2.4-.4.4a.4.4 0 01-.4-.4c0-.2.2-.4.4-.4s.4.2.4.4M14.9 14.4c0 .2-.2.4-.4.4a.4.4 0 01-.4-.4c0-.2.2-.4.4-.4s.4.2.4.4M20 13.3c0 .2-.2.4-.4.4a.4.4 0 01-.4-.4c0-.2.2-.4.4-.4s.4.2.4.4M22.6 13.2c0 .2-.2.4-.4.4a.4.4 0 01-.4-.4c0-.2.2-.4.4-.4s.4.2.4.4M25.2 13.3c0 .2-.2.4-.4.4a.4.4 0 01-.4-.4c0-.2.2-.4.4-.4s.4.2.4.4M27.7 13.7c0 .2-.2.4-.4.4a.4.4 0 01-.4-.4c0-.2.2-.4.4-.4.3 0 .4.2.4.4M30.3 14.4c0 .2-.2.4-.4.4a.4.4 0 01-.4-.4c0-.2.2-.4.4-.4s.4.2.4.4"
      class="st1"
    />
  </g>
</svg>
