<svg xmlns="http://www.w3.org/2000/svg" viewBox="0 0 168.5 170.4">
  <style>
    .st10,
    .st6 {
      fill: #231f20;
    }
    .st10 {
      fill-rule: evenodd;
      clip-rule: evenodd;
    }
    .st11 {
      stroke: #1e1c05;
      stroke-width: 0.416;
    }
    .st11,
    .st12 {
      fill-rule: evenodd;
      clip-rule: evenodd;
      fill: #fff6a9;
    }
    .st16,
    .st17,
    .st20 {
      stroke: #1e1c05;
      stroke-width: 0.4028;
    }
    .st16 {
      fill-rule: evenodd;
      clip-rule: evenodd;
      fill: #fff6a9;
    }
    .st17,
    .st20 {
      fill: none;
    }
    .st20 {
      fill-rule: evenodd;
      clip-rule: evenodd;
      stroke-width: 0.416;
    }
    .st23 {
      fill: none;
      stroke: #231f20;
      stroke-width: 0.4421;
    }
    .st27,
    .st33 {
      fill-rule: evenodd;
      clip-rule: evenodd;
    }
    .st27 {
      fill: #fff6a9;
      stroke: #1e1c05;
      stroke-width: 0.2601;
    }
    .st33 {
      stroke: #231f20;
      stroke-width: 0.1255;
    }
    .st35 {
      stroke: #005a25;
      stroke-width: 0.2601;
    }
    .st35,
    .st36,
    .st38,
    .st42 {
      fill-rule: evenodd;
      clip-rule: evenodd;
      fill: #00a84f;
    }
    .st38,
    .st42 {
      fill: #00a551;
      stroke: #231f20;
      stroke-width: 0.104;
    }
    .st42 {
      fill: #f2937d;
    }
  </style>
  <linearGradient
    id="SVGID_1_"
    x1="14.4"
    x2="153.6"
    y1="23.1"
    y2="148.5"
    gradientUnits="userSpaceOnUse"
  >
    <stop offset="0" stop-color="#fff" />
    <stop offset=".2" stop-color="#fdfdfd" />
    <stop offset=".3" stop-color="#f6f6f6" />
    <stop offset=".3" stop-color="#ebeaeb" />
    <stop offset=".4" stop-color="#dadada" />
    <stop offset=".4" stop-color="#c5c4c4" />
    <stop offset=".4" stop-color="#aaa8a9" />
    <stop offset=".5" stop-color="#8a8889" />
    <stop offset=".5" stop-color="#656263" />
    <stop offset=".5" stop-color="#3d393a" />
    <stop offset=".5" stop-color="#262223" />
    <stop offset=".6" stop-color="#444142" />
    <stop offset=".6" stop-color="#706d6e" />
    <stop offset=".6" stop-color="#969495" />
    <stop offset=".7" stop-color="#b7b6b6" />
    <stop offset=".7" stop-color="#d1d0d1" />
    <stop offset=".8" stop-color="#e6e5e5" />
    <stop offset=".8" stop-color="#f4f4f4" />
    <stop offset=".9" stop-color="#fcfcfc" />
    <stop offset="1" stop-color="#fff" />
  </linearGradient>
  <path
    fill="url(#SVGID_1_)"
    fill-rule="evenodd"
    stroke="#231f20"
    stroke-width=".4"
    d="M168.3 85.2c.3 46.9-4.8 85-84 85-46.4 0-83.3-3.8-84-85-.7-78.6 37.6-85 84-85s83.5 8.1 84 85z"
    clip-rule="evenodd"
  />
  <linearGradient
    id="SVGID_2_"
    x1="17.2"
    x2="150.9"
    y1="25.6"
    y2="146"
    gradientUnits="userSpaceOnUse"
  >
    <stop offset="0" stop-color="#fff" />
    <stop offset=".2" stop-color="#fcfdfd" />
    <stop offset=".2" stop-color="#f4f4f4" />
    <stop offset=".3" stop-color="#e6e6e7" />
    <stop offset=".4" stop-color="#d1d2d3" />
    <stop offset=".4" stop-color="#b7b8ba" />
    <stop offset=".5" stop-color="#97999b" />
    <stop offset=".5" stop-color="#7a7c7f" />
    <stop offset=".6" stop-color="#9a9c9e" />
    <stop offset=".6" stop-color="#b9babc" />
    <stop offset=".7" stop-color="#d3d4d5" />
    <stop offset=".7" stop-color="#e7e7e7" />
    <stop offset=".8" stop-color="#f4f5f5" />
    <stop offset=".9" stop-color="#fdfdfd" />
    <stop offset="1" stop-color="#fff" />
  </linearGradient>
  <path
    fill="url(#SVGID_2_)"
    fill-rule="evenodd"
    stroke="#231f20"
    stroke-width=".8"
    d="M165 85.2c.3 45.1-4.6 81.6-80.7 81.6-44.6 0-80-3.7-80.7-81.6C2.8 9.7 39.7 3.6 84.3 3.6c44.5 0 80.2 7.7 80.7 81.6z"
    clip-rule="evenodd"
  />
  <path
    fill="#f2937d"
    fill-rule="evenodd"
    stroke="#231f20"
    stroke-width=".5"
    d="M147.2 84.2c.4 47.5-3.8 63.8-64 64.3-42 .4-60.6-2.1-62.2-64.2C19.5 23.6 38.4 22 85.3 21c42-.9 61.4 4.9 61.9 63.2z"
    clip-rule="evenodd"
  />
  <path
    fill="#00a551"
    fill-rule="evenodd"
    d="M29 52.4l20.3-13.7 2.5-1L67.7 24l2-1.8 6.4.3 5 20.3.9-2.2 1.5-1.1.4-5 4.7-12.8 10.8 2.5 13.4 13.3 2.6.7 13.2 1.2 9.3 18.2 1 5.6.6 1.6 1.4 1.9.7 7.2-4.1-4.1.8-2.8-1.4-1-1.2 1.8-1-1.4-1.7 5.1 1.3 2.2 9.4 12.5-10-.3-1.8-3.7-1.8-.3-2.3-.1-1.4 7.9.9.8 10.1 10.7.5 4.9-.3 1 .9.1 4.3 6.8-3.4 6.8-4.6-5 .7-1.6-1.4-.5-11.9-10 .3-3.9-1.2.7-2.1-.3-14.9-11.7h-2.7l-13-.9-22.8.4-4.1.3-10.6 16.1-2.1 1-2.1.5-8.2 13.2-4.1-3.8-1.4.1-1.5 1.5.3-2.9.2-2.4 1.7-11.2 7.8-5.2 2.1-1.4-8.3-16.1-2.5.1-11.6 11.4-.3-10.3 3.2-9.1 4.9 1.1 1.9-2.3z"
    clip-rule="evenodd"
  />
  <path
    fill="none"
    fill-rule="evenodd"
    stroke="#231f20"
    stroke-width=".4"
    d="M147.2 84.9c.3 46.3-4.5 63.8-63.4 63.9-42 0-61-1.6-62.6-63.8C19.7 24.3 39 22.8 85.9 21.8c42.1-1 60.9 4.8 61.3 63.1z"
    clip-rule="evenodd"
  />
  <linearGradient
    id="SVGID_3_"
    x1="102.3"
    x2="81.8"
    y1="-11.7"
    y2="98.2"
    gradientUnits="userSpaceOnUse"
  >
    <stop offset="0" stop-color="#fff100" />
    <stop offset="0" stop-color="#fff100" />
    <stop offset=".2" stop-color="#fdea04" />
    <stop offset=".4" stop-color="#f9d610" />
    <stop offset=".7" stop-color="#f2b524" />
    <stop offset="1" stop-color="#e9893e" />
  </linearGradient>
  <path
    fill="url(#SVGID_3_)"
    fill-rule="evenodd"
    stroke="#231f20"
    stroke-width=".1"
    d="M32.9 135.9c-.1-.1-3.5-5.2-4.2-6.7-3.3-8.8-6-18.8-6.7-27.7.9.5 1.7 1.6 2.2 2.6a365 365 0 018 9.5l.5.9c-.4.4-.5.8-.4 1.3.3 0 .6-.4.8-.5.7 0 2.3 1.7 2.5 2.6.9.7 1.6 1.6 2.1 2.6 1.2.5 4.5 5.6 4.4 5.6 0 .5-9.1 9.7-9.2 9.8zm109.3-8.4l1.2-3.3c1.2-4.8 2.4-9.6 2.8-14.6l.7-9.2c-.2 0-.7.5-.8.6l-6.2 7.9v.7l-.6.2c.2.5 1.3 1.7 1.3 2.2l-.6 1.1c.3.4 1 1 1 1.4l.8.9v.3l.3.3v.5h-.5c-.8-.9-2.9-4.5-4.2-4.5-.1.6.2 1.1.6 1.6l.1 1.3c-.8-.2-1-1.1-1.5-1.5v.7l-1 .2-3.9 5.1c-.9.9-4.1 4.3-4.1 5.4a50.1 50.1 0 017.2 7.2c.8.8 2.1 2 2.6 3 .2-.3 4.1-6.8 4.8-7.5zm-99.1-2.6c2.7-2.1 5.3-4.1 8.2-6h.3l.1-.3c1-.5 1.9-1.1 3-1.5-.6-2.4-2.6-5.5-3.7-7.8-.6-.6-1.8-4.5-2.7-3.6h-.8l.5-2h-.3c-.5.8-.5 1.8-.8 2.8l-.7-.1.1-1.9h-.2c-.3.8-.4 1.6-.6 2.5l-.5.4-1.4 2.8-.7-.3-.7 1.6-.3-.2.5-2.6c-.5 0-.9 2.4-1.1 2.9l-.3.2v-.8c-.3 0-1.2 3.1-1.2 3.6-.4.1-.7.3-.8.7h-.3c.1-.6.1-1.2-.3-1.7-.5 1-.6 2.6-1.9 2.6-.3-.7 1.3-3.5 1.4-4.1l-.4.2-1.5 3.2a.5.5 0 00-.5-.3l1-2.2c-.4.3-.8.7-1.1 1.2-.7 0-.8.2-1 .6l.2 1.2 4.2 4.5c1 1.7 2.7 3.2 3.9 4.9.2-.5.3-.5.4-.5zm84.2-1.7l7.3-9.4c-.1-.8 0-1.4-1-1.4-.6-1.4-1.5-8.5-2.5-8.5 0 2.8 1.9 5.4 1.9 8.2-.9 0-.8-.2-.9-1.1-.9-.6-1-1.7-1.3-2.7-1-.3-1-.3-1.2-1.3l-.9.1-.7-2-.2.8-.6-.1-.5-2.2-.6-.3c-.2-.7-.3-1.6-1.1-1.5l-.6-1.5c-.2.1-.8.1-1.1-.2-.2.3-.6-.1-1-.2-2.5 5.2-5 10.8-7.7 15.8v.7c.8.4 1.6.7 2.2 1.2a171 171 0 015.7 3.4c.3.4 3 2.3 3.7 2.9.5-.5.8-.6 1.1-.7zm-65.4-9.5c1.9-1.2 4.9-1.6 7.1-2.5v-.7c-.7-2.9-1.2-5.9-2.2-8.5-.8-4-2.2-9.5-3.2-13.6-1.4 0-2.4.7-3.7.7l-.7 2.8h-.7c-.1.5-.9 1.3-1.4 1.3-.3-.8 0-1.6.2-2.6h-.2c-.4 1.7-1.3 3.9-1.3 5.8l-.6.7-.3-.4.3-1.2-.7-.3c-.1.4-.4.5-.6.8l-.3-.2c-.4 1-.7 2.5-1.5 3.1l-.2 1.1c-.8.6-1 .7-1 1.7l-.9 2.4-.3-.2.9-3.6h-.3c-.3 1-.5 1.5-.5 2.5h-.2a5 5 0 00-.4 2.1c1.1 1.7 1.8 3.9 3 5.7l3.1 6c2.2-1 4.3-2 6.6-2.9zm52.2 1.9l4-8.5 3.3-6.6c-.2-.8-.5-4.1-1.1-4.1l-.4-1.3c-.5 0 .2 2.6.2 2.6-1 0-.9-1.2-1-2l-1.1-3.3h-.3v.3l-.7.2-.9-3.8-1.3-3.9c-.1-.5-.3-1.9-.9-2.1v.7c1 2.3 1.7 5.3 2.3 7.7l-1.3.3c-.9-1.9-1.6-3.6-2.2-5.7-.4.4.4 2.1.4 2.8-.2 0-.2.1-.3.2-.8-1.4-1-3.2-1.5-4.7h-.3l.4 2.3-1.1.3v-.3l-.4.5c-.5-.2-.6-1.1-.8-1.5-.1 1.1.2 2.6-.7 3.3a46 46 0 00-3.6-.2l-.8 1.8-1.4 6.4c-1 4.3-2 9.5-2.9 13.9.2.4.6-.1 1 .2 4.3 1.6 8.8 2.8 12.9 4.8.2-.3.3-.3.5-.3zm-80.7-4.5l.7-.6h-.7v-.8c.4-.4 2.5-2.3 3.2-2.3v-.3l-2.2.8.1-.4c.5-.3 1-.9 1.7-.9 0-.4-.9-.2-1.1-.2l.1-.5 1.3-.6c1.3-1.1 2.6-2.2 4.1-3a.2.2 0 01-.2-.2c-1.5.7-3.1 1.8-4.6 2.6l-.7-.2 4-2.6-1.2.2c-.4-.8 1.2-1.1 1.5-1.2.2-1.1.1-1.1 1.1-1.7-.3-.1-.5-.2-.5-.6l2.2-1c.2-.5 0-.6.5-1-.3 0-.6 0-.8-.3.2-.4.5-.7.9-1l.2-.9-.6-1.6c-1.1-1.7-2.2-4.2-3.1-6l-5.5-11.1c-1-.4-1.8 2.6-2.1 3.1h-.4c-.3-.7.3-1.4.3-2.2l-.7 1.2h-.3v-.5c-.6 0-1.1 1.7-1.2 2.1l-.7.5-.3-.6c.2-.9.5-1.6.8-2.3H29c-.7 1.3-2.5 4.1-2.5 5.6H26c-.4-.9 1.2-3.5 1.4-3.9h-.3c-.7 1.1-2.6 6.1-3.5 6.1v-.5c.7-1.4 1.6-3 1.9-4.6l-2.1 2.5-.2-.1-.1-.7c.3-.6 1.6-2.8 1-3.4v-.6c1-.8 2.2-1.7 2.2-3l.4-.7c1.2-1.2 2.8-2.7 3.6-4.1l-2.6-5.4-4.5-8.4-.6 2.6a178.4 178.4 0 00-1.4 36.5l.4 4.6.3.1a587 587 0 017.3 9.2c.2.3 1 1.6 1.3 1.6.3.6 1 1.3 1.5 1.9.7-.3 1.1-.6 1.4-1.2zm46.1-1.8c1.5-.2 7.2-.2 8.9-.3-.1-2.7-2.8-5.3-4.1-8a139 139 0 01-2.8-5.4l-1-3.6-.2-4c-5.2.1-15.9 0-15.9.2l.6 2.9c.1.3.1.5.3.7 1.2 6.3 3.2 12.5 4.5 18.7l.3.4c3-.6 6.2-1.2 9.4-1.6zm20.1.6c1-6.6 2.7-15 4.2-21.5-5.2.1-10.3-.7-15.4-.6-.9 1.8.9 6.7 1.8 8.4 1.1 2 3 5.7 5 7 1.3 1.9 3.1 3.5 4.2 5.5 0-.1 0 1.2.2 1.2zm43.1-6.2c.3-1.2 2.5-2.4 2.7-3.6.5-.5 1.2-.8 1.5-1.5l.2-13.5c-.3-5.1.3-10.1-.6-15.2l-1.9-14.7c-1.2 2.5-3.6 5.6-4.8 8.2-.2.4-.4.9-.4 1.3l1.1 4.1c.3.3.5 1.2.2 1.5l.1 1.2c-.8.4-1-1.1-1-1.5l-.4-.3c-.3-1-.5-2.3-1.1-2.9l-3.4 7.3c0 1.2 1.6 2.2 2 3.4 1.3 1.8 3.9 5.6 4.1 8l-1-.4-.8.3c-.2-.7-.4-2-1.2-1.2.1.4.4 1.6 0 1.6l-.8-1.6-.2.3-.5-.1c-.6-1.1-1.1-2.3-1.8-3.4l-1.1-3.5h-.3c0 2 2.1 4.1 2.1 5.9-.3.2-.5-.1-.7-.3l-3.2-8.1c-.1-.4-.2-.8-.5-1.1 0 1 .9 4.5 1.5 4.5V80c.4.7.7 1.4.7 2.2l-.4.1-.8-2-.2.2V82l-.6.3c-1.7 2.3-2.2 5.7-4.1 7.7v.3c.2.2.6.6.6.9l-.8-.1.1.5c1 1 2.1 2 3.1 3.2 0 1.4 2.3 3.5 3.3 4.6l.2 1.1c.7.3 2.2 1 2.2 1.7l-1.2-.3 2.6 2.3.8 1-.1.7-.6-.1c-.3-.4-1.4-1.9-2.1-1.9l.1.4c.8.6 2.2 1.5 2.2 2.6l.7.8h.2l.7.8c1.4-1.3 2.1-3.6 3.6-4.8zm-98.3-9.9v-.7c1-.7 1.4-1.6 2.6-2l-.1-.6c.6-.5 1.2-.9 1.9-1.2l-.3-1c-.3-.1-.6-.1-.3-.6l5.4-3.6c-.9 0-1.6.6-2.3 1l-.1-.4c.4-.5.8-.7 1-1.3l3.9-2.5c.5-.5.7-1.6.8-2.2a3 3 0 01-1.1-1.1c-.6.5-.8 2.7-1.4 2.7 0-1.6.9-3.5 1.1-4.9-1.5 0-1.2 2.9-2 3.6h-.3c-.3-1.1.5-2.5.8-3.6h-.3l.1-1.3-.7 1.5-.5-.1.4-1.6h-.5c-.5 1.3-1.1 2.7-1.4 4.1l-.9.1c-.3-.7.3-1.4.6-1.9v-.8c-.7.9-1 2.1-1.3 3.2h-.4c.1-1.1.4-1.9 1-2.8.1-1.2.8-2.2 1-3.4l-.7.2-.7 1.9c-1 .7-.6.7-.6 2l-.4.7-.6-.1c-.4.3-.4.6-.9.6.2-.6.2-1 .5-1.5 0-.2-.2-.2-.2-.2-.3-1.1.6-1.8.6-2.8l.7-2c-.5.9-.9 2.1-1.4 2.7-.2-.8.7-2.4.8-3.4-.7.7-.9 2.3-1.2 3.3-.8 1.1-1.4 3-1.7 4.5h-.4l-.2-.5c1.3-2.9 2.4-6.6 3.4-9.6-.8.4-.9 1.3-1.1 2.3l-1.4 3.3H45l-2 3.9-.3.2v-2.7c-.7 1.4-1.6 3-1.8 4.5l-.5-.1-.1-.4c.3-1.5 3.3-8 2.7-8.6l-1.9 4.1c-1.4.7-1.3 3.5-2.4 4.7-.5-.9 1-3.8 1.1-4.8.8-1.7 1.5-3.8 1.9-5.7-1.1 2.2-2.3 5-3.1 7.4h-.4L38 76l-.6.9-.2 1.4-.8-.1c-.1-.5 0-.9.2-1.2l-1 .6c0 1.5 1.9 3.9 2.5 5.4 1.1 1.7 1.9 4.3 3.1 5.9.5 1.6 2 3.5 2.5 5l.7-.1zm82.3-4.1c0-.8.7-1.5 1.1-2.1.6-1.9 1.6-3.8 2.6-5.7-.8-.2-1-.5-1-1.3l-2.7-7c-.3 1 1 3.5 1.2 4.5l.9 1.8-.1.3h-.5c-.4-.6-.8-1.5-.9-2.3h-.2c0 .7.2 1.3.4 2l-.4.2v1.1h-.6l-.9-3.2h-.8c.1.8.3 1.7 0 2.4l-.9-.1c-.1-.4-.8-3.2-1.1-3.2.1 1.3.9 2.7.9 4h-.5l-.2-.6-.8.1c-.2-.5-1-3.6-1.2-3.6.2 1 .6 2.3.3 3.3l-.4-.1-.7-1.1.6 2.4-.4.2c.2 1 .6 1.9.9 2.9h-1a15 15 0 003.4 2.8l2.3 2.2.7.1zm8.6-18.5c.2-.6 3.2-6 1.4-6a9 9 0 00-.7-1.4h-.7c-1.1-1.8-1.6-4.1-2.3-6h-.3l.2 2h-.6l-.2-1.1-.5.1c0 .2.1.5.3.7l.4 2.9-.4-.1-.8-2.2c-.8-.4-.9-1.2-1.1-2l-1.5-3.5-.2.2c.5 1.7 2.7 6.2 1.8 7.1l-.2-.2c-.2-.6-1.6-5-2-5l.2 2h-.5c-.2-1.6-1.1-3.5-1.1-4.9h-.2l.4 3.7c.1.5.8 1.8-.2 1.8l-.2-.9h-.4l.2 1.7-.3.1c-.5-1-1-2-1.2-3l-.7.2a11 11 0 01-.7-2.6l-.6-1.5c-.3 0 .1 1.4.1 1.6l-.3.1c0 1 .5 1.8.7 2.7l-.4.1c-1.1-1.8-1.8-4.8-2.4-6.9l-.5-1c0 1.5.9 3.6 1.3 5.1h-.4l-.8-1.7v.8c.8 2 1.6 4.1 1.6 6.3h-.4c-.7-1.6-1.2-3.3-1.7-4.8l-.7.4-.7-1.8c-.7-2.8-1.9-5.5-2.7-8.3l-.5-1.1v.6c.9 2.9 1.7 5.8 2.7 8.6v1l-.3.2v1.2h-.5l-.2.3h-1l-.5-1.2c-.6-.4-.9-1.1-1.3-1.6v1.3h-.4c-.3 1.1.1 2.1.2 3.2h-.4c-.4-1.4-1.3-3.4-1.3-4.9-1.2 0 0 1.3 0 2.1h-.8c0 .7-2.6 12.8-2.6 13.6l5.1-1c5.3 0 11.1-2.3 16.2 0 .3.3 1.2 1.2 1.2 1.6 1 .7 1.7 1.9 2.3 2.9l.5.4c.9-.5 1.3-1.2 1.6-1.9zM34.5 65.4l2.2-1.1c3.3-.8 7.3-.2 10.6-.6l9.9.6c-.8-3.9-2.1-8.1-3.1-12.1-.9-.2-.7-.1-1.1.3l-.5-.1.1-1.1h-.2a7 7 0 00-.5 1.3l-.3-.2-.1-.8h-.3c-.3-1 .4-2.9.7-4-.6 0-1 2.4-1 2.5-.9 1.4-1 3.2-1.8 4.7-.6-.3.2-2.2.2-2.8h-.5l.3-2.3-.4.2a32 32 0 00-1 4.2l-.5.1c0-1.2-.4-2.9.3-3.8l.9-3.2h-.3l-1.9 6.5c-.3.2-.9-.1-1.1-.2l.1-1.1.6-1.4c-.8.7-1.3 2.2-1.3 3.3h-.4c-.2-.5.4-1.6.4-2.2l-.7.1c0-.7.1-1.2.3-1.8l-.2-.5c-.7 1.3-1 2.8-1.3 4.1h-.7c-.4.7-.8 1.4-1 2.2 0-1.2.3-2.2.7-3.4h-.3c-.5.9-.7 1.7-1.2 2.4l-.9.2-.2-1.2-.4.1-.6 1.3h-.8a24 24 0 00-1.3 2.8c-.8-.4.3-2.4.5-2.9-1 0-1.3 2-2.1 2.8H34c-.3-.6.2-1.2.6-1.7h-.8l-1.1 1.2c-.6-.6.9-2.7 1.4-3.1l-.1-.1-1.3 1.1c-.5-.1-.8-.1-1.1-.5 0-1.3 1.8-1.4 2.1-2.7l1.3-1.2c.9-.7 3.6-2.2 4-3.5h.3v-.3l.9-.8c1.6-1.2 3.1-2.9 4.6-4.3 1.6-1.2 3.4-2.1 4.8-3.5h.4v-.4l.6-.3-.6-2.9c-1.6-4.4-2-8.7-2.7-10a30 30 0 00-17.2 11.4c-1.6 2.8-3.2 5.4-4.4 8.4-.4 1.2-.9 2.2-1.2 3.5-.3 2.2-1.7 5.5.2 7.4l5.8 11.7.6 1.2c.9-.4 2.7-2.5 3.4-3.5zm104.6-2.3l.3-.7 1.5-3.6c3.1-5.4 3.6-5.3 2.5-8.1-.8-3.2-1.8-5.1-2.1-6.1-.6-1.4-1.5-2.8-2-4.4l-3.2-5.1-3.3-3.6a43.7 43.7 0 00-14.5-7.5l-1.9 7.4c-.2 2.2-1 4.5-1 6.8a158.2 158.2 0 0112.5 3.5c1.8 2.1 3.4 4.3 4.7 6.8.4.2.9 1.3 1 1.8.3.3.7.7.8 1.2.8.4.9 1.9 1.4 2.7.6 1.9 1.5 4.1 2.5 5.9 0 1.2.3 1.8.7 3h.1zm-46-13.9a3 3 0 001.1-1.1c1.3-1.3 3.1-2.7 4.1-4.2 2.6-2.3 5.3-5.9 8.9-6.8 2.3 0 4.8.6 7 .9.1-.3.1-.5.3-.7.6-5.5 2.4-10.4 2.7-13.4-9.3-2.3-19.8-2-29.5-2.1-.3-.3-3.5.3-4.5 0l.2 10.4.2 7.6 3-3.1-.7-.1c.3-1.1 1.4-1.8 1.4-3.1.5-1 .7-1.7 1.5-2.3V30c0-.6.2-1.1.3-1.6l1-1.2.3-1.2c1-.7 3.3-3.7 4.7-2.4.8 1.5 1.4 3.1 2.3 4.7 1.3.9 2 4.8 2.7 6.4v.5l-.3.2-.4-.3-.2.4-.4.2.2 1.7c-.4.4-.9-1-.9-1.1 0 .6 0 1.2-.7 1.3l-.2-.4c-.6-.2-.9-.2-1.4.2v.8h-.6l.6 2.2c-.6.3-1-.6-1.2-1-.3.7.5 2.1.6 2.9l-1.8.3c-.4-1-.9-1.8-1.2-2.8 0 1.5 1 3.5 1.4 4.9-.8.2-1.2-1.2-1.3-1.6h-.5l.4 1.5-.4.3.3 1.6c-.1 0-.5 0-.5.3-.6-.3-.9-.9-1.1-1.4-.3.6.6 2.4.7 3.1v1.1l-.4.2c-.9-.9-.6-2.4-1.5-3.3l.1.8c.3 1.1 1.2 3 1.2 4.1l-.5.3.4.6c.3-.4 2.6-2.8 2.6-3.1zm-10.6-3.5l-.2-1.1.4-.2c0-.5 0-.9-.3-1.2.5-4.6 0-9.7-.1-14.3l-.4-7-7.6.2-.2.5c.5.5 1.6 2.4 2.1 2.4l.5 1.7a1 1 0 00-.6.2l-.2-.3c.3.6 1.1 2.2 1.1 2.9h-.2c.1.8.5 1.5.9 2.2.3 1.8 1.2 3.5 1.9 5.1 0 1.4.8 2.6 1 4.1l-.4.2.4 1.2c.7.9 1 2.3 1.4 3.3l.5.1zm-11.3-2.6l-.7-.1c0-.5.1-1.1-.4-1.2l.1-.8c-.1.4-.6.8-1 1v-.9c.6-1.2 1-2.6 1.1-4-.2.4-.7 1.5-1.1 1.5-.4-.7.3-1.4.4-2.2l-.4-.1.1-1.3.7-1.7c-.8.9-1.2 1.8-1.3 3.1l-.6.2c-.4-1.5.8-3.1 1.3-4.4-.4.1-.9.9-1.1.9v-.5a14 14 0 001.6-3.8c-.2.4-.6 1.2-1 1.4 0-1.5.8-3.7 2.2-4.7.4-.6 1.7-2.6 1.7-3.2-1.2-.1-14.1 1.1-24.8 3.1.3 1.2 1.1 3.3 1.4 4.7.4 2.5 1.1 5.5 2 7.9 3.7-.3 7.5-.7 11.3-.7l1.7 1.2c1 1.3 3 2 4 3.4l1.6 1.2c.1.4.1.6.5 1 .2-.5.4-.8.7-1z"
    clip-rule="evenodd"
  />
  <path
    d="M23.3 141.7c-1.1.7-1.5.9-.7 2.1l-.2.1-2.3-3.8.2-.1c.8 1.3 1.1 1.1 2.2.4l3.5-2.1c.5-.3 1.5-1 1.8-1.4.7-.8.6-2 0-2.8a3.2 3.2 0 00-2.5-1.7c-.9 0-1.9.6-2.7 1l-3.3 2c-1.1.7-1.5.9-.7 2.1l-.2.1-1.9-3.1.2-.1c.8 1.3 1.1 1.1 2.2.4l3.9-2.4c1.6-1 3.8-1.4 5.5 1.3 1.7 2.8.5 4.5-1.3 5.5l-3.7 2.5zM22.6 126.3c1.3-.4 1.6-.5 1.2-1.9l.3-.1 1.1 3.5-.3.1c-.4-1.4-.8-1.3-2.1-.9l-6.7 2.1c-.5.7-.7 1.3-.4 2.3l-.3.1-.8-2.7 5.5-8.3-5.5 1.7c-1.3.4-1.6.5-1.2 1.9l-.3.1-1.1-3.4.3-.1c.4 1.4.8 1.3 2.1.9l8.1-2.5.1.3-5.9 8.9 5.9-2zM19.2 113.2c1.3-.2 1.7-.3 1.4-1.8h.3l.8 4.3-.3.1c-.3-1.4-.7-1.4-1.9-1.1l-6.3 1.2c-1.3.2-1.7.3-1.4 1.8l-.3.1-.8-4.3.3-.1c.3 1.4.7 1.4 1.9 1.1l6.3-1.3zM11.7 101.9a7 7 0 00-1.4-.3c-.6.1-.7.7-.7 1.2h-.3L9 99.7h.3c.2.9 1 1.2 1.8 1.4l9 2.6v.3l-8.3 4.7c-.9.5-1.4.7-1.4 1.9h-.3l-.5-4.2h.3c.1.5.2 1.1.9 1.1.4 0 .9-.4 1.3-.6l5.6-3.2-6-1.8zM13.4 94l-.1-2.1c-.1-1.2-.2-1.7-1.6-1.7v-.3l3.6-.2v.3c-1.4.2-1.5.6-1.4 1.9L14 94l3.8-.2c.6 0 .8-.2.7-.9l-.1-2.1c-.1-1.4-.7-1.8-2.2-2.6v-.3l2.6.7.4 8h-.3c-.1-1.5-.5-1.4-1.8-1.4l-6.4.3c-1.3.1-1.7.1-1.6 1.6h-.3l-.4-7.9 2.3-.3v.3c-1.6.4-1.7.8-1.6 2.3l.1 2.6 4.2-.1zM18.6 78.1l-4.8 3.6v1.1h2.8c1.3 0 1.7 0 1.7-1.5h.3v4.4h-.3c0-1.5-.4-1.5-1.7-1.5h-6.4c-1.3 0-1.7 0-1.7 1.5h-.3v-4.5c0-3 1.8-3.6 2.7-3.6 1.5 0 2.4 1.2 2.6 2.5l2.8-2c1.1-.8 1.8-1.3 1.9-2.8h.3l.1 2.8zm-5.3 4.6v-.3c0-1.5-.6-3-2.3-3-1.2 0-2.2.9-2.2 2.1l.2 1.3 4.3-.1zM12 66.5v.3c-1.6 0-3 1-3.1 2.7 0 .9.6 1.8 1.5 1.9 2.2.1 2.8-5.5 5.9-5.4 1.6.1 2.9 1.4 2.8 3.4 0 .7-.2 1.2-.4 1.6-.2.4-.3.7-.3 1.1 0 .4.2.5.6.5v.3l-3.5-.2v-.3c2.5-.1 3-2 3.1-2.9.1-1.1-.4-2.1-1.6-2.1-2.4-.1-2.9 5.4-6 5.2-1.6-.1-2.7-1.6-2.6-3.2 0-.6.2-1 .4-1.4l.3-.9c0-.4-.3-.5-.6-.6v-.3l3.5.3zM17.6 60.3c1.3.1 1.7.2 1.9-1.3h.3l-.5 4.4H19c.2-1.5-.2-1.5-1.5-1.6l-6.3-.7c-1.3-.1-1.7-.2-1.9 1.3H9l.5-4.4h.3c-.2 1.5.2 1.5 1.5 1.6l6.3.7zM19 51.6c1.3.3 1.7.3 2-1.1l.3.1-.9 4.3-.3-.1c.3-1.4-.1-1.5-1.4-1.8l-7.5-1.6-.3 1.5c-.3 1.3.4 1.8 1.3 2.1l-.1.3-2.3-.6 1.7-8.3 2.4.4-.1.3c-1-.1-1.8.1-2.1 1.4l-.2 1.5 7.5 1.6zM17.8 36.4c-.2-.3-.6-.9-.9-1-.5-.2-.9.1-1.1.7l-.3-.1 1.5-3.3.3.1c-.4.9 0 1.7.5 2.5l2.7 4.1 2.2 1c1.2.5 1.6.7 2.1-.7l.3.1-1.8 4-.3-.1c.6-1.3.2-1.5-1-2l-2-.9-5.8 1a2 2 0 00-1.5 1l-.3-.1 1.8-4 .3.1c-.2.6-.4 1.1.1 1.4.2.1.6 0 .8 0l4.2-.7-1.8-3.1zM32.1 23.6c-1.3-2.6-.7-5.7 2-7.1 2.7-1.4 5.6-.1 7 2.5 1.3 2.6.7 5.7-2.1 7.1-2.7 1.4-5.6 0-6.9-2.5zm7.5-3.8c-1.1-2.1-2.9-4-5.2-2.8-2.3 1.2-1.8 3.7-.7 5.8 1.1 2.1 2.9 4 5.2 2.8 2.2-1.2 1.7-3.8.7-5.8zM46.8 16.9l1.6-.4c1.1-.3 1.4-.6 1.2-1.8l.3-.1.8 3.4-.3.1c-.3-1.1-.7-1.3-1.8-1l-1.6.5.7 3c.3 1.3.4 1.7 1.8 1.3l.1.3-4.3 1-.1-.3c1.4-.3 1.3-.7 1-2l-1.5-6.2c-.3-1.3-.4-1.7-1.8-1.3l-.1-.3 7.5-1.8.6 2.2-.3.1c-.8-1.4-1.4-1.4-2.8-1.1l-2 .5 1 3.9zM70.7 16.4c0 1.3 0 1.7 1.5 1.7v.3l-4.4.1v-.3c1.5 0 1.5-.4 1.4-1.7L69 8.7h-1.5c-1.3 0-1.7.8-1.7 1.8h-.3V8.1l8.5-.2.2 2.4h-.3c-.1-1-.5-1.7-1.8-1.7h-1.5l.1 7.8zM84.4 12.7V9.9c0-1.3 0-1.7-1.5-1.7v-.3h4.4v.3c-1.5 0-1.5.4-1.5 1.7v6.4c0 1.3 0 1.7 1.5 1.7v.3h-4.4V18c1.5 0 1.5-.4 1.5-1.7v-3h-4.8v3c0 1.3 0 1.7 1.5 1.7v.3h-4.4V18c1.5 0 1.5-.4 1.5-1.7V9.9c0-1.3 0-1.7-1.5-1.7v-.3h4.4v.3c-1.5 0-1.5.4-1.5 1.7v2.8h4.8zM92.6 12.6l2.1.1c1.2 0 1.7-.1 1.8-1.5h.3l-.1 3.6h-.3c-.1-1.4-.5-1.5-1.8-1.6l-2.1-.1V17c0 .6.2.8.8.8l2.1.1c1.4 0 1.9-.6 2.7-2h.3l-.9 2.6-8-.2V18c1.5 0 1.5-.4 1.5-1.7l.2-6.4c0-1.3 0-1.7-1.4-1.7v-.3l7.9.2.1 2.3h-.3c-.3-1.6-.7-1.7-2.1-1.8l-2.6-.1-.2 4.1zM120.1 13.7l.7-1.2c.1-.6-.5-.8-.9-1l.1-.3 3.1.6-.1.3c-1-.1-1.4.6-1.9 1.3l-5.2 7.8-.3-.1-2-9.3c-.2-1-.3-1.6-1.4-1.9l.1-.3 4.2.8-.1.3c-.5 0-1.1-.2-1.3.5-.1.4.1 1 .2 1.4l1.3 6.3 3.5-5.2zM126 21.9c-.5 1.2-.6 1.6.7 2.1l-.1.3-4.1-1.6.1-.3c1.4.5 1.5.2 2-1l2.4-5.9c.5-1.2.6-1.6-.7-2.1l.1-.3 4.1 1.6-.1.3c-1.4-.6-1.5-.2-2 1l-2.4 5.9zM134.3 29.2v-6l-.9-.6-1.7 2.3c-.8 1.1-1 1.4.2 2.2l-.2.2-3.6-2.6.2-.2c1.2.9 1.4.6 2.2-.5l3.8-5.1c.8-1.1 1-1.4-.2-2.2l.2-.2 3.6 2.6c2.5 1.8 1.8 3.6 1.3 4.3-.9 1.2-2.4 1.2-3.6.6v3.5c0 1.3 0 2.3 1.1 3.2l-.2.2-2.2-1.7zm-.5-7l.3.2c1.2.9 2.8 1.4 3.8 0 .7-1 .6-2.3-.4-3l-1.1-.6-2.6 3.4zM143 39.1c-1.1-.6-2-1.4-2.7-2.5-2.6-3.8-.4-6.7 1.1-7.7 2-1.3 5.6-1.6 7.7 1.4.4.6.6 1.2.8 1.8l.3 1c.2.3.5.1.8 0l.2.2-2.6 2-.2-.2c1.1-1.4 1.4-2.9.4-4.4-1.5-2.2-4.1-1.9-6-.5-2.5 1.7-3.3 4.2-2 6.1.4.5 1 1.1 1.6 1.4l2.3-1.6c1.1-.7 1.4-.9.6-2.2l.2-.2 2.3 3.4-.2.2c-.6-.8-.9-.8-1.9-.2l-2.7 2zM146.5 44.1c-1.2.5-1.6.6-1 2l-.3.1-1.6-4.1.3-.1c.5 1.4.9 1.2 2.1.7l5.9-2.3c1.2-.5 1.6-.6 1-2l.3-.1 1.6 4.1-.3.1c-.5-1.4-.9-1.2-2.1-.7l-5.9 2.3zM148.3 49.7c-1.3.3-1.7.4-1.3 1.8l-.3.1-.8-3.5.3-.1c.3 1.4.7 1.3 2 1l6.8-1.6c.6-.7.8-1.2.6-2.2l.3-.1.6 2.7-6.1 7.9 5.6-1.3c1.3-.3 1.7-.4 1.3-1.8l.3-.1.8 3.5-.3.1c-.3-1.4-.7-1.3-2-1l-8.3 1.9-.1-.3 6.5-8.5-5.9 1.5zM151.8 74c-1.3.1-1.7.1-1.6 1.6h-.3l-.3-4.4h.3c.1 1.5.5 1.4 1.8 1.4l6.4-.4c1.3-.1 1.7-.1 1.6-1.6h.3l.3 4.4h-.3c-.1-1.5-.5-1.4-1.8-1.4l-6.4.4zM157.2 84.5v-.3c1.6-.1 2.9-1.2 2.9-2.9 0-.9-.7-1.8-1.6-1.8-2.2 0-2.4 5.7-5.5 5.8-1.6 0-3-1.2-3-3.2 0-.7.1-1.2.3-1.6.1-.4.3-.7.3-1.1 0-.4-.3-.4-.6-.5v-.3l3.5-.1v.3a3 3 0 00-2.9 3.1c0 1 .6 2.1 1.7 2 2.4 0 2.5-5.5 5.6-5.6 1.6 0 2.8 1.4 2.8 3 0 .6-.1 1-.3 1.4l-.3.9c0 .4.3.5.6.5v.3l-3.5.1zM152.2 91c-.8 0-1.4 0-1.4.7V94c0 1.3.5 2 2.2 2.7v.2l-2.8-.9.1-8h.3c0 1.5.4 1.5 1.7 1.5l6.4.1c1.3 0 1.7 0 1.7-1.5h.3v4.7h-.3c0-1.7-.4-1.7-1.8-1.7l-6.4-.1zM153.4 102.2l-1.4-.7c-.3-.1-.7-.4-1-.4-.6 0-.7.6-.8 1.2h-.3l.2-3.2h.3c0 .8.4 1.2 1.5 1.7l8.5 4.3v.3l-8.6 3c-1 .3-1.8.6-2 1.7h-.3l.3-4.1h.3c0 .7.1 1.1.6 1.1l1.2-.3 1.3-.5.2-4.1zm4.6 2.3l-4.1-2.1-.2 3.6 4.3-1.5zM150.8 114.2c-1.3-.2-1.7-.3-1.9 1.1l-.3-.1.7-3.5.3.1c-.3 1.4.1 1.5 1.4 1.8l6.9 1.3c.8-.4 1.2-.8 1.4-1.8l.3.1-.5 2.8-8.8 4.8 5.6 1.1c1.3.2 1.7.3 1.9-1.1l.3.1-.7 3.5-.3-.1c.3-1.4-.1-1.5-1.4-1.8l-8.4-1.6v-.3l9.4-5.1-5.9-1.3zM154 128.5c1.2.5 1.6.7 2.2-.6l.3.1-1.7 3.6c-.6 1.3-1.3 2.8-2.6 3.6a5 5 0 01-4.7.1c-2.6-1.2-4-3.8-2.4-7.3l2-4.4.3.1c-.6 1.3-.3 1.5.9 2l5.7 2.8zm-7.5-1.9l-.9 1.4c-1.1 2.4.2 4.6 2.5 5.6 2.3 1.1 4.8.6 5.9-1.9.2-.5.4-1 .4-1.5l-7.9-3.6zM142.1 144.2l.2-.2c1.3 1 3 1.2 4.1-.1.6-.6.7-1.8.1-2.4-1.6-1.5-5.7 2.4-8 .3-1.2-1.1-1.3-3 .1-4.4a5 5 0 011.3-1c.4-.2.7-.3 1-.6.2-.3.1-.5-.1-.7l.2-.2 2.6 2.4-.2.2a3 3 0 00-4.2.2c-.7.8-1 1.9-.2 2.7 1.7 1.6 5.7-2.2 8-.1 1.2 1.1 1 2.9-.1 4.1-.4.4-.8.7-1.2.8l-.8.4c-.3.3-.1.5.1.8l-.2.2-2.7-2.4zM69.2 151.5h.3l-.4 8.5c-.1 1.3-.1 1.8 1.2 1.8v.3l-3.9-.2v-.3c1.2 0 1.3-.1 1.4-1.3l.3-6.2c0-1.1-.1-1.5-.5-1.5l-.8.2-.1-.2 2.5-1.1zM74.9 162.1c2.5 0 4-2.2 4.6-4.4-.6.4-1.4.8-2.2.7-1.7 0-2.6-1.6-2.6-3.1 0-1.8 1.3-3.7 3.3-3.7 2.2 0 3.3 2.4 3.3 4.4 0 2.9-2.5 6.4-6.1 6.4H75l-.1-.3zm4.9-6.5c0-1.1-.5-3.4-1.9-3.5-1.3 0-1.8 1.4-1.8 2.5s.4 3.2 1.9 3.2c.5 0 1.3-.3 1.7-.6l.1-1.6zM90.6 151.9c-2.4.1-4.1 2.3-4.6 4.6.6-.5 1.4-.8 2.2-.8 1.7 0 2.6 1.5 2.7 3 0 1.8-1.3 3.7-3.2 3.7-2.2 0-3.3-2.4-3.3-4.3 0-3.3 2.7-6.5 5.9-6.5h.3v.3zm-3.1 4.5c-.5 0-1.1.3-1.6.7l-.1 1.6c0 1.1.5 3.4 2 3.4 1.3 0 1.7-1.4 1.7-2.5 0-1.3-.5-3.3-2-3.2zM99.9 161.8l-6.1.3v-.3c3.8-4.1 4.6-5.4 4.5-7.1-.1-1.2-.9-2.2-2.1-2.2-1.1.1-2 .8-2.2 1.9h-.3c.2-1.6 1-3 2.8-3.1 1.5-.1 3 1 3.1 2.6.1 1.6-1.1 3.2-2.1 4.4l-2.2 2.6 3.2-.2c.2 0 1.3-.1 1.6-.9h.3l-.5 2z"
    class="st6"
  />
  <path
    fill="none"
    fill-rule="evenodd"
    stroke="#231f20"
    stroke-width=".5"
    d="M147.2 84.9c.3 46.3-4.5 63.8-63.4 63.9-42 0-61-1.6-62.6-63.8C19.7 24.3 39 22.8 85.9 21.8c42.1-1 60.9 4.8 61.3 63.1z"
    clip-rule="evenodd"
  />
  <path
    fill="#9e3724"
    fill-rule="evenodd"
    d="M80.4 88.3l2.4-.1c2.6-.8.6.6 2.4-.2.7-.3 2.9-.2 2.9-.2l-.1 2.7.9 2.8 1.3 2.9 2 3.5 1.5 2 1.5 1.3 2 2.5 1.4 1.8.9 1.1.3.1-.2 1.1-.1.3-3.9-.9-7.1-.8c-1.5-3.4-3.1-5.3-3.8-6.6a294 294 0 00-3.2-6.1l-.9-3.3c-.2-.9-.2-3.9-.2-3.9z"
    clip-rule="evenodd"
  />
  <path
    fill="#231f20"
    stroke="#231f20"
    stroke-width="0"
    d="M99.8 108.6l-2.6-2.9-2.1-2.6c-.5-.3-2.8-3.3-2.8-3.3s-2.1-3.6-2.6-4.8c-.6-1.1-1.1-3.4-1.3-4.1-.2-.7-.1-1.9-.1-1.9l-2.8 2.2 1.2.4-1 2.6 2 .9-.8 1.9 3.1-.6-2 2.5 3.4 1.2-2.2 1.8H92l-1 2.1 3.1-.3-.3 1.8 1.4.6-2 .9 6.3 2.9c0 .5.4-1.3.3-1.3z"
  />
  <path
    d="M49.8 154.5c0 .6-.5 1.1-1.1 1.1-.6 0-1.1-.5-1.1-1.1 0-.6.5-1.1 1.1-1.1.6 0 1.1.5 1.1 1.1zM121.8 153.8c0 .6-.5 1.1-1.1 1.1-.6 0-1.1-.5-1.1-1.1 0-.6.5-1.1 1.1-1.1.6 0 1.1.5 1.1 1.1z"
    class="st10"
  />
  <path
    d="M86.8 77.8c.8.7 1.7 1.1 2.4.6.2-.6 1.5-.3 2.1-.2.8-.3 2.5-.9 3.2-.1h.7M88.4 65.7c.8.7 1.7 1.1 2.4.6.2-.6 1.5-.3 2.1-.2.8-.3 2.5-.9 3.2-.1h.7M70 62.5c.8.7 1.7 1.1 2.4.6.2-.6 1.5-.3 2.1-.2.8-.3 2.5-.9 3.2-.1h.7"
    class="st11"
  />
  <path
    d="M73 68.1l-.2-.8c.4-.3 1.5-.4 2-.2-.3.6-.9.8-1.8 1zM77.2 67.6c-.4-.4-1.2-.2-1.8-.1 0-1.7 1.9-1.3 3-1.4l.2.7-1.4.8zM77.4 81.6c0 .9-1.4.9-2 1"
    class="st10"
  />
  <path
    d="M108.5 88.8s-2.6-.6-13.4-1c-10.8-.2-12.1.4-12.1.4s-5.4.3-9.7 0c-4.3-.3-16.8 1.7-16.8 1.7l-.3-35.1L70 52.7c3.1-.5 7.6 1.5 11.6 2 2.5.3 7.6-2.8 14.3-2.5 6.7.3 12.3 1.7 12.3 1.7l.3 34.9z"
    class="st12"
  />
  <path
    d="M81.5 79.5l-.1 6.1h.4l-.1 1.4c-.7 0-2.2-.7-2.9-1l-4-.8c-5.4 0-10.9.8-15.8 3.1-.4-14.8-.3-25.5-.4-32.2l9.5-2.3c4.4-.4 9.4-.3 12.6 2.8 0 1.4.8 4.8.4 4.9v1.2l.4 16.8zM83.2 65.4l-.2-8 1-.9c4.8-4.6 14.1-3.4 20.2-2.4.7.3 1.9.3 2.7.8l.6 31.2.2 1.3-3.9-1.4c-6.5-1.3-14.4-3.1-20 1.5-.2-3.1-.2-6.3-.3-9.5l-.3-12.6z"
    class="st12"
  />
  <path
    d="M102.2 65.6l.1-.4-2.6-.6c-1 .5-2.1 0-3 .4l-3.3-.1-.7-.7"
    class="st12"
  />
  <path
    d="M103.2 65.6l.2-.4-2.6-.6c-1 .5-2.1 0-3 .4l-3.3-.1c-.6-.8-.2.7-1.1-.1M90.7 69.8l.8-.2.1-.6M88.7 70c.5-.3 1.3-.2 1.9-.2M90.6 72.5l-.7-.1M96.7 72.5v-.2c-.4-.5-.6-.4-1.5-.4l-.1.3c-.3 0-.9-.1-1-.4-.8.2-2.4.7-3.5.7M98.3 76.2l.2-.5-.3-.1c-.6 0-1.3.2-1.8.4h-2.6l-.2-.5M87.5 80.6c.8.6 1.7 1 2.4.5.2-.6 1.5-.3 2.1-.2.8-.3 2.5-.9 3.2-.1h.7M98.1 68.6h.6c1 .6 4-.3 4 1.2"
    class="st12"
  />
  <path d="M92.3 69c1-.2 2.3-1.3 3.3-.4l2.9.1" class="st12" />
  <path
    fill="#231f20"
    fill-rule="evenodd"
    stroke="#231f20"
    stroke-width=".2"
    d="M108.5 88.8s-2.6-.6-13.4-1c-10.8-.2-12.1.4-12.1.4s-5.4.3-9.7 0c-4.3-.3-16.8 1.7-16.8 1.7l-.3-35.1L70 52.7c3.1-.5 7.6 1.5 11.6 2 2.5.3 7.6-2.8 14.3-2.5 6.7.3 12.3 1.7 12.3 1.7l.3 34.9z"
    clip-rule="evenodd"
  />
  <linearGradient
    id="SVGID_4_"
    x1="58.5"
    x2="81.8"
    y1="71"
    y2="71"
    gradientUnits="userSpaceOnUse"
  >
    <stop offset="0" stop-color="#fff" />
    <stop offset="0" stop-color="#fffffc" />
    <stop offset="0" stop-color="#fffef4" />
    <stop offset="0" stop-color="#fffde6" />
    <stop offset="0" stop-color="#fffbd2" />
    <stop offset="0" stop-color="#fff9b8" />
    <stop offset="0" stop-color="#fff8ad" />
    <stop offset=".4" stop-color="#fdf6ac" />
    <stop offset=".5" stop-color="#f6f0a8" />
    <stop offset=".6" stop-color="#eae4a0" />
    <stop offset=".7" stop-color="#dad496" />
    <stop offset=".8" stop-color="#c4bf88" />
    <stop offset=".8" stop-color="#a8a477" />
    <stop offset=".9" stop-color="#888563" />
    <stop offset=".9" stop-color="#62604b" />
    <stop offset="1" stop-color="#393932" />
    <stop offset="1" stop-color="#262626" />
  </linearGradient>
  <path
    fill="url(#SVGID_4_)"
    fill-rule="evenodd"
    stroke="#1e1c05"
    stroke-width=".4"
    d="M81.5 79.5l-.1 6.1h.4l-.1 1.4c-.7 0-2.2-.7-2.9-1l-4-.8c-5.4 0-10.9.8-15.8 3.1-.4-14.8-.3-25.5-.4-32.2l9.5-2.3c4.4-.4 9.4-.3 12.6 2.8 0 1.4.8 4.8.4 4.9v1.2l.4 16.8z"
    clip-rule="evenodd"
  />
  <linearGradient
    id="SVGID_5_"
    x1="83"
    x2="107.8"
    y1="70.4"
    y2="70.4"
    gradientUnits="userSpaceOnUse"
  >
    <stop offset="0" stop-color="#fff100" />
    <stop offset="0" stop-color="#f7ea01" />
    <stop offset="0" stop-color="#e2d605" />
    <stop offset="0" stop-color="#c0b60b" />
    <stop offset="0" stop-color="#908914" />
    <stop offset="0" stop-color="#53501e" />
    <stop offset="0" stop-color="#262626" />
    <stop offset=".1" stop-color="#464439" />
    <stop offset=".1" stop-color="#716e53" />
    <stop offset=".2" stop-color="#97936a" />
    <stop offset=".3" stop-color="#b7b27e" />
    <stop offset=".4" stop-color="#d2cb8e" />
    <stop offset=".5" stop-color="#e6df9a" />
    <stop offset=".6" stop-color="#f4eda2" />
    <stop offset=".8" stop-color="#fcf5a7" />
    <stop offset="1" stop-color="#fff7a9" />
  </linearGradient>
  <path
    fill="url(#SVGID_5_)"
    fill-rule="evenodd"
    stroke="#1e1c05"
    stroke-width=".4"
    d="M83.2 65.4l-.2-8 1-.9c4.8-4.6 14.1-3.4 20.2-2.4.7.3 1.9.3 2.7.8l.6 31.2.2 1.3-3.9-1.4c-6.5-1.3-14.4-3.1-20 1.5-.2-3.1-.2-6.3-.3-9.5l-.3-12.6z"
    clip-rule="evenodd"
  />
  <path
    d="M102.2 65.6l.1-.4-2.6-.6c-1 .5-2.1 0-3 .4l-3.3-.1-.7-.7"
    class="st16"
  />
  <path
    d="M103.2 65.6l.2-.4-2.6-.6c-1 .5-2.1 0-3 .4l-3.3-.1c-.6-.8-.2.7-1.1-.1M90.7 69.8l.8-.2.1-.6M88.7 70c.5-.3 1.3-.2 1.9-.2M90.6 72.5l-.7-.1M96.7 72.5v-.2c-.4-.5-.6-.4-1.5-.4l-.1.3c-.3 0-.9-.1-1-.4-.8.2-2.4.7-3.5.7M98.3 76.2l.2-.5-.3-.1c-.6 0-1.3.2-1.8.4h-2.6l-.2-.5M87.5 80.6c.8.6 1.7 1 2.4.5.2-.6 1.5-.3 2.1-.2.8-.3 2.5-.9 3.2-.1h.7"
    class="st16"
  />
  <path d="M98.1 68.6h.6c1 .6 4-.3 4 1.2" class="st10" />
  <path d="M92.3 69c1-.2 2.3-1.3 3.3-.4l2.9.1" class="st10" />
  <path
    d="M108.5 88.8s-2.6-.6-13.4-1c-10.8-.2-12.1.4-12.1.4s-5.4.3-9.7 0c-4.3-.3-16.8 1.7-16.8 1.7l-.3-35.1L70 52.7c3.1-.5 7.6 1.5 11.6 2 2.5.3 7.6-2.8 14.3-2.5 6.7.3 12.3 1.7 12.3 1.7l.3 34.9z"
    class="st17"
  />
  <path
    d="M81.5 79.5l-.1 6.1h.4l-.1 1.4c-.7 0-2.2-.7-2.9-1l-4-.8c-5.4 0-10.9.8-15.8 3.1-.4-14.8-.3-25.5-.4-32.2l9.5-2.3c4.4-.4 9.4-.3 12.6 2.8 0 1.4.8 4.8.4 4.9v1.2l.4 16.8zM83.2 65.4l-.2-8 1-.9c4.8-4.6 14.1-3.4 20.2-2.4.7.3 1.9.3 2.7.8l.6 31.2.2 1.3-3.9-1.4c-6.5-1.3-14.4-3.1-20 1.5-.2-3.1-.2-6.3-.3-9.5l-.3-12.6z"
    class="st17"
  />
  <path
    d="M102.2 65.6l.1-.4-2.6-.6c-1 .5-2.1 0-3 .4l-3.3-.1-.7-.7"
    class="st17"
  />
  <path
    d="M103.2 65.6l.2-.4-2.6-.6c-1 .5-2.1 0-3 .4l-3.3-.1c-.6-.8-.2.7-1.1-.1M90.7 69.8l.8-.2.1-.6M88.7 70c.5-.3 1.3-.2 1.9-.2M90.6 72.5l-.7-.1M96.7 72.5v-.2c-.4-.5-.6-.4-1.5-.4l-.1.3c-.3 0-.9-.1-1-.4-.8.2-2.4.7-3.5.7M98.3 76.2l.2-.5-.3-.1c-.6 0-1.3.2-1.8.4h-2.6l-.2-.5M87.5 80.6c.8.6 1.7 1 2.4.5.2-.6 1.5-.3 2.1-.2.8-.3 2.5-.9 3.2-.1h.7M98.1 68.6h.6c1 .6 4-.3 4 1.2"
    class="st17"
  />
  <path d="M92.3 69c1-.2 2.3-1.3 3.3-.4l2.9.1" class="st17" />
  <path
    fill="#fff6a9"
    fill-rule="evenodd"
    stroke="#1e1c05"
    stroke-width=".3"
    d="M61.4 68.3l5.5-.5c.5.2 3.2.2 3.7-.2l3.8.1h-2.2M61.5 71.5c.1-.3 4.5-.6 4.7-.9 1.1-.1 2.4.5 4.5-.2.5.2 3.2.1 3.7-.2l1.6.3v-.3"
    clip-rule="evenodd"
  />
  <path
    d="M86.8 61.3c.8.7 1.7 1.1 2.4.6.2-.6 1.2-.4 2.1-.2.5-.2 2.4-1.1 3.2-.1h.7"
    class="st20"
  />
  <g>
    <path
      fill="#ededee"
      stroke="#231f20"
      stroke-width=".3"
      d="M88.6 74.2c-.5-.2-.7-.7-.9-1.1l-1.4-2c-.6-1.1-.6-2.3-.6-3.5-.8 1-2 1.3-3.2 1.7-1.1.4-2.2.9-3.3 1.1.1.5.4.8.7 1.2.5.6.8 1.2 1.1 1.9.4.9.9 2.3.6 3.3.5-.1.8-.5 1.2-.9.5-.4 1.1-.8 1.7-1 .7-.4 3.1-1.1 3.9-.7"
    />
    <path
      fill="#303b93"
      stroke="#231f20"
      stroke-width=".4"
      d="M88 68.2c-.2 2.3 3.2 2.3 4.4 1.2 1-.9 1.4-1.8 1.4-3.2 0-1.3-.7-1.6-1.6-2.2-1.8-1.1-3.6-.6-5.2.5l-2.2 1.3c-.7.4-1.5 1.1-2.3 1.1-1.3.2-.7-1.3-.7-2.1-.1-.9-.7-1.5-1.4-2-1.7-1-4.6-.7-5.6 1.1-.9 1.6-.4 3.9.8 5.3 1.3 1.4 3.1 3.1 3.3 5.1-1 .1-2-.2-3.1.2-1.4.6-1.5 2.2-1.5 3.4 0 .2-.2 3 2 3.4 1.5.3 3.2-.5 4.4-1.4 1.8-1.2 3.4-3 5.6-3.2 0 1-.5 2.7 0 3.6.2.4.9.6 1.3.7 1.1.5 1.7.5 2.9.4 2.7-.2 3.1-3.4 2.4-5.4-.8-2.1-2.1-3.2-2.4-3.7-.6-.8-1.1-1.8-1.7-2.4-.2-.2-.5-.4-.6-.7l-.1-.9"
    />
    <path
      d="M78.6 66.8c0-.6-.1-2-1.1-1.6-.6.2-.7 1.2-.3 1.7.5.6 1.8.7 2.5.7.8 0 1.9 0 2.5-.5M77.7 77.5c-.5-.4-1.1.1-.6.6.6.7 1.6.1 2.1-.5s.5-1 .4-1.8c0-.4-.2-1.3-.6-1.4M86.6 76.8c1.3 0 2.9.1 3.8 1.1.3.3.7 1.2.3 1.6-.3.3-1 .3-1.4.2-.6-.3-.6-1-.3-1.5M89.6 66.7c-.1.7 1.2 1 1.1 0 0-1-1.3-.7-1.8-.3-.8.6-1.4 2.2-.6 2.9"
      class="st23"
    />
    <path
      fill="#bdb880"
      fill-rule="evenodd"
      stroke="#1e1c05"
      stroke-width=".6"
      d="M88.6 73.9l-.8-1.1-1.4-2c-.6-1.1-.6-2.3-.6-3.5-.8 1-2 1.3-3.2 1.7-1.1.4-2.2.9-3.3 1.1.1.5.4.8.7 1.2.5.6.8 1.2 1.1 1.9.4.9.9 2.3.6 3.3.5-.1.8-.5 1.2-.9.5-.4 1.1-.8 1.7-1 1-.3 4-.7 4-.7z"
      clip-rule="evenodd"
    />
    <linearGradient
      id="SVGID_6_"
      x1="-2573.1"
      x2="-2573.1"
      y1="-277.1"
      y2="-274.1"
      gradientTransform="scale(-1) rotate(-20.4 -761.2 -7105.4)"
      gradientUnits="userSpaceOnUse"
    >
      <stop offset="0" stop-color="#fff100" />
      <stop offset="0" stop-color="#fff100" />
      <stop offset=".2" stop-color="#fdea04" />
      <stop offset=".4" stop-color="#f9d610" />
      <stop offset=".7" stop-color="#f2b524" />
      <stop offset="1" stop-color="#e9893e" />
    </linearGradient>
    <path
      fill="url(#SVGID_6_)"
      stroke="#231f20"
      stroke-width=".5"
      d="M82.2 72.5c-.3-.7.1-1.7 1.1-2.1 1-.4 1.9.2 2.1.9.3.7-.1 1.6-1.1 2-1 .4-1.9-.1-2.1-.8z"
    />
  </g>
  <path
    d="M102.7 62l.2-.4-2.6-.6c-1 .5-2.1 0-3 .4l-3.3-.1c-.6-.8-.2.7-1.1-.1"
    class="st16"
  />
  <path
    d="M86.6 58.1c.8.7 1.7 1.1 2.4.6.2-.6 1.2-.4 2.1-.2.5-.2 2.4-1.1 3.2-.1h.7"
    class="st20"
  />
  <path
    d="M102.5 58.8l.1-.4-2.6-.6c-1 .5-2.1 0-3 .4l-3.3-.1c-.6-.8-.2.7-1.1-.1"
    class="st16"
  />
  <path
    d="M97.4 72.3c.2-.6 1.2-.4 2.1-.2M99.9 72.3c.2-.6 1.2-.4 2.1-.2M100.9 72.5c.2-.6 1.2-.4 2.1-.2M99.2 75.8c.2-.6 1.2-.4 2.1-.2M101.5 75.9c.2-.6 1.2-.4 2.1-.2"
    class="st11"
  />
  <path d="M100.8 81l.2-.6-.3-.1c-.6 0-1.2.2-1.8.4h-2.6l-.2-.5" class="st16" />
  <path d="M101.1 80.6c.2-.6 1.2-.4 2.1-.2" class="st11" />
  <path
    fill="none"
    fill-rule="evenodd"
    stroke="#1e1c05"
    stroke-width=".3"
    d="M62 65.5c.1-.3 1-.1 1.1-.4 2.5.3 3.8-.8 4.7-.4.5.2 3.2.2 3.7-.1l2.6.3c0-.1-1-.1-.9-.2"
    clip-rule="evenodd"
  />
  <path
    d="M66.6 59.5l.2-.5-.3-.1c-.6 0-1.3.2-1.8.4h-2.6l-.2-.5M67.5 59.1c.2-.6 1.2-.4 2.1-.2M69.8 59.2c.2-.6 1.2-.4 2.1-.2M66.9 62.2l.2-.5-.3-.1c-.6 0-1.2.2-1.8.4-1.3 0-1.6.5-2.6 0-.1-.2-.6.3-.7.1M67.8 61.8c.2-.6 1.2-.4 2.1-.2M70.1 61.9c.2-.6 1.2-.4 2.1-.2M73.1 59c.2-.6 1.2-.4 2.1-.2M75.4 59.1c.2-.6 1.2-.4 2.1-.2M73.3 61.4c.2-.6 1.2-.4 2.1-.2M75.3 61.2c.2-.6 1.2-.4 2.1-.2"
    class="st27"
  />
  <path
    fill="#fff6a9"
    fill-rule="evenodd"
    stroke="#1e1c05"
    stroke-width=".3"
    d="M61.7 74.7c.1-.3 4.9-.3 5.1-.6l5.2-.6c.5.2 3.6.1 4.2-.3l1.8.3.1-.3M62 82.2c.8.7 3.3-.5 4.7-.4-.2.6.5-.5 2.3-.2.9-.3 2.7-.9 3.5-.1l2.6-.1M61.7 77.9c.9.7 2.6.5 3.4 0-.2.6-.2-.4 1.7-.2.9-.3 3.5-1 4.4-.2l3.2-.3"
    clip-rule="evenodd"
  />
  <path
    fill-rule="evenodd"
    stroke="#231f20"
    stroke-width=".1"
    d="M84.9 74.2c-.2.1-.9.2-1 0-.1-.2.1-.6.7-.6l.5.1c.1.2 0 .4-.2.5zM82.6 70c-.1-.2.4-.6.6-.7.2-.1.4.1.5.3.1.2 0 .4-.2.5-.2 0-.8.1-.9-.1z"
    clip-rule="evenodd"
  />
  <path
    d="M85.6 71.9c-.3 0-.1-.6.1-.7.2-.1.7.2.7.3.1.2 0 .4-.3.5l-.5-.1z"
    class="st33"
  />
  <path
    fill="#0055a3"
    fill-rule="evenodd"
    stroke="#231f20"
    stroke-width=".4"
    d="M78.3 148.8c-14.5.1-20.7-1.2-26-1.9-2.4-.4-8-2.6-9.8-3.5-2.1-1.2-5.5-3.5-6-3.8-.2-.5-3.3-3.8-3.5-3.9.3-1.6 1.6-2.3 2.4-3.5l5.8-6.4 5.8-4.9c5.4-3.8 11.3-7 17.5-9.3 4.1-1.2 8.3-2.6 12.6-3l3.7-.4 7.5-.1 7.2.7 6.6 1.6a67.5 67.5 0 0115.4 6.6l6 4 8 7a41 41 0 016.1 6.4c-1.9 2.6-7 5.9-8.5 6.9a80.2 80.2 0 01-28.7 6.8c-10.3 1-18.2.6-22.1.7z"
    clip-rule="evenodd"
  />
  <g>
    <path
      d="M72.8 141.8c-.3-.4-.3-.4-.3-1 .9-.9 1.8-2 2.2-3.2 0-1 0-1.5.9-1.9.2-1.8.9-3.1 2.2-4l1.5-.1c.5.4 1.7.8 1.9 1.3l1.5-.3 1.1.4 1.2-.6c1 0 2.1.6 3 .6l.3-.4h1.4c.5-.9 1.3-.4 2 0 0 .8.3 1.3.6 1.8l.9-.4c.6.1 1.2.4 1.6.7l2.2-.3.9.4c.7-.7 2.2.4 2.7.7 1.1 0 1.4-1 2.5-.3l1.2.2c-.4 1.5-.9 1.5-2.2 2.2l-4 .4-.8.9-1.8.1c-.6.3-2.8 2.2-3.2.8-.9.2-1.9.5-2.7 0-.4.4-.4.9-.5 1.4-.9.9-3.1-.5-3.8-1.2-.5 0-1 .4-1.3.8-.8.2-2.9.1-3.2-.9-.8 0-2-.2-2.6.5a5 5 0 00-3.2 1l-2.2.4z"
      class="st35"
    />
    <path
      d="M74.4 140.5l.5-.6c3.2-1.8 6.4-3.8 9.6-5.4.8-.6 1.2-.6 2.1-.9v.4l-3.4 1.7c-2.9 1.7-5.7 3.6-8.8 4.8zM87.3 140.5v-.3c.9-.6 6.7-4.8 7.6-4.3a25 25 0 01-5.9 3.4c-.4.6-1.1.9-1.7 1.2zM82.7 140.1l-.1-.2c.7-1.2 3.3-1.7 4.3-2.8.8 0 1.5-1.1 2.4-1.1l-1.4 1.1c-1.8.8-3.5 2.1-5.2 3zM86.6 139.9c-.2 0-.2-.3-.2-.4 2.2-1.5 5-3.6 7.6-4.2l-3.5 2.2-3.9 2.4zM77.6 139.9v-.4l6.2-3.5v.2l-6.2 3.7zM82.1 139.6a1 1 0 00-.3-.5l8.7-4.9h.5l-.2.4c-2.8 1.4-5.7 3.2-8.7 5zM75.1 139.4c0-1.3 6.8-4.3 8.3-5.3l.8-.1-2.1 1.2-4.2 2.6-2.8 1.6zM90.6 139.4c1.2-1.1 4.8-3.7 6.3-3.7l-4.2 2.7c-.8.3-1.5.6-2.1 1zM80.2 139.2l.4-.5c2.9-1.5 6.1-3.3 8.8-5.1l1.3-.5.1.3a11 11 0 01-2.6 1.5l-4.8 2.8c-.9.6-2.1 1.3-3.2 1.5z"
      class="st36"
    />
    <path
      d="M85.8 139.2c.2-1.2 3.2-2.2 4.2-2.8.5-.5 1.4-1.1 2.1-1.1-1.4 1.6-4.3 2.9-6.3 3.9zM92.7 139c0-.8 1.7-.8 2.1-1.5.8-.4 2.3-1.5 3.3-1.5v.2c-1.9.6-3.6 2.5-5.4 2.8zM75.7 138l-.1-.3c1.4-1.4 4.8-3.2 7-4.1l.2.4-3 1.5a90 90 0 00-4.1 2.5zM96.2 137.8v-.2c.5-.2 1.1-.9 1.5-.7l-1.5.9zM98.7 137.1v-.3l.8-.4v.3l-.8.4zM77 136c.3-.7 3.2-2.2 4-2.2-.8.9-2.8 1.6-4 2.2zM84.1 136c0-.4.5-.6.9-.6 0 .3-.8.6-.9.6zM90 135.7v-.3l1.4-.5-1.4.8zM76.6 135.3c0-.5.6-.5.9-.9.1 0 3.1-2.3 2.5-.9-1.1.7-2.2 1.3-3.4 1.8zM85.7 135.1c.5-.3 1.2-1 1.9-1l-1.9 1zM77.4 134c.3-.4 1.2-1.4 1.9-1.1-.7.4-1.3.6-1.9 1.1z"
      class="st36"
    />
    <path
      d="M76.4 125.1l-1.7-1.1c-.8.2-1.8.5-2.5 0l-.3-.7-1.3.6a8 8 0 01-3-.6l-.1-.7c-1.1 0-2.2-.4-3 .2-.7 0-2.1 0-2.6-.4l-.1-.5 1.3-1.4c-.2-.3-.4-.5-.4-.8l3.9.1c.5-.5 2.2-1.2 2.9-.5h.5l.3-.4 1 .4c.7-.4 1.1-.4 1.7 0-.3-.7-.4-1.4-.6-2.2 1.3 0 2 .8 3.1 1.3l2.5-.1c.5.6.8.9 1.4 1.2 2.5-.6 3.1.3 3.9 2.4l.9.5v.4c-.6.6-1.6.8-2.4.9 0 .3-1.3.8-1.6.9l-2.2-.3c-.5.5-1 .7-1.6.8z"
      class="st35"
    />
    <path
      d="M76.5 124.2c.5-.5 4.2-3.6 5.2-3.1l-1.3.7-3.9 2.4zM76 123.6c.2-.8 3.4-2.7 4.4-2.7v-.3l.4-.1c-1.2 1.3-3.3 2.2-4.8 3.1zM73.2 123.5v-.2l3.1-2 2.4-1.1c0 .4-4.8 3.1-5.5 3.3z"
      class="st36"
    />
    <path
      d="M95 123.5c-.5-.4-.9-.6-1-1.2-.8.2-1.3.7-2.3.4l-.6.4c-.9 0-2.1.2-2.6-.6l-.1-1.2c-1.3-.4-1-1.3-1.2-2.4.3-.2 1-.2 1.3.1a8 8 0 013.2-1.3c0-.4.4-.7.5-1.1.9 0 1.2.8 1.3 1.4.5 0 1.3 0 1.8.5H98l2.7 1.2c0 .5-.3 1.2-.7 1.6-.4 1.4-2 1.2-2-.4h-.3c0 1.5-.4 1.9-1.9 2.5l-.8.1z"
      class="st35"
    />
    <path
      d="M79.1 123.4c.6-.9 1.8-1.3 2.7-1.6v.2c-.9.4-1.8.8-2.7 1.4zM75.2 123.3v-.3l4.5-2.7v.3l-4.5 2.7zM69.7 122.9v-.2c1.7-1.3 3.4-2.3 5.2-3.4h.4l-.3.4-5.3 3.2zM72.8 122.9v-.3l1.9-1.4c.8-.3 2.3-1.4 3.2-1.4l-.9.7c-1.4.7-2.9 1.9-4.2 2.4zM72 122.5c0-.9 4.1-2.9 4.9-3.3l.4.2c-1.8.9-3.6 2-5.3 3.1zM69.4 122.3l.1-.4.5-.1-.6.5zM95.3 122.3l-.2-.5c.5-.4 1.1-.6 1.8-.6-.7.3-1.2.6-1.6 1.1zM89.7 121.9v-.4c1.6-.7 3.2-2.1 4.9-2.4v.2l-4.9 2.6zM92.5 121.9l.9-.7v.3l-.9.4zM68.5 121.8v-.3c.5-.4 1.7-1.3 2.4-1.3-.6.7-1.5 1.3-2.4 1.6zM64.2 121.7c.1-.5 1.3-1.1 1.7-1.1-.1.5-1.2 1-1.7 1.1zM70.1 121.7c.1-.3.9-.9 1.2-.6l-1.2.6zM65.9 121.6c.5-.4 1.5-1.3 2.3-1.3l-2.3 1.3zM67.5 121.5c.4-.4 1.5-1.4 2.2-1.2l-.6.5a6 6 0 00-1.6.7zM91.8 121.5c.3-.5 2.7-2.2 3.3-1.9l-3.3 1.9zM93.6 121.2l2.3-1.5c0-.3.5-.2.7-.3-.8.7-1.9 1.5-3 1.8zM89.6 121.2l-.2-.3c.8-.7 2.6-2.2 3.8-2.2 0 .4-3.2 2.2-3.6 2.5zM71.5 120.9c.3-.3.6-.9 1.1-.6l-1.1.6zM95.6 120.9c.3-.3.7-.9 1.2-.6l-1.2.6zM89.1 120.6v-.3c.9-.6 1.6-1.2 2.6-1.5 0 .3-2.4 1.5-2.6 1.8zM97.4 119.9c.2-.2.1-.4.6-.4v.3l-.6.1z"
      class="st36"
    />
  </g>
  <path
    d="M81.9 71.8c.3 0 .1.6-.1.7-.2.1-.7-.2-.7-.3-.1-.2 0-.4.2-.5.2-.1.5.1.6.1z"
    class="st33"
  />
  <linearGradient
    id="SVGID_7_"
    x1="51"
    x2="50.9"
    y1="37.5"
    y2="38.3"
    gradientUnits="userSpaceOnUse"
  >
    <stop offset="0" stop-color="#fff100" />
    <stop offset="0" stop-color="#fff100" />
    <stop offset=".2" stop-color="#fdea04" />
    <stop offset=".4" stop-color="#f9d610" />
    <stop offset=".7" stop-color="#f2b524" />
    <stop offset="1" stop-color="#e9893e" />
  </linearGradient>
  <path
    fill="url(#SVGID_7_)"
    fill-rule="evenodd"
    stroke="#231f20"
    stroke-width=".1"
    d="M51.5 37.8l-1.3.7"
    clip-rule="evenodd"
  />
  <path d="M30.9 69l-.6.8M35.7 77.7l-1 .2M43.8 94l-.9.6" class="st38" />
  <linearGradient
    id="SVGID_8_"
    x1="49.2"
    x2="49.1"
    y1="105"
    y2="105.4"
    gradientUnits="userSpaceOnUse"
  >
    <stop offset="0" stop-color="#fff100" />
    <stop offset="0" stop-color="#fff100" />
    <stop offset=".2" stop-color="#fdea04" />
    <stop offset=".4" stop-color="#f9d610" />
    <stop offset=".7" stop-color="#f2b524" />
    <stop offset="1" stop-color="#e9893e" />
  </linearGradient>
  <path
    fill="url(#SVGID_8_)"
    fill-rule="evenodd"
    stroke="#231f20"
    stroke-width=".1"
    d="M48.8 105.5l.7-.4"
    clip-rule="evenodd"
  />
  <linearGradient
    id="SVGID_9_"
    x1="83.2"
    x2="83.1"
    y1="39.2"
    y2="40.1"
    gradientUnits="userSpaceOnUse"
  >
    <stop offset="0" stop-color="#fff100" />
    <stop offset="0" stop-color="#fff100" />
    <stop offset=".2" stop-color="#fdea04" />
    <stop offset=".4" stop-color="#f9d610" />
    <stop offset=".7" stop-color="#f2b524" />
    <stop offset="1" stop-color="#e9893e" />
  </linearGradient>
  <path
    fill="url(#SVGID_9_)"
    fill-rule="evenodd"
    stroke="#231f20"
    stroke-width=".1"
    d="M82.6 40.4l1-.8"
    clip-rule="evenodd"
  />
  <linearGradient
    id="SVGID_10_"
    x1="114"
    x2="115.1"
    y1="37.5"
    y2="38.5"
    gradientUnits="userSpaceOnUse"
  >
    <stop offset="0" stop-color="#fff" />
    <stop offset=".2" stop-color="#fcfdfd" />
    <stop offset=".2" stop-color="#f4f4f4" />
    <stop offset=".3" stop-color="#e6e6e7" />
    <stop offset=".4" stop-color="#d1d2d3" />
    <stop offset=".4" stop-color="#b7b8ba" />
    <stop offset=".5" stop-color="#97999b" />
    <stop offset=".5" stop-color="#7a7c7f" />
    <stop offset=".6" stop-color="#9a9c9e" />
    <stop offset=".6" stop-color="#b9babc" />
    <stop offset=".7" stop-color="#d3d4d5" />
    <stop offset=".7" stop-color="#e7e7e7" />
    <stop offset=".8" stop-color="#f4f5f5" />
    <stop offset=".9" stop-color="#fdfdfd" />
    <stop offset="1" stop-color="#fff" />
  </linearGradient>
  <path
    fill="url(#SVGID_10_)"
    fill-rule="evenodd"
    stroke="#231f20"
    stroke-width=".1"
    d="M113.8 37.8l1.6.5"
    clip-rule="evenodd"
  />
  <path d="M138.8 63l.6 1.6M137.3 66.1l.9.7M134.2 73.1l.6 1.2" class="st42" />
  <linearGradient
    id="SVGID_11_"
    x1="130.6"
    x2="131.4"
    y1="81.6"
    y2="82.3"
    gradientUnits="userSpaceOnUse"
  >
    <stop offset="0" stop-color="#fff" />
    <stop offset=".2" stop-color="#fcfdfd" />
    <stop offset=".2" stop-color="#f4f4f4" />
    <stop offset=".3" stop-color="#e6e6e7" />
    <stop offset=".4" stop-color="#d1d2d3" />
    <stop offset=".4" stop-color="#b7b8ba" />
    <stop offset=".5" stop-color="#97999b" />
    <stop offset=".5" stop-color="#7a7c7f" />
    <stop offset=".6" stop-color="#9a9c9e" />
    <stop offset=".6" stop-color="#b9babc" />
    <stop offset=".7" stop-color="#d3d4d5" />
    <stop offset=".7" stop-color="#e7e7e7" />
    <stop offset=".8" stop-color="#f4f5f5" />
    <stop offset=".9" stop-color="#fdfdfd" />
    <stop offset="1" stop-color="#fff" />
  </linearGradient>
  <path
    fill="url(#SVGID_11_)"
    fill-rule="evenodd"
    stroke="#231f20"
    stroke-width=".1"
    d="M130.4 81.9l1.2.2"
    clip-rule="evenodd"
  />
  <path d="M126.4 89.7l.7.6" class="st42" />
  <linearGradient
    id="SVGID_12_"
    x1="139"
    x2="139.8"
    y1="108.1"
    y2="108.8"
    gradientUnits="userSpaceOnUse"
  >
    <stop offset="0" stop-color="#fff" />
    <stop offset=".2" stop-color="#fcfdfd" />
    <stop offset=".2" stop-color="#f4f4f4" />
    <stop offset=".3" stop-color="#e6e6e7" />
    <stop offset=".4" stop-color="#d1d2d3" />
    <stop offset=".4" stop-color="#b7b8ba" />
    <stop offset=".5" stop-color="#97999b" />
    <stop offset=".5" stop-color="#7a7c7f" />
    <stop offset=".6" stop-color="#9a9c9e" />
    <stop offset=".6" stop-color="#b9babc" />
    <stop offset=".7" stop-color="#d3d4d5" />
    <stop offset=".7" stop-color="#e7e7e7" />
    <stop offset=".8" stop-color="#f4f5f5" />
    <stop offset=".9" stop-color="#fdfdfd" />
    <stop offset="1" stop-color="#fff" />
  </linearGradient>
  <path
    fill="url(#SVGID_12_)"
    fill-rule="evenodd"
    stroke="#231f20"
    stroke-width=".1"
    d="M139 108.1l.8.7"
    clip-rule="evenodd"
  />
  <linearGradient
    id="SVGID_13_"
    x1="134.8"
    x2="135.3"
    y1="113.7"
    y2="114.2"
    gradientUnits="userSpaceOnUse"
  >
    <stop offset="0" stop-color="#fff" />
    <stop offset=".2" stop-color="#fcfdfd" />
    <stop offset=".2" stop-color="#f4f4f4" />
    <stop offset=".3" stop-color="#e6e6e7" />
    <stop offset=".4" stop-color="#d1d2d3" />
    <stop offset=".4" stop-color="#b7b8ba" />
    <stop offset=".5" stop-color="#97999b" />
    <stop offset=".5" stop-color="#7a7c7f" />
    <stop offset=".6" stop-color="#9a9c9e" />
    <stop offset=".6" stop-color="#b9babc" />
    <stop offset=".7" stop-color="#d3d4d5" />
    <stop offset=".7" stop-color="#e7e7e7" />
    <stop offset=".8" stop-color="#f4f5f5" />
    <stop offset=".9" stop-color="#fdfdfd" />
    <stop offset="1" stop-color="#fff" />
  </linearGradient>
  <path
    fill="url(#SVGID_13_)"
    fill-rule="evenodd"
    stroke="#231f20"
    stroke-width=".1"
    d="M135.4 114.1l-.7-.3"
    clip-rule="evenodd"
  />
  <path
    fill="#fff"
    fill-rule="evenodd"
    stroke="#231f20"
    stroke-width=".1"
    d="M122.6 99.7l-1.1.8"
    clip-rule="evenodd"
  />
  <path d="M32.2 112.4l.1 1.1M33.5 115.2l1.1.2" class="st42" />
  <path
    fill="#9c9ea1"
    fill-rule="evenodd"
    d="M58.9 56.5l.5 31-.4.4-.5-31.1z"
    clip-rule="evenodd"
  />
  <path
    fill="#c5c7c9"
    fill-rule="evenodd"
    d="M58.4 56.9l.5 31-.3.4-.5-31.1z"
    clip-rule="evenodd"
  />
  <path
    fill="#dbdcdd"
    fill-rule="evenodd"
    d="M58 57.3l.5 30.9-.4.4-.5-31.1z"
    clip-rule="evenodd"
  />
  <path
    d="M54.1 52.2l.6-.4 1 3.6.1 2.9zM110.7 55.4l.8.3-2.7 14.1-.3-2.5z"
    class="st42"
  />
  <linearGradient
    id="SVGID_14_"
    x1="112.4"
    x2="108"
    y1="19.4"
    y2="76.6"
    gradientUnits="userSpaceOnUse"
  >
    <stop offset="0" stop-color="#fff100" />
    <stop offset="0" stop-color="#fff100" />
    <stop offset=".2" stop-color="#fdea04" />
    <stop offset=".4" stop-color="#f9d610" />
    <stop offset=".7" stop-color="#f2b524" />
    <stop offset="1" stop-color="#e9893e" />
  </linearGradient>
  <path
    fill="url(#SVGID_14_)"
    fill-rule="evenodd"
    stroke="#231f20"
    stroke-width=".1"
    d="M108.4 54.4l1-3.6.2 4.6.8-3.1.6 3.2-.2-.6-2.2 11.8z"
    clip-rule="evenodd"
  />
  <linearGradient
    id="SVGID_15_"
    x1="60.2"
    x2="58.8"
    y1="42.5"
    y2="58.1"
    gradientUnits="userSpaceOnUse"
  >
    <stop offset="0" stop-color="#fff100" />
    <stop offset="0" stop-color="#fff100" />
    <stop offset=".2" stop-color="#fdea04" />
    <stop offset=".4" stop-color="#f9d610" />
    <stop offset=".7" stop-color="#f2b524" />
    <stop offset="1" stop-color="#e9893e" />
  </linearGradient>
  <path
    fill="url(#SVGID_15_)"
    fill-rule="evenodd"
    stroke="#231f20"
    stroke-width=".1"
    d="M54.8 51.9l1.5-4.6-.4 5 1.4-3.5v2.9l1.5-3 .1 2.4 1.5-2.8-.1 2.8 1.7-1 1.9 2.9-5.7 1-2.5 1.1z"
    clip-rule="evenodd"
  />
</svg>
