<svg xmlns="http://www.w3.org/2000/svg" viewBox="0 0 175 44.5">
  <path
    fill="#c8102e"
    d="M38.7 18c-7.1 0-13.4 5.4-13.4 13.4 0 7 5.7 13 13.4 13 7.6 0 13.4-5.8 13.4-13.2C52 24 46.3 18 38.7 18zm51.9 0c-4 0-8.1 2.6-8 7.4 0 4.7 4.5 6.2 6.5 7 3.2 1.2 5.7 1.8 5.7 4.7 0 2.3-2 4.1-4.2 4.1-1.4 0-4-.7-4.4-4.6h-4c.1 4.6 2.9 7.6 7.5 8h.9c5.5 0 8.2-3.6 8.2-7.7 0-4.2-3-5.8-6-7.2-4.2-1.5-6-2-6-4.6 0-2.1 1.7-3.6 3.8-3.6 2.9 0 3.5 2.2 3.9 3.6h4c-.5-5.2-4.7-7.1-8-7.1zm43.9 0c-7.2 0-13.4 5.4-13.4 13.4 0 6.8 5.2 12.7 12.6 13h.8c7.6 0 13.3-5.8 13.3-13.2 0-7.2-5.7-13.2-13.3-13.2zM0 18.5V44h4V33h11V44h4.2V18.6h-4.1v10.8H4V18.6L0 18.5zm58.2 0v16c0 3.1.3 5.6 2.8 7.9 1.5 1.5 3.7 2 5.5 2h.7c2.5 0 4.5-.8 6.1-2.2 2.3-1.8 2.8-4.5 2.8-7.8v-16h-4v16c0 1.7 0 3.2-1 4.6-.8 1.1-2.1 2-3.9 2-1.7 0-3.1-.9-3.9-2-.8-1.5-.8-2.9-.8-4.5v-16h-4.3zm44.3 0V22h5.8v22h4.2v-22h5.8v-3.6h-15.8zm51.6 0V44h3.9l-.2-19.5 13.4 19.5h3.8V18.6h-4l.2 19.5L158 18.6h-4v-.1zM38.7 21.6c5.6 0 9.3 4.8 9.3 9.8 0 5-3.8 9.6-9.3 9.6-3.7 0-6.7-2-8.4-5.1l-.3-1a9.6 9.6 0 018.8-13.4v.1zm95.8 0c5.6 0 9.2 4.8 9.2 9.8 0 5-3.7 9.6-9.2 9.6-3.8 0-6.8-2-8.4-5.1l-.4-1a9.6 9.6 0 018.8-13.4v.1z"
  />
  <path
    fill="#888b8d"
    d="M99.8 0C98.1 0 96.5 1 96.5 3s1.8 2.6 2.7 2.9c1.4.5 2.4.7 2.4 2 0 1-.9 1.7-1.8 1.7-.6 0-1.7-.3-1.8-2h-1.8c0 2.2 1.4 3.4 3.5 3.4 2.3 0 3.5-1.5 3.5-3.2 0-1.8-1.2-2.5-2.6-3-1.8-.7-2.5-1-2.5-2s.7-1.5 1.6-1.5c1.3 0 1.5.8 1.6 1.5h1.8c0-2.2-1.8-3-3.3-3zM18 .2v11h1.6V2.8l5.6 8.2h1.6V.2h-1.6v8.3L19.6.2H18zm104.7 0v1.5h2.5V11h1.8V1.7h2.5V.2h-6.8zM.8.2V7c0 1.4.2 2.4 1.2 3.4.7.7 1.8.8 2.6.8 1.1 0 1.9-.3 2.6-1 1-.7 1.1-1.8 1.1-3.3V0H6.6V7c0 .7 0 1.2-.4 1.8-.2.5-.9 1-1.6 1-.8 0-1.4-.5-1.6-1-.4-.6-.4-1.2-.4-1.8V0L.8.2zm35.5 0v11h1.8V.1h-1.8zm10.4 0l4 11h1.8l4-11h-1.7l-3 8.8L48.5.2h-1.9zm18.4 0v11h6V9.5h-4.4V6.4h4.4V4.9h-4.3V1.7h4.3V.2h-6zm15.2 0v11h1.8V1.8h1.5c.7 0 1.4 0 1.9.3.6.4.8 1.2.8 2 0 .7-.2 1.3-.7 1.7-.5.5-1.4.5-2.1.5H83l3 4.8H88l-2.5-4a3 3 0 002-1c.5-.7.7-1.3.7-2.2 0-1.3-.5-2.4-1.4-2.9-.6-.4-1.5-.6-3-.6L80.2.2zm32.2 0v11h1.7V.1h-1.7zm25 0l3.3 7v4h1.8v-4l3.4-7h-2l-2.3 5.4-2.4-5.4h-1.8zm36.8.2c-.8 0-2.3 0-2.3 2v.3h-1v1h1v5.4h1.2V3.7h1.1v-1h-1v-.3c0-1.2.7-1.2 1-1.2V.4zm-9.7 2.2a3.3 3.3 0 00-3.4 3.4c0 1.7 1.3 3.4 3.4 3.4 2.1 0 3.4-1.7 3.4-3.4 0-1.8-1.3-3.4-3.4-3.4zm0 1.1c1.2 0 2.1 1 2.1 2.3 0 1.2-1 2.2-2.1 2.2-1.3 0-2.1-1-2.1-2.2-.2-1.4.8-2.3 2-2.3z"
  />
</svg>
