<svg xmlns="http://www.w3.org/2000/svg" viewBox="0 0 175.5 177.8">
  <style>
    .st4 {
      fill: #fff;
    }
    .st5 {
      fill: #7b7d7f;
    }
    .st6 {
      fill: none;
      stroke: #808184;
      stroke-width: 1.1325;
      stroke-miterlimit: 3.8637;
    }
    .st13 {
      fill-rule: evenodd;
      clip-rule: evenodd;
      fill: #fff;
    }
  </style>
  <linearGradient
    id="SVGID_1_"
    x1="2.6"
    x2="171.6"
    y1="93.2"
    y2="93.2"
    gradientUnits="userSpaceOnUse"
  >
    <stop offset="0" stop-color="#e6e7e8" />
    <stop offset="1" stop-color="#6d6e70" />
  </linearGradient>
  <path
    fill="url(#SVGID_1_)"
    stroke="#a6a8ab"
    stroke-miterlimit="3.9"
    d="M2.6 93.2C7.8-20 167.4-18 171.6 93.2c-5.2 113.2-164.8 111.2-169 0z"
  />
  <linearGradient
    id="SVGID_2_"
    x1="87.1"
    x2="87.1"
    y1="93.2"
    y2="93.2"
    gradientUnits="userSpaceOnUse"
  >
    <stop offset="0" stop-color="#e6e7e8" />
    <stop offset="1" stop-color="#6d6e70" />
  </linearGradient>
  <linearGradient
    id="SVGID_3_"
    x1="98.6"
    x2="75.6"
    y1="158.6"
    y2="27.8"
    gradientUnits="userSpaceOnUse"
  >
    <stop offset="0" stop-color="#d0d2d3" />
    <stop offset="1" stop-color="#58595b" />
  </linearGradient>
  <path
    fill="url(#SVGID_3_)"
    stroke="#fff"
    stroke-miterlimit="3.9"
    d="M20.5 93.2c4.2-89.5 130-87.4 133.2 0-4.2 89.5-130 87.4-133.2 0z"
  />
  <linearGradient
    id="SVGID_4_"
    x1="87.1"
    x2="87.1"
    y1="93.2"
    y2="93.2"
    gradientUnits="userSpaceOnUse"
  >
    <stop offset="0" stop-color="#d0d2d3" />
    <stop offset="1" stop-color="#58595b" />
  </linearGradient>
  <path
    d="M33.3 93.2c3.5-72.4 105-70.3 107.5 0-3.4 72.4-105 70.3-107.5 0z"
    class="st4"
  />
  <path
    d="M156.1 11l17.5 17.5-27.2 27.2-17.5-17.5L156.1 11zM128.9 38.2L156.1 11"
    class="st5"
  />
  <path
    fill="none"
    stroke="#a6a8ab"
    stroke-miterlimit="3.9"
    d="M128.9 38.2L156.1 11"
  />
  <path
    fill="none"
    stroke="#58595b"
    stroke-miterlimit="3.9"
    d="M173.6 28.5l-27.2 27.2"
  />
  <g fill-rule="evenodd" clip-rule="evenodd">
    <path fill="#7b7d7f" d="M175 53.7a87.2 87.2 0 00-42.9-45.1l42.8.1.1 45z" />
    <path
      fill="none"
      stroke="#a6a8ab"
      stroke-miterlimit="3.9"
      d="M175 53.7a87.2 87.2 0 00-42.9-45.1l42.8.1.1 45z"
    />
  </g>
  <path
    fill="#274084"
    fill-rule="evenodd"
    d="M0 93.2c0-7.5.6-13.4 2.7-21.6l168.9.4a85 85 0 01-.7 45l-167.7-.2A79.7 79.7 0 010 93.2z"
    clip-rule="evenodd"
  />
  <g>
    <path
      d="M98.8 95c.5 4.6-7.3 8.1-9.8 5.1.8-4.3-2.8-13.8 4.1-12v-3.5H74.6V88c6.4-.6 4 .8 4.4 7.8.4 6.3-.1 5-4.4 5.1v3.5h27.8V95h-3.6zM101.8 88.2c0-.3-4-.1-4.5-.1v-3.5h20v3.5c-.9.3-3.5-.6-4 .4l6 10.1 5.6-10.2c.2-.5-3.1-.2-3.6-.3v-3.5h14v3.5c-.7.1-3.6-.1-4.4.1l-8.8 16.3h-10.9l-9.4-16.3zM14.5 88.2c0-.3-4-.1-4.5-.1v-3.5h20v3.5c-.9.3-3.5-.6-4 .4l6 10.1 5.6-10.2c.2-.5-3.1-.2-3.6-.3v-3.5h14v3.5c-.7.1-3.6-.1-4.4.1l-8.8 16.3h-11l-9.3-16.3z"
      class="st13"
    />
    <path
      d="M45.6 94.5c1.1-13.9 27.8-12.5 28.1 0-1.1 13.9-27.8 12.5-28.1 0zm16.7 5.7c3.8-3.3 1.8-16.6-5.5-10.8-2.8 3.3-1.3 15 5.5 10.8zM133 94.5c1.1-13.9 27.8-12.5 28.1 0-1.1 13.9-27.8 12.5-28.1 0zm16.7 5.7c3.8-3.3 1.8-16.6-5.5-10.8-2.9 3.2-1.3 15 5.5 10.8z"
      class="st13"
    />
  </g>
</svg>
