<svg xmlns="http://www.w3.org/2000/svg" viewBox="0 0 75 75">
  <title>W3C</title>
  <path fill="none" d="M-1-1h582v402H-1z" />
  <g>
    <path fill="#0067b1" d="M0 0h75v75H0V0z" />
    <path
      fill="#fff"
      d="M21.7 23.4l5.1 17.3 5.1-17.3h13.8v1.7L40.5 34c1.8.6 3.2 1.7 4.1 3.2.9 1.5 1.4 3.4 1.4 5.4 0 2.6-.7 4.7-2.1 6.5a6.3 6.3 0 01-5.3 2.6c-1.6 0-3.1-.5-4.3-1.6a9 9 0 01-2.7-4.2l2.9-1.2c.4 1.1 1 1.9 1.7 2.5s1.5.9 2.4.9c1 0 1.8-.5 2.5-1.6s1-2.4 1-4c0-1.7-.4-3-1.1-4-.8-1.1-2.2-1.7-4-1.7h-1.4v-1.7l4.9-8.5h-5.9l-.3.6-7.2 24.3h-.4l-5.3-17.6-5.3 17.6h-.4L7.5 23.4h3.7l5.1 17.3L19.7 29 18 23.4h3.7zm43.1 1.5c.5 0 .8.1.8.5s-.2.5-.8.5h-.5v-1h.5zm.1-.4h-1.1v3h.6v-1.3h.6l.6 1.3h.6l-.7-1.4c.4-.1.7-.4.7-.8-.1-.5-.5-.8-1.3-.8zm2.2 1.6a2 2 0 01-.7 1.6c-.5.4-1 .7-1.7.7a2 2 0 01-1.6-.7c-.4-.4-.7-1-.7-1.6 0-.6.3-1.2.7-1.7.4-.4 1-.7 1.6-.7.6 0 1.2.2 1.7.7.5.5.7 1 .7 1.7zm-2.3-2.7a2.7 2.7 0 00-2.7 2.7 2.7 2.7 0 002.7 2.7c.7 0 1.4-.3 1.9-.8s.8-1.1.8-1.9a2.7 2.7 0 00-2.7-2.7zm-4.5-.2l.6 3.6-2.1 4s-.8-1.7-2.2-2.7c-1.1-.8-1.9-1-3-.7-1.5.3-3.2 2.1-3.9 4.3-.9 2.6-.9 3.9-.9 5 0 1.9.2 3 .2 3s-1.3-2.4-1.3-5.8c0-2.5.4-4.7 1.5-6.9 1-2 2.5-3.1 3.8-3.3 1.4-.1 2.5.5 3.3 1.2.9.8 1.8 2.4 1.8 2.4l2.2-4.1zm.2 20.5s-.9 1.7-1.5 2.3c-.6.6-1.6 1.8-2.9 2.3-1.3.6-2 .7-3.2.5-1.3-.1-2.4-.9-2.9-1.2-.4-.3-1.5-1.2-2.1-2.1-.6-.8-1.5-2.5-1.5-2.5l.8 2.4c.2.4.8 1.7 1.6 2.8.8 1 2.2 2.8 4.5 3.2 2.2.4 3.8-.6 4.2-.9.4-.2 1.2-.9 1.7-1.5l1.3-1.7.5-1-.5-2.6z"
    />
  </g>
</svg>
