<svg xmlns="http://www.w3.org/2000/svg" viewBox="0 0 188 167">
  <style>
    .st1 {
      fill: #fff;
    }
  </style>
  <path fill="#d01f3c" d="M179.4 5.5H5.5v153.7h175V5.5h-1.1" />
  <path
    d="M22.2 71.7l-.2-.8c0-.7.1-1 .9-1 .9 0 .7 1.4 2.3 4.2 1.9 3.3 4.8 5.3 7.6 5.3 3.4 0 6.2-2.3 6.2-6 0-3.5-2.6-4.5-7.4-6.6-5.5-2.4-9-3.8-9-9.7 0-4.6 3.5-8.6 8.9-8.6 3.5 0 5.2 1.5 6.8 1.5 1.1 0 1.4-.6 1.9-.6.6 0 .8.3.8 1l-.1 1.6c0 2.1.6 4.3.6 5.8 0 .7-.1.9-.7.9-1.3 0-.5-1.3-2.3-4.3a8.7 8.7 0 00-7.3-4.2c-3 0-5 2-5 4.4 0 2.8 2.1 4.2 6.3 5.8 3 1.2 5.5 1.9 7.1 3.5a9.3 9.3 0 012.7 7c0 6.2-4.2 10.2-9.9 10.2-3 0-5.2-1.3-7-1.6-1.7-.3-1.6-.1-1.9-1.7l-1.3-6.1M57 48.9c.2-.4.3-.6.7-.6.3 0 .6.3.9.8l11.5 27c.6 1.5 1.3 2.4 2.7 2.9 1.2.4 1.7.3 1.7 1.3 0 .8-.2.9-.8.9-1.2 0-3.3-.4-6.4-.4-3.4 0-5.3.5-5.7.5-.4 0-.7-.4-.7-.9 0-1.3 3.3-.8 3.3-3.5 0-.5-.1-1.3-.5-2l-1.3-3c-.8-1.9-1.3-1.9-3.1-1.9h-6.4c-2 0-2.8 0-3.5 1.9L48.1 75c-.2.6-.4 1.1-.4 1.5 0 1.4 1 2.2 3.1 2.6 1.1.2 1.8.3 1.8 1 0 .6-.4.9-1 .9-.9 0-2.9-.5-5.8-.5-2.2 0-3.4.4-3.9.4-.6 0-1-.3-1-.9 0-1 1-.9 1.9-1.4 1.2-.8 1.9-2.2 2.8-4.2L57 48.9m1.8 18.5c1 0 1.4-.2 1.4-.6l-.4-1.4-3.2-7.6c-.2-.6-.5-.9-.7-.9-.2 0-.5.2-.7.7l-3.4 8-.3 1.1c0 .6.6.7 2 .7h5.3zM78.8 51.9c-1.6-1.5-3.9-.5-3.9-1.9 0-.5.4-1 1.1-1 .9 0 2.8.4 5.9.4 3.7 0 5.8-.4 6.4-.4.5 0 .9.3.9.9 0 1.1-1.4.8-2.5 1.8-1.2 1.1-1.2 2.4-1.2 4.5v18.3c0 3.1 0 4.2 3.6 4.2 3 0 6.2-1 8.1-2.6 1.9-1.6 1.9-3.2 2.8-3.2.4 0 .7.4.7.9 0 .9-.6 3.3-1.8 4.9-1.3 1.8-3.2 2.6-6 2.6-2.2 0-5-.4-8.4-.4-3.8 0-6.3.4-7.2.4-.7 0-1.1-.3-1.1-.8 0-1 1-1.1 2.1-1.8 1.3-.8 1.8-2.2 1.8-4.2v-18c-.1-2.2-.1-3.5-1.3-4.6"
    class="st1"
  />
  <path
    d="M103.5 51.9c-1.6-1.5-3.9-.5-3.9-1.9 0-.6.4-1 1.2-1 .4 0 3 .4 7.8.4 6.6 0 10.8-.4 12.8-.4 1.5 0 1.8.1 1.8 1.6v4.7c0 .7-.1.9-.7.9-1.2 0-.5-1.3-1.2-2.6-.9-1.9-3.1-2.6-7.6-2.6-2.7 0-3.7.6-3.7 2.6v7.1c0 1.4.5 1.9 1.9 1.9h1.4c1.9 0 3.1-.4 4-1.5.9-1.2.9-2.6 1.9-2.6.5 0 .7.3.7 1 0 .3-.2 1.4-.2 3.4 0 3.4.4 5.3.4 5.9 0 .6-.3.9-.8.9-1.1 0-.7-1.1-1.2-2.6-.7-1.9-1.9-2.4-4.6-2.4H112c-1.7 0-1.9.7-1.9 2.5v7.1c0 3.2.2 4.2 3.6 4.2 3 0 6.2-1 8.1-2.6 1.9-1.6 1.9-3.2 2.8-3.2.4 0 .6.4.6.9 0 .9-.6 3.3-1.8 4.9-1.3 1.8-3.2 2.6-6 2.6-2.2 0-5-.4-8.5-.4-3.8 0-6.3.4-7.2.4-.7 0-1.1-.3-1.1-.8 0-1 .9-1.1 2.1-1.8 1.3-.8 1.8-2.2 1.8-4.2V56.5c.2-2.2.1-3.5-1-4.6M131.4 60.4v-2.2c0-3-.3-5.3-1.9-6.7-1.4-1.2-2.6-.5-2.6-1.7 0-.6.2-.8.9-.8.2 0 1.4.2 3.8.2l2.9-.1c.7 0 .9.3 1.4 1.3l10 21.5c.2.4.4.6.6.6.2 0 .5-.2.6-.5L158 49.9c.3-.5.5-.7 1.2-.7l2.1.2c1.5 0 2.7-.3 3.5-.3.7 0 .9.2.9.9 0 1-.7.3-2.6 1.4-1.1.6-1.5 1.8-1.5 3.8v.4l.5 18.1c0 2.3.3 3.8 1.7 4.8 1.5 1.1 2.6.3 2.6 1.5 0 .8-.3 1-1.2 1-.8 0-2.6-.4-5.2-.4-2.7 0-4.4.4-5.2.4-.7 0-1.1-.3-1.1-.9 0-.9.9-.8 1.8-1.4 1.1-.8 1.4-1.7 1.4-3.4v-.9l-.6-14.1c0-.7-.2-1.1-.4-1.1s-.5.4-.9 1.2l-9.5 19.3c-.3.6-.5 1-1 1-.6 0-.7-.4-1-1.1l-8.8-19.5c-.2-.5-.4-.9-.6-.9-.2 0-.4.4-.4 1.2l-.4 11.2v2c0 2.5.4 4.2 2.1 5.1 1.2.6 2.5.1 2.5 1.4 0 .7-.4.8-1.1.8-1 0-2.4-.3-4.5-.3-2.4 0-4 .4-4.7.4-.3 0-.7-.5-.7-1 0-.9 1.8-.9 2.8-1.9.9-.8 1.2-2.9 1.4-6.3l.3-11.4M48 23a9 9 0 01-1.8.2l-1.9-.1-1.1-.1c-.5 0-.8.1-.8.7s.4.7.9.8l.4.1c.9.3 1.3 1 1.3 2.1a8 8 0 01-.5 2.3l-3.2 8.9-.3.3-.2-.3-3.6-10.1c-.3-.9-.5-1.8-.5-2.3 0-.8.3-1.1.7-1.2.5-.1.8-.4.8-.8s-.3-.6-.6-.6l-.5.1-2.8.2-2.3-.1-1-.1c-.5 0-.7.1-.7.6s.4.7.8.8l.3.1c.4.2.8.8 1.2 1.9l1.6 4.3.1.5-.1.6-3.3 7-.2.2-.2-.2-4-11c-.3-.8-.4-1.5-.4-2 0-1 .5-1.3 1-1.5.3-.2.6-.3.6-.7 0-.3-.3-.6-.6-.6h-.6l-3 .2-2.6-.2h-1.1c-.5 0-.7.2-.7.7 0 .5.4.7 1 .9 1 .3 1.7 1 2.1 2l6.6 17.9c.1.4.4.6.7.6.4 0 .5-.2.6-.5l5.1-11 .2-.1.1.1 4 10.9c.1.4.4.6.7.6.4 0 .5-.2.6-.5l6.1-16.7c.6-1.6 1.1-2.8 1.7-3.2l.4-.1c1.3-.1 1-.3 1-.8s-.2-.8-1-.7l-1-.1"
    class="st1"
  />
  <path
    d="M57 23a38.8 38.8 0 01-7.4 0h-.4c-.4 0-.9.2-.9.7 0 .7.1.7 1.1.8.5 0 1 .2 1.5.5.8.6.8 1.4.8 3.1v11.8c0 1.4-.4 2.3-1 2.7l-.7.3c-.5.2-.9.4-.9 1 0 .3.2.7.8.7l1.2-.1 2.8-.2 2.8.2 1.4.1c.6 0 1-.3 1-.8 0-.7-.6-.7-1.2-.8l-.9-.2c-1-.3-1.5-1.3-1.5-2.9v-12c0-1.4.1-2.4.7-2.9a2 2 0 011-.5c.4-.1.9-.3.9-.8 0-.4-.3-.7-.7-.7H57m-6 1.8M80.8 23.1l-2.5.1-1.8-.1-1-.1c-.6 0-.8.4-.8.7 0 .5.4.6 1 .7.5.1 1.1.2 1.7.6.9.6 1.1 1.8 1.1 3.7v7.7c0 1.1-.2 1.3-.3 1.3-.1 0-.5-.2-1.1-1L66.6 24.2c-.7-.9-1-1.2-1.8-1.2l-2.6.1-1-.1h-.8c-.5 0-.7.2-.7.7 0 .6.4.7.8.7.5.1 1 .1 1.6.7.6.6.9 1.7.9 3.6v7.6c0 3.2-.3 5.4-.9 6-.3.4-.8.5-1.2.7-.4.1-.8.3-.8.7 0 .7.4.8.7.8l.8-.1a16.1 16.1 0 015 0l.7.1c.6 0 .9 0 .9-.7 0-.6-.6-.7-1.2-.8-.5-.1-1.1-.2-1.5-.6-.9-.9-1-2.8-1-6.1v-7c0-1.1.2-1.1.2-1.1l.6.5 12.7 15c.6.7.9 1.1 1.5 1.1.5 0 .5-.7.5-1.4l.2-15.3c0-1.7.1-2.7 1-3.4l.8-.4c.4-.1.7-.3.7-.8 0-.6-.3-.7-.7-.7l-1.2.3M83.9 28.6c0 4 2.4 5 6 6.5l.5.2c2.8 1.2 4.4 1.9 4.4 4.1 0 2.3-1.6 3.9-4 3.9-1.9 0-3.7-1.3-5-3.5-.5-.8-.7-1.5-.9-1.9-.2-.6-.3-.9-.8-.9-.7 0-.7.4-.7.8l.1.6 1 4.4c.2.9.2.9 1.1 1.1h.3l1.4.4c.9.3 1.9.7 3.2.7 4 0 6.7-2.8 6.7-6.9 0-1.9-.6-3.6-1.8-4.8-.9-.9-2.3-1.4-3.9-2.1l-.8-.3c-2.7-1-4.1-1.9-4.1-3.8 0-1.6 1.4-2.8 3.2-2.8a6 6 0 014.8 2.7c.5.9.7 1.6.8 2 .1.6.2.9.8.9.5 0 .6-.4.6-.7l-.2-1.7-.2-2.2.1-1.1c0-.4-.1-.8-.7-.8l-.4.2-.8.2c-.4 0-.9-.2-1.4-.4-.8-.3-1.7-.7-3.1-.7-3.6 0-6.2 2.5-6.2 5.9M116.4 23l-3.9.1h-7.1l-3.7-.1-1.2-.1c-.9 0-.9.4-1 1.3l-.4 3.4-.1.6c0 .5.2.8.6.8.7 0 .8-.4.9-1.1l.5-1.5c.6-1.3 1.8-1.5 4.4-1.5 1.7 0 1.9.1 1.9 1.3v13.6c0 1.5-.5 2.4-1.6 2.9l-.8.3c-.5.1-1 .2-1 .8 0 .4.4.7 1 .7l1.5-.1a29.6 29.6 0 016.5 0l1.1.1c.8 0 .9-.5.9-.7 0-.6-.5-.8-1.1-.9l-.9-.2c-1.1-.5-1.6-1.3-1.6-2.9V26.4c0-1.3.2-1.3 2.2-1.3h.2c2.3 0 3.4.2 4 1.3l.3.9c.1.5.2.8.8.8.5 0 .5-.2.5-.8V27l-.2-3.1c-.1-.9-.4-1-1.3-1l-1.4.1M119.8 34c0 6.3 4.6 11 11 11 6.8 0 11.8-4.8 11.8-11.4 0-6.3-4.6-10.9-11-10.9A11.2 11.2 0 00119.8 34m4.1-1.4c0-5.2 2.6-8.3 6.9-8.3 4.5 0 7.7 4.5 7.7 10.9 0 5-2.7 8.1-6.9 8.1-4.7 0-7.7-4.3-7.7-10.7zM163.9 23.1l-2.5.1-1.8-.1-1.1-.1c-.6 0-.8.4-.8.7 0 .5.4.6 1 .7.5.1 1.1.2 1.7.6.9.6 1.1 1.8 1.1 3.7v7.7c0 1.1-.2 1.3-.3 1.3-.1 0-.5-.2-1.1-1l-10.5-12.6c-.7-.9-1-1.2-1.8-1.2l-2.6.1-1-.1-.8-.1c-.4 0-.7.1-.7.7s.4.7.8.7c.4.1 1 .1 1.6.7.6.6.9 1.7.9 3.6v7.6c0 3.2-.3 5.4-.9 6-.3.4-.8.5-1.2.7-.4.1-.8.3-.8.7 0 .7.4.8.7.8l.8-.1a16.1 16.1 0 015 0l.7.1c.6 0 .9 0 .9-.7 0-.6-.6-.7-1.2-.8-.5-.1-1.1-.2-1.5-.6-.9-.9-1-2.8-1-6.1v-7c0-1.1.2-1.1.2-1.1.1 0 .4.2.6.5l12.7 15c.6.7.9 1.1 1.5 1.1.4 0 .5-.7.5-1.4l.2-15.3c0-1.7.1-2.7 1-3.4l.8-.4c.4-.1.7-.3.7-.8 0-.6-.3-.7-.7-.7l-1.1.5M22 110.7l-.2-.9c0-.7.1-1.1 1-1.1 1 0 .7 1.5 2.4 4.5 2 3.6 5.2 5.7 8.2 5.7 3.7 0 6.7-2.4 6.7-6.4 0-3.8-2.8-4.8-8-7-5.9-2.5-9.6-4.1-9.6-10.4 0-4.9 3.7-9.3 9.6-9.3 3.7 0 5.5 1.7 7.3 1.7 1.2 0 1.6-.6 2-.6.7 0 .9.3.9 1.1l-.1 1.7c0 2.2.7 4.6.7 6.3 0 .7-.1 1-.7 1-1.4 0-.6-1.4-2.5-4.6a9.4 9.4 0 00-7.8-4.5c-3.2 0-5.4 2.1-5.4 4.8 0 3 2.2 4.5 6.8 6.3 3.3 1.3 5.9 2.1 7.6 3.8a10 10 0 012.9 7.5c0 6.7-4.5 11-10.6 11-3.3 0-5.5-1.4-7.5-1.7-1.8-.3-1.7-.1-2.1-1.8l-1.6-7.1M56 89.1c-4 0-6.2.3-7.2 2.6-1.2 2.6-.7 4-2.2 4-.5 0-.8-.3-.8-1.1 0-.4.5-2.6.8-6.5.1-1.6.2-2 1.4-2 1.3 0 4 .3 8 .3h11.5c4.2 0 7-.3 8.6-.3 1.4 0 1.8.1 1.8 1.5l.4 5v.4c0 .9 0 1.1-.7 1.1-1.3 0-.9-1-1.7-2.7-1-1.9-2.7-2.2-6.6-2.2h-.4c-3.1 0-3.7.1-3.7 2.3v21.7c0 2.5.6 4 2.6 4.9 1.4.6 3.2.2 3.2 1.6 0 .7-.4 1-1.3 1-1.2 0-3.6-.4-6.9-.4-3.6 0-6.3.5-7.8.5-.9 0-1.4-.4-1.4-1 0-1.2 1.4-.9 2.9-1.6 1.9-.8 2.7-2.3 2.7-4.8v-22c0-2.1-.3-2.3-3.2-2.3M90.4 86.1c.2-.4.3-.7.8-.7.3 0 .7.3.9.9l12.4 29c.7 1.6 1.4 2.6 2.9 3.1 1.3.4 1.8.3 1.8 1.4 0 .8-.2.9-.9.9-1.3 0-3.6-.4-6.9-.4-3.6 0-5.7.5-6.2.5-.4 0-.8-.4-.8-1 0-1.4 3.5-.9 3.5-3.8 0-.6-.1-1.4-.5-2.1l-1.4-3.3c-.8-2-1.4-2.1-3.4-2.1H86c-2.2 0-3 0-3.8 2.1l-1.3 3.7c-.2.6-.4 1.2-.4 1.7 0 1.5 1.1 2.3 3.4 2.8 1.2.2 1.9.3 1.9 1.1 0 .7-.4 1-1.1 1-1 0-3.2-.5-6.3-.5-2.3 0-3.7.4-4.2.4-.7 0-1.1-.3-1.1-1 0-1 1.1-.9 2-1.6 1.3-.9 2-2.3 3-4.5l12.3-27.6m2 19.9c1.1 0 1.6-.2 1.6-.6a8 8 0 00-.4-1.5l-3.5-8.2c-.2-.6-.5-.9-.7-.9-.2 0-.5.2-.7.7l-3.6 8.6a5 5 0 00-.3 1.2c0 .6.6.7 2.2.7h5.4zM113.5 89.1c-4 0-6.2.3-7.2 2.6-1.2 2.6-.7 4-2.2 4-.5 0-.8-.3-.8-1.1 0-.4.5-2.6.8-6.5.1-1.6.2-2 1.4-2 1.3 0 4 .3 8 .3H125c4.2 0 7-.3 8.6-.3 1.4 0 1.7.1 1.8 1.5l.4 5v.4c0 .9 0 1.1-.7 1.1-1.3 0-.9-1-1.8-2.7-1-1.9-2.7-2.2-6.6-2.2h-.4c-3.1 0-3.7.1-3.7 2.3v21.7c0 2.5.6 4 2.6 4.9 1.4.6 3.2.2 3.2 1.6 0 .7-.4 1-1.3 1-1.2 0-3.5-.4-6.9-.4-3.5 0-6.3.5-7.8.5-.9 0-1.4-.4-1.4-1 0-1.2 1.4-.9 2.9-1.6 1.9-.8 2.7-2.3 2.7-4.8v-22c.1-2.1-.2-2.3-3.1-2.3M141.7 89.3c-1.7-1.6-4.2-.5-4.2-2.1 0-.6.4-1 1.3-1 .4 0 3.2.4 8.4.4 7 0 11.6-.4 13.8-.4 1.7 0 1.9.1 1.9 1.7V93c0 .7-.1 1-.8 1-1.3 0-.6-1.4-1.3-2.8-1-2.1-3.3-2.8-8.1-2.8-2.9 0-3.9.7-3.9 2.8v7.6c0 1.5.6 2 2.1 2h1.6c2.1 0 3.3-.4 4.3-1.7.9-1.3.9-2.8 2.1-2.8.6 0 .8.3.8 1 0 .3-.2 1.5-.2 3.7 0 3.6.4 5.7.4 6.3 0 .6-.3.9-.8.9-1.2 0-.7-1.2-1.3-2.8-.8-2-2.1-2.5-4.9-2.5H151c-1.8 0-2 .7-2 2.7v7.6c0 3.5.2 4.5 3.9 4.5 3.3 0 6.7-1.1 8.7-2.8 2.1-1.8 2.1-3.5 3.1-3.5.4 0 .7.4.7 1 0 1-.7 3.5-1.9 5.3-1.4 1.9-3.4 2.8-6.4 2.8-2.3 0-5.4-.4-9.1-.4-4.1 0-6.8.4-7.7.4-.8 0-1.2-.3-1.2-.9 0-1.1 1-1.2 2.2-1.9 1.4-.9 1.9-2.3 1.9-4.6V94.3c-.2-2.3-.2-3.8-1.5-5M23 126.4c-.9-.3-1.4-.1-1.4-.7 0-.3.2-.4.6-.4l2.6.2 3.2-.2c.4 0 .6.1.6.4 0 .5-.6.4-1.1.7-.7.4-.7 1.5-.7 3.8v3.9c0 1.6 0 3 .6 4.1a4.2 4.2 0 003.7 2.1c1.5 0 2.8-.5 3.7-1.6 1.1-1.2 1.2-3 1.2-5.4v-4c0-1.6-.1-2.6-1-2.9-.9-.4-1.8-.2-1.8-.8 0-.3.2-.4.6-.4l2.4.2 2.2-.2c.3 0 .5.1.5.4 0 .5-.6.4-1.1.8-.5.4-.5 1.7-.5 4.1v2.9c0 5.5-2.3 8.2-7 8.2-4.6 0-6.2-2.5-6.2-7.7v-5.6c-.1-1.3-.3-1.6-1.1-1.9M42.3 129.6c0-1.4-.2-2.3-.7-2.8-.9-.9-1.8-.2-1.8-1 0-.4.1-.5.5-.5l1.4.1 2-.1c.6 0 .8.2 1.4 1l7.9 9.5c.4.5.8.8.9.8.2 0 .3-.4.3-1.1v-5.8c0-1.4-.1-2.4-.9-2.9-1.1-.7-2-.3-2-1 0-.3.2-.4.5-.4l2.2.2 2.8-.2c.3 0 .5.1.5.4 0 .5-.6.4-1.2.8-.7.6-.8 1.3-.8 2.6l-.1 11.6c0 .6-.1 1-.3 1-.4 0-.7-.4-1.3-1.1l-9.4-11.1a.9.9 0 00-.6-.4c-.2 0-.3.3-.3 1v5.3c0 2.4 0 3.9.8 4.7.7.7 2 .3 2 1 0 .4-.2.5-.6.5l-2.4-.2-2.6.2c-.3 0-.4-.2-.4-.5 0-.5 1-.3 1.5-1 .4-.5.7-2.1.7-4.7v-5.9M59.9 126.7c-.8-.6-2-.2-2-.9 0-.3.2-.5.6-.5.2 0 .9.2 2.2.2 2.6 0 3.8-.2 4-.2.3 0 .5.2.5.4 0 .6-.9.4-1.4.9-.4.4-.5 1.2-.5 2.3v9.1c0 1.3.4 2 1.2 2.3.7.2 1.6.1 1.6.7 0 .4-.2.5-.6.5l-3.2-.2-3.1.2c-.4 0-.6-.2-.6-.4 0-.5.5-.6 1.2-.9.5-.3.8-1 .8-2.1v-9c-.1-1.3-.1-1.9-.7-2.4M68.3 127.8c-.3-.7-.6-1.2-1.2-1.4-.6-.2-1-.2-1-.7 0-.3.2-.4.5-.4l3.3.2c1.7 0 2.6-.3 2.9-.3.2 0 .4.2.4.4 0 .4-.3.4-.8.7-.6.3-.8.6-.8 1.2l.3 1.3 3.4 8.2.3.4.3-.3 3.3-7.4a5 5 0 00.4-1.8c0-.8-.4-1.4-1.2-1.7-.6-.2-1.1-.1-1.1-.6 0-.3.2-.5.5-.5l2.7.2c1 0 1.6-.2 1.9-.2.3 0 .4.1.4.4 0 .4-.3.5-.7.7-.2.1-.5.6-.9 1.4l-6.2 14c-.1.2-.1.3-.4.3-.2 0-.3-.1-.4-.4l-5.9-13.7M85.3 126.8c-.8-.8-2-.2-2-1 0-.3.2-.5.6-.5.2 0 1.5.2 4 .2 3.3 0 5.5-.2 6.5-.2.8 0 .9.1.9.8v2.4c0 .3 0 .5-.4.5-.6 0-.3-.6-.6-1.3-.5-1-1.6-1.3-3.8-1.3-1.3 0-1.9.3-1.9 1.3v3.6c0 .7.3 1 1 1h.7c1 0 1.6-.2 2-.8.4-.6.4-1.3 1-1.3.3 0 .4.2.4.5l-.1 1.7c0 1.7.2 2.7.2 3 0 .3-.1.4-.4.4-.6 0-.3-.5-.6-1.3-.4-1-1-1.2-2.3-1.2h-.9c-.9 0-1 .3-1 1.3v3.6c0 1.6.1 2.1 1.8 2.1a7 7 0 004.1-1.3c1-.8 1-1.6 1.4-1.6.2 0 .3.2.3.5a5 5 0 01-.9 2.5c-.6.9-1.6 1.3-3 1.3l-4.3-.2c-1.9 0-3.2.2-3.6.2-.4 0-.6-.2-.6-.4 0-.5.5-.6 1.1-.9.6-.4.9-1.1.9-2.2v-9c.1-1.2.1-1.9-.5-2.4M98.7 126.8c-.7-.7-1.8-.3-1.8-1 0-.3.2-.5.6-.5.3 0 1.3.2 3 .2l4.2-.2c3.5 0 5.4 1.6 5.4 4.3 0 1.8-1 3-3 3.7.4.2.6.5.8 1l2.3 4.3c.6 1 .9 1.5 1.7 1.5h.6c.2 0 .3.1.3.3 0 .6-1.2 1.2-2.4 1.2-1.5 0-2.5-1.3-3.9-4.1-.8-1.7-1.3-2.8-1.7-3.1-.4-.4-.9-.4-1.7-.4-.7 0-1 .2-1 .8v3.4c0 1.2.3 1.9 1 2.3.5.3 1.2.1 1.2.7 0 .4-.2.5-.5.5l-2.7-.2-3.1.2c-.4 0-.6-.2-.6-.4 0-.5.5-.6 1.1-.9.6-.4.9-1.1.9-2.2v-9c-.1-1.2-.1-1.9-.7-2.4m5.2 6c2.3 0 3.4-.6 3.4-2.7 0-2.4-1.4-3.9-3.7-3.9-1.2 0-1.4.6-1.4 1.8v3.7c-.1 1 0 1.1 1.7 1.1zM113.8 136.8l-.1-.4c0-.3.1-.5.5-.5.5 0 .3.7 1.1 2.1 1 1.7 2.4 2.7 3.9 2.7 1.7 0 3.1-1.1 3.1-3 0-1.8-1.3-2.3-3.8-3.3-2.8-1.2-4.5-1.9-4.5-4.9 0-2.3 1.8-4.4 4.5-4.4 1.8 0 2.6.8 3.4.8.5 0 .7-.3 1-.3.3 0 .4.2.4.5v.8c0 1.1.3 2.2.3 3 0 .3-.1.5-.3.5-.7 0-.3-.7-1.2-2.1a4.4 4.4 0 00-3.7-2.1c-1.5 0-2.5 1-2.5 2.2 0 1.4 1.1 2.1 3.2 3 1.5.6 2.8 1 3.6 1.8.9.9 1.4 2.1 1.4 3.5 0 3.2-2.1 5.2-5 5.2-1.5 0-2.6-.7-3.5-.8-.8-.1-.8 0-1-.9l-.8-3.4M127.3 126.7c-.8-.6-2-.2-2-.9 0-.3.2-.5.6-.5.2 0 .9.2 2.2.2 2.6 0 3.8-.2 4-.2.3 0 .5.2.5.4 0 .6-.9.4-1.4.9-.4.4-.5 1.2-.5 2.3v9.1c0 1.3.4 2 1.2 2.3.7.2 1.6.1 1.6.7 0 .4-.2.5-.6.5l-3.2-.2-3.1.2c-.4 0-.6-.2-.6-.4 0-.5.5-.6 1.2-.9.5-.3.8-1 .8-2.1v-9c0-1.3-.1-1.9-.7-2.4M138.4 126.7c-1.9 0-2.9.1-3.4 1.2-.6 1.2-.3 1.9-1 1.9-.3 0-.4-.2-.4-.5 0-.2.3-1.2.4-3 0-.7.1-.9.7-.9l3.8.1h5.4l4-.1c.6 0 .8 0 .9.7l.2 2.3v.2c0 .4 0 .5-.3.5-.6 0-.4-.5-.8-1.3-.5-.9-1.3-1.1-3.1-1.1h-.2c-1.5 0-1.7 0-1.7 1.1V138c0 1.2.3 1.9 1.2 2.3.7.3 1.5.1 1.5.8 0 .3-.2.5-.6.5l-3.3-.2-3.7.2c-.4 0-.6-.2-.6-.5 0-.6.6-.4 1.4-.7.9-.4 1.3-1.1 1.3-2.3v-10.4c-.2-.9-.3-1-1.7-1M155.5 135.2c0-.6-.2-.8-.3-1.1l-3.3-6.1c-.5-.9-1-1.5-1.4-1.6-.5-.2-1.2-.1-1.2-.6 0-.3.2-.4.6-.4.2 0 1.2.2 2.9.2 1.5 0 2.4-.2 2.6-.2.4 0 .5 0 .5.4 0 .6-1.3.3-1.3 1.3l.3.9 2.6 4.9.2.2.3-.3 2.2-4c.2-.4.5-.8.5-1.2 0-.6-.3-1-1-1.2-.7-.2-1.2 0-1.2-.5 0-.3.2-.4.5-.4l2.4.1 2-.2c.4 0 .6.1.6.4 0 .5-.4.4-.7.6-.4.2-.9.7-1.4 1.5l-3.3 6.1-.3.9v2.8c0 1.4 0 2.1.8 2.6.7.5 1.9.1 1.9.9 0 .3-.2.5-.6.5l-3.2-.2-3.7.2c-.4 0-.6-.2-.6-.5 0-.6.9-.4 1.7-.8.8-.5.9-1.1.9-2.4v-2.8"
    class="st1"
  />
</svg>
