<svg xmlns="http://www.w3.org/2000/svg" viewBox="0 0 75 75">
  <title>
    Zepto.js
  </title>
  <path fill="none" d="M-1-1h77v77H-1z" />
  <g>
    <title>
      Layer 1
    </title>
    <path
      d="M10.9 40.5h-.6l-.1.1.1.3c.1.2.3.3.5.3h.6l1-.2.5-.3c.1-.1.1 0 .2 0l.8 1.7v.1a5 5 0 01-1.7.7l-.8.1h-.7a4 4 0 01-2.1-.6c-.6-.4-.9-.9-1.1-1.6L7.4 40c0-1 .3-1.9.9-2.7l1-.9c.4-.3.9-.5 1.4-.6.5-.1 1-.2 1.5-.1.6 0 1.2.2 1.7.5s.8.7.9 1.2c.2.7 0 1.4-.6 1.9l-1.2.6-1.1.2c-.3.4-.7.4-1 .4zm-.2-1.3h.4l.7-.1c.2-.1.4-.2.4-.4.1-.3-.1-.6-.4-.7-.3-.1-.6 0-.9.3a2 2 0 00-.5.9v.1l.3-.1zM7 38.1l.4-1.9h-6l-.4 2h2.6L.3 41.7 0 43.4h6.2l.4-2H3.8L7 38.1zm45.4 5.2c.7-.3 1.2-.7 1.5-1.4.2-.4.3-.9.2-1.3 0-.7-.3-1.2-.9-1.6a7 7 0 00-1.3-.5l-.7-.2c-.2-.1-.2-.2-.2-.4 0-.1.1-.2.3-.2h.6l1.4.5 1.3-1.8s-1-.6-1.5-.7l-1.3-.2h-1.2l-1.2.3a3 3 0 00-1.3 1.2c-.2.4-.3.9-.2 1.3 0 .5.3 1 .7 1.3.4.4.9.6 1.4.7l1 .3c.2.1.2.2.2.3l-.3.3c-.4.1-.8 0-1.2-.1l-1.2-.5-1.3 1.8.7.5c.9.4 1.8.6 2.9.6.3.2.9.1 1.6-.2zm-15.6-3.9c0 .6-.1 1.2-.3 1.7-.3.8-.9 1.5-1.7 1.9-.4.3-.9.4-1.4.5l-1.4.1c-.6-.1-1.2-.3-1.7-.7-.6-.4-1-1-1.1-1.7l-.1-1.5c0-.5.2-1 .4-1.5.4-.9 1.1-1.6 2.1-2 .7-.3 1.4-.4 2.2-.3a3 3 0 011.8.6c.5.3.8.8 1.1 1.4l.2 1-.1.5zm-4.8.9l.1.8c.1.2.2.4.5.4l.6-.2c.2-.2.4-.5.5-.9l.2-1-.1-1c-.2-.5-.7-.6-1-.3l-.4.6c-.3.5-.4 1.1-.4 1.6zm5.5.5l-.5 2.6h2.6l.5-2.6h-2.6zm-19.8 1.9l-.6 3.3h-2.8l1.8-9.9h2.5v.8l.1-.1c.3-.3.7-.6 1.2-.7.6-.2 1.1-.1 1.7.1.4.2.7.5.9.9l.4 1.6c0 .6 0 1.2-.2 1.8-.2.8-.5 1.5-1.1 2a2 2 0 01-1.6.8c-.9.3-1.6.1-2.3-.6.1.1 0 .1 0 0zm2.3-3.5l-.1-.5c0-.2-.1-.4-.3-.5a.9.9 0 00-.7 0 1 1 0 00-.5.6l-.4 2.4c.3.2.7.3 1 .2l.5-.5c.4-.5.5-1.1.5-1.7zm4.9-4.6l-.3 1.5h-1l-.3 1.8h1l-.5 2.9a2 2 0 000 1.1c.1.5.3.9.6 1.2.4.3.9.5 1.4.5.8 0 1.5-.1 2.2-.4l.7-.3-.8-1.7-.3.1c-.2.1-.4.2-.7.1-.1 0-.2-.1-.2-.3v-.3l.2-1.2.3-1.6H29l.3-1.8h-1.9l.3-1.5-2.8-.1zM41 42.7a3 3 0 002.4 1c.4 0 .8 0 1.2-.2a2 2 0 001.2-.8c.3-.4.5-.8.6-1.3l.2-1 .8-4.7h-2.8l-1 5.4c-.1.3-.5.3-.7.2l-.6-.5-1.8 1.3.5.6zm25.4-13.8a8.6 8.6 0 100 17.2 8.6 8.6 0 000-17.2zm-2.7 7.6c-1.5 2.2-3.6 3.8-4.2 3.8-.5 0-.7-1-.9-1.9-.2-1 .1-2.3.2-2.9.2-.6.7-1.6 1-1.6h5.4s-.4 1-1.5 2.6zm9.5 4.5h-5.5s.4-1 1.5-2.5c1.6-2.1 3.8-3.6 4.4-3.6.5 0 .7.9.8 1.8.1.9-.1 2.1-.3 2.8 0 .5-.6 1.5-.9 1.5z"
    />
  </g>
</svg>
