<svg xmlns="http://www.w3.org/2000/svg" viewBox="0 0 75 75">
  <title>AWS Command Line Interface</title>
  <g id="Reference">
    <path
      id="Blue_Light_BG"
      fill="#3b48cc"
      d="M0 0h75v75H0z"
      data-name="Blue Light BG"
    />
    <g id="Product_Icon" data-name="Product Icon">
      <path
        d="M61.5 61.5h-7v-2h6v-44h-46v44h28v2h-29a1 1 0 01-1-1v-46a1 1 0 011-1h48a1 1 0 011 1v46a1 1 0 01-1 1z"
        fill="#fff"
      />
      <path
        d="M13.5 21.5h48v2h-48zM16.5 17.5h2v2h-2zM20.5 17.5h2v2h-2zM24.5 17.5h2v2h-2zM24 50.8l-1.4-1.4 8.9-8.9-9-8.9 1.5-1.4 9.6 9.6a1 1 0 01.3.7 1 1 0 01-.3.7zM35.5 45.5h15v2h-15z"
        fill="#fff"
      />
    </g>
  </g>
</svg>
