<svg xmlns="http://www.w3.org/2000/svg" viewBox="0 0 75 75">
  <title>AWS CloudTrail</title>
  <path fill="#cc2264" d="M0 0h75v75H0z" data-name="Pink Light BG" />
  <path
    fill="#fff"
    d="M55.5 35a6 6 0 00-4-5.6 5.6 5.6 0 00-5 .9 13.1 13.1 0 00-2.7-3.9 12 12 0 00-13.4-2.6 12.2 12.2 0 00-7 10.9v.5a8.3 8.3 0 00-5.4 5h2.2a6.7 6.7 0 014.4-3.3 1 1 0 00.8-1v-1.3a10.3 10.3 0 015.7-9A10 10 0 0142.3 28a11.7 11.7 0 012.8 4.4 1 1 0 00.8.7 1 1 0 001-.4 3.6 3.6 0 014-1.3c1.6.6 2.6 2.2 2.6 4.4a1 1 0 00.8 1.1c1.8.3 6.1 1.6 6.1 6.7 0 6-6 6.7-6.1 6.8H33.5v2h20.9c2.8-.3 8-2.4 8-8.8 0-5-3.4-7.7-7-8.5zm-41 17.3h-2v-2h2zm9 0h-7v-2h7zm8 0h-6v-2h6zm-9-4h-9v-2h9zm19 0h-12v-2h12zm-10-4h-6v-2h6zm-8 0h-8v-2h8zm4 4h-3v-2h3z"
    data-name="Product Icon"
  />
</svg>
