<svg xmlns="http://www.w3.org/2000/svg" viewBox="0 0 75 75">
  <title>Amazon Cognito</title>
  <g id="Reference">
    <path
      id="Red_Light_BG"
      fill="#d6242d"
      d="M0 0h75v75H0z"
      data-name="Red Light BG"
    />
    <g id="Product_Icon" data-name="Product Icon">
      <path
        d="M55 15H16.5a4 4 0 00-3.7 4.1v24.8a4 4 0 003.7 4.1h21.3v-2H16.4a2 2 0 01-1.7-2.1V27h18v15a1 1 0 001 1h8v-2h-6.6v-.3a7.7 7.7 0 015.5-7.4 6 6 0 005 0 7.8 7.8 0 014.4 3.4l1.7-1a9.8 9.8 0 00-4.4-3.8 5.4 5.4 0 001.3-3.5 5.5 5.5 0 00-11 0 5.4 5.4 0 001.3 3.4 9.7 9.7 0 00-4.2 3.6V22h17v14h2v-9h3v10h2V19.1A4 4 0 0055 15zm-11.8 9.9a3.5 3.5 0 013.5 3.4 3.4 3.4 0 01-1.8 3 3.6 3.6 0 01-3.4 0 3.4 3.4 0 01-1.8-3 3.5 3.5 0 013.5-3.4zm10.5.1v-4a1 1 0 00-1-1h-19a1 1 0 00-1 1v4h-18v-5.9a2 2 0 011.8-2.1H55a2 2 0 011.7 2.1V25z"
        fill="#fff"
      />
      <path
        d="M16.8 31.9h11v2h-11zM16.8 37h7v2h-7zM25.8 37h3v2h-3zM51.8 35.6zM52.1 60a10.1 10.1 0 111.3-20 10.1 10.1 0 016.4 16.5 10.5 10.5 0 01-3.3 2.6 10.2 10.2 0 01-4.4 1zm0-18.2a8 8 0 00-3.7 1 8.1 8.1 0 007.2 14.5 8.2 8.2 0 002.7-2 8.1 8.1 0 00-5.2-13.4 8.2 8.2 0 00-1 0z"
        fill="#fff"
      />
      <path
        d="M50.5 54.2a1 1 0 01-.7-.3l-3.2-3.2 1.4-1.4 2.5 2.5 5.7-5.7 1.4 1.4-6.4 6.4a1 1 0 01-.7.3zM51.8 35.6z"
        fill="#fff"
      />
    </g>
  </g>
</svg>
