<svg xmlns="http://www.w3.org/2000/svg" viewBox="0 0 75 75">
  <title>CSS3 Icon</title>
  <g fillRule="evenodd" clipRule="evenodd">
    <path fill="#5690cc" d="M64.5 5l-5 58.7-23 6.3V5z" />
    <path
      fill="#4972b8"
      d="M64 5.4l-4.8 57.7-21.8 6.3-.1-64H64zM70 0s-4 45.4-6.1 67.3c-8.7 2.6-26 7.7-26.5 7.7-.4 0-17.6-5.1-26.5-7.7L5 0h65z"
    />
    <path
      fill="#fff"
      d="M57.9 13.9l-.9 7.8-17.9 8.8h17.3L54.3 56l-17.2 4.7-16.4-4.8L19.5 43l8.4.1.4 6.4 8.8 2.5 9.7-2.6.8-10.7H19.2l-.6-7.8 19.2-8.7-20-.3-.6-8z"
    />
  </g>
</svg>
