<svg xmlns="http://www.w3.org/2000/svg" viewBox="0 0 75 75">
  <defs />
  <title>Amazon DynamoDB</title>
  <g id="Reference">
    <path
      id="Blue_Light_BG"
      fill="#3b48cc"
      d="M0 0h75v75H0z"
      data-name="Blue Light BG"
    />
    <g id="Product_Icon" data-name="Product Icon">
      <path
        d="M50.3 40.5L43.5 47a16.2 16.2 0 003.5-1.4 2.6 2.6 0 011.2 1.8c0 1.8-4 3.8-9.7 4.6a42.2 42.2 0 01-5.4.4h-1c-8-.2-14-2.7-14-5a2.6 2.6 0 011.2-1.8c3.2 1.8 8.3 2.8 13.9 2.8l.6-2h-.6c-5.5 0-10.6-1.1-13.4-2.8-1-.7-1.6-1.5-1.7-2.2V37c3.1 2.3 9.2 3.6 15 3.6l2.4-.1.6-2h-3c-8.5 0-15-2.5-15-5a2.6 2.6 0 011.2-1.7c2.8 1.5 7 2.5 11.9 2.7v-2c-4.7-.2-9-1.2-11.4-2.7-1-.7-1.6-1.5-1.6-2.2V23c3 2.3 9.1 3.6 15 3.6h.2l1-2h-1.2c-8.6 0-15-2.7-15-5s6.4-5 15-5a36 36 0 018.5 1h5.5c-3-1.9-8.2-3-14-3-8.3 0-17 2.4-17 7v8a4 4 0 001.5 3 4 4 0 00-1.5 3v8a4 4 0 001.5 3 4 4 0 00-1.5 3v8a1.3 1.3 0 000 .2c.2 4.4 8.8 6.7 17 6.7s16.7-2.3 17-6.8a.8.8 0 000-.2v-8a4 4 0 00-1.6-3 4 4 0 001.5-3zm-2 15c0 2.3-6.5 5-15 5s-15-2.6-15-5v-4.6c3 2.3 9.1 3.5 15 3.5s11.9-1.2 15-3.5z"
        fill="#fff"
      />
      <circle cx="21.3" cy="27.5" r="1.3" fill="#fff" />
      <circle cx="21.3" cy="41.5" r="1.3" fill="#fff" />
      <circle cx="21.3" cy="55.5" r="1.3" fill="#fff" />
      <path
        d="M35.8 51.5a1 1 0 01-.5-.2 1 1 0 01-.5-1.1l5.6-18.7h-5.6a1 1 0 01-1-1.5l6-12a1 1 0 011-.6h13a1 1 0 011 1.4l-2.6 7.6h5.6a1 1 0 01.7 1.7l-22 23a1 1 0 01-.8.4zm.6-22h5.3a1 1 0 01.8.4 1 1 0 01.2.9l-4.8 16 17.5-18.3h-4.6a1 1 0 01-1-1.4l2.5-7.6h-11z"
        fill="#fff"
      />
    </g>
  </g>
</svg>
