<!-- Generator: Adobe Illustrator 24.0.1, SVG Export Plug-In  -->
<svg
  version="1.1"
  xmlns="http://www.w3.org/2000/svg"
  xmlns:xlink="http://www.w3.org/1999/xlink"
  x="0px"
  y="0px"
  width="175px"
  height="105.7px"
  viewBox="0 0 175 105.7"
  style="enable-background:new 0 0 175 105.7;"
  xml:space="preserve"
>
  <style type="text/css">
    .st0 {
      fill: #6cc72b;
    }
    .st1 {
      fill: #00aeef;
    }
    .st2 {
      fill: none;
    }
    .st3 {
      fill: #ff6d2d;
    }
  </style>
  <defs></defs>
  <g>
    <g>
      <path class="st0" d="M11.2,59.1h4.1v18.1h-4.1V59.1z" />
      <path
        class="st0"
        d="M21.3,59.1h3.9v3c1.7-2.5,3.8-3.6,7-3.6c2.7,0,4.6,0.9,5.7,2.5c0.9,1.4,0.9,3,0.9,5.2v11h-4.2v-9.3
			c0-4-0.5-5.9-3.9-5.9c-2,0-3.5,0.7-4.4,2c-0.7,1.1-0.8,2.7-0.8,4.9v8.2h-4.1V59.1z"
      />
      <path
        class="st0"
        d="M45.2,62.7H42v-3.6h3.2v-6.8h4.1v6.8h3.2v3.6h-3.2v14.4h-4.1V62.7z"
      />
      <path
        class="st0"
        d="M59,68.7c0.2,3.4,2.1,5.4,5.1,5.4c2.7,0,4.3-1.1,5.7-3.5l3.5,2c-2,3.6-5,5.4-9,5.4c-5.8,0-9.5-3.8-9.5-9.7
			c0-5.6,3.9-9.7,9.5-9.7c5.8,0,9.2,3.5,9.2,9.5c0,0.2,0,0.5,0,0.8H59z M64.2,62c-2.7,0-4.3,1.3-5,4h9.9C68.8,63.4,67.1,62,64.2,62z
			"
      />
      <path
        class="st0"
        d="M86.3,58.5c1.2,0,2.3,0.3,3.4,0.8l-1.5,3.5c-0.8-0.5-1.6-0.7-2.5-0.7c-2.9,0-3.9,2.3-3.9,7.2v7.9h-4.1V59.1
			h4.1V62C82.7,59.6,84.1,58.5,86.3,58.5z"
      />
      <path class="st1" d="M100.7,66.3v3.8H90.5v-3.8H100.7z" />
      <path
        class="st0"
        d="M107.3,62.7h-3.2v-3.6h3.2v-6.8h4.1v6.8h3.2v3.6h-3.2v14.4h-4.1V62.7z"
      />
      <path
        class="st0"
        d="M121.2,68.7c0.2,3.4,2.1,5.4,5.1,5.4c2.7,0,4.3-1.1,5.7-3.5l3.5,2c-2,3.6-5,5.4-9,5.4c-5.8,0-9.5-3.8-9.5-9.7
			c0-5.6,3.9-9.7,9.5-9.7c5.8,0,9.2,3.5,9.2,9.5c0,0.2,0,0.5,0,0.8H121.2z M126.4,62c-2.7,0-4.3,1.3-5,4h9.9
			C131,63.4,129.3,62,126.4,62z"
      />
      <path
        class="st0"
        d="M148.4,62.1c-3.4,0-5.6,2.3-5.6,6c0,3.8,2.2,6,5.8,6c2,0,3.5-0.7,4.8-2.3v4.8c-1.5,0.9-3.2,1.3-5.2,1.3
			c-5.7,0-9.6-4-9.6-9.7c0-5.8,4.1-9.7,10-9.7c1.8,0,3.4,0.4,4.8,1.1v4.6C152.1,62.9,150.4,62.1,148.4,62.1z"
      />
      <path
        class="st0"
        d="M157.6,47.6h3.9v14.4c1.7-2.5,3.8-3.6,7-3.6c2.7,0,4.6,0.9,5.7,2.5c0.9,1.4,0.9,3,0.9,5.2v11h-4.2v-9.3
			c0-4-0.5-5.9-3.9-5.9c-1.9,0-3.5,0.7-4.4,2c-0.7,1.1-0.8,2.7-0.8,4.9v8.2h-4.1V47.6z"
      />
    </g>
    <g>
      <path
        class="st1"
        d="M17.9,84.1c-1.3,0-2.7,0.5-3.6,1.3c-1,0.8-1.5,1.8-1.5,3.1c0,1,0.3,1.8,0.9,2.4c1,1.2,2.6,1.8,4.3,1.8
			c1.6,0,3-0.5,4.2-1.6v1.6c-1.3,0.7-2.7,1.1-4.3,1.1c-1.4,0-2.7-0.3-3.8-1c-1.9-1-2.9-2.6-2.9-4.4c0-1.6,0.7-2.9,2-3.9
			c1.3-1,2.9-1.5,4.7-1.5c1.5,0,2.9,0.4,4.2,1.1v1.6C20.9,84.6,19.6,84.1,17.9,84.1z"
      />
      <path
        class="st1"
        d="M35.8,92.2c-1.3,1-3.1,1.6-4.8,1.6c-1.8,0-3.5-0.6-4.8-1.6c-1.3-1-2-2.4-2-3.8c0-1.5,0.7-2.8,2-3.8
			c1.3-1,3-1.6,4.8-1.6c1.8,0,3.6,0.6,4.8,1.6c1.3,1,2,2.4,2,3.8C37.8,89.9,37.1,91.2,35.8,92.2z M34.7,91.4c1-0.8,1.5-1.9,1.5-3
			s-0.5-2.2-1.5-3c-1-0.8-2.3-1.2-3.7-1.2c-1.4,0-2.7,0.4-3.7,1.2c-1,0.8-1.5,1.9-1.5,3s0.5,2.2,1.5,3c1,0.8,2.3,1.3,3.7,1.3
			C32.4,92.7,33.7,92.2,34.7,91.4z"
      />
      <path
        class="st1"
        d="M42.3,86.5l-1.6,7h-1.5l2.6-10.7l4.5,8.5l4.5-8.5l2.6,10.7h-1.5l-1.6-7l-3.9,7.4L42.3,86.5z"
      />
      <path
        class="st1"
        d="M57.2,86.5l-1.6,7h-1.5l2.6-10.7l4.5,8.5l4.5-8.5l2.6,10.7h-1.5l-1.6-7l-3.9,7.4L57.2,86.5z"
      />
      <path
        class="st1"
        d="M71.7,83.2v6.4c0,2.1,1,3,3.4,3c2.4,0,3.4-1,3.4-3v-6.4h1.5v6.4c0,2.8-1.6,4.2-4.9,4.2
			c-3.3,0-4.9-1.4-4.9-4.2v-6.4H71.7z"
      />
      <path
        class="st1"
        d="M83.1,82.8l9.3,8.3v-7.9h1.4v10.7l-9.3-8.2v7.8h-1.4V82.8z"
      />
      <path class="st1" d="M96.9,83.2h1.5v10.3h-1.5V83.2z" />
      <path
        class="st1"
        d="M107.7,84.1c-1.3,0-2.7,0.5-3.6,1.3c-1,0.8-1.5,1.8-1.5,3.1c0,1,0.3,1.8,0.9,2.4c1,1.2,2.6,1.8,4.3,1.8
			c1.6,0,3-0.5,4.2-1.6v1.6c-1.3,0.7-2.8,1.1-4.3,1.1c-1.4,0-2.7-0.3-3.8-1c-1.9-1-2.9-2.6-2.9-4.4c0-1.6,0.7-2.9,2-3.9
			c1.3-1,2.9-1.5,4.7-1.5c1.5,0,2.9,0.4,4.2,1.1v1.6C110.7,84.6,109.3,84.1,107.7,84.1z"
      />
      <path
        class="st1"
        d="M124.3,93.5h-1.6l-1.7-3.2h-5l-1.7,3.2h-1.6l5.8-10.7L124.3,93.5z M116.5,89.3h4.1l-2-3.8L116.5,89.3z"
      />
      <path class="st1" d="M126.9,84.4h-3.6v-1.2h8.7v1.2h-3.6v9.2h-1.5V84.4z" />
      <path class="st1" d="M133.7,83.2h1.5v10.3h-1.5V83.2z" />
      <path
        class="st1"
        d="M149.4,92.2c-1.3,1-3.1,1.6-4.8,1.6c-1.8,0-3.5-0.6-4.8-1.6c-1.3-1-2-2.4-2-3.8c0-1.5,0.7-2.8,2-3.8
			c1.3-1,3-1.6,4.8-1.6c1.8,0,3.6,0.6,4.8,1.6c1.3,1,2,2.4,2,3.8C151.4,89.9,150.7,91.2,149.4,92.2z M148.3,91.4
			c1-0.8,1.5-1.9,1.5-3s-0.5-2.2-1.5-3c-1-0.8-2.3-1.2-3.7-1.2c-1.4,0-2.7,0.4-3.7,1.2c-1,0.8-1.5,1.9-1.5,3s0.5,2.2,1.5,3
			c1,0.8,2.3,1.3,3.7,1.3C146,92.7,147.2,92.2,148.3,91.4z"
      />
      <path
        class="st1"
        d="M153.9,82.8l9.3,8.3v-7.9h1.4v10.7l-9.3-8.2v7.8h-1.4V82.8z"
      />
      <path
        class="st1"
        d="M174.9,90.6c0,1.9-1.6,3.2-4.1,3.2c-2,0-3.4-0.9-3.9-2.4l1.4-0.5c0.4,1.3,1.2,1.9,2.5,1.9
			c1.5,0,2.6-0.8,2.6-1.9c0-0.9-0.7-1.6-2-2.1l-1.6-0.5c-1.7-0.6-2.5-1.5-2.5-2.7c0-1.4,1.5-2.5,3.6-2.5c1.5,0,2.7,0.5,3.3,1.6
			l-1.2,0.7c-0.6-0.8-1.2-1.2-2.2-1.2c-1.1,0-1.9,0.6-1.9,1.5c0,0.7,0.6,1.3,1.7,1.7l1.8,0.7C174,88.4,174.9,89.3,174.9,90.6z"
      />
    </g>
    <g>
      <path
        class="st2"
        d="M18.8,9c-0.3,0.4-0.7,0.9-1.2,1.4C17.8,9.9,18.3,9.3,18.8,9z"
      />
      <path
        class="st2"
        d="M26.1,5.3C26.1,5.3,26.1,5.3,26.1,5.3l-0.5,0.1c0.2-0.1,0.4-0.1,0.5-0.2c-0.1,0.1-0.1,0.1,0,0.1h0L26.1,5.3
			C26.1,5.3,26.1,5.3,26.1,5.3z"
      />
      <path
        class="st2"
        d="M25.3,5.5c0.1,0,0.3-0.1,0.4-0.1c0,0,0,0-0.1,0C25.5,5.4,25.4,5.4,25.3,5.5z"
      />
      <path
        class="st2"
        d="M25.2,45.5C25.2,45.5,25.2,45.5,25.2,45.5l-0.1,0.3c0-0.1,0-0.3,0-0.4C25.1,45.5,25.2,45.6,25.2,45.5
			L25.2,45.5L25.2,45.5C25.2,45.5,25.2,45.5,25.2,45.5z"
      />
      <path
        class="st2"
        d="M24.9,46.1c0-0.1,0.1-0.2,0.1-0.3c0,0,0,0,0,0.1C25,46,25,46,24.9,46.1z"
      />
      <path
        class="st2"
        d="M21,51.5c0.2-0.4,0.6-0.7,0.9-1C21.8,50.9,21.5,51.3,21,51.5z"
      />
      <path
        class="st2"
        d="M23.4,39.9c0.6,0.2,1.1,0.4,1.7,0.5c0,0.4-0.1,0.7-0.1,1l-0.1,0.4l0,0.6c0,0.3,0,0.7,0,1.1
			c0,0.5-0.6,1-0.9,1.7c-0.1,0.1,0.2,0.2,0.1,0.4c-0.3,0.5-0.7,0.9-0.9,1.3c-0.2,0.2-0.1,0.7-0.3,0.8c-0.4,0.5-1.7,1.2-1.1,0.6
			c0.9-0.9,1.4-1.6,1.9-2.6c-0.5,0.9-1.2,1.7-2,2.6c-0.5,0.6-1.2,1.4-2,1.9c-1.2,0.6-2.5,0.9-4,1.2c-5.7,1.1-10.6-2.8-12.2-7.8
			c-0.2-1-0.3-1.9-0.3-2.8c-0.2-3.8,2.9-6.7,4.7-9c1.4-2,5.6-2.2,3.4-1.4c0.5-0.2,1-0.4,1.5-0.5C14.7,34.7,18.5,38.4,23.4,39.9z"
      />
      <path class="st2" d="M25.1,45.4c0-0.1,0-0.1,0-0.2L25.1,45.4z" />
      <path
        class="st2"
        d="M26.2,5.2C26.3,5.1,26.5,5,26.5,5C26.4,5.1,26.3,5.1,26.2,5.2z"
      />
      <path
        class="st2"
        d="M36.5,6C36.4,5.9,36,5.7,36,5.7c-0.9-0.1-1.7-0.5-2.6-0.7l0.4-0.1c0.5,0.1,0.5,0.2,0.1,0.2
			c1,0.1,2,0.4,2.9,0.8C36.8,6,36.8,6.1,36.5,6z"
      />
      <path
        class="st2"
        d="M80.8,6.8c-0.1-0.1-0.4-0.2-0.4-0.2C80.5,6.6,80.6,6.7,80.8,6.8z"
      />
      <path
        class="st2"
        d="M68.3,0.8C68.5,0.8,69,1,69,1c1.1,0,2.3,0.3,3.4,0.9l-0.5,0c-0.5-0.2-0.6-0.3-0.3-0.3c0.1,0,0.2,0,0.3,0
			c-0.1,0-0.2,0-0.3,0C70.2,1.4,69,1.1,67.8,1C67.9,0.9,67.9,0.8,68.3,0.8z"
      />
      <path
        class="st2"
        d="M87,16.3c0.4,0.6,0.8,1.4,0.8,2.4C87.5,17.9,87.2,17,87,16.3z"
      />
      <path
        class="st2"
        d="M81.7,7.6c-0.1-0.1-0.2-0.3-0.4-0.4c0,0,0.1,0.1,0.1,0.1C81.6,7.4,81.6,7.5,81.7,7.6z"
      />
      <path
        class="st2"
        d="M80.9,6.8C80.9,6.8,80.9,6.8,80.9,6.8l0.4,0.4c-0.2-0.2-0.4-0.3-0.6-0.4c0.2,0.1,0.2,0.1,0.1-0.1l0,0
			L80.9,6.8C80.9,6.8,80.9,6.8,80.9,6.8z"
      />
      <path
        class="st1"
        d="M58.5,0.8L60,0.4c-0.2,0.1-0.5,0.2-0.7,0.3C59,0.8,58.8,0.8,58.5,0.8z"
      />
      <polygon class="st1" points="61.6,0.1 61.9,0.1 61.4,0.1 		" />
      <path class="st1" d="M64,0c-0.5,0-0.9,0-1.3,0C63,0,63.4,0,64,0z" />
      <path
        class="st1"
        d="M61.9,0.1L61.9,0.1l0.8-0.1c-0.3,0.1-0.5,0.1-0.7,0.2C62.1,0.2,62.1,0.1,61.9,0.1z"
      />
      <path
        class="st1"
        d="M61.9,0.3c-0.1,0.1-0.4,0.2-0.5,0.2C61.6,0.4,61.7,0.3,61.9,0.3z"
      />
      <path
        class="st1"
        d="M68.3,1.4c1.2,0.2,3.8,1.5,2.2,1c-2.5-0.7-4.1-0.9-6.5-1c-1.9-0.1-3.7,0.1-5.7,0.4c-0.5,0.2-1,0.4-1.5,0.6
			c0.6-0.2,1.2-0.6,2-0.8c1-0.4,2.3-0.2,3.8-0.2c0.2,0,0.2-0.3,0.7-0.3c1.2,0,2.1,0.2,3.2,0.3C67,1.5,67.8,1.3,68.3,1.4z"
      />
      <path
        class="st1"
        d="M52,3.9c-1,1-2.1,1.8-3.1,2.7c0-0.1-0.1-0.2,0.2-0.5c0.2-0.1,0.7-0.4,0.7-0.4c0.7-0.9,1.8-1.6,2.9-2.1L52.3,4
			C51.7,4.4,51.6,4.4,52,3.9z"
      />
      <polygon class="st1" points="48.3,7.1 48.3,7.1 49,6.6 49,6.7 		" />
      <path
        class="st1"
        d="M45.3,32c0.6,1.2,1.2,2.4,2,3.6c2,3,4.8,5.8,8.1,7.2c1.6,0.7,3.4,1.4,5.4,1.8c10.7,1.7,22-4.7,24.6-16.1
			c0.7-3,1-5.7,0.7-8.3c-0.3-1.9-1-3.8-1.7-5.2c-1-2.2-2.1-4-3.3-5.7c1.5,1.7,2.3,3.2,3.3,5.5c0.7,1.6,0-1.3-0.6-2.3
			c-0.2-0.5-0.9-0.9-1.1-1.3c-0.6-0.9-1.1-1.7-1.8-2.6c-0.3-0.4-0.5-0.1-0.6-0.3c-1-1.1-1.7-2.3-2.6-2.7c-0.6-0.4-1.3-0.7-1.9-1
			c-0.4-0.2-0.7-0.4-1.1-0.6L74,3.4c0.2,0,0.4-0.1,0.5-0.2c-0.4-0.2-0.9-0.4-1.3-0.5c0.4,0.1,1,0.3,1.3,0.5
			c-0.1,0.1-0.3,0.2-0.5,0.2c-1.8-1-4-2-6.3-2.4l0,0c1.2,0.2,2.4,0.4,3.7,0.6c-0.3,0-0.2,0.1,0.3,0.3l0.5,0C71.3,1.3,70.1,1,69,1
			c0,0-0.5-0.2-0.7-0.2c-0.4,0-0.4,0.1-0.5,0.2L67,0.8c0.6-0.1,2.3-0.1,2.3-0.1c3.3,0.7,6.3,2,8.9,3.8c0.2,0.2,0.2,0.4,0.5,0.5
			c0.2,0.1,0.5,0.2,0.7,0.3c0.4,0.3,0.7,0.6,1,0.9l0.3,0.4l0,0c0.2,0.2,0.1,0.2-0.1,0.1c-0.2-0.1-0.3-0.2-0.4-0.2
			c0.1,0,0.3,0.2,0.4,0.2c0.2,0.1,0.4,0.2,0.6,0.4c0.1,0.1,0.2,0.3,0.4,0.4c0.4,0.4,0.7,0.8,1,1c-0.6-0.6-1.1-1.3-1.8-1.9l-0.1-0.1
			l-0.1-0.2c0.8,0.7,1.5,1.5,2.2,2.2c0.2,0.2,0.3,0.4,0.4,0.5c0.4,0.6,0.8,1.3,1.2,1.6l0.3,0.5l-0.1-0.1l0.1,0.2
			c0.4,0.7,0.9,1.3,1.2,2.1c0.2,0.5,0.3,1,0.5,1.5c0,0,0.2,0.3,0.3,0.4c0,0.2,0,0.5,0.1,0.9c-0.2-0.4-0.5-0.7-0.7-1
			c-0.4-0.4-0.1-1.2-0.7-1.6c0.6,0.4,0.4,1.2,0.7,1.6c0.2,0.3,0.4,0.6,0.7,1c0.2,0.7,0.5,1.6,0.8,2.4c-0.1-1-0.4-1.8-0.8-2.4
			c-0.1-0.3-0.1-0.7-0.1-0.9c-0.1-0.1-0.3-0.4-0.3-0.4c-0.2-0.5-0.3-1-0.5-1.5c0.7,1.4,1.3,2.9,1.7,4.4c2.8,10-1.5,21-10.9,26.7
			c-5.1,3.1-11,4.2-16.7,3.3c-7.5-1.2-13.6-5.8-17.3-12.1c0.6-0.7,1.2-1.5,1.5-2.3C44.8,33,45,32.5,45.3,32z"
      />
      <path
        class="st1"
        d="M81.4,7.2C81.4,7.2,81.4,7.3,81.4,7.2C81.4,7.3,81.4,7.2,81.4,7.2L81,6.8C81.1,6.9,81.3,7.1,81.4,7.2z"
      />
      <path
        class="st1"
        d="M43.3,19.2c0-0.3,0.1-0.6,0.1-0.8C43.4,18.6,43.4,18.9,43.3,19.2z"
      />
      <path
        class="st1"
        d="M71.7,1.6c-0.1,0-0.2,0-0.3,0C71.6,1.6,71.6,1.6,71.7,1.6z"
      />
      <path
        class="st1"
        d="M41.6,33c-1.1-2.6-1.9-5.4-2.2-8.3c-0.3-2.3,0-5.6,1-8.7c0.7-2.2,1.7-4.2,2.7-5.8c0.3,0.3,0.5,0.5,0.8,0.8
			c-0.2-0.3-0.5-0.5-0.7-0.8c0.4-0.7,0.9-1.3,1.3-1.8c4.3-4.1,3.4-0.6,3.3-0.4c-0.6,1.7-1.4,2.8-2.2,4.5c-0.8,1.4-1.7,3.3-2.1,6
			c0.2-2.4-2,4.3-0.3,8.1c0.3,0.8,0.6,1.6,0.9,2.4c-0.3,0.7-0.6,1.3-0.9,1.7C42.7,31.4,42.2,32.2,41.6,33z"
      />
      <path
        class="st1"
        d="M80.9,6.8C80.9,6.8,80.9,6.8,80.9,6.8L80.9,6.8C80.9,6.8,80.9,6.8,80.9,6.8z"
      />
      <path
        class="st1"
        d="M82.2,8.2c-0.2-0.2-0.3-0.4-0.5-0.5c-0.1-0.1-0.2-0.2-0.3-0.3C81.7,7.5,82,7.8,82.2,8.2z"
      />
      <path
        class="st1"
        d="M81.5,7.3C81.4,7.3,81.4,7.2,81.5,7.3c-0.2-0.2-0.3-0.4-0.5-0.5l0,0c0.7,0.5,1.2,1.3,1.8,1.9
			c-0.3-0.2-0.7-0.6-1-1c0.2,0.2,0.3,0.4,0.5,0.5C82,7.8,81.7,7.5,81.5,7.3z"
      />
      <path
        class="st3"
        d="M42.2,10.3l-0.8-0.7c0.1,0.1,0.3,0.2,0.5,0.3C42,10,42.1,10.2,42.2,10.3z"
      />
      <polygon class="st3" points="40.5,8.8 40.4,8.7 40.6,9 		" />
      <path
        class="st3"
        d="M39.9,8.3c-0.2-0.1-0.5-0.3-0.8-0.5C39.4,8,39.7,8.2,39.9,8.3z"
      />
      <path
        class="st3"
        d="M40.4,8.7L40.4,8.7l-0.4-0.4c0.2,0.1,0.3,0.2,0.5,0.3C40.3,8.6,40.2,8.6,40.4,8.7z"
      />
      <path class="st3" d="M40.4,8.6c0.1,0,0.2,0.1,0.2,0.1L40.4,8.6z" />
      <path class="st3" d="M40.6,8.7l0.1,0C40.7,8.7,40.7,8.7,40.6,8.7z" />
      <path
        class="st3"
        d="M42.7,9.7c-0.6-0.5-1.1-1.4-2-2.2c-0.1-0.1-0.3,0.1-0.6-0.1c-0.7-0.6-1.3-1.1-2.1-1.5c-0.3-0.3-1-0.2-1.4-0.4
			c-0.8-0.5-3-1.4-1.7-1c2,0.6,3.3,1.3,4.8,2.4c1.3,0.9,2.3,2,3.3,3.2c0,0,0.1,0.1,0.1,0.1c0,0,0,0,0,0.1C43,10,42.8,9.9,42.7,9.7z"
      />
      <path
        class="st1"
        d="M43.1,10.1C43.1,10.1,43.1,10.1,43.1,10.1c0.3,0.2,0.5,0.5,0.8,0.8C43.6,10.7,43.4,10.4,43.1,10.1z"
      />
      <path
        class="st3"
        d="M46.3,16.9c0-0.2-0.1-0.6-0.1-0.6c-0.5-0.7-0.7-1.6-1.1-2.4l0.3,0.3c0.2,0.5,0.2,0.6-0.1,0.2
			c0.6,0.9,1,1.8,1.2,2.7C46.5,17.2,46.4,17.2,46.3,16.9z"
      />
      <polygon class="st3" points="46.6,17.2 46.6,17.2 46.7,17.8 46.7,17.8 		" />
      <path
        class="st3"
        d="M25.3,38.1c0,0.1,0,0.4,0,0.4c0.3,0.5,0.4,1.2,0.3,1.8l-0.2-0.3c0-0.4,0.1-0.4,0.2-0.1
			c-0.3-0.7-0.4-1.3-0.6-2C25.1,38,25.2,38,25.3,38.1z"
      />
      <path
        class="st3"
        d="M25,37.6c6,1.7,12.7,0.1,16.6-4.7c0.4,1,0.9,1.9,1.4,2.8c-1.3,1.4-3,2.7-5,3.6c-3,1.3-6.4,1.8-9.6,1.7
			c-0.8,0-1.7-0.1-2.6-0.3c0-0.7-0.1-1.3-0.3-2C25.6,38.6,25.2,37.9,25,37.6z"
      />
      <path
        class="st3"
        d="M47.5,27.7c0,0.1,0,0.2-0.1,0.4C47.4,28,47.4,27.9,47.5,27.7z"
      />
      <path
        class="st3"
        d="M11.9,16.2c0.9-2.6,2.4-4.6,3.9-6.2c1.1-1.2,2.3-2.5,3.4-3.2c1.7-1.2,3.5-1.9,5.1-2.3c-1.8,0.5-3.2,1.1-5,2.2
			c-1.2,0.8,1-0.3,1.9-0.6c0.4-0.1,0.8-0.7,1.2-0.8c0.8-0.4,1.6-0.5,2.5-0.7c0.4-0.1,0.3-0.3,0.5-0.3c1.3-0.2,2.3,0,3.1-0.1
			C29.2,4,29.7,4,30.2,4c0.3,0,0.7,0,1,0L32,4.1c-0.2,0.1-0.3,0.2-0.3,0.3c0.3,0,0.8,0,1.1,0c-0.3,0-0.8,0-1.1,0
			c0.1-0.1,0.1-0.2,0.3-0.3c1.6,0.3,3.4,0.9,5,1.8l0,0C36,5.5,35,5.2,34,5.1c0.5,0,0.4-0.1-0.1-0.2L33.5,5c0.9,0.2,1.7,0.6,2.6,0.7
			c0,0,0.3,0.2,0.5,0.3c0.3,0.1,0.3,0,0.4-0.1l0.5,0.3c-0.5,0-1.7-0.4-1.7-0.4C33.4,5,31,4.7,28.7,4.9c-0.2,0-0.3-0.1-0.5,0
			C27.9,4.9,27.8,5,27.6,5c-0.3,0-0.7,0.1-1,0.2l-0.4,0h0c-0.2,0-0.2,0,0-0.1c0.1-0.1,0.2-0.1,0.3-0.2c-0.1,0-0.2,0.1-0.3,0.2
			c-0.1,0.1-0.3,0.1-0.5,0.2c-0.1,0-0.3,0.1-0.4,0.1c-0.4,0.1-0.8,0.2-1,0.4c0.6-0.2,1.2-0.5,1.8-0.6l0.1,0l0.2,0
			c-0.8,0.1-1.5,0.4-2.2,0.6C24,6,23.9,6,23.8,6.1c-0.5,0.2-1,0.4-1.3,0.6l-0.4,0.2l0.1-0.1L22,6.9c-0.5,0.3-1,0.5-1.5,0.9
			c-0.3,0.2-0.7,0.3-1,0.5c0,0-0.1,0.2-0.2,0.4c-0.2,0-0.4,0.2-0.6,0.3c0.2-0.3,0.3-0.5,0.5-0.7c0.2-0.4,0.9-0.3,1.1-0.8
			c-0.2,0.5-0.9,0.4-1.1,0.8c-0.2,0.2-0.3,0.5-0.5,0.7c-0.5,0.3-0.9,0.9-1.2,1.4c0.6-0.4,0.9-0.9,1.2-1.4c0.2-0.1,0.4-0.3,0.6-0.3
			c0.1-0.1,0.2-0.4,0.2-0.4c0.3-0.2,0.7-0.3,1-0.5C19.7,8.5,18.8,9.2,18,10c-4.4,4.5-6,11.1-4,17c-0.8,0-1.6,0-2.4,0.1
			C10.7,23.7,10.7,19.9,11.9,16.2z"
      />
      <path
        class="st3"
        d="M45.4,20.4c-0.1-3.7,1.3-2.2,1.5-1.9c1.3,2.2,1.4,4.3,0.5,9.3c0.4-2.3-0.7,1.4-2.2,4.3
			c-0.5-1.1-0.9-2.1-1.3-3.1C45.1,26.2,45.9,22.6,45.4,20.4z"
      />
      <path
        class="st3"
        d="M25.7,5.4C25.6,5.4,25.6,5.4,25.7,5.4C25.6,5.4,25.7,5.4,25.7,5.4l0.5-0.1C26,5.3,25.8,5.4,25.7,5.4z"
      />
      <path
        class="st3"
        d="M25,38c0.2,0.8,0.2,1.7,0.1,2.5c-0.5-0.2-1.1-0.3-1.7-0.5c-4.9-1.6-8.7-5.3-10.8-9.8c1.1-0.2,1.9-0.2,2.6-0.1
			c0,0.1,0.1,0.1,0.1,0.2c2,3.5,5.2,6,8.7,7.2c0.2,0.7,0.4,1.4,0.5,2.3c0.1,0.9,0.3-0.7,0.2-1.3c0-0.3-0.4-0.5-0.5-0.8
			c0-0.1,0-0.1-0.1-0.2c0,0,0.1,0,0.1,0c0.2,0.1,0.4,0.1,0.6,0.2L25,38L25,38z"
      />
      <path
        class="st3"
        d="M43.1,30.6c0.3-0.5,0.6-1.1,0.9-1.7c0.4,1,0.8,2.1,1.3,3.1c-0.3,0.5-0.5,1-0.8,1.5c-0.4,0.8-0.9,1.5-1.5,2.3
			c-0.5-0.9-1-1.8-1.4-2.8C42.2,32.2,42.7,31.4,43.1,30.6z"
      />
      <polygon class="st3" points="26.1,5.3 26.1,5.3 26.1,5.3 		" />
      <path
        class="st3"
        d="M24.8,5.6c0.2-0.1,0.4-0.1,0.5-0.2c0.1,0,0.2-0.1,0.3-0.1C25.4,5.5,25.1,5.6,24.8,5.6z"
      />
      <path
        class="st3"
        d="M25.6,5.4C25.6,5.4,25.6,5.4,25.6,5.4c0.2,0,0.3-0.1,0.5-0.1l0,0c-0.6,0.1-1.2,0.4-1.8,0.6
			c0.2-0.2,0.6-0.3,1-0.4c-0.2,0-0.4,0.1-0.5,0.2C25.1,5.6,25.4,5.5,25.6,5.4z"
      />
      <path
        class="st0"
        d="M23.4,33.3l0.5,0.6c-0.1-0.1-0.2-0.2-0.3-0.2C23.4,33.6,23.4,33.5,23.4,33.3z"
      />
      <polygon class="st0" points="24.4,34.7 24.4,34.8 24.3,34.6 		" />
      <path
        class="st0"
        d="M24.6,35.2c0.1,0.2,0.2,0.4,0.3,0.6C24.8,35.6,24.7,35.4,24.6,35.2z"
      />
      <path
        class="st0"
        d="M24.4,34.8l0.2,0.4c-0.1-0.1-0.2-0.2-0.3-0.3C24.4,34.9,24.5,35,24.4,34.8L24.4,34.8z"
      />
      <path
        class="st0"
        d="M24.3,34.9c-0.1,0-0.2-0.1-0.2-0.2C24.1,34.8,24.2,34.8,24.3,34.9z"
      />
      <path
        class="st0"
        d="M23.7,36.4c-0.3-0.9-0.7-1.8-1.2-2.7c-0.2-0.2-0.4-0.4-0.6-0.6c0.3,0.2,0.6,0.4,0.8,0.7
			c0.4,0.4,0.4,1.1,0.8,1.8c0,0.1,0.3-0.1,0.3,0.2c0.2,0.5,0.3,1,0.4,1.4c-0.1,0-0.1,0-0.2-0.1C23.9,37,23.8,36.7,23.7,36.4z"
      />
      <path
        class="st0"
        d="M24.8,38.4c0.1,0.6-0.1,2.1-0.2,1.3c-0.1-0.9-0.3-1.6-0.5-2.3c0.1,0,0.1,0,0.2,0.1c0,0.1,0,0.1,0.1,0.2
			C24.3,37.8,24.7,38.1,24.8,38.4z"
      />
      <path
        class="st0"
        d="M18.7,30c0.1,0.1,0.3,0.3,0.3,0.3c0.6,0.1,1.2,0.5,1.6,0.9l-0.3,0c-0.3-0.2-0.3-0.3,0-0.2
			c-0.7-0.2-1.3-0.5-2-0.8C18.4,30,18.5,29.9,18.7,30z"
      />
      <polygon class="st0" points="18,29.9 18,29.9 18.4,30.1 18.3,30.1 		" />
      <path
        class="st0"
        d="M7.3,28.7c1-0.8,2.6-1.2,4.3-1.5c0.3,1,0.6,2,1.1,2.9c-0.4,0.1-0.9,0.2-1.5,0.5c2.2-0.8-2-0.6-3.4,1.4
			c-1.8,2.3-4.9,5.2-4.7,9c0,0.9,0.1,1.8,0.3,2.8c1.5,5,6.4,8.9,12.2,7.8c1.5-0.3,2.8-0.6,4-1.2c0.8-0.5,1.5-1.3,2-1.9
			c0.8-0.9,1.5-1.7,2-2.6c-0.5,1-1,1.7-1.9,2.6c-0.6,0.6,0.7-0.1,1.1-0.6c0.2-0.2,0.1-0.7,0.3-0.8c0.3-0.5,0.6-0.8,0.9-1.3
			c0.2-0.2-0.1-0.3-0.1-0.4c0.3-0.7,0.9-1.2,0.9-1.7c0.1-0.4,0-0.7,0-1.1l0-0.6l0.1-0.4c0.1,0.1,0.2,0.2,0.3,0.2
			c0-0.2-0.1-0.5-0.1-0.7c0,0.2,0.1,0.5,0.1,0.7c-0.1,0-0.2-0.1-0.3-0.2c0.1-0.3,0.1-0.7,0.1-1c0.3,0.1,0.5,0.1,0.8,0.2
			c0.1,1.1,0,2.1-0.2,3.1c-0.1,0.1-0.2,0.2-0.2,0.4c0,0.1,0,0.3,0,0.4c0,0.2-0.1,0.5-0.2,0.7l-0.1,0.2l0,0c-0.1,0.1-0.1,0.1-0.1,0
			l0-0.2c0,0,0-0.1,0-0.1l0,0.1c0,0.1,0,0.1,0,0.2c0,0.1,0,0.3,0,0.4c0,0.1-0.1,0.2-0.1,0.3c-0.1,0.3-0.3,0.5-0.2,0.7
			c0.2-0.4,0.4-0.8,0.5-1.3l0-0.1l0.1-0.1c-0.1,0.5-0.4,1-0.6,1.6c-0.1,0.1-0.1,0.2-0.2,0.3c-0.2,0.3-0.5,0.6-0.5,0.9l-0.2,0.2
			l0-0.1l0,0.1c-0.2,0.3-0.4,0.7-0.7,1c-0.2,0.2-0.5,0.3-0.7,0.5c0,0-0.1,0.2-0.1,0.3c-0.1,0-0.3,0.1-0.5,0.2
			c0.1-0.2,0.2-0.4,0.3-0.6c0.1-0.3,0.6-0.2,0.6-0.7c0,0.4-0.6,0.4-0.6,0.7c-0.1,0.2-0.2,0.4-0.3,0.6c-0.3,0.2-0.7,0.6-0.9,1
			c0.5-0.2,0.8-0.6,0.9-1c0.2-0.1,0.3-0.2,0.5-0.2c0-0.1,0.1-0.3,0.1-0.3c0.2-0.2,0.5-0.3,0.7-0.5c-0.5,0.7-1.1,1.3-1.8,1.8
			c-4.2,3.6-10.6,4-15.4,0.6c-2.6-1.8-4.6-4.4-5.5-7.4C-1.2,38.4,1.8,32.2,7.3,28.7z"
      />
      <path
        class="st0"
        d="M24.9,37.6C24.9,37.6,24.9,37.6,24.9,37.6C24.9,37.6,24.9,37.6,24.9,37.6L24.9,37.6z"
      />
      <path
        class="st0"
        d="M25.1,45.9C25.1,45.9,25,45.9,25.1,45.9C25,45.9,25.1,45.9,25.1,45.9l0.1-0.3C25.2,45.7,25.1,45.8,25.1,45.9z
			"
      />
      <path
        class="st0"
        d="M25.1,45.3L25.1,45.3C25.1,45.2,25.1,45.2,25.1,45.3z"
      />
      <path
        class="st0"
        d="M16.8,27.5c3,1.4,0.8,2.3,0.7,2.3C16.7,30.1,16,30,15.2,30c-0.5-0.9-1-1.9-1.3-2.9C15,27.1,16,27.2,16.8,27.5
			z"
      />
      <path
        class="st3"
        d="M11.6,27.2c0.8-0.1,1.6-0.1,2.4-0.1c0.3,1,0.8,2,1.3,2.9c-0.7,0-1.5-0.1-2.6,0.1
			C12.2,29.2,11.9,28.2,11.6,27.2z"
      />
      <path
        class="st0"
        d="M25,38L25,38c0.2,0.7,0.4,1.3,0.6,2c-0.1-0.3-0.2-0.2-0.2,0.1l0.2,0.3c0.1-0.6,0-1.3-0.3-1.8c0,0,0-0.3,0-0.4
			C25.2,38,25.1,38,25,38l0-0.4c0,0,0,0,0,0c0.2,0.3,0.6,1,0.6,1c0.1,0.7,0.2,1.3,0.3,2c-0.3-0.1-0.5-0.1-0.8-0.2
			C25.2,39.6,25.1,38.8,25,38z"
      />
      <path
        class="st0"
        d="M24.8,46.5c0-0.1,0.1-0.2,0.2-0.4C25,46,25,46,25,45.9C25,46.1,24.9,46.3,24.8,46.5z"
      />
      <polygon class="st0" points="25.2,45.5 25.2,45.5 25.2,45.5 		" />
      <path
        class="st0"
        d="M25,45.9C25,45.9,25.1,45.9,25,45.9c0.1-0.1,0.1-0.2,0.2-0.4l0,0c-0.1,0.5-0.3,0.9-0.5,1.3
			c0-0.2,0.1-0.5,0.2-0.7c-0.1,0.1-0.1,0.2-0.2,0.4C24.9,46.3,25,46.1,25,45.9z"
      />
    </g>
    <g>
      <path class="st3" d="M11.2,98.9h0.6v5.2h-0.6V98.9z" />
      <path class="st3" d="M14.5,99.5H13v-0.6h3.6v0.6h-1.5v4.6h-0.6V99.5z" />
      <path
        class="st3"
        d="M23,99.4c-0.5,0-1.1,0.2-1.5,0.6c-0.4,0.4-0.6,0.9-0.6,1.5c0,0.5,0.1,0.9,0.4,1.2c0.4,0.6,1.1,0.9,1.8,0.9
			c0.7,0,1.2-0.3,1.7-0.8v0.8c-0.5,0.4-1.1,0.6-1.8,0.6c-0.6,0-1.1-0.2-1.5-0.5c-0.8-0.5-1.2-1.3-1.2-2.2c0-0.8,0.3-1.5,0.8-2
			c0.5-0.5,1.2-0.8,1.9-0.8c0.6,0,1.2,0.2,1.7,0.6v0.8C24.2,99.6,23.7,99.4,23,99.4z"
      />
      <path
        class="st3"
        d="M26.5,101.3c0.3-0.3,0.8-0.5,1.3-0.5c0.5,0,0.9,0.2,1.3,0.5c0.3,0.3,0.5,0.8,0.5,1.2c0,0.5-0.2,0.9-0.5,1.2
			c-0.3,0.3-0.8,0.5-1.3,0.5c-0.5,0-0.9-0.2-1.3-0.5c-0.3-0.3-0.5-0.8-0.5-1.2C26,102,26.1,101.6,26.5,101.3z M27.7,103.7
			c0.6,0,1.2-0.5,1.2-1.2c0-0.7-0.5-1.2-1.2-1.2c-0.7,0-1.2,0.5-1.2,1.2C26.6,103.2,27.1,103.7,27.7,103.7z"
      />
      <path
        class="st3"
        d="M30.9,100.9h0.5v0.5c0.3-0.4,0.7-0.6,1.2-0.6c0.8,0,1.2,0.4,1.2,1.2v2.2h-0.6v-1.9c0-0.7-0.3-1-0.9-1
			c-0.3,0-0.6,0.1-0.8,0.4c-0.2,0.2-0.2,0.5-0.2,0.9v1.7h-0.6V100.9z"
      />
      <path
        class="st3"
        d="M35.6,103.3c0.2,0.4,0.5,0.5,0.8,0.5c0.4,0,0.6-0.2,0.6-0.5c0-0.2-0.2-0.4-0.5-0.5c-0.8-0.3-1.3-0.4-1.3-1.1
			c0-0.6,0.5-1,1.2-1c0.6,0,1,0.2,1.2,0.6l-0.5,0.3c-0.1-0.3-0.4-0.5-0.7-0.5c-0.3,0-0.6,0.2-0.6,0.5c0,0.3,0.3,0.4,0.8,0.6
			c0.6,0.2,0.9,0.4,0.9,1c0,0.6-0.5,1-1.2,1c-0.6,0-1-0.2-1.3-0.7L35.6,103.3z"
      />
      <path
        class="st3"
        d="M39.5,102.5c0,0.9,0.2,1.3,0.9,1.3c0.7,0,0.9-0.4,0.9-1.3v-1.6h0.6v1.9c0,1-0.5,1.5-1.5,1.5
			c-1,0-1.5-0.5-1.5-1.5v-1.9h0.6V102.5z"
      />
      <path class="st3" d="M43.5,98.6H44v5.5h-0.6V98.6z" />
      <path
        class="st3"
        d="M45.2,101.3v-0.5h0.6v-1.3h0.6v1.3H47v0.5h-0.6v2.8h-0.6v-2.8H45.2z"
      />
      <path
        class="st3"
        d="M48.4,98.9c0.2,0,0.4,0.2,0.4,0.4c0,0.2-0.2,0.4-0.4,0.4c-0.2,0-0.4-0.2-0.4-0.4C48,99.1,48.2,98.9,48.4,98.9
			z M48.1,100.9h0.6v3.3h-0.6V100.9z"
      />
      <path
        class="st3"
        d="M50.4,100.9h0.5v0.5c0.3-0.4,0.7-0.6,1.2-0.6c0.8,0,1.2,0.4,1.2,1.2v2.2h-0.6v-1.9c0-0.7-0.3-1-0.9-1
			c-0.3,0-0.6,0.1-0.8,0.4c-0.2,0.2-0.2,0.5-0.2,0.9v1.7h-0.6V100.9z"
      />
      <path
        class="st3"
        d="M58,104.1c0,0.5,0,0.8-0.3,1.2c-0.3,0.3-0.7,0.5-1.3,0.5c-1,0-1.6-0.5-1.6-1.3h0.6c0,0,0,0,0,0
			c0,0.5,0.3,0.8,1,0.8c0.4,0,0.8-0.1,0.9-0.4c0.1-0.2,0.1-0.4,0.1-0.7c0-0.1,0-0.2,0-0.3v-0.3c-0.3,0.5-0.7,0.7-1.2,0.7
			c-0.9,0-1.6-0.7-1.6-1.7c0-1.1,0.6-1.7,1.5-1.7c0.5,0,1,0.2,1.2,0.7v-0.6H58V104.1z M56.4,101.3c-0.7,0-1.1,0.4-1.1,1.2
			c0,0.8,0.4,1.2,1.1,1.2c0.7,0,1.1-0.4,1.1-1.2C57.5,101.8,57,101.3,56.4,101.3z"
      />
      <path
        class="st3"
        d="M66.6,100.4c0.6,0,1.1,0.5,1.1,1c0,0.6-0.5,1.1-1.1,1.1c-0.6,0-1.1-0.5-1.1-1.1
			C65.6,100.8,66,100.4,66.6,100.4z"
      />
      <path
        class="st3"
        d="M75.3,98.7l3.8,4.2v-4h0.6v5.4l-3.8-4.1v3.9h-0.6V98.7z"
      />
      <path
        class="st3"
        d="M81.8,102.6C81.8,102.6,81.8,102.6,81.8,102.6c0,0.8,0.5,1.2,1.1,1.2c0.4,0,0.8-0.2,1.1-0.7l0.4,0.3
			c-0.3,0.6-0.8,0.9-1.5,0.9c-1,0-1.7-0.7-1.7-1.8c0-1,0.7-1.7,1.6-1.7c1,0,1.6,0.6,1.6,1.7c0,0,0,0.1,0,0.1H81.8z M82.7,101.2
			c-0.5,0-0.9,0.3-1,0.9h2C83.7,101.6,83.3,101.2,82.7,101.2z"
      />
      <path
        class="st3"
        d="M85.2,101.3v-0.5h0.6v-1.3h0.6v1.3h0.6v0.5h-0.6v2.8h-0.6v-2.8H85.2z"
      />
      <path
        class="st3"
        d="M91.1,103.1l0.9-2.2h0.6l-1.5,3.5l-1.1-2.5l-1.1,2.5l-1.5-3.5h0.6l0.9,2.2l1-2.3h0.1L91.1,103.1z"
      />
      <path
        class="st3"
        d="M93.9,101.3c0.3-0.3,0.8-0.5,1.3-0.5c0.5,0,0.9,0.2,1.3,0.5c0.3,0.3,0.5,0.8,0.5,1.2c0,0.5-0.2,0.9-0.5,1.2
			c-0.3,0.3-0.8,0.5-1.3,0.5c-0.5,0-0.9-0.2-1.3-0.5c-0.3-0.3-0.5-0.8-0.5-1.2C93.4,102,93.6,101.6,93.9,101.3z M95.2,103.7
			c0.6,0,1.2-0.5,1.2-1.2c0-0.7-0.5-1.2-1.2-1.2c-0.7,0-1.2,0.5-1.2,1.2C94,103.2,94.5,103.7,95.2,103.7z"
      />
      <path
        class="st3"
        d="M98.3,100.9h0.5v0.7c0.3-0.6,0.6-0.8,1.1-0.8c0.1,0,0.3,0,0.4,0.1l-0.2,0.5c-0.1,0-0.2-0.1-0.3-0.1
			c-0.6,0-0.9,0.4-0.9,1.3v1.6h-0.6V100.9z"
      />
      <path
        class="st3"
        d="M101.4,98.6h0.6v3.7l1.6-1.5h0.7l-1.6,1.5l1.8,1.8h-0.8l-1.7-1.7v1.7h-0.6V98.6z"
      />
      <path
        class="st3"
        d="M105.8,98.9c0.2,0,0.4,0.2,0.4,0.4c0,0.2-0.2,0.4-0.4,0.4c-0.2,0-0.4-0.2-0.4-0.4
			C105.4,99.1,105.6,98.9,105.8,98.9z M105.5,100.9h0.6v3.3h-0.6V100.9z"
      />
      <path
        class="st3"
        d="M107.8,100.9h0.5v0.5c0.3-0.4,0.7-0.6,1.2-0.6c0.8,0,1.2,0.4,1.2,1.2v2.2h-0.6v-1.9c0-0.7-0.3-1-0.9-1
			c-0.3,0-0.6,0.1-0.8,0.4c-0.2,0.2-0.2,0.5-0.2,0.9v1.7h-0.6V100.9z"
      />
      <path
        class="st3"
        d="M115.4,104.1c0,0.5,0,0.8-0.3,1.2c-0.3,0.3-0.7,0.5-1.3,0.5c-1,0-1.6-0.5-1.6-1.3h0.6c0,0,0,0,0,0
			c0,0.5,0.3,0.8,1,0.8c0.4,0,0.8-0.1,0.9-0.4c0.1-0.2,0.1-0.4,0.1-0.7c0-0.1,0-0.2,0-0.3v-0.3c-0.3,0.5-0.7,0.7-1.2,0.7
			c-0.9,0-1.6-0.7-1.6-1.7c0-1.1,0.6-1.7,1.5-1.7c0.5,0,1,0.2,1.2,0.7v-0.6h0.6V104.1z M113.7,101.3c-0.7,0-1.1,0.4-1.1,1.2
			c0,0.8,0.4,1.2,1.1,1.2c0.7,0,1.1-0.4,1.1-1.2C114.8,101.8,114.4,101.3,113.7,101.3z"
      />
      <path
        class="st3"
        d="M124,100.4c0.6,0,1.1,0.5,1.1,1c0,0.6-0.5,1.1-1.1,1.1c-0.6,0-1-0.5-1-1.1C122.9,100.8,123.4,100.4,124,100.4
			z"
      />
      <path
        class="st3"
        d="M132.7,98.9l1.3,3.8l1.4-4l1.4,4l1.3-3.8h0.7l-2,5.4l-1.4-4l-1.4,4l-2-5.4H132.7z"
      />
      <path
        class="st3"
        d="M139.7,102.6C139.7,102.6,139.7,102.6,139.7,102.6c0,0.8,0.5,1.2,1.1,1.2c0.4,0,0.8-0.2,1.1-0.7l0.4,0.3
			c-0.3,0.6-0.8,0.9-1.5,0.9c-1,0-1.7-0.7-1.7-1.8c0-1,0.7-1.7,1.6-1.7c1,0,1.6,0.6,1.6,1.7c0,0,0,0.1,0,0.1H139.7z M140.7,101.2
			c-0.5,0-0.9,0.3-1,0.9h2C141.7,101.6,141.3,101.2,140.7,101.2z"
      />
      <path
        class="st3"
        d="M144.2,98.6v2.9c0.2-0.5,0.6-0.7,1.2-0.7c0.9,0,1.5,0.7,1.5,1.8c0,1.1-0.6,1.8-1.6,1.8
			c-0.5,0-0.9-0.3-1.2-0.7v0.6h-0.5v-5.5H144.2z M145.3,103.7c0.6,0,1.1-0.5,1.1-1.3c0-0.7-0.4-1.1-1.1-1.1c-0.7,0-1.1,0.5-1.1,1.2
			C144.2,103.3,144.6,103.7,145.3,103.7z"
      />
      <path
        class="st3"
        d="M151.1,98.9h1c1,0,1.7,0,2.4,0.5c0.6,0.5,0.9,1.2,0.9,2.1s-0.3,1.7-0.9,2.1c-0.6,0.5-1.3,0.5-2.1,0.5
			c-0.1,0-0.2,0-0.2,0h-1V98.9z M152.1,103.5c0.9,0,1.5,0,1.9-0.4c0.4-0.3,0.7-0.9,0.7-1.7c0-0.7-0.2-1.3-0.7-1.6
			c-0.4-0.4-1.1-0.4-1.9-0.4h-0.4v4.1H152.1z"
      />
      <path
        class="st3"
        d="M157.2,102.6C157.2,102.6,157.2,102.6,157.2,102.6c0,0.8,0.5,1.2,1.1,1.2c0.4,0,0.8-0.2,1.1-0.7l0.4,0.3
			c-0.3,0.6-0.8,0.9-1.5,0.9c-1,0-1.7-0.7-1.7-1.8c0-1,0.7-1.7,1.6-1.7c1,0,1.6,0.6,1.6,1.7c0,0,0,0.1,0,0.1H157.2z M158.2,101.2
			c-0.5,0-0.9,0.3-1,0.9h2C159.1,101.6,158.7,101.2,158.2,101.2z"
      />
      <path
        class="st3"
        d="M161.2,103.3c0.2,0.4,0.5,0.5,0.8,0.5c0.4,0,0.6-0.2,0.6-0.5c0-0.2-0.2-0.4-0.5-0.5c-0.8-0.3-1.3-0.4-1.3-1.1
			c0-0.6,0.5-1,1.2-1c0.6,0,1,0.2,1.2,0.6l-0.5,0.3c-0.1-0.3-0.4-0.5-0.7-0.5c-0.3,0-0.6,0.2-0.6,0.5c0,0.3,0.3,0.4,0.8,0.6
			c0.6,0.2,0.9,0.4,0.9,1c0,0.6-0.5,1-1.2,1c-0.6,0-1-0.2-1.3-0.7L161.2,103.3z"
      />
      <path
        class="st3"
        d="M164.9,98.9c0.2,0,0.4,0.2,0.4,0.4c0,0.2-0.2,0.4-0.4,0.4c-0.2,0-0.4-0.2-0.4-0.4
			C164.5,99.1,164.7,98.9,164.9,98.9z M164.6,100.9h0.6v3.3h-0.6V100.9z"
      />
      <path
        class="st3"
        d="M169.9,104.1c0,0.5,0,0.8-0.3,1.2c-0.3,0.3-0.7,0.5-1.3,0.5c-1,0-1.6-0.5-1.6-1.3h0.6c0,0,0,0,0,0
			c0,0.5,0.3,0.8,1,0.8c0.4,0,0.8-0.1,0.9-0.4c0.1-0.2,0.1-0.4,0.1-0.7c0-0.1,0-0.2,0-0.3v-0.3c-0.3,0.5-0.7,0.7-1.2,0.7
			c-0.9,0-1.6-0.7-1.6-1.7c0-1.1,0.6-1.7,1.5-1.7c0.5,0,1,0.2,1.2,0.7v-0.6h0.6V104.1z M168.3,101.3c-0.7,0-1.1,0.4-1.1,1.2
			c0,0.8,0.4,1.2,1.1,1.2c0.7,0,1.1-0.4,1.1-1.2C169.3,101.8,168.9,101.3,168.3,101.3z"
      />
      <path
        class="st3"
        d="M171.5,100.9h0.5v0.5c0.3-0.4,0.7-0.6,1.2-0.6c0.8,0,1.2,0.4,1.2,1.2v2.2h-0.6v-1.9c0-0.7-0.3-1-0.9-1
			c-0.3,0-0.6,0.1-0.8,0.4c-0.2,0.2-0.2,0.5-0.2,0.9v1.7h-0.6V100.9z"
      />
    </g>
  </g>
</svg>
